<?xml version="1.0" encoding="UTF-8" standalone="no"?>
<!-- Created with Inkscape (http://www.inkscape.org/) -->

<svg
   width="1600.2645mm"
   height="900.26459mm"
   viewBox="0 0 1600.2645 900.26459"
   version="1.1"
   id="svg5"
   xml:space="preserve"
   inkscape:version="1.2 (dc2aedaf03, 2022-05-15)"
   sodipodi:docname="justlearn.svg"
   xmlns:inkscape="http://www.inkscape.org/namespaces/inkscape"
   xmlns:sodipodi="http://sodipodi.sourceforge.net/DTD/sodipodi-0.dtd"
   xmlns="http://www.w3.org/2000/svg"
   xmlns:svg="http://www.w3.org/2000/svg"><sodipodi:namedview
     id="namedview7"
     pagecolor="#ffffff"
     bordercolor="#666666"
     borderopacity="1.0"
     inkscape:showpageshadow="2"
     inkscape:pageopacity="0.0"
     inkscape:pagecheckerboard="0"
     inkscape:deskcolor="#d1d1d1"
     inkscape:document-units="mm"
     showgrid="false"
     inkscape:zoom="0.18516565"
     inkscape:cx="2678.6825"
     inkscape:cy="1663.3754"
     inkscape:window-width="2216"
     inkscape:window-height="1336"
     inkscape:window-x="12"
     inkscape:window-y="52"
     inkscape:window-maximized="1"
     inkscape:current-layer="layer1" /><defs
     id="defs2"><clipPath
       clipPathUnits="userSpaceOnUse"
       id="clipPath1574"><circle
         style="opacity:1;fill:#ffffff;stroke:#ffffff;stroke-width:1.25129"
         id="circle1576"
         cx="500.04999"
         cy="499.99997"
         r="472.92993" /></clipPath></defs><g
     inkscape:label="Layer 1"
     inkscape:groupmode="layer"
     id="layer1"
     transform="translate(-85.305674,-93.483202)"><rect
       style="fill:#000000;stroke:#ffffff;stroke-width:0.264583"
       id="rect184"
       width="1600"
       height="900"
       x="85.437965"
       y="93.615494" /><g
       id="g1012"
       transform="matrix(0.63350536,0,0,0.63350536,223.42938,226.86284)"
       clip-path="url(#clipPath1574)"><path
         id="XMLID_26_"
         class="st0"
         d="M 992.7,1000 H 7.3 C 3.3,1000 0,996.7 0,992.7 V 7.3 C 0,3.3 3.3,0 7.3,0 h 985.5 c 4,0 7.3,3.3 7.3,7.3 v 985.5 c -0.1,3.9 -3.4,7.2 -7.4,7.2 z" /><g
         id="g719">
	<g
   id="g537">
		<g
   id="g507">
			<path
   class="st1"
   d="m 63.2,959.2 c 0,2.5 -1.2,3.7 -2.6,3.7 -1.1,0 -1.9,-0.5 -2.1,-1.4 -0.4,0.5 -1,0.8 -1.8,0.8 -1.5,0 -2.6,-1.2 -2.6,-2.8 0,-1.6 1.1,-2.8 2.6,-2.8 0.7,0 1.2,0.3 1.6,0.7 v -0.5 h 1.6 v 3.9 c 0,0.8 0.3,1.4 1,1.4 0.9,0 1.7,-0.9 1.7,-3 0,-3 -2.3,-5.3 -5.4,-5.3 -3.1,0 -5.6,2.4 -5.6,5.7 0,3.3 2.5,5.7 5.9,5.7 1.1,0 2.1,-0.2 2.9,-0.4 v 0.6 c -0.8,0.3 -1.7,0.4 -2.9,0.4 -3.7,0 -6.5,-2.6 -6.5,-6.2 0,-3.4 2.7,-6.2 6.2,-6.2 3.9,-0.2 6,2.9 6,5.7 z m -4.9,0.3 c 0,-0.8 -0.6,-1.4 -1.3,-1.4 -0.8,0 -1.3,0.5 -1.3,1.4 0,0.8 0.6,1.3 1.3,1.3 0.8,0.1 1.3,-0.5 1.3,-1.3 z"
   id="path505" />
		</g>
		<g
   id="g511">
			<path
   class="st1"
   d="m 69.4,955.1 v 2 c -1.2,-0.1 -2.6,0.5 -2.6,2.4 v 4.3 h -1.9 v -8.6 h 1.9 v 1.4 c 0.5,-1.1 1.5,-1.5 2.6,-1.5 z"
   id="path509" />
		</g>
		<g
   id="g515">
			<path
   class="st1"
   d="m 74.6,962.3 c 1,0 1.8,-0.5 2.2,-1.1 l 1.5,0.9 c -0.8,1.2 -2.1,1.9 -3.8,1.9 -2.8,0 -4.7,-1.9 -4.7,-4.5 0,-2.5 1.8,-4.5 4.5,-4.5 2.6,0 4.3,2.1 4.3,4.5 0,0.3 0,0.5 -0.1,0.8 h -6.8 c 0.4,1.3 1.5,2 2.9,2 z m 2.3,-3.5 c -0.3,-1.5 -1.3,-2.1 -2.5,-2.1 -1.4,0 -2.3,0.8 -2.6,2.1 z"
   id="path513" />
		</g>
		<g
   id="g519">
			<path
   class="st1"
   d="m 88.9,955.2 v 8.6 H 87 v -1.2 c -0.7,0.9 -1.7,1.5 -3,1.5 -2.3,0 -4.3,-2 -4.3,-4.5 0,-2.6 1.9,-4.5 4.3,-4.5 1.3,0 2.3,0.5 3,1.4 v -1.2 h 1.9 z m -1.8,4.3 c 0,-1.6 -1.2,-2.7 -2.7,-2.7 -1.5,0 -2.7,1.1 -2.7,2.7 0,1.6 1.2,2.7 2.7,2.7 1.5,0.1 2.7,-1.1 2.7,-2.7 z"
   id="path517" />
		</g>
		<g
   id="g523">
			<path
   class="st1"
   d="M 91.1,951.3 H 93 v 12.5 h -1.9 z"
   id="path521" />
		</g>
		<g
   id="g527">
			<path
   class="st1"
   d="m 102.9,955.2 -3.3,8.6 h -2.1 l -3.3,-8.6 h 2 l 2.4,6.5 2.4,-6.5 z"
   id="path525" />
		</g>
		<g
   id="g531">
			<path
   class="st1"
   d="m 104.2,955.2 h 1.9 v 8.9 c 0,2.4 -1.2,3.5 -3.5,3.3 v -1.8 c 1.1,0.1 1.7,-0.3 1.7,-1.5 v -8.9 z m -0.2,-2.4 c 0,-0.7 0.5,-1.2 1.2,-1.2 0.7,0 1.2,0.5 1.2,1.2 0,0.6 -0.5,1.2 -1.2,1.2 -0.7,0 -1.2,-0.6 -1.2,-1.2 z"
   id="path529" />
		</g>
		<g
   id="g535">
			<path
   class="st1"
   d="m 116,955.2 -3.3,8.8 c -0.8,2.2 -2.2,3.3 -4.2,3.2 v -1.7 c 1.2,0.1 1.9,-0.5 2.3,-1.7 l 0.1,-0.2 -3.6,-8.4 h 2 l 2.6,6.2 2.2,-6.2 z"
   id="path533" />
		</g>
	</g>
	<g
   id="g549">
		<path
   class="st1"
   d="m 211.9,938.7 c 0,2.1 -1.5,3.8 -3.6,3.8 h -3 v -7.6 h 3 c 2.1,0 3.6,1.7 3.6,3.8 z m -1,0 c 0,-1.6 -1.1,-2.9 -2.6,-2.9 h -2 v 5.7 h 2 c 1.5,0.1 2.6,-1.2 2.6,-2.8 z"
   id="path539" />
		<path
   class="st1"
   d="m 219.5,940.8 h -3.4 l -0.6,1.7 h -1.1 l 2.8,-7.6 h 1.1 l 2.8,7.6 H 220 Z m -0.3,-0.9 -1.4,-3.8 -1.4,3.8 z"
   id="path541" />
		<path
   class="st1"
   d="m 226.4,939.4 v 3.1 h -1 v -3.1 l -2.7,-4.5 h 1.1 l 2.1,3.6 2.1,-3.6 h 1.1 z"
   id="path543" />
		<path
   class="st1"
   d="m 241.5,934.9 v 0.9 l -2.8,6.7 h -1.1 l 2.8,-6.7 h -3.7 v -1 h 4.8 z"
   id="path545" />
		<path
   class="st1"
   d="m 249.6,940.3 c 0,1.5 -1.2,2.4 -2.6,2.4 -1.1,0 -2.1,-0.5 -2.5,-1.5 l 0.9,-0.5 c 0.2,0.7 0.8,1.1 1.7,1.1 0.9,0 1.6,-0.5 1.6,-1.4 0,-0.9 -0.7,-1.4 -1.6,-1.4 h -0.3 l -0.4,-0.6 1.8,-2.4 h -3.4 v -0.9 h 4.6 v 0.9 l -1.7,2.2 c 1,0 1.9,0.8 1.9,2.1 z"
   id="path547" />
	</g>
	<g
   id="g571">
		<path
   class="st1"
   d="m 58.9,938.7 c 0,2.1 -1.5,3.8 -3.6,3.8 h -3 v -7.6 h 3 c 2.1,0 3.6,1.7 3.6,3.8 z m -1,0 c 0,-1.6 -1.1,-2.9 -2.6,-2.9 h -2 v 5.7 h 2 c 1.5,0.1 2.6,-1.2 2.6,-2.8 z"
   id="path551" />
		<path
   class="st1"
   d="m 67,941.6 v 1 H 62.4 V 935 h 4.5 v 1 h -3.5 v 2.3 h 3.2 v 0.9 h -3.2 v 2.4 z"
   id="path553" />
		<path
   class="st1"
   d="m 70,940.8 0.9,-0.5 c 0.3,0.8 0.9,1.4 2,1.4 1.1,0 1.6,-0.5 1.6,-1.2 0,-0.8 -0.7,-1 -1.8,-1.4 -1.2,-0.4 -2.4,-0.8 -2.4,-2.2 0,-1.4 1.1,-2.2 2.4,-2.2 1.3,0 2.2,0.7 2.6,1.7 l -0.8,0.5 c -0.3,-0.7 -0.8,-1.2 -1.7,-1.2 -0.8,0 -1.4,0.4 -1.4,1.1 0,0.7 0.5,1 1.6,1.3 1.3,0.4 2.6,0.8 2.6,2.3 0,1.3 -1.1,2.2 -2.6,2.2 -1.5,0.1 -2.6,-0.7 -3,-1.8 z"
   id="path555" />
		<path
   class="st1"
   d="m 80,934.9 v 7.6 h -1 v -7.6 z"
   id="path557" />
		<path
   class="st1"
   d="m 91.3,939.2 c 0,1.9 -1.4,3.5 -3.7,3.5 -2.4,0 -4,-1.8 -4,-4 0,-2.2 1.7,-4 4,-4 1.4,0 2.7,0.8 3.3,1.8 L 90,937 c -0.4,-0.8 -1.4,-1.4 -2.4,-1.4 -1.8,0 -3,1.3 -3,3 0,1.7 1.2,3 3,3 1.6,0 2.5,-0.9 2.7,-2 h -2.8 v -0.9 h 3.8 z"
   id="path559" />
		<path
   class="st1"
   d="m 100.6,934.9 v 7.6 h -0.8 l -3.9,-5.7 v 5.7 h -1 v -7.6 h 0.8 l 3.9,5.7 v -5.7 z"
   id="path561" />
		<path
   class="st1"
   d="m 109.1,941.6 v 1 h -4.6 V 935 h 4.5 v 1 h -3.5 v 2.3 h 3.2 v 0.9 h -3.2 v 2.4 z"
   id="path563" />
		<path
   class="st1"
   d="m 119.2,938.7 c 0,2.1 -1.5,3.8 -3.6,3.8 h -3 v -7.6 h 3 c 2,0 3.6,1.7 3.6,3.8 z m -1,0 c 0,-1.6 -1.1,-2.9 -2.6,-2.9 h -2 v 5.7 h 2 c 1.5,0.1 2.6,-1.2 2.6,-2.8 z"
   id="path565" />
		<path
   class="st1"
   d="m 133.2,940.4 c 0,1.2 -1,2.2 -2.2,2.2 h -3.3 V 935 h 3 c 1.2,0 2.1,0.9 2.1,2.1 0,0.7 -0.3,1.2 -0.8,1.6 0.7,0.2 1.2,0.8 1.2,1.7 z m -4.5,-4.6 v 2.3 h 2 c 0.6,0 1.1,-0.5 1.1,-1.2 0,-0.6 -0.5,-1.2 -1.1,-1.2 h -2 z m 3.5,4.5 c 0,-0.7 -0.5,-1.2 -1.2,-1.2 h -2.3 v 2.5 h 2.3 c 0.7,0 1.2,-0.6 1.2,-1.3 z"
   id="path567" />
		<path
   class="st1"
   d="m 139.4,939.4 v 3.1 h -1 v -3.1 l -2.7,-4.5 h 1.1 l 2.1,3.6 2.1,-3.6 h 1.1 z"
   id="path569" />
	</g>
	<g
   id="g595">
		<path
   class="st1"
   d="m 204.6,951.9 h 2.1 l 2.6,9.7 2.8,-9.7 h 1.9 l 2.8,9.7 2.6,-9.7 h 2.1 l -3.5,12.4 h -2.4 l -2.6,-9 -2.6,9 H 208 Z"
   id="path573" />
		<path
   class="st1"
   d="m 226.9,955.3 v 2.1 c -1.3,-0.1 -2.7,0.5 -2.7,2.5 v 4.5 h -1.9 v -8.9 h 1.9 v 1.5 c 0.6,-1.3 1.6,-1.7 2.7,-1.7 z"
   id="path575" />
		<path
   class="st1"
   d="m 228.1,952.9 c 0,-0.7 0.5,-1.2 1.2,-1.2 0.7,0 1.2,0.5 1.2,1.2 0,0.7 -0.5,1.2 -1.2,1.2 -0.7,0 -1.2,-0.5 -1.2,-1.2 z m 0.3,2.5 h 1.9 v 8.9 h -1.9 z"
   id="path577" />
		<path
   class="st1"
   d="m 235.2,957.3 v 4.2 c 0,1.1 0.7,1.1 2.2,1 v 1.7 c -2.9,0.4 -4.1,-0.5 -4.1,-2.8 v -4.2 h -1.6 v -1.8 h 1.6 v -1.9 l 1.9,-0.6 v 2.5 h 2.2 v 1.8 h -2.2 z"
   id="path579" />
		<path
   class="st1"
   d="m 238.9,952.9 c 0,-0.7 0.5,-1.2 1.2,-1.2 0.7,0 1.2,0.5 1.2,1.2 0,0.7 -0.5,1.2 -1.2,1.2 -0.6,0 -1.2,-0.5 -1.2,-1.2 z m 0.3,2.5 h 1.9 v 8.9 h -1.9 z"
   id="path581" />
		<path
   class="st1"
   d="m 251.3,958.9 v 5.4 h -1.9 v -5.2 c 0,-1.3 -0.8,-2.1 -2,-2.1 -1.3,0 -2.2,0.7 -2.2,2.5 v 4.7 h -1.9 v -8.9 h 1.9 v 1.1 c 0.6,-0.9 1.5,-1.4 2.7,-1.4 2,0.2 3.4,1.6 3.4,3.9 z"
   id="path583" />
		<path
   class="st1"
   d="m 262.3,955.4 v 8.4 c 0,2.8 -2.2,4.2 -4.5,4.2 -1.9,0 -3.5,-0.7 -4.2,-2.1 l 1.6,-1 c 0.4,0.8 1,1.4 2.6,1.4 1.6,0 2.6,-0.9 2.6,-2.4 v -1.1 c -0.7,1 -1.7,1.5 -3.1,1.5 -2.5,0 -4.5,-2 -4.5,-4.6 0,-2.6 2,-4.6 4.5,-4.6 1.4,0 2.4,0.6 3.1,1.5 v -1.3 h 1.9 z m -1.9,4.4 c 0,-1.6 -1.2,-2.8 -2.8,-2.8 -1.6,0 -2.8,1.2 -2.8,2.8 0,1.6 1.2,2.8 2.8,2.8 1.6,0 2.8,-1.2 2.8,-2.8 z"
   id="path585" />
		<path
   class="st1"
   d="m 277.2,953.9 h -3.5 v 10.4 h -2 v -10.4 h -3.5 V 952 h 9 z"
   id="path587" />
		<path
   class="st1"
   d="m 276.5,959.9 c 0,-2.6 2.1,-4.7 4.7,-4.7 2.6,0 4.7,2 4.7,4.7 0,2.6 -2.1,4.7 -4.7,4.7 -2.7,-0.1 -4.7,-2.1 -4.7,-4.7 z m 7.4,0 c 0,-1.6 -1.2,-2.8 -2.8,-2.8 -1.6,0 -2.8,1.2 -2.8,2.8 0,1.6 1.2,2.8 2.8,2.8 1.6,0 2.8,-1.2 2.8,-2.8 z"
   id="path589" />
		<path
   class="st1"
   d="m 287,959.9 c 0,-2.6 2.1,-4.7 4.7,-4.7 2.6,0 4.7,2 4.7,4.7 0,2.6 -2.1,4.7 -4.7,4.7 -2.6,-0.1 -4.7,-2.1 -4.7,-4.7 z m 7.5,0 c 0,-1.6 -1.2,-2.8 -2.8,-2.8 -1.6,0 -2.8,1.2 -2.8,2.8 0,1.6 1.2,2.8 2.8,2.8 1.6,0 2.8,-1.2 2.8,-2.8 z"
   id="path591" />
		<path
   class="st1"
   d="m 298.1,951.4 h 1.9 v 12.9 h -1.9 z"
   id="path593" />
	</g>
	<g
   id="g717">
		<g
   id="g645">
			<g
   id="g599">
				<path
   class="st1"
   d="m 846.1,938.7 c 0,2.1 -1.5,3.8 -3.6,3.8 h -3 v -7.6 h 3 c 2.1,0 3.6,1.7 3.6,3.8 z m -0.9,0 c 0,-1.6 -1.1,-2.9 -2.6,-2.9 h -2 v 5.7 h 2 c 1.5,0.1 2.6,-1.2 2.6,-2.8 z"
   id="path597" />
			</g>
			<g
   id="g603">
				<path
   class="st1"
   d="m 849.3,938.7 c 0,-2.2 1.7,-4 3.9,-4 2.2,0 4,1.8 4,4 0,2.2 -1.7,4 -4,4 -2.2,0 -3.9,-1.8 -3.9,-4 z m 6.8,0 c 0,-1.7 -1.3,-3 -2.9,-3 -1.7,0 -2.9,1.3 -2.9,3 0,1.7 1.3,3 2.9,3 1.7,0 2.9,-1.3 2.9,-3 z"
   id="path601" />
			</g>
			<g
   id="g607">
				<path
   class="st1"
   d="m 859.8,934.9 h 1.1 l 1.7,6.3 1.9,-6.3 h 1 l 1.9,6.3 1.7,-6.3 h 1.1 l -2.2,7.6 h -1.2 l -1.8,-6.1 -1.8,6.1 H 862 Z"
   id="path605" />
			</g>
			<g
   id="g611">
				<path
   class="st1"
   d="m 879.3,934.9 v 7.6 h -0.8 l -3.9,-5.7 v 5.7 h -1 v -7.6 h 0.8 l 3.9,5.7 v -5.7 z"
   id="path609" />
			</g>
			<g
   id="g615">
				<path
   class="st1"
   d="m 887.5,941.6 v 1 h -4.3 V 935 h 1 v 6.7 h 3.3 z"
   id="path613" />
			</g>
			<g
   id="g619">
				<path
   class="st1"
   d="m 889.9,938.7 c 0,-2.2 1.7,-4 3.9,-4 2.2,0 4,1.8 4,4 0,2.2 -1.7,4 -4,4 -2.2,0 -3.9,-1.8 -3.9,-4 z m 6.9,0 c 0,-1.7 -1.3,-3 -2.9,-3 -1.7,0 -2.9,1.3 -2.9,3 0,1.7 1.3,3 2.9,3 1.6,0 2.9,-1.3 2.9,-3 z"
   id="path617" />
			</g>
			<g
   id="g623">
				<path
   class="st1"
   d="M 905.4,940.8 H 902 l -0.6,1.7 h -1.1 l 2.8,-7.6 h 1.1 l 2.8,7.6 h -1 z m -0.3,-0.9 -1.4,-3.8 -1.4,3.8 z"
   id="path621" />
			</g>
			<g
   id="g627">
				<path
   class="st1"
   d="m 916.9,938.7 c 0,2.1 -1.5,3.8 -3.6,3.8 h -3 v -7.6 h 3 c 2.1,0 3.6,1.7 3.6,3.8 z m -1,0 c 0,-1.6 -1.1,-2.9 -2.6,-2.9 h -2 v 5.7 h 2 c 1.6,0.1 2.6,-1.2 2.6,-2.8 z"
   id="path625" />
			</g>
			<g
   id="g631">
				<path
   class="st1"
   d="m 926.5,935.8 v 2.5 h 3.2 v 1 h -3.2 v 3.2 h -1 v -7.6 h 4.4 v 1 h -3.4 z"
   id="path629" />
			</g>
			<g
   id="g635">
				<path
   class="st1"
   d="m 936.2,939.6 h -1.8 v 2.9 h -1 v -7.6 h 3 c 1.3,0 2.4,1.1 2.4,2.4 0,1 -0.7,1.9 -1.6,2.2 l 1.8,3.1 h -1.1 z m -1.8,-0.9 h 2 c 0.8,0 1.4,-0.6 1.4,-1.4 0,-0.8 -0.6,-1.4 -1.4,-1.4 h -2 z"
   id="path633" />
			</g>
			<g
   id="g639">
				<path
   class="st1"
   d="m 941.9,938.7 c 0,-2.2 1.7,-4 3.9,-4 2.2,0 4,1.8 4,4 0,2.2 -1.7,4 -4,4 -2.2,0 -3.9,-1.8 -3.9,-4 z m 6.9,0 c 0,-1.7 -1.3,-3 -2.9,-3 -1.7,0 -2.9,1.3 -2.9,3 0,1.7 1.3,3 2.9,3 1.6,0 2.9,-1.3 2.9,-3 z"
   id="path637" />
			</g>
			<g
   id="g643">
				<path
   class="st1"
   d="m 960.4,942.5 h -1 v -6 l -2.5,4.2 h -0.1 l -2.5,-4.1 v 5.9 h -1 v -7.6 h 1.1 l 2.4,4 2.4,-4 h 1.1 v 7.6 z"
   id="path641" />
			</g>
		</g>
		<g
   id="g715">
			<g
   id="g649">
				<path
   class="st1"
   d="m 839.3,952.9 c 0,-0.7 0.5,-1.2 1.2,-1.2 0.7,0 1.2,0.5 1.2,1.2 0,0.7 -0.5,1.2 -1.2,1.2 -0.6,0 -1.2,-0.5 -1.2,-1.2 z m 0.3,2.5 h 1.9 v 8.9 h -1.9 z"
   id="path647" />
			</g>
			<g
   id="g653">
				<path
   class="st1"
   d="m 843.7,951.4 h 1.9 v 12.9 h -1.9 z"
   id="path651" />
			</g>
			<g
   id="g657">
				<path
   class="st1"
   d="m 847.8,951.4 h 1.9 v 12.9 h -1.9 z"
   id="path655" />
			</g>
			<g
   id="g661">
				<path
   class="st1"
   d="m 852,951.4 h 1.9 v 12.9 H 852 Z"
   id="path659" />
			</g>
			<g
   id="g665">
				<path
   class="st1"
   d="m 864,955.4 v 8.9 h -1.9 v -1.1 c -0.6,0.9 -1.5,1.4 -2.7,1.4 -2,0 -3.4,-1.3 -3.4,-3.6 v -5.4 h 1.9 v 5.2 c 0,1.3 0.8,2.1 2,2.1 1.3,0 2.2,-0.7 2.2,-2.5 v -4.7 h 1.9 z"
   id="path663" />
			</g>
			<g
   id="g669">
				<path
   class="st1"
   d="m 872.6,961.8 c 0,1.8 -1.5,2.7 -3.5,2.7 -1.8,0 -3,-0.8 -3.6,-2.1 l 1.6,-1 c 0.3,0.8 1,1.3 2,1.3 0.8,0 1.5,-0.3 1.5,-1 0,-1.6 -4.8,-0.7 -4.8,-3.9 0,-1.7 1.4,-2.7 3.2,-2.7 1.5,0 2.7,0.7 3.3,1.8 l -1.6,0.9 c -0.3,-0.7 -0.9,-1 -1.7,-1 -0.7,0 -1.3,0.3 -1.3,0.9 0.2,1.8 4.9,0.8 4.9,4.1 z"
   id="path667" />
			</g>
			<g
   id="g673">
				<path
   class="st1"
   d="m 876.7,957.3 v 4.2 c 0,1.1 0.7,1.1 2.2,1 v 1.7 c -2.9,0.4 -4.1,-0.5 -4.1,-2.8 v -4.2 h -1.6 v -1.8 h 1.6 v -1.9 l 1.9,-0.6 v 2.5 h 2.2 v 1.8 h -2.2 z"
   id="path671" />
			</g>
			<g
   id="g677">
				<path
   class="st1"
   d="m 885.4,955.3 v 2.1 c -1.3,-0.1 -2.7,0.5 -2.7,2.5 v 4.5 h -1.9 v -8.9 h 1.9 v 1.5 c 0.5,-1.3 1.5,-1.7 2.7,-1.7 z"
   id="path675" />
			</g>
			<g
   id="g681">
				<path
   class="st1"
   d="m 895.3,955.4 v 8.9 h -1.9 V 963 c -0.7,0.9 -1.7,1.5 -3.1,1.5 -2.4,0 -4.4,-2 -4.4,-4.7 0,-2.6 2,-4.7 4.4,-4.7 1.4,0 2.4,0.6 3.1,1.5 v -1.3 h 1.9 z m -1.9,4.5 c 0,-1.6 -1.2,-2.8 -2.8,-2.8 -1.6,0 -2.8,1.2 -2.8,2.8 0,1.6 1.2,2.8 2.8,2.8 1.6,0 2.8,-1.2 2.8,-2.8 z"
   id="path679" />
			</g>
			<g
   id="g685">
				<path
   class="st1"
   d="m 900.3,957.3 v 4.2 c 0,1.1 0.7,1.1 2.2,1 v 1.7 c -2.9,0.4 -4.1,-0.5 -4.1,-2.8 v -4.2 h -1.6 v -1.8 h 1.6 v -1.9 l 1.9,-0.6 v 2.5 h 2.2 v 1.8 h -2.2 z"
   id="path683" />
			</g>
			<g
   id="g689">
				<path
   class="st1"
   d="m 903.9,952.9 c 0,-0.7 0.5,-1.2 1.2,-1.2 0.7,0 1.2,0.5 1.2,1.2 0,0.7 -0.5,1.2 -1.2,1.2 -0.6,0 -1.2,-0.5 -1.2,-1.2 z m 0.3,2.5 h 1.9 v 8.9 h -1.9 z"
   id="path687" />
			</g>
			<g
   id="g693">
				<path
   class="st1"
   d="m 907.8,959.9 c 0,-2.6 2.1,-4.7 4.7,-4.7 2.6,0 4.7,2 4.7,4.7 0,2.6 -2.1,4.7 -4.7,4.7 -2.6,-0.1 -4.7,-2.1 -4.7,-4.7 z m 7.5,0 c 0,-1.6 -1.2,-2.8 -2.8,-2.8 -1.6,0 -2.8,1.2 -2.8,2.8 0,1.6 1.2,2.8 2.8,2.8 1.6,0 2.8,-1.2 2.8,-2.8 z"
   id="path691" />
			</g>
			<g
   id="g697">
				<path
   class="st1"
   d="m 927,958.9 v 5.4 h -1.9 v -5.2 c 0,-1.3 -0.8,-2.1 -2,-2.1 -1.3,0 -2.2,0.7 -2.2,2.5 v 4.7 H 919 v -8.9 h 1.9 v 1.1 c 0.6,-0.9 1.5,-1.4 2.7,-1.4 1.9,0.2 3.4,1.6 3.4,3.9 z"
   id="path695" />
			</g>
			<g
   id="g701">
				<path
   class="st1"
   d="m 935.5,961.8 c 0,1.8 -1.5,2.7 -3.5,2.7 -1.8,0 -3,-0.8 -3.6,-2.1 l 1.6,-1 c 0.3,0.8 1,1.3 2,1.3 0.8,0 1.5,-0.3 1.5,-1 0,-1.6 -4.8,-0.7 -4.8,-3.9 0,-1.7 1.4,-2.7 3.2,-2.7 1.5,0 2.7,0.7 3.3,1.8 l -1.6,0.9 c -0.3,-0.7 -0.9,-1 -1.7,-1 -0.7,0 -1.3,0.3 -1.3,0.9 0.1,1.8 4.9,0.8 4.9,4.1 z"
   id="path699" />
			</g>
			<g
   id="g705">
				<path
   class="st1"
   d="m 936.8,963.2 c 0,-0.7 0.6,-1.3 1.3,-1.3 0.7,0 1.3,0.6 1.3,1.3 0,0.7 -0.6,1.3 -1.3,1.3 -0.7,0 -1.3,-0.6 -1.3,-1.3 z"
   id="path703" />
			</g>
			<g
   id="g709">
				<path
   class="st1"
   d="m 940.3,959.9 c 0,-2.6 2,-4.7 4.7,-4.7 1.7,0 3.2,0.9 3.9,2.3 l -1.6,1 c -0.4,-0.8 -1.3,-1.4 -2.3,-1.4 -1.6,0 -2.7,1.2 -2.7,2.8 0,1.6 1.2,2.8 2.7,2.8 1.1,0 1.9,-0.5 2.4,-1.4 l 1.6,0.9 c -0.7,1.4 -2.2,2.3 -4,2.3 -2.7,0 -4.7,-2 -4.7,-4.6 z"
   id="path707" />
			</g>
			<g
   id="g713">
				<path
   class="st1"
   d="m 949.7,959.9 c 0,-2.6 2.1,-4.7 4.7,-4.7 2.6,0 4.7,2 4.7,4.7 0,2.6 -2.1,4.7 -4.7,4.7 -2.6,-0.1 -4.7,-2.1 -4.7,-4.7 z m 7.5,0 c 0,-1.6 -1.2,-2.8 -2.8,-2.8 -1.6,0 -2.8,1.2 -2.8,2.8 0,1.6 1.2,2.8 2.8,2.8 1.6,0 2.8,-1.2 2.8,-2.8 z"
   id="path711" />
			</g>
		</g>
	</g>
</g><g
         id="g747">
	<g
   id="XMLID_97_">
		<path
   id="XMLID_91_"
   class="st2"
   d="m 290.4,780.9 h -31.5 c -4,0 -7.3,-3.3 -7.3,-7.3 V 395.9 h 46.1 v 377.7 c 0,4 -3.2,7.3 -7.3,7.3 z" />
		<polygon
   id="XMLID_89_"
   class="st2"
   points="260.1,330.9 258.4,395.9 290.9,395.9 289.3,330.9 " />
		<polygon
   id="XMLID_88_"
   class="st2"
   points="268.7,323.9 260.1,330.9 289.3,330.9 280.7,323.9 " />
		<rect
   id="XMLID_87_"
   x="267.70001"
   y="297.89999"
   class="st2"
   width="13.9"
   height="27.200001" />
		<line
   id="XMLID_85_"
   class="st2"
   x1="274.70001"
   y1="279.39999"
   x2="274.70001"
   y2="297" />
	</g>
	<path
   id="XMLID_52_"
   class="st3"
   d="m 278.2,772.9 h -31.5 c -4,0 -7.3,-3.3 -7.3,-7.3 V 387.9 h 46.1 v 377.7 c -0.1,4 -3.3,7.3 -7.3,7.3 z" />
	<path
   id="XMLID_58_"
   class="st4"
   d="m 278.2,772.9 v 0 c -4,0 -7.3,-3.3 -7.3,-7.3 V 387.9 h 14.5 v 377.7 c 0,4 -3.2,7.3 -7.2,7.3 z" />
	<path
   id="XMLID_57_"
   class="st5"
   d="m 247.4,772.9 h -0.8 c -4,0 -7.3,-3.3 -7.3,-7.3 V 387.9 h 15.3 v 377.7 c 0.1,4 -3.2,7.3 -7.2,7.3 z" />
	<path
   id="XMLID_4_"
   class="st6"
   d="m 278.2,772.9 h -31.5 c -4,0 -7.3,-3.3 -7.3,-7.3 V 387.9 h 46.1 v 377.7 c -0.1,4 -3.3,7.3 -7.3,7.3 z" />
	<polygon
   id="XMLID_55_"
   class="st7"
   points="247.8,322.9 246.1,387.9 278.7,387.9 277,322.9 " />
	<polygon
   id="XMLID_76_"
   class="st8"
   points="266.9,322.9 268.6,387.9 278.7,387.9 277,322.9 " />
	<polygon
   id="XMLID_77_"
   class="st9"
   points="246.1,387.9 256.9,387.9 258.5,322.9 247.8,322.9 " />
	<polygon
   id="XMLID_6_"
   class="st6"
   points="247.8,322.9 246.1,387.9 278.7,387.9 277,322.9 " />
	<rect
   id="XMLID_53_"
   x="239.3"
   y="729"
   class="st10"
   width="46.099998"
   height="20" />
	<rect
   id="XMLID_66_"
   x="276.10001"
   y="730"
   class="st11"
   width="9.3999996"
   height="20" />
	<rect
   id="XMLID_64_"
   x="239.3"
   y="729.20001"
   class="st12"
   width="17.5"
   height="20" />
	<rect
   id="XMLID_5_"
   x="239.3"
   y="729"
   class="st6"
   width="46.099998"
   height="20" />
	<rect
   id="XMLID_54_"
   x="239.3"
   y="426.89999"
   class="st13"
   width="46.099998"
   height="20" />
	<rect
   id="XMLID_62_"
   x="276.10001"
   y="426.89999"
   class="st11"
   width="9.3999996"
   height="20" />
	<rect
   id="XMLID_61_"
   x="239.3"
   y="426.89999"
   class="st12"
   width="17.5"
   height="20" />
	<rect
   id="XMLID_7_"
   x="239.3"
   y="426.89999"
   class="st6"
   width="46.099998"
   height="20" />
	<polygon
   id="XMLID_8_"
   class="st6"
   points="256.4,315.9 247.8,322.9 277,322.9 268.4,315.9 " />
	<rect
   id="XMLID_56_"
   x="255.39999"
   y="289.89999"
   class="st7"
   width="13.9"
   height="27.200001" />
	<rect
   id="XMLID_9_"
   x="255.39999"
   y="289.89999"
   class="st6"
   width="13.9"
   height="27.200001" />
	<line
   id="XMLID_11_"
   class="st14"
   x1="262.39999"
   y1="271.39999"
   x2="262.39999"
   y2="289" />
</g><g
         id="g768">
	<g
   id="XMLID_105_">
		<path
   id="XMLID_104_"
   class="st15"
   d="m 448,764.7 h 6.5 c 15.8,0 28.7,-12.8 28.7,-28.7 V 600 l -9.7,26.3 9.7,14" />
		<path
   id="XMLID_102_"
   class="st2"
   d="m 457.2,669.4 c -15.2,0 -30.5,0 -45.7,0 -9.9,-78.6 -1.4,-224.3 7.5,-282.5 10.2,0 20.5,0 30.7,0 8.9,58.2 17.4,203.9 7.5,282.5 z" />
		<path
   id="XMLID_100_"
   class="st2"
   d="m 465.4,712.6 c -6.5,53.4 -21.9,85.9 -31,85.9 -9.2,0 -24.6,-32.5 -31,-85.9 -5.1,-46.8 -3.6,-93.7 -1.7,-140.2 21.8,0 43.6,0 65.5,0 1.8,46.5 3.2,93.4 -1.8,140.2 z" />
		<path
   id="XMLID_99_"
   class="st2"
   d="m 457.4,331.4 c -14.3,-20.3 -23.1,-60.1 -23.1,-60.1 0,0 -8.7,39.8 -23.1,60.1 -0.7,1 -0.7,2.2 0,3.2 10.2,15.2 13.4,35.3 9.2,52.2 h 13.9 13.9 c -4.3,-16.9 -1.1,-37 9.2,-52.2 0.7,-0.9 0.7,-2.2 0,-3.2 z" />
	</g>
	<path
   id="XMLID_15_"
   class="st6"
   d="m 435,757.7 h 6.5 c 15.8,0 28.7,-12.8 28.7,-28.7 V 593 l -9.7,26.3 9.7,14" />
	<path
   id="XMLID_68_"
   class="st10"
   d="m 444.2,662.4 c -15.2,0 -30.5,0 -45.7,0 -9.9,-78.6 -1.4,-224.3 7.5,-282.5 10.2,0 20.5,0 30.7,0 8.9,58.2 17.4,203.9 7.5,282.5 z" />
	<path
   id="XMLID_98_"
   class="st16"
   d="m 436.7,379.9 c -2.1,0 -4.3,0 -6.4,0 4.8,61.6 15.1,203.9 5.2,282.5 2.9,0 5.8,0 8.7,0 9.9,-78.6 1.4,-224.3 -7.5,-282.5 z" />
	<path
   id="XMLID_73_"
   class="st17"
   d="m 425.8,657.9 c -9.6,-76.2 -8.7,-203.7 -4.5,-278.1 -6.3,0 -9,0 -15.4,0 -8.9,58.2 -17.4,203.9 -7.5,282.5 15.2,0 30.5,0 45.7,0 0.2,-1.5 0.4,-3 0.5,-4.5 -6.2,0.1 -12.5,0.1 -18.8,0.1 z" />
	<path
   id="XMLID_10_"
   class="st6"
   d="m 444.2,662.4 c -15.2,0 -30.5,0 -45.7,0 -9.9,-78.6 -1.4,-224.3 7.5,-282.5 10.2,0 20.5,0 30.7,0 8.9,58.2 17.4,203.9 7.5,282.5 z" />
	<path
   id="XMLID_69_"
   class="st10"
   d="m 452.4,705.6 c -6.5,53.4 -21.9,85.9 -31,85.9 -9.2,0 -24.6,-32.5 -31,-85.9 -5.1,-46.8 -3.6,-93.7 -1.7,-140.2 21.8,0 43.6,0 65.5,0 1.8,46.5 3.2,93.4 -1.8,140.2 z" />
	<path
   id="XMLID_96_"
   class="st16"
   d="m 454.1,565.3 c -3.7,0 -7.4,0 -11.1,0 1.9,46.5 3.4,93.4 -1.7,140.2 -5.3,43.6 -16.5,73.3 -25.5,82.7 2,2.1 3.9,3.2 5.6,3.2 9.2,0 24.6,-32.5 31,-85.9 5,-46.7 3.6,-93.6 1.7,-140.2 z" />
	<path
   id="XMLID_72_"
   class="st17"
   d="m 390.3,705.6 c 2.3,19.4 5.9,36 9.9,49.4 19.4,-4.1 26.4,-69.2 26.4,-156.2 0,-9.3 -0.4,-24.4 -0.7,-33.4 -15.3,0 -22,0 -37.3,0 -2,46.5 -3.4,93.4 1.7,140.2 z" />
	<path
   id="XMLID_13_"
   class="st6"
   d="m 452.4,705.6 c -6.5,53.4 -21.9,85.9 -31,85.9 -9.2,0 -24.6,-32.5 -31,-85.9 -5.1,-46.8 -3.6,-93.7 -1.7,-140.2 21.8,0 43.6,0 65.5,0 1.8,46.5 3.2,93.4 -1.8,140.2 z" />
	<path
   id="XMLID_74_"
   class="st18"
   d="m 444.4,324.4 c -14.3,-20.3 -23.1,-60.1 -23.1,-60.1 0,0 -8.7,39.8 -23.1,60.1 -0.7,1 -0.7,2.2 0,3.2 10.2,15.2 13.4,35.3 9.2,52.2 h 13.9 13.9 c -4.3,-16.9 -1.1,-37 9.2,-52.2 0.7,-0.9 0.7,-2.2 0,-3.2 z" />
	<path
   id="XMLID_75_"
   class="st19"
   d="m 444.4,324.4 c -14.3,-20.3 -23.1,-60.1 -23.1,-60.1 0,0 -2,9.3 -5.8,21.2 4,12.7 9.9,28.4 17.3,38.9 0.7,1 0.7,2.2 0,3.2 -10.2,15.2 -13.4,35.3 -9.2,52.2 h 11.5 c -4.3,-16.9 -1.1,-37 9.2,-52.2 0.8,-0.9 0.8,-2.2 0.1,-3.2 z" />
	<path
   id="XMLID_16_"
   class="st6"
   d="m 444.4,324.4 c -14.3,-20.3 -23.1,-60.1 -23.1,-60.1 0,0 -8.7,39.8 -23.1,60.1 -0.7,1 -0.7,2.2 0,3.2 10.2,15.2 13.4,35.3 9.2,52.2 h 13.9 13.9 c -4.3,-16.9 -1.1,-37 9.2,-52.2 0.7,-0.9 0.7,-2.2 0,-3.2 z" />
	<line
   id="XMLID_14_"
   class="st6"
   x1="421.29999"
   y1="264.39999"
   x2="421.29999"
   y2="322.10001" />
	<circle
   id="XMLID_12_"
   class="st20"
   cx="421.29999"
   cy="324.29999"
   r="7.8000002" />
</g><g
         id="g784">
	<g
   id="XMLID_113_">
		<rect
   id="XMLID_112_"
   x="731.5"
   y="374"
   class="st2"
   width="54"
   height="348.89999" />
		<polygon
   id="XMLID_111_"
   class="st2"
   points="758.5,293.4 785.5,374 731.5,374 " />
		<path
   id="XMLID_110_"
   class="st2"
   d="m 731.5,722.9 h 54 v 17.9 c 0,11.2 -9.1,20.3 -20.3,20.3 h -13.4 c -11.2,0 -20.3,-9.1 -20.3,-20.3 z" />
	</g>
	<rect
   id="XMLID_126_"
   x="718.5"
   y="365"
   class="st21"
   width="54"
   height="348.89999" />
	<rect
   id="XMLID_22_"
   x="718.5"
   y="365"
   class="st6"
   width="54"
   height="348.89999" />
	<rect
   id="XMLID_128_"
   x="735.5"
   y="365"
   class="st6"
   width="20"
   height="348.89999" />
	<polygon
   id="XMLID_129_"
   class="st22"
   points="745.5,284.4 772.5,365 718.5,365 " />
	<polygon
   id="XMLID_23_"
   class="st6"
   points="745.5,284.4 772.5,365 718.5,365 " />
	<path
   id="XMLID_130_"
   class="st22"
   d="m 718.5,713.9 h 54 v 17.9 c 0,11.2 -9.1,20.3 -20.3,20.3 h -13.4 c -11.2,0 -20.3,-9.1 -20.3,-20.3 z" />
	<path
   id="XMLID_24_"
   class="st6"
   d="m 718.5,713.9 h 54 v 17.9 c 0,11.2 -9.1,20.3 -20.3,20.3 h -13.4 c -11.2,0 -20.3,-9.1 -20.3,-20.3 z" />
	<rect
   id="XMLID_127_"
   x="718.5"
   y="678.40002"
   class="st23"
   width="54"
   height="35.400002" />
	<rect
   id="XMLID_25_"
   x="718.5"
   y="678.40002"
   class="st6"
   width="54"
   height="35.400002" />
	<polygon
   id="XMLID_29_"
   class="st20"
   points="756.4,316.9 745.5,284.4 734.6,316.9 " />
</g><g
         id="g809">
	<path
   id="XMLID_109_"
   class="st2"
   d="m 624.6,776.3 h -41 c -4.4,0 -8,-3.6 -8,-8 l -1.5,-359 h 60 l -1.5,359 c 0,4.5 -3.6,8 -8,8 z" />
	<polygon
   id="XMLID_108_"
   class="st2"
   points="579.1,405.4 581.4,387.2 626.7,387.2 629.1,405.4 " />
	<polygon
   id="XMLID_107_"
   class="st2"
   points="584.6,387.2 587.2,339.4 621,339.4 623.5,387.2 " />
	<polygon
   id="XMLID_106_"
   class="st2"
   points="592.5,339.4 592.5,311.1 615.3,291.1 615.3,339.4 " />
	<path
   id="XMLID_67_"
   class="st24"
   d="m 611.6,764.3 h -41 c -4.4,0 -8,-3.6 -8,-8 l -1.5,-359 h 60 l -1.5,359 c 0,4.5 -3.6,8 -8,8 z" />
	<path
   id="XMLID_78_"
   class="st24"
   d="m 582,756.4 -1.5,-359 H 561 l 1.5,359 c 0,4.4 3.6,8 8,8 H 590 c -4.4,-0.1 -8,-3.6 -8,-8 z" />
	<path
   id="XMLID_84_"
   class="st25"
   d="m 600.1,756.4 1.5,-359 h 19.5 l -1.5,359 c 0,4.4 -3.6,8 -8,8 h -19.5 c 4.4,-0.1 8,-3.6 8,-8 z" />
	<path
   id="XMLID_17_"
   class="st6"
   d="m 611.6,764.3 h -41 c -4.4,0 -8,-3.6 -8,-8 l -1.5,-359 h 60 l -1.5,359 c 0,4.5 -3.6,8 -8,8 z" />
	<polygon
   id="XMLID_65_"
   class="st26"
   points="566.1,397.4 568.4,379.2 613.7,379.2 616.1,397.4 " />
	<polygon
   id="XMLID_18_"
   class="st6"
   points="566.1,397.4 568.4,379.2 613.7,379.2 616.1,397.4 " />
	<polygon
   id="XMLID_90_"
   class="st24"
   points="571.6,379.2 574.2,331.4 608,331.4 610.5,379.2 " />
	<polygon
   id="XMLID_86_"
   class="st24"
   points="571.6,379.2 585.2,379.2 585.5,331.4 574.2,331.4 " />
	<polygon
   id="XMLID_81_"
   class="st25"
   points="611.5,379.2 597.9,379.2 596.5,331.4 609,331.4 " />
	<polygon
   id="XMLID_71_"
   class="st6"
   points="571.6,379.2 574.2,331.4 608,331.4 610.5,379.2 " />
	<polygon
   id="XMLID_19_"
   class="st6"
   points="571.6,379.2 574.2,331.4 608,331.4 610.5,379.2 " />
	<polygon
   id="XMLID_59_"
   class="st6"
   points="571.6,379.2 574.2,331.4 608,331.4 610.5,379.2 " />
	<polygon
   id="XMLID_70_"
   class="st6"
   points="571.6,379.2 574.2,331.4 608,331.4 610.5,379.2 " />
	<polygon
   id="XMLID_93_"
   class="st27"
   points="579.5,331.4 579.5,303.1 602.3,283.1 602.3,331.4 " />
	<polygon
   id="XMLID_20_"
   class="st6"
   points="579.5,331.4 579.5,303.1 602.3,283.1 602.3,331.4 " />
	<path
   id="XMLID_21_"
   class="st26"
   d="m 562.4,731.3 0.1,25 c 0,4.4 3.6,8 8,8 h 41 c 4.4,0 8,-3.6 8,-8 l 0.1,-25 z" />
	<path
   id="XMLID_95_"
   class="st28"
   d="m 600.3,731.3 -0.1,25 c 0,4.4 -3.6,8 -8,8 h 19.3 c 4.4,0 8,-3.6 8,-8 l 0.1,-25 z" />
	<path
   id="XMLID_94_"
   class="st26"
   d="m 582.5,756.4 -0.1,-25 h -20 l 0.1,25 c 0,4.4 3.6,8 8,8 h 20 c -4.4,-0.1 -7.9,-3.6 -8,-8 z" />
	<path
   id="XMLID_92_"
   class="st6"
   d="m 562.4,731.3 0.1,25 c 0,4.4 3.6,8 8,8 h 41 c 4.4,0 8,-3.6 8,-8 l 0.1,-25 z" />
</g></g><text
       xml:space="preserve"
       style="font-style:normal;font-variant:normal;font-weight:normal;font-stretch:normal;font-size:117.19px;line-height:1.25;font-family:Literata;-inkscape-font-specification:'Literata, Normal';font-variant-ligatures:normal;font-variant-caps:normal;font-variant-numeric:normal;font-variant-east-asian:normal;fill:#ffffff;fill-opacity:1;stroke:none;stroke-width:2.92976"
       x="985.33398"
       y="575.08099"
       id="text1632"><tspan
         sodipodi:role="line"
         id="tspan1630"
         style="font-style:normal;font-variant:normal;font-weight:normal;font-stretch:normal;font-size:117.19px;font-family:Literata;-inkscape-font-specification:'Literata, Normal';font-variant-ligatures:normal;font-variant-caps:normal;font-variant-numeric:normal;font-variant-east-asian:normal;fill:#ffffff;stroke-width:2.92976"
         x="985.33398"
         y="575.08099">justlearn</tspan></text></g><style
     type="text/css"
     id="style502">
	.st0{fill:#9057EA;}
	.st1{fill:#EEF2F4;}
	.st2{fill:#543889;stroke:#543889;stroke-width:8;stroke-linecap:round;stroke-linejoin:round;stroke-miterlimit:10;}
	.st3{fill:#FFA124;}
	.st4{opacity:0.34;fill:#3F4545;}
	.st5{opacity:0.78;fill:#3F4545;}
	.st6{fill:none;stroke:#1F2120;stroke-width:8;stroke-linecap:round;stroke-linejoin:round;stroke-miterlimit:10;}
	.st7{fill:#B5B4B4;}
	.st8{opacity:0.39;fill:#B5B4B4;}
	.st9{opacity:0.5;fill:#FFFFFF;}
	.st10{fill:#FF1A1A;}
	.st11{opacity:0.63;fill:#E02F2F;}
	.st12{fill:#EA4949;}
	.st13{fill:#E02F2F;}
	.st14{fill:none;stroke:#1F2120;stroke-width:10;stroke-linecap:round;stroke-linejoin:round;stroke-miterlimit:10;}
	.st15{fill:none;stroke:#543889;stroke-width:8;stroke-linecap:round;stroke-linejoin:round;stroke-miterlimit:10;}
	.st16{opacity:0.2;fill:#FF1A1A;}
	.st17{opacity:0.68;fill:#3F4545;}
	.st18{fill:#EAEAEA;}
	.st19{opacity:0.37;fill:#B5B4B4;}
	.st20{fill:#1F2120;}
	.st21{fill:#47A942;}
	.st22{fill:#C4C4C4;}
	.st23{fill:#CCCC00;}
	.st24{fill:#00B3C6;}
	.st25{opacity:0.53;fill:#00B3C6;}
	.st26{fill:#414141;}
	.st27{fill:#FFC41D;}
	.st28{opacity:0.4;fill:#414141;}
</style></svg>
