<?xml version="1.0" encoding="UTF-8" standalone="no"?>
<!-- Created with Inkscape (http://www.inkscape.org/) -->

<svg
   width="1600.2645mm"
   height="900.26459mm"
   viewBox="0 0 1600.2645 900.26459"
   version="1.1"
   id="svg5"
   xml:space="preserve"
   inkscape:version="1.2.1 (9c6d41e410, 2022-07-14)"
   sodipodi:docname="redditlattice.svg"
   xmlns:inkscape="http://www.inkscape.org/namespaces/inkscape"
   xmlns:sodipodi="http://sodipodi.sourceforge.net/DTD/sodipodi-0.dtd"
   xmlns="http://www.w3.org/2000/svg"
   xmlns:svg="http://www.w3.org/2000/svg"><sodipodi:namedview
     id="namedview7"
     pagecolor="#ffffff"
     bordercolor="#666666"
     borderopacity="1.0"
     inkscape:showpageshadow="2"
     inkscape:pageopacity="0.0"
     inkscape:pagecheckerboard="0"
     inkscape:deskcolor="#d1d1d1"
     inkscape:document-units="mm"
     showgrid="false"
     inkscape:zoom="0.18516565"
     inkscape:cx="2316.8444"
     inkscape:cy="1749.7846"
     inkscape:window-width="2212"
     inkscape:window-height="1332"
     inkscape:window-x="12"
     inkscape:window-y="52"
     inkscape:window-maximized="1"
     inkscape:current-layer="layer1" /><defs
     id="defs2"><clipPath
       clipPathUnits="userSpaceOnUse"
       id="clipPath1574"><circle
         style="opacity:1;fill:#ffffff;stroke:#ffffff;stroke-width:1.25129"
         id="circle1576"
         cx="500.04999"
         cy="499.99997"
         r="472.92993" /></clipPath></defs><g
     inkscape:label="Layer 1"
     inkscape:groupmode="layer"
     id="layer1"
     transform="translate(-85.305674,-93.483202)"><rect
       style="fill:#000000;stroke:#ffffff;stroke-width:0.264583"
       id="rect184"
       width="1600"
       height="900"
       x="85.437965"
       y="93.615494"
       sodipodi:insensitive="true" /><text
       xml:space="preserve"
       style="font-style:normal;font-variant:normal;font-weight:normal;font-stretch:normal;font-size:117.19px;line-height:1.25;font-family:Literata;-inkscape-font-specification:'Literata, Normal';font-variant-ligatures:normal;font-variant-caps:normal;font-variant-numeric:normal;font-variant-east-asian:normal;fill:#ffffff;fill-opacity:1;stroke:none;stroke-width:2.92976"
       x="1124.1781"
       y="514.43518"
       id="text1632"><tspan
         sodipodi:role="line"
         id="tspan1630"
         style="font-style:normal;font-variant:normal;font-weight:normal;font-stretch:normal;font-size:117.19px;font-family:Literata;-inkscape-font-specification:'Literata, Normal';font-variant-ligatures:normal;font-variant-caps:normal;font-variant-numeric:normal;font-variant-east-asian:normal;fill:#ffffff;stroke-width:2.92976"
         x="1124.1781"
         y="514.43518">reddit</tspan><tspan
         sodipodi:role="line"
         style="font-style:normal;font-variant:normal;font-weight:normal;font-stretch:normal;font-size:117.19px;font-family:Literata;-inkscape-font-specification:'Literata, Normal';font-variant-ligatures:normal;font-variant-caps:normal;font-variant-numeric:normal;font-variant-east-asian:normal;fill:#ffffff;stroke-width:2.92976"
         x="1124.1781"
         y="660.92267"
         id="tspan1162">lattice</tspan></text><g
       id="g1096"
       transform="matrix(2.0974626,0,0,2.0974626,670.55517,142.34068)"
       inkscape:label="g1096"><g
         id="layer2"
         inkscape:label="Picture"
         transform="matrix(0.77357873,0.33755714,-0.33755714,0.77357873,-69.017362,27.03495)"><g
           id="g1256"><rect
             style="fill:#ffffff;stroke:#000000;stroke-width:13.1108;stroke-dasharray:none"
             id="rect235"
             width="226.88922"
             height="226.88921"
             x="6.5553999"
             y="6.5553999" /><g
             id="g1249"><rect
               style="fill:#000000;stroke:#000000;stroke-width:9.22339;stroke-dasharray:none"
               id="rect1080"
               width="230.77661"
               height="70.776619"
               x="4.6116948"
               y="244.61169" /><text
               xml:space="preserve"
               style="font-style:normal;font-variant:normal;font-weight:bold;font-stretch:normal;font-size:26.0786px;line-height:1.25;font-family:Literata;-inkscape-font-specification:'Literata, Bold';font-variant-ligatures:normal;font-variant-caps:normal;font-variant-numeric:normal;font-variant-east-asian:normal;fill:#e6e6e6;fill-opacity:1;stroke:none;stroke-width:0.651968"
               x="61.427452"
               y="289.15359"
               id="text1136"><tspan
                 sodipodi:role="line"
                 id="tspan1244"
                 x="61.427452"
                 y="289.15359"
                 style="font-style:normal;font-variant:normal;font-weight:bold;font-stretch:normal;font-size:26.0786px;font-family:Literata;-inkscape-font-specification:'Literata, Bold';font-variant-ligatures:normal;font-variant-caps:normal;font-variant-numeric:normal;font-variant-east-asian:normal;fill:#e6e6e6;stroke-width:0.651968">LATTICE</tspan></text></g></g></g><g
         inkscape:label="Layer 1"
         id="layer1-5"
         style="display:inline"
         transform="matrix(0.77357873,0.33755714,-0.33755714,0.77357873,-62.190304,24.557384)"><g
           id="g21"
           transform="matrix(0.13418305,0,0,0.13418305,45.058621,57.223745)"><circle
             cx="512"
             cy="512"
             r="512"
             style="fill:#ff4500"
             id="circle9" /><path
             d="m 768,516 c 0,-30.9 -25.1,-56 -56,-56 -15.1,0 -28.8,6 -38.9,15.7 C 634.8,448.1 582,430.2 523.3,428.2 l 25.5,-120.1 83.4,17.7 c 1,21.2 18.4,38.1 39.8,38.1 22.1,0 40,-17.9 40,-40 0,-22.1 -17.9,-40 -40,-40 -15.7,0 -29.2,9.1 -35.7,22.3 l -93.1,-19.8 c -2.6,-0.6 -5.3,-0.1 -7.5,1.4 -2.2,1.4 -3.8,3.7 -4.3,6.3 l -28.5,134 c -59.6,1.7 -113.2,19.5 -152,47.5 -10.1,-9.7 -23.7,-15.6 -38.7,-15.6 -30.9,0 -56,25.1 -56,56 0,22.8 13.6,42.3 33.1,51.1 -0.9,5.6 -1.3,11.2 -1.3,16.9 0,86.2 100.3,156.1 224.1,156.1 123.8,0 223.9,-69.9 223.9,-156.1 0,-5.7 -0.5,-11.3 -1.3,-16.8 19.6,-8.7 33.3,-28.3 33.3,-51.2 z m -384.1,40 c 0,-22.1 18,-40 40,-40 22.1,0 40,18 40,40 0,22.1 -17.9,40 -40,40 -22.1,0 -40,-17.9 -40,-40 z M 607,661.8 c -27.3,27.3 -79.7,29.4 -95,29.4 -15.4,0 -67.7,-2.1 -95,-29.4 -4,-4 -4,-10.6 0,-14.7 4,-4 10.6,-4 14.7,0 17.2,17.2 54,23.3 80.3,23.3 26.3,0 63.1,-6.1 80.4,-23.3 4.1,-4 10.6,-4 14.7,0 4,4.1 4,10.6 -0.1,14.7 z M 600,596 c -22.1,0 -40,-18 -40,-40 0,-22.1 18,-40 40,-40 22.1,0 40,18 40,40 0,22.1 -18,40 -40,40 z"
             style="fill:#ffffff"
             id="path11" /></g></g></g><path
       style="fill:none;stroke:#000000;stroke-width:0.264583px;stroke-linecap:butt;stroke-linejoin:miter;stroke-opacity:1"
       d="M 1685.438,844.67747 V 242.55353"
       id="path1382" /><path
       style="fill:none;stroke:#000000;stroke-width:0.264583px;stroke-linecap:butt;stroke-linejoin:miter;stroke-opacity:1"
       d="M 85.437965,844.67747 V 242.55353"
       id="path1382-3" /></g><style
     type="text/css"
     id="style502">
	.st0{fill:#9057EA;}
	.st1{fill:#EEF2F4;}
	.st2{fill:#543889;stroke:#543889;stroke-width:8;stroke-linecap:round;stroke-linejoin:round;stroke-miterlimit:10;}
	.st3{fill:#FFA124;}
	.st4{opacity:0.34;fill:#3F4545;}
	.st5{opacity:0.78;fill:#3F4545;}
	.st6{fill:none;stroke:#1F2120;stroke-width:8;stroke-linecap:round;stroke-linejoin:round;stroke-miterlimit:10;}
	.st7{fill:#B5B4B4;}
	.st8{opacity:0.39;fill:#B5B4B4;}
	.st9{opacity:0.5;fill:#FFFFFF;}
	.st10{fill:#FF1A1A;}
	.st11{opacity:0.63;fill:#E02F2F;}
	.st12{fill:#EA4949;}
	.st13{fill:#E02F2F;}
	.st14{fill:none;stroke:#1F2120;stroke-width:10;stroke-linecap:round;stroke-linejoin:round;stroke-miterlimit:10;}
	.st15{fill:none;stroke:#543889;stroke-width:8;stroke-linecap:round;stroke-linejoin:round;stroke-miterlimit:10;}
	.st16{opacity:0.2;fill:#FF1A1A;}
	.st17{opacity:0.68;fill:#3F4545;}
	.st18{fill:#EAEAEA;}
	.st19{opacity:0.37;fill:#B5B4B4;}
	.st20{fill:#1F2120;}
	.st21{fill:#47A942;}
	.st22{fill:#C4C4C4;}
	.st23{fill:#CCCC00;}
	.st24{fill:#00B3C6;}
	.st25{opacity:0.53;fill:#00B3C6;}
	.st26{fill:#414141;}
	.st27{fill:#FFC41D;}
	.st28{opacity:0.4;fill:#414141;}
</style></svg>
