<?xml version="1.0" encoding="UTF-8" standalone="no"?>
<!-- Created with Inkscape (http://www.inkscape.org/) -->

<svg
   width="1600.2645mm"
   height="900.26459mm"
   viewBox="0 0 1600.2645 900.26459"
   version="1.1"
   id="svg5"
   xml:space="preserve"
   inkscape:version="1.2.1 (9c6d41e410, 2022-07-14)"
   sodipodi:docname="remotegamepad.svg"
   inkscape:export-filename="remotegamepad.png"
   inkscape:export-xdpi="96"
   inkscape:export-ydpi="96"
   xmlns:inkscape="http://www.inkscape.org/namespaces/inkscape"
   xmlns:sodipodi="http://sodipodi.sourceforge.net/DTD/sodipodi-0.dtd"
   xmlns="http://www.w3.org/2000/svg"
   xmlns:svg="http://www.w3.org/2000/svg"><sodipodi:namedview
     id="namedview7"
     pagecolor="#ffffff"
     bordercolor="#666666"
     borderopacity="1.0"
     inkscape:showpageshadow="2"
     inkscape:pageopacity="0.0"
     inkscape:pagecheckerboard="0"
     inkscape:deskcolor="#d1d1d1"
     inkscape:document-units="mm"
     showgrid="false"
     inkscape:zoom="0.18516565"
     inkscape:cx="2279.0404"
     inkscape:cy="1663.3755"
     inkscape:window-width="2216"
     inkscape:window-height="1336"
     inkscape:window-x="12"
     inkscape:window-y="52"
     inkscape:window-maximized="1"
     inkscape:current-layer="layer1" /><defs
     id="defs2"><clipPath
       clipPathUnits="userSpaceOnUse"
       id="clipPath2102"><ellipse
         style="opacity:1;fill:#ffffff;stroke:#ffffff;stroke-width:1.25123"
         id="circle2104"
         cx="500"
         cy="500"
         rx="472.88263"
         ry="472.92993" /></clipPath></defs><g
     inkscape:label="Layer 1"
     inkscape:groupmode="layer"
     id="layer1"
     transform="translate(-85.305674,-93.483202)"><rect
       style="fill:#000000;stroke:#ffffff;stroke-width:0.264583"
       id="rect184"
       width="1600"
       height="900"
       x="85.437965"
       y="93.615494" /><text
       xml:space="preserve"
       style="font-style:normal;font-variant:normal;font-weight:normal;font-stretch:normal;font-size:117.19px;line-height:1.25;font-family:Literata;-inkscape-font-specification:'Literata, Normal';font-variant-ligatures:normal;font-variant-caps:normal;font-variant-numeric:normal;font-variant-east-asian:normal;fill:#ffffff;fill-opacity:1;stroke:none;stroke-width:2.92976"
       x="1014.0361"
       y="496.7981"
       id="text1632"><tspan
         sodipodi:role="line"
         id="tspan2106"
         x="1014.0361"
         y="496.7981">remote</tspan><tspan
         sodipodi:role="line"
         id="tspan2108"
         x="1014.0361"
         y="643.28558">gamepad</tspan></text><g
       id="g1366"
       transform="matrix(0.63356872,0,0,0.63350536,234.48372,226.86282)"
       clip-path="url(#clipPath2102)"><rect
         id="XMLID_42_"
         class="st0"
         width="1000"
         height="1000"
         x="0"
         y="0" /><path
         id="XMLID_20_-3"
         class="st1"
         d="m 692.3,414.8 h -380 c -72.9,0 -132,59.1 -132,132 0,72.9 59.1,132 132,132 51.3,0 95.8,-29.3 117.6,-72 h 144.8 c 21.8,42.7 66.3,72 117.6,72 72.9,0 132,-59.1 132,-132 0,-72.9 -59.1,-132 -132,-132 z" /><path
         id="XMLID_19_-6"
         class="st2"
         d="M 502.3,382.5 V 263.1 c 0,-13.7 -11.1,-24.8 -24.8,-24.8 H 290 c -13.7,0 -24.8,-11.1 -24.8,-24.8 v 0 c 0,-13.7 11.1,-24.8 24.8,-24.8 h 397.5 c 13.7,0 24.8,-11.1 24.8,-24.8 v 0 c 0,-13.7 -11.1,-24.8 -24.8,-24.8 H 527 c -13.7,0 -24.8,-11.1 -24.8,-24.8 V 9" /><path
         id="XMLID_43_"
         class="st3"
         d="M 502.3,369.2 V 249.8 C 502.3,236.1 491.2,225 477.5,225 H 290 c -13.7,0 -24.8,-11.1 -24.8,-24.8 v 0 c 0,-13.7 11.1,-24.8 24.8,-24.8 h 397.5 c 13.7,0 24.8,-11.1 24.8,-24.8 v 0 c 0,-13.7 -11.1,-24.8 -24.8,-24.8 H 527 c -13.7,0 -24.8,-11.1 -24.8,-24.8 V 0" /><rect
         id="XMLID_37_"
         x="473.29999"
         y="379"
         class="st4"
         width="58"
         height="12.5" /><rect
         id="XMLID_41_"
         x="481.5"
         y="372.79999"
         class="st4"
         width="41.5"
         height="9.8000002" /><rect
         id="XMLID_54_-7"
         x="487"
         y="366.5"
         class="st4"
         width="30.5"
         height="9.3999996" /><path
         id="XMLID_44_"
         class="st5"
         d="m 692.3,391.8 h -380 c -72.9,0 -132,59.1 -132,132 0,72.9 59.1,132 132,132 51.3,0 95.8,-29.3 117.6,-72 h 144.8 c 21.8,42.7 66.3,72 117.6,72 72.9,0 132,-59.1 132,-132 0,-72.9 -59.1,-132 -132,-132 z" /><path
         id="XMLID_74_-5"
         class="st6"
         d="m 481.7,443.6 h -28 c -2.2,0 -4,-1.8 -4,-4 v 0 c 0,-2.2 1.8,-4 4,-4 h 28 c 2.2,0 4,1.8 4,4 v 0 c 0,2.2 -1.7,4 -4,4 z" /><path
         id="XMLID_73_-3"
         class="st6"
         d="m 560.4,443.9 h -56.9 c -2.2,0 -4,-1.8 -4,-4 v 0 c 0,-2.2 1.8,-4 4,-4 h 56.9 c 2.2,0 4,1.8 4,4 v 0 c 0,2.2 -1.7,4 -4,4 z" /><path
         id="XMLID_71_-5"
         class="st6"
         d="M 560.4,460.4 H 453.6 c -2.2,0 -4,-1.8 -4,-4 v 0 c 0,-2.2 1.8,-4 4,-4 h 106.8 c 2.2,0 4,1.8 4,4 v 0 c 0,2.2 -1.8,4 -4,4 z" /><path
         id="XMLID_67_-6"
         class="st6"
         d="m 452.4,542.7 v 0 c -3.5,-3.5 -3.5,-9.2 0,-12.7 l 29.7,-29.7 c 3.5,-3.5 9.2,-3.5 12.7,0 v 0 c 3.5,3.5 3.5,9.2 0,12.7 l -29.7,29.7 c -3.5,3.5 -9.2,3.5 -12.7,0 z" /><path
         id="XMLID_56_-2"
         class="st6"
         d="m 519.4,542.7 v 0 c -3.5,-3.5 -3.5,-9.2 0,-12.7 l 29.7,-29.7 c 3.5,-3.5 9.2,-3.5 12.7,0 v 0 c 3.5,3.5 3.5,9.2 0,12.7 l -29.7,29.7 c -3.5,3.5 -9.2,3.5 -12.7,0 z" /><path
         id="XMLID_53_-9"
         class="st6"
         d="m 312.3,403.3 h 380 c 71.3,0 129.4,55.6 131.9,125.1 0.1,-1.6 0.1,-3.1 0.1,-4.7 0,-72.9 -59.1,-132 -132,-132 h -380 c -72.9,0 -132,59.1 -132,132 0,1.6 0,3.1 0.1,4.7 2.4,-69.5 60.5,-125.1 131.9,-125.1 z" /><path
         id="XMLID_52_-1"
         class="st6"
         d="m 692.3,638.8 c -51.3,0 -92.8,-21.3 -114.6,-64 H 426.9 c -21.8,42.7 -63.3,64 -114.6,64 -70,0 -127.3,-54.6 -131.7,-123.5 -0.2,2.8 -0.3,5.6 -0.3,8.5 0,72.9 59.1,132 132,132 51.3,0 95.8,-29.3 117.6,-72 h 144.8 c 21.8,42.7 66.3,72 117.6,72 72.9,0 132,-59.1 132,-132 0,-2.9 -0.1,-5.7 -0.3,-8.5 -4.4,68.9 -61.7,123.5 -131.7,123.5 z" /><circle
         id="XMLID_48_"
         class="st6"
         cx="312.79999"
         cy="531"
         r="85" /><circle
         id="XMLID_46_"
         class="st7"
         cx="312.79999"
         cy="523.79999"
         r="84" /><circle
         id="XMLID_50_"
         class="st8"
         cx="312.79999"
         cy="523.79999"
         r="71" /><path
         id="XMLID_6_-2"
         class="st4"
         d="m 363.2,507.8 h -34.4 v -34.4 c 0,-2.5 -2.1,-4.6 -4.6,-4.6 h -22.8 c -2.5,0 -4.6,2.1 -4.6,4.6 v 34.4 h -34.4 c -2.5,0 -4.6,2.1 -4.6,4.6 v 22.8 c 0,2.5 2.1,4.6 4.6,4.6 h 34.4 v 34.4 c 0,2.5 2.1,4.6 4.6,4.6 h 22.8 c 2.5,0 4.6,-2.1 4.6,-4.6 v -34.4 h 34.4 c 2.5,0 4.6,-2.1 4.6,-4.6 v -22.8 c 0,-2.6 -2.1,-4.6 -4.6,-4.6 z" /><circle
         id="XMLID_7_-7"
         class="st9"
         cx="312.79999"
         cy="523.79999"
         r="84" /><circle
         id="XMLID_51_"
         class="st6"
         cx="692.79999"
         cy="531"
         r="85" /><circle
         id="XMLID_49_"
         class="st7"
         cx="692.79999"
         cy="523.79999"
         r="84" /><circle
         id="XMLID_66_-0"
         class="st8"
         cx="692.79999"
         cy="523.79999"
         r="71" /><circle
         id="XMLID_16_-9"
         class="st9"
         cx="692.79999"
         cy="523.79999"
         r="84" /><path
         id="XMLID_10_-3"
         class="st5"
         d="m 306.3,487.2 5.5,-9.6 c 0.4,-0.7 1.4,-0.7 1.8,0 l 5.5,9.6 c 0.4,0.7 -0.1,1.6 -0.9,1.6 h -11.1 c -0.7,0 -1.2,-0.9 -0.8,-1.6 z" /><path
         id="XMLID_12_-6"
         class="st5"
         d="m 306.3,560.4 5.5,9.6 c 0.4,0.7 1.4,0.7 1.8,0 l 5.5,-9.6 c 0.4,-0.7 -0.1,-1.6 -0.9,-1.6 h -11.1 c -0.7,0 -1.2,0.9 -0.8,1.6 z" /><path
         id="XMLID_55_-0"
         class="st10"
         d="m 363.2,507.8 h -34.4 v -34.4 c 0,-2.5 -2.1,-4.6 -4.6,-4.6 h -22.8 c -2.5,0 -4.6,2.1 -4.6,4.6 v 34.4 h -34.4 c -2.5,0 -4.6,2.1 -4.6,4.6 v 22.8 c 0,2.5 2.1,4.6 4.6,4.6 h 34.4 v 34.4 c 0,2.5 2.1,4.6 4.6,4.6 h 22.8 c 2.5,0 4.6,-2.1 4.6,-4.6 v -34.4 h 34.4 c 2.5,0 4.6,-2.1 4.6,-4.6 v -22.8 c 0,-2.6 -2.1,-4.6 -4.6,-4.6 z" /><path
         id="XMLID_11_-6"
         class="st5"
         d="m 347.6,517.3 9.6,5.5 c 0.7,0.4 0.7,1.4 0,1.8 l -9.6,5.5 c -0.7,0.4 -1.6,-0.1 -1.6,-0.9 v -11.1 c 0,-0.7 0.9,-1.2 1.6,-0.8 z" /><path
         id="XMLID_9_-2"
         class="st5"
         d="m 276.2,517.3 -9.6,5.5 c -0.7,0.4 -0.7,1.4 0,1.8 l 9.6,5.5 c 0.7,0.4 1.6,-0.1 1.6,-0.9 v -11.1 c 0,-0.7 -0.9,-1.2 -1.6,-0.8 z" /><path
         id="XMLID_45_"
         class="st11"
         d="m 602,385.8 h 90.8 c 19.5,0 38.1,4.1 55,11.4" /><path
         id="XMLID_36_"
         class="st11"
         d="m 257.8,397.2 c 16.9,-7.4 35.5,-11.4 55,-11.4 H 402" /><path
         id="XMLID_32_"
         class="st9"
         d="m 692.3,391.8 h -380 c -72.9,0 -132,59.1 -132,132 0,72.9 59.1,132 132,132 51.3,0 95.8,-29.3 117.6,-72 h 144.8 c 21.8,42.7 66.3,72 117.6,72 72.9,0 132,-59.1 132,-132 0,-72.9 -59.1,-132 -132,-132 z" /><path
         id="XMLID_65_-6"
         class="st12"
         d="m 706.3,511.5 -39.6,39.6 c -8.6,8.6 -22.5,8.6 -31.1,0 v 0 c -8.6,-8.6 -8.6,-22.5 0,-31.1 l 39.6,-39.6 c 8.6,-8.6 22.5,-8.6 31.1,0 v 0 c 8.6,8.5 8.6,22.5 0,31.1 z" /><path
         id="XMLID_59_-1"
         class="st5"
         d="m 704.3,507.5 -39.6,39.6 c -8.6,8.6 -22.5,8.6 -31.1,0 v 0 c -8.6,-8.6 -8.6,-22.5 0,-31.1 l 39.6,-39.6 c 8.6,-8.6 22.5,-8.6 31.1,0 v 0 c 8.6,8.5 8.6,22.5 0,31.1 z" /><path
         id="XMLID_2_"
         class="st10"
         d="m 704.3,507.5 -39.6,39.6 c -8.6,8.6 -22.5,8.6 -31.1,0 v 0 c -8.6,-8.6 -8.6,-22.5 0,-31.1 l 39.6,-39.6 c 8.6,-8.6 22.5,-8.6 31.1,0 v 0 c 8.6,8.5 8.6,22.5 0,31.1 z" /><circle
         id="XMLID_63_"
         class="st13"
         cx="649.20001"
         cy="531.5"
         r="14" /><path
         id="XMLID_8_-8"
         class="st14"
         d="m 640.2,530.7 c 0.4,-5 4.8,-8.6 9.8,-8.2" /><circle
         id="XMLID_18_-7"
         class="st10"
         cx="649.20001"
         cy="531.5"
         r="14" /><circle
         id="XMLID_62_-9"
         class="st15"
         cx="688.79999"
         cy="491.89999"
         r="14" /><path
         id="XMLID_13_-2"
         class="st14"
         d="m 679.8,491.9 c 0,-5 4,-9 9,-9" /><circle
         id="XMLID_17_-0"
         class="st10"
         cx="688.79999"
         cy="491.89999"
         r="14" /><path
         id="XMLID_64_-2"
         class="st12"
         d="m 752.9,537.7 -39.6,39.6 c -8.6,8.6 -22.5,8.6 -31.1,0 v 0 c -8.6,-8.6 -8.6,-22.5 0,-31.1 l 39.6,-39.6 c 8.6,-8.6 22.5,-8.6 31.1,0 v 0 c 8.6,8.6 8.6,22.5 0,31.1 z" /><path
         id="XMLID_57_-3"
         class="st5"
         d="m 751.9,532.7 -39.6,39.6 c -8.6,8.6 -22.5,8.6 -31.1,0 v 0 c -8.6,-8.6 -8.6,-22.5 0,-31.1 l 39.6,-39.6 c 8.6,-8.6 22.5,-8.6 31.1,0 v 0 c 8.6,8.6 8.6,22.5 0,31.1 z" /><path
         id="XMLID_35_"
         class="st10"
         d="m 751.9,532.7 -39.6,39.6 c -8.6,8.6 -22.5,8.6 -31.1,0 v 0 c -8.6,-8.6 -8.6,-22.5 0,-31.1 l 39.6,-39.6 c 8.6,-8.6 22.5,-8.6 31.1,0 v 0 c 8.6,8.6 8.6,22.5 0,31.1 z" /><circle
         id="XMLID_61_-7"
         class="st16"
         cx="696.79999"
         cy="556.79999"
         r="14" /><path
         id="XMLID_15_-5"
         class="st14"
         d="m 687.8,556.8 c 0,-5 4,-9 9,-9" /><circle
         id="XMLID_34_"
         class="st10"
         cx="696.79999"
         cy="556.79999"
         r="14" /><circle
         id="XMLID_33_"
         class="st17"
         cx="736.40002"
         cy="517.20001"
         r="14" /><path
         id="XMLID_70_-9"
         class="st14"
         d="m 727.4,517.2 c 0,-5 4,-9 9,-9" /><circle
         id="XMLID_60_"
         class="st10"
         cx="736.40002"
         cy="517.20001"
         r="14" /><path
         id="XMLID_14_-2"
         class="st4"
         d="m 452.4,538.7 v 0 c -3.5,-3.5 -3.5,-9.2 0,-12.7 l 29.7,-29.7 c 3.5,-3.5 9.2,-3.5 12.7,0 v 0 c 3.5,3.5 3.5,9.2 0,12.7 l -29.7,29.7 c -3.5,3.5 -9.2,3.5 -12.7,0 z" /><path
         id="XMLID_38_"
         class="st4"
         d="m 519.4,538.7 v 0 c -3.5,-3.5 -3.5,-9.2 0,-12.7 l 29.7,-29.7 c 3.5,-3.5 9.2,-3.5 12.7,0 v 0 c 3.5,3.5 3.5,9.2 0,12.7 l -29.7,29.7 c -3.5,3.5 -9.2,3.5 -12.7,0 z" /><circle
         id="XMLID_58_-2"
         class="st5"
         cx="312.79999"
         cy="523.79999"
         r="16" /><path
         id="XMLID_72_-8"
         class="st6"
         d="m 312.8,536.5 c -8.1,0 -15.1,-6.4 -15.9,-14.4 -0.1,0.5 -0.1,1.1 -0.1,1.6 0,8.7 7.3,16 16,16 8.7,0 16,-7.3 16,-16 0,-0.6 0,-1.1 -0.1,-1.6 -0.9,8 -7.8,14.4 -15.9,14.4 z" /><path
         id="XMLID_68_-9"
         class="st14"
         d="m 300.8,523.8 c 0,-6.5 5.5,-12 12,-12" /><g
         id="g1235">
	<g
   id="g1133">
		<g
   id="g1103">
			<path
   class="st18"
   d="m 63.2,959.2 c 0,2.5 -1.2,3.7 -2.6,3.7 -1.1,0 -1.9,-0.5 -2.1,-1.4 -0.4,0.5 -1,0.8 -1.8,0.8 -1.5,0 -2.6,-1.2 -2.6,-2.8 0,-1.6 1.1,-2.8 2.6,-2.8 0.7,0 1.2,0.3 1.6,0.7 v -0.5 h 1.6 v 3.9 c 0,0.8 0.3,1.4 1,1.4 0.9,0 1.7,-0.9 1.7,-3 0,-3 -2.3,-5.3 -5.4,-5.3 -3.1,0 -5.6,2.4 -5.6,5.7 0,3.3 2.5,5.7 5.9,5.7 1.1,0 2.1,-0.2 2.9,-0.4 v 0.6 c -0.8,0.3 -1.7,0.4 -2.9,0.4 -3.7,0 -6.5,-2.6 -6.5,-6.2 0,-3.4 2.7,-6.2 6.2,-6.2 3.9,-0.2 6,2.9 6,5.7 z m -4.9,0.3 c 0,-0.8 -0.6,-1.4 -1.3,-1.4 -0.8,0 -1.3,0.5 -1.3,1.4 0,0.8 0.6,1.3 1.3,1.3 0.8,0.1 1.3,-0.5 1.3,-1.3 z"
   id="path1101" />
		</g>
		<g
   id="g1107">
			<path
   class="st18"
   d="m 69.4,955.1 v 2 c -1.2,-0.1 -2.6,0.5 -2.6,2.4 v 4.3 h -1.9 v -8.6 h 1.9 v 1.4 c 0.5,-1.1 1.5,-1.5 2.6,-1.5 z"
   id="path1105" />
		</g>
		<g
   id="g1111">
			<path
   class="st18"
   d="m 74.6,962.3 c 1,0 1.8,-0.5 2.2,-1.1 l 1.5,0.9 c -0.8,1.2 -2.1,1.9 -3.8,1.9 -2.8,0 -4.7,-1.9 -4.7,-4.5 0,-2.5 1.8,-4.5 4.5,-4.5 2.6,0 4.3,2.1 4.3,4.5 0,0.3 0,0.5 -0.1,0.8 h -6.8 c 0.4,1.3 1.5,2 2.9,2 z m 2.3,-3.5 c -0.3,-1.5 -1.3,-2.1 -2.5,-2.1 -1.4,0 -2.3,0.8 -2.6,2.1 z"
   id="path1109" />
		</g>
		<g
   id="g1115">
			<path
   class="st18"
   d="m 88.9,955.2 v 8.6 H 87 v -1.2 c -0.7,0.9 -1.7,1.5 -3,1.5 -2.3,0 -4.3,-2 -4.3,-4.5 0,-2.6 1.9,-4.5 4.3,-4.5 1.3,0 2.3,0.5 3,1.4 v -1.2 h 1.9 z m -1.8,4.3 c 0,-1.6 -1.2,-2.7 -2.7,-2.7 -1.5,0 -2.7,1.1 -2.7,2.7 0,1.6 1.2,2.7 2.7,2.7 1.5,0.1 2.7,-1.1 2.7,-2.7 z"
   id="path1113" />
		</g>
		<g
   id="g1119">
			<path
   class="st18"
   d="M 91.1,951.3 H 93 v 12.5 h -1.9 z"
   id="path1117" />
		</g>
		<g
   id="g1123">
			<path
   class="st18"
   d="m 102.9,955.2 -3.3,8.6 h -2.1 l -3.3,-8.6 h 2 l 2.4,6.5 2.4,-6.5 z"
   id="path1121" />
		</g>
		<g
   id="g1127">
			<path
   class="st18"
   d="m 104.2,955.2 h 1.9 v 8.9 c 0,2.4 -1.2,3.5 -3.5,3.3 v -1.8 c 1.1,0.1 1.7,-0.3 1.7,-1.5 v -8.9 z m -0.2,-2.4 c 0,-0.7 0.5,-1.2 1.2,-1.2 0.7,0 1.2,0.5 1.2,1.2 0,0.6 -0.5,1.2 -1.2,1.2 -0.7,0 -1.2,-0.6 -1.2,-1.2 z"
   id="path1125" />
		</g>
		<g
   id="g1131">
			<path
   class="st18"
   d="m 116,955.2 -3.3,8.8 c -0.8,2.2 -2.2,3.3 -4.2,3.2 v -1.7 c 1.2,0.1 1.9,-0.5 2.3,-1.7 l 0.1,-0.2 -3.6,-8.4 h 2 l 2.6,6.2 2.2,-6.2 z"
   id="path1129" />
		</g>
	</g>
	<g
   id="g1145">
		<path
   class="st18"
   d="m 211.9,938.7 c 0,2.1 -1.5,3.8 -3.6,3.8 h -3 v -7.6 h 3 c 2.1,0 3.6,1.7 3.6,3.8 z m -1,0 c 0,-1.6 -1.1,-2.9 -2.6,-2.9 h -2 v 5.7 h 2 c 1.5,0.1 2.6,-1.2 2.6,-2.8 z"
   id="path1135" />
		<path
   class="st18"
   d="m 219.5,940.8 h -3.4 l -0.6,1.7 h -1.1 l 2.8,-7.6 h 1.1 l 2.8,7.6 H 220 Z m -0.3,-0.9 -1.4,-3.8 -1.4,3.8 z"
   id="path1137" />
		<path
   class="st18"
   d="m 226.4,939.4 v 3.1 h -1 v -3.1 l -2.7,-4.5 h 1.1 l 2.1,3.6 2.1,-3.6 h 1.1 z"
   id="path1139" />
		<path
   class="st18"
   d="m 237,938.7 c 0,-2.4 1.1,-4 2.9,-4 1.9,0 2.9,1.6 2.9,4 0,2.4 -1,4 -2.9,4 -1.8,0 -2.9,-1.7 -2.9,-4 z m 4.9,0 c 0,-1.9 -0.7,-3 -1.9,-3 -1.2,0 -1.9,1.1 -1.9,3 0,1.9 0.7,3 1.9,3 1.2,0 1.9,-1.1 1.9,-3 z"
   id="path1141" />
		<path
   class="st18"
   d="m 245.9,941.7 2.7,-2.7 c 0.6,-0.6 1.1,-1.2 1.1,-1.9 0,-0.9 -0.6,-1.4 -1.4,-1.4 -0.7,0 -1.2,0.3 -1.6,1 l -0.8,-0.5 c 0.5,-1 1.4,-1.5 2.4,-1.5 1.2,0 2.4,0.8 2.4,2.3 0,0.9 -0.6,1.8 -1.4,2.5 l -2,1.9 h 3.5 v 1 h -4.9 z"
   id="path1143" />
	</g>
	<g
   id="g1155">
		<path
   class="st18"
   d="m 847.4,942.5 h -1 v -6 l -2.5,4.2 h -0.1 l -2.5,-4.1 v 5.9 h -1 v -7.6 h 1.1 l 2.4,4 2.4,-4 h 1.1 v 7.6 z"
   id="path1147" />
		<path
   class="st18"
   d="m 850.9,938.7 c 0,-2.2 1.7,-4 3.9,-4 2.2,0 4,1.8 4,4 0,2.2 -1.7,4 -4,4 -2.1,0 -3.9,-1.8 -3.9,-4 z m 6.9,0 c 0,-1.7 -1.3,-3 -2.9,-3 -1.7,0 -2.9,1.3 -2.9,3 0,1.7 1.3,3 2.9,3 1.7,0 2.9,-1.3 2.9,-3 z"
   id="path1149" />
		<path
   class="st18"
   d="m 865.2,939.6 h -1.8 v 2.9 h -1 v -7.6 h 3 c 1.3,0 2.4,1.1 2.4,2.4 0,1 -0.7,1.9 -1.6,2.2 l 1.8,3.1 h -1.1 z m -1.8,-0.9 h 2 c 0.8,0 1.4,-0.6 1.4,-1.4 0,-0.8 -0.6,-1.4 -1.4,-1.4 h -2 z"
   id="path1151" />
		<path
   class="st18"
   d="m 875.9,941.6 v 1 h -4.6 V 935 h 4.5 v 1 h -3.5 v 2.3 h 3.2 v 0.9 h -3.2 v 2.4 z"
   id="path1153" />
	</g>
	<g
   id="g1177">
		<path
   class="st18"
   d="m 58.9,938.7 c 0,2.1 -1.5,3.8 -3.6,3.8 h -3 v -7.6 h 3 c 2.1,0 3.6,1.7 3.6,3.8 z m -1,0 c 0,-1.6 -1.1,-2.9 -2.6,-2.9 h -2 v 5.7 h 2 c 1.5,0.1 2.6,-1.2 2.6,-2.8 z"
   id="path1157" />
		<path
   class="st18"
   d="m 67,941.6 v 1 H 62.4 V 935 h 4.5 v 1 h -3.5 v 2.3 h 3.2 v 0.9 h -3.2 v 2.4 z"
   id="path1159" />
		<path
   class="st18"
   d="m 70,940.8 0.9,-0.5 c 0.3,0.8 0.9,1.4 2,1.4 1.1,0 1.6,-0.5 1.6,-1.2 0,-0.8 -0.7,-1 -1.8,-1.4 -1.2,-0.4 -2.4,-0.8 -2.4,-2.2 0,-1.4 1.1,-2.2 2.4,-2.2 1.3,0 2.2,0.7 2.6,1.7 l -0.8,0.5 c -0.3,-0.7 -0.8,-1.2 -1.7,-1.2 -0.8,0 -1.4,0.4 -1.4,1.1 0,0.7 0.5,1 1.6,1.3 1.3,0.4 2.6,0.8 2.6,2.3 0,1.3 -1.1,2.2 -2.6,2.2 -1.5,0.1 -2.6,-0.7 -3,-1.8 z"
   id="path1161" />
		<path
   class="st18"
   d="m 80,934.9 v 7.6 h -1 v -7.6 z"
   id="path1163" />
		<path
   class="st18"
   d="m 91.3,939.2 c 0,1.9 -1.4,3.5 -3.7,3.5 -2.4,0 -4,-1.8 -4,-4 0,-2.2 1.7,-4 4,-4 1.4,0 2.7,0.8 3.3,1.8 L 90,937 c -0.4,-0.8 -1.4,-1.4 -2.4,-1.4 -1.8,0 -3,1.3 -3,3 0,1.7 1.2,3 3,3 1.6,0 2.5,-0.9 2.7,-2 h -2.8 v -0.9 h 3.8 z"
   id="path1165" />
		<path
   class="st18"
   d="m 100.6,934.9 v 7.6 h -0.8 l -3.9,-5.7 v 5.7 h -1 v -7.6 h 0.8 l 3.9,5.7 v -5.7 z"
   id="path1167" />
		<path
   class="st18"
   d="m 109.1,941.6 v 1 h -4.6 V 935 h 4.5 v 1 h -3.5 v 2.3 h 3.2 v 0.9 h -3.2 v 2.4 z"
   id="path1169" />
		<path
   class="st18"
   d="m 119.2,938.7 c 0,2.1 -1.5,3.8 -3.6,3.8 h -3 v -7.6 h 3 c 2,0 3.6,1.7 3.6,3.8 z m -1,0 c 0,-1.6 -1.1,-2.9 -2.6,-2.9 h -2 v 5.7 h 2 c 1.5,0.1 2.6,-1.2 2.6,-2.8 z"
   id="path1171" />
		<path
   class="st18"
   d="m 133.2,940.4 c 0,1.2 -1,2.2 -2.2,2.2 h -3.3 V 935 h 3 c 1.2,0 2.1,0.9 2.1,2.1 0,0.7 -0.3,1.2 -0.8,1.6 0.7,0.2 1.2,0.8 1.2,1.7 z m -4.5,-4.6 v 2.3 h 2 c 0.6,0 1.1,-0.5 1.1,-1.2 0,-0.6 -0.5,-1.2 -1.1,-1.2 h -2 z m 3.5,4.5 c 0,-0.7 -0.5,-1.2 -1.2,-1.2 h -2.3 v 2.5 h 2.3 c 0.7,0 1.2,-0.6 1.2,-1.3 z"
   id="path1173" />
		<path
   class="st18"
   d="m 139.4,939.4 v 3.1 h -1 v -3.1 l -2.7,-4.5 h 1.1 l 2.1,3.6 2.1,-3.6 h 1.1 z"
   id="path1175" />
	</g>
	<g
   id="g1205">
		<path
   class="st18"
   d="m 214.2,955.4 v 8.4 c 0,2.8 -2.2,4.2 -4.5,4.2 -1.9,0 -3.5,-0.7 -4.2,-2.1 l 1.6,-1 c 0.4,0.8 1,1.4 2.6,1.4 1.6,0 2.6,-0.9 2.6,-2.4 v -1.1 c -0.7,1 -1.7,1.5 -3.1,1.5 -2.5,0 -4.5,-2 -4.5,-4.6 0,-2.6 2,-4.6 4.5,-4.6 1.4,0 2.4,0.6 3.1,1.5 v -1.3 h 1.9 z m -1.8,4.4 c 0,-1.6 -1.2,-2.8 -2.8,-2.8 -1.6,0 -2.8,1.2 -2.8,2.8 0,1.6 1.2,2.8 2.8,2.8 1.6,0 2.8,-1.2 2.8,-2.8 z"
   id="path1179" />
		<path
   class="st18"
   d="m 225.4,955.4 v 8.9 h -1.9 V 963 c -0.7,0.9 -1.7,1.5 -3.1,1.5 -2.4,0 -4.4,-2 -4.4,-4.7 0,-2.6 2,-4.7 4.4,-4.7 1.4,0 2.4,0.6 3.1,1.5 v -1.3 h 1.9 z m -1.9,4.5 c 0,-1.6 -1.2,-2.8 -2.8,-2.8 -1.6,0 -2.8,1.2 -2.8,2.8 0,1.6 1.2,2.8 2.8,2.8 1.6,0 2.8,-1.2 2.8,-2.8 z"
   id="path1181" />
		<path
   class="st18"
   d="m 240.6,958.8 v 5.5 h -1.9 v -5.4 c 0,-1.2 -0.7,-1.9 -1.7,-1.9 -1.1,0 -1.9,0.7 -1.9,2.3 v 5 h -1.9 v -5.4 c 0,-1.2 -0.6,-1.9 -1.7,-1.9 -1.1,0 -2,0.7 -2,2.3 v 5 h -1.9 v -8.9 h 1.9 v 1.1 c 0.6,-0.9 1.4,-1.3 2.5,-1.3 1.2,0 2,0.5 2.5,1.4 0.6,-0.9 1.5,-1.4 2.7,-1.4 2.1,0 3.4,1.4 3.4,3.6 z"
   id="path1183" />
		<path
   class="st18"
   d="m 242.4,952.9 c 0,-0.7 0.5,-1.2 1.2,-1.2 0.7,0 1.2,0.5 1.2,1.2 0,0.7 -0.5,1.2 -1.2,1.2 -0.6,0 -1.2,-0.5 -1.2,-1.2 z m 0.3,2.5 h 1.9 v 8.9 h -1.9 z"
   id="path1185" />
		<path
   class="st18"
   d="m 254.9,958.9 v 5.4 H 253 v -5.2 c 0,-1.3 -0.8,-2.1 -2,-2.1 -1.3,0 -2.2,0.7 -2.2,2.5 v 4.7 h -1.9 v -8.9 h 1.9 v 1.1 c 0.6,-0.9 1.5,-1.4 2.7,-1.4 2,0.2 3.4,1.6 3.4,3.9 z"
   id="path1187" />
		<path
   class="st18"
   d="m 265.9,955.4 v 8.4 c 0,2.8 -2.2,4.2 -4.5,4.2 -1.9,0 -3.5,-0.7 -4.2,-2.1 l 1.6,-1 c 0.4,0.8 1,1.4 2.6,1.4 1.6,0 2.6,-0.9 2.6,-2.4 v -1.1 c -0.7,1 -1.7,1.5 -3.1,1.5 -2.5,0 -4.5,-2 -4.5,-4.6 0,-2.6 2,-4.6 4.5,-4.6 1.4,0 2.4,0.6 3.1,1.5 v -1.3 h 1.9 z m -1.9,4.4 c 0,-1.6 -1.2,-2.8 -2.8,-2.8 -1.6,0 -2.8,1.2 -2.8,2.8 0,1.6 1.2,2.8 2.8,2.8 1.6,0 2.8,-1.2 2.8,-2.8 z"
   id="path1189" />
		<path
   class="st18"
   d="m 272,959.9 c 0,-2.6 2,-4.7 4.7,-4.7 1.7,0 3.2,0.9 3.9,2.3 l -1.6,1 c -0.4,-0.8 -1.3,-1.4 -2.3,-1.4 -1.6,0 -2.7,1.2 -2.7,2.8 0,1.6 1.2,2.8 2.7,2.8 1.1,0 1.9,-0.5 2.4,-1.4 l 1.6,0.9 c -0.7,1.4 -2.2,2.3 -4,2.3 -2.7,0 -4.7,-2 -4.7,-4.6 z"
   id="path1191" />
		<path
   class="st18"
   d="m 281.4,959.9 c 0,-2.6 2.1,-4.7 4.7,-4.7 2.6,0 4.7,2 4.7,4.7 0,2.6 -2.1,4.7 -4.7,4.7 -2.6,-0.1 -4.7,-2.1 -4.7,-4.7 z m 7.5,0 c 0,-1.6 -1.2,-2.8 -2.8,-2.8 -1.6,0 -2.8,1.2 -2.8,2.8 0,1.6 1.2,2.8 2.8,2.8 1.6,0 2.8,-1.2 2.8,-2.8 z"
   id="path1193" />
		<path
   class="st18"
   d="m 300.6,958.9 v 5.4 h -1.9 v -5.2 c 0,-1.3 -0.8,-2.1 -2,-2.1 -1.3,0 -2.2,0.7 -2.2,2.5 v 4.7 h -1.9 v -8.9 h 1.9 v 1.1 c 0.6,-0.9 1.5,-1.4 2.7,-1.4 2,0.2 3.4,1.6 3.4,3.9 z"
   id="path1195" />
		<path
   class="st18"
   d="m 309.1,961.8 c 0,1.8 -1.5,2.7 -3.5,2.7 -1.8,0 -3,-0.8 -3.6,-2.1 l 1.6,-1 c 0.3,0.8 1,1.3 2,1.3 0.8,0 1.5,-0.3 1.5,-1 0,-1.6 -4.8,-0.7 -4.8,-3.9 0,-1.7 1.4,-2.7 3.2,-2.7 1.5,0 2.7,0.7 3.3,1.8 l -1.6,0.9 c -0.3,-0.7 -0.9,-1 -1.7,-1 -0.7,0 -1.3,0.3 -1.3,0.9 0.1,1.8 4.9,0.8 4.9,4.1 z"
   id="path1197" />
		<path
   class="st18"
   d="m 310.1,959.9 c 0,-2.6 2.1,-4.7 4.7,-4.7 2.6,0 4.7,2 4.7,4.7 0,2.6 -2.1,4.7 -4.7,4.7 -2.6,-0.1 -4.7,-2.1 -4.7,-4.7 z m 7.4,0 c 0,-1.6 -1.2,-2.8 -2.8,-2.8 -1.6,0 -2.8,1.2 -2.8,2.8 0,1.6 1.2,2.8 2.8,2.8 1.6,0 2.8,-1.2 2.8,-2.8 z"
   id="path1199" />
		<path
   class="st18"
   d="m 321.2,951.4 h 1.9 v 12.9 h -1.9 z"
   id="path1201" />
		<path
   class="st18"
   d="m 329.6,962.8 c 1.1,0 1.9,-0.5 2.3,-1.1 l 1.6,0.9 c -0.8,1.2 -2.1,1.9 -3.9,1.9 -2.9,0 -4.8,-2 -4.8,-4.7 0,-2.6 1.9,-4.7 4.7,-4.7 2.6,0 4.4,2.1 4.4,4.7 0,0.3 0,0.5 -0.1,0.8 h -7 c 0.3,1.5 1.4,2.2 2.8,2.2 z m 2.4,-3.7 c -0.3,-1.5 -1.4,-2.2 -2.5,-2.2 -1.4,0 -2.4,0.8 -2.7,2.2 z"
   id="path1203" />
	</g>
	<g
   id="g1233">
		<path
   class="st18"
   d="m 848.8,955.4 -3.5,8.9 h -2.2 l -3.5,-8.9 h 2.1 l 2.5,6.7 2.5,-6.7 z"
   id="path1207" />
		<path
   class="st18"
   d="m 849.7,952.9 c 0,-0.7 0.5,-1.2 1.2,-1.2 0.7,0 1.2,0.5 1.2,1.2 0,0.7 -0.5,1.2 -1.2,1.2 -0.6,0 -1.2,-0.5 -1.2,-1.2 z m 0.3,2.5 h 1.9 v 8.9 H 850 Z"
   id="path1209" />
		<path
   class="st18"
   d="m 854.3,955.4 h 1.9 v 9.2 c 0,2.4 -1.2,3.6 -3.6,3.4 v -1.8 c 1.2,0.1 1.7,-0.3 1.7,-1.6 z m -0.3,-2.5 c 0,-0.7 0.5,-1.2 1.2,-1.2 0.7,0 1.2,0.5 1.2,1.2 0,0.7 -0.5,1.2 -1.2,1.2 -0.6,0 -1.2,-0.5 -1.2,-1.2 z"
   id="path1211" />
		<path
   class="st18"
   d="m 867.3,955.4 v 8.9 h -1.9 V 963 c -0.7,0.9 -1.7,1.5 -3.1,1.5 -2.4,0 -4.4,-2 -4.4,-4.7 0,-2.6 2,-4.7 4.4,-4.7 1.4,0 2.4,0.6 3.1,1.5 v -1.3 h 1.9 z m -1.9,4.5 c 0,-1.6 -1.2,-2.8 -2.8,-2.8 -1.6,0 -2.8,1.2 -2.8,2.8 0,1.6 1.2,2.8 2.8,2.8 1.6,0 2.8,-1.2 2.8,-2.8 z"
   id="path1213" />
		<path
   class="st18"
   d="m 877.6,955.4 -3.4,9.1 c -0.8,2.2 -2.3,3.4 -4.3,3.3 V 966 c 1.2,0.1 1.9,-0.6 2.4,-1.7 l 0.1,-0.2 -3.8,-8.7 h 2.1 l 2.6,6.4 2.3,-6.4 z"
   id="path1215" />
		<path
   class="st18"
   d="m 886.9,955.4 -3.5,8.9 h -2.2 l -3.5,-8.9 h 2.1 l 2.5,6.7 2.5,-6.7 z"
   id="path1217" />
		<path
   class="st18"
   d="m 892.1,962.8 c 1.1,0 1.9,-0.5 2.3,-1.1 l 1.6,0.9 c -0.8,1.2 -2.1,1.9 -3.9,1.9 -2.9,0 -4.8,-2 -4.8,-4.7 0,-2.6 1.9,-4.7 4.7,-4.7 2.6,0 4.4,2.1 4.4,4.7 0,0.3 0,0.5 -0.1,0.8 h -7 c 0.2,1.5 1.4,2.2 2.8,2.2 z m 2.3,-3.7 c -0.3,-1.5 -1.4,-2.2 -2.5,-2.2 -1.4,0 -2.4,0.8 -2.7,2.2 z"
   id="path1219" />
		<path
   class="st18"
   d="m 902.7,955.3 v 2.1 c -1.3,-0.1 -2.7,0.5 -2.7,2.5 v 4.5 h -2 v -8.9 h 1.9 v 1.5 c 0.6,-1.3 1.7,-1.7 2.8,-1.7 z"
   id="path1221" />
		<path
   class="st18"
   d="m 917.1,958.8 v 5.5 h -1.9 v -5.4 c 0,-1.2 -0.7,-1.9 -1.7,-1.9 -1.1,0 -1.9,0.7 -1.9,2.3 v 5 h -1.9 v -5.4 c 0,-1.2 -0.6,-1.9 -1.7,-1.9 -1.1,0 -2,0.7 -2,2.3 v 5 h -1.9 v -8.9 h 1.9 v 1.1 c 0.6,-0.9 1.4,-1.3 2.5,-1.3 1.2,0 2,0.5 2.5,1.4 0.6,-0.9 1.5,-1.4 2.7,-1.4 2.1,0 3.4,1.4 3.4,3.6 z"
   id="path1223" />
		<path
   class="st18"
   d="m 928.1,955.4 v 8.9 h -1.9 V 963 c -0.7,0.9 -1.7,1.5 -3.1,1.5 -2.4,0 -4.4,-2 -4.4,-4.7 0,-2.6 2,-4.7 4.4,-4.7 1.4,0 2.4,0.6 3.1,1.5 v -1.3 h 1.9 z m -1.9,4.5 c 0,-1.6 -1.2,-2.8 -2.8,-2.8 -1.6,0 -2.8,1.2 -2.8,2.8 0,1.6 1.2,2.8 2.8,2.8 1.6,0 2.8,-1.2 2.8,-2.8 z"
   id="path1225" />
		<path
   class="st18"
   d="m 930.1,963.2 c 0,-0.7 0.6,-1.3 1.3,-1.3 0.7,0 1.3,0.6 1.3,1.3 0,0.7 -0.6,1.3 -1.3,1.3 -0.7,0 -1.3,-0.6 -1.3,-1.3 z"
   id="path1227" />
		<path
   class="st18"
   d="m 933.6,959.9 c 0,-2.6 2,-4.7 4.7,-4.7 1.7,0 3.2,0.9 3.9,2.3 l -1.6,1 c -0.4,-0.8 -1.3,-1.4 -2.3,-1.4 -1.6,0 -2.7,1.2 -2.7,2.8 0,1.6 1.2,2.8 2.7,2.8 1.1,0 1.9,-0.5 2.4,-1.4 l 1.6,0.9 c -0.7,1.4 -2.2,2.3 -4,2.3 -2.7,0 -4.7,-2 -4.7,-4.6 z"
   id="path1229" />
		<path
   class="st18"
   d="m 943,959.9 c 0,-2.6 2.1,-4.7 4.7,-4.7 2.6,0 4.7,2 4.7,4.7 0,2.6 -2.1,4.7 -4.7,4.7 -2.6,-0.1 -4.7,-2.1 -4.7,-4.7 z m 7.5,0 c 0,-1.6 -1.2,-2.8 -2.8,-2.8 -1.6,0 -2.8,1.2 -2.8,2.8 0,1.6 1.2,2.8 2.8,2.8 1.6,0 2.8,-1.2 2.8,-2.8 z"
   id="path1231" />
	</g>
</g></g><path
       style="fill:none;stroke:#000000;stroke-width:0.264583px;stroke-linecap:butt;stroke-linejoin:miter;stroke-opacity:1"
       d="M 85.437965,217.88626 V 861.17965"
       id="path2213" /><path
       style="fill:none;stroke:#000000;stroke-width:0.264583px;stroke-linecap:butt;stroke-linejoin:miter;stroke-opacity:1"
       d="M 1685.703,467.71116 V 1111.0046"
       id="path2213-6" /></g><style
     type="text/css"
     id="style502">
	.st0{fill:#9057EA;}
	.st1{fill:#EEF2F4;}
	.st2{fill:#543889;stroke:#543889;stroke-width:8;stroke-linecap:round;stroke-linejoin:round;stroke-miterlimit:10;}
	.st3{fill:#FFA124;}
	.st4{opacity:0.34;fill:#3F4545;}
	.st5{opacity:0.78;fill:#3F4545;}
	.st6{fill:none;stroke:#1F2120;stroke-width:8;stroke-linecap:round;stroke-linejoin:round;stroke-miterlimit:10;}
	.st7{fill:#B5B4B4;}
	.st8{opacity:0.39;fill:#B5B4B4;}
	.st9{opacity:0.5;fill:#FFFFFF;}
	.st10{fill:#FF1A1A;}
	.st11{opacity:0.63;fill:#E02F2F;}
	.st12{fill:#EA4949;}
	.st13{fill:#E02F2F;}
	.st14{fill:none;stroke:#1F2120;stroke-width:10;stroke-linecap:round;stroke-linejoin:round;stroke-miterlimit:10;}
	.st15{fill:none;stroke:#543889;stroke-width:8;stroke-linecap:round;stroke-linejoin:round;stroke-miterlimit:10;}
	.st16{opacity:0.2;fill:#FF1A1A;}
	.st17{opacity:0.68;fill:#3F4545;}
	.st18{fill:#EAEAEA;}
	.st19{opacity:0.37;fill:#B5B4B4;}
	.st20{fill:#1F2120;}
	.st21{fill:#47A942;}
	.st22{fill:#C4C4C4;}
	.st23{fill:#CCCC00;}
	.st24{fill:#00B3C6;}
	.st25{opacity:0.53;fill:#00B3C6;}
	.st26{fill:#414141;}
	.st27{fill:#FFC41D;}
	.st28{opacity:0.4;fill:#414141;}
</style><style
     type="text/css"
     id="style1044">
	.st0{fill:#53BCBD;}
	.st1{opacity:0.41;stroke:#000000;stroke-width:10;stroke-linecap:round;stroke-linejoin:round;stroke-miterlimit:10;}
	.st2{opacity:0.41;fill:none;stroke:#000000;stroke-width:10;stroke-linecap:round;stroke-linejoin:round;stroke-miterlimit:10;}
	.st3{fill:none;stroke:#663C3B;stroke-width:10;stroke-linejoin:round;stroke-miterlimit:10;}
	.st4{fill:#663C3B;}
	.st5{fill:#FEC556;}
	.st6{fill:#F29940;}
	.st7{fill:#835559;}
	.st8{fill:#95676B;}
	.st9{fill:none;stroke:#663C3B;stroke-width:6;stroke-linecap:round;stroke-linejoin:round;stroke-miterlimit:10;}
	.st10{fill:none;stroke:#663C3B;stroke-width:3;stroke-linecap:round;stroke-linejoin:round;stroke-miterlimit:10;}
	.st11{fill:none;stroke:#663C3B;stroke-width:8;stroke-linecap:round;stroke-linejoin:round;stroke-miterlimit:10;}
	.st12{opacity:0.17;}
	.st13{fill:#32B94D;}
	.st14{fill:none;stroke:#663C3B;stroke-width:2;stroke-linecap:round;stroke-linejoin:round;stroke-miterlimit:10;}
	.st15{fill:#8BD8F5;}
	.st16{fill:#FEF585;}
	.st17{fill:#E7503B;}
	.st18{fill:#EEF2F4;}
</style></svg>
