<?xml version="1.0" encoding="UTF-8" standalone="no"?>
<!-- Created with Inkscape (http://www.inkscape.org/) -->

<svg
   version="1.1"
   id="svg2"
   width="2560"
   height="1440"
   viewBox="0 0 2560 1440"
   xmlns="http://www.w3.org/2000/svg"
   xmlns:svg="http://www.w3.org/2000/svg">
  <defs
     id="defs6" />
  <g
     id="g10"
     transform="matrix(1.3333333,0,0,-1.3333333,0,1440)">
    <g
       id="g12"
       transform="scale(0.1)">
      <path
         d="M 11337.712,-5675.6155 V -16475.616 h 19200 v 10800.0005 h -19200"
         style="fill:#eef6f4;fill-opacity:1;fill-rule:nonzero;stroke:none"
         id="path1071" />
      <path
         d="M -7755.818,-142.69258 V -10942.692 h 19200 V -142.69258 h -19200"
         style="fill:#eef6f4;fill-opacity:1;fill-rule:nonzero;stroke:none"
         id="path14" />
      <path
         d="M 5369.64,6183.69 H 6489.71 V 7971.07 L 6436.79,7877 Z m 1834.43,0 h 532.11 v -573.26 h -532.11 v -952.5 h -714.36 v 952.5 H 4640.59 L 4620,6045.52 6466.19,8938.27 h 737.88 V 6183.69"
         style="fill:#e6e6e6;fill-opacity:1;fill-rule:nonzero;stroke:none"
         id="path16" />
      <path
         d="m 10285,7259.65 c 0,401.73 -54.9,696.22 -164.7,883.4 -109.7,187.14 -284.15,280.75 -523.24,280.75 -233.25,0 -404.72,-88.7 -514.46,-266.05 -109.78,-177.39 -167.57,-454.2 -173.45,-830.48 v -970.14 c 0,-399.81 55.86,-697.74 167.57,-893.69 111.72,-196 287.09,-293.98 526.22,-293.98 229.31,0 398.76,90.63 508.56,271.93 109.8,181.26 167.6,464.94 173.5,851.07 z m 714.3,-799.63 c 0,-615.43 -115.1,-1079.4 -345.4,-1391.98 -230.3,-312.63 -580.6,-468.9 -1050.96,-468.9 -462.55,0 -810.92,152.36 -1045.09,457.13 -234.22,304.74 -354.25,755.99 -360.13,1353.78 v 740.82 c 0,615.38 115.12,1076.93 345.43,1384.64 230.27,307.67 581.57,461.55 1053.91,461.55 468.34,0 817.74,-149.93 1048.04,-449.79 230.3,-299.85 348.4,-748.68 354.2,-1346.42 v -740.83"
         style="fill:#e6e6e6;fill-opacity:1;fill-rule:nonzero;stroke:none"
         id="path18" />
      <path
         d="m 12213.5,6183.69 h 1120 v 1787.38 l -52.9,-94.07 z m 1834.4,0 h 532.1 v -573.26 h -532.1 v -952.5 h -714.4 v 952.5 h -1849.1 l -20.6,435.09 1846.2,2892.75 h 737.9 V 6183.69"
         style="fill:#e6e6e6;fill-opacity:1;fill-rule:nonzero;stroke:none"
         id="path20" />
      <path
         d="m 6881.95,6851.16 c -27.19,41.22 -94.75,84.73 -129.97,109.5 -38.36,26.76 13.89,46.52 35.93,53.24 4.44,1.29 6.16,6.44 3.44,10.17 0,0 -5.73,11.3 -9.31,12.88 -15.46,6.73 -66.7,-7.87 -66.7,-7.87 21.47,62.83 -51.67,155.44 -51.67,155.44 0,0 0,0 -0.14,0 -4.15,1.14 -91.32,24.47 -128.68,-64.12 -38.21,-90.61 88.31,-343.53 -33.35,-419.82 -121.67,-76.29 -317.33,-303.01 -250.48,-520 66.69,-217.14 -233.89,-264.8 -243.33,-450.87 -9.59,-186.08 268.23,-496.25 556.36,-384.17 89.31,34.77 157.73,81.15 209.69,128.96 h 0.14 c -0.28,2.72 -0.57,5.44 -1,8.16 -7.01,61.69 -16.17,157.59 -21.04,269.81 -9.02,211.4 -2.58,481.35 63.7,689.9 2.14,10.02 4.29,19.9 6.58,29.63 2.43,11.02 5.15,21.9 7.87,32.49 2.44,9.73 5.01,19.18 7.73,28.63 1.86,6.87 3.72,13.59 5.87,20.18 2.15,7.73 4.58,15.31 7.02,22.9 2.14,6.72 4.29,13.45 6.58,19.89 3.29,9.74 6.58,19.33 10.16,28.63 3.44,9.3 7.02,18.61 10.59,27.63 1.58,70.99 6.16,126.67 14.75,157.02 3.72,13.02 -1.01,27.33 -10.74,41.79"
         style="fill:#32414c;fill-opacity:1;fill-rule:nonzero;stroke:none"
         id="path22" />
      <path
         d="m 6683.24,5571.5 c 0,0 75.94,-1627.65 81.58,-1691.05 4.51,-50.58 -21.83,-228.02 -47.47,-291.02 -5.68,-13.95 5.87,-28.88 20.78,-26.72 18.87,2.73 46.45,11.17 83.27,33.28 78.18,46.94 134.95,310.84 162.62,513.78 27.67,202.93 297,1300.14 297,1300.14 l -597.78,161.59"
         style="fill:#eaa599;fill-opacity:1;fill-rule:nonzero;stroke:none"
         id="path24" />
      <path
         d="M 7956.4,2660.52 H 7824 v 1077.21 h 132.4 V 2660.52"
         style="fill:#261412;fill-opacity:1;fill-rule:nonzero;stroke:none"
         id="path26" />
      <path
         d="m 7982.9,3684.06 h -176.7 c -34.25,0 -62.01,27.77 -62.01,62.01 v 174.16 h 300.72 v -174.16 c 0,-34.24 -27.76,-62.01 -62.01,-62.01"
         style="fill:#3c1514;fill-opacity:1;fill-rule:nonzero;stroke:none"
         id="path28" />
      <path
         d="m 7003.7,3973.12 c 0,0 -361.16,1391.59 -418.75,1850.79 -20.95,166.99 97.8,207.55 135.97,42.94 52.01,-224.27 474.63,-1741.67 469.91,-1805.98 -4.72,-64.3 -187.13,-87.75 -187.13,-87.75"
         style="fill:#4f2448;fill-opacity:1;fill-rule:nonzero;stroke:none"
         id="path30" />
      <path
         d="m 8736.46,4063.67 c 59.77,1.9 90.16,-161.65 0,-164.61 -111.54,-3.65 -1583.43,-20.43 -1643.64,-15.72 -117.59,9.17 -124.74,157.54 11.24,173.78 113.47,13.54 1460.05,1.1 1632.4,6.55"
         style="fill:#4f2448;fill-opacity:1;fill-rule:nonzero;stroke:none"
         id="path32" />
      <path
         d="m 8227.26,2621.38 h -674.12 c -11.41,0 -20.67,9.24 -20.67,20.67 v 0 c 0,10.55 7.94,19.4 18.42,20.55 l 337.06,36.94 c 1.5,0.17 3.01,0.17 4.51,0 l 337.05,-36.94 c 10.49,-1.15 18.42,-10 18.42,-20.55 v 0 c 0,-11.43 -9.25,-20.67 -20.67,-20.67"
         style="fill:#723a68;fill-opacity:1;fill-rule:nonzero;stroke:none"
         id="path34" />
      <path
         d="m 6407.1,2606.27 c 0,0 -6.61,226.63 50.37,357.83 79.57,183.24 138.36,374.54 138.36,374.54 0,0 221.58,-479.5 130.93,-732.37 H 6407.1"
         style="fill:#278a3d;fill-opacity:1;fill-rule:nonzero;stroke:none"
         id="path36" />
      <path
         d="m 6550.63,2607.62 c 9.41,48.83 16.8,98.43 23.17,148 6.35,49.6 11.61,99.38 15.48,149.27 3.96,49.89 6.91,99.88 8.28,149.92 1.81,50.05 1.47,100.14 0.66,150.24 2.01,-50.05 3.53,-100.18 2.92,-150.3 -0.18,-50.14 -1.94,-100.27 -4.72,-150.35 -2.69,-50.08 -6.77,-100.1 -11.95,-150.03 -5.23,-49.95 -11.41,-99.66 -19.78,-149.45 l -14.06,2.7"
         style="fill:#161211;fill-opacity:1;fill-rule:nonzero;stroke:none"
         id="path38" />
      <path
         d="m 6491.46,2606.46 c 0,0 93.04,972.52 -449.08,1509.27 0,0 16.57,-130.8 -21.47,-263.01 -38.19,-132.69 78.72,-239.64 78.72,-239.64 l -62.62,-26.69 c -13.69,-9.55 -29.24,-26.35 -22.5,-41.63 210.37,-477.47 42.18,-693.97 137.6,-938.49 l 339.35,0.19"
         style="fill:#45bc51;fill-opacity:1;fill-rule:nonzero;stroke:none"
         id="path40" />
      <path
         d="m 6332.22,2606.59 c 1.2,118.74 -3.83,237.93 -12.29,356.61 -8.73,118.72 -21.79,237.13 -39.53,354.89 -18.78,117.57 -42.53,234.36 -72.99,349.53 -32.21,114.65 -71.48,227.39 -122.09,335.4 51.68,-107.49 92.13,-219.95 125.54,-334.45 31.65,-115.01 56.62,-231.74 76.6,-349.36 18.96,-117.77 33.24,-236.29 43.17,-355.18 9.67,-118.94 15.91,-238.06 15.9,-357.68 l -14.31,0.24"
         style="fill:#161211;fill-opacity:1;fill-rule:nonzero;stroke:none"
         id="path42" />
      <path
         d="m 6167.83,2606.46 c 0,0 37.1,169.72 -90.65,365.99 -62.89,96.62 -19.09,289.85 -116.9,388.56 -48.54,48.99 -107.35,84.98 -107.35,84.98 0,0 38.17,-81.11 38.17,-157.45 0,-76.33 -28.62,-198 16.7,-362.6 45.33,-164.61 -16.7,-319.48 -16.7,-319.48 h 276.73"
         style="fill:#2ca141;fill-opacity:1;fill-rule:nonzero;stroke:none"
         id="path44" />
      <path
         d="m 6033.43,2606.53 c 0.6,61.74 -0.73,123.83 -5.88,185.39 -2.71,30.75 -6.24,61.52 -13.01,91.4 -3.44,14.73 -8.52,29.39 -12.81,44.52 -4.28,15.01 -8.05,30.13 -11.51,45.3 -13.75,60.7 -23.88,122.08 -31.06,183.8 -1.74,15.44 -3.25,30.91 -4.3,46.42 -1.3,15.51 -0.96,31.11 -2.24,46.48 -2.66,30.68 -9.23,61.79 -24.75,88.8 16.05,-26.72 23.26,-57.84 26.53,-88.63 1.59,-15.53 1.55,-31.04 3.14,-46.45 1.34,-15.43 3.14,-30.82 5.17,-46.18 8.34,-61.41 19.63,-122.49 34.47,-182.57 3.72,-15.02 7.76,-29.95 12.27,-44.69 4.45,-14.64 9.85,-29.25 13.78,-44.67 7.53,-30.54 11.67,-61.53 15.01,-92.51 6.38,-62.04 8.91,-124.18 9.51,-186.53 l -14.32,0.12"
         style="fill:#161211;fill-opacity:1;fill-rule:nonzero;stroke:none"
         id="path46" />
      <path
         d="M 13450,2555.68 H 5750 v 65.7 h 7700 v -65.7"
         style="fill:#161211;fill-opacity:1;fill-rule:nonzero;stroke:none"
         id="path48" />
      <path
         d="m 9452.47,7782.29 c 15.5,-67.23 75.6,-117.41 147.53,-117.41 71.93,0 132.03,50.18 147.53,117.41 h -295.06"
         style="fill:#f9e234;fill-opacity:1;fill-rule:nonzero;stroke:none"
         id="path50" />
      <path
         d="m 9619.63,10800 h -39.26 V 8393.11 h 39.26 V 10800"
         style="fill:#339b87;fill-opacity:1;fill-rule:nonzero;stroke:none"
         id="path52" />
      <path
         d="M 9673.7,8216.68 V 8354 c 0,21.6 -17.51,39.11 -39.11,39.11 h -14.96 -39.26 -14.95 c -21.61,0 -39.12,-17.51 -39.12,-39.11 v -137.32 c 24.1,2.77 48.68,4.31 73.7,4.31 25.02,0 49.6,-1.54 73.7,-4.31"
         style="fill:#2d8876;fill-opacity:1;fill-rule:nonzero;stroke:none"
         id="path54" />
      <path
         d="m 9831.3,7782.29 c 3.6,20.71 5.4,42.01 5.4,63.71 0,186.6 -136.3,341.4 -314.8,370.2 1.5,0.2 2.9,0.3 4.4,0.5 24.1,2.8 48.7,4.3 73.7,4.3 25,0 49.6,-1.5 73.7,-4.3 258.1,-29.7 456.8,-212.8 456.8,-434.41 h -299.2"
         style="fill:#369482;fill-opacity:1;fill-rule:nonzero;stroke:none"
         id="path56" />
      <path
         d="m 9836.7,7846 c 0,-21.7 -1.8,-43 -5.4,-63.71 h -761.8 c 0,44.11 7.9,86.81 22.6,126.91 58.5,160.39 225.1,282 429.8,307 178.5,-28.8 314.8,-183.6 314.8,-370.2"
         style="fill:#3faa99;fill-opacity:1;fill-rule:nonzero;stroke:none"
         id="path58" />
      <path
         d="m 10751,5894.54 h -7.5 l 131,1617.87 v 0 c 55.5,0 95,-83.43 86.9,-183.74 L 10859,6064.68 c -7.7,-95.01 -55.4,-170.14 -108,-170.14"
         style="fill:#40ac9a;fill-opacity:1;fill-rule:nonzero;stroke:none"
         id="path60" />
      <path
         d="m 11165.6,5571.5 c -88.1,0 -451.3,2.7 -454.7,2.73 l 0.5,50.89 c 3.3,-0.03 366.3,-2.73 454.2,-2.73 9.8,0 27.2,1.29 33,9.95 6.3,9.55 1.2,29.23 -1.3,35.31 l -1,2.72 -252.9,864.39 c -4.1,21.65 -21.5,38.23 -42.2,40.34 l 3,50.82 2.4,-0.21 c 42.3,-4.29 77.8,-37.17 86.5,-80.16 l 251.7,-859.7 c 3.6,-9.34 17.4,-49.73 -3.8,-81.65 -14.4,-21.7 -39.8,-32.7 -75.4,-32.7"
         style="fill:#40ac9a;fill-opacity:1;fill-rule:nonzero;stroke:none"
         id="path62" />
      <path
         d="m 9872.26,5571.5 v 21.99 l 673.44,39.95 v -61.94 h -673.44"
         style="fill:#40ac9a;fill-opacity:1;fill-rule:nonzero;stroke:none"
         id="path64" />
      <path
         d="m 10012.8,3064.33 c 0,0 108.1,-391.06 187,-359.15 78.8,31.9 742.9,724.48 742.9,724.48 0,0 -8.9,91.21 -179.6,-0.28 -170.7,-91.47 -361.6,-177.63 -427.1,-156.57 -65.6,21.08 -323.2,-208.48 -323.2,-208.48"
         style="fill:#32414c;fill-opacity:1;fill-rule:nonzero;stroke:none"
         id="path66" />
      <path
         d="m 8512.49,3026.87 c 0,0 -206.11,-388.79 -122.08,-402 91.06,-14.31 1037.72,0 1037.72,0 0,0 62.44,85.92 -123.64,139.59 -186.07,53.67 -382.88,125.25 -415.09,186.08 -32.2,60.83 -376.91,76.33 -376.91,76.33"
         style="fill:#32414c;fill-opacity:1;fill-rule:nonzero;stroke:none"
         id="path68" />
      <path
         d="m 7250.52,4854.22 c 0,0 1791.56,363.58 2001.49,140.55 C 9461.94,4771.72 10336,3272.81 10336,3272.81 c 0,0 -51.4,-60.68 -136.2,-126.28 -93.8,-72.54 -189.2,-86.26 -189.2,-86.26 0,0 -806.43,949.07 -1203.41,1003.44 -248.1,33.99 -1120.11,-114.85 -1343.62,33.75 -193.2,128.46 -213.05,756.76 -213.05,756.76"
         style="fill:#328b7b;fill-opacity:1;fill-rule:nonzero;stroke:none"
         id="path70" />
      <path
         d="m 8889.4,2950.5 c 0,0 -100.19,-23.76 -209.98,0 -109.63,23.9 -166.89,76.43 -166.89,76.43 0,0 390.47,993.5 280.69,1146.21 -109.64,152.59 -404.79,-48.94 -1058.48,-115.64 -201.82,-20.62 -325.2,47.52 -399.2,151.44 -0.14,0.13 -0.14,0.13 -0.29,0.28 -165.6,232.73 -84.73,644.96 -84.73,644.96 l 1425.9,311.32 c 0,0 931.66,210.12 1120.46,-317.19 C 9935.28,4461.85 8889.4,2950.5 8889.4,2950.5"
         style="fill:#3faa99;fill-opacity:1;fill-rule:nonzero;stroke:none"
         id="path72" />
      <path
         d="m 6962.1,6810.8 c -29.62,12.31 -15.88,55.96 -80.15,40.36 -27.19,41.22 -94.75,84.73 -129.97,109.5 -38.36,26.76 13.89,46.52 35.93,53.24 4.44,1.29 6.16,6.44 3.44,10.17 0,0 -5.73,11.3 -9.31,12.88 -15.46,6.73 -66.7,-7.87 -66.7,-7.87 21.47,62.83 -51.67,155.44 -51.67,155.44 0,0 0,0 -0.14,0 28.05,12.88 59.11,19.75 88.88,19.61 97.19,-0.58 245.05,-22.19 269.09,-152.87 15.89,-86.02 220.43,-48.95 241.33,-44.94 0.43,0 0.71,0.14 1,0.14 0.43,0.14 0.72,0.14 0.72,0.14 97.33,-106.35 -266.95,-210.55 -302.45,-195.8"
         style="fill:#fbc3b5;fill-opacity:1;fill-rule:nonzero;stroke:none"
         id="path74" />
      <path
         d="m 8676.42,5165.5 c -103.34,-381.74 -664.86,-386.47 -932.23,-567.81 -155.44,-105.49 -408.65,-388.75 -408.65,-388.75 -0.14,0.13 -0.14,0.13 -0.29,0.28 -165.6,232.73 -84.73,644.96 -84.73,644.96 l 1425.9,311.32"
         style="fill:#369482;fill-opacity:1;fill-rule:nonzero;stroke:none"
         id="path76" />
      <path
         d="M 8676.42,5165.5 C 8495.64,4932.47 8153.98,4852.46 7850.4,4831.71 h -0.15 c -321.19,-22.04 -599.73,22.47 -599.73,22.47 -162.74,192.23 -275.96,395.33 -350.25,596.58 -15.03,40.65 -28.48,81.16 -40.36,121.52 -124.82,421.96 -85.45,823.02 18.03,1080.09 24.77,61.69 53.25,114.93 84.16,158.45 35.5,-14.74 399.78,89.46 302.45,195.81 213.41,53.53 422.53,-5.44 422.53,-5.44 1288.2,-307.74 989.34,-1835.69 989.34,-1835.69"
         style="fill:#f35c5c;fill-opacity:1;fill-rule:nonzero;stroke:none"
         id="path78" />
      <path
         d="m 7850.25,4831.71 c -205.68,-14.17 -393.9,-1.01 -502.69,10.45 17.75,184.35 34.21,348.67 42.8,432.4 3.87,37.36 6.01,58.69 6.01,58.69 0,0 92.04,331.5 118.95,675.88 -0.43,-24.34 -13.03,-1035.86 334.93,-1177.42"
         style="fill:#e43942;fill-opacity:1;fill-rule:nonzero;stroke:none"
         id="path80" />
      <path
         d="m 7097.22,3715.41 c 0,0 -57.82,-102.92 -75.72,-86.88 -17.89,16.17 62.27,177.48 62.99,173.62 l 0.14,-0.15 c 5.72,-29.91 9.59,-48.95 10.88,-54.68 1.86,-7.87 2.29,-18.89 1.71,-31.91"
         style="fill:#fbc3b5;fill-opacity:1;fill-rule:nonzero;stroke:none"
         id="path82" />
      <path
         d="m 6922.54,5393.32 -140.56,17.74 c 0,0 20.47,-109.5 50.96,-272.24 75.15,-402.06 211.41,-1129.61 251.63,-1336.87 5.72,-29.91 9.59,-48.95 10.88,-54.67 1.86,-7.88 2.29,-18.9 1.71,-31.93 -2.72,-69.41 -34.06,-199.38 -47.8,-253.48 -3.44,-13.6 9.01,-25.77 22.75,-22.05 18.33,5.01 45.24,17.04 80.02,45.09 70.85,57.26 129.39,314.89 128.82,519.72 -0.29,113.22 35.07,507.55 66.55,837.48 17.75,184.35 34.21,348.67 42.8,432.4 3.87,37.36 6.01,58.69 6.01,58.69 l -473.77,60.12"
         style="fill:#fbc3b5;fill-opacity:1;fill-rule:nonzero;stroke:none"
         id="path84" />
      <path
         d="m 7396.31,5333.2 c 0,0 -2.14,-21.33 -6.01,-58.69 -229.01,27.63 -548.2,-131.1 -557.36,-135.69 -30.49,162.74 -50.96,272.24 -50.96,272.24 l 614.33,-77.86"
         style="fill:#eaa89b;fill-opacity:1;fill-rule:nonzero;stroke:none"
         id="path86" />
      <path
         d="m 7149.34,6765.52 c -174.63,-11.17 -276.4,-145.14 -333.65,-325.06 -103.2,-324.63 -61.4,-798.26 -41.65,-967.87 4.72,-40.22 8.16,-63.41 8.16,-63.41 l 140.55,-17.75 473.78,-60.11 c 0,0 92.03,331.49 118.94,675.87 v 0.43 c 29.92,382.17 -20.47,779.94 -366.13,757.9"
         style="fill:#f14b4d;fill-opacity:1;fill-rule:nonzero;stroke:none"
         id="path88" />
      <path
         d="M 12740.1,5411.06 H 9484.19 c -23.51,0 -42.57,19.06 -42.57,42.58 v 75.29 c 0,23.51 19.06,42.57 42.57,42.57 h 3255.91 c 23.5,0 42.5,-19.06 42.5,-42.57 v -75.29 c 0,-23.52 -19,-42.58 -42.5,-42.58"
         style="fill:#723a68;fill-opacity:1;fill-rule:nonzero;stroke:none"
         id="path90" />
      <path
         d="m 12286,2617.71 h -100.2 l -168.9,2793.35 h 100.2 L 12286,2617.71"
         style="fill:#4f2448;fill-opacity:1;fill-rule:nonzero;stroke:none"
         id="path92" />
      <path
         d="m 9970.07,2617.71 h 100.23 l 168.9,2793.35 H 10139 L 9970.07,2617.71"
         style="fill:#4f2448;fill-opacity:1;fill-rule:nonzero;stroke:none"
         id="path94" />
      <path
         d="m 11770.6,2611.05 c 0,0 6.9,74.38 8.5,194.78 0.2,18.08 220.5,37.19 220.5,57.25 0,14.63 -220.3,29.75 -220.6,45.35 -0.9,67.11 -3.7,142.8 -9.7,224.12 -1.2,16.63 162.6,21.2 161.1,38.26 -1.4,15.68 -168.1,43.83 -169.7,59.85 -2,19.59 -4.2,39.42 -6.6,59.45 -2.4,19.83 117.1,20.35 114.3,40.53 -2.1,15.13 -126.3,49.87 -128.7,65.16 -35.5,230.84 -100.6,478.85 -217.2,693.46 0,0 101.5,-66.56 236.2,-192.08 10.2,-9.51 -5.8,-60.15 4.7,-70.33 9.9,-9.57 46.4,21.34 56.6,11.19 93,-92.79 195.7,-210.03 289.3,-349.65 9.6,-14.24 -52.3,-66.7 -42.9,-81.41 6.9,-10.94 85.1,15.95 92,4.74 55.8,-91.63 106.8,-191.76 148.5,-299.87 7.3,-18.91 -178,-117.26 -171.3,-136.65 6.4,-18.71 204.9,41.57 210.8,22.42 15.8,-51.62 29.4,-104.87 40.3,-159.67 2.6,-12.7 -193.7,-62.2 -191.5,-75.07 2,-11.42 202.5,13.81 204.3,2.25 7.2,-47.65 12.3,-96.41 15.2,-146.25 l -644.1,-7.83"
         style="fill:#278a3d;fill-opacity:1;fill-rule:nonzero;stroke:none"
         id="path96" />
      <path
         d="m 12083.1,2618.66 c -5.3,115.47 -20.2,231.08 -40.6,345.25 -20.7,114.21 -48.4,227.17 -82.7,338.09 -33.4,111.29 -77.6,219.07 -127.6,323.86 l -39.5,77.64 c -13.8,25.55 -29.5,50.06 -44.2,75.15 l -22.3,37.44 c -7.8,12.21 -16.5,23.87 -24.8,35.83 l -50.1,71.38 50.8,-70.87 c 8.4,-11.88 17.2,-23.47 25.2,-35.61 l 22.8,-37.23 c 14.9,-24.96 30.8,-49.35 44.9,-74.8 l 40.5,-77.34 c 51.1,-104.43 96.5,-212.05 131.1,-323.28 35.6,-110.87 64.5,-223.89 86.5,-338.3 21.6,-114.51 37.7,-229.94 44.3,-346.78 l -14.3,-0.43"
         style="fill:#161211;fill-opacity:1;fill-rule:nonzero;stroke:none"
         id="path98" />
      <path
         d="m 12039.4,2618.88 c 0,0 8.9,91.08 35.7,233.9 7,37.11 279,154.34 279,154.34 8.2,37.01 -237,42.85 -226.7,83.5 6.9,27.37 14.3,55.45 22.2,84.14 5.4,19.49 11,39.26 16.9,59.27 24.3,82.72 53,169.46 86.7,257.33 9.6,25.09 196.8,-16.86 207.3,8.35 0,0 -153.8,122.54 -141.3,150.2 66,145.87 146.8,290.09 245.5,419.61 10.9,14.32 187.4,-25.91 187.4,-25.91 10,12.3 -133.8,92.74 -123.5,104.72 141.1,163.1 314.8,295.45 528.2,366.43 0,0 -28.5,-69.16 -68.2,-191.88 -35.6,-110.04 -80.2,-263.13 -121.5,-448.05 -4.6,-20.81 -205.1,-31.47 -209.6,-53.07 0,0 188,-48.47 184.2,-67.85 -7.3,-36.84 -14.4,-74.7 -21.3,-113.51 -2.4,-14.07 -122.9,-1.13 -125.3,-15.45 -2.8,-16.57 112.6,-60.45 109.9,-77.34 -22.7,-145.1 -40.9,-301.8 -50.8,-466.68 -0.8,-13.06 -230.2,-38.62 -230.9,-51.78 0,0 227.5,-12.65 226.9,-25.26 -1.1,-26.17 -2,-52.51 -2.7,-79.05 -0.5,-21.78 -286.6,-45.43 -286.8,-67.45 -0.2,-17.8 285.4,-33.94 285.4,-51.88 0.1,-61.46 1.5,-123.72 4.4,-186.63 h -811.1"
         style="fill:#47bd5e;fill-opacity:1;fill-rule:nonzero;stroke:none"
         id="path100" />
      <path
         d="m 12460.5,2618.99 c 5.3,153.3 21.2,305.54 43.4,456.94 22.3,151.33 52.7,301.5 92.1,449.31 20.1,73.79 42.1,147.08 67.2,219.32 25.5,72.08 53.3,143.4 84.8,213.06 32.1,69.41 66.9,137.58 106.3,203.11 39.9,65.22 83.7,127.98 132.2,187.04 -48,-59.44 -91.4,-122.5 -130.7,-187.96 -38.8,-65.77 -73.1,-134.11 -104.5,-203.66 -31,-69.79 -58.1,-141.2 -83,-213.34 -24.6,-72.29 -45.9,-145.6 -65.4,-219.39 -38.1,-147.81 -67.3,-297.89 -88.4,-449.04 -21,-151.07 -35.6,-303.42 -39.7,-455.62 l -14.3,0.23"
         style="fill:#161211;fill-opacity:1;fill-rule:nonzero;stroke:none"
         id="path102" />
      <path
         d="m 12090.2,2618.88 c 0,0 -32.5,189.95 -78.7,279.26 -12,23.22 -215.7,46.68 -215.7,46.68 -12.8,22.9 148.5,75.65 133.6,100.55 -10,16.76 -20.5,33.91 -31.5,51.34 -7.4,11.84 -15.1,23.83 -23,35.92 -32.6,49.97 -68.9,101.75 -108.7,153.29 -11.4,14.7 -127.2,-50.42 -139.1,-35.8 0,0 77.5,111.88 63.7,127.72 -58.2,66.72 -122.4,130.86 -192.4,187.71 -6.3,5.14 -92.1,-65.97 -98.5,-60.95 -4.9,3.87 69.4,83.9 64.4,87.69 -6.6,4.98 -13.2,9.9 -19.9,14.74 -10.1,7.32 -119.1,-54.52 -119.1,-54.52 -9,6.15 70.3,88.14 61,94.01 -126,79.99 -267.5,133.11 -423.1,137.62 0,0 32.7,-40.18 83.5,-113.6 6.9,-10.1 70.5,-3.18 78.1,-14.5 4.7,-7.01 -46.7,-31.88 -41.8,-39.34 39.2,-59.26 85.2,-132.94 133.5,-218.93 7.2,-12.87 142.2,20.02 149.5,6.61 0,0 -115,-69.6 -108.5,-81.68 12.1,-22.96 24.4,-46.65 36.7,-71.01 4.4,-8.84 23.5,-47.76 28.7,-58.43 44,-91.65 87.3,-191.88 126.7,-299.2 3.1,-8.5 160.3,20.3 163.3,11.71 0,0 -148.2,-53.74 -145.3,-61.99 5.9,-17.12 11.8,-34.41 17.5,-51.85 4.7,-14.33 199.1,27.03 203.6,12.47 3.7,-11.75 -182.4,-79.39 -178.9,-91.28 12.2,-40.77 23.7,-82.31 34.3,-124.58 l 546.1,30.34"
         style="fill:#2ca141;fill-opacity:1;fill-rule:nonzero;stroke:none"
         id="path104" />
      <path
         d="m 11864.1,2604.1 c -41.3,104.64 -88.6,207.32 -139.4,307.96 -51.2,100.49 -106.1,199.2 -166.7,294.34 -60.4,95.19 -126.2,187.23 -199.8,272.76 -73.5,85.51 -155.5,164.42 -248.8,228.23 94,-62.81 177,-140.98 251.4,-225.89 74.7,-84.9 141.6,-176.46 203.2,-271.24 61.8,-94.72 117.9,-193.08 170.3,-293.3 52,-100.47 100.4,-202.62 143.2,-307.7 l -13.4,-5.16"
         style="fill:#161211;fill-opacity:1;fill-rule:nonzero;stroke:none"
         id="path106" />
      <path
         d="m 12537.6,5781.77 h -948.8 v -28.13 h 847.2 c 15.1,0 27.3,-13.5 27.3,-30.15 v -92.6 c 0,-16.65 -12.2,-30.15 -27.3,-30.15 h -847.2 v -29.24 h 948.8 c 23.9,0 43.3,21.45 43.3,47.92 v 114.42 c 0,26.47 -19.4,47.93 -43.3,47.93"
         style="fill:#32414c;fill-opacity:1;fill-rule:nonzero;stroke:none"
         id="path108" />
      <path
         d="m 12475.1,5630.89 v 92.6 c 0,16.65 -12.2,30.15 -27.2,30.15 h -844.5 v -152.9 h 844.5 c 15,0 27.2,13.5 27.2,30.15"
         style="fill:#ffffff;fill-opacity:1;fill-rule:nonzero;stroke:none"
         id="path110" />
      <path
         d="m 11659.4,5980.07 h 845.2 v -26.91 h -794.9 c -14.1,0 -25.6,-12.66 -25.6,-28.28 V 5838 c 0,-15.62 11.5,-28.28 25.6,-28.28 h 794.9 v -27.95 h -845.2 c -22.5,0 -40.7,20.13 -40.7,44.96 v 108.38 c 0,24.83 18.2,44.96 40.7,44.96"
         style="fill:#f14b4d;fill-opacity:1;fill-rule:nonzero;stroke:none"
         id="path112" />
      <path
         d="m 11684.1,5838 v 86.88 c 0,15.62 11.3,28.28 25.2,28.28 h 781.5 v -143.44 h -781.5 c -13.9,0 -25.2,12.66 -25.2,28.28"
         style="fill:#ffffff;fill-opacity:1;fill-rule:nonzero;stroke:none"
         id="path114" />
      <path
         d="m 11809.1,6036.82 v 86.87 c 0,15.63 11.5,28.29 25.6,28.29 h 530.8 v 26.91 h -572.8 c -22.5,0 -40.7,-20.14 -40.7,-44.97 v -108.37 c 0,-24.83 18.2,-44.96 40.7,-44.96 h 572.8 v 27.95 h -530.8 c -14.1,0 -25.6,12.66 -25.6,28.28"
         style="fill:#3faa99;fill-opacity:1;fill-rule:nonzero;stroke:none"
         id="path116" />
      <path
         d="m 11833.2,6151.98 c -13.3,0 -24.1,-12.66 -24.1,-28.29 v -86.87 c 0,-15.62 10.8,-28.28 24.1,-28.28 h 508 v 143.44 h -508"
         style="fill:#ffffff;fill-opacity:1;fill-rule:nonzero;stroke:none"
         id="path118" />
      <path
         d="m 6804.17,8017.76 c -51.48,12.77 -103.95,22.25 -157.09,28.3 -8.66,0.99 -15.38,0.05 -20.08,-2.72 -4.71,-2.77 -7.28,-6.77 -7.75,-11.95 -0.46,-4.98 1.34,-9.19 5.34,-12.65 4.01,-3.47 10.21,-5.63 18.64,-6.59 40.08,-4.56 79.76,-11.13 118.91,-19.65 -55.34,-35 -106.13,-73.8 -151.96,-115.54 -2.19,-1.94 -4.73,-4.24 -7.62,-6.9 -2.88,-2.65 -5.13,-4.87 -6.75,-6.62 -1.63,-1.77 -2.96,-3.67 -4,-5.74 -1.04,-2.07 -1.65,-4.37 -1.85,-6.91 -0.59,-7.44 1.55,-13.56 6.32,-18.43 4.78,-4.87 12.19,-7.78 22.3,-8.9 49.62,-5.49 98.53,-14.64 146.37,-27.28 6.93,-1.83 12.5,-1.75 16.77,0.34 4.27,2.08 7.18,5.7 8.67,10.9 1.44,5 0.83,9.4 -1.89,13.19 -2.71,3.78 -7.66,6.67 -14.83,8.57 -40.32,10.65 -81.37,18.91 -122.96,24.67 43.6,37.13 91.42,71.55 143.11,102.6 12,7.07 20.31,12.17 24.65,15.54 4.35,3.37 7.52,8.58 9.47,15.67 4.12,14.81 -3.73,25.09 -23.77,30.1"
         style="fill:#4f2448;fill-opacity:1;fill-rule:nonzero;stroke:none"
         id="path120" />
      <path
         d="m 7055.68,7855.59 c -33.33,17.69 -67.5,33.76 -102.37,48.15 -6.68,2.75 -12.39,3.49 -17.06,2.27 -4.68,-1.22 -7.88,-4.1 -9.61,-8.56 -2.38,-6.09 -1.47,-10.76 2.65,-14.04 4.13,-3.29 10.75,-6.78 19.82,-10.59 21.94,-9.23 43.59,-19.14 64.9,-29.72 -4.22,-1.9 -9.6,-4.03 -16.1,-6.43 -6.51,-2.41 -14.57,-5.31 -24.12,-8.82 -9.54,-3.5 -19.76,-7.36 -30.59,-11.63 -10.83,-4.27 -22.77,-9.23 -35.69,-14.97 -12.23,-5.47 -20.21,-9.52 -24.21,-11.85 -4,-2.32 -6.63,-5.18 -7.9,-8.51 -2.16,-5.62 -1.97,-10.77 0.5,-15.46 2.47,-4.69 7.44,-8.52 14.91,-11.59 35.45,-14.6 70.05,-31.21 103.62,-49.77 5.99,-3.3 11.15,-4.54 15.56,-3.65 4.41,0.88 7.8,3.33 10.16,7.39 2.45,4.24 2.96,8.58 1.45,13.03 -1.5,4.45 -5.31,8.4 -11.39,11.77 -25.06,13.85 -50.68,26.65 -76.78,38.38 36.08,15.05 73.75,28.27 112.83,39.43 4.32,1.14 7.98,2.11 10.99,2.95 2.99,0.85 5.44,1.62 7.32,2.32 1.87,0.7 3.85,1.83 5.96,3.4 2.1,1.56 3.71,3.32 4.82,5.28 3.32,5.85 3.22,11.29 -0.39,16.28 -3.6,4.99 -10.02,10.02 -19.28,14.94"
         style="fill:#4f2448;fill-opacity:1;fill-rule:nonzero;stroke:none"
         id="path122" />
      <path
         d="m 7304.99,7672.43 c -2.33,5.76 -7.41,12.27 -15.28,19.37 -28.36,25.54 -57.86,49.6 -88.38,72.11 -5.85,4.31 -11.23,6.42 -16.07,6.38 -4.85,-0.05 -8.65,-2.05 -11.42,-5.96 -3.77,-5.34 -4.02,-10.09 -0.79,-14.3 3.23,-4.2 8.83,-9.2 16.76,-15.13 19.16,-14.34 37.9,-29.31 56.19,-44.9 -4.57,-0.8 -10.33,-1.53 -17.26,-2.26 -6.93,-0.73 -15.49,-1.56 -25.65,-2.61 -10.15,-1.05 -21.04,-2.29 -32.63,-3.78 -11.58,-1.49 -24.41,-3.37 -38.38,-5.78 -13.22,-2.34 -21.97,-4.32 -26.43,-5.59 -4.45,-1.3 -7.69,-3.43 -9.73,-6.35 -3.46,-4.93 -4.51,-9.98 -3.23,-15.14 1.28,-5.16 5.19,-10.09 11.73,-14.9 31.03,-22.86 60.83,-47.56 89.24,-74.05 5.07,-4.72 9.82,-7.22 14.35,-7.46 4.52,-0.25 8.42,1.28 11.7,4.65 3.41,3.51 4.93,7.62 4.52,12.34 -0.41,4.71 -3.19,9.52 -8.34,14.32 -21.2,19.77 -43.16,38.58 -65.8,56.4 38.8,5.76 78.74,9.28 119.63,10.38 4.48,0.02 8.3,0.05 11.44,0.12 3.14,0.08 5.71,0.21 7.71,0.42 2,0.22 4.22,0.83 6.65,1.82 2.43,1 4.42,2.31 5.97,3.93 4.65,4.88 5.84,10.2 3.5,15.97"
         style="fill:#4f2448;fill-opacity:1;fill-rule:nonzero;stroke:none"
         id="path124" />
      <path
         d="m 14409.256,-4061.7563 h -1941.8 c -143.09,0 -259.1,-116.01 -259.1,-259.11 0,-143.1 116.01,-259.1 259.1,-259.1 h 1941.8 c 143.1,0 259.1,116 259.1,259.1 0,143.1 -116,259.11 -259.1,259.11 z m 0,-15.74 c 134.2,0 243.4,-109.17 243.4,-243.37 0,-134.19 -109.2,-243.36 -243.4,-243.36 h -1941.8 c -134.19,0 -243.36,109.17 -243.36,243.36 0,134.2 109.17,243.37 243.36,243.37 h 1941.8"
         style="fill:#f35c5c;fill-opacity:1;fill-rule:nonzero;stroke:none"
         id="path126" />
      <path
         d="m 9666.4712,-6664.2047 h 0.01 c 99.05,0 179.35,-80.3 179.35,-179.35 v 0 c 0,-99.05 -80.3,-179.35 -179.35,-179.35 h -0.01 c -99.05,0 -179.35,80.3 -179.35,179.35 v 0 c 0,99.05 80.3,179.35 179.35,179.35"
         style="fill:#f35c5c;fill-opacity:1;fill-rule:nonzero;stroke:none"
         id="path134" />
      <path
         d="m -2484.8151,2903.4448 h 0.01 c 99.05,0 179.35,-80.3 179.35,-179.35 v 0 c 0,-99.05 -80.3,-179.35 -179.35,-179.35 h -0.01 c -99.05,0 -179.35,80.3 -179.35,179.35 v 0 c 0,99.05 80.3,179.35 179.35,179.35"
         style="fill:#f35c5c;fill-opacity:1;fill-rule:nonzero;stroke:none"
         id="path1124" />
    </g>
  </g>
</svg>
