<svg width="522" height="522" viewBox="0 0 522 522" fill="none" xmlns="http://www.w3.org/2000/svg">
<path d="M219.103 408.824L122.009 453.337L82.5655 471.42C80.0926 467.804 70.2008 445.578 64.9458 438.345L102.04 418.221L194.374 368.236C205.038 362.858 223.214 369.133 228.593 379.798C231.172 384.907 231.621 390.83 229.842 396.27C228.064 401.71 224.202 406.224 219.103 408.824Z" fill="#FFC9B0"/>
<path d="M82.411 474.542C81.9099 474.538 81.4173 474.412 80.9758 474.175C80.5342 473.938 80.1568 473.597 79.8762 473.182C78.7943 471.636 76.9705 467.958 73.6939 461.621C70.2608 454.191 66.4007 446.966 62.1328 439.983C61.8871 439.619 61.7167 439.211 61.6317 438.781C61.5467 438.351 61.549 437.908 61.6382 437.479C61.7392 437.054 61.9292 436.655 62.1956 436.308C62.462 435.962 62.7988 435.676 63.1838 435.469L192.735 365.361C199.601 362.344 207.385 362.177 214.374 364.898C221.505 367.016 227.555 371.783 231.282 378.221C232.745 381.125 233.62 384.288 233.859 387.531C234.097 390.774 233.693 394.031 232.671 397.118C231.649 400.204 230.028 403.059 227.902 405.518C225.775 407.978 223.184 409.994 220.278 411.451L83.7093 474.233C83.308 474.44 82.8624 474.546 82.411 474.542ZM69.1807 439.457C72.2719 444.558 76.1359 452.378 79.3507 458.87C80.989 462.177 82.4419 465.33 83.6784 467.463L217.588 406.01C221.93 403.792 225.224 399.954 226.757 395.326C228.29 390.698 227.939 385.652 225.78 381.281C222.773 376.307 218.007 372.644 212.426 371.018C207.062 368.851 201.067 368.851 195.703 371.018L69.1807 439.457Z" fill="#093F68"/>
<path d="M121.854 453.337L82.4109 471.42C79.938 467.803 70.0462 445.578 64.7912 438.344L101.885 418.221L121.854 453.337Z" fill="#F56132"/>
<path d="M82.411 474.542C81.9099 474.538 81.4173 474.412 80.9758 474.175C80.5342 473.938 80.1568 473.597 79.8762 473.182C78.7943 471.636 76.9705 467.958 73.6939 461.621C70.2608 454.191 66.4007 446.966 62.1328 439.983C61.8871 439.62 61.7167 439.211 61.6317 438.781C61.5467 438.351 61.549 437.908 61.6382 437.479C61.7392 437.054 61.9292 436.655 62.1956 436.308C62.462 435.962 62.7988 435.676 63.1838 435.47L100.278 415.346C100.992 414.958 101.831 414.866 102.612 415.092C103.393 415.318 104.054 415.842 104.451 416.551L107.542 421.776L124.451 451.667C124.661 452.04 124.792 452.452 124.834 452.878C124.877 453.304 124.831 453.733 124.698 454.14C124.564 454.548 124.347 454.924 124.059 455.244C123.772 455.563 123.421 455.819 123.029 455.995L83.6165 474.078C83.2566 474.325 82.8436 474.484 82.411 474.542ZM69.1807 439.457C72.2719 444.558 76.1359 452.378 79.3507 458.87C80.989 462.177 82.4419 465.33 83.6784 467.463L117.496 452.007C112.797 443.661 107.357 434.078 102.225 425.021L100.773 422.456L69.1807 439.457Z" fill="#093F68"/>
<path d="M64.7912 438.345L40.7108 449.287L82.8437 517.541C82.9325 517.944 83.176 518.296 83.5216 518.522C83.8673 518.747 84.2876 518.828 84.6924 518.747C85.0971 518.666 85.454 518.43 85.6863 518.089C85.9186 517.747 86.0079 517.329 85.9349 516.923L86.1822 469.689L64.7912 438.345Z" fill="#68E1FD"/>
<path d="M84.173 521.497C83.3698 521.499 82.58 521.292 81.881 520.896C81.182 520.501 80.5977 519.93 80.1854 519.241L38.0834 450.988C37.8536 450.618 37.7045 450.203 37.6459 449.772C37.5873 449.34 37.6205 448.901 37.7434 448.484C37.8699 448.064 38.0842 447.676 38.372 447.346C38.6598 447.015 39.0145 446.75 39.4126 446.567L63.5239 435.532C64.1878 435.231 64.9366 435.175 65.6379 435.373C66.3392 435.571 66.9481 436.01 67.357 436.613L88.8098 467.834C89.1766 468.36 89.3711 468.987 89.3662 469.627L88.8716 516.953C88.8868 517.077 88.8868 517.201 88.8716 517.324C88.7548 518.291 88.3367 519.197 87.6764 519.912C87.0161 520.628 86.1473 521.118 85.1931 521.312L84.173 521.497ZM45.255 450.709L82.8438 511.606L83.0911 470.617L63.6476 442.239L45.255 450.709Z" fill="#093F68"/>
<path d="M504.543 136.861C501.637 134.914 497.371 143.476 497.371 143.476C496.464 141.755 495.342 140.155 494.033 138.716C492.518 137.356 486.645 143.755 484.45 146.691C482.256 149.628 477.866 164.497 477.866 164.497L418.423 216.367L367.913 184.744C363.244 181.817 357.603 180.865 352.232 182.097C346.861 183.329 342.2 186.644 339.273 191.313C336.346 195.982 335.394 201.622 336.626 206.993C337.858 212.364 341.173 217.026 345.842 219.952L410.386 260.385C414.55 263.072 419.543 264.17 424.45 263.476C428.889 262.819 432.997 260.749 436.166 257.572L498.917 182.796C498.917 182.796 517.062 168.546 518.732 158.561C520.401 148.577 507.449 138.84 504.543 136.861Z" fill="#FFC9B0"/>
<path d="M421.452 266.66C416.967 266.669 412.572 265.404 408.778 263.012L344.234 222.58C341.577 220.917 339.274 218.748 337.456 216.195C335.637 213.643 334.339 210.757 333.636 207.703C332.933 204.649 332.838 201.486 333.357 198.395C333.876 195.305 334.999 192.346 336.661 189.69C338.323 187.033 340.493 184.729 343.045 182.911C345.598 181.092 348.483 179.794 351.538 179.091C354.592 178.388 357.754 178.293 360.845 178.812C363.936 179.331 366.894 180.454 369.551 182.116L418.114 212.533L475.177 162.734C476.321 158.901 479.783 147.804 481.978 144.867C481.978 144.867 488.655 135.903 493.075 135.594C493.628 135.532 494.189 135.586 494.72 135.751C495.252 135.916 495.744 136.188 496.166 136.552C496.598 136.955 497.001 137.389 497.372 137.85C498.563 136.005 500.32 134.595 502.379 133.832C503.045 133.645 503.742 133.604 504.425 133.711C505.108 133.817 505.759 134.07 506.336 134.45C508.129 135.687 523.987 146.815 521.792 159.18C520.03 169.628 503.956 182.827 501.081 185.115L438.577 259.427C434.93 263.18 430.152 265.634 424.976 266.413C423.808 266.573 422.631 266.656 421.452 266.66ZM356.908 184.682C353.912 184.676 350.963 185.434 348.34 186.883C345.717 188.333 343.506 190.426 341.916 192.966C340.681 194.932 339.846 197.122 339.459 199.411C339.072 201.701 339.14 204.044 339.66 206.306C340.18 208.569 341.141 210.707 342.488 212.598C343.835 214.488 345.542 216.095 347.511 217.325L412.055 257.788C415.457 259.921 419.484 260.831 423.473 260.371C427.462 259.91 431.176 258.105 434.002 255.254L496.599 180.663C496.73 180.496 496.887 180.35 497.063 180.23C501.823 176.459 514.497 165.115 515.61 157.943C516.723 150.772 508.5 143.507 503.399 139.921C502.04 141.385 500.905 143.041 500.03 144.836C499.777 145.352 499.386 145.787 498.9 146.093C498.414 146.398 497.853 146.563 497.279 146.567C496.714 146.572 496.16 146.421 495.675 146.132C495.19 145.844 494.793 145.427 494.528 144.929C494.012 143.981 493.445 143.063 492.828 142.178C490.586 144.068 488.564 146.204 486.8 148.546C484.258 153.962 482.19 159.589 480.617 165.362C480.468 165.931 480.144 166.439 479.69 166.815L420.216 218.716C419.716 219.144 419.093 219.402 418.437 219.452C417.781 219.502 417.127 219.342 416.568 218.994L366.058 187.371C363.315 185.648 360.148 184.717 356.908 184.682Z" fill="#093F68"/>
<path d="M205.007 269.164L153.261 387.494L218.763 415.284L287.727 320.385L205.007 269.164Z" fill="#093F68"/>
<path d="M218.763 418.375C218.348 418.383 217.936 418.299 217.558 418.128L152.055 390.308C151.678 390.149 151.337 389.917 151.05 389.625C150.764 389.333 150.538 388.987 150.386 388.607C150.229 388.23 150.148 387.826 150.148 387.417C150.148 387.009 150.229 386.604 150.386 386.227L202.133 267.897C202.308 267.487 202.571 267.12 202.901 266.821C203.232 266.523 203.624 266.299 204.049 266.166C204.471 266.038 204.916 266.002 205.353 266.061C205.79 266.12 206.21 266.271 206.584 266.506L289.304 317.727C289.66 317.949 289.967 318.242 290.206 318.588C290.446 318.933 290.612 319.324 290.695 319.736C290.778 320.152 290.774 320.581 290.683 320.996C290.593 321.411 290.418 321.803 290.169 322.147L221.267 417.108C220.979 417.502 220.602 417.822 220.167 418.042C219.732 418.263 219.251 418.377 218.763 418.375ZM157.279 385.887L217.65 411.482L283.214 321.25L206.429 273.677L157.279 385.887Z" fill="#093F68"/>
<path d="M319.698 153.105L367.423 187.336C370.25 189.363 372.65 191.928 374.486 194.883C376.322 197.838 377.557 201.126 378.123 204.559C378.688 207.991 378.571 211.502 377.78 214.889C376.988 218.277 375.537 221.476 373.51 224.303L308.29 315.232L217.511 250.121L282.713 159.216C284.738 156.385 287.303 153.981 290.258 152.141C293.214 150.301 296.503 149.062 299.938 148.494C303.373 147.927 306.886 148.042 310.277 148.833C313.667 149.624 316.868 151.076 319.698 153.105Z" fill="#68E1FD"/>
<path d="M308.191 318.283C307.547 318.279 306.92 318.074 306.398 317.696L215.672 252.626C215.01 252.149 214.564 251.429 214.431 250.624C214.298 249.819 214.489 248.995 214.961 248.33L280.185 157.418C282.446 154.259 285.308 151.577 288.607 149.526C291.905 147.474 295.576 146.093 299.409 145.462C303.242 144.83 307.161 144.96 310.944 145.845C314.726 146.73 318.297 148.351 321.452 150.617L369.118 184.806C372.277 187.067 374.959 189.929 377.01 193.227C379.062 196.526 380.443 200.197 381.075 204.029C381.706 207.862 381.576 211.782 380.691 215.564C379.807 219.347 378.185 222.918 375.919 226.073L310.695 317.016C310.407 317.409 310.03 317.73 309.595 317.95C309.16 318.17 308.679 318.284 308.191 318.283ZM221.792 249.411L307.48 310.895L370.911 222.487C374.518 217.437 375.978 211.163 374.97 205.04C373.962 198.916 370.568 193.441 365.533 189.813L318.021 155.625C315.523 153.831 312.696 152.547 309.702 151.846C306.707 151.145 303.604 151.042 300.569 151.541C297.535 152.041 294.628 153.134 292.016 154.757C289.404 156.381 287.138 158.503 285.347 161.004L221.792 249.411Z" fill="#093F68"/>
<path d="M379.845 3.53868C387.368 4.17125 394.707 6.20515 401.483 9.53556C409.087 13.6468 416.537 18.4382 425.007 20.1383C433.477 21.8385 443.554 19.5819 448.036 12.2558C453.539 24.2187 451.529 38.2527 447.604 50.8029C446.551 54.4689 445.089 58.0049 443.245 61.3438C441.335 64.3462 439.184 67.1891 436.815 69.8446C433.384 73.8631 429.675 77.2634 428.222 82.2093C426.339 88.0925 423.949 93.8016 421.081 99.2726C414.899 111.637 408.191 123.569 401.761 135.718L290.479 103.631C292.272 92.7193 294.497 81.9929 297.001 71.0501C299.021 64.239 300.143 57.1935 300.34 50.0919C299.727 42.1819 301.666 34.2837 305.873 27.5572C310.51 20.7566 319.474 16.3362 327.233 19.1182C334.468 11.3797 343.989 6.1588 354.404 4.21872C362.811 2.80359 371.375 2.57469 379.845 3.53868Z" fill="#725858"/>
<path d="M401.978 138.963C401.69 139.004 401.399 139.004 401.112 138.963L289.829 106.877C289.104 106.667 288.48 106.2 288.076 105.562C287.671 104.924 287.514 104.16 287.635 103.415C289.366 92.9046 291.53 82.1782 294.188 70.6171L294.93 67.5259C296.534 61.9453 297.386 56.1758 297.465 50.3699C296.833 41.795 299.002 33.2469 303.647 26.0113C308.377 19.118 317.557 13.6466 326.645 15.8413C334.16 8.36102 343.761 3.32871 354.188 1.40551C362.791 -0.0936212 371.561 -0.395298 380.247 0.509061C388.225 1.16742 396.007 3.32795 403.183 6.87689L407.14 9.07163C412.863 12.7207 419.12 15.4533 425.687 17.1705C432.426 18.5307 441.514 17.1705 445.471 10.6791C445.767 10.201 446.189 9.81297 446.69 9.55694C447.191 9.30091 447.753 9.18655 448.314 9.2262C448.872 9.26715 449.407 9.45836 449.865 9.7795C450.322 10.1006 450.683 10.5397 450.911 11.05C455.888 21.8692 455.795 35.2231 450.633 51.7918C449.537 55.6441 448.023 59.3652 446.12 62.8892C444.139 66.049 441.885 69.0281 439.381 71.7918C438.763 72.5337 438.113 73.2446 437.495 73.9556C434.744 76.526 432.627 79.7007 431.313 83.2292C429.447 89.124 427.068 94.844 424.203 100.323L423.987 100.756C419.999 108.948 415.61 117.016 411.344 124.837C409.087 128.979 406.831 133.121 404.605 137.201C404.366 137.704 403.996 138.134 403.534 138.444C403.071 138.754 402.534 138.933 401.978 138.963ZM294.281 101.591L400.432 132.194C402.256 128.762 404.141 125.3 405.996 121.869C410.231 114.11 414.59 106.104 418.361 98.0668L418.577 97.6032C421.282 92.4491 423.537 87.071 425.316 81.529C426.844 77.1254 429.373 73.1363 432.704 69.8753L434.528 67.8351C436.818 65.3294 438.886 62.63 440.71 59.7671C442.453 56.6373 443.832 53.3185 444.821 49.8753C448.778 37.2323 449.52 26.8151 447.109 18.2216C443.943 20.6552 440.279 22.3603 436.379 23.2152C432.478 24.0702 428.437 24.0538 424.543 23.1674C417.296 21.3405 410.381 18.3886 404.049 14.4194L400.154 12.2556C393.702 9.08005 386.705 7.16033 379.536 6.5987C371.427 5.77189 363.244 6.04223 355.208 7.40241C345.444 9.22346 336.519 14.1193 329.737 21.3746C329.324 21.8175 328.791 22.1298 328.203 22.2727C327.615 22.4155 326.998 22.3827 326.429 22.1783C319.783 19.7981 312.302 24.1566 308.655 29.4426C304.82 35.635 303.076 42.895 303.678 50.1535C303.651 56.5507 302.757 62.9147 301.019 69.0715L300.309 72.1627C297.897 82.3327 295.919 92.0699 294.281 101.591Z" fill="#093F68"/>
<path d="M336.308 166.257L356.92 172.203L353.493 184.083C352.823 186.407 351.257 188.37 349.14 189.539C347.023 190.708 344.528 190.988 342.204 190.318L339.234 189.461C336.91 188.791 334.948 187.225 333.779 185.108C332.61 182.991 332.329 180.496 333 178.172L336.427 166.292L336.308 166.257Z" fill="#FFC9B0"/>
<path d="M344.76 193.77C343.608 193.77 342.463 193.604 341.36 193.275L338.268 192.379C336.726 191.938 335.285 191.196 334.03 190.197C332.775 189.198 331.729 187.96 330.954 186.555C330.178 185.151 329.688 183.607 329.511 182.012C329.334 180.417 329.473 178.803 329.922 177.263L333.322 165.423C333.433 165.031 333.62 164.664 333.873 164.344C334.125 164.024 334.439 163.758 334.795 163.559C335.151 163.361 335.543 163.235 335.948 163.189C336.354 163.143 336.764 163.178 337.156 163.291L357.774 169.257C358.559 169.477 359.226 169.999 359.628 170.709C360.029 171.425 360.129 172.27 359.907 173.059L356.475 184.929C356.04 186.47 355.302 187.909 354.304 189.161C353.306 190.414 352.069 191.455 350.664 192.224C348.856 193.224 346.826 193.756 344.76 193.77ZM338.423 170.091L335.857 178.994C335.431 180.539 335.622 182.189 336.389 183.596C337.156 185.003 338.439 186.057 339.968 186.536L343.06 187.433C343.818 187.663 344.615 187.736 345.402 187.645C346.189 187.555 346.949 187.304 347.635 186.907C349.018 186.126 350.048 184.842 350.509 183.321L353.075 174.419L338.423 170.091Z" fill="#093F68"/>
<path d="M430.267 137.667C433.016 128.137 428.33 118.416 419.8 115.956C411.271 113.495 402.127 119.227 399.378 128.757C396.629 138.288 401.316 148.008 409.845 150.468C418.375 152.929 427.518 147.197 430.267 137.667Z" fill="#FFC9B0"/>
<path d="M413.848 154.141C412.196 154.143 410.552 153.914 408.964 153.461C398.825 150.37 393.168 139.056 396.383 127.928C397.813 122.708 401.114 118.197 405.656 115.254C407.828 113.829 410.281 112.891 412.849 112.503C415.417 112.115 418.038 112.286 420.533 113.005C423.029 113.725 425.339 114.975 427.306 116.67C429.274 118.365 430.851 120.466 431.931 122.827C434.235 127.741 434.653 133.329 433.106 138.531C431.996 142.854 429.524 146.706 426.056 149.518C422.588 152.329 418.308 153.95 413.848 154.141ZM415.764 118.5C413.388 118.523 411.065 119.209 409.056 120.478C405.747 122.636 403.348 125.937 402.318 129.752C400.061 137.634 403.801 145.671 410.695 147.649C417.588 149.628 425.007 144.837 427.294 136.954C428.422 133.212 428.136 129.186 426.491 125.64C425.762 124.078 424.715 122.685 423.416 121.551C422.117 120.417 420.595 119.567 418.948 119.056C417.927 118.732 416.866 118.555 415.795 118.531L415.764 118.5Z" fill="#093F68"/>
<path d="M344.574 173.924C310.571 164.125 292.395 113.523 302.009 80.1687L312.951 87.9276L329.922 48.7004C329.922 48.7004 369.737 59.7978 387.665 65.0528C420.617 74.3263 436.012 69.4732 436.012 69.4732L418.608 129.813C408.964 163.167 378.485 183.692 344.574 173.924Z" fill="#FFC9B0"/>
<path d="M361.638 179.458C355.571 179.438 349.537 178.574 343.709 176.892C308.16 166.629 289.118 113.77 299.041 79.3033C299.176 78.8275 299.424 78.391 299.763 78.0306C300.102 77.6702 300.522 77.3964 300.989 77.2322C301.455 77.0694 301.955 77.0209 302.444 77.0908C302.933 77.1607 303.399 77.347 303.802 77.6341L311.622 83.1982L327.078 47.4641C327.373 46.7739 327.909 46.2146 328.586 45.8904C329.262 45.5661 330.034 45.4993 330.757 45.7022C330.757 45.7022 370.602 56.9541 388.531 62.0854C419.906 71.0499 434.899 66.5676 435.084 66.5058C435.617 66.3391 436.185 66.3197 436.727 66.4496C437.27 66.5796 437.768 66.854 438.167 67.2439C438.566 67.6337 438.853 68.1244 438.996 68.6639C439.139 69.2034 439.133 69.7715 438.979 70.308L421.576 130.679C412.828 160.942 389.118 179.458 361.638 179.458ZM345.44 171.081C376.352 180.014 406.027 162.363 415.641 129.071L431.653 73.4301C424.42 74.2956 409.675 74.5429 386.831 68.0205C371.653 63.6929 340.803 54.9757 331.684 52.5646L315.764 89.1642C315.579 89.5838 315.302 89.9568 314.955 90.2562C314.607 90.5556 314.198 90.7739 313.755 90.8953C313.316 91.0283 312.853 91.0556 312.401 90.975C311.95 90.8945 311.524 90.7082 311.159 90.4316L303.894 85.3002C295.765 122.394 319.35 163.445 345.44 170.957V171.081Z" fill="#093F68"/>
<path d="M354.481 103.111C355.371 100.028 353.592 96.8066 350.508 95.917C347.424 95.0275 344.203 96.8064 343.314 99.8902C342.424 102.974 344.203 106.195 347.287 107.085C350.371 107.974 353.592 106.195 354.481 103.111Z" fill="#093F68"/>
<path d="M402.781 122.858C405.991 122.858 408.593 120.256 408.593 117.047C408.593 113.837 405.991 111.235 402.781 111.235C399.572 111.235 396.97 113.837 396.97 117.047C396.97 120.256 399.572 122.858 402.781 122.858Z" fill="#093F68"/>
<path d="M379.041 127.588H378.887C375.222 127.219 371.658 126.17 368.376 124.497C367.982 124.338 367.625 124.099 367.327 123.796C367.03 123.492 366.798 123.131 366.646 122.734C366.494 122.337 366.426 121.913 366.445 121.488C366.465 121.064 366.572 120.648 366.759 120.266C366.947 119.885 367.211 119.546 367.535 119.271C367.859 118.997 368.237 118.792 368.644 118.669C369.051 118.547 369.479 118.51 369.901 118.561C370.323 118.611 370.73 118.748 371.097 118.963C373.242 119.981 375.506 120.728 377.836 121.189C378.01 116.839 377.615 112.485 376.661 108.237C376.506 107.438 376.672 106.61 377.123 105.933C377.575 105.256 378.275 104.784 379.072 104.62C379.47 104.539 379.88 104.537 380.278 104.614C380.677 104.691 381.057 104.846 381.395 105.07C381.734 105.294 382.025 105.583 382.253 105.919C382.48 106.256 382.638 106.634 382.72 107.031C383.832 112.626 385.316 122.487 382.441 125.919C382.034 126.431 381.517 126.847 380.929 127.136C380.341 127.425 379.696 127.579 379.041 127.588Z" fill="#093F68"/>
<path d="M366.151 95.1919C365.421 95.1961 364.697 95.0597 364.018 94.7901L337.928 85.2383C337.132 84.9857 336.395 84.5743 335.762 84.0289C335.129 83.4835 334.613 82.8154 334.245 82.0651C333.878 81.3147 333.666 80.4976 333.623 79.6632C333.58 78.8287 333.707 77.9942 333.995 77.2101C334.284 76.4259 334.729 75.7084 335.302 75.1009C335.876 74.4933 336.567 74.0084 337.333 73.6753C338.099 73.3422 338.925 73.1679 339.761 73.163C340.596 73.158 341.424 73.3224 342.194 73.6464L368.253 83.1981C369.619 83.694 370.767 84.6553 371.495 85.9132C372.223 87.1711 372.484 88.6453 372.233 90.0768C371.982 91.5083 371.235 92.8057 370.123 93.7411C369.011 94.6765 367.604 95.1902 366.151 95.1919Z" fill="#093F68"/>
<path d="M414.961 100.973H414.806L386.985 100.293C385.373 100.252 383.84 99.5833 382.713 98.4282C381.587 97.2731 380.957 95.7236 380.958 94.1103C380.958 92.4707 381.609 90.8982 382.768 89.7387C383.928 88.5793 385.5 87.928 387.14 87.928L414.961 88.608C416.6 88.608 418.173 89.2594 419.332 90.4188C420.492 91.5782 421.143 93.1507 421.143 94.7904C421.143 96.4301 420.492 98.0026 419.332 99.162C418.173 100.321 416.6 100.973 414.961 100.973Z" fill="#093F68"/>
<path d="M312.952 87.9278C312.952 87.9278 301.112 73.4611 289.397 84.3111C277.681 95.1612 278.825 119.798 305.131 120.323" fill="#FFC9B0"/>
<path d="M305.131 123.415C293.013 123.167 284.111 117.882 280.71 108.886C279.082 104.253 278.844 99.2446 280.025 94.4776C281.206 89.7105 283.754 85.3926 287.356 82.0547C288.985 80.4041 290.947 79.1201 293.111 78.2885C295.275 77.4569 297.592 77.0969 299.907 77.2325C308.655 77.8198 315.115 85.6405 315.363 85.9805C315.875 86.6134 316.117 87.423 316.036 88.2333C315.955 89.0437 315.558 89.7893 314.93 90.3082C314.616 90.5667 314.253 90.7606 313.864 90.8788C313.475 90.997 313.066 91.0372 312.661 90.997C312.256 90.9568 311.863 90.837 311.504 90.6445C311.146 90.4521 310.829 90.1907 310.571 89.8754C307.736 86.4763 303.798 84.1792 299.443 83.3839C297.979 83.3003 296.515 83.5331 295.149 84.0665C293.784 84.6 292.549 85.4215 291.53 86.4751C288.842 88.9826 286.933 92.2099 286.028 95.7724C285.124 99.3348 285.263 103.082 286.429 106.568C288.964 113.183 295.703 116.923 305.224 117.109C306.043 117.109 306.83 117.434 307.409 118.014C307.989 118.594 308.315 119.38 308.315 120.2C308.315 121.02 307.989 121.806 307.409 122.386C306.83 122.965 306.043 123.291 305.224 123.291L305.131 123.415Z" fill="#093F68"/>
<path d="M362.658 151.977C362.411 152.007 362.162 152.007 361.916 151.977C351.375 149.381 332.117 138.747 334.713 117.109C334.812 116.289 335.232 115.542 335.881 115.031C336.53 114.521 337.356 114.29 338.176 114.388C338.995 114.487 339.743 114.907 340.253 115.556C340.763 116.205 340.994 117.031 340.896 117.851C338.299 139.489 362.534 145.671 363.431 145.98C364.25 146.079 364.997 146.499 365.508 147.148C366.018 147.797 366.249 148.623 366.151 149.442C366.052 150.262 365.632 151.009 364.983 151.52C364.334 152.03 363.508 152.261 362.689 152.163L362.658 151.977Z" fill="#093F68"/>
<path d="M217.465 250.122C217.465 250.122 184.76 290.988 191.283 317.294C197.805 343.6 320.834 396.119 320.834 396.119L371.684 353.275L217.465 250.122Z" fill="#093F68"/>
<path d="M320.834 399.21C320.42 399.209 320.01 399.125 319.629 398.963C306.893 393.646 194.992 345.053 188.191 318.036C181.391 291.019 213.601 250.03 214.961 248.206C215.444 247.597 216.138 247.192 216.905 247.072C217.673 246.951 218.458 247.124 219.103 247.557L373.292 350.679C373.696 350.944 374.032 351.3 374.274 351.719C374.515 352.137 374.655 352.607 374.683 353.09C374.707 353.57 374.619 354.049 374.426 354.489C374.233 354.929 373.939 355.317 373.57 355.624L322.72 398.468C322.192 398.92 321.528 399.182 320.834 399.21ZM218.176 254.326C211.653 263.074 189.026 295.408 194.281 316.552C199.258 336.552 285.255 377.417 320.309 392.533L366.676 353.553L218.176 254.326Z" fill="#093F68"/>
<path d="M365.718 383.259L274.744 439.364L237.836 462.146C234.93 458.87 222.38 438.035 216.197 431.482L250.633 406.938L336.135 345.98C346.058 339.334 364.853 343.352 371.529 353.275C374.724 358.025 375.906 363.848 374.817 369.468C373.728 375.087 370.456 380.047 365.718 383.259Z" fill="#FFC9B0"/>
<path d="M237.898 465.238C237.466 465.237 237.04 465.145 236.646 464.97C236.252 464.794 235.899 464.538 235.61 464.218C232.944 460.762 230.457 457.172 228.16 453.46C223.844 446.562 219.138 439.916 214.065 433.553C213.769 433.23 213.546 432.847 213.41 432.431C213.273 432.015 213.227 431.574 213.274 431.139C213.321 430.703 213.459 430.283 213.681 429.905C213.903 429.527 214.202 429.201 214.559 428.947L334.497 343.476C345.811 335.872 366.584 340.137 374.25 351.544C377.892 356.989 379.226 363.658 377.956 370.085C376.687 376.512 372.919 382.173 367.48 385.825L239.536 464.743C239.047 465.059 238.479 465.23 237.898 465.238ZM220.865 432.069C224.513 436.737 229.335 444.001 233.23 450.06C235.27 453.151 237.218 456.088 238.578 458.035L363.956 380.756C368.028 378.016 370.847 373.774 371.798 368.959C372.748 364.144 371.751 359.149 369.026 355.068C363.245 346.474 346.367 342.981 337.928 348.669L220.865 432.069Z" fill="#093F68"/>
<path d="M274.744 439.364L237.836 462.146C234.93 458.87 222.38 438.035 216.197 431.482L250.633 406.938C258.67 417.571 267.635 429.627 274.744 439.364Z" fill="#F56132"/>
<path d="M237.898 465.238C237.466 465.237 237.04 465.145 236.646 464.97C236.252 464.794 235.899 464.538 235.61 464.218C232.944 460.762 230.457 457.172 228.16 453.46C223.844 446.562 219.138 439.916 214.065 433.553C213.769 433.23 213.546 432.847 213.41 432.431C213.273 432.015 213.227 431.574 213.274 431.139C213.321 430.703 213.459 430.283 213.681 429.905C213.903 429.527 214.202 429.201 214.559 428.947L248.995 404.434C249.654 403.968 250.469 403.778 251.266 403.905C252.063 404.032 252.779 404.466 253.261 405.114L256.352 409.442C263.4 418.901 270.942 429.102 277.187 437.51C277.436 437.86 277.614 438.256 277.71 438.675C277.805 439.094 277.817 439.528 277.743 439.952C277.66 440.372 277.491 440.77 277.246 441.121C277.001 441.472 276.686 441.769 276.321 441.992L239.536 464.743C239.047 465.059 238.479 465.23 237.898 465.238ZM220.865 432.069C224.513 436.737 229.335 444.001 233.23 450.06C235.27 453.151 237.218 456.088 238.578 458.035L270.231 438.499C264.451 430.647 257.867 421.59 251.437 413.12L250.015 411.235L220.865 432.069Z" fill="#093F68"/>
<path d="M436.199 64.9417L306.594 31.0131C302.878 30.0403 299.077 32.2641 298.105 35.9801L295.748 44.9813C294.775 48.6973 296.999 52.4983 300.715 53.4711L430.32 87.3997C434.036 88.3725 437.837 86.1487 438.81 82.4327L441.166 73.4315C442.139 69.7155 439.915 65.9145 436.199 64.9417Z" fill="#68E1FD"/>
<path d="M432.117 90.7095C431.252 90.7134 430.39 90.6096 429.551 90.4004L299.938 56.3974C298.651 56.0637 297.443 55.4777 296.384 54.6736C295.325 53.8696 294.436 52.8633 293.769 51.7131C293.102 50.563 292.67 49.2918 292.497 47.9734C292.325 46.655 292.417 45.3155 292.766 44.0327L295.146 35.0682C295.48 33.7812 296.066 32.5732 296.87 31.5143C297.674 30.4554 298.68 29.5666 299.831 28.8995C300.981 28.2324 302.252 27.8003 303.57 27.6281C304.889 27.456 306.228 27.5473 307.511 27.8967L437.124 61.8997C438.414 62.2297 439.624 62.8133 440.685 63.6165C441.746 64.4196 442.637 65.4262 443.304 66.5774C443.972 67.7286 444.404 69.0013 444.574 70.3211C444.744 71.641 444.65 72.9815 444.296 74.2644L441.947 83.2907C441.364 85.4428 440.081 87.3398 438.302 88.683C436.522 90.0261 434.346 90.7391 432.117 90.7095ZM304.853 33.8627C304.167 33.8496 303.491 34.0318 302.905 34.3881C302.024 34.9078 301.381 35.7507 301.112 36.7375L298.763 45.7328C298.508 46.7245 298.653 47.7768 299.168 48.662C299.683 49.5472 300.526 50.1939 301.514 50.4623L431.127 84.4654C431.642 84.6226 432.183 84.6681 432.717 84.5987C433.25 84.5294 433.762 84.3469 434.219 84.0635C435.092 83.5428 435.725 82.6986 435.981 81.7142L438.361 72.7188C438.616 71.7271 438.47 70.6748 437.956 69.7897C437.441 68.9045 436.598 68.2577 435.61 67.9893L305.996 33.9863C305.624 33.8868 305.238 33.8451 304.853 33.8627Z" fill="#093F68"/>
<path d="M216.352 431.482L193.786 445.392L243.987 508.02C244.186 508.288 244.464 508.486 244.782 508.586C245.1 508.686 245.442 508.683 245.758 508.576C246.074 508.47 246.348 508.266 246.541 507.994C246.734 507.721 246.836 507.395 246.831 507.062L241.514 460.014L216.352 431.482Z" fill="#68E1FD"/>
<path d="M245.224 511.667C244.514 511.67 243.814 511.509 243.176 511.199C242.538 510.888 241.98 510.435 241.545 509.874L191.282 447.309C191.007 446.966 190.809 446.568 190.699 446.142C190.59 445.717 190.573 445.272 190.649 444.839C190.725 444.406 190.893 443.995 191.14 443.632C191.388 443.268 191.711 442.962 192.086 442.734L214.652 428.854C215.271 428.476 216.004 428.327 216.721 428.435C217.439 428.542 218.096 428.899 218.578 429.442L243.74 457.912C244.17 458.379 244.431 458.978 244.482 459.612L250.015 506.629V507C250.025 507.967 249.733 508.913 249.178 509.706C248.624 510.498 247.836 511.098 246.924 511.42C246.373 511.59 245.8 511.673 245.224 511.667ZM198.392 446.196L243.153 502.023L238.547 461.281L215.765 435.5L198.392 446.196Z" fill="#093F68"/>
<path d="M316.754 156.552C290.386 133.616 259.783 106.166 237.65 103.075C217.959 100.416 166.769 117.541 138.732 129.381C138.732 129.381 107.202 134.945 102.905 141.034C98.6087 147.124 108.13 170.864 112.395 173.77C116.661 176.676 131.808 168.546 131.808 168.546C131.808 168.546 136.568 174.728 139.876 173.245C143.184 171.761 147.357 156.645 147.357 156.645C179.443 148.33 222.627 145.949 231.684 145.888C242.472 149.504 261.298 165.455 288.655 189.164C293.03 192.448 298.487 193.953 303.928 193.376C309.368 192.798 314.388 190.182 317.977 186.052C321.565 181.923 323.457 176.587 323.27 171.12C323.083 165.652 320.832 160.458 316.97 156.583L316.754 156.552Z" fill="#FFC9B0"/>
<path d="M302.565 197.51C296.597 197.472 290.844 195.276 286.367 191.328C259.629 168.082 241.236 152.472 230.912 148.731C222.473 148.886 181.453 151.019 149.613 158.963C147.511 166.073 144.482 174.141 140.958 175.81C137.434 177.479 133.106 174.543 130.819 172.162C125.008 175.068 114.992 179.241 110.386 176.088C105.78 172.935 100.618 159.798 99.0106 150.833C98.0214 145.362 98.3924 141.56 100.123 139.025C104.729 132.503 129.521 127.588 137.589 126.166C165.564 114.419 217.218 96.9848 237.867 99.7669C259.876 102.858 288.871 128.02 314.466 150.339L318.763 154.079C322.301 157.186 324.879 161.238 326.194 165.759C327.508 170.28 327.504 175.083 326.183 179.602C324.862 184.122 322.277 188.17 318.734 191.271C315.191 194.372 310.836 196.397 306.182 197.108C304.988 197.335 303.779 197.469 302.565 197.51ZM231.468 142.703C231.793 142.707 232.116 142.759 232.426 142.858C243.771 146.66 261.916 161.992 290.479 186.815C292.254 188.699 294.403 190.191 296.79 191.194C299.176 192.197 301.746 192.69 304.334 192.64C306.922 192.591 309.471 192 311.817 190.906C314.163 189.812 316.254 188.239 317.956 186.288C319.657 184.337 320.932 182.052 321.697 179.579C322.462 177.106 322.701 174.5 322.399 171.929C322.096 169.358 321.259 166.879 319.941 164.652C318.622 162.424 316.852 160.497 314.744 158.994L310.448 155.254C285.502 133.615 257.248 108.886 237.063 106.135C218.516 103.631 169.057 119.891 139.691 132.224C139.481 132.315 139.264 132.387 139.042 132.441C124.482 135.006 107.419 139.705 105.224 142.827C102.349 146.907 110.448 168.7 113.91 171.235C115.579 172.039 123.338 169.473 130.139 165.826C130.789 165.478 131.542 165.374 132.262 165.533C132.982 165.692 133.621 166.102 134.065 166.691C135.169 168.263 136.645 169.537 138.361 170.4C140.998 165.846 142.956 160.93 144.173 155.81C144.317 155.289 144.596 154.815 144.981 154.435C145.366 154.055 145.844 153.783 146.368 153.646C179.691 145.022 224.08 142.858 231.437 142.796L231.468 142.703Z" fill="#093F68"/>
<path d="M502.163 166.042H501.916C497.279 165.887 493.168 161.993 489.706 154.512C489.534 154.143 489.437 153.743 489.421 153.336C489.404 152.93 489.468 152.524 489.609 152.142C489.749 151.76 489.964 151.409 490.241 151.11C490.517 150.812 490.85 150.57 491.22 150.401C491.963 150.064 492.808 150.034 493.572 150.318C494.336 150.602 494.958 151.176 495.301 151.915C497.99 157.696 500.586 159.798 502.101 159.86C502.472 159.815 502.83 159.696 503.154 159.511C503.478 159.325 503.761 159.075 503.987 158.778C501.787 153.88 498.765 149.395 495.053 145.517C494.764 145.216 494.539 144.859 494.391 144.469C494.244 144.079 494.177 143.663 494.194 143.246C494.212 142.829 494.313 142.42 494.493 142.043C494.673 141.667 494.927 141.33 495.241 141.055C495.554 140.779 495.92 140.57 496.316 140.439C496.712 140.309 497.131 140.26 497.547 140.295C497.962 140.331 498.367 140.45 498.735 140.647C499.103 140.843 499.428 141.111 499.69 141.436C508.191 151.173 511.529 157.881 509.613 161.405C508.9 162.774 507.832 163.926 506.522 164.742C505.211 165.558 503.706 166.007 502.163 166.042Z" fill="#093F68"/>
<path d="M247.264 362.734C246.644 362.726 246.041 362.532 245.533 362.177C244.327 361.374 215.827 341.868 204.142 325.732C191.994 309.009 194.25 294.511 194.374 293.893C194.439 293.487 194.583 293.098 194.798 292.748C195.014 292.398 195.296 292.093 195.629 291.852C195.962 291.611 196.339 291.438 196.739 291.343C197.139 291.247 197.554 291.232 197.96 291.297C198.365 291.361 198.755 291.506 199.105 291.721C199.455 291.936 199.759 292.219 200 292.552C200.242 292.885 200.415 293.262 200.51 293.662C200.605 294.062 200.621 294.476 200.556 294.882C200.556 295.099 198.732 307.649 209.242 322.116C220.309 337.355 248.84 356.891 249.119 357.077C249.671 357.448 250.089 357.988 250.31 358.616C250.532 359.244 250.544 359.926 250.346 360.562C250.148 361.198 249.75 361.752 249.212 362.144C248.673 362.535 248.022 362.742 247.357 362.734H247.264Z" fill="white"/>
<path d="M152.488 213.832H20.2164C19.3966 213.832 18.6103 213.506 18.0306 212.926C17.4509 212.347 17.1252 211.56 17.1252 210.74C17.1252 209.921 17.4509 209.134 18.0306 208.555C18.6103 207.975 19.3966 207.649 20.2164 207.649H152.488C153.308 207.649 154.094 207.975 154.674 208.555C155.254 209.134 155.579 209.921 155.579 210.74C155.579 211.56 155.254 212.347 154.674 212.926C154.094 213.506 153.308 213.832 152.488 213.832Z" fill="#DFEAEF"/>
<path d="M155.981 279.581H74.7448C73.925 279.581 73.1387 279.255 72.559 278.676C71.9793 278.096 71.6536 277.31 71.6536 276.49C71.6536 275.67 71.9793 274.884 72.559 274.304C73.1387 273.724 73.925 273.399 74.7448 273.399H155.981C156.801 273.399 157.587 273.724 158.167 274.304C158.747 274.884 159.072 275.67 159.072 276.49C159.072 277.31 158.747 278.096 158.167 278.676C157.587 279.255 156.801 279.581 155.981 279.581Z" fill="#DFEAEF"/>
<path d="M74.7448 345.331H3.09118C2.27135 345.331 1.48509 345.005 0.905385 344.426C0.325675 343.846 0 343.06 0 342.24C0 341.42 0.325675 340.634 0.905385 340.054C1.48509 339.474 2.27135 339.149 3.09118 339.149H74.7448C75.5647 339.149 76.3509 339.474 76.9306 340.054C77.5104 340.634 77.836 341.42 77.836 342.24C77.836 343.06 77.5104 343.846 76.9306 344.426C76.3509 345.005 75.5647 345.331 74.7448 345.331Z" fill="#DFEAEF"/>
<path d="M208.16 82.3325H87.6042C86.7843 82.3325 85.9981 82.0068 85.4184 81.4271C84.8387 80.8474 84.513 80.0612 84.513 79.2413C84.513 78.4215 84.8387 77.6352 85.4184 77.0555C85.9981 76.4758 86.7843 76.1501 87.6042 76.1501H208.16C208.98 76.1501 209.766 76.4758 210.346 77.0555C210.926 77.6352 211.252 78.4215 211.252 79.2413C211.252 80.0612 210.926 80.8474 210.346 81.4271C209.766 82.0068 208.98 82.3325 208.16 82.3325Z" fill="#DFEAEF"/>
</svg>
