<svg width="1080" height="1080" viewBox="0 0 1080 1080" fill="none" xmlns="http://www.w3.org/2000/svg">
<rect width="1080" height="1080" fill="#1E1E1E"/>
<g clip-path="url(#clip0_0_1)">
<rect width="1080" height="1080" fill="#1F3B77"/>
<g opacity="0.2" clip-path="url(#clip1_0_1)">
<path d="M1339.21 610.775C1340.33 611.486 1341.21 612.054 1341.85 612.47L1226.54 784.598L929.254 732.506L928.972 732.456L928.691 732.514C844.79 749.855 754.389 732.514 683.365 692.029L683.136 691.898L682.876 691.854L516.537 663.205L612.535 514.17L625.446 496.825C644.634 473.934 676.719 456.639 715.467 445.071L734.848 439.284C867.288 413.273 1019.27 456.668 1138.32 506.718C1197.82 531.734 1249.03 558.383 1285.36 578.778C1303.53 588.976 1317.97 597.608 1327.87 603.69C1332.82 606.73 1336.64 609.133 1339.21 610.775Z" fill="#76B3E1" stroke="white" stroke-width="3"/>
<path opacity="0.3" d="M1339.21 610.775C1340.33 611.486 1341.21 612.054 1341.85 612.47L1226.54 784.598L929.254 732.506L928.972 732.456L928.691 732.514C844.79 749.855 754.389 732.514 683.365 692.029L683.136 691.898L682.876 691.854L516.537 663.205L612.535 514.17L625.446 496.825C644.634 473.934 676.719 456.639 715.467 445.071L734.848 439.284C867.288 413.273 1019.27 456.668 1138.32 506.718C1197.82 531.734 1249.03 558.383 1285.36 578.778C1303.53 588.976 1317.97 597.608 1327.87 603.69C1332.82 606.73 1336.64 609.133 1339.21 610.775Z" fill="url(#paint0_linear_0_1)" stroke="white" stroke-width="3"/>
<path d="M1222.51 784.985C1222.95 785.263 1223.35 785.52 1223.71 785.754L824.85 906.754C770.047 921.184 708.741 918.304 653.045 902.399C597.356 886.496 547.41 857.611 515.229 820.164C486.323 779.863 480.01 736.864 494.372 700.42C508.742 663.956 543.936 633.735 598.69 619.305L624.58 613.508C753.783 587.476 904.161 630.869 1022.42 680.928C1081.52 705.944 1132.53 732.593 1168.76 752.988C1186.87 763.185 1201.29 771.818 1211.18 777.9C1216.13 780.94 1219.94 783.343 1222.51 784.985Z" fill="#518AC8" stroke="white" stroke-width="3"/>
<path opacity="0.3" d="M1222.51 784.985C1222.95 785.263 1223.35 785.52 1223.71 785.754L824.85 906.754C770.047 921.184 708.741 918.304 653.045 902.399C597.356 886.496 547.41 857.611 515.229 820.164C486.323 779.863 480.01 736.864 494.372 700.42C508.742 663.956 543.936 633.735 598.69 619.305L624.58 613.508C753.783 587.476 904.161 630.869 1022.42 680.928C1081.52 705.944 1132.53 732.593 1168.76 752.988C1186.87 763.185 1201.29 771.818 1211.18 777.9C1216.13 780.94 1219.94 783.343 1222.51 784.985Z" fill="url(#paint1_linear_0_1)" stroke="white" stroke-width="3"/>
<path d="M845.11 787.696C958.433 757.41 1080.88 791.705 1154.74 874.289C1186.89 920.407 1193.11 966.159 1167.62 1006.11L1167.62 1006.12L1167.61 1006.13L1038.46 1214.34L315.562 1104.5L443.688 903.674L845.096 787.7C845.1 787.699 845.105 787.698 845.11 787.696Z" fill="url(#paint2_linear_0_1)" stroke="white" stroke-width="3"/>
<path d="M316.587 1106.18L715.426 990.945C715.431 990.944 715.435 990.942 715.44 990.941C828.733 960.662 951.159 994.934 1025.02 1077.48L1025.11 1077.58C1057.21 1114.95 1063.52 1156.46 1048.37 1192.16C1033.2 1227.91 996.371 1258.16 941.58 1272.59L941.556 1272.59L941.533 1272.6L922.137 1278.39C789.712 1307.3 637.741 1263.91 518.688 1213.14C459.188 1187.76 407.981 1160.57 371.65 1139.72C353.485 1129.3 339.041 1120.46 329.141 1114.23C324.191 1111.12 320.377 1108.66 317.802 1106.97C317.36 1106.68 316.955 1106.42 316.587 1106.18Z" fill="url(#paint3_linear_0_1)" stroke="white" stroke-width="3"/>
</g>
<path d="M75.45 374.6C72.6167 374.6 70.2 374.067 68.2 373C66.2 371.9 64.5 370.4 63.1 368.5L66.2 365.9C67.4333 367.533 68.8 368.783 70.3 369.65C71.8 370.483 73.5667 370.9 75.6 370.9C78.1 370.9 80 370.3 81.3 369.1C82.6333 367.9 83.3 366.3 83.3 364.3C83.3 362.633 82.8 361.35 81.8 360.45C80.8 359.55 79.15 358.833 76.85 358.3L74 357.65C70.8 356.917 68.35 355.817 66.65 354.35C64.9833 352.85 64.15 350.75 64.15 348.05C64.15 346.517 64.4333 345.15 65 343.95C65.5667 342.75 66.35 341.75 67.35 340.95C68.3833 340.15 69.6 339.55 71 339.15C72.4333 338.717 74 338.5 75.7 338.5C78.3333 338.5 80.5833 338.983 82.45 339.95C84.35 340.917 85.95 342.333 87.25 344.2L84.1 346.5C83.1333 345.167 81.9667 344.117 80.6 343.35C79.2333 342.583 77.5333 342.2 75.5 342.2C73.2667 342.2 71.5 342.683 70.2 343.65C68.9333 344.583 68.3 346 68.3 347.9C68.3 349.567 68.8333 350.833 69.9 351.7C71 352.533 72.65 353.2 74.85 353.7L77.7 354.35C81.1333 355.117 83.6167 356.283 85.15 357.85C86.6833 359.417 87.45 361.5 87.45 364.1C87.45 365.7 87.1667 367.15 86.6 368.45C86.0667 369.75 85.2833 370.85 84.25 371.75C83.2167 372.65 81.95 373.35 80.45 373.85C78.9833 374.35 77.3167 374.6 75.45 374.6ZM104.053 374.6C102.319 374.6 100.736 374.283 99.3027 373.65C97.8694 373.017 96.6361 372.117 95.6027 370.95C94.6027 369.75 93.8194 368.333 93.2527 366.7C92.6861 365.033 92.4027 363.167 92.4027 361.1C92.4027 359.067 92.6861 357.217 93.2527 355.55C93.8194 353.883 94.6027 352.467 95.6027 351.3C96.6361 350.1 97.8694 349.183 99.3027 348.55C100.736 347.917 102.319 347.6 104.053 347.6C105.786 347.6 107.353 347.917 108.753 348.55C110.186 349.183 111.419 350.1 112.453 351.3C113.486 352.467 114.286 353.883 114.853 355.55C115.419 357.217 115.703 359.067 115.703 361.1C115.703 363.167 115.419 365.033 114.853 366.7C114.286 368.333 113.486 369.75 112.453 370.95C111.419 372.117 110.186 373.017 108.753 373.65C107.353 374.283 105.786 374.6 104.053 374.6ZM104.053 371.05C106.219 371.05 107.986 370.383 109.353 369.05C110.719 367.717 111.403 365.683 111.403 362.95V359.25C111.403 356.517 110.719 354.483 109.353 353.15C107.986 351.817 106.219 351.15 104.053 351.15C101.886 351.15 100.119 351.817 98.7527 353.15C97.3861 354.483 96.7027 356.517 96.7027 359.25V362.95C96.7027 365.683 97.3861 367.717 98.7527 369.05C100.119 370.383 101.886 371.05 104.053 371.05ZM126.531 374C125.131 374 124.065 373.617 123.331 372.85C122.631 372.05 122.281 371.05 122.281 369.85V337H126.281V370.5H130.081V374H126.531ZM137.904 342.15C137.038 342.15 136.404 341.95 136.004 341.55C135.638 341.117 135.454 340.567 135.454 339.9V339.25C135.454 338.583 135.638 338.05 136.004 337.65C136.404 337.217 137.038 337 137.904 337C138.771 337 139.388 337.217 139.754 337.65C140.154 338.05 140.354 338.583 140.354 339.25V339.9C140.354 340.567 140.154 341.117 139.754 341.55C139.388 341.95 138.771 342.15 137.904 342.15ZM135.904 348.2H139.904V374H135.904V348.2ZM164.904 369.8H164.704C163.138 373 160.621 374.6 157.154 374.6C155.554 374.6 154.104 374.283 152.804 373.65C151.504 373.017 150.388 372.117 149.454 370.95C148.554 369.783 147.854 368.367 147.354 366.7C146.888 365.033 146.654 363.167 146.654 361.1C146.654 359.033 146.888 357.167 147.354 355.5C147.854 353.833 148.554 352.417 149.454 351.25C150.388 350.083 151.504 349.183 152.804 348.55C154.104 347.917 155.554 347.6 157.154 347.6C158.954 347.6 160.488 348 161.754 348.8C163.054 349.567 164.038 350.767 164.704 352.4H164.904V337H168.904V374H164.904V369.8ZM158.254 371C159.154 371 160.004 370.883 160.804 370.65C161.638 370.417 162.354 370.083 162.954 369.65C163.554 369.183 164.021 368.633 164.354 368C164.721 367.333 164.904 366.583 164.904 365.75V356.15C164.904 355.45 164.721 354.8 164.354 354.2C164.021 353.567 163.554 353.033 162.954 352.6C162.354 352.167 161.638 351.833 160.804 351.6C160.004 351.333 159.154 351.2 158.254 351.2C155.988 351.2 154.204 351.917 152.904 353.35C151.604 354.75 150.954 356.6 150.954 358.9V363.3C150.954 365.6 151.604 367.467 152.904 368.9C154.204 370.3 155.988 371 158.254 371ZM194.258 339.1V364.95C194.258 366.417 194.008 367.75 193.508 368.95C193.042 370.15 192.358 371.167 191.458 372C190.592 372.833 189.542 373.483 188.308 373.95C187.075 374.383 185.725 374.6 184.258 374.6C181.558 374.6 179.375 373.883 177.708 372.45C176.075 370.983 175.025 369.05 174.558 366.65L178.358 365.75C178.692 367.25 179.325 368.483 180.258 369.45C181.192 370.383 182.558 370.85 184.358 370.85C186.158 370.85 187.558 370.3 188.558 369.2C189.558 368.1 190.058 366.433 190.058 364.2V342.8H178.058V339.1H194.258ZM213.096 374.6C210.263 374.6 207.846 374.067 205.846 373C203.846 371.9 202.146 370.4 200.746 368.5L203.846 365.9C205.08 367.533 206.446 368.783 207.946 369.65C209.446 370.483 211.213 370.9 213.246 370.9C215.746 370.9 217.646 370.3 218.946 369.1C220.28 367.9 220.946 366.3 220.946 364.3C220.946 362.633 220.446 361.35 219.446 360.45C218.446 359.55 216.796 358.833 214.496 358.3L211.646 357.65C208.446 356.917 205.996 355.817 204.296 354.35C202.63 352.85 201.796 350.75 201.796 348.05C201.796 346.517 202.08 345.15 202.646 343.95C203.213 342.75 203.996 341.75 204.996 340.95C206.03 340.15 207.246 339.55 208.646 339.15C210.08 338.717 211.646 338.5 213.346 338.5C215.98 338.5 218.23 338.983 220.096 339.95C221.996 340.917 223.596 342.333 224.896 344.2L221.746 346.5C220.78 345.167 219.613 344.117 218.246 343.35C216.88 342.583 215.18 342.2 213.146 342.2C210.913 342.2 209.146 342.683 207.846 343.65C206.58 344.583 205.946 346 205.946 347.9C205.946 349.567 206.48 350.833 207.546 351.7C208.646 352.533 210.296 353.2 212.496 353.7L215.346 354.35C218.78 355.117 221.263 356.283 222.796 357.85C224.33 359.417 225.096 361.5 225.096 364.1C225.096 365.7 224.813 367.15 224.246 368.45C223.713 369.75 222.93 370.85 221.896 371.75C220.863 372.65 219.596 373.35 218.096 373.85C216.63 374.35 214.963 374.6 213.096 374.6ZM256.466 374.6C252.032 374.6 248.582 373.1 246.116 370.1C243.649 367.067 242.416 362.617 242.416 356.75C242.416 350.883 243.649 346.383 246.116 343.25C248.582 340.083 252.032 338.5 256.466 338.5C259.399 338.5 261.849 339.167 263.816 340.5C265.816 341.833 267.366 343.717 268.466 346.15L265.066 348.2C264.366 346.4 263.299 344.967 261.866 343.9C260.432 342.8 258.632 342.25 256.466 342.25C254.966 342.25 253.616 342.533 252.416 343.1C251.249 343.667 250.249 344.483 249.416 345.55C248.616 346.583 247.999 347.833 247.566 349.3C247.132 350.733 246.916 352.35 246.916 354.15V359.35C246.916 362.95 247.749 365.767 249.416 367.8C251.082 369.833 253.432 370.85 256.466 370.85C258.699 370.85 260.566 370.283 262.066 369.15C263.566 367.983 264.666 366.45 265.366 364.55L268.716 366.65C267.616 369.117 266.032 371.067 263.966 372.5C261.899 373.9 259.399 374.6 256.466 374.6ZM284.57 374.6C282.837 374.6 281.254 374.283 279.82 373.65C278.387 373.017 277.154 372.117 276.12 370.95C275.12 369.75 274.337 368.333 273.77 366.7C273.204 365.033 272.92 363.167 272.92 361.1C272.92 359.067 273.204 357.217 273.77 355.55C274.337 353.883 275.12 352.467 276.12 351.3C277.154 350.1 278.387 349.183 279.82 348.55C281.254 347.917 282.837 347.6 284.57 347.6C286.304 347.6 287.87 347.917 289.27 348.55C290.704 349.183 291.937 350.1 292.97 351.3C294.004 352.467 294.804 353.883 295.37 355.55C295.937 357.217 296.22 359.067 296.22 361.1C296.22 363.167 295.937 365.033 295.37 366.7C294.804 368.333 294.004 369.75 292.97 370.95C291.937 372.117 290.704 373.017 289.27 373.65C287.87 374.283 286.304 374.6 284.57 374.6ZM284.57 371.05C286.737 371.05 288.504 370.383 289.87 369.05C291.237 367.717 291.92 365.683 291.92 362.95V359.25C291.92 356.517 291.237 354.483 289.87 353.15C288.504 351.817 286.737 351.15 284.57 351.15C282.404 351.15 280.637 351.817 279.27 353.15C277.904 354.483 277.22 356.517 277.22 359.25V362.95C277.22 365.683 277.904 367.717 279.27 369.05C280.637 370.383 282.404 371.05 284.57 371.05ZM302.799 374V348.2H306.799V352.4H306.999C307.299 351.733 307.632 351.117 307.999 350.55C308.399 349.95 308.865 349.433 309.399 349C309.965 348.567 310.615 348.233 311.349 348C312.082 347.733 312.949 347.6 313.949 347.6C315.649 347.6 317.215 348.017 318.649 348.85C320.082 349.65 321.149 350.983 321.849 352.85H321.949C322.415 351.45 323.282 350.233 324.549 349.2C325.849 348.133 327.599 347.6 329.799 347.6C332.432 347.6 334.482 348.467 335.949 350.2C337.449 351.9 338.199 354.317 338.199 357.45V374H334.199V358.15C334.199 355.85 333.749 354.117 332.849 352.95C331.949 351.783 330.515 351.2 328.549 351.2C327.749 351.2 326.982 351.3 326.249 351.5C325.549 351.7 324.915 352 324.349 352.4C323.782 352.8 323.332 353.317 322.999 353.95C322.665 354.55 322.499 355.267 322.499 356.1V374H318.499V358.15C318.499 355.85 318.049 354.117 317.149 352.95C316.249 351.783 314.849 351.2 312.949 351.2C312.149 351.2 311.382 351.3 310.649 351.5C309.915 351.7 309.265 352 308.699 352.4C308.132 352.8 307.665 353.317 307.299 353.95C306.965 354.55 306.799 355.267 306.799 356.1V374H302.799ZM346.451 348.2H350.451V352.4H350.651C351.318 350.767 352.285 349.567 353.551 348.8C354.851 348 356.401 347.6 358.201 347.6C359.801 347.6 361.251 347.917 362.551 348.55C363.851 349.183 364.951 350.083 365.851 351.25C366.785 352.417 367.485 353.833 367.951 355.5C368.451 357.167 368.701 359.033 368.701 361.1C368.701 363.167 368.451 365.033 367.951 366.7C367.485 368.367 366.785 369.783 365.851 370.95C364.951 372.117 363.851 373.017 362.551 373.65C361.251 374.283 359.801 374.6 358.201 374.6C354.701 374.6 352.185 373 350.651 369.8H350.451V384H346.451V348.2ZM357.101 371C359.368 371 361.151 370.3 362.451 368.9C363.751 367.467 364.401 365.6 364.401 363.3V358.9C364.401 356.6 363.751 354.75 362.451 353.35C361.151 351.917 359.368 351.2 357.101 351.2C356.201 351.2 355.335 351.333 354.501 351.6C353.701 351.833 353.001 352.167 352.401 352.6C351.801 353.033 351.318 353.567 350.951 354.2C350.618 354.8 350.451 355.45 350.451 356.15V365.75C350.451 366.583 350.618 367.333 350.951 368C351.318 368.633 351.801 369.183 352.401 369.65C353.001 370.083 353.701 370.417 354.501 370.65C355.335 370.883 356.201 371 357.101 371ZM385.205 374.6C383.472 374.6 381.888 374.283 380.455 373.65C379.022 373.017 377.788 372.117 376.755 370.95C375.755 369.75 374.972 368.333 374.405 366.7C373.838 365.033 373.555 363.167 373.555 361.1C373.555 359.067 373.838 357.217 374.405 355.55C374.972 353.883 375.755 352.467 376.755 351.3C377.788 350.1 379.022 349.183 380.455 348.55C381.888 347.917 383.472 347.6 385.205 347.6C386.938 347.6 388.505 347.917 389.905 348.55C391.338 349.183 392.572 350.1 393.605 351.3C394.638 352.467 395.438 353.883 396.005 355.55C396.572 357.217 396.855 359.067 396.855 361.1C396.855 363.167 396.572 365.033 396.005 366.7C395.438 368.333 394.638 369.75 393.605 370.95C392.572 372.117 391.338 373.017 389.905 373.65C388.505 374.283 386.938 374.6 385.205 374.6ZM385.205 371.05C387.372 371.05 389.138 370.383 390.505 369.05C391.872 367.717 392.555 365.683 392.555 362.95V359.25C392.555 356.517 391.872 354.483 390.505 353.15C389.138 351.817 387.372 351.15 385.205 351.15C383.038 351.15 381.272 351.817 379.905 353.15C378.538 354.483 377.855 356.517 377.855 359.25V362.95C377.855 365.683 378.538 367.717 379.905 369.05C381.272 370.383 383.038 371.05 385.205 371.05ZM403.434 374V348.2H407.434V352.4H407.634C408.267 350.933 409.15 349.767 410.284 348.9C411.45 348.033 413 347.6 414.934 347.6C417.6 347.6 419.7 348.467 421.234 350.2C422.8 351.9 423.584 354.317 423.584 357.45V374H419.584V358.15C419.584 353.517 417.634 351.2 413.734 351.2C412.934 351.2 412.15 351.3 411.384 351.5C410.65 351.7 409.984 352 409.384 352.4C408.784 352.8 408.3 353.317 407.934 353.95C407.6 354.55 407.434 355.267 407.434 356.1V374H403.434ZM441.552 374.6C439.785 374.6 438.185 374.283 436.752 373.65C435.352 373.017 434.135 372.117 433.102 370.95C432.102 369.75 431.318 368.333 430.752 366.7C430.218 365.033 429.952 363.167 429.952 361.1C429.952 359.067 430.218 357.217 430.752 355.55C431.318 353.883 432.102 352.467 433.102 351.3C434.135 350.1 435.352 349.183 436.752 348.55C438.185 347.917 439.785 347.6 441.552 347.6C443.285 347.6 444.835 347.917 446.202 348.55C447.568 349.183 448.735 350.067 449.702 351.2C450.668 352.3 451.402 353.617 451.902 355.15C452.435 356.683 452.702 358.367 452.702 360.2V362.1H434.152V363.3C434.152 364.4 434.318 365.433 434.652 366.4C435.018 367.333 435.518 368.15 436.152 368.85C436.818 369.55 437.618 370.1 438.552 370.5C439.518 370.9 440.602 371.1 441.802 371.1C443.435 371.1 444.852 370.717 446.052 369.95C447.285 369.183 448.235 368.083 448.902 366.65L451.752 368.7C450.918 370.467 449.618 371.9 447.852 373C446.085 374.067 443.985 374.6 441.552 374.6ZM441.552 350.95C440.452 350.95 439.452 351.15 438.552 351.55C437.652 351.917 436.868 352.45 436.202 353.15C435.568 353.85 435.068 354.683 434.702 355.65C434.335 356.583 434.152 357.617 434.152 358.75V359.1H448.402V358.55C448.402 356.25 447.768 354.417 446.502 353.05C445.268 351.65 443.618 350.95 441.552 350.95ZM459.293 374V348.2H463.293V352.4H463.493C464.126 350.933 465.01 349.767 466.143 348.9C467.31 348.033 468.86 347.6 470.793 347.6C473.46 347.6 475.56 348.467 477.093 350.2C478.66 351.9 479.443 354.317 479.443 357.45V374H475.443V358.15C475.443 353.517 473.493 351.2 469.593 351.2C468.793 351.2 468.01 351.3 467.243 351.5C466.51 351.7 465.843 352 465.243 352.4C464.643 352.8 464.16 353.317 463.793 353.95C463.46 354.55 463.293 355.267 463.293 356.1V374H459.293ZM493.411 374C492.011 374 490.944 373.617 490.211 372.85C489.511 372.05 489.161 371.017 489.161 369.75V351.7H484.911V348.2H487.311C488.178 348.2 488.761 348.033 489.061 347.7C489.394 347.333 489.561 346.717 489.561 345.85V341.05H493.161V348.2H498.811V351.7H493.161V370.5H498.411V374H493.411ZM512.99 374.6C510.59 374.6 508.574 374.15 506.94 373.25C505.34 372.317 503.957 371.083 502.79 369.55L505.64 367.25C506.64 368.517 507.757 369.5 508.99 370.2C510.224 370.867 511.657 371.2 513.29 371.2C514.99 371.2 516.307 370.833 517.24 370.1C518.207 369.367 518.69 368.333 518.69 367C518.69 366 518.357 365.15 517.69 364.45C517.057 363.717 515.89 363.217 514.19 362.95L512.14 362.65C510.94 362.483 509.84 362.233 508.84 361.9C507.84 361.533 506.957 361.067 506.19 360.5C505.457 359.9 504.874 359.167 504.44 358.3C504.04 357.433 503.84 356.4 503.84 355.2C503.84 353.933 504.074 352.833 504.54 351.9C505.007 350.933 505.64 350.133 506.44 349.5C507.274 348.867 508.257 348.4 509.39 348.1C510.524 347.767 511.74 347.6 513.04 347.6C515.14 347.6 516.89 347.967 518.29 348.7C519.724 349.433 520.974 350.45 522.04 351.75L519.39 354.15C518.824 353.35 517.99 352.633 516.89 352C515.79 351.333 514.407 351 512.74 351C511.074 351 509.807 351.367 508.94 352.1C508.107 352.8 507.69 353.767 507.69 355C507.69 356.267 508.107 357.183 508.94 357.75C509.807 358.317 511.04 358.733 512.64 359L514.64 359.3C517.507 359.733 519.54 360.567 520.74 361.8C521.94 363 522.54 364.583 522.54 366.55C522.54 369.05 521.69 371.017 519.99 372.45C518.29 373.883 515.957 374.6 512.99 374.6Z" fill="white"/>
<path d="M71.35 287V208.25H93.55V225.35H94.3C94.7 223.15 95.4 221.05 96.4 219.05C97.4 216.95 98.7 215.1 100.3 213.5C102 211.9 104 210.65 106.3 209.75C108.6 208.75 111.3 208.25 114.4 208.25H118.3V228.95H112.75C106.25 228.95 101.4 229.8 98.2 231.5C95.1 233.2 93.55 236.35 93.55 240.95V287H71.35ZM164.112 288.8C158.112 288.8 152.762 287.85 148.062 285.95C143.362 283.95 139.362 281.2 136.062 277.7C132.862 274.1 130.412 269.75 128.712 264.65C127.112 259.55 126.312 253.85 126.312 247.55C126.312 241.35 127.112 235.75 128.712 230.75C130.312 225.65 132.662 221.3 135.762 217.7C138.962 214.1 142.862 211.35 147.462 209.45C152.062 207.45 157.312 206.45 163.212 206.45C169.712 206.45 175.262 207.55 179.862 209.75C184.562 211.95 188.362 214.9 191.262 218.6C194.262 222.3 196.412 226.6 197.712 231.5C199.112 236.3 199.812 241.35 199.812 246.65V253.25H149.262V254.45C149.262 259.65 150.662 263.8 153.462 266.9C156.262 269.9 160.662 271.4 166.662 271.4C171.262 271.4 175.012 270.5 177.912 268.7C180.812 266.8 183.512 264.55 186.012 261.95L197.112 275.75C193.612 279.85 189.012 283.05 183.312 285.35C177.712 287.65 171.312 288.8 164.112 288.8ZM163.662 222.8C159.162 222.8 155.612 224.3 153.012 227.3C150.512 230.2 149.262 234.1 149.262 239V240.2H176.862V238.85C176.862 234.05 175.762 230.2 173.562 227.3C171.462 224.3 168.162 222.8 163.662 222.8ZM273.691 287C269.691 287 266.341 285.75 263.641 283.25C261.041 280.75 259.391 277.4 258.691 273.2H257.791C256.591 278.3 253.941 282.2 249.841 284.9C245.741 287.5 240.691 288.8 234.691 288.8C226.791 288.8 220.741 286.7 216.541 282.5C212.341 278.3 210.241 272.75 210.241 265.85C210.241 257.55 213.241 251.4 219.241 247.4C225.341 243.3 233.591 241.25 243.991 241.25H256.441V236.3C256.441 232.5 255.441 229.5 253.441 227.3C251.441 225 248.091 223.85 243.391 223.85C238.991 223.85 235.491 224.8 232.891 226.7C230.291 228.6 228.141 230.75 226.441 233.15L213.241 221.45C216.441 216.75 220.441 213.1 225.241 210.5C230.141 207.8 236.741 206.45 245.041 206.45C256.241 206.45 264.641 208.9 270.241 213.8C275.841 218.7 278.641 225.85 278.641 235.25V269.75H285.991V287H273.691ZM242.941 273.35C246.641 273.35 249.791 272.55 252.391 270.95C255.091 269.35 256.441 266.75 256.441 263.15V253.85H245.641C236.941 253.85 232.591 256.8 232.591 262.7V264.95C232.591 267.85 233.491 270 235.291 271.4C237.091 272.7 239.641 273.35 242.941 273.35ZM349.191 273.8H348.441C347.841 275.9 346.891 277.9 345.591 279.8C344.291 281.6 342.691 283.2 340.791 284.6C338.991 285.9 336.891 286.9 334.491 287.6C332.191 288.4 329.791 288.8 327.291 288.8C317.291 288.8 309.741 285.3 304.641 278.3C299.541 271.2 296.991 260.95 296.991 247.55C296.991 234.15 299.541 223.95 304.641 216.95C309.741 209.95 317.291 206.45 327.291 206.45C332.391 206.45 336.891 207.85 340.791 210.65C344.791 213.45 347.341 217.05 348.441 221.45H349.191V176H371.391V287H349.191V273.8ZM334.641 270.8C338.841 270.8 342.291 269.8 344.991 267.8C347.791 265.7 349.191 262.85 349.191 259.25V236C349.191 232.4 347.791 229.6 344.991 227.6C342.291 225.5 338.841 224.45 334.641 224.45C330.441 224.45 326.941 225.95 324.141 228.95C321.441 231.85 320.091 235.8 320.091 240.8V254.45C320.091 259.45 321.441 263.45 324.141 266.45C326.941 269.35 330.441 270.8 334.641 270.8ZM450.351 287C446.351 287 443.001 285.75 440.301 283.25C437.701 280.75 436.051 277.4 435.351 273.2H434.451C433.251 278.3 430.601 282.2 426.501 284.9C422.401 287.5 417.351 288.8 411.351 288.8C403.451 288.8 397.401 286.7 393.201 282.5C389.001 278.3 386.901 272.75 386.901 265.85C386.901 257.55 389.901 251.4 395.901 247.4C402.001 243.3 410.251 241.25 420.651 241.25H433.101V236.3C433.101 232.5 432.101 229.5 430.101 227.3C428.101 225 424.751 223.85 420.051 223.85C415.651 223.85 412.151 224.8 409.551 226.7C406.951 228.6 404.801 230.75 403.101 233.15L389.901 221.45C393.101 216.75 397.101 213.1 401.901 210.5C406.801 207.8 413.401 206.45 421.701 206.45C432.901 206.45 441.301 208.9 446.901 213.8C452.501 218.7 455.301 225.85 455.301 235.25V269.75H462.651V287H450.351ZM419.601 273.35C423.301 273.35 426.451 272.55 429.051 270.95C431.751 269.35 433.101 266.75 433.101 263.15V253.85H422.301C413.601 253.85 409.251 256.8 409.251 262.7V264.95C409.251 267.85 410.151 270 411.951 271.4C413.751 272.7 416.301 273.35 419.601 273.35ZM477.551 176H499.751V221.45H500.501C501.601 217.05 504.101 213.45 508.001 210.65C512.001 207.85 516.551 206.45 521.651 206.45C531.651 206.45 539.201 209.95 544.301 216.95C549.401 223.95 551.951 234.15 551.951 247.55C551.951 260.95 549.401 271.2 544.301 278.3C539.201 285.3 531.651 288.8 521.651 288.8C519.051 288.8 516.601 288.4 514.301 287.6C512.001 286.9 509.901 285.9 508.001 284.6C506.201 283.2 504.651 281.6 503.351 279.8C502.051 277.9 501.101 275.9 500.501 273.8H499.751V287H477.551V176ZM514.301 270.8C518.501 270.8 521.951 269.35 524.651 266.45C527.451 263.45 528.851 259.45 528.851 254.45V240.8C528.851 235.8 527.451 231.85 524.651 228.95C521.951 225.95 518.501 224.45 514.301 224.45C510.101 224.45 506.601 225.5 503.801 227.6C501.101 229.6 499.751 232.4 499.751 236V259.25C499.751 262.85 501.101 265.7 503.801 267.8C506.601 269.8 510.101 270.8 514.301 270.8ZM590.861 287C583.261 287 577.661 285.15 574.061 281.45C570.561 277.75 568.811 272.4 568.811 265.4V176H591.011V269.75H600.911V287H590.861ZM647.071 288.8C641.071 288.8 635.721 287.85 631.021 285.95C626.321 283.95 622.321 281.2 619.021 277.7C615.821 274.1 613.371 269.75 611.671 264.65C610.071 259.55 609.271 253.85 609.271 247.55C609.271 241.35 610.071 235.75 611.671 230.75C613.271 225.65 615.621 221.3 618.721 217.7C621.921 214.1 625.821 211.35 630.421 209.45C635.021 207.45 640.271 206.45 646.171 206.45C652.671 206.45 658.221 207.55 662.821 209.75C667.521 211.95 671.321 214.9 674.221 218.6C677.221 222.3 679.371 226.6 680.671 231.5C682.071 236.3 682.771 241.35 682.771 246.65V253.25H632.221V254.45C632.221 259.65 633.621 263.8 636.421 266.9C639.221 269.9 643.621 271.4 649.621 271.4C654.221 271.4 657.971 270.5 660.871 268.7C663.771 266.8 666.471 264.55 668.971 261.95L680.071 275.75C676.571 279.85 671.971 283.05 666.271 285.35C660.671 287.65 654.271 288.8 647.071 288.8ZM646.621 222.8C642.121 222.8 638.571 224.3 635.971 227.3C633.471 230.2 632.221 234.1 632.221 239V240.2H659.821V238.85C659.821 234.05 658.721 230.2 656.521 227.3C654.421 224.3 651.121 222.8 646.621 222.8Z" fill="white"/>
<path d="M74.05 94.9C76.4167 94.9 78.1833 94.3667 79.35 93.3C80.55 92.2 81.15 90.8 81.15 89.1V88.75C81.15 86.9167 80.5667 85.55 79.4 84.65C78.2667 83.7167 76.7667 83.25 74.9 83.25C73.1 83.25 71.6333 83.65 70.5 84.45C69.3667 85.2167 68.4333 86.2667 67.7 87.6L64.6 85.2C65.0333 84.5 65.55 83.8167 66.15 83.15C66.7833 82.45 67.5167 81.8333 68.35 81.3C69.1833 80.7667 70.15 80.3333 71.25 80C72.35 79.6667 73.6 79.5 75 79.5C76.4667 79.5 77.85 79.7 79.15 80.1C80.45 80.4667 81.5667 81.0333 82.5 81.8C83.4667 82.5333 84.2167 83.45 84.75 84.55C85.3167 85.65 85.6 86.9 85.6 88.3C85.6 89.4333 85.4167 90.45 85.05 91.35C84.7167 92.25 84.25 93.0333 83.65 93.7C83.05 94.3667 82.3333 94.9333 81.5 95.4C80.7 95.8667 79.8333 96.2167 78.9 96.45V96.65C79.8333 96.85 80.7333 97.1833 81.6 97.65C82.5 98.0833 83.2833 98.6667 83.95 99.4C84.65 100.1 85.2 100.967 85.6 102C86.0333 103 86.25 104.15 86.25 105.45C86.25 106.95 85.9667 108.333 85.4 109.6C84.8333 110.833 84.0333 111.9 83 112.8C81.9667 113.667 80.7167 114.35 79.25 114.85C77.7833 115.35 76.1667 115.6 74.4 115.6C72.9 115.6 71.5667 115.433 70.4 115.1C69.2333 114.767 68.2 114.317 67.3 113.75C66.4 113.183 65.6 112.55 64.9 111.85C64.2333 111.15 63.6333 110.417 63.1 109.65L66.25 107.25C66.6833 107.95 67.15 108.583 67.65 109.15C68.1833 109.717 68.7667 110.2 69.4 110.6C70.0333 111 70.75 111.317 71.55 111.55C72.35 111.75 73.2833 111.85 74.35 111.85C76.8167 111.85 78.6833 111.3 79.95 110.2C81.2167 109.067 81.85 107.467 81.85 105.4V105C81.85 102.933 81.2167 101.35 79.95 100.25C78.6833 99.1167 76.8167 98.55 74.35 98.55H70.25V94.9H74.05ZM107.047 89.2H111.047V93.4H111.247C111.914 91.7667 112.88 90.5667 114.147 89.8C115.447 89 116.997 88.6 118.797 88.6C120.397 88.6 121.847 88.9167 123.147 89.55C124.447 90.1833 125.547 91.0833 126.447 92.25C127.38 93.4167 128.08 94.8333 128.547 96.5C129.047 98.1667 129.297 100.033 129.297 102.1C129.297 104.167 129.047 106.033 128.547 107.7C128.08 109.367 127.38 110.783 126.447 111.95C125.547 113.117 124.447 114.017 123.147 114.65C121.847 115.283 120.397 115.6 118.797 115.6C115.297 115.6 112.78 114 111.247 110.8H111.047V125H107.047V89.2ZM117.697 112C119.964 112 121.747 111.3 123.047 109.9C124.347 108.467 124.997 106.6 124.997 104.3V99.9C124.997 97.6 124.347 95.75 123.047 94.35C121.747 92.9167 119.964 92.2 117.697 92.2C116.797 92.2 115.93 92.3333 115.097 92.6C114.297 92.8333 113.597 93.1667 112.997 93.6C112.397 94.0333 111.914 94.5667 111.547 95.2C111.214 95.8 111.047 96.45 111.047 97.15V106.75C111.047 107.583 111.214 108.333 111.547 109C111.914 109.633 112.397 110.183 112.997 110.65C113.597 111.083 114.297 111.417 115.097 111.65C115.93 111.883 116.797 112 117.697 112ZM154.801 115C153.301 115 152.217 114.6 151.551 113.8C150.917 113 150.517 112 150.351 110.8H150.101C149.534 112.4 148.601 113.6 147.301 114.4C146.001 115.2 144.451 115.6 142.651 115.6C139.917 115.6 137.784 114.9 136.251 113.5C134.751 112.1 134.001 110.2 134.001 107.8C134.001 105.367 134.884 103.5 136.651 102.2C138.451 100.9 141.234 100.25 145.001 100.25H150.101V97.7C150.101 95.8667 149.601 94.4667 148.601 93.5C147.601 92.5333 146.067 92.05 144.001 92.05C142.434 92.05 141.117 92.4 140.051 93.1C139.017 93.8 138.151 94.7333 137.451 95.9L135.051 93.65C135.751 92.25 136.867 91.0667 138.401 90.1C139.934 89.1 141.867 88.6 144.201 88.6C147.334 88.6 149.767 89.3667 151.501 90.9C153.234 92.4333 154.101 94.5667 154.101 97.3V111.5H157.051V115H154.801ZM143.301 112.2C144.301 112.2 145.217 112.083 146.051 111.85C146.884 111.617 147.601 111.283 148.201 110.85C148.801 110.417 149.267 109.917 149.601 109.35C149.934 108.783 150.101 108.167 150.101 107.5V103.25H144.801C142.501 103.25 140.817 103.583 139.751 104.25C138.717 104.917 138.201 105.883 138.201 107.15V108.2C138.201 109.467 138.651 110.45 139.551 111.15C140.484 111.85 141.734 112.2 143.301 112.2ZM168.46 115C167.06 115 165.993 114.617 165.26 113.85C164.56 113.05 164.21 112.017 164.21 110.75V92.7H159.96V89.2H162.36C163.226 89.2 163.81 89.0333 164.11 88.7C164.443 88.3333 164.61 87.7167 164.61 86.85V82.05H168.21V89.2H173.86V92.7H168.21V111.5H173.46V115H168.46ZM185.55 115C184.15 115 183.083 114.617 182.35 113.85C181.65 113.05 181.3 112.017 181.3 110.75V92.7H177.05V89.2H179.45C180.316 89.2 180.9 89.0333 181.2 88.7C181.533 88.3333 181.7 87.7167 181.7 86.85V82.05H185.3V89.2H190.95V92.7H185.3V111.5H190.55V115H185.55ZM206.884 115.6C205.117 115.6 203.517 115.283 202.084 114.65C200.684 114.017 199.467 113.117 198.434 111.95C197.434 110.75 196.65 109.333 196.084 107.7C195.55 106.033 195.284 104.167 195.284 102.1C195.284 100.067 195.55 98.2167 196.084 96.55C196.65 94.8833 197.434 93.4667 198.434 92.3C199.467 91.1 200.684 90.1833 202.084 89.55C203.517 88.9167 205.117 88.6 206.884 88.6C208.617 88.6 210.167 88.9167 211.534 89.55C212.9 90.1833 214.067 91.0667 215.034 92.2C216 93.3 216.734 94.6167 217.234 96.15C217.767 97.6833 218.034 99.3667 218.034 101.2V103.1H199.484V104.3C199.484 105.4 199.65 106.433 199.984 107.4C200.35 108.333 200.85 109.15 201.484 109.85C202.15 110.55 202.95 111.1 203.884 111.5C204.85 111.9 205.934 112.1 207.134 112.1C208.767 112.1 210.184 111.717 211.384 110.95C212.617 110.183 213.567 109.083 214.234 107.65L217.084 109.7C216.25 111.467 214.95 112.9 213.184 114C211.417 115.067 209.317 115.6 206.884 115.6ZM206.884 91.95C205.784 91.95 204.784 92.15 203.884 92.55C202.984 92.9167 202.2 93.45 201.534 94.15C200.9 94.85 200.4 95.6833 200.034 96.65C199.667 97.5833 199.484 98.6167 199.484 99.75V100.1H213.734V99.55C213.734 97.25 213.1 95.4167 211.834 94.05C210.6 92.65 208.95 91.95 206.884 91.95ZM224.625 115V89.2H228.625V93.95H228.875C229.342 92.7167 230.175 91.6167 231.375 90.65C232.575 89.6833 234.225 89.2 236.325 89.2H237.875V93.2H235.525C233.358 93.2 231.658 93.6167 230.425 94.45C229.225 95.25 228.625 96.2667 228.625 97.5V115H224.625ZM242.984 115V89.2H246.984V93.4H247.184C247.818 91.9333 248.701 90.7667 249.834 89.9C251.001 89.0333 252.551 88.6 254.484 88.6C257.151 88.6 259.251 89.4667 260.784 91.2C262.351 92.9 263.134 95.3167 263.134 98.45V115H259.134V99.15C259.134 94.5167 257.184 92.2 253.284 92.2C252.484 92.2 251.701 92.3 250.934 92.5C250.201 92.7 249.534 93 248.934 93.4C248.334 93.8 247.851 94.3167 247.484 94.95C247.151 95.55 246.984 96.2667 246.984 97.1V115H242.984ZM279.152 115.6C276.752 115.6 274.736 115.15 273.102 114.25C271.502 113.317 270.119 112.083 268.952 110.55L271.802 108.25C272.802 109.517 273.919 110.5 275.152 111.2C276.386 111.867 277.819 112.2 279.452 112.2C281.152 112.2 282.469 111.833 283.402 111.1C284.369 110.367 284.852 109.333 284.852 108C284.852 107 284.519 106.15 283.852 105.45C283.219 104.717 282.052 104.217 280.352 103.95L278.302 103.65C277.102 103.483 276.002 103.233 275.002 102.9C274.002 102.533 273.119 102.067 272.352 101.5C271.619 100.9 271.036 100.167 270.602 99.3C270.202 98.4333 270.002 97.4 270.002 96.2C270.002 94.9333 270.236 93.8333 270.702 92.9C271.169 91.9333 271.802 91.1333 272.602 90.5C273.436 89.8667 274.419 89.4 275.552 89.1C276.686 88.7667 277.902 88.6 279.202 88.6C281.302 88.6 283.052 88.9667 284.452 89.7C285.886 90.4333 287.136 91.45 288.202 92.75L285.552 95.15C284.986 94.35 284.152 93.6333 283.052 93C281.952 92.3333 280.569 92 278.902 92C277.236 92 275.969 92.3667 275.102 93.1C274.269 93.8 273.852 94.7667 273.852 96C273.852 97.2667 274.269 98.1833 275.102 98.75C275.969 99.3167 277.202 99.7333 278.802 100L280.802 100.3C283.669 100.733 285.702 101.567 286.902 102.8C288.102 104 288.702 105.583 288.702 107.55C288.702 110.05 287.852 112.017 286.152 113.45C284.452 114.883 282.119 115.6 279.152 115.6ZM313.284 115C311.884 115 310.817 114.617 310.084 113.85C309.384 113.05 309.034 112.017 309.034 110.75V92.7H304.784V89.2H307.184C308.051 89.2 308.634 89.0333 308.934 88.7C309.267 88.3333 309.434 87.7167 309.434 86.85V82.05H313.034V89.2H318.684V92.7H313.034V111.5H318.284V115H313.284ZM334.668 115.6C332.935 115.6 331.351 115.283 329.918 114.65C328.485 114.017 327.251 113.117 326.218 111.95C325.218 110.75 324.435 109.333 323.868 107.7C323.301 106.033 323.018 104.167 323.018 102.1C323.018 100.067 323.301 98.2167 323.868 96.55C324.435 94.8833 325.218 93.4667 326.218 92.3C327.251 91.1 328.485 90.1833 329.918 89.55C331.351 88.9167 332.935 88.6 334.668 88.6C336.401 88.6 337.968 88.9167 339.368 89.55C340.801 90.1833 342.035 91.1 343.068 92.3C344.101 93.4667 344.901 94.8833 345.468 96.55C346.035 98.2167 346.318 100.067 346.318 102.1C346.318 104.167 346.035 106.033 345.468 107.7C344.901 109.333 344.101 110.75 343.068 111.95C342.035 113.117 340.801 114.017 339.368 114.65C337.968 115.283 336.401 115.6 334.668 115.6ZM334.668 112.05C336.835 112.05 338.601 111.383 339.968 110.05C341.335 108.717 342.018 106.683 342.018 103.95V100.25C342.018 97.5167 341.335 95.4833 339.968 94.15C338.601 92.8167 336.835 92.15 334.668 92.15C332.501 92.15 330.735 92.8167 329.368 94.15C328.001 95.4833 327.318 97.5167 327.318 100.25V103.95C327.318 106.683 328.001 108.717 329.368 110.05C330.735 111.383 332.501 112.05 334.668 112.05ZM362.013 89.2H365.913L368.663 100.35L371.413 111.65H371.513L374.663 100.35L377.913 89.2H381.463L384.813 100.35L388.013 111.65H388.113L390.763 100.35L393.563 89.2H397.313L390.463 115H385.513L381.913 102.6L379.663 94.75H379.563L377.363 102.6L373.763 115H368.913L362.013 89.2ZM403.092 115V89.2H407.092V93.95H407.342C407.808 92.7167 408.642 91.6167 409.842 90.65C411.042 89.6833 412.692 89.2 414.792 89.2H416.342V93.2H413.992C411.825 93.2 410.125 93.6167 408.892 94.45C407.692 95.25 407.092 96.2667 407.092 97.5V115H403.092ZM423.451 83.15C422.585 83.15 421.951 82.95 421.551 82.55C421.185 82.1167 421.001 81.5667 421.001 80.9V80.25C421.001 79.5833 421.185 79.05 421.551 78.65C421.951 78.2167 422.585 78 423.451 78C424.318 78 424.935 78.2167 425.301 78.65C425.701 79.05 425.901 79.5833 425.901 80.25V80.9C425.901 81.5667 425.701 82.1167 425.301 82.55C424.935 82.95 424.318 83.15 423.451 83.15ZM421.451 89.2H425.451V115H421.451V89.2ZM439.651 115C438.251 115 437.185 114.617 436.451 113.85C435.751 113.05 435.401 112.017 435.401 110.75V92.7H431.151V89.2H433.551C434.418 89.2 435.001 89.0333 435.301 88.7C435.635 88.3333 435.801 87.7167 435.801 86.85V82.05H439.401V89.2H445.051V92.7H439.401V111.5H444.651V115H439.651ZM460.985 115.6C459.218 115.6 457.618 115.283 456.185 114.65C454.785 114.017 453.568 113.117 452.535 111.95C451.535 110.75 450.752 109.333 450.185 107.7C449.652 106.033 449.385 104.167 449.385 102.1C449.385 100.067 449.652 98.2167 450.185 96.55C450.752 94.8833 451.535 93.4667 452.535 92.3C453.568 91.1 454.785 90.1833 456.185 89.55C457.618 88.9167 459.218 88.6 460.985 88.6C462.718 88.6 464.268 88.9167 465.635 89.55C467.002 90.1833 468.168 91.0667 469.135 92.2C470.102 93.3 470.835 94.6167 471.335 96.15C471.868 97.6833 472.135 99.3667 472.135 101.2V103.1H453.585V104.3C453.585 105.4 453.752 106.433 454.085 107.4C454.452 108.333 454.952 109.15 455.585 109.85C456.252 110.55 457.052 111.1 457.985 111.5C458.952 111.9 460.035 112.1 461.235 112.1C462.868 112.1 464.285 111.717 465.485 110.95C466.718 110.183 467.668 109.083 468.335 107.65L471.185 109.7C470.352 111.467 469.052 112.9 467.285 114C465.518 115.067 463.418 115.6 460.985 115.6ZM460.985 91.95C459.885 91.95 458.885 92.15 457.985 92.55C457.085 92.9167 456.302 93.45 455.635 94.15C455.002 94.85 454.502 95.6833 454.135 96.65C453.768 97.5833 453.585 98.6167 453.585 99.75V100.1H467.835V99.55C467.835 97.25 467.202 95.4167 465.935 94.05C464.702 92.65 463.052 91.95 460.985 91.95ZM490.543 115V89.2H494.543V93.4H494.743C495.043 92.7333 495.376 92.1167 495.743 91.55C496.143 90.95 496.61 90.4333 497.143 90C497.71 89.5667 498.36 89.2333 499.093 89C499.826 88.7333 500.693 88.6 501.693 88.6C503.393 88.6 504.96 89.0167 506.393 89.85C507.826 90.65 508.893 91.9833 509.593 93.85H509.693C510.16 92.45 511.026 91.2333 512.293 90.2C513.593 89.1333 515.343 88.6 517.543 88.6C520.176 88.6 522.226 89.4667 523.693 91.2C525.193 92.9 525.943 95.3167 525.943 98.45V115H521.943V99.15C521.943 96.85 521.493 95.1167 520.593 93.95C519.693 92.7833 518.26 92.2 516.293 92.2C515.493 92.2 514.726 92.3 513.993 92.5C513.293 92.7 512.66 93 512.093 93.4C511.526 93.8 511.076 94.3167 510.743 94.95C510.41 95.55 510.243 96.2667 510.243 97.1V115H506.243V99.15C506.243 96.85 505.793 95.1167 504.893 93.95C503.993 92.7833 502.593 92.2 500.693 92.2C499.893 92.2 499.126 92.3 498.393 92.5C497.66 92.7 497.01 93 496.443 93.4C495.876 93.8 495.41 94.3167 495.043 94.95C494.71 95.55 494.543 96.2667 494.543 97.1V115H490.543ZM543.945 115.6C542.212 115.6 540.629 115.283 539.195 114.65C537.762 114.017 536.529 113.117 535.495 111.95C534.495 110.75 533.712 109.333 533.145 107.7C532.579 106.033 532.295 104.167 532.295 102.1C532.295 100.067 532.579 98.2167 533.145 96.55C533.712 94.8833 534.495 93.4667 535.495 92.3C536.529 91.1 537.762 90.1833 539.195 89.55C540.629 88.9167 542.212 88.6 543.945 88.6C545.679 88.6 547.245 88.9167 548.645 89.55C550.079 90.1833 551.312 91.1 552.345 92.3C553.379 93.4667 554.179 94.8833 554.745 96.55C555.312 98.2167 555.595 100.067 555.595 102.1C555.595 104.167 555.312 106.033 554.745 107.7C554.179 109.333 553.379 110.75 552.345 111.95C551.312 113.117 550.079 114.017 548.645 114.65C547.245 115.283 545.679 115.6 543.945 115.6ZM543.945 112.05C546.112 112.05 547.879 111.383 549.245 110.05C550.612 108.717 551.295 106.683 551.295 103.95V100.25C551.295 97.5167 550.612 95.4833 549.245 94.15C547.879 92.8167 546.112 92.15 543.945 92.15C541.779 92.15 540.012 92.8167 538.645 94.15C537.279 95.4833 536.595 97.5167 536.595 100.25V103.95C536.595 106.683 537.279 108.717 538.645 110.05C540.012 111.383 541.779 112.05 543.945 112.05ZM562.174 115V89.2H566.174V93.95H566.424C566.89 92.7167 567.724 91.6167 568.924 90.65C570.124 89.6833 571.774 89.2 573.874 89.2H575.424V93.2H573.074C570.907 93.2 569.207 93.6167 567.974 94.45C566.774 95.25 566.174 96.2667 566.174 97.5V115H562.174ZM589.989 115.6C588.222 115.6 586.622 115.283 585.189 114.65C583.789 114.017 582.572 113.117 581.539 111.95C580.539 110.75 579.756 109.333 579.189 107.7C578.656 106.033 578.389 104.167 578.389 102.1C578.389 100.067 578.656 98.2167 579.189 96.55C579.756 94.8833 580.539 93.4667 581.539 92.3C582.572 91.1 583.789 90.1833 585.189 89.55C586.622 88.9167 588.222 88.6 589.989 88.6C591.722 88.6 593.272 88.9167 594.639 89.55C596.006 90.1833 597.172 91.0667 598.139 92.2C599.106 93.3 599.839 94.6167 600.339 96.15C600.872 97.6833 601.139 99.3667 601.139 101.2V103.1H582.589V104.3C582.589 105.4 582.756 106.433 583.089 107.4C583.456 108.333 583.956 109.15 584.589 109.85C585.256 110.55 586.056 111.1 586.989 111.5C587.956 111.9 589.039 112.1 590.239 112.1C591.872 112.1 593.289 111.717 594.489 110.95C595.722 110.183 596.672 109.083 597.339 107.65L600.189 109.7C599.356 111.467 598.056 112.9 596.289 114C594.522 115.067 592.422 115.6 589.989 115.6ZM589.989 91.95C588.889 91.95 587.889 92.15 586.989 92.55C586.089 92.9167 585.306 93.45 584.639 94.15C584.006 94.85 583.506 95.6833 583.139 96.65C582.772 97.5833 582.589 98.6167 582.589 99.75V100.1H596.839V99.55C596.839 97.25 596.206 95.4167 594.939 94.05C593.706 92.65 592.056 91.95 589.989 91.95Z" fill="white"/>
</g>
<defs>
<linearGradient id="paint0_linear_0_1" x1="465.425" y1="566.333" x2="1122.87" y2="923.044" gradientUnits="userSpaceOnUse">
<stop offset="0.1" stop-color="#76B3E1"/>
<stop offset="0.3" stop-color="#DCF2FD"/>
<stop offset="1" stop-color="#76B3E1"/>
</linearGradient>
<linearGradient id="paint1_linear_0_1" x1="908.247" y1="724.682" x2="875.184" y2="847.621" gradientUnits="userSpaceOnUse">
<stop stop-color="#76B3E1"/>
<stop offset="0.5" stop-color="#4377BB"/>
<stop offset="1" stop-color="#1F3B77"/>
</linearGradient>
<linearGradient id="paint2_linear_0_1" x1="406.422" y1="927.487" x2="1000.52" y2="1378.47" gradientUnits="userSpaceOnUse">
<stop stop-color="#315AA9"/>
<stop offset="0.5" stop-color="#518AC8"/>
<stop offset="1" stop-color="#315AA9"/>
</linearGradient>
<linearGradient id="paint3_linear_0_1" x1="774.69" y1="1070.44" x2="702.073" y2="1367.77" gradientUnits="userSpaceOnUse">
<stop stop-color="#4377BB"/>
<stop offset="0.5" stop-color="#1A336B"/>
<stop offset="1" stop-color="#1A336B"/>
</linearGradient>
<clipPath id="clip0_0_1">
<rect width="1080" height="1080" fill="white"/>
</clipPath>
<clipPath id="clip1_0_1">
<rect width="1031" height="862" fill="white" transform="translate(313 430)"/>
</clipPath>
</defs>
</svg>
