<svg width="1080" height="1080" viewBox="0 0 1080 1080" fill="none" xmlns="http://www.w3.org/2000/svg">
<rect width="1080" height="1080" fill="#1E1E1E"/>
<rect width="1080" height="1080" fill="#1F3B77"/>
<g clip-path="url(#clip0_0_1)">
<path d="M219.998 349.693L244.396 307.243L247.742 302.205C252.588 295.741 260.749 290.774 270.762 287.424L275.78 285.745C310.059 278.224 349.534 290.807 380.649 305.468C396.18 312.786 409.55 320.584 419.037 326.553C423.78 329.537 427.55 332.062 430.132 333.839C431.364 334.687 432.325 335.365 432.992 335.841L403.676 384.884L326.607 369.748L326.292 369.686L325.979 369.759C304.341 374.771 280.979 369.763 262.605 358.025L262.363 357.87L262.081 357.816L219.998 349.693Z" fill="#76B3E1" stroke="white" stroke-width="3"/>
<path opacity="0.3" d="M219.998 349.693L244.396 307.243L247.742 302.205C252.588 295.741 260.749 290.774 270.762 287.424L275.78 285.745C310.059 278.224 349.534 290.807 380.649 305.468C396.18 312.786 409.55 320.584 419.037 326.553C423.78 329.537 427.55 332.062 430.132 333.839C431.364 334.687 432.325 335.365 432.992 335.841L403.676 384.884L326.607 369.748L326.292 369.686L325.979 369.759C304.341 374.771 280.979 369.763 262.605 358.025L262.363 357.87L262.081 357.816L219.998 349.693Z" fill="url(#paint0_linear_0_1)" stroke="white" stroke-width="3"/>
<path d="M399.572 384.97C400.17 385.382 400.704 385.754 401.171 386.082L298.697 420.923C284.606 425.075 268.798 424.253 254.401 419.646C240.013 415.041 227.151 406.692 218.88 395.925C211.477 384.336 209.909 372.054 213.548 361.705C217.184 351.364 226.099 342.729 240.119 338.581L246.863 336.889C280.297 329.345 319.367 341.926 350.295 356.598C365.721 363.916 379.038 371.714 388.5 377.683C393.23 380.667 396.993 383.192 399.572 384.97Z" fill="#518AC8" stroke="white" stroke-width="3"/>
<path opacity="0.3" d="M399.572 384.97C400.17 385.382 400.704 385.754 401.171 386.082L298.697 420.923C284.606 425.075 268.798 424.253 254.401 419.646C240.013 415.041 227.151 406.692 218.88 395.925C211.477 384.336 209.909 372.054 213.548 361.705C217.184 351.364 226.099 342.729 240.119 338.581L246.863 336.889C280.297 329.345 319.367 341.926 350.295 356.598C365.721 363.916 379.038 371.714 388.5 377.683C393.23 380.667 396.993 383.192 399.572 384.97Z" fill="url(#paint1_linear_0_1)" stroke="white" stroke-width="3"/>
<path d="M387.837 450.585L387.833 450.593L387.828 450.601L354.385 511.027L167.378 479.182L199.989 421.896L304.691 387.993C333.889 379.253 365.45 389.138 384.518 412.994C392.775 426.297 394.262 439.299 387.837 450.585Z" fill="url(#paint2_linear_0_1)" stroke="white" stroke-width="3"/>
<path d="M168.269 480.824L270.733 447.646C299.94 438.903 331.513 448.798 350.579 472.671L350.595 472.692C358.8 483.398 360.37 495.215 356.539 505.336C352.7 515.478 343.35 524.138 329.289 528.29L329.263 528.297L329.238 528.306L324.203 529.99C289.942 538.353 250.477 525.78 219.359 510.905C203.83 503.482 190.462 495.527 180.975 489.426C176.233 486.376 172.464 483.791 169.882 481.971C169.279 481.546 168.74 481.162 168.269 480.824Z" fill="url(#paint3_linear_0_1)" stroke="white" stroke-width="3"/>
</g>
<path d="M494 514.8C484.667 514.8 476.533 513.067 469.6 509.6C462.8 506 457.467 501 453.6 494.6C449.867 488.067 448 480.4 448 471.6V444.4C448 435.6 449.867 428 453.6 421.6C457.467 415.067 462.8 410.067 469.6 406.6C476.533 403 484.667 401.2 494 401.2C503.467 401.2 511.6 403 518.4 406.6C525.2 410.067 530.467 415.067 534.2 421.6C538.067 428 540 435.533 540 444.2V471.6C540 480.4 538.067 488.067 534.2 494.6C530.467 501 525.2 506 518.4 509.6C511.6 513.067 503.467 514.8 494 514.8ZM494 493C500.667 493 505.8 491.2 509.4 487.6C513.133 483.867 515 478.533 515 471.6V444.4C515 437.333 513.133 432 509.4 428.4C505.8 424.8 500.667 423 494 423C487.467 423 482.333 424.8 478.6 428.4C474.867 432 473 437.333 473 444.4V471.6C473 478.533 474.867 483.867 478.6 487.6C482.333 491.2 487.467 493 494 493ZM630.722 513C623.522 513 617.189 511.533 611.722 508.6C606.389 505.667 602.189 501.533 599.122 496.2C596.055 490.733 594.522 484.467 594.522 477.4V389.6H559.322V367H619.522V477.4C619.522 481.4 620.655 484.6 622.922 487C625.322 489.267 628.522 490.4 632.522 490.4H665.722V513H630.722ZM689.044 513V490.2H727.444V425.6H694.044V403H751.444V490.2H785.444V513H689.044ZM737.444 384.6C732.377 384.6 728.377 383.333 725.444 380.8C722.51 378.133 721.044 374.6 721.044 370.2C721.044 365.8 722.51 362.333 725.444 359.8C728.377 357.133 732.377 355.8 737.444 355.8C742.51 355.8 746.51 357.133 749.444 359.8C752.377 362.333 753.844 365.8 753.844 370.2C753.844 374.6 752.377 378.133 749.444 380.8C746.51 383.333 742.51 384.6 737.444 384.6ZM844.366 515C833.432 515 824.566 511.2 817.766 503.6C811.099 496 807.766 485.8 807.766 473V443.2C807.766 430.267 811.099 420 817.766 412.4C824.432 404.8 833.299 401 844.366 401C853.432 401 860.632 403.6 865.966 408.8C871.299 413.867 873.966 420.867 873.966 429.8L868.366 424H874.166L873.366 397.8V367H898.366V513H873.966V492H868.366L873.966 486.2C873.966 495.133 871.299 502.2 865.966 507.4C860.632 512.467 853.432 515 844.366 515ZM853.166 493.4C859.566 493.4 864.499 491.533 867.966 487.8C871.566 483.933 873.366 478.6 873.366 471.8V444.2C873.366 437.4 871.566 432.133 867.966 428.4C864.499 424.533 859.566 422.6 853.166 422.6C846.766 422.6 841.766 424.467 838.166 428.2C834.566 431.933 832.766 437.267 832.766 444.2V471.8C832.766 478.733 834.566 484.067 838.166 487.8C841.766 491.533 846.766 493.4 853.166 493.4Z" fill="white"/>
<path d="M315.3 667.5C307.8 667.5 301.3 666.25 295.8 663.75C290.3 661.25 286.05 657.7 283.05 653.1C280.15 648.4 278.65 642.9 278.55 636.6H297.3C297.3 641.1 298.9 644.65 302.1 647.25C305.4 649.75 309.85 651 315.45 651C320.85 651 325.05 649.75 328.05 647.25C331.15 644.75 332.7 641.3 332.7 636.9C332.7 633.2 331.6 630 329.4 627.3C327.3 624.5 324.25 622.6 320.25 621.6L307.65 618.15C299.05 615.95 292.4 612 287.7 606.3C283.1 600.6 280.8 593.7 280.8 585.6C280.8 579.4 282.2 574 285 569.4C287.8 564.8 291.75 561.25 296.85 558.75C302.05 556.25 308.15 555 315.15 555C325.75 555 334.15 557.75 340.35 563.25C346.55 568.65 349.7 575.95 349.8 585.15H331.05C331.05 580.85 329.65 577.5 326.85 575.1C324.05 572.6 320.1 571.35 315 571.35C310.1 571.35 306.3 572.5 303.6 574.8C300.9 577.1 299.55 580.35 299.55 584.55C299.55 588.35 300.55 591.6 302.55 594.3C304.65 596.9 307.65 598.75 311.55 599.85L324.6 603.45C333.3 605.65 339.95 609.6 344.55 615.3C349.15 620.9 351.45 627.85 351.45 636.15C351.45 642.35 349.95 647.85 346.95 652.65C343.95 657.35 339.75 661 334.35 663.6C328.95 666.2 322.6 667.5 315.3 667.5ZM413.941 666C406.041 666 399.841 663.8 395.341 659.4C390.941 655 388.741 648.95 388.741 641.25V600.45H366.391V583.5H388.741V560.25H407.641V583.5H439.291V600.45H407.641V641.25C407.641 646.45 410.191 649.05 415.291 649.05H437.791V666H413.941ZM494.883 667.35C487.883 667.35 481.783 666.05 476.583 663.45C471.483 660.75 467.483 657 464.583 652.2C461.783 647.3 460.383 641.55 460.383 634.95V614.55C460.383 607.95 461.783 602.25 464.583 597.45C467.483 592.55 471.483 588.8 476.583 586.2C481.783 583.5 487.883 582.15 494.883 582.15C501.983 582.15 508.083 583.5 513.183 586.2C518.283 588.8 522.233 592.55 525.033 597.45C527.933 602.25 529.383 607.9 529.383 614.4V634.95C529.383 641.55 527.933 647.3 525.033 652.2C522.233 657 518.283 660.75 513.183 663.45C508.083 666.05 501.983 667.35 494.883 667.35ZM494.883 651C499.883 651 503.733 649.65 506.433 646.95C509.233 644.15 510.633 640.15 510.633 634.95V614.55C510.633 609.25 509.233 605.25 506.433 602.55C503.733 599.85 499.883 598.5 494.883 598.5C489.983 598.5 486.133 599.85 483.333 602.55C480.533 605.25 479.133 609.25 479.133 614.55V634.95C479.133 640.15 480.533 644.15 483.333 646.95C486.133 649.65 489.983 651 494.883 651ZM553.924 666V583.5H571.624V599.25H576.274L570.724 608.85C570.724 599.95 572.724 593.25 576.724 588.75C580.724 584.25 586.624 582 594.424 582C603.324 582 610.324 584.75 615.424 590.25C620.524 595.75 623.074 603.35 623.074 613.05V619.05H603.424V614.4C603.424 609.1 602.024 605 599.224 602.1C596.524 599.2 592.774 597.75 587.974 597.75C583.074 597.75 579.274 599.2 576.574 602.1C573.974 605 572.674 609.1 572.674 614.4V666H553.924ZM674.916 667.5C667.916 667.5 661.816 666.15 656.616 663.45C651.416 660.75 647.366 657 644.466 652.2C641.666 647.3 640.266 641.6 640.266 635.1V614.4C640.266 607.9 641.666 602.25 644.466 597.45C647.366 592.55 651.416 588.75 656.616 586.05C661.816 583.35 667.916 582 674.916 582C681.816 582 687.816 583.35 692.916 586.05C698.116 588.75 702.116 592.55 704.916 597.45C707.816 602.25 709.266 607.9 709.266 614.4V629.25H658.416V635.1C658.416 640.9 659.816 645.3 662.616 648.3C665.416 651.2 669.566 652.65 675.066 652.65C679.266 652.65 682.666 651.95 685.266 650.55C687.866 649.05 689.516 646.9 690.216 644.1H708.666C707.266 651.2 703.466 656.9 697.266 661.2C691.166 665.4 683.716 667.5 674.916 667.5ZM691.116 618.75V614.25C691.116 608.55 689.766 604.2 687.066 601.2C684.366 598.1 680.316 596.55 674.916 596.55C669.516 596.55 665.416 598.1 662.616 601.2C659.816 604.3 658.416 608.7 658.416 614.4V617.55L692.466 617.25L691.116 618.75ZM761.557 667.35C755.257 667.35 749.757 666.35 745.057 664.35C740.357 662.35 736.657 659.6 733.957 656.1C731.357 652.5 729.957 648.3 729.757 643.5H748.507C748.707 646.1 749.957 648.2 752.257 649.8C754.657 651.4 757.757 652.2 761.557 652.2H768.157C772.757 652.2 776.207 651.3 778.507 649.5C780.807 647.7 781.957 645.25 781.957 642.15C781.957 639.25 780.907 637 778.807 635.4C776.807 633.7 773.657 632.6 769.357 632.1L759.157 630.6C749.757 629.3 742.857 626.8 738.457 623.1C734.057 619.4 731.857 613.85 731.857 606.45C731.857 598.75 734.457 592.8 739.657 588.6C744.857 584.3 752.507 582.15 762.607 582.15H768.307C777.507 582.15 784.857 584.2 790.357 588.3C795.857 592.4 798.807 597.9 799.207 604.8H780.457C780.157 602.6 778.907 600.8 776.707 599.4C774.607 598 771.807 597.3 768.307 597.3H762.607C758.307 597.3 755.157 598.1 753.157 599.7C751.257 601.2 750.307 603.45 750.307 606.45C750.307 609.25 751.157 611.35 752.857 612.75C754.557 614.05 757.307 615 761.107 615.6L771.757 617.1C781.557 618.5 788.757 621.15 793.357 625.05C798.057 628.85 800.407 634.5 800.407 642C800.407 650 797.657 656.25 792.157 660.75C786.757 665.15 778.757 667.35 768.157 667.35H761.557Z" fill="white"/>
<path d="M761.05 968.75C760.183 968.75 759.45 968.483 758.85 967.95C758.283 967.383 758 966.633 758 965.7C758 964.767 758.283 964.033 758.85 963.5C759.45 962.967 760.183 962.7 761.05 962.7C761.917 962.7 762.633 962.967 763.2 963.5C763.8 964.033 764.1 964.767 764.1 965.7C764.1 966.633 763.8 967.383 763.2 967.95C762.633 968.483 761.917 968.75 761.05 968.75ZM763.45 974.5V996.15C763.45 996.883 763.833 997.367 764.6 997.6C765.367 997.833 766.35 997.95 767.55 997.95H767.6V1000H754.9V997.95H754.95C756.117 997.95 757.083 997.833 757.85 997.6C758.617 997.367 759 996.883 759 996.15V978.95C759 978.217 758.7 977.717 758.1 977.45C757.533 977.15 756.633 976.9 755.4 976.7L754.85 976.6V974.5H763.45ZM770.621 1000V997.95H770.721C771.488 997.95 772.171 997.9 772.771 997.8C773.405 997.7 773.888 997.517 774.221 997.25C774.588 996.983 774.771 996.617 774.771 996.15V978.95C774.771 978.45 774.638 978.067 774.371 977.8C774.105 977.533 773.705 977.317 773.171 977.15C772.638 976.983 771.955 976.833 771.121 976.7L770.621 976.6V974.5H778.771V979.75L779.221 980.3V997.45C779.221 997.55 779.405 997.633 779.771 997.7C780.171 997.767 780.655 997.833 781.221 997.9C781.788 997.933 782.321 997.95 782.821 997.95H782.921V1000H770.621ZM799.721 1000H787.421V997.95H787.521C787.988 997.95 788.505 997.933 789.071 997.9C789.638 997.867 790.121 997.817 790.521 997.75C790.955 997.65 791.171 997.55 791.171 997.45V982.45C791.171 981.117 791.021 980.05 790.721 979.25C790.455 978.417 790.005 977.8 789.371 977.4C788.738 977 787.888 976.8 786.821 976.8C785.721 976.8 784.671 977.033 783.671 977.5C782.671 977.967 781.721 978.65 780.821 979.55C779.955 980.417 779.121 981.5 778.321 982.8L778.121 979.95C779.021 978.65 779.938 977.55 780.871 976.65C781.838 975.75 782.871 975.083 783.971 974.65C785.071 974.217 786.321 974 787.721 974C789.321 974 790.705 974.283 791.871 974.85C793.038 975.417 793.955 976.3 794.621 977.5C795.288 978.667 795.621 980.183 795.621 982.05V996.15C795.621 996.617 795.788 996.983 796.121 997.25C796.455 997.517 796.921 997.7 797.521 997.8C798.155 997.9 798.855 997.95 799.621 997.95H799.721V1000ZM831.009 993.5C831.009 992.8 830.825 992.217 830.459 991.75C830.092 991.25 829.592 990.833 828.959 990.5C828.359 990.167 827.659 989.883 826.859 989.65C826.059 989.417 825.225 989.2 824.359 989C823.325 988.7 822.309 988.383 821.309 988.05C820.309 987.717 819.392 987.267 818.559 986.7C817.725 986.133 817.059 985.417 816.559 984.55C816.059 983.683 815.809 982.583 815.809 981.25C815.809 979.817 816.175 978.567 816.909 977.5C817.642 976.4 818.692 975.55 820.059 974.95C821.425 974.317 823.092 974 825.059 974C826.525 974 827.825 974.117 828.959 974.35C830.092 974.583 831.042 974.883 831.809 975.25C832.575 975.583 833.142 975.9 833.509 976.2V981.45H829.309V976.7C829.642 976.667 829.925 976.717 830.159 976.85C830.425 976.983 830.625 977.167 830.759 977.4C830.925 977.633 831.025 977.9 831.059 978.2C831.092 978.467 831.075 978.75 831.009 979.05C830.642 978.517 830.159 978.067 829.559 977.7C828.959 977.3 828.275 977.017 827.509 976.85C826.775 976.65 825.959 976.55 825.059 976.55C823.259 976.55 821.909 976.95 821.009 977.75C820.142 978.517 819.709 979.5 819.709 980.7C819.709 981.467 819.909 982.117 820.309 982.65C820.709 983.15 821.242 983.567 821.909 983.9C822.575 984.233 823.309 984.517 824.109 984.75C824.942 984.983 825.809 985.217 826.709 985.45C827.709 985.717 828.709 986.033 829.709 986.4C830.709 986.733 831.609 987.167 832.409 987.7C833.209 988.233 833.842 988.917 834.309 989.75C834.809 990.55 835.059 991.583 835.059 992.85C835.059 994.283 834.659 995.583 833.859 996.75C833.059 997.917 831.925 998.833 830.459 999.5C828.992 1000.17 827.225 1000.5 825.159 1000.5C823.525 1000.5 822.075 1000.37 820.809 1000.1C819.542 999.833 818.409 999.483 817.409 999.05C816.409 998.617 815.542 998.15 814.809 997.65V992.1H819.109V998.3C818.642 998.033 818.275 997.767 818.009 997.5C817.775 997.233 817.609 996.967 817.509 996.7C817.409 996.433 817.375 996.167 817.409 995.9C817.442 995.633 817.525 995.333 817.659 995C818.159 995.7 818.775 996.267 819.509 996.7C820.275 997.1 821.125 997.417 822.059 997.65C822.992 997.85 824.009 997.95 825.109 997.95C826.342 997.95 827.392 997.783 828.259 997.45C829.159 997.083 829.842 996.567 830.309 995.9C830.775 995.233 831.009 994.433 831.009 993.5ZM864.944 987.25C864.944 989.85 864.377 992.15 863.244 994.15C862.11 996.15 860.56 997.717 858.594 998.85C856.627 999.95 854.377 1000.5 851.844 1000.5C849.344 1000.5 847.094 999.95 845.094 998.85C843.127 997.717 841.577 996.15 840.444 994.15C839.344 992.15 838.794 989.85 838.794 987.25C838.794 985.317 839.11 983.533 839.744 981.9C840.377 980.267 841.277 978.867 842.444 977.7C843.644 976.533 845.027 975.633 846.594 975C848.194 974.333 849.944 974 851.844 974C853.744 974 855.477 974.333 857.044 975C858.644 975.633 860.027 976.533 861.194 977.7C862.394 978.867 863.31 980.267 863.944 981.9C864.61 983.533 864.944 985.317 864.944 987.25ZM843.494 987.25C843.494 989.383 843.827 991.267 844.494 992.9C845.16 994.5 846.11 995.75 847.344 996.65C848.61 997.517 850.11 997.95 851.844 997.95C853.61 997.95 855.11 997.517 856.344 996.65C857.577 995.75 858.527 994.5 859.194 992.9C859.894 991.267 860.244 989.383 860.244 987.25C860.244 985.083 859.894 983.2 859.194 981.6C858.527 980 857.577 978.767 856.344 977.9C855.11 977 853.61 976.55 851.844 976.55C850.11 976.55 848.61 977 847.344 977.9C846.11 978.767 845.16 980 844.494 981.6C843.827 983.2 843.494 985.083 843.494 987.25ZM877.46 963.05V996.15C877.46 996.883 877.827 997.367 878.56 997.6C879.327 997.833 880.293 997.95 881.46 997.95H881.56V1000H868.86V997.95H868.96C870.127 997.95 871.093 997.833 871.86 997.6C872.627 997.367 873.01 996.883 873.01 996.15V967.55C873.01 967.05 872.877 966.667 872.61 966.4C872.343 966.133 871.943 965.917 871.41 965.75C870.877 965.583 870.193 965.433 869.36 965.3L868.81 965.2V963.05H877.46ZM890.542 968.75C889.676 968.75 888.942 968.483 888.342 967.95C887.776 967.383 887.492 966.633 887.492 965.7C887.492 964.767 887.776 964.033 888.342 963.5C888.942 962.967 889.676 962.7 890.542 962.7C891.409 962.7 892.126 962.967 892.692 963.5C893.292 964.033 893.592 964.767 893.592 965.7C893.592 966.633 893.292 967.383 892.692 967.95C892.126 968.483 891.409 968.75 890.542 968.75ZM892.942 974.5V996.15C892.942 996.883 893.326 997.367 894.092 997.6C894.859 997.833 895.842 997.95 897.042 997.95H897.092V1000H884.392V997.95H884.442C885.609 997.95 886.576 997.833 887.342 997.6C888.109 997.367 888.492 996.883 888.492 996.15V978.95C888.492 978.217 888.192 977.717 887.592 977.45C887.026 977.15 886.126 976.9 884.892 976.7L884.342 976.6V974.5H892.942ZM925.114 996.15C925.114 996.883 925.497 997.367 926.264 997.6C927.03 997.833 928.014 997.95 929.214 997.95H929.264V1000H921.014V994.3H920.664V967.55C920.664 967.05 920.53 966.667 920.264 966.4C919.997 966.133 919.58 965.917 919.014 965.75C918.48 965.583 917.78 965.433 916.914 965.3L916.364 965.2V963.05H925.114V996.15ZM912.514 974C913.947 974 915.197 974.217 916.264 974.65C917.364 975.05 918.38 975.7 919.314 976.6C920.247 977.5 921.13 978.667 921.964 980.1L921.664 983.65C920.964 982.017 920.164 980.683 919.264 979.65C918.397 978.583 917.414 977.817 916.314 977.35C915.247 976.85 914.064 976.6 912.764 976.6C911.53 976.6 910.43 976.85 909.464 977.35C908.53 977.85 907.747 978.583 907.114 979.55C906.48 980.483 905.997 981.617 905.664 982.95C905.33 984.283 905.164 985.783 905.164 987.45C905.164 989.017 905.314 990.45 905.614 991.75C905.947 993.017 906.43 994.117 907.064 995.05C907.697 995.983 908.48 996.7 909.414 997.2C910.347 997.667 911.397 997.9 912.564 997.9C913.964 997.9 915.197 997.617 916.264 997.05C917.364 996.45 918.347 995.6 919.214 994.5C920.114 993.4 920.93 992.05 921.664 990.45L921.914 993.8C921.014 995.3 920.097 996.55 919.164 997.55C918.23 998.517 917.197 999.25 916.064 999.75C914.93 1000.25 913.63 1000.5 912.164 1000.5C909.864 1000.5 907.83 999.967 906.064 998.9C904.33 997.8 902.964 996.267 901.964 994.3C900.964 992.333 900.464 990.05 900.464 987.45C900.464 984.783 900.964 982.45 901.964 980.45C902.997 978.417 904.414 976.833 906.214 975.7C908.047 974.567 910.147 974 912.514 974ZM934.146 983.35H948.046V986.95H934.146V983.35ZM957.626 1002.3V978.95C957.626 978.45 957.476 978.067 957.176 977.8C956.876 977.5 956.442 977.267 955.876 977.1C955.309 976.933 954.559 976.8 953.626 976.7L952.926 976.6V974.5H962.076V1002.3C962.076 1004.17 961.809 1005.72 961.276 1006.95C960.742 1008.18 960.026 1009.15 959.126 1009.85C958.259 1010.58 957.276 1011.1 956.176 1011.4C955.076 1011.7 953.959 1011.85 952.826 1011.85C952.192 1011.85 951.576 1011.8 950.976 1011.7C950.342 1011.63 949.792 1011.52 949.326 1011.35V1008.5C949.792 1008.67 950.309 1008.8 950.876 1008.9C951.442 1009.03 952.059 1009.1 952.726 1009.1C953.726 1009.1 954.576 1008.88 955.276 1008.45C956.009 1008.05 956.576 1007.35 956.976 1006.35C957.409 1005.35 957.626 1004 957.626 1002.3ZM959.626 968.75C958.759 968.75 958.026 968.483 957.426 967.95C956.859 967.383 956.576 966.633 956.576 965.7C956.576 964.767 956.859 964.033 957.426 963.5C958.026 962.967 958.759 962.7 959.626 962.7C960.492 962.7 961.209 962.967 961.776 963.5C962.376 964.033 962.676 964.767 962.676 965.7C962.676 966.633 962.376 967.383 961.776 967.95C961.209 968.483 960.492 968.75 959.626 968.75ZM984.671 993.5C984.671 992.8 984.487 992.217 984.121 991.75C983.754 991.25 983.254 990.833 982.621 990.5C982.021 990.167 981.321 989.883 980.521 989.65C979.721 989.417 978.887 989.2 978.021 989C976.987 988.7 975.971 988.383 974.971 988.05C973.971 987.717 973.054 987.267 972.221 986.7C971.387 986.133 970.721 985.417 970.221 984.55C969.721 983.683 969.471 982.583 969.471 981.25C969.471 979.817 969.837 978.567 970.571 977.5C971.304 976.4 972.354 975.55 973.721 974.95C975.087 974.317 976.754 974 978.721 974C980.187 974 981.487 974.117 982.621 974.35C983.754 974.583 984.704 974.883 985.471 975.25C986.237 975.583 986.804 975.9 987.171 976.2V981.45H982.971V976.7C983.304 976.667 983.587 976.717 983.821 976.85C984.087 976.983 984.287 977.167 984.421 977.4C984.587 977.633 984.687 977.9 984.721 978.2C984.754 978.467 984.737 978.75 984.671 979.05C984.304 978.517 983.821 978.067 983.221 977.7C982.621 977.3 981.937 977.017 981.171 976.85C980.437 976.65 979.621 976.55 978.721 976.55C976.921 976.55 975.571 976.95 974.671 977.75C973.804 978.517 973.371 979.5 973.371 980.7C973.371 981.467 973.571 982.117 973.971 982.65C974.371 983.15 974.904 983.567 975.571 983.9C976.237 984.233 976.971 984.517 977.771 984.75C978.604 984.983 979.471 985.217 980.371 985.45C981.371 985.717 982.371 986.033 983.371 986.4C984.371 986.733 985.271 987.167 986.071 987.7C986.871 988.233 987.504 988.917 987.971 989.75C988.471 990.55 988.721 991.583 988.721 992.85C988.721 994.283 988.321 995.583 987.521 996.75C986.721 997.917 985.587 998.833 984.121 999.5C982.654 1000.17 980.887 1000.5 978.821 1000.5C977.187 1000.5 975.737 1000.37 974.471 1000.1C973.204 999.833 972.071 999.483 971.071 999.05C970.071 998.617 969.204 998.15 968.471 997.65V992.1H972.771V998.3C972.304 998.033 971.937 997.767 971.671 997.5C971.437 997.233 971.271 996.967 971.171 996.7C971.071 996.433 971.037 996.167 971.071 995.9C971.104 995.633 971.187 995.333 971.321 995C971.821 995.7 972.437 996.267 973.171 996.7C973.937 997.1 974.787 997.417 975.721 997.65C976.654 997.85 977.671 997.95 978.771 997.95C980.004 997.95 981.054 997.783 981.921 997.45C982.821 997.083 983.504 996.567 983.971 995.9C984.437 995.233 984.671 994.433 984.671 993.5Z" fill="white"/>
<defs>
<linearGradient id="paint0_linear_0_1" x1="204.917" y1="322.014" x2="385.46" y2="409.418" gradientUnits="userSpaceOnUse">
<stop offset="0.1" stop-color="#76B3E1"/>
<stop offset="0.3" stop-color="#DCF2FD"/>
<stop offset="1" stop-color="#76B3E1"/>
</linearGradient>
<linearGradient id="paint1_linear_0_1" x1="320.884" y1="368.49" x2="310.193" y2="403.96" gradientUnits="userSpaceOnUse">
<stop stop-color="#76B3E1"/>
<stop offset="0.5" stop-color="#4377BB"/>
<stop offset="1" stop-color="#1F3B77"/>
</linearGradient>
<linearGradient id="paint2_linear_0_1" x1="189.466" y1="428.014" x2="357.577" y2="541.879" gradientUnits="userSpaceOnUse">
<stop stop-color="#315AA9"/>
<stop offset="0.5" stop-color="#518AC8"/>
<stop offset="1" stop-color="#315AA9"/>
</linearGradient>
<linearGradient id="paint3_linear_0_1" x1="285.908" y1="469.972" x2="262.361" y2="555.999" gradientUnits="userSpaceOnUse">
<stop stop-color="#4377BB"/>
<stop offset="0.5" stop-color="#1A336B"/>
<stop offset="1" stop-color="#1A336B"/>
</linearGradient>
<clipPath id="clip0_0_1">
<rect width="270" height="253" fill="white" transform="translate(165 282)"/>
</clipPath>
</defs>
</svg>
