<svg width="1080" height="1080" viewBox="0 0 1080 1080" fill="none" xmlns="http://www.w3.org/2000/svg">
<rect width="1080" height="1080" fill="#1E1E1E"/>
<g clip-path="url(#clip0_0_1)">
<rect width="1080" height="1080" fill="#1F3B77"/>
<g opacity="0.2" clip-path="url(#clip1_0_1)">
<path d="M721.212 73.7748C722.327 74.4858 723.21 75.054 723.852 75.4695L608.536 247.598L311.254 195.506L310.972 195.456L310.691 195.514C226.79 212.855 136.389 195.514 65.3647 155.029L65.1359 154.898L64.8764 154.854L-101.463 126.205L-5.46489 -22.8304L7.44562 -40.1754C26.6342 -63.0657 58.7186 -80.3609 97.4674 -91.9294L116.848 -97.7155C249.288 -123.727 401.269 -80.332 520.319 -30.2815C579.822 -5.26568 631.03 21.3833 667.363 41.7785C685.528 51.9756 699.972 60.608 709.873 66.6895C714.823 69.7302 718.637 72.1331 721.212 73.7748Z" fill="#76B3E1" stroke="white" stroke-width="3"/>
<path opacity="0.3" d="M721.212 73.7748C722.327 74.4858 723.21 75.054 723.852 75.4695L608.536 247.598L311.254 195.506L310.972 195.456L310.691 195.514C226.79 212.855 136.389 195.514 65.3647 155.029L65.1359 154.898L64.8764 154.854L-101.463 126.205L-5.46489 -22.8304L7.44562 -40.1754C26.6342 -63.0657 58.7186 -80.3609 97.4674 -91.9294L116.848 -97.7155C249.288 -123.727 401.269 -80.332 520.319 -30.2815C579.822 -5.26568 631.03 21.3833 667.363 41.7785C685.528 51.9756 699.972 60.608 709.873 66.6895C714.823 69.7302 718.637 72.1331 721.212 73.7748Z" fill="url(#paint0_linear_0_1)" stroke="white" stroke-width="3"/>
<path d="M604.51 247.985C604.946 248.263 605.347 248.52 605.711 248.754L206.85 369.754C152.047 384.184 90.7407 381.304 35.045 365.399C-20.6439 349.496 -70.5897 320.611 -102.771 283.164C-131.677 242.863 -137.99 199.864 -123.628 163.42C-109.258 126.956 -74.0635 96.7351 -19.3098 82.3051L6.58034 76.508C135.783 50.4763 286.161 93.8689 404.423 143.928C463.521 168.944 514.527 195.593 550.759 215.988C568.874 226.185 583.293 234.818 593.181 240.9C598.125 243.94 601.936 246.343 604.51 247.985Z" fill="#518AC8" stroke="white" stroke-width="3"/>
<path opacity="0.3" d="M604.51 247.985C604.946 248.263 605.347 248.52 605.711 248.754L206.85 369.754C152.047 384.184 90.7407 381.304 35.045 365.399C-20.6439 349.496 -70.5897 320.611 -102.771 283.164C-131.677 242.863 -137.99 199.864 -123.628 163.42C-109.258 126.956 -74.0635 96.7351 -19.3098 82.3051L6.58034 76.508C135.783 50.4763 286.161 93.8689 404.423 143.928C463.521 168.944 514.527 195.593 550.759 215.988C568.874 226.185 583.293 234.818 593.181 240.9C598.125 243.94 601.936 246.343 604.51 247.985Z" fill="url(#paint1_linear_0_1)" stroke="white" stroke-width="3"/>
<path d="M549.621 469.109L549.615 469.117L549.61 469.125L420.462 677.336L-302.438 567.498L-174.312 366.674L227.096 250.7C227.1 250.699 227.105 250.698 227.109 250.697C340.432 220.41 462.884 254.705 536.74 337.289C568.892 383.407 575.109 429.159 549.621 469.109Z" fill="url(#paint2_linear_0_1)" stroke="white" stroke-width="3"/>
<path d="M-301.413 569.177L97.4257 453.945C97.4306 453.944 97.4355 453.942 97.4404 453.941C210.733 423.662 333.159 457.934 407.02 540.477L407.107 540.578C439.208 577.952 445.516 619.457 430.37 655.156C415.2 690.912 378.371 721.155 323.58 735.588L323.556 735.594L323.533 735.601L304.137 741.392C171.712 770.3 19.7408 726.914 -99.3119 676.137C-158.812 650.76 -210.019 623.568 -246.35 602.721C-264.515 592.297 -278.959 583.461 -288.859 577.233C-293.809 574.118 -297.623 571.656 -300.198 569.974C-300.64 569.685 -301.045 569.419 -301.413 569.177Z" fill="url(#paint3_linear_0_1)" stroke="white" stroke-width="3"/>
</g>
<path d="M439.25 982.15C438.383 982.15 437.75 981.95 437.35 981.55C436.983 981.117 436.8 980.567 436.8 979.9V979.25C436.8 978.583 436.983 978.05 437.35 977.65C437.75 977.217 438.383 977 439.25 977C440.117 977 440.733 977.217 441.1 977.65C441.5 978.05 441.7 978.583 441.7 979.25V979.9C441.7 980.567 441.5 981.117 441.1 981.55C440.733 981.95 440.117 982.15 439.25 982.15ZM437.25 988.2H441.25V1014H437.25V988.2ZM449.75 1014V988.2H453.75V992.4H453.95C454.583 990.933 455.467 989.767 456.6 988.9C457.767 988.033 459.317 987.6 461.25 987.6C463.917 987.6 466.017 988.467 467.55 990.2C469.117 991.9 469.9 994.317 469.9 997.45V1014H465.9V998.15C465.9 993.517 463.95 991.2 460.05 991.2C459.25 991.2 458.467 991.3 457.7 991.5C456.967 991.7 456.3 992 455.7 992.4C455.1 992.8 454.617 993.317 454.25 993.95C453.917 994.55 453.75 995.267 453.75 996.1V1014H449.75ZM500.184 1014.6C497.351 1014.6 494.934 1014.07 492.934 1013C490.934 1011.9 489.234 1010.4 487.834 1008.5L490.934 1005.9C492.168 1007.53 493.534 1008.78 495.034 1009.65C496.534 1010.48 498.301 1010.9 500.334 1010.9C502.834 1010.9 504.734 1010.3 506.034 1009.1C507.368 1007.9 508.034 1006.3 508.034 1004.3C508.034 1002.63 507.534 1001.35 506.534 1000.45C505.534 999.55 503.884 998.833 501.584 998.3L498.734 997.65C495.534 996.917 493.084 995.817 491.384 994.35C489.718 992.85 488.884 990.75 488.884 988.05C488.884 986.517 489.168 985.15 489.734 983.95C490.301 982.75 491.084 981.75 492.084 980.95C493.118 980.15 494.334 979.55 495.734 979.15C497.168 978.717 498.734 978.5 500.434 978.5C503.068 978.5 505.318 978.983 507.184 979.95C509.084 980.917 510.684 982.333 511.984 984.2L508.834 986.5C507.868 985.167 506.701 984.117 505.334 983.35C503.968 982.583 502.268 982.2 500.234 982.2C498.001 982.2 496.234 982.683 494.934 983.65C493.668 984.583 493.034 986 493.034 987.9C493.034 989.567 493.568 990.833 494.634 991.7C495.734 992.533 497.384 993.2 499.584 993.7L502.434 994.35C505.868 995.117 508.351 996.283 509.884 997.85C511.418 999.417 512.184 1001.5 512.184 1004.1C512.184 1005.7 511.901 1007.15 511.334 1008.45C510.801 1009.75 510.018 1010.85 508.984 1011.75C507.951 1012.65 506.684 1013.35 505.184 1013.85C503.718 1014.35 502.051 1014.6 500.184 1014.6ZM528.787 1014.6C527.054 1014.6 525.47 1014.28 524.037 1013.65C522.604 1013.02 521.37 1012.12 520.337 1010.95C519.337 1009.75 518.554 1008.33 517.987 1006.7C517.42 1005.03 517.137 1003.17 517.137 1001.1C517.137 999.067 517.42 997.217 517.987 995.55C518.554 993.883 519.337 992.467 520.337 991.3C521.37 990.1 522.604 989.183 524.037 988.55C525.47 987.917 527.054 987.6 528.787 987.6C530.52 987.6 532.087 987.917 533.487 988.55C534.92 989.183 536.154 990.1 537.187 991.3C538.22 992.467 539.02 993.883 539.587 995.55C540.154 997.217 540.437 999.067 540.437 1001.1C540.437 1003.17 540.154 1005.03 539.587 1006.7C539.02 1008.33 538.22 1009.75 537.187 1010.95C536.154 1012.12 534.92 1013.02 533.487 1013.65C532.087 1014.28 530.52 1014.6 528.787 1014.6ZM528.787 1011.05C530.954 1011.05 532.72 1010.38 534.087 1009.05C535.454 1007.72 536.137 1005.68 536.137 1002.95V999.25C536.137 996.517 535.454 994.483 534.087 993.15C532.72 991.817 530.954 991.15 528.787 991.15C526.62 991.15 524.854 991.817 523.487 993.15C522.12 994.483 521.437 996.517 521.437 999.25V1002.95C521.437 1005.68 522.12 1007.72 523.487 1009.05C524.854 1010.38 526.62 1011.05 528.787 1011.05ZM551.266 1014C549.866 1014 548.799 1013.62 548.066 1012.85C547.366 1012.05 547.016 1011.05 547.016 1009.85V977H551.016V1010.5H554.816V1014H551.266ZM562.639 982.15C561.772 982.15 561.139 981.95 560.739 981.55C560.372 981.117 560.189 980.567 560.189 979.9V979.25C560.189 978.583 560.372 978.05 560.739 977.65C561.139 977.217 561.772 977 562.639 977C563.505 977 564.122 977.217 564.489 977.65C564.889 978.05 565.089 978.583 565.089 979.25V979.9C565.089 980.567 564.889 981.117 564.489 981.55C564.122 981.95 563.505 982.15 562.639 982.15ZM560.639 988.2H564.639V1014H560.639V988.2ZM589.639 1009.8H589.439C587.872 1013 585.355 1014.6 581.889 1014.6C580.289 1014.6 578.839 1014.28 577.539 1013.65C576.239 1013.02 575.122 1012.12 574.189 1010.95C573.289 1009.78 572.589 1008.37 572.089 1006.7C571.622 1005.03 571.389 1003.17 571.389 1001.1C571.389 999.033 571.622 997.167 572.089 995.5C572.589 993.833 573.289 992.417 574.189 991.25C575.122 990.083 576.239 989.183 577.539 988.55C578.839 987.917 580.289 987.6 581.889 987.6C583.689 987.6 585.222 988 586.489 988.8C587.789 989.567 588.772 990.767 589.439 992.4H589.639V977H593.639V1014H589.639V1009.8ZM582.989 1011C583.889 1011 584.739 1010.88 585.539 1010.65C586.372 1010.42 587.089 1010.08 587.689 1009.65C588.289 1009.18 588.755 1008.63 589.089 1008C589.455 1007.33 589.639 1006.58 589.639 1005.75V996.15C589.639 995.45 589.455 994.8 589.089 994.2C588.755 993.567 588.289 993.033 587.689 992.6C587.089 992.167 586.372 991.833 585.539 991.6C584.739 991.333 583.889 991.2 582.989 991.2C580.722 991.2 578.939 991.917 577.639 993.35C576.339 994.75 575.689 996.6 575.689 998.9V1003.3C575.689 1005.6 576.339 1007.47 577.639 1008.9C578.939 1010.3 580.722 1011 582.989 1011ZM618.993 979.1V1004.95C618.993 1006.42 618.743 1007.75 618.243 1008.95C617.776 1010.15 617.093 1011.17 616.193 1012C615.326 1012.83 614.276 1013.48 613.043 1013.95C611.809 1014.38 610.459 1014.6 608.993 1014.6C606.293 1014.6 604.109 1013.88 602.443 1012.45C600.809 1010.98 599.759 1009.05 599.293 1006.65L603.093 1005.75C603.426 1007.25 604.059 1008.48 604.993 1009.45C605.926 1010.38 607.293 1010.85 609.093 1010.85C610.893 1010.85 612.293 1010.3 613.293 1009.2C614.293 1008.1 614.793 1006.43 614.793 1004.2V982.8H602.793V979.1H618.993ZM637.831 1014.6C634.998 1014.6 632.581 1014.07 630.581 1013C628.581 1011.9 626.881 1010.4 625.481 1008.5L628.581 1005.9C629.814 1007.53 631.181 1008.78 632.681 1009.65C634.181 1010.48 635.948 1010.9 637.981 1010.9C640.481 1010.9 642.381 1010.3 643.681 1009.1C645.014 1007.9 645.681 1006.3 645.681 1004.3C645.681 1002.63 645.181 1001.35 644.181 1000.45C643.181 999.55 641.531 998.833 639.231 998.3L636.381 997.65C633.181 996.917 630.731 995.817 629.031 994.35C627.364 992.85 626.531 990.75 626.531 988.05C626.531 986.517 626.814 985.15 627.381 983.95C627.948 982.75 628.731 981.75 629.731 980.95C630.764 980.15 631.981 979.55 633.381 979.15C634.814 978.717 636.381 978.5 638.081 978.5C640.714 978.5 642.964 978.983 644.831 979.95C646.731 980.917 648.331 982.333 649.631 984.2L646.481 986.5C645.514 985.167 644.348 984.117 642.981 983.35C641.614 982.583 639.914 982.2 637.881 982.2C635.648 982.2 633.881 982.683 632.581 983.65C631.314 984.583 630.681 986 630.681 987.9C630.681 989.567 631.214 990.833 632.281 991.7C633.381 992.533 635.031 993.2 637.231 993.7L640.081 994.35C643.514 995.117 645.998 996.283 647.531 997.85C649.064 999.417 649.831 1001.5 649.831 1004.1C649.831 1005.7 649.548 1007.15 648.981 1008.45C648.448 1009.75 647.664 1010.85 646.631 1011.75C645.598 1012.65 644.331 1013.35 642.831 1013.85C641.364 1014.35 639.698 1014.6 637.831 1014.6Z" fill="white"/>
<path d="M443.35 927V848.25H465.55V861.6H466.45C467.85 857.5 470.3 853.95 473.8 850.95C477.3 847.95 482.15 846.45 488.35 846.45C496.45 846.45 502.55 849.15 506.65 854.55C510.85 859.95 512.95 867.65 512.95 877.65V927H490.75V879.45C490.75 874.35 489.95 870.6 488.35 868.2C486.75 865.7 483.9 864.45 479.8 864.45C478 864.45 476.25 864.7 474.55 865.2C472.85 865.6 471.3 866.3 469.9 867.3C468.6 868.3 467.55 869.55 466.75 871.05C465.95 872.45 465.55 874.1 465.55 876V927H443.35ZM590.905 927C586.905 927 583.555 925.75 580.855 923.25C578.255 920.75 576.605 917.4 575.905 913.2H575.005C573.805 918.3 571.155 922.2 567.055 924.9C562.955 927.5 557.905 928.8 551.905 928.8C544.005 928.8 537.955 926.7 533.755 922.5C529.555 918.3 527.455 912.75 527.455 905.85C527.455 897.55 530.455 891.4 536.455 887.4C542.555 883.3 550.805 881.25 561.205 881.25H573.655V876.3C573.655 872.5 572.655 869.5 570.655 867.3C568.655 865 565.305 863.85 560.605 863.85C556.205 863.85 552.705 864.8 550.105 866.7C547.505 868.6 545.355 870.75 543.655 873.15L530.455 861.45C533.655 856.75 537.655 853.1 542.455 850.5C547.355 847.8 553.955 846.45 562.255 846.45C573.455 846.45 581.855 848.9 587.455 853.8C593.055 858.7 595.855 865.85 595.855 875.25V909.75H603.205V927H590.905ZM560.155 913.35C563.855 913.35 567.005 912.55 569.605 910.95C572.305 909.35 573.655 906.75 573.655 903.15V893.85H562.855C554.155 893.85 549.805 896.8 549.805 902.7V904.95C549.805 907.85 550.705 910 552.505 911.4C554.305 912.7 556.855 913.35 560.155 913.35ZM633.441 927L607.641 848.25H629.541L639.291 880.05L646.641 908.55H647.841L655.191 880.05L664.641 848.25H685.641L659.841 927H633.441ZM697.354 816H719.554V861.45H720.304C721.404 857.05 723.904 853.45 727.804 850.65C731.804 847.85 736.354 846.45 741.454 846.45C751.454 846.45 759.004 849.95 764.104 856.95C769.204 863.95 771.754 874.15 771.754 887.55C771.754 900.95 769.204 911.2 764.104 918.3C759.004 925.3 751.454 928.8 741.454 928.8C738.854 928.8 736.404 928.4 734.104 927.6C731.804 926.9 729.704 925.9 727.804 924.6C726.004 923.2 724.454 921.6 723.154 919.8C721.854 917.9 720.904 915.9 720.304 913.8H719.554V927H697.354V816ZM734.104 910.8C738.304 910.8 741.754 909.35 744.454 906.45C747.254 903.45 748.654 899.45 748.654 894.45V880.8C748.654 875.8 747.254 871.85 744.454 868.95C741.754 865.95 738.304 864.45 734.104 864.45C729.904 864.45 726.404 865.5 723.604 867.6C720.904 869.6 719.554 872.4 719.554 876V899.25C719.554 902.85 720.904 905.7 723.604 907.8C726.404 909.8 729.904 910.8 734.104 910.8ZM846.814 927C842.814 927 839.464 925.75 836.764 923.25C834.164 920.75 832.514 917.4 831.814 913.2H830.914C829.714 918.3 827.064 922.2 822.964 924.9C818.864 927.5 813.814 928.8 807.814 928.8C799.914 928.8 793.864 926.7 789.664 922.5C785.464 918.3 783.364 912.75 783.364 905.85C783.364 897.55 786.364 891.4 792.364 887.4C798.464 883.3 806.714 881.25 817.114 881.25H829.564V876.3C829.564 872.5 828.564 869.5 826.564 867.3C824.564 865 821.214 863.85 816.514 863.85C812.114 863.85 808.614 864.8 806.014 866.7C803.414 868.6 801.264 870.75 799.564 873.15L786.364 861.45C789.564 856.75 793.564 853.1 798.364 850.5C803.264 847.8 809.864 846.45 818.164 846.45C829.364 846.45 837.764 848.9 843.364 853.8C848.964 858.7 851.764 865.85 851.764 875.25V909.75H859.114V927H846.814ZM816.064 913.35C819.764 913.35 822.914 912.55 825.514 910.95C828.214 909.35 829.564 906.75 829.564 903.15V893.85H818.764C810.064 893.85 805.714 896.8 805.714 902.7V904.95C805.714 907.85 806.614 910 808.414 911.4C810.214 912.7 812.764 913.35 816.064 913.35ZM874.014 927V848.25H896.214V865.35H896.964C897.364 863.15 898.064 861.05 899.064 859.05C900.064 856.95 901.364 855.1 902.964 853.5C904.664 851.9 906.664 850.65 908.964 849.75C911.264 848.75 913.964 848.25 917.064 848.25H920.964V868.95H915.414C908.914 868.95 904.064 869.8 900.864 871.5C897.764 873.2 896.214 876.35 896.214 880.95V927H874.014Z" fill="white"/>
<path d="M459.5 739.2H441.85V755H437.65V720.1H441.85V735.5H459.5V720.1H463.7V755H459.5V739.2ZM482.352 755.6C480.618 755.6 479.035 755.283 477.602 754.65C476.168 754.017 474.935 753.117 473.902 751.95C472.902 750.75 472.118 749.333 471.552 747.7C470.985 746.033 470.702 744.167 470.702 742.1C470.702 740.067 470.985 738.217 471.552 736.55C472.118 734.883 472.902 733.467 473.902 732.3C474.935 731.1 476.168 730.183 477.602 729.55C479.035 728.917 480.618 728.6 482.352 728.6C484.085 728.6 485.652 728.917 487.052 729.55C488.485 730.183 489.718 731.1 490.752 732.3C491.785 733.467 492.585 734.883 493.152 736.55C493.718 738.217 494.002 740.067 494.002 742.1C494.002 744.167 493.718 746.033 493.152 747.7C492.585 749.333 491.785 750.75 490.752 751.95C489.718 753.117 488.485 754.017 487.052 754.65C485.652 755.283 484.085 755.6 482.352 755.6ZM482.352 752.05C484.518 752.05 486.285 751.383 487.652 750.05C489.018 748.717 489.702 746.683 489.702 743.95V740.25C489.702 737.517 489.018 735.483 487.652 734.15C486.285 732.817 484.518 732.15 482.352 732.15C480.185 732.15 478.418 732.817 477.052 734.15C475.685 735.483 475.002 737.517 475.002 740.25V743.95C475.002 746.683 475.685 748.717 477.052 750.05C478.418 751.383 480.185 752.05 482.352 752.05ZM497.636 729.2H501.536L504.286 740.35L507.036 751.65H507.136L510.286 740.35L513.536 729.2H517.086L520.436 740.35L523.636 751.65H523.736L526.386 740.35L529.186 729.2H532.936L526.086 755H521.136L517.536 742.6L515.286 734.75H515.186L512.986 742.6L509.386 755H504.536L497.636 729.2ZM556.231 755C554.831 755 553.765 754.617 553.031 753.85C552.331 753.05 551.981 752.017 551.981 750.75V732.7H547.731V729.2H550.131C550.998 729.2 551.581 729.033 551.881 728.7C552.215 728.333 552.381 727.717 552.381 726.85V722.05H555.981V729.2H561.631V732.7H555.981V751.5H561.231V755H556.231ZM577.615 755.6C575.882 755.6 574.299 755.283 572.865 754.65C571.432 754.017 570.199 753.117 569.165 751.95C568.165 750.75 567.382 749.333 566.815 747.7C566.249 746.033 565.965 744.167 565.965 742.1C565.965 740.067 566.249 738.217 566.815 736.55C567.382 734.883 568.165 733.467 569.165 732.3C570.199 731.1 571.432 730.183 572.865 729.55C574.299 728.917 575.882 728.6 577.615 728.6C579.349 728.6 580.915 728.917 582.315 729.55C583.749 730.183 584.982 731.1 586.015 732.3C587.049 733.467 587.849 734.883 588.415 736.55C588.982 738.217 589.265 740.067 589.265 742.1C589.265 744.167 588.982 746.033 588.415 747.7C587.849 749.333 587.049 750.75 586.015 751.95C584.982 753.117 583.749 754.017 582.315 754.65C580.915 755.283 579.349 755.6 577.615 755.6ZM577.615 752.05C579.782 752.05 581.549 751.383 582.915 750.05C584.282 748.717 584.965 746.683 584.965 743.95V740.25C584.965 737.517 584.282 735.483 582.915 734.15C581.549 732.817 579.782 732.15 577.615 732.15C575.449 732.15 573.682 732.817 572.315 734.15C570.949 735.483 570.265 737.517 570.265 740.25V743.95C570.265 746.683 570.949 748.717 572.315 750.05C573.682 751.383 575.449 752.05 577.615 752.05ZM617.26 755.6C615.46 755.6 613.843 755.283 612.41 754.65C610.977 754.017 609.76 753.117 608.76 751.95C607.793 750.783 607.043 749.367 606.51 747.7C606.01 746.033 605.76 744.167 605.76 742.1C605.76 740.033 606.01 738.167 606.51 736.5C607.043 734.833 607.793 733.417 608.76 732.25C609.76 731.083 610.977 730.183 612.41 729.55C613.843 728.917 615.46 728.6 617.26 728.6C619.827 728.6 621.877 729.167 623.41 730.3C624.977 731.4 626.143 732.85 626.91 734.65L623.56 736.35C623.093 735.017 622.327 733.983 621.26 733.25C620.193 732.517 618.86 732.15 617.26 732.15C616.06 732.15 615.01 732.35 614.11 732.75C613.21 733.117 612.46 733.65 611.86 734.35C611.26 735.017 610.81 735.833 610.51 736.8C610.21 737.733 610.06 738.767 610.06 739.9V744.3C610.06 746.567 610.66 748.433 611.86 749.9C613.093 751.333 614.893 752.05 617.26 752.05C620.493 752.05 622.827 750.55 624.26 747.55L627.16 749.5C626.327 751.367 625.077 752.85 623.41 753.95C621.777 755.05 619.727 755.6 617.26 755.6ZM632.807 755V729.2H636.807V733.95H637.057C637.523 732.717 638.357 731.617 639.557 730.65C640.757 729.683 642.407 729.2 644.507 729.2H646.057V733.2H643.707C641.54 733.2 639.84 733.617 638.607 734.45C637.407 735.25 636.807 736.267 636.807 737.5V755H632.807ZM660.622 755.6C658.855 755.6 657.255 755.283 655.822 754.65C654.422 754.017 653.205 753.117 652.172 751.95C651.172 750.75 650.389 749.333 649.822 747.7C649.289 746.033 649.022 744.167 649.022 742.1C649.022 740.067 649.289 738.217 649.822 736.55C650.389 734.883 651.172 733.467 652.172 732.3C653.205 731.1 654.422 730.183 655.822 729.55C657.255 728.917 658.855 728.6 660.622 728.6C662.355 728.6 663.905 728.917 665.272 729.55C666.639 730.183 667.805 731.067 668.772 732.2C669.739 733.3 670.472 734.617 670.972 736.15C671.505 737.683 671.772 739.367 671.772 741.2V743.1H653.222V744.3C653.222 745.4 653.389 746.433 653.722 747.4C654.089 748.333 654.589 749.15 655.222 749.85C655.889 750.55 656.689 751.1 657.622 751.5C658.589 751.9 659.672 752.1 660.872 752.1C662.505 752.1 663.922 751.717 665.122 750.95C666.355 750.183 667.305 749.083 667.972 747.65L670.822 749.7C669.989 751.467 668.689 752.9 666.922 754C665.155 755.067 663.055 755.6 660.622 755.6ZM660.622 731.95C659.522 731.95 658.522 732.15 657.622 732.55C656.722 732.917 655.939 733.45 655.272 734.15C654.639 734.85 654.139 735.683 653.772 736.65C653.405 737.583 653.222 738.617 653.222 739.75V740.1H667.472V739.55C667.472 737.25 666.839 735.417 665.572 734.05C664.339 732.65 662.689 731.95 660.622 731.95ZM697.113 755C695.613 755 694.53 754.6 693.863 753.8C693.23 753 692.83 752 692.663 750.8H692.413C691.847 752.4 690.913 753.6 689.613 754.4C688.313 755.2 686.763 755.6 684.963 755.6C682.23 755.6 680.097 754.9 678.563 753.5C677.063 752.1 676.313 750.2 676.313 747.8C676.313 745.367 677.197 743.5 678.963 742.2C680.763 740.9 683.547 740.25 687.313 740.25H692.413V737.7C692.413 735.867 691.913 734.467 690.913 733.5C689.913 732.533 688.38 732.05 686.313 732.05C684.747 732.05 683.43 732.4 682.363 733.1C681.33 733.8 680.463 734.733 679.763 735.9L677.363 733.65C678.063 732.25 679.18 731.067 680.713 730.1C682.247 729.1 684.18 728.6 686.513 728.6C689.647 728.6 692.08 729.367 693.813 730.9C695.547 732.433 696.413 734.567 696.413 737.3V751.5H699.363V755H697.113ZM685.613 752.2C686.613 752.2 687.53 752.083 688.363 751.85C689.197 751.617 689.913 751.283 690.513 750.85C691.113 750.417 691.58 749.917 691.913 749.35C692.247 748.783 692.413 748.167 692.413 747.5V743.25H687.113C684.813 743.25 683.13 743.583 682.063 744.25C681.03 744.917 680.513 745.883 680.513 747.15V748.2C680.513 749.467 680.963 750.45 681.863 751.15C682.797 751.85 684.047 752.2 685.613 752.2ZM710.772 755C709.372 755 708.306 754.617 707.572 753.85C706.872 753.05 706.522 752.017 706.522 750.75V732.7H702.272V729.2H704.672C705.539 729.2 706.122 729.033 706.422 728.7C706.756 728.333 706.922 727.717 706.922 726.85V722.05H710.522V729.2H716.172V732.7H710.522V751.5H715.772V755H710.772ZM732.106 755.6C730.34 755.6 728.74 755.283 727.306 754.65C725.906 754.017 724.69 753.117 723.656 751.95C722.656 750.75 721.873 749.333 721.306 747.7C720.773 746.033 720.506 744.167 720.506 742.1C720.506 740.067 720.773 738.217 721.306 736.55C721.873 734.883 722.656 733.467 723.656 732.3C724.69 731.1 725.906 730.183 727.306 729.55C728.74 728.917 730.34 728.6 732.106 728.6C733.84 728.6 735.39 728.917 736.756 729.55C738.123 730.183 739.29 731.067 740.256 732.2C741.223 733.3 741.956 734.617 742.456 736.15C742.99 737.683 743.256 739.367 743.256 741.2V743.1H724.706V744.3C724.706 745.4 724.873 746.433 725.206 747.4C725.573 748.333 726.073 749.15 726.706 749.85C727.373 750.55 728.173 751.1 729.106 751.5C730.073 751.9 731.156 752.1 732.356 752.1C733.99 752.1 735.406 751.717 736.606 750.95C737.84 750.183 738.79 749.083 739.456 747.65L742.306 749.7C741.473 751.467 740.173 752.9 738.406 754C736.64 755.067 734.54 755.6 732.106 755.6ZM732.106 731.95C731.006 731.95 730.006 732.15 729.106 732.55C728.206 732.917 727.423 733.45 726.756 734.15C726.123 734.85 725.623 735.683 725.256 736.65C724.89 737.583 724.706 738.617 724.706 739.75V740.1H738.956V739.55C738.956 737.25 738.323 735.417 737.056 734.05C735.823 732.65 734.173 731.95 732.106 731.95ZM780.414 755C778.914 755 777.831 754.6 777.164 753.8C776.531 753 776.131 752 775.964 750.8H775.714C775.147 752.4 774.214 753.6 772.914 754.4C771.614 755.2 770.064 755.6 768.264 755.6C765.531 755.6 763.397 754.9 761.864 753.5C760.364 752.1 759.614 750.2 759.614 747.8C759.614 745.367 760.497 743.5 762.264 742.2C764.064 740.9 766.847 740.25 770.614 740.25H775.714V737.7C775.714 735.867 775.214 734.467 774.214 733.5C773.214 732.533 771.681 732.05 769.614 732.05C768.047 732.05 766.731 732.4 765.664 733.1C764.631 733.8 763.764 734.733 763.064 735.9L760.664 733.65C761.364 732.25 762.481 731.067 764.014 730.1C765.547 729.1 767.481 728.6 769.814 728.6C772.947 728.6 775.381 729.367 777.114 730.9C778.847 732.433 779.714 734.567 779.714 737.3V751.5H782.664V755H780.414ZM768.914 752.2C769.914 752.2 770.831 752.083 771.664 751.85C772.497 751.617 773.214 751.283 773.814 750.85C774.414 750.417 774.881 749.917 775.214 749.35C775.547 748.783 775.714 748.167 775.714 747.5V743.25H770.414C768.114 743.25 766.431 743.583 765.364 744.25C764.331 744.917 763.814 745.883 763.814 747.15V748.2C763.814 749.467 764.264 750.45 765.164 751.15C766.097 751.85 767.347 752.2 768.914 752.2ZM800.189 755V729.2H804.189V733.95H804.439C804.906 732.717 805.739 731.617 806.939 730.65C808.139 729.683 809.789 729.2 811.889 729.2H813.439V733.2H811.089C808.923 733.2 807.223 733.617 805.989 734.45C804.789 735.25 804.189 736.267 804.189 737.5V755H800.189ZM828.005 755.6C826.238 755.6 824.638 755.283 823.205 754.65C821.805 754.017 820.588 753.117 819.555 751.95C818.555 750.75 817.771 749.333 817.205 747.7C816.671 746.033 816.405 744.167 816.405 742.1C816.405 740.067 816.671 738.217 817.205 736.55C817.771 734.883 818.555 733.467 819.555 732.3C820.588 731.1 821.805 730.183 823.205 729.55C824.638 728.917 826.238 728.6 828.005 728.6C829.738 728.6 831.288 728.917 832.655 729.55C834.021 730.183 835.188 731.067 836.155 732.2C837.121 733.3 837.855 734.617 838.355 736.15C838.888 737.683 839.155 739.367 839.155 741.2V743.1H820.605V744.3C820.605 745.4 820.771 746.433 821.105 747.4C821.471 748.333 821.971 749.15 822.605 749.85C823.271 750.55 824.071 751.1 825.005 751.5C825.971 751.9 827.055 752.1 828.255 752.1C829.888 752.1 831.305 751.717 832.505 750.95C833.738 750.183 834.688 749.083 835.355 747.65L838.205 749.7C837.371 751.467 836.071 752.9 834.305 754C832.538 755.067 830.438 755.6 828.005 755.6ZM828.005 731.95C826.905 731.95 825.905 732.15 825.005 732.55C824.105 732.917 823.321 733.45 822.655 734.15C822.021 734.85 821.521 735.683 821.155 736.65C820.788 737.583 820.605 738.617 820.605 739.75V740.1H834.855V739.55C834.855 737.25 834.221 735.417 832.955 734.05C831.721 732.65 830.071 731.95 828.005 731.95ZM853.496 755.6C851.096 755.6 849.079 755.15 847.446 754.25C845.846 753.317 844.463 752.083 843.296 750.55L846.146 748.25C847.146 749.517 848.263 750.5 849.496 751.2C850.729 751.867 852.163 752.2 853.796 752.2C855.496 752.2 856.813 751.833 857.746 751.1C858.713 750.367 859.196 749.333 859.196 748C859.196 747 858.863 746.15 858.196 745.45C857.563 744.717 856.396 744.217 854.696 743.95L852.646 743.65C851.446 743.483 850.346 743.233 849.346 742.9C848.346 742.533 847.463 742.067 846.696 741.5C845.963 740.9 845.379 740.167 844.946 739.3C844.546 738.433 844.346 737.4 844.346 736.2C844.346 734.933 844.579 733.833 845.046 732.9C845.513 731.933 846.146 731.133 846.946 730.5C847.779 729.867 848.763 729.4 849.896 729.1C851.029 728.767 852.246 728.6 853.546 728.6C855.646 728.6 857.396 728.967 858.796 729.7C860.229 730.433 861.479 731.45 862.546 732.75L859.896 735.15C859.329 734.35 858.496 733.633 857.396 733C856.296 732.333 854.913 732 853.246 732C851.579 732 850.313 732.367 849.446 733.1C848.613 733.8 848.196 734.767 848.196 736C848.196 737.267 848.613 738.183 849.446 738.75C850.313 739.317 851.546 739.733 853.146 740L855.146 740.3C858.013 740.733 860.046 741.567 861.246 742.8C862.446 744 863.046 745.583 863.046 747.55C863.046 750.05 862.196 752.017 860.496 753.45C858.796 754.883 856.463 755.6 853.496 755.6ZM870.111 729.2H874.111V733.4H874.311C874.978 731.767 875.945 730.567 877.211 729.8C878.511 729 880.061 728.6 881.861 728.6C883.461 728.6 884.911 728.917 886.211 729.55C887.511 730.183 888.611 731.083 889.511 732.25C890.445 733.417 891.145 734.833 891.611 736.5C892.111 738.167 892.361 740.033 892.361 742.1C892.361 744.167 892.111 746.033 891.611 747.7C891.145 749.367 890.445 750.783 889.511 751.95C888.611 753.117 887.511 754.017 886.211 754.65C884.911 755.283 883.461 755.6 881.861 755.6C878.361 755.6 875.845 754 874.311 750.8H874.111V765H870.111V729.2ZM880.761 752C883.028 752 884.811 751.3 886.111 749.9C887.411 748.467 888.061 746.6 888.061 744.3V739.9C888.061 737.6 887.411 735.75 886.111 734.35C884.811 732.917 883.028 732.2 880.761 732.2C879.861 732.2 878.995 732.333 878.161 732.6C877.361 732.833 876.661 733.167 876.061 733.6C875.461 734.033 874.978 734.567 874.611 735.2C874.278 735.8 874.111 736.45 874.111 737.15V746.75C874.111 747.583 874.278 748.333 874.611 749C874.978 749.633 875.461 750.183 876.061 750.65C876.661 751.083 877.361 751.417 878.161 751.65C878.995 751.883 879.861 752 880.761 752ZM908.865 755.6C907.132 755.6 905.549 755.283 904.115 754.65C902.682 754.017 901.449 753.117 900.415 751.95C899.415 750.75 898.632 749.333 898.065 747.7C897.499 746.033 897.215 744.167 897.215 742.1C897.215 740.067 897.499 738.217 898.065 736.55C898.632 734.883 899.415 733.467 900.415 732.3C901.449 731.1 902.682 730.183 904.115 729.55C905.549 728.917 907.132 728.6 908.865 728.6C910.599 728.6 912.165 728.917 913.565 729.55C914.999 730.183 916.232 731.1 917.265 732.3C918.299 733.467 919.099 734.883 919.665 736.55C920.232 738.217 920.515 740.067 920.515 742.1C920.515 744.167 920.232 746.033 919.665 747.7C919.099 749.333 918.299 750.75 917.265 751.95C916.232 753.117 914.999 754.017 913.565 754.65C912.165 755.283 910.599 755.6 908.865 755.6ZM908.865 752.05C911.032 752.05 912.799 751.383 914.165 750.05C915.532 748.717 916.215 746.683 916.215 743.95V740.25C916.215 737.517 915.532 735.483 914.165 734.15C912.799 732.817 911.032 732.15 908.865 732.15C906.699 732.15 904.932 732.817 903.565 734.15C902.199 735.483 901.515 737.517 901.515 740.25V743.95C901.515 746.683 902.199 748.717 903.565 750.05C904.932 751.383 906.699 752.05 908.865 752.05ZM927.094 755V729.2H931.094V733.4H931.294C931.927 731.933 932.81 730.767 933.944 729.9C935.11 729.033 936.66 728.6 938.594 728.6C941.26 728.6 943.36 729.467 944.894 731.2C946.46 732.9 947.244 735.317 947.244 738.45V755H943.244V739.15C943.244 734.517 941.294 732.2 937.394 732.2C936.594 732.2 935.81 732.3 935.044 732.5C934.31 732.7 933.644 733 933.044 733.4C932.444 733.8 931.96 734.317 931.594 734.95C931.26 735.55 931.094 736.267 931.094 737.1V755H927.094ZM963.262 755.6C960.862 755.6 958.845 755.15 957.212 754.25C955.612 753.317 954.228 752.083 953.062 750.55L955.912 748.25C956.912 749.517 958.028 750.5 959.262 751.2C960.495 751.867 961.928 752.2 963.562 752.2C965.262 752.2 966.578 751.833 967.512 751.1C968.478 750.367 968.962 749.333 968.962 748C968.962 747 968.628 746.15 967.962 745.45C967.328 744.717 966.162 744.217 964.462 743.95L962.412 743.65C961.212 743.483 960.112 743.233 959.112 742.9C958.112 742.533 957.228 742.067 956.462 741.5C955.728 740.9 955.145 740.167 954.712 739.3C954.312 738.433 954.112 737.4 954.112 736.2C954.112 734.933 954.345 733.833 954.812 732.9C955.278 731.933 955.912 731.133 956.712 730.5C957.545 729.867 958.528 729.4 959.662 729.1C960.795 728.767 962.012 728.6 963.312 728.6C965.412 728.6 967.162 728.967 968.562 729.7C969.995 730.433 971.245 731.45 972.312 732.75L969.662 735.15C969.095 734.35 968.262 733.633 967.162 733C966.062 732.333 964.678 732 963.012 732C961.345 732 960.078 732.367 959.212 733.1C958.378 733.8 957.962 734.767 957.962 736C957.962 737.267 958.378 738.183 959.212 738.75C960.078 739.317 961.312 739.733 962.912 740L964.912 740.3C967.778 740.733 969.812 741.567 971.012 742.8C972.212 744 972.812 745.583 972.812 747.55C972.812 750.05 971.962 752.017 970.262 753.45C968.562 754.883 966.228 755.6 963.262 755.6ZM981.877 723.15C981.01 723.15 980.377 722.95 979.977 722.55C979.61 722.117 979.427 721.567 979.427 720.9V720.25C979.427 719.583 979.61 719.05 979.977 718.65C980.377 718.217 981.01 718 981.877 718C982.744 718 983.36 718.217 983.727 718.65C984.127 719.05 984.327 719.583 984.327 720.25V720.9C984.327 721.567 984.127 722.117 983.727 722.55C983.36 722.95 982.744 723.15 981.877 723.15ZM979.877 729.2H983.877V755H979.877V729.2ZM998.077 755L989.027 729.2H993.027L997.527 742L1000.33 750.8H1000.58L1003.38 742L1007.98 729.2H1011.83L1002.73 755H998.077ZM1026.3 755.6C1024.53 755.6 1022.93 755.283 1021.5 754.65C1020.1 754.017 1018.88 753.117 1017.85 751.95C1016.85 750.75 1016.06 749.333 1015.5 747.7C1014.96 746.033 1014.7 744.167 1014.7 742.1C1014.7 740.067 1014.96 738.217 1015.5 736.55C1016.06 734.883 1016.85 733.467 1017.85 732.3C1018.88 731.1 1020.1 730.183 1021.5 729.55C1022.93 728.917 1024.53 728.6 1026.3 728.6C1028.03 728.6 1029.58 728.917 1030.95 729.55C1032.31 730.183 1033.48 731.067 1034.45 732.2C1035.41 733.3 1036.15 734.617 1036.65 736.15C1037.18 737.683 1037.45 739.367 1037.45 741.2V743.1H1018.9V744.3C1018.9 745.4 1019.06 746.433 1019.4 747.4C1019.76 748.333 1020.26 749.15 1020.9 749.85C1021.56 750.55 1022.36 751.1 1023.3 751.5C1024.26 751.9 1025.35 752.1 1026.55 752.1C1028.18 752.1 1029.6 751.717 1030.8 750.95C1032.03 750.183 1032.98 749.083 1033.65 747.65L1036.5 749.7C1035.66 751.467 1034.36 752.9 1032.6 754C1030.83 755.067 1028.73 755.6 1026.3 755.6ZM1026.3 731.95C1025.2 731.95 1024.2 732.15 1023.3 732.55C1022.4 732.917 1021.61 733.45 1020.95 734.15C1020.31 734.85 1019.81 735.683 1019.45 736.65C1019.08 737.583 1018.9 738.617 1018.9 739.75V740.1H1033.15V739.55C1033.15 737.25 1032.51 735.417 1031.25 734.05C1030.01 732.65 1028.36 731.95 1026.3 731.95Z" fill="white"/>
</g>
<defs>
<linearGradient id="paint0_linear_0_1" x1="-152.575" y1="29.3328" x2="504.866" y2="386.044" gradientUnits="userSpaceOnUse">
<stop offset="0.1" stop-color="#76B3E1"/>
<stop offset="0.3" stop-color="#DCF2FD"/>
<stop offset="1" stop-color="#76B3E1"/>
</linearGradient>
<linearGradient id="paint1_linear_0_1" x1="290.247" y1="187.682" x2="257.184" y2="310.621" gradientUnits="userSpaceOnUse">
<stop stop-color="#76B3E1"/>
<stop offset="0.5" stop-color="#4377BB"/>
<stop offset="1" stop-color="#1F3B77"/>
</linearGradient>
<linearGradient id="paint2_linear_0_1" x1="-211.578" y1="390.487" x2="382.517" y2="841.465" gradientUnits="userSpaceOnUse">
<stop stop-color="#315AA9"/>
<stop offset="0.5" stop-color="#518AC8"/>
<stop offset="1" stop-color="#315AA9"/>
</linearGradient>
<linearGradient id="paint3_linear_0_1" x1="156.69" y1="533.444" x2="84.0732" y2="830.771" gradientUnits="userSpaceOnUse">
<stop stop-color="#4377BB"/>
<stop offset="0.5" stop-color="#1A336B"/>
<stop offset="1" stop-color="#1A336B"/>
</linearGradient>
<clipPath id="clip0_0_1">
<rect width="1080" height="1080" fill="white"/>
</clipPath>
<clipPath id="clip1_0_1">
<rect width="1031" height="862" fill="white" transform="translate(-305 -107)"/>
</clipPath>
</defs>
</svg>
