<svg width="1080" height="1080" viewBox="0 0 1080 1080" fill="none" xmlns="http://www.w3.org/2000/svg">
<rect width="1080" height="1080" fill="#1E1E1E"/>
<g clip-path="url(#clip0_0_1)">
<rect width="1080" height="1080" fill="#398CCB"/>
<path d="M704.468 586.649L704.473 586.655L704.477 586.662C726.074 616.754 741.417 650.836 749.603 686.909C757.787 722.981 758.652 760.317 752.147 796.726C745.848 831.485 732.534 864.612 713.01 894.104L712.519 894.845L712.933 895.631C741.429 949.732 750.99 1011.75 740.104 1071.86L740.104 1071.86C733.676 1107.54 719.838 1141.5 699.475 1171.55C679.113 1201.6 652.673 1227.09 621.848 1246.4L621.84 1246.4L392.365 1391.99C262.431 1474.41 82.6035 1436.02 -8.47559 1306.26L-8.48006 1306.26L-8.48459 1306.25C-30.0777 1276.16 -45.4166 1242.07 -53.6022 1206C-61.7874 1169.93 -62.6551 1132.59 -56.1543 1096.18C-49.8487 1061.42 -36.5283 1028.3 -16.9978 998.803L-16.507 998.062L-16.9214 997.276C-45.4308 943.181 -54.999 881.166 -44.1116 821.049L-44.1114 821.048C-37.6797 785.369 -23.8405 751.418 -3.4781 721.366C16.8843 691.314 43.3218 665.821 74.145 646.517L74.1524 646.512L303.627 500.915C303.627 500.915 303.627 500.915 303.628 500.915C433.578 418.497 613.405 456.906 704.468 586.649Z" fill="#FF3E00" stroke="white" stroke-width="3"/>
<path d="M280.385 1319.53C206.394 1338.68 128.261 1309.85 84.684 1247.32C71.6221 1229.12 62.3431 1208.5 57.3915 1186.69C52.44 1164.87 51.9156 1142.28 55.8491 1120.26C57.1812 1113.03 59.0144 1105.9 61.3355 1098.92L65.6593 1085.8L77.4168 1094.4C104.577 1114.27 134.944 1129.37 167.211 1139.06L175.74 1141.64L174.955 1150.11C173.912 1162.17 177.191 1174.21 184.211 1184.09C190.614 1193.29 199.697 1200.3 210.234 1204.2C220.771 1208.09 232.255 1208.67 243.134 1205.86C248.123 1204.53 252.879 1202.45 257.236 1199.69L486.781 1054.07C492.398 1050.55 497.217 1045.91 500.93 1040.43C504.643 1034.95 507.17 1028.77 508.349 1022.26C509.527 1015.63 509.365 1008.82 507.873 1002.25C506.382 995.671 503.589 989.458 499.66 983.969C493.254 974.771 484.167 967.75 473.626 963.855C463.086 959.96 451.599 959.377 440.715 962.186C435.734 963.513 430.985 965.592 426.636 968.349L339.039 1023.93C324.635 1033.05 308.917 1039.92 292.428 1044.31C218.44 1063.46 140.304 1034.63 96.733 972.098C83.6703 953.899 74.3905 933.286 69.4384 911.469C64.4863 889.652 63.9615 867.069 67.8949 845.047C71.7854 823.462 80.1588 802.923 92.4793 784.743C104.8 766.563 120.796 751.143 139.446 739.47L368.972 593.837C383.382 584.706 399.112 577.827 415.615 573.438C489.603 554.286 567.739 583.118 611.31 645.647C624.372 663.847 633.652 684.46 638.604 706.278C643.556 728.096 644.081 750.679 640.148 772.701C638.81 779.93 636.977 787.058 634.661 794.038L630.338 807.161L618.583 798.575C591.426 778.698 561.057 763.588 528.786 753.897L520.254 751.317L521.042 742.843C522.076 730.786 518.797 718.753 511.786 708.868C505.383 699.672 496.299 692.653 485.762 688.76C475.224 684.866 463.74 684.287 452.86 687.098C447.872 688.426 443.117 690.507 438.761 693.268L209.216 838.891C203.599 842.408 198.781 847.054 195.069 852.53C191.358 858.006 188.835 864.192 187.661 870.694C186.476 877.331 186.634 884.137 188.124 890.713C189.613 897.289 192.406 903.503 196.337 908.992C202.743 918.19 211.83 925.21 222.371 929.106C232.911 933.001 244.398 933.583 255.282 930.775C260.269 929.444 265.024 927.364 269.381 924.605L356.962 869.043C371.359 859.913 387.077 853.035 403.569 848.647C477.557 829.498 555.693 858.33 599.267 920.862C612.329 939.061 621.608 959.674 626.559 981.491C631.511 1003.31 632.035 1025.89 628.102 1047.91C624.209 1069.5 615.835 1090.04 603.515 1108.22C591.195 1126.4 575.199 1141.83 556.551 1153.51L327.025 1299.13C312.615 1308.26 296.888 1315.14 280.385 1319.53Z" fill="white"/>
<g clip-path="url(#clip1_0_1)">
<mask id="path-3-inside-1_0_1" fill="white">
<path d="M720.852 382.293H752.278V398.273H720.853V434.534C720.79 437.136 721.146 439.732 721.908 442.22C722.485 444.066 723.511 445.74 724.893 447.091C726.225 448.349 727.845 449.26 729.611 449.743C731.377 450.216 733.191 450.474 735.015 450.511L735.797 450.514C737.441 450.514 739.14 450.514 740.891 450.282L741.93 450.153L743.945 449.924C744.604 449.847 745.253 449.762 745.897 449.654L746.841 449.504L748.614 449.24C749.187 449.154 749.743 449.063 750.294 448.955L751.606 448.692L752.216 448.563L753.346 448.311L753.869 448.186L755.979 463.073C754.281 464.032 752.482 464.801 750.615 465.365C748.501 466.036 746.346 466.568 744.163 466.96C741.876 467.39 739.497 467.713 737.012 467.945C734.594 468.173 732.166 468.287 729.737 468.286C725.498 468.348 721.276 467.744 717.225 466.496C713.614 465.368 710.319 463.404 707.607 460.761C704.814 458.021 702.706 454.657 701.457 450.944C699.904 446.33 699.166 441.48 699.277 436.612V398.273H680.007V382.293H699.223V361.637H720.853L720.852 382.293ZM797.88 424.233V466.656H776.016V353.128H814.072C819.827 353.056 825.563 353.804 831.108 355.348C835.842 356.659 840.279 358.873 844.175 361.871C847.758 364.732 850.598 368.42 852.452 372.619C854.487 377.287 855.487 382.342 855.383 387.434C855.431 391.134 854.944 394.821 853.936 398.381C852.209 404.569 848.488 410.012 843.353 413.861C840.74 415.843 837.909 417.52 834.917 418.858L859.263 465.706V466.728H835.756L814.45 424.233H797.88ZM797.898 406.426H814.074C817.115 406.485 820.141 406 823.012 404.993C825.414 404.139 827.569 402.705 829.288 400.818C830.626 399.322 831.653 397.574 832.307 395.676C832.948 393.73 833.297 391.7 833.341 389.654L833.344 388.886C833.397 386.161 832.936 383.45 831.986 380.897C831.132 378.672 829.73 376.7 827.911 375.164C826.16 373.748 824.15 372.689 821.993 372.046C819.682 371.372 817.293 371.006 814.887 370.957L797.898 370.953V406.426ZM894.891 466.656H873.065V353.128H911.801C917.491 353.047 923.152 353.956 928.532 355.816C933.231 357.441 937.567 359.972 941.296 363.267C944.765 366.497 947.507 370.43 949.34 374.806C951.159 379.227 952.124 383.955 952.182 388.737V389.692C952.233 394.546 951.264 399.356 949.34 403.81C947.489 408.06 944.745 411.861 941.296 414.952C937.554 418.249 933.198 420.77 928.479 422.37C923.094 424.208 917.434 425.104 911.747 425.021H894.873L894.891 466.656ZM894.891 407.25H911.765C914.53 407.305 917.28 406.825 919.863 405.834C922.028 404.983 923.989 403.682 925.618 402.019C927.114 400.413 928.265 398.517 928.998 396.447C929.756 394.332 930.142 392.101 930.142 389.854C930.158 387.343 929.772 384.844 928.998 382.455C928.291 380.24 927.141 378.191 925.618 376.435C924.011 374.688 922.048 373.308 919.863 372.387C917.292 371.345 914.537 370.839 911.765 370.9H894.891V407.25ZM1042.2 446.537C1040.2 450.964 1037.33 454.942 1033.77 458.235C1030.1 461.531 1025.81 464.064 1021.16 465.689C1016.3 467.358 1011.21 468.235 1006.07 468.288L1004.97 468.286C1000.59 468.339 996.227 467.735 992.026 466.496C988.185 465.346 984.561 463.566 981.301 461.227C978.352 459.054 975.743 456.452 973.561 453.506C971.264 450.42 969.344 447.071 967.841 443.528C966.275 439.659 965.118 435.635 964.391 431.524C963.565 426.943 963.158 422.296 963.175 417.64V402.358C963.165 397.982 963.53 393.612 964.266 389.298C964.871 385.798 965.804 382.363 967.053 379.038L967.537 377.797C969.117 373.639 971.324 369.748 974.08 366.259C976.69 362.96 979.782 360.073 983.25 357.697C986.366 355.681 989.763 354.141 993.332 353.128C996.812 352.134 1000.41 351.599 1004.03 351.537L1005.11 351.533C1010.76 351.436 1016.38 352.333 1021.72 354.184C1026.34 355.775 1030.56 358.346 1034.1 361.723C1037.64 365.099 1040.41 369.201 1042.22 373.748C1044.28 378.851 1045.54 384.241 1045.96 389.728H1024.18C1024.06 386.691 1023.55 383.682 1022.68 380.77C1021.98 378.421 1020.8 376.244 1019.22 374.376C1017.61 372.678 1015.62 371.382 1013.42 370.595C1010.76 369.678 1007.95 369.242 1005.13 369.305C1003.52 369.3 1001.91 369.486 1000.34 369.861C998.91 370.209 997.539 370.758 996.264 371.49C994.077 372.831 992.239 374.674 990.901 376.866C989.336 379.377 988.132 382.097 987.326 384.946C986.62 387.54 986.13 390.188 985.86 392.863C985.534 395.957 985.379 399.068 985.396 402.179V417.605C985.36 421.659 985.604 425.712 986.128 429.733C986.528 432.917 987.295 436.043 988.415 439.049C989.088 440.761 989.965 442.385 991.025 443.886C991.979 445.262 993.151 446.471 994.494 447.468C995.907 448.515 997.5 449.292 999.194 449.761C1001.08 450.283 1003.03 450.537 1004.99 450.514C1007.6 450.545 1010.19 450.176 1012.69 449.421C1014.88 448.746 1016.88 447.568 1018.54 445.982C1020.24 444.29 1021.54 442.239 1022.34 439.979C1023.38 437.148 1023.98 434.178 1024.13 431.167H1045.99C1045.68 436.479 1044.39 441.689 1042.21 446.537H1042.2ZM946.462 164.392L1001.48 196.229V259.933L946.462 291.77L922.037 277.613L862.643 311.977L803.605 277.809L779.521 291.769L724.5 259.88V196.226L779.521 164.391L834.542 196.227V259.879L817.897 269.526L862.643 295.422L907.745 269.328L891.44 259.879V196.226L946.462 164.392ZM905.741 212.818V251.675L939.311 271.096V232.239L905.741 212.818ZM987.183 212.765L953.612 232.185V271.096L987.183 251.622V212.765ZM738.801 212.765V251.622L772.37 271.042V232.185L738.801 212.765ZM820.241 212.765L786.672 232.183V271.04L820.243 251.62V212.763L820.241 212.765ZM946.462 180.983L912.892 200.403L946.462 219.841L980.032 200.403L946.462 180.983ZM779.521 180.93L745.95 200.403L779.521 219.788L813.092 200.403L779.521 180.93ZM806.889 82.1819V98.7163L755.979 128.189V178.01L741.679 186.287V119.909L806.887 82.1805L806.889 82.1819ZM861.909 32L916.968 63.8351V81.3423L983.607 119.909V185.873L969.306 177.596V128.186L916.968 97.8953V127.505L861.945 159.34L806.924 127.505V63.8351L861.909 32ZM821.226 80.3709V119.228L854.761 138.648V99.8081L821.226 80.3709ZM902.633 80.3709L869.098 99.8081V138.631L902.63 119.228V80.3709H902.633ZM861.911 48.553L828.374 67.973L861.909 87.393L895.48 67.973L861.911 48.553Z"/>
</mask>
<path d="M720.852 382.293H752.278V398.273H720.853V434.534C720.79 437.136 721.146 439.732 721.908 442.22C722.485 444.066 723.511 445.74 724.893 447.091C726.225 448.349 727.845 449.26 729.611 449.743C731.377 450.216 733.191 450.474 735.015 450.511L735.797 450.514C737.441 450.514 739.14 450.514 740.891 450.282L741.93 450.153L743.945 449.924C744.604 449.847 745.253 449.762 745.897 449.654L746.841 449.504L748.614 449.24C749.187 449.154 749.743 449.063 750.294 448.955L751.606 448.692L752.216 448.563L753.346 448.311L753.869 448.186L755.979 463.073C754.281 464.032 752.482 464.801 750.615 465.365C748.501 466.036 746.346 466.568 744.163 466.96C741.876 467.39 739.497 467.713 737.012 467.945C734.594 468.173 732.166 468.287 729.737 468.286C725.498 468.348 721.276 467.744 717.225 466.496C713.614 465.368 710.319 463.404 707.607 460.761C704.814 458.021 702.706 454.657 701.457 450.944C699.904 446.33 699.166 441.48 699.277 436.612V398.273H680.007V382.293H699.223V361.637H720.853L720.852 382.293ZM797.88 424.233V466.656H776.016V353.128H814.072C819.827 353.056 825.563 353.804 831.108 355.348C835.842 356.659 840.279 358.873 844.175 361.871C847.758 364.732 850.598 368.42 852.452 372.619C854.487 377.287 855.487 382.342 855.383 387.434C855.431 391.134 854.944 394.821 853.936 398.381C852.209 404.569 848.488 410.012 843.353 413.861C840.74 415.843 837.909 417.52 834.917 418.858L859.263 465.706V466.728H835.756L814.45 424.233H797.88ZM797.898 406.426H814.074C817.115 406.485 820.141 406 823.012 404.993C825.414 404.139 827.569 402.705 829.288 400.818C830.626 399.322 831.653 397.574 832.307 395.676C832.948 393.73 833.297 391.7 833.341 389.654L833.344 388.886C833.397 386.161 832.936 383.45 831.986 380.897C831.132 378.672 829.73 376.7 827.911 375.164C826.16 373.748 824.15 372.689 821.993 372.046C819.682 371.372 817.293 371.006 814.887 370.957L797.898 370.953V406.426ZM894.891 466.656H873.065V353.128H911.801C917.491 353.047 923.152 353.956 928.532 355.816C933.231 357.441 937.567 359.972 941.296 363.267C944.765 366.497 947.507 370.43 949.34 374.806C951.159 379.227 952.124 383.955 952.182 388.737V389.692C952.233 394.546 951.264 399.356 949.34 403.81C947.489 408.06 944.745 411.861 941.296 414.952C937.554 418.249 933.198 420.77 928.479 422.37C923.094 424.208 917.434 425.104 911.747 425.021H894.873L894.891 466.656ZM894.891 407.25H911.765C914.53 407.305 917.28 406.825 919.863 405.834C922.028 404.983 923.989 403.682 925.618 402.019C927.114 400.413 928.265 398.517 928.998 396.447C929.756 394.332 930.142 392.101 930.142 389.854C930.158 387.343 929.772 384.844 928.998 382.455C928.291 380.24 927.141 378.191 925.618 376.435C924.011 374.688 922.048 373.308 919.863 372.387C917.292 371.345 914.537 370.839 911.765 370.9H894.891V407.25ZM1042.2 446.537C1040.2 450.964 1037.33 454.942 1033.77 458.235C1030.1 461.531 1025.81 464.064 1021.16 465.689C1016.3 467.358 1011.21 468.235 1006.07 468.288L1004.97 468.286C1000.59 468.339 996.227 467.735 992.026 466.496C988.185 465.346 984.561 463.566 981.301 461.227C978.352 459.054 975.743 456.452 973.561 453.506C971.264 450.42 969.344 447.071 967.841 443.528C966.275 439.659 965.118 435.635 964.391 431.524C963.565 426.943 963.158 422.296 963.175 417.64V402.358C963.165 397.982 963.53 393.612 964.266 389.298C964.871 385.798 965.804 382.363 967.053 379.038L967.537 377.797C969.117 373.639 971.324 369.748 974.08 366.259C976.69 362.96 979.782 360.073 983.25 357.697C986.366 355.681 989.763 354.141 993.332 353.128C996.812 352.134 1000.41 351.599 1004.03 351.537L1005.11 351.533C1010.76 351.436 1016.38 352.333 1021.72 354.184C1026.34 355.775 1030.56 358.346 1034.1 361.723C1037.64 365.099 1040.41 369.201 1042.22 373.748C1044.28 378.851 1045.54 384.241 1045.96 389.728H1024.18C1024.06 386.691 1023.55 383.682 1022.68 380.77C1021.98 378.421 1020.8 376.244 1019.22 374.376C1017.61 372.678 1015.62 371.382 1013.42 370.595C1010.76 369.678 1007.95 369.242 1005.13 369.305C1003.52 369.3 1001.91 369.486 1000.34 369.861C998.91 370.209 997.539 370.758 996.264 371.49C994.077 372.831 992.239 374.674 990.901 376.866C989.336 379.377 988.132 382.097 987.326 384.946C986.62 387.54 986.13 390.188 985.86 392.863C985.534 395.957 985.379 399.068 985.396 402.179V417.605C985.36 421.659 985.604 425.712 986.128 429.733C986.528 432.917 987.295 436.043 988.415 439.049C989.088 440.761 989.965 442.385 991.025 443.886C991.979 445.262 993.151 446.471 994.494 447.468C995.907 448.515 997.5 449.292 999.194 449.761C1001.08 450.283 1003.03 450.537 1004.99 450.514C1007.6 450.545 1010.19 450.176 1012.69 449.421C1014.88 448.746 1016.88 447.568 1018.54 445.982C1020.24 444.29 1021.54 442.239 1022.34 439.979C1023.38 437.148 1023.98 434.178 1024.13 431.167H1045.99C1045.68 436.479 1044.39 441.689 1042.21 446.537H1042.2ZM946.462 164.392L1001.48 196.229V259.933L946.462 291.77L922.037 277.613L862.643 311.977L803.605 277.809L779.521 291.769L724.5 259.88V196.226L779.521 164.391L834.542 196.227V259.879L817.897 269.526L862.643 295.422L907.745 269.328L891.44 259.879V196.226L946.462 164.392ZM905.741 212.818V251.675L939.311 271.096V232.239L905.741 212.818ZM987.183 212.765L953.612 232.185V271.096L987.183 251.622V212.765ZM738.801 212.765V251.622L772.37 271.042V232.185L738.801 212.765ZM820.241 212.765L786.672 232.183V271.04L820.243 251.62V212.763L820.241 212.765ZM946.462 180.983L912.892 200.403L946.462 219.841L980.032 200.403L946.462 180.983ZM779.521 180.93L745.95 200.403L779.521 219.788L813.092 200.403L779.521 180.93ZM806.889 82.1819V98.7163L755.979 128.189V178.01L741.679 186.287V119.909L806.887 82.1805L806.889 82.1819ZM861.909 32L916.968 63.8351V81.3423L983.607 119.909V185.873L969.306 177.596V128.186L916.968 97.8953V127.505L861.945 159.34L806.924 127.505V63.8351L861.909 32ZM821.226 80.3709V119.228L854.761 138.648V99.8081L821.226 80.3709ZM902.633 80.3709L869.098 99.8081V138.631L902.63 119.228V80.3709H902.633ZM861.911 48.553L828.374 67.973L861.909 87.393L895.48 67.973L861.911 48.553Z" fill="#398CCB" stroke="white" stroke-width="6" mask="url(#path-3-inside-1_0_1)"/>
</g>
<path d="M73.196 109V79.9091H77.5852V92.5511H92.0881V79.9091H96.4915V109H92.0881V96.3153H77.5852V109H73.196ZM128.153 94.4545C128.153 97.5606 127.585 100.231 126.449 102.466C125.313 104.691 123.755 106.405 121.776 107.608C119.806 108.801 117.566 109.398 115.057 109.398C112.538 109.398 110.289 108.801 108.31 107.608C106.34 106.405 104.787 104.687 103.651 102.452C102.514 100.217 101.946 97.5511 101.946 94.4545C101.946 91.3485 102.514 88.6828 103.651 86.4574C104.787 84.2225 106.34 82.5085 108.31 81.3153C110.289 80.1127 112.538 79.5114 115.057 79.5114C117.566 79.5114 119.806 80.1127 121.776 81.3153C123.755 82.5085 125.313 84.2225 126.449 86.4574C127.585 88.6828 128.153 91.3485 128.153 94.4545ZM123.807 94.4545C123.807 92.0871 123.423 90.0937 122.656 88.4744C121.899 86.8456 120.857 85.6146 119.531 84.7812C118.215 83.9384 116.723 83.517 115.057 83.517C113.381 83.517 111.884 83.9384 110.568 84.7812C109.252 85.6146 108.21 86.8456 107.443 88.4744C106.686 90.0937 106.307 92.0871 106.307 94.4545C106.307 96.822 106.686 98.8201 107.443 100.449C108.21 102.068 109.252 103.299 110.568 104.142C111.884 104.975 113.381 105.392 115.057 105.392C116.723 105.392 118.215 104.975 119.531 104.142C120.857 103.299 121.899 102.068 122.656 100.449C123.423 98.8201 123.807 96.822 123.807 94.4545ZM138.97 109L130.902 79.9091H135.518L141.186 102.438H141.456L147.351 79.9091H151.925L157.82 102.452H158.089L163.743 79.9091H168.374L160.291 109H155.874L149.751 87.2102H149.524L143.402 109H138.97ZM181.527 83.6875V79.9091H204.041V83.6875H194.964V109H190.589V83.6875H181.527ZM233.036 94.4545C233.036 97.5606 232.468 100.231 231.332 102.466C230.195 104.691 228.638 106.405 226.658 107.608C224.689 108.801 222.449 109.398 219.94 109.398C217.421 109.398 215.172 108.801 213.192 107.608C211.223 106.405 209.67 104.687 208.533 102.452C207.397 100.217 206.829 97.5511 206.829 94.4545C206.829 91.3485 207.397 88.6828 208.533 86.4574C209.67 84.2225 211.223 82.5085 213.192 81.3153C215.172 80.1127 217.421 79.5114 219.94 79.5114C222.449 79.5114 224.689 80.1127 226.658 81.3153C228.638 82.5085 230.195 84.2225 231.332 86.4574C232.468 88.6828 233.036 91.3485 233.036 94.4545ZM228.69 94.4545C228.69 92.0871 228.306 90.0937 227.539 88.4744C226.781 86.8456 225.74 85.6146 224.414 84.7812C223.098 83.9384 221.606 83.517 219.94 83.517C218.263 83.517 216.767 83.9384 215.451 84.7812C214.135 85.6146 213.093 86.8456 212.326 88.4744C211.568 90.0937 211.19 92.0871 211.19 94.4545C211.19 96.822 211.568 98.8201 212.326 100.449C213.093 102.068 214.135 103.299 215.451 104.142C216.767 104.975 218.263 105.392 219.94 105.392C221.606 105.392 223.098 104.975 224.414 104.142C225.74 103.299 226.781 102.068 227.539 100.449C228.306 98.8201 228.69 96.822 228.69 94.4545ZM264.961 87.5511C264.809 86.2064 264.184 85.1648 263.086 84.4261C261.987 83.678 260.605 83.304 258.938 83.304C257.745 83.304 256.713 83.4934 255.842 83.8722C254.97 84.2415 254.293 84.7528 253.81 85.4062C253.337 86.0502 253.1 86.7841 253.1 87.608C253.1 88.2992 253.261 88.8958 253.583 89.3977C253.915 89.8996 254.345 90.321 254.876 90.6619C255.415 90.9934 255.993 91.2727 256.609 91.5C257.224 91.7178 257.816 91.8977 258.384 92.0398L261.225 92.7784C262.153 93.0057 263.105 93.3134 264.08 93.7017C265.056 94.09 265.96 94.6013 266.793 95.2358C267.627 95.8703 268.299 96.6562 268.81 97.5938C269.331 98.5312 269.592 99.6534 269.592 100.96C269.592 102.608 269.165 104.071 268.313 105.349C267.47 106.628 266.244 107.636 264.634 108.375C263.034 109.114 261.097 109.483 258.825 109.483C256.647 109.483 254.762 109.137 253.171 108.446C251.58 107.755 250.335 106.775 249.435 105.506C248.536 104.227 248.039 102.712 247.944 100.96H252.347C252.433 102.011 252.773 102.887 253.37 103.588C253.976 104.279 254.748 104.795 255.685 105.136C256.632 105.468 257.669 105.634 258.796 105.634C260.037 105.634 261.14 105.439 262.106 105.051C263.081 104.653 263.848 104.104 264.407 103.403C264.966 102.693 265.245 101.865 265.245 100.918C265.245 100.056 264.999 99.3504 264.506 98.8011C264.023 98.2519 263.365 97.7973 262.532 97.4375C261.708 97.0777 260.775 96.7604 259.734 96.4858L256.296 95.5483C253.967 94.9138 252.12 93.9811 250.756 92.75C249.402 91.5189 248.725 89.8902 248.725 87.8636C248.725 86.1875 249.18 84.7244 250.089 83.4744C250.998 82.2244 252.229 81.2538 253.782 80.5625C255.335 79.8617 257.087 79.5114 259.038 79.5114C261.007 79.5114 262.745 79.857 264.251 80.5483C265.766 81.2396 266.959 82.1913 267.83 83.4034C268.701 84.6061 269.156 85.9886 269.194 87.5511H264.961ZM274.837 109V79.9091H293.075V83.6875H279.226V92.5511H292.124V96.3153H279.226V105.222H293.246V109H274.837ZM297.504 83.6875V79.9091H320.018V83.6875H310.941V109H306.566V83.6875H297.504ZM343.7 79.9091H348.104V99.0426C348.104 101.079 347.625 102.883 346.669 104.455C345.713 106.017 344.368 107.248 342.635 108.148C340.902 109.038 338.871 109.483 336.541 109.483C334.221 109.483 332.195 109.038 330.462 108.148C328.729 107.248 327.384 106.017 326.428 104.455C325.471 102.883 324.993 101.079 324.993 99.0426V79.9091H329.382V98.6875C329.382 100.004 329.671 101.173 330.249 102.196C330.836 103.219 331.664 104.024 332.734 104.611C333.804 105.188 335.073 105.477 336.541 105.477C338.018 105.477 339.292 105.188 340.362 104.611C341.442 104.024 342.266 103.219 342.834 102.196C343.411 101.173 343.7 100.004 343.7 98.6875V79.9091ZM354.485 109V79.9091H364.854C367.118 79.9091 368.993 80.321 370.479 81.1449C371.966 81.9687 373.079 83.0956 373.817 84.5256C374.556 85.946 374.925 87.5464 374.925 89.3267C374.925 91.1165 374.551 92.7263 373.803 94.1562C373.065 95.5767 371.947 96.7036 370.451 97.5369C368.964 98.3608 367.094 98.7727 364.84 98.7727H357.71V95.0511H364.442C365.872 95.0511 367.032 94.8049 367.923 94.3125C368.813 93.8106 369.466 93.1288 369.883 92.267C370.299 91.4053 370.508 90.4252 370.508 89.3267C370.508 88.2282 370.299 87.2528 369.883 86.4006C369.466 85.5483 368.808 84.8807 367.908 84.3977C367.018 83.9148 365.844 83.6733 364.386 83.6733H358.874V109H354.485Z" fill="white"/>
<path d="M73.196 399V369.909H83.5653C85.8286 369.909 87.7036 370.321 89.1903 371.145C90.6771 371.969 91.7898 373.096 92.5284 374.526C93.267 375.946 93.6364 377.546 93.6364 379.327C93.6364 381.116 93.2623 382.726 92.5142 384.156C91.7756 385.577 90.6581 386.704 89.1619 387.537C87.6752 388.361 85.8049 388.773 83.5511 388.773H76.4205V385.051H83.1534C84.5833 385.051 85.7434 384.805 86.6335 384.312C87.5237 383.811 88.1771 383.129 88.5938 382.267C89.0104 381.405 89.2188 380.425 89.2188 379.327C89.2188 378.228 89.0104 377.253 88.5938 376.401C88.1771 375.548 87.5189 374.881 86.6193 374.398C85.7292 373.915 84.5549 373.673 83.0966 373.673H77.5852V399H73.196ZM98.782 399V369.909H109.151C111.405 369.909 113.275 370.297 114.762 371.074C116.258 371.85 117.376 372.925 118.114 374.298C118.853 375.662 119.222 377.239 119.222 379.028C119.222 380.809 118.848 382.376 118.1 383.73C117.362 385.075 116.244 386.121 114.748 386.869C113.261 387.617 111.391 387.991 109.137 387.991H101.282V384.213H108.739C110.16 384.213 111.315 384.009 112.205 383.602C113.105 383.195 113.763 382.603 114.18 381.827C114.596 381.05 114.805 380.117 114.805 379.028C114.805 377.93 114.592 376.978 114.165 376.173C113.749 375.368 113.091 374.753 112.191 374.327C111.301 373.891 110.131 373.673 108.683 373.673H103.171V399H98.782ZM113.143 385.875L120.33 399H115.33L108.285 385.875H113.143ZM149.833 384.455C149.833 387.561 149.265 390.231 148.129 392.466C146.992 394.691 145.434 396.405 143.455 397.608C141.486 398.801 139.246 399.398 136.737 399.398C134.218 399.398 131.969 398.801 129.989 397.608C128.02 396.405 126.467 394.687 125.33 392.452C124.194 390.217 123.626 387.551 123.626 384.455C123.626 381.348 124.194 378.683 125.33 376.457C126.467 374.223 128.02 372.509 129.989 371.315C131.969 370.113 134.218 369.511 136.737 369.511C139.246 369.511 141.486 370.113 143.455 371.315C145.434 372.509 146.992 374.223 148.129 376.457C149.265 378.683 149.833 381.348 149.833 384.455ZM145.487 384.455C145.487 382.087 145.103 380.094 144.336 378.474C143.578 376.846 142.537 375.615 141.211 374.781C139.895 373.938 138.403 373.517 136.737 373.517C135.06 373.517 133.564 373.938 132.248 374.781C130.932 375.615 129.89 376.846 129.123 378.474C128.365 380.094 127.987 382.087 127.987 384.455C127.987 386.822 128.365 388.82 129.123 390.449C129.89 392.068 130.932 393.299 132.248 394.142C133.564 394.975 135.06 395.392 136.737 395.392C138.403 395.392 139.895 394.975 141.211 394.142C142.537 393.299 143.578 392.068 144.336 390.449C145.103 388.82 145.487 386.822 145.487 384.455ZM166.612 369.909H170.987V390.534C170.987 392.4 170.618 393.995 169.879 395.321C169.15 396.647 168.123 397.66 166.797 398.361C165.471 399.052 163.918 399.398 162.138 399.398C160.5 399.398 159.027 399.099 157.72 398.503C156.423 397.906 155.395 397.04 154.638 395.903C153.89 394.758 153.516 393.366 153.516 391.727H157.876C157.876 392.532 158.061 393.228 158.43 393.815C158.809 394.402 159.325 394.862 159.979 395.193C160.642 395.515 161.399 395.676 162.251 395.676C163.179 395.676 163.965 395.482 164.609 395.094C165.263 394.696 165.76 394.114 166.101 393.347C166.442 392.58 166.612 391.642 166.612 390.534V369.909ZM177.376 399V369.909H195.614V373.688H181.765V382.551H194.663V386.315H181.765V395.222H195.785V399H177.376ZM225.639 379.369H221.207C221.037 378.422 220.72 377.589 220.256 376.869C219.792 376.15 219.223 375.539 218.551 375.037C217.879 374.535 217.126 374.156 216.293 373.901C215.469 373.645 214.593 373.517 213.665 373.517C211.989 373.517 210.488 373.938 209.162 374.781C207.846 375.624 206.804 376.86 206.037 378.489C205.279 380.117 204.901 382.106 204.901 384.455C204.901 386.822 205.279 388.82 206.037 390.449C206.804 392.078 207.85 393.309 209.176 394.142C210.502 394.975 211.993 395.392 213.651 395.392C214.569 395.392 215.44 395.269 216.264 395.023C217.098 394.767 217.85 394.393 218.523 393.901C219.195 393.408 219.763 392.807 220.227 392.097C220.701 391.377 221.027 390.553 221.207 389.625L225.639 389.639C225.402 391.069 224.943 392.385 224.261 393.588C223.589 394.781 222.723 395.813 221.662 396.685C220.611 397.546 219.408 398.214 218.054 398.688C216.7 399.161 215.223 399.398 213.622 399.398C211.103 399.398 208.859 398.801 206.889 397.608C204.92 396.405 203.366 394.687 202.23 392.452C201.103 390.217 200.54 387.551 200.54 384.455C200.54 381.348 201.108 378.683 202.244 376.457C203.381 374.223 204.934 372.509 206.903 371.315C208.873 370.113 211.113 369.511 213.622 369.511C215.166 369.511 216.605 369.734 217.94 370.179C219.285 370.615 220.492 371.259 221.562 372.111C222.633 372.954 223.518 373.986 224.219 375.207C224.92 376.42 225.393 377.807 225.639 379.369ZM229.457 373.688V369.909H251.971V373.688H242.894V399H238.519V373.688H229.457Z" fill="white"/>
<path d="M349.585 185.909V215H345.196V185.909H349.585ZM379.457 185.909V215H375.423L360.636 193.665H360.366V215H355.977V185.909H360.04L374.841 207.273H375.111V185.909H379.457ZM398.903 215H394.244L404.713 185.909H409.784L420.253 215H415.594L407.369 191.193H407.142L398.903 215ZM399.685 203.608H414.798V207.301H399.685V203.608Z" fill="white"/>
<path d="M107.5 160.455V174.659H71.5625V160.455H107.5ZM78.5227 147.386H98.125V197.457C98.125 198.215 98.2552 198.854 98.5156 199.375C98.776 199.872 99.1785 200.251 99.723 200.511C100.268 200.748 100.966 200.866 101.818 200.866C102.41 200.866 103.097 200.795 103.878 200.653C104.683 200.511 105.275 200.393 105.653 200.298L108.494 214.077C107.618 214.337 106.364 214.657 104.73 215.036C103.12 215.414 101.203 215.663 98.9773 215.781C94.4792 216.018 90.7031 215.556 87.6491 214.396C84.5952 213.213 82.2988 211.354 80.7599 208.821C79.2211 206.288 78.4754 203.116 78.5227 199.304V147.386ZM116.387 215V142.273H147.779C153.176 142.273 157.9 143.255 161.948 145.22C165.996 147.185 169.145 150.014 171.394 153.707C173.643 157.401 174.767 161.828 174.767 166.989C174.767 172.197 173.607 176.589 171.287 180.163C168.991 183.738 165.759 186.437 161.593 188.26C157.45 190.083 152.608 190.994 147.069 190.994H128.319V175.653H143.091C145.411 175.653 147.388 175.369 149.022 174.801C150.679 174.209 151.945 173.274 152.821 171.996C153.721 170.717 154.171 169.048 154.171 166.989C154.171 164.905 153.721 163.213 152.821 161.911C151.945 160.585 150.679 159.614 149.022 158.999C147.388 158.359 145.411 158.04 143.091 158.04H136.131V215H116.387ZM159 181.619L177.182 215H155.733L137.978 181.619H159ZM183.184 215V142.273H214.576C219.973 142.273 224.696 143.338 228.745 145.469C232.793 147.599 235.942 150.594 238.191 154.453C240.44 158.312 241.564 162.822 241.564 167.983C241.564 173.191 240.404 177.701 238.084 181.513C235.788 185.324 232.556 188.26 228.39 190.32C224.247 192.379 219.405 193.409 213.865 193.409H195.115V178.068H209.888C212.208 178.068 214.185 177.666 215.819 176.861C217.476 176.032 218.742 174.86 219.618 173.345C220.518 171.83 220.968 170.043 220.968 167.983C220.968 165.9 220.518 164.124 219.618 162.656C218.742 161.165 217.476 160.028 215.819 159.247C214.185 158.442 212.208 158.04 209.888 158.04H202.928V215H183.184ZM316.706 169.545H296.678C296.536 167.888 296.157 166.385 295.542 165.036C294.95 163.686 294.121 162.526 293.056 161.555C292.014 160.561 290.748 159.804 289.256 159.283C287.765 158.738 286.072 158.466 284.178 158.466C280.864 158.466 278.058 159.271 275.762 160.881C273.489 162.491 271.761 164.799 270.577 167.805C269.417 170.812 268.837 174.422 268.837 178.636C268.837 183.087 269.429 186.816 270.613 189.822C271.82 192.805 273.56 195.054 275.833 196.57C278.105 198.061 280.84 198.807 284.036 198.807C285.859 198.807 287.492 198.582 288.936 198.132C290.381 197.659 291.635 196.984 292.701 196.108C293.766 195.232 294.63 194.179 295.293 192.947C295.98 191.693 296.441 190.284 296.678 188.722L316.706 188.864C316.47 191.941 315.605 195.078 314.114 198.274C312.623 201.446 310.504 204.382 307.757 207.081C305.035 209.756 301.661 211.911 297.637 213.544C293.612 215.178 288.936 215.994 283.61 215.994C276.934 215.994 270.944 214.562 265.641 211.697C260.362 208.833 256.183 204.619 253.105 199.055C250.051 193.492 248.525 186.686 248.525 178.636C248.525 170.54 250.087 163.722 253.212 158.182C256.337 152.618 260.551 148.416 265.854 145.575C271.157 142.711 277.076 141.278 283.61 141.278C288.203 141.278 292.428 141.906 296.287 143.161C300.146 144.415 303.532 146.25 306.444 148.665C309.355 151.056 311.699 154.003 313.475 157.507C315.25 161.011 316.328 165.024 316.706 169.545Z" fill="white"/>
<path d="M113.892 286C113.703 283.633 112.815 281.786 111.229 280.46C109.666 279.134 107.287 278.472 104.091 278.472C102.055 278.472 100.386 278.72 99.0838 279.217C97.8054 279.691 96.8584 280.342 96.2429 281.17C95.6274 281.999 95.3078 282.946 95.2841 284.011C95.2367 284.887 95.3906 285.68 95.7457 286.391C96.1245 287.077 96.7164 287.705 97.5213 288.273C98.3262 288.817 99.3561 289.314 100.611 289.764C101.866 290.214 103.357 290.616 105.085 290.972L111.051 292.25C115.076 293.102 118.52 294.227 121.385 295.624C124.25 297.02 126.593 298.666 128.416 300.56C130.239 302.43 131.577 304.537 132.429 306.881C133.305 309.224 133.755 311.781 133.778 314.551C133.755 319.333 132.559 323.382 130.192 326.696C127.824 330.01 124.439 332.532 120.036 334.26C115.656 335.988 110.388 336.852 104.233 336.852C97.9119 336.852 92.3958 335.917 87.6847 334.047C82.9972 332.177 79.3513 329.3 76.7472 325.418C74.1667 321.511 72.8646 316.516 72.8409 310.432H91.5909C91.7093 312.657 92.2656 314.527 93.2599 316.043C94.2543 317.558 95.651 318.706 97.4503 319.487C99.2732 320.268 101.439 320.659 103.949 320.659C106.056 320.659 107.82 320.399 109.24 319.878C110.661 319.357 111.738 318.635 112.472 317.712C113.205 316.788 113.584 315.735 113.608 314.551C113.584 313.438 113.217 312.468 112.507 311.639C111.821 310.787 110.684 310.029 109.098 309.366C107.512 308.68 105.369 308.041 102.67 307.449L95.4261 305.886C88.9867 304.49 83.9086 302.158 80.1918 298.891C76.4986 295.6 74.6638 291.114 74.6875 285.432C74.6638 280.815 75.8949 276.779 78.3807 273.322C80.8902 269.842 84.3584 267.132 88.7855 265.19C93.2363 263.249 98.3381 262.278 104.091 262.278C109.962 262.278 115.04 263.261 119.325 265.226C123.61 267.191 126.913 269.961 129.233 273.536C131.577 277.087 132.76 281.241 132.784 286H113.892ZM161.175 263.273L176.09 314.551H176.658L191.573 263.273H213.874L189.869 336H162.88L138.874 263.273H161.175ZM220.879 336V263.273H273.294V279.182H240.623V291.682H270.595V307.591H240.623V320.091H273.152V336H220.879ZM283.086 336V263.273H302.83V320.091H332.234V336H283.086ZM329.535 279.182V263.273H392.745V279.182H370.87V336H351.41V279.182H329.535ZM400.176 336V263.273H452.591V279.182H419.92V291.682H449.892V307.591H419.92V320.091H452.449V336H400.176ZM462.383 336V263.273H482.127V292.676H483.121L504.996 263.273H528.008L503.434 295.659L528.576 336H504.996L488.661 308.727L482.127 317.25V336H462.383ZM553.612 263.273V336H533.867V263.273H553.612ZM560.98 279.182V263.273H624.19V279.182H602.315V336H582.855V279.182H560.98Z" fill="white"/>
</g>
<defs>
<clipPath id="clip0_0_1">
<rect width="1080" height="1080" fill="white"/>
</clipPath>
<clipPath id="clip1_0_1">
<rect width="366" height="437" fill="white" transform="translate(680 32)"/>
</clipPath>
</defs>
</svg>
