<svg width="1080" height="1080" viewBox="0 0 1080 1080" fill="none" xmlns="http://www.w3.org/2000/svg">
<rect width="1080" height="1080" fill="#1E1E1E"/>
<rect width="1080" height="1080" fill="url(#paint0_linear_0_1)"/>
<path d="M272.781 832.599V817.599L332.781 791.179V808.438L291.702 824.929L292.256 824.034V826.165L291.702 825.27L332.781 841.761V859.02L272.781 832.599ZM369.472 861.236C365.295 861.236 361.574 860.511 358.307 859.062C355.04 857.585 352.455 855.412 350.551 852.543C348.676 849.645 347.739 846.037 347.739 841.719C347.739 838.082 348.406 835.028 349.741 832.557C351.077 830.085 352.895 828.097 355.196 826.591C357.497 825.085 360.111 823.949 363.037 823.182C365.991 822.415 369.088 821.875 372.327 821.562C376.134 821.165 379.202 820.795 381.531 820.455C383.861 820.085 385.551 819.545 386.602 818.835C387.653 818.125 388.179 817.074 388.179 815.682V815.426C388.179 812.727 387.327 810.639 385.622 809.162C383.946 807.685 381.56 806.946 378.463 806.946C375.196 806.946 372.597 807.67 370.665 809.119C368.733 810.54 367.455 812.33 366.83 814.489L350.04 813.125C350.892 809.148 352.568 805.71 355.068 802.812C357.568 799.886 360.793 797.642 364.741 796.08C368.719 794.489 373.321 793.693 378.548 793.693C382.185 793.693 385.665 794.119 388.989 794.972C392.341 795.824 395.31 797.145 397.895 798.935C400.509 800.724 402.568 803.026 404.074 805.838C405.58 808.622 406.332 811.96 406.332 815.852V860H389.116V850.923H388.605C387.554 852.969 386.148 854.773 384.386 856.335C382.625 857.869 380.509 859.077 378.037 859.957C375.565 860.81 372.71 861.236 369.472 861.236ZM374.67 848.707C377.341 848.707 379.699 848.182 381.744 847.131C383.79 846.051 385.395 844.602 386.56 842.784C387.724 840.966 388.307 838.906 388.307 836.605V829.659C387.739 830.028 386.957 830.369 385.963 830.682C384.997 830.966 383.903 831.236 382.682 831.491C381.46 831.719 380.239 831.932 379.017 832.131C377.795 832.301 376.688 832.457 375.693 832.599C373.563 832.912 371.702 833.409 370.111 834.091C368.52 834.773 367.284 835.696 366.403 836.861C365.523 837.997 365.082 839.418 365.082 841.122C365.082 843.594 365.977 845.483 367.767 846.79C369.585 848.068 371.886 848.707 374.67 848.707ZM474.876 813.21L458.257 814.233C457.973 812.812 457.362 811.534 456.425 810.398C455.487 809.233 454.251 808.31 452.717 807.628C451.212 806.918 449.408 806.562 447.305 806.562C444.493 806.562 442.121 807.159 440.189 808.352C438.257 809.517 437.291 811.08 437.291 813.04C437.291 814.602 437.916 815.923 439.166 817.003C440.416 818.082 442.561 818.949 445.601 819.602L457.447 821.989C463.811 823.295 468.555 825.398 471.68 828.295C474.805 831.193 476.368 835 476.368 839.716C476.368 844.006 475.104 847.77 472.575 851.009C470.075 854.247 466.638 856.776 462.263 858.594C457.916 860.384 452.902 861.278 447.22 861.278C438.555 861.278 431.652 859.474 426.51 855.866C421.396 852.23 418.399 847.287 417.518 841.037L435.374 840.099C435.913 842.741 437.22 844.759 439.294 846.151C441.368 847.514 444.024 848.196 447.263 848.196C450.445 848.196 453.001 847.585 454.933 846.364C456.893 845.114 457.888 843.509 457.916 841.548C457.888 839.901 457.192 838.551 455.828 837.5C454.464 836.42 452.362 835.597 449.521 835.028L438.186 832.77C431.794 831.491 427.036 829.276 423.911 826.122C420.814 822.969 419.266 818.949 419.266 814.062C419.266 809.858 420.402 806.236 422.675 803.196C424.976 800.156 428.2 797.812 432.348 796.165C436.524 794.517 441.411 793.693 447.007 793.693C455.274 793.693 461.78 795.44 466.524 798.935C471.297 802.429 474.081 807.187 474.876 813.21ZM487.799 860V794.545H505.952V860H487.799ZM496.918 786.108C494.219 786.108 491.904 785.213 489.972 783.423C488.069 781.605 487.117 779.432 487.117 776.903C487.117 774.403 488.069 772.259 489.972 770.469C491.904 768.651 494.219 767.741 496.918 767.741C499.617 767.741 501.918 768.651 503.822 770.469C505.754 772.259 506.719 774.403 506.719 776.903C506.719 779.432 505.754 781.605 503.822 783.423C501.918 785.213 499.617 786.108 496.918 786.108ZM544.614 861.065C539.642 861.065 535.139 859.787 531.105 857.23C527.099 854.645 523.918 850.852 521.56 845.852C519.23 840.824 518.065 834.659 518.065 827.358C518.065 819.858 519.273 813.622 521.688 808.651C524.102 803.651 527.313 799.915 531.318 797.443C535.352 794.943 539.77 793.693 544.571 793.693C548.236 793.693 551.29 794.318 553.733 795.568C556.205 796.79 558.193 798.324 559.699 800.17C561.233 801.989 562.398 803.778 563.193 805.54H563.747V772.727H581.858V860H563.96V849.517H563.193C562.341 851.335 561.134 853.139 559.571 854.929C558.037 856.69 556.034 858.153 553.562 859.318C551.119 860.483 548.136 861.065 544.614 861.065ZM550.366 846.619C553.293 846.619 555.764 845.824 557.781 844.233C559.827 842.614 561.389 840.355 562.469 837.457C563.577 834.56 564.131 831.165 564.131 827.273C564.131 823.381 563.591 820 562.511 817.131C561.432 814.261 559.869 812.045 557.824 810.483C555.778 808.92 553.293 808.139 550.366 808.139C547.384 808.139 544.869 808.949 542.824 810.568C540.778 812.187 539.23 814.432 538.179 817.301C537.128 820.17 536.602 823.494 536.602 827.273C536.602 831.08 537.128 834.446 538.179 837.372C539.259 840.27 540.807 842.543 542.824 844.19C544.869 845.81 547.384 846.619 550.366 846.619ZM626.613 861.278C619.88 861.278 614.085 859.915 609.227 857.188C604.397 854.432 600.675 850.54 598.062 845.511C595.448 840.455 594.141 834.474 594.141 827.571C594.141 820.838 595.448 814.929 598.062 809.844C600.675 804.759 604.354 800.795 609.099 797.955C613.871 795.114 619.468 793.693 625.888 793.693C630.207 793.693 634.227 794.389 637.948 795.781C641.698 797.145 644.965 799.205 647.749 801.96C650.562 804.716 652.749 808.182 654.312 812.358C655.874 816.506 656.656 821.364 656.656 826.932V831.918H601.386V820.668H639.567C639.567 818.054 638.999 815.739 637.863 813.722C636.727 811.705 635.15 810.128 633.133 808.991C631.144 807.827 628.829 807.244 626.187 807.244C623.431 807.244 620.988 807.884 618.857 809.162C616.755 810.412 615.107 812.102 613.914 814.233C612.721 816.335 612.11 818.679 612.082 821.264V831.96C612.082 835.199 612.678 837.997 613.871 840.355C615.093 842.713 616.812 844.531 619.028 845.81C621.244 847.088 623.871 847.727 626.911 847.727C628.928 847.727 630.775 847.443 632.451 846.875C634.127 846.307 635.562 845.455 636.755 844.318C637.948 843.182 638.857 841.79 639.482 840.142L656.272 841.25C655.42 845.284 653.673 848.807 651.031 851.818C648.417 854.801 645.036 857.131 640.888 858.807C636.769 860.455 632.011 861.278 626.613 861.278ZM734.287 768.636L706.162 873.125H690.523L718.648 768.636H734.287ZM806.57 832.599L746.57 859.02V841.761L787.65 825.27L787.096 826.165V824.034L787.65 824.929L746.57 808.438V791.179L806.57 817.599V832.599Z" fill="black"/>
<path d="M276.194 934.33C274.582 934.33 273.193 933.986 272.028 933.297C270.871 932.601 269.976 931.624 269.344 930.367C268.719 929.103 268.406 927.622 268.406 925.925C268.406 924.249 268.719 922.771 269.344 921.493C269.976 920.214 270.857 919.217 271.986 918.499C273.122 917.782 274.45 917.423 275.97 917.423C276.893 917.423 277.788 917.576 278.655 917.881C279.521 918.187 280.299 918.666 280.988 919.32C281.677 919.973 282.22 920.822 282.618 921.866C283.016 922.903 283.214 924.163 283.214 925.648V926.777H270.207V924.391H280.093C280.093 923.553 279.923 922.81 279.582 922.164C279.241 921.511 278.761 920.996 278.143 920.619C277.533 920.243 276.815 920.055 275.991 920.055C275.097 920.055 274.315 920.275 273.648 920.715C272.987 921.148 272.476 921.717 272.114 922.42C271.759 923.116 271.581 923.872 271.581 924.689V926.553C271.581 927.647 271.773 928.577 272.156 929.344C272.547 930.112 273.09 930.697 273.786 931.102C274.482 931.5 275.295 931.699 276.226 931.699C276.83 931.699 277.38 931.614 277.877 931.443C278.374 931.266 278.804 931.003 279.166 930.655C279.528 930.307 279.805 929.877 279.997 929.366L283.012 929.909C282.771 930.797 282.337 931.575 281.712 932.242C281.094 932.903 280.317 933.418 279.379 933.787C278.449 934.149 277.387 934.33 276.194 934.33ZM339.582 917.636L343.194 924.007L346.837 917.636H350.321L345.218 925.818L350.363 934H346.88L343.194 927.885L339.518 934H336.024L341.116 925.818L336.088 917.636H339.582ZM404.291 940.136V917.636H407.402V920.289H407.668C407.853 919.948 408.119 919.554 408.467 919.107C408.815 918.659 409.298 918.268 409.916 917.935C410.534 917.594 411.351 917.423 412.367 917.423C413.688 917.423 414.867 917.757 415.904 918.425C416.94 919.092 417.754 920.055 418.343 921.312C418.94 922.569 419.238 924.082 419.238 925.85C419.238 927.619 418.943 929.135 418.354 930.399C417.764 931.656 416.955 932.626 415.925 933.308C414.895 933.982 413.72 934.32 412.399 934.32C411.404 934.32 410.591 934.153 409.959 933.819C409.334 933.485 408.844 933.094 408.489 932.647C408.134 932.2 407.86 931.802 407.668 931.454H407.477V940.136H404.291ZM407.413 925.818C407.413 926.969 407.58 927.977 407.913 928.844C408.247 929.71 408.73 930.388 409.362 930.879C409.994 931.362 410.769 931.603 411.685 931.603C412.636 931.603 413.432 931.351 414.071 930.847C414.71 930.335 415.193 929.643 415.52 928.769C415.854 927.896 416.021 926.912 416.021 925.818C416.021 924.739 415.857 923.769 415.531 922.91C415.211 922.05 414.728 921.372 414.082 920.875C413.443 920.378 412.644 920.129 411.685 920.129C410.761 920.129 409.98 920.367 409.341 920.843C408.709 921.319 408.23 921.983 407.903 922.835C407.576 923.687 407.413 924.682 407.413 925.818ZM476.692 912.182V934H473.507V912.182H476.692ZM536.44 934.362C535.403 934.362 534.465 934.17 533.627 933.787C532.789 933.396 532.125 932.832 531.635 932.093C531.152 931.354 530.911 930.449 530.911 929.376C530.911 928.453 531.088 927.693 531.443 927.097C531.798 926.5 532.278 926.028 532.881 925.68C533.485 925.332 534.16 925.069 534.906 924.891C535.651 924.714 536.411 924.579 537.185 924.487C538.166 924.373 538.961 924.281 539.572 924.21C540.183 924.131 540.627 924.007 540.904 923.837C541.18 923.666 541.319 923.389 541.319 923.006V922.931C541.319 922.001 541.056 921.28 540.531 920.768C540.012 920.257 539.238 920.001 538.208 920.001C537.136 920.001 536.291 920.239 535.673 920.715C535.062 921.184 534.639 921.706 534.405 922.281L531.411 921.599C531.766 920.605 532.285 919.803 532.967 919.192C533.656 918.574 534.448 918.126 535.342 917.849C536.237 917.565 537.178 917.423 538.166 917.423C538.819 917.423 539.511 917.501 540.243 917.658C540.982 917.807 541.671 918.084 542.31 918.489C542.956 918.893 543.485 919.472 543.897 920.225C544.309 920.971 544.515 921.94 544.515 923.134V934H541.404V931.763H541.276C541.07 932.175 540.761 932.58 540.35 932.977C539.938 933.375 539.408 933.705 538.762 933.968C538.116 934.231 537.342 934.362 536.44 934.362ZM537.132 931.805C538.013 931.805 538.766 931.631 539.391 931.283C540.023 930.935 540.502 930.481 540.829 929.92C541.163 929.352 541.33 928.744 541.33 928.098V925.989C541.216 926.102 540.996 926.209 540.669 926.308C540.35 926.401 539.984 926.482 539.572 926.553C539.16 926.617 538.759 926.678 538.368 926.734C537.977 926.784 537.651 926.827 537.388 926.862C536.77 926.94 536.205 927.072 535.694 927.256C535.19 927.441 534.785 927.707 534.479 928.055C534.181 928.396 534.032 928.851 534.032 929.419C534.032 930.207 534.323 930.804 534.906 931.209C535.488 931.607 536.23 931.805 537.132 931.805ZM599.458 934V917.636H602.643V934H599.458ZM601.066 915.112C600.512 915.112 600.037 914.927 599.639 914.558C599.248 914.181 599.053 913.734 599.053 913.215C599.053 912.69 599.248 912.242 599.639 911.873C600.037 911.496 600.512 911.308 601.066 911.308C601.62 911.308 602.093 911.496 602.483 911.873C602.881 912.242 603.08 912.69 603.08 913.215C603.08 913.734 602.881 914.181 602.483 914.558C602.093 914.927 601.62 915.112 601.066 915.112ZM660.814 924.284V934H657.628V917.636H660.686V920.3H660.888C661.265 919.433 661.854 918.737 662.657 918.212C663.467 917.686 664.486 917.423 665.714 917.423C666.829 917.423 667.806 917.658 668.644 918.126C669.482 918.588 670.132 919.277 670.594 920.193C671.055 921.109 671.286 922.242 671.286 923.592V934H668.101V923.975C668.101 922.789 667.792 921.862 667.174 921.195C666.556 920.52 665.707 920.183 664.628 920.183C663.889 920.183 663.232 920.342 662.657 920.662C662.089 920.982 661.638 921.45 661.304 922.068C660.977 922.679 660.814 923.418 660.814 924.284ZM733.311 934.33C731.698 934.33 730.31 933.986 729.145 933.297C727.988 932.601 727.093 931.624 726.461 930.367C725.836 929.103 725.523 927.622 725.523 925.925C725.523 924.249 725.836 922.771 726.461 921.493C727.093 920.214 727.973 919.217 729.103 918.499C730.239 917.782 731.567 917.423 733.087 917.423C734.01 917.423 734.905 917.576 735.772 917.881C736.638 918.187 737.416 918.666 738.105 919.32C738.794 919.973 739.337 920.822 739.735 921.866C740.132 922.903 740.331 924.163 740.331 925.648V926.777H727.323V924.391H737.21C737.21 923.553 737.039 922.81 736.698 922.164C736.358 921.511 735.878 920.996 735.26 920.619C734.649 920.243 733.932 920.055 733.108 920.055C732.213 920.055 731.432 920.275 730.765 920.715C730.104 921.148 729.593 921.717 729.23 922.42C728.875 923.116 728.698 923.872 728.698 924.689V926.553C728.698 927.647 728.89 928.577 729.273 929.344C729.664 930.112 730.207 930.697 730.903 931.102C731.599 931.5 732.412 931.699 733.343 931.699C733.946 931.699 734.497 931.614 734.994 931.443C735.491 931.266 735.921 931.003 736.283 930.655C736.645 930.307 736.922 929.877 737.114 929.366L740.129 929.909C739.887 930.797 739.454 931.575 738.829 932.242C738.211 932.903 737.434 933.418 736.496 933.787C735.566 934.149 734.504 934.33 733.311 934.33ZM800.691 934.32C799.37 934.32 798.191 933.982 797.154 933.308C796.124 932.626 795.315 931.656 794.725 930.399C794.143 929.135 793.852 927.619 793.852 925.85C793.852 924.082 794.146 922.569 794.736 921.312C795.333 920.055 796.149 919.092 797.186 918.425C798.223 917.757 799.399 917.423 800.713 917.423C801.728 917.423 802.545 917.594 803.163 917.935C803.788 918.268 804.271 918.659 804.612 919.107C804.96 919.554 805.23 919.948 805.421 920.289H805.613V912.182H808.798V934H805.688V931.454H805.421C805.23 931.802 804.953 932.2 804.59 932.647C804.235 933.094 803.745 933.485 803.12 933.819C802.495 934.153 801.686 934.32 800.691 934.32ZM801.394 931.603C802.311 931.603 803.085 931.362 803.717 930.879C804.356 930.388 804.839 929.71 805.166 928.844C805.499 927.977 805.666 926.969 805.666 925.818C805.666 924.682 805.503 923.687 805.176 922.835C804.85 921.983 804.37 921.319 803.738 920.843C803.106 920.367 802.325 920.129 801.394 920.129C800.436 920.129 799.637 920.378 798.997 920.875C798.358 921.372 797.875 922.05 797.548 922.91C797.229 923.769 797.069 924.739 797.069 925.818C797.069 926.912 797.232 927.896 797.559 928.769C797.886 929.643 798.369 930.335 799.008 930.847C799.654 931.351 800.45 931.603 801.394 931.603Z" fill="black"/>
<path d="M353.818 639.518L312.389 174.875H767.611L726.127 639.445L539.723 691.125L353.818 639.518Z" fill="#E44F26"/>
<path d="M540 651.632L690.634 609.871L726.071 212.875H540V651.632Z" fill="#F1662A"/>
<path d="M540 385.192H464.591L459.391 326.837H540V269.847H397.109L398.474 285.15L412.468 442.182H540V385.192ZM540 533.189L539.742 533.263L476.28 516.135L472.224 470.686H415.012L422.996 560.145L539.742 592.558L540 592.484V533.189Z" fill="#EBEBEB"/>
<path d="M539.797 385.192V442.182H609.97L603.37 516.098L539.797 533.245V592.54L656.636 560.145L657.484 550.521L670.869 400.495L672.271 385.192H539.797ZM539.797 269.847V326.837H677.452L678.595 314.041L681.194 285.15L682.559 269.847H539.797Z" fill="white"/>
<defs>
<linearGradient id="paint0_linear_0_1" x1="540" y1="0" x2="540" y2="1080" gradientUnits="userSpaceOnUse">
<stop stop-color="#B4B4B4"/>
<stop offset="1" stop-color="#D7D7D7"/>
</linearGradient>
</defs>
</svg>
