<svg width="1080" height="1080" viewBox="0 0 1080 1080" fill="none" xmlns="http://www.w3.org/2000/svg">
<rect width="1080" height="1080" fill="#1E1E1E"/>
<rect width="1080" height="1080" fill="url(#paint0_linear_0_1)"/>
<path d="M282.781 832.599V817.599L342.781 791.179V808.438L301.702 824.929L302.256 824.034V826.165L301.702 825.27L342.781 841.761V859.02L282.781 832.599ZM361.148 860V772.727H379.301V805.54H379.855C380.651 803.778 381.801 801.989 383.307 800.17C384.841 798.324 386.83 796.79 389.273 795.568C391.744 794.318 394.813 793.693 398.477 793.693C403.25 793.693 407.653 794.943 411.688 797.443C415.722 799.915 418.946 803.651 421.361 808.651C423.776 813.622 424.983 819.858 424.983 827.358C424.983 834.659 423.804 840.824 421.446 845.852C419.116 850.852 415.935 854.645 411.901 857.23C407.895 859.787 403.406 861.065 398.435 861.065C394.912 861.065 391.915 860.483 389.443 859.318C387 858.153 384.997 856.69 383.435 854.929C381.872 853.139 380.679 851.335 379.855 849.517H379.045V860H361.148ZM378.918 827.273C378.918 831.165 379.457 834.56 380.537 837.457C381.616 840.355 383.179 842.614 385.224 844.233C387.27 845.824 389.756 846.619 392.682 846.619C395.636 846.619 398.136 845.81 400.182 844.19C402.227 842.543 403.776 840.27 404.827 837.372C405.906 834.446 406.446 831.08 406.446 827.273C406.446 823.494 405.92 820.17 404.869 817.301C403.818 814.432 402.27 812.187 400.224 810.568C398.179 808.949 395.665 808.139 392.682 808.139C389.727 808.139 387.227 808.92 385.182 810.483C383.165 812.045 381.616 814.261 380.537 817.131C379.457 820 378.918 823.381 378.918 827.273ZM466.67 861.278C460.05 861.278 454.326 859.872 449.496 857.06C444.695 854.219 440.988 850.27 438.374 845.213C435.761 840.128 434.454 834.233 434.454 827.528C434.454 820.767 435.761 814.858 438.374 809.801C440.988 804.716 444.695 800.767 449.496 797.955C454.326 795.114 460.05 793.693 466.67 793.693C473.289 793.693 478.999 795.114 483.8 797.955C488.63 800.767 492.352 804.716 494.965 809.801C497.579 814.858 498.886 820.767 498.886 827.528C498.886 834.233 497.579 840.128 494.965 845.213C492.352 850.27 488.63 854.219 483.8 857.06C478.999 859.872 473.289 861.278 466.67 861.278ZM466.755 847.216C469.766 847.216 472.281 846.364 474.298 844.659C476.315 842.926 477.835 840.568 478.857 837.585C479.908 834.602 480.434 831.207 480.434 827.401C480.434 823.594 479.908 820.199 478.857 817.216C477.835 814.233 476.315 811.875 474.298 810.142C472.281 808.409 469.766 807.543 466.755 807.543C463.715 807.543 461.158 808.409 459.085 810.142C457.039 811.875 455.491 814.233 454.44 817.216C453.417 820.199 452.906 823.594 452.906 827.401C452.906 831.207 453.417 834.602 454.44 837.585C455.491 840.568 457.039 842.926 459.085 844.659C461.158 846.364 463.715 847.216 466.755 847.216ZM534.809 861.065C529.837 861.065 525.335 859.787 521.3 857.23C517.295 854.645 514.113 850.852 511.755 845.852C509.425 840.824 508.261 834.659 508.261 827.358C508.261 819.858 509.468 813.622 511.883 808.651C514.298 803.651 517.508 799.915 521.513 797.443C525.548 794.943 529.965 793.693 534.766 793.693C538.431 793.693 541.485 794.318 543.928 795.568C546.4 796.79 548.388 798.324 549.894 800.17C551.428 801.989 552.593 803.778 553.388 805.54H553.942V772.727H572.053V860H554.156V849.517H553.388C552.536 851.335 551.329 853.139 549.766 854.929C548.232 856.69 546.229 858.153 543.758 859.318C541.315 860.483 538.332 861.065 534.809 861.065ZM540.562 846.619C543.488 846.619 545.96 845.824 547.977 844.233C550.022 842.614 551.585 840.355 552.664 837.457C553.772 834.56 554.326 831.165 554.326 827.273C554.326 823.381 553.786 820 552.707 817.131C551.627 814.261 550.065 812.045 548.019 810.483C545.974 808.92 543.488 808.139 540.562 808.139C537.579 808.139 535.065 808.949 533.019 810.568C530.974 812.187 529.425 814.432 528.374 817.301C527.323 820.17 526.798 823.494 526.798 827.273C526.798 831.08 527.323 834.446 528.374 837.372C529.454 840.27 531.002 842.543 533.019 844.19C535.065 845.81 537.579 846.619 540.562 846.619ZM598.186 884.545C595.885 884.545 593.726 884.361 591.709 883.991C589.72 883.651 588.072 883.21 586.766 882.67L590.857 869.119C592.987 869.773 594.905 870.128 596.609 870.185C598.342 870.241 599.834 869.844 601.084 868.991C602.362 868.139 603.399 866.69 604.195 864.645L605.26 861.875L581.78 794.545H600.871L614.422 842.614H615.104L628.783 794.545H648.001L622.561 867.074C621.339 870.597 619.678 873.665 617.575 876.278C615.501 878.92 612.874 880.952 609.692 882.372C606.51 883.821 602.675 884.545 598.186 884.545ZM723.076 768.636L694.951 873.125H679.312L707.437 768.636H723.076ZM795.359 832.599L735.359 859.02V841.761L776.439 825.27L775.885 826.165V824.034L776.439 824.929L735.359 808.438V791.179L795.359 817.599V832.599Z" fill="black"/>
<path d="M276.194 934.33C274.582 934.33 273.193 933.986 272.028 933.297C270.871 932.601 269.976 931.624 269.344 930.367C268.719 929.103 268.406 927.622 268.406 925.925C268.406 924.249 268.719 922.771 269.344 921.493C269.976 920.214 270.857 919.217 271.986 918.499C273.122 917.782 274.45 917.423 275.97 917.423C276.893 917.423 277.788 917.576 278.655 917.881C279.521 918.187 280.299 918.666 280.988 919.32C281.677 919.973 282.22 920.822 282.618 921.866C283.016 922.903 283.214 924.163 283.214 925.648V926.777H270.207V924.391H280.093C280.093 923.553 279.923 922.81 279.582 922.164C279.241 921.511 278.761 920.996 278.143 920.619C277.533 920.243 276.815 920.055 275.991 920.055C275.097 920.055 274.315 920.275 273.648 920.715C272.987 921.148 272.476 921.717 272.114 922.42C271.759 923.116 271.581 923.872 271.581 924.689V926.553C271.581 927.647 271.773 928.577 272.156 929.344C272.547 930.112 273.09 930.697 273.786 931.102C274.482 931.5 275.295 931.699 276.226 931.699C276.83 931.699 277.38 931.614 277.877 931.443C278.374 931.266 278.804 931.003 279.166 930.655C279.528 930.307 279.805 929.877 279.997 929.366L283.012 929.909C282.771 930.797 282.337 931.575 281.712 932.242C281.094 932.903 280.317 933.418 279.379 933.787C278.449 934.149 277.387 934.33 276.194 934.33ZM339.582 917.636L343.194 924.007L346.837 917.636H350.321L345.218 925.818L350.363 934H346.88L343.194 927.885L339.518 934H336.024L341.116 925.818L336.088 917.636H339.582ZM404.291 940.136V917.636H407.402V920.289H407.668C407.853 919.948 408.119 919.554 408.467 919.107C408.815 918.659 409.298 918.268 409.916 917.935C410.534 917.594 411.351 917.423 412.367 917.423C413.688 917.423 414.867 917.757 415.904 918.425C416.94 919.092 417.754 920.055 418.343 921.312C418.94 922.569 419.238 924.082 419.238 925.85C419.238 927.619 418.943 929.135 418.354 930.399C417.764 931.656 416.955 932.626 415.925 933.308C414.895 933.982 413.72 934.32 412.399 934.32C411.404 934.32 410.591 934.153 409.959 933.819C409.334 933.485 408.844 933.094 408.489 932.647C408.134 932.2 407.86 931.802 407.668 931.454H407.477V940.136H404.291ZM407.413 925.818C407.413 926.969 407.58 927.977 407.913 928.844C408.247 929.71 408.73 930.388 409.362 930.879C409.994 931.362 410.769 931.603 411.685 931.603C412.636 931.603 413.432 931.351 414.071 930.847C414.71 930.335 415.193 929.643 415.52 928.769C415.854 927.896 416.021 926.912 416.021 925.818C416.021 924.739 415.857 923.769 415.531 922.91C415.211 922.05 414.728 921.372 414.082 920.875C413.443 920.378 412.644 920.129 411.685 920.129C410.761 920.129 409.98 920.367 409.341 920.843C408.709 921.319 408.23 921.983 407.903 922.835C407.576 923.687 407.413 924.682 407.413 925.818ZM476.692 912.182V934H473.507V912.182H476.692ZM536.44 934.362C535.403 934.362 534.465 934.17 533.627 933.787C532.789 933.396 532.125 932.832 531.635 932.093C531.152 931.354 530.911 930.449 530.911 929.376C530.911 928.453 531.088 927.693 531.443 927.097C531.798 926.5 532.278 926.028 532.881 925.68C533.485 925.332 534.16 925.069 534.906 924.891C535.651 924.714 536.411 924.579 537.185 924.487C538.166 924.373 538.961 924.281 539.572 924.21C540.183 924.131 540.627 924.007 540.904 923.837C541.18 923.666 541.319 923.389 541.319 923.006V922.931C541.319 922.001 541.056 921.28 540.531 920.768C540.012 920.257 539.238 920.001 538.208 920.001C537.136 920.001 536.291 920.239 535.673 920.715C535.062 921.184 534.639 921.706 534.405 922.281L531.411 921.599C531.766 920.605 532.285 919.803 532.967 919.192C533.656 918.574 534.448 918.126 535.342 917.849C536.237 917.565 537.178 917.423 538.166 917.423C538.819 917.423 539.511 917.501 540.243 917.658C540.982 917.807 541.671 918.084 542.31 918.489C542.956 918.893 543.485 919.472 543.897 920.225C544.309 920.971 544.515 921.94 544.515 923.134V934H541.404V931.763H541.276C541.07 932.175 540.761 932.58 540.35 932.977C539.938 933.375 539.408 933.705 538.762 933.968C538.116 934.231 537.342 934.362 536.44 934.362ZM537.132 931.805C538.013 931.805 538.766 931.631 539.391 931.283C540.023 930.935 540.502 930.481 540.829 929.92C541.163 929.352 541.33 928.744 541.33 928.098V925.989C541.216 926.102 540.996 926.209 540.669 926.308C540.35 926.401 539.984 926.482 539.572 926.553C539.16 926.617 538.759 926.678 538.368 926.734C537.977 926.784 537.651 926.827 537.388 926.862C536.77 926.94 536.205 927.072 535.694 927.256C535.19 927.441 534.785 927.707 534.479 928.055C534.181 928.396 534.032 928.851 534.032 929.419C534.032 930.207 534.323 930.804 534.906 931.209C535.488 931.607 536.23 931.805 537.132 931.805ZM599.458 934V917.636H602.643V934H599.458ZM601.066 915.112C600.512 915.112 600.037 914.927 599.639 914.558C599.248 914.181 599.053 913.734 599.053 913.215C599.053 912.69 599.248 912.242 599.639 911.873C600.037 911.496 600.512 911.308 601.066 911.308C601.62 911.308 602.093 911.496 602.483 911.873C602.881 912.242 603.08 912.69 603.08 913.215C603.08 913.734 602.881 914.181 602.483 914.558C602.093 914.927 601.62 915.112 601.066 915.112ZM660.814 924.284V934H657.628V917.636H660.686V920.3H660.888C661.265 919.433 661.854 918.737 662.657 918.212C663.467 917.686 664.486 917.423 665.714 917.423C666.829 917.423 667.806 917.658 668.644 918.126C669.482 918.588 670.132 919.277 670.594 920.193C671.055 921.109 671.286 922.242 671.286 923.592V934H668.101V923.975C668.101 922.789 667.792 921.862 667.174 921.195C666.556 920.52 665.707 920.183 664.628 920.183C663.889 920.183 663.232 920.342 662.657 920.662C662.089 920.982 661.638 921.45 661.304 922.068C660.977 922.679 660.814 923.418 660.814 924.284ZM733.311 934.33C731.698 934.33 730.31 933.986 729.145 933.297C727.988 932.601 727.093 931.624 726.461 930.367C725.836 929.103 725.523 927.622 725.523 925.925C725.523 924.249 725.836 922.771 726.461 921.493C727.093 920.214 727.973 919.217 729.103 918.499C730.239 917.782 731.567 917.423 733.087 917.423C734.01 917.423 734.905 917.576 735.772 917.881C736.638 918.187 737.416 918.666 738.105 919.32C738.794 919.973 739.337 920.822 739.735 921.866C740.132 922.903 740.331 924.163 740.331 925.648V926.777H727.323V924.391H737.21C737.21 923.553 737.039 922.81 736.698 922.164C736.358 921.511 735.878 920.996 735.26 920.619C734.649 920.243 733.932 920.055 733.108 920.055C732.213 920.055 731.432 920.275 730.765 920.715C730.104 921.148 729.593 921.717 729.23 922.42C728.875 923.116 728.698 923.872 728.698 924.689V926.553C728.698 927.647 728.89 928.577 729.273 929.344C729.664 930.112 730.207 930.697 730.903 931.102C731.599 931.5 732.412 931.699 733.343 931.699C733.946 931.699 734.497 931.614 734.994 931.443C735.491 931.266 735.921 931.003 736.283 930.655C736.645 930.307 736.922 929.877 737.114 929.366L740.129 929.909C739.887 930.797 739.454 931.575 738.829 932.242C738.211 932.903 737.434 933.418 736.496 933.787C735.566 934.149 734.504 934.33 733.311 934.33ZM800.691 934.32C799.37 934.32 798.191 933.982 797.154 933.308C796.124 932.626 795.315 931.656 794.725 930.399C794.143 929.135 793.852 927.619 793.852 925.85C793.852 924.082 794.146 922.569 794.736 921.312C795.333 920.055 796.149 919.092 797.186 918.425C798.223 917.757 799.399 917.423 800.713 917.423C801.728 917.423 802.545 917.594 803.163 917.935C803.788 918.268 804.271 918.659 804.612 919.107C804.96 919.554 805.23 919.948 805.421 920.289H805.613V912.182H808.798V934H805.688V931.454H805.421C805.23 931.802 804.953 932.2 804.59 932.647C804.235 933.094 803.745 933.485 803.12 933.819C802.495 934.153 801.686 934.32 800.691 934.32ZM801.394 931.603C802.311 931.603 803.085 931.362 803.717 930.879C804.356 930.388 804.839 929.71 805.166 928.844C805.499 927.977 805.666 926.969 805.666 925.818C805.666 924.682 805.503 923.687 805.176 922.835C804.85 921.983 804.37 921.319 803.738 920.843C803.106 920.367 802.325 920.129 801.394 920.129C800.436 920.129 799.637 920.378 798.997 920.875C798.358 921.372 797.875 922.05 797.548 922.91C797.229 923.769 797.069 924.739 797.069 925.818C797.069 926.912 797.232 927.896 797.559 928.769C797.886 929.643 798.369 930.335 799.008 930.847C799.654 931.351 800.45 931.603 801.394 931.603Z" fill="black"/>
<path d="M353.818 639.518L312.389 174.875H767.611L726.127 639.445L539.723 691.125L353.818 639.518Z" fill="#E44F26"/>
<path d="M540 651.632L690.634 609.871L726.071 212.875H540V651.632Z" fill="#F1662A"/>
<path d="M540 385.192H464.591L459.391 326.837H540V269.847H397.109L398.474 285.15L412.468 442.182H540V385.192ZM540 533.189L539.742 533.263L476.28 516.135L472.224 470.686H415.012L422.996 560.145L539.742 592.558L540 592.484V533.189Z" fill="#EBEBEB"/>
<path d="M539.797 385.192V442.182H609.97L603.37 516.098L539.797 533.245V592.54L656.636 560.145L657.484 550.521L670.869 400.495L672.271 385.192H539.797ZM539.797 269.847V326.837H677.452L678.595 314.041L681.194 285.15L682.559 269.847H539.797Z" fill="white"/>
<defs>
<linearGradient id="paint0_linear_0_1" x1="540" y1="0" x2="540" y2="1080" gradientUnits="userSpaceOnUse">
<stop stop-color="#B4B4B4"/>
<stop offset="1" stop-color="#D7D7D7"/>
</linearGradient>
</defs>
</svg>
