<svg width="1080" height="1080" viewBox="0 0 1080 1080" fill="none" xmlns="http://www.w3.org/2000/svg">
<rect width="1080" height="1080" fill="#1E1E1E"/>
<rect width="1080" height="1080" fill="url(#paint0_linear_0_1)"/>
<path d="M302.781 832.599V817.599L362.781 791.179V808.438L321.702 824.929L322.256 824.034V826.165L321.702 825.27L362.781 841.761V859.02L302.781 832.599ZM399.472 861.236C395.295 861.236 391.574 860.511 388.307 859.062C385.04 857.585 382.455 855.412 380.551 852.543C378.676 849.645 377.739 846.037 377.739 841.719C377.739 838.082 378.406 835.028 379.741 832.557C381.077 830.085 382.895 828.097 385.196 826.591C387.497 825.085 390.111 823.949 393.037 823.182C395.991 822.415 399.088 821.875 402.327 821.562C406.134 821.165 409.202 820.795 411.531 820.455C413.861 820.085 415.551 819.545 416.602 818.835C417.653 818.125 418.179 817.074 418.179 815.682V815.426C418.179 812.727 417.327 810.639 415.622 809.162C413.946 807.685 411.56 806.946 408.463 806.946C405.196 806.946 402.597 807.67 400.665 809.119C398.733 810.54 397.455 812.33 396.83 814.489L380.04 813.125C380.892 809.148 382.568 805.71 385.068 802.812C387.568 799.886 390.793 797.642 394.741 796.08C398.719 794.489 403.321 793.693 408.548 793.693C412.185 793.693 415.665 794.119 418.989 794.972C422.341 795.824 425.31 797.145 427.895 798.935C430.509 800.724 432.568 803.026 434.074 805.838C435.58 808.622 436.332 811.96 436.332 815.852V860H419.116V850.923H418.605C417.554 852.969 416.148 854.773 414.386 856.335C412.625 857.869 410.509 859.077 408.037 859.957C405.565 860.81 402.71 861.236 399.472 861.236ZM404.67 848.707C407.341 848.707 409.699 848.182 411.744 847.131C413.79 846.051 415.395 844.602 416.56 842.784C417.724 840.966 418.307 838.906 418.307 836.605V829.659C417.739 830.028 416.957 830.369 415.963 830.682C414.997 830.966 413.903 831.236 412.682 831.491C411.46 831.719 410.239 831.932 409.017 832.131C407.795 832.301 406.688 832.457 405.693 832.599C403.563 832.912 401.702 833.409 400.111 834.091C398.52 834.773 397.284 835.696 396.403 836.861C395.523 837.997 395.082 839.418 395.082 841.122C395.082 843.594 395.977 845.483 397.767 846.79C399.585 848.068 401.886 848.707 404.67 848.707ZM450.416 860V794.545H468.016V805.966H468.697C469.891 801.903 471.893 798.835 474.706 796.761C477.518 794.659 480.757 793.608 484.422 793.608C485.331 793.608 486.311 793.665 487.362 793.778C488.413 793.892 489.337 794.048 490.132 794.247V810.355C489.28 810.099 488.101 809.872 486.595 809.673C485.089 809.474 483.712 809.375 482.462 809.375C479.791 809.375 477.405 809.957 475.303 811.122C473.229 812.259 471.581 813.849 470.359 815.895C469.166 817.94 468.57 820.298 468.57 822.969V860H450.416ZM526.3 861.278C519.567 861.278 513.772 859.915 508.914 857.188C504.085 854.432 500.363 850.54 497.749 845.511C495.136 840.455 493.829 834.474 493.829 827.571C493.829 820.838 495.136 814.929 497.749 809.844C500.363 804.759 504.042 800.795 508.786 797.955C513.559 795.114 519.156 793.693 525.576 793.693C529.894 793.693 533.914 794.389 537.636 795.781C541.386 797.145 544.653 799.205 547.437 801.96C550.249 804.716 552.437 808.182 553.999 812.358C555.562 816.506 556.343 821.364 556.343 826.932V831.918H501.073V820.668H539.255C539.255 818.054 538.687 815.739 537.55 813.722C536.414 811.705 534.837 810.128 532.82 808.991C530.832 807.827 528.516 807.244 525.874 807.244C523.119 807.244 520.675 807.884 518.545 809.162C516.442 810.412 514.795 812.102 513.602 814.233C512.408 816.335 511.798 818.679 511.769 821.264V831.96C511.769 835.199 512.366 837.997 513.559 840.355C514.781 842.713 516.499 844.531 518.715 845.81C520.931 847.088 523.559 847.727 526.599 847.727C528.616 847.727 530.462 847.443 532.138 846.875C533.815 846.307 535.249 845.455 536.442 844.318C537.636 843.182 538.545 841.79 539.17 840.142L555.96 841.25C555.107 845.284 553.36 848.807 550.718 851.818C548.104 854.801 544.724 857.131 540.576 858.807C536.457 860.455 531.698 861.278 526.3 861.278ZM586.854 861.236C582.678 861.236 578.957 860.511 575.69 859.062C572.423 857.585 569.837 855.412 567.934 852.543C566.059 849.645 565.121 846.037 565.121 841.719C565.121 838.082 565.789 835.028 567.124 832.557C568.46 830.085 570.278 828.097 572.579 826.591C574.88 825.085 577.494 823.949 580.42 823.182C583.374 822.415 586.471 821.875 589.71 821.562C593.516 821.165 596.585 820.795 598.914 820.455C601.244 820.085 602.934 819.545 603.985 818.835C605.036 818.125 605.562 817.074 605.562 815.682V815.426C605.562 812.727 604.71 810.639 603.005 809.162C601.329 807.685 598.942 806.946 595.846 806.946C592.579 806.946 589.979 807.67 588.048 809.119C586.116 810.54 584.837 812.33 584.212 814.489L567.423 813.125C568.275 809.148 569.951 805.71 572.451 802.812C574.951 799.886 578.175 797.642 582.124 796.08C586.102 794.489 590.704 793.693 595.931 793.693C599.567 793.693 603.048 794.119 606.371 794.972C609.724 795.824 612.692 797.145 615.278 798.935C617.891 800.724 619.951 803.026 621.457 805.838C622.962 808.622 623.715 811.96 623.715 815.852V860H606.499V850.923H605.988C604.937 852.969 603.531 854.773 601.769 856.335C600.008 857.869 597.891 859.077 595.42 859.957C592.948 860.81 590.093 861.236 586.854 861.236ZM592.053 848.707C594.724 848.707 597.082 848.182 599.127 847.131C601.173 846.051 602.778 844.602 603.942 842.784C605.107 840.966 605.69 838.906 605.69 836.605V829.659C605.121 830.028 604.34 830.369 603.346 830.682C602.38 830.966 601.286 831.236 600.065 831.491C598.843 831.719 597.621 831.932 596.4 832.131C595.178 832.301 594.07 832.457 593.076 832.599C590.945 832.912 589.085 833.409 587.494 834.091C585.903 834.773 584.667 835.696 583.786 836.861C582.906 837.997 582.465 839.418 582.465 841.122C582.465 843.594 583.36 845.483 585.15 846.79C586.968 848.068 589.269 848.707 592.053 848.707ZM703.584 768.636L675.459 873.125H659.82L687.945 768.636H703.584ZM775.867 832.599L715.867 859.02V841.761L756.947 825.27L756.393 826.165V824.034L756.947 824.929L715.867 808.438V791.179L775.867 817.599V832.599Z" fill="black"/>
<path d="M276.194 934.33C274.582 934.33 273.193 933.986 272.028 933.297C270.871 932.601 269.976 931.624 269.344 930.367C268.719 929.103 268.406 927.622 268.406 925.925C268.406 924.249 268.719 922.771 269.344 921.493C269.976 920.214 270.857 919.217 271.986 918.499C273.122 917.782 274.45 917.423 275.97 917.423C276.893 917.423 277.788 917.576 278.655 917.881C279.521 918.187 280.299 918.666 280.988 919.32C281.677 919.973 282.22 920.822 282.618 921.866C283.016 922.903 283.214 924.163 283.214 925.648V926.777H270.207V924.391H280.093C280.093 923.553 279.923 922.81 279.582 922.164C279.241 921.511 278.761 920.996 278.143 920.619C277.533 920.243 276.815 920.055 275.991 920.055C275.097 920.055 274.315 920.275 273.648 920.715C272.987 921.148 272.476 921.717 272.114 922.42C271.759 923.116 271.581 923.872 271.581 924.689V926.553C271.581 927.647 271.773 928.577 272.156 929.344C272.547 930.112 273.09 930.697 273.786 931.102C274.482 931.5 275.295 931.699 276.226 931.699C276.83 931.699 277.38 931.614 277.877 931.443C278.374 931.266 278.804 931.003 279.166 930.655C279.528 930.307 279.805 929.877 279.997 929.366L283.012 929.909C282.771 930.797 282.337 931.575 281.712 932.242C281.094 932.903 280.317 933.418 279.379 933.787C278.449 934.149 277.387 934.33 276.194 934.33ZM339.582 917.636L343.194 924.007L346.837 917.636H350.321L345.218 925.818L350.363 934H346.88L343.194 927.885L339.518 934H336.024L341.116 925.818L336.088 917.636H339.582ZM404.291 940.136V917.636H407.402V920.289H407.668C407.853 919.948 408.119 919.554 408.467 919.107C408.815 918.659 409.298 918.268 409.916 917.935C410.534 917.594 411.351 917.423 412.367 917.423C413.688 917.423 414.867 917.757 415.904 918.425C416.94 919.092 417.754 920.055 418.343 921.312C418.94 922.569 419.238 924.082 419.238 925.85C419.238 927.619 418.943 929.135 418.354 930.399C417.764 931.656 416.955 932.626 415.925 933.308C414.895 933.982 413.72 934.32 412.399 934.32C411.404 934.32 410.591 934.153 409.959 933.819C409.334 933.485 408.844 933.094 408.489 932.647C408.134 932.2 407.86 931.802 407.668 931.454H407.477V940.136H404.291ZM407.413 925.818C407.413 926.969 407.58 927.977 407.913 928.844C408.247 929.71 408.73 930.388 409.362 930.879C409.994 931.362 410.769 931.603 411.685 931.603C412.636 931.603 413.432 931.351 414.071 930.847C414.71 930.335 415.193 929.643 415.52 928.769C415.854 927.896 416.021 926.912 416.021 925.818C416.021 924.739 415.857 923.769 415.531 922.91C415.211 922.05 414.728 921.372 414.082 920.875C413.443 920.378 412.644 920.129 411.685 920.129C410.761 920.129 409.98 920.367 409.341 920.843C408.709 921.319 408.23 921.983 407.903 922.835C407.576 923.687 407.413 924.682 407.413 925.818ZM476.692 912.182V934H473.507V912.182H476.692ZM536.44 934.362C535.403 934.362 534.465 934.17 533.627 933.787C532.789 933.396 532.125 932.832 531.635 932.093C531.152 931.354 530.911 930.449 530.911 929.376C530.911 928.453 531.088 927.693 531.443 927.097C531.798 926.5 532.278 926.028 532.881 925.68C533.485 925.332 534.16 925.069 534.906 924.891C535.651 924.714 536.411 924.579 537.185 924.487C538.166 924.373 538.961 924.281 539.572 924.21C540.183 924.131 540.627 924.007 540.904 923.837C541.18 923.666 541.319 923.389 541.319 923.006V922.931C541.319 922.001 541.056 921.28 540.531 920.768C540.012 920.257 539.238 920.001 538.208 920.001C537.136 920.001 536.291 920.239 535.673 920.715C535.062 921.184 534.639 921.706 534.405 922.281L531.411 921.599C531.766 920.605 532.285 919.803 532.967 919.192C533.656 918.574 534.448 918.126 535.342 917.849C536.237 917.565 537.178 917.423 538.166 917.423C538.819 917.423 539.511 917.501 540.243 917.658C540.982 917.807 541.671 918.084 542.31 918.489C542.956 918.893 543.485 919.472 543.897 920.225C544.309 920.971 544.515 921.94 544.515 923.134V934H541.404V931.763H541.276C541.07 932.175 540.761 932.58 540.35 932.977C539.938 933.375 539.408 933.705 538.762 933.968C538.116 934.231 537.342 934.362 536.44 934.362ZM537.132 931.805C538.013 931.805 538.766 931.631 539.391 931.283C540.023 930.935 540.502 930.481 540.829 929.92C541.163 929.352 541.33 928.744 541.33 928.098V925.989C541.216 926.102 540.996 926.209 540.669 926.308C540.35 926.401 539.984 926.482 539.572 926.553C539.16 926.617 538.759 926.678 538.368 926.734C537.977 926.784 537.651 926.827 537.388 926.862C536.77 926.94 536.205 927.072 535.694 927.256C535.19 927.441 534.785 927.707 534.479 928.055C534.181 928.396 534.032 928.851 534.032 929.419C534.032 930.207 534.323 930.804 534.906 931.209C535.488 931.607 536.23 931.805 537.132 931.805ZM599.458 934V917.636H602.643V934H599.458ZM601.066 915.112C600.512 915.112 600.037 914.927 599.639 914.558C599.248 914.181 599.053 913.734 599.053 913.215C599.053 912.69 599.248 912.242 599.639 911.873C600.037 911.496 600.512 911.308 601.066 911.308C601.62 911.308 602.093 911.496 602.483 911.873C602.881 912.242 603.08 912.69 603.08 913.215C603.08 913.734 602.881 914.181 602.483 914.558C602.093 914.927 601.62 915.112 601.066 915.112ZM660.814 924.284V934H657.628V917.636H660.686V920.3H660.888C661.265 919.433 661.854 918.737 662.657 918.212C663.467 917.686 664.486 917.423 665.714 917.423C666.829 917.423 667.806 917.658 668.644 918.126C669.482 918.588 670.132 919.277 670.594 920.193C671.055 921.109 671.286 922.242 671.286 923.592V934H668.101V923.975C668.101 922.789 667.792 921.862 667.174 921.195C666.556 920.52 665.707 920.183 664.628 920.183C663.889 920.183 663.232 920.342 662.657 920.662C662.089 920.982 661.638 921.45 661.304 922.068C660.977 922.679 660.814 923.418 660.814 924.284ZM733.311 934.33C731.698 934.33 730.31 933.986 729.145 933.297C727.988 932.601 727.093 931.624 726.461 930.367C725.836 929.103 725.523 927.622 725.523 925.925C725.523 924.249 725.836 922.771 726.461 921.493C727.093 920.214 727.973 919.217 729.103 918.499C730.239 917.782 731.567 917.423 733.087 917.423C734.01 917.423 734.905 917.576 735.772 917.881C736.638 918.187 737.416 918.666 738.105 919.32C738.794 919.973 739.337 920.822 739.735 921.866C740.132 922.903 740.331 924.163 740.331 925.648V926.777H727.323V924.391H737.21C737.21 923.553 737.039 922.81 736.698 922.164C736.358 921.511 735.878 920.996 735.26 920.619C734.649 920.243 733.932 920.055 733.108 920.055C732.213 920.055 731.432 920.275 730.765 920.715C730.104 921.148 729.593 921.717 729.23 922.42C728.875 923.116 728.698 923.872 728.698 924.689V926.553C728.698 927.647 728.89 928.577 729.273 929.344C729.664 930.112 730.207 930.697 730.903 931.102C731.599 931.5 732.412 931.699 733.343 931.699C733.946 931.699 734.497 931.614 734.994 931.443C735.491 931.266 735.921 931.003 736.283 930.655C736.645 930.307 736.922 929.877 737.114 929.366L740.129 929.909C739.887 930.797 739.454 931.575 738.829 932.242C738.211 932.903 737.434 933.418 736.496 933.787C735.566 934.149 734.504 934.33 733.311 934.33ZM800.691 934.32C799.37 934.32 798.191 933.982 797.154 933.308C796.124 932.626 795.315 931.656 794.725 930.399C794.143 929.135 793.852 927.619 793.852 925.85C793.852 924.082 794.146 922.569 794.736 921.312C795.333 920.055 796.149 919.092 797.186 918.425C798.223 917.757 799.399 917.423 800.713 917.423C801.728 917.423 802.545 917.594 803.163 917.935C803.788 918.268 804.271 918.659 804.612 919.107C804.96 919.554 805.23 919.948 805.421 920.289H805.613V912.182H808.798V934H805.688V931.454H805.421C805.23 931.802 804.953 932.2 804.59 932.647C804.235 933.094 803.745 933.485 803.12 933.819C802.495 934.153 801.686 934.32 800.691 934.32ZM801.394 931.603C802.311 931.603 803.085 931.362 803.717 930.879C804.356 930.388 804.839 929.71 805.166 928.844C805.499 927.977 805.666 926.969 805.666 925.818C805.666 924.682 805.503 923.687 805.176 922.835C804.85 921.983 804.37 921.319 803.738 920.843C803.106 920.367 802.325 920.129 801.394 920.129C800.436 920.129 799.637 920.378 798.997 920.875C798.358 921.372 797.875 922.05 797.548 922.91C797.229 923.769 797.069 924.739 797.069 925.818C797.069 926.912 797.232 927.896 797.559 928.769C797.886 929.643 798.369 930.335 799.008 930.847C799.654 931.351 800.45 931.603 801.394 931.603Z" fill="black"/>
<path d="M353.818 639.518L312.389 174.875H767.611L726.127 639.445L539.723 691.125L353.818 639.518Z" fill="#E44F26"/>
<path d="M540 651.632L690.634 609.871L726.071 212.875H540V651.632Z" fill="#F1662A"/>
<path d="M540 385.192H464.591L459.391 326.837H540V269.847H397.109L398.474 285.15L412.468 442.182H540V385.192ZM540 533.189L539.742 533.263L476.28 516.135L472.224 470.686H415.012L422.996 560.145L539.742 592.558L540 592.484V533.189Z" fill="#EBEBEB"/>
<path d="M539.797 385.192V442.182H609.97L603.37 516.098L539.797 533.245V592.54L656.636 560.145L657.484 550.521L670.869 400.495L672.271 385.192H539.797ZM539.797 269.847V326.837H677.452L678.595 314.041L681.194 285.15L682.559 269.847H539.797Z" fill="white"/>
<defs>
<linearGradient id="paint0_linear_0_1" x1="540" y1="0" x2="540" y2="1080" gradientUnits="userSpaceOnUse">
<stop stop-color="#B4B4B4"/>
<stop offset="1" stop-color="#D7D7D7"/>
</linearGradient>
</defs>
</svg>
