<svg width="1080" height="1080" viewBox="0 0 1080 1080" fill="none" xmlns="http://www.w3.org/2000/svg">
<rect width="1080" height="1080" fill="#1E1E1E"/>
<rect width="1080" height="1080" fill="url(#paint0_linear_0_1)"/>
<path d="M193.781 832.599V817.599L253.781 791.179V808.438L212.702 824.929L213.256 824.034V826.165L212.702 825.27L253.781 841.761V859.02L193.781 832.599ZM290.472 861.236C286.295 861.236 282.574 860.511 279.307 859.062C276.04 857.585 273.455 855.412 271.551 852.543C269.676 849.645 268.739 846.037 268.739 841.719C268.739 838.082 269.406 835.028 270.741 832.557C272.077 830.085 273.895 828.097 276.196 826.591C278.497 825.085 281.111 823.949 284.037 823.182C286.991 822.415 290.088 821.875 293.327 821.562C297.134 821.165 300.202 820.795 302.531 820.455C304.861 820.085 306.551 819.545 307.602 818.835C308.653 818.125 309.179 817.074 309.179 815.682V815.426C309.179 812.727 308.327 810.639 306.622 809.162C304.946 807.685 302.56 806.946 299.463 806.946C296.196 806.946 293.597 807.67 291.665 809.119C289.733 810.54 288.455 812.33 287.83 814.489L271.04 813.125C271.892 809.148 273.568 805.71 276.068 802.812C278.568 799.886 281.793 797.642 285.741 796.08C289.719 794.489 294.321 793.693 299.548 793.693C303.185 793.693 306.665 794.119 309.989 794.972C313.341 795.824 316.31 797.145 318.895 798.935C321.509 800.724 323.568 803.026 325.074 805.838C326.58 808.622 327.332 811.96 327.332 815.852V860H310.116V850.923H309.605C308.554 852.969 307.148 854.773 305.386 856.335C303.625 857.869 301.509 859.077 299.037 859.957C296.565 860.81 293.71 861.236 290.472 861.236ZM295.67 848.707C298.341 848.707 300.699 848.182 302.744 847.131C304.79 846.051 306.395 844.602 307.56 842.784C308.724 840.966 309.307 838.906 309.307 836.605V829.659C308.739 830.028 307.957 830.369 306.963 830.682C305.997 830.966 304.903 831.236 303.682 831.491C302.46 831.719 301.239 831.932 300.017 832.131C298.795 832.301 297.688 832.457 296.693 832.599C294.563 832.912 292.702 833.409 291.111 834.091C289.52 834.773 288.284 835.696 287.403 836.861C286.523 837.997 286.082 839.418 286.082 841.122C286.082 843.594 286.977 845.483 288.767 846.79C290.585 848.068 292.886 848.707 295.67 848.707ZM365.536 861.065C360.564 861.065 356.061 859.787 352.027 857.23C348.021 854.645 344.839 850.852 342.482 845.852C340.152 840.824 338.987 834.659 338.987 827.358C338.987 819.858 340.195 813.622 342.609 808.651C345.024 803.651 348.234 799.915 352.24 797.443C356.274 794.943 360.692 793.693 365.493 793.693C369.158 793.693 372.212 794.318 374.655 795.568C377.126 796.79 379.115 798.324 380.621 800.17C382.155 801.989 383.32 803.778 384.115 805.54H384.669V772.727H402.78V860H384.882V849.517H384.115C383.263 851.335 382.055 853.139 380.493 854.929C378.959 856.69 376.956 858.153 374.484 859.318C372.041 860.483 369.058 861.065 365.536 861.065ZM371.288 846.619C374.214 846.619 376.686 845.824 378.703 844.233C380.749 842.614 382.311 840.355 383.391 837.457C384.499 834.56 385.053 831.165 385.053 827.273C385.053 823.381 384.513 820 383.433 817.131C382.354 814.261 380.791 812.045 378.746 810.483C376.7 808.92 374.214 808.139 371.288 808.139C368.305 808.139 365.791 808.949 363.746 810.568C361.7 812.187 360.152 814.432 359.101 817.301C358.05 820.17 357.524 823.494 357.524 827.273C357.524 831.08 358.05 834.446 359.101 837.372C360.18 840.27 361.729 842.543 363.746 844.19C365.791 845.81 368.305 846.619 371.288 846.619ZM441.825 861.065C436.853 861.065 432.35 859.787 428.316 857.23C424.31 854.645 421.129 850.852 418.771 845.852C416.441 840.824 415.276 834.659 415.276 827.358C415.276 819.858 416.484 813.622 418.898 808.651C421.313 803.651 424.523 799.915 428.529 797.443C432.563 794.943 436.981 793.693 441.782 793.693C445.447 793.693 448.501 794.318 450.944 795.568C453.415 796.79 455.404 798.324 456.91 800.17C458.444 801.989 459.609 803.778 460.404 805.54H460.958V772.727H479.069V860H461.171V849.517H460.404C459.552 851.335 458.344 853.139 456.782 854.929C455.248 856.69 453.245 858.153 450.773 859.318C448.33 860.483 445.347 861.065 441.825 861.065ZM447.577 846.619C450.504 846.619 452.975 845.824 454.992 844.233C457.038 842.614 458.6 840.355 459.68 837.457C460.788 834.56 461.342 831.165 461.342 827.273C461.342 823.381 460.802 820 459.722 817.131C458.643 814.261 457.08 812.045 455.035 810.483C452.989 808.92 450.504 808.139 447.577 808.139C444.594 808.139 442.08 808.949 440.035 810.568C437.989 812.187 436.441 814.432 435.39 817.301C434.339 820.17 433.813 823.494 433.813 827.273C433.813 831.08 434.339 834.446 435.39 837.372C436.469 840.27 438.018 842.543 440.035 844.19C442.08 845.81 444.594 846.619 447.577 846.619ZM493.994 860V794.545H511.594V805.966H512.276C513.469 801.903 515.472 798.835 518.284 796.761C521.097 794.659 524.335 793.608 528 793.608C528.909 793.608 529.889 793.665 530.94 793.778C531.991 793.892 532.915 794.048 533.71 794.247V810.355C532.858 810.099 531.679 809.872 530.173 809.673C528.668 809.474 527.29 809.375 526.04 809.375C523.369 809.375 520.983 809.957 518.881 811.122C516.807 812.259 515.159 813.849 513.938 815.895C512.744 817.94 512.148 820.298 512.148 822.969V860H493.994ZM569.879 861.278C563.146 861.278 557.35 859.915 552.492 857.188C547.663 854.432 543.941 850.54 541.327 845.511C538.714 840.455 537.407 834.474 537.407 827.571C537.407 820.838 538.714 814.929 541.327 809.844C543.941 804.759 547.62 800.795 552.364 797.955C557.137 795.114 562.734 793.693 569.154 793.693C573.472 793.693 577.492 794.389 581.214 795.781C584.964 797.145 588.231 799.205 591.015 801.96C593.827 804.716 596.015 808.182 597.577 812.358C599.14 816.506 599.921 821.364 599.921 826.932V831.918H544.651V820.668H582.833C582.833 818.054 582.265 815.739 581.129 813.722C579.992 811.705 578.415 810.128 576.398 808.991C574.41 807.827 572.094 807.244 569.452 807.244C566.697 807.244 564.254 807.884 562.123 809.162C560.021 810.412 558.373 812.102 557.18 814.233C555.987 816.335 555.376 818.679 555.347 821.264V831.96C555.347 835.199 555.944 837.997 557.137 840.355C558.359 842.713 560.077 844.531 562.293 845.81C564.509 847.088 567.137 847.727 570.177 847.727C572.194 847.727 574.04 847.443 575.717 846.875C577.393 846.307 578.827 845.455 580.021 844.318C581.214 843.182 582.123 841.79 582.748 840.142L599.538 841.25C598.685 845.284 596.938 848.807 594.296 851.818C591.683 854.801 588.302 857.131 584.154 858.807C580.035 860.455 575.276 861.278 569.879 861.278ZM666.228 813.21L649.609 814.233C649.325 812.812 648.714 811.534 647.776 810.398C646.839 809.233 645.603 808.31 644.069 807.628C642.563 806.918 640.759 806.562 638.657 806.562C635.844 806.562 633.472 807.159 631.54 808.352C629.609 809.517 628.643 811.08 628.643 813.04C628.643 814.602 629.268 815.923 630.518 817.003C631.768 818.082 633.913 818.949 636.952 819.602L648.799 821.989C655.163 823.295 659.907 825.398 663.032 828.295C666.157 831.193 667.719 835 667.719 839.716C667.719 844.006 666.455 847.77 663.927 851.009C661.427 854.247 657.989 856.776 653.614 858.594C649.268 860.384 644.254 861.278 638.572 861.278C629.907 861.278 623.004 859.474 617.862 855.866C612.748 852.23 609.751 847.287 608.87 841.037L626.725 840.099C627.265 842.741 628.572 844.759 630.646 846.151C632.719 847.514 635.376 848.196 638.614 848.196C641.796 848.196 644.353 847.585 646.285 846.364C648.245 845.114 649.239 843.509 649.268 841.548C649.239 839.901 648.543 838.551 647.18 837.5C645.816 836.42 643.714 835.597 640.873 835.028L629.538 832.77C623.146 831.491 618.387 829.276 615.262 826.122C612.165 822.969 610.617 818.949 610.617 814.062C610.617 809.858 611.754 806.236 614.026 803.196C616.327 800.156 619.552 797.812 623.7 796.165C627.876 794.517 632.762 793.693 638.359 793.693C646.626 793.693 653.131 795.44 657.876 798.935C662.648 802.429 665.433 807.187 666.228 813.21ZM733.611 813.21L716.991 814.233C716.707 812.812 716.097 811.534 715.159 810.398C714.222 809.233 712.986 808.31 711.452 807.628C709.946 806.918 708.142 806.562 706.04 806.562C703.227 806.562 700.855 807.159 698.923 808.352C696.991 809.517 696.026 811.08 696.026 813.04C696.026 814.602 696.651 815.923 697.901 817.003C699.151 818.082 701.295 818.949 704.335 819.602L716.182 821.989C722.545 823.295 727.29 825.398 730.415 828.295C733.54 831.193 735.102 835 735.102 839.716C735.102 844.006 733.838 847.77 731.31 851.009C728.81 854.247 725.372 856.776 720.997 858.594C716.651 860.384 711.636 861.278 705.955 861.278C697.29 861.278 690.386 859.474 685.244 855.866C680.131 852.23 677.134 847.287 676.253 841.037L694.108 840.099C694.648 842.741 695.955 844.759 698.028 846.151C700.102 847.514 702.759 848.196 705.997 848.196C709.179 848.196 711.736 847.585 713.668 846.364C715.628 845.114 716.622 843.509 716.651 841.548C716.622 839.901 715.926 838.551 714.562 837.5C713.199 836.42 711.097 835.597 708.256 835.028L696.92 832.77C690.528 831.491 685.77 829.276 682.645 826.122C679.548 822.969 678 818.949 678 814.062C678 809.858 679.136 806.236 681.409 803.196C683.71 800.156 686.935 797.812 691.082 796.165C695.259 794.517 700.145 793.693 705.741 793.693C714.009 793.693 720.514 795.44 725.259 798.935C730.031 802.429 732.815 807.187 733.611 813.21ZM812.318 768.636L784.193 873.125H768.554L796.679 768.636H812.318ZM884.602 832.599L824.602 859.02V841.761L865.681 825.27L865.127 826.165V824.034L865.681 824.929L824.602 808.438V791.179L884.602 817.599V832.599Z" fill="black"/>
<path d="M276.194 934.33C274.582 934.33 273.193 933.986 272.028 933.297C270.871 932.601 269.976 931.624 269.344 930.367C268.719 929.103 268.406 927.622 268.406 925.925C268.406 924.249 268.719 922.771 269.344 921.493C269.976 920.214 270.857 919.217 271.986 918.499C273.122 917.782 274.45 917.423 275.97 917.423C276.893 917.423 277.788 917.576 278.655 917.881C279.521 918.187 280.299 918.666 280.988 919.32C281.677 919.973 282.22 920.822 282.618 921.866C283.016 922.903 283.214 924.163 283.214 925.648V926.777H270.207V924.391H280.093C280.093 923.553 279.923 922.81 279.582 922.164C279.241 921.511 278.761 920.996 278.143 920.619C277.533 920.243 276.815 920.055 275.991 920.055C275.097 920.055 274.315 920.275 273.648 920.715C272.987 921.148 272.476 921.717 272.114 922.42C271.759 923.116 271.581 923.872 271.581 924.689V926.553C271.581 927.647 271.773 928.577 272.156 929.344C272.547 930.112 273.09 930.697 273.786 931.102C274.482 931.5 275.295 931.699 276.226 931.699C276.83 931.699 277.38 931.614 277.877 931.443C278.374 931.266 278.804 931.003 279.166 930.655C279.528 930.307 279.805 929.877 279.997 929.366L283.012 929.909C282.771 930.797 282.337 931.575 281.712 932.242C281.094 932.903 280.317 933.418 279.379 933.787C278.449 934.149 277.387 934.33 276.194 934.33ZM339.582 917.636L343.194 924.007L346.837 917.636H350.321L345.218 925.818L350.363 934H346.88L343.194 927.885L339.518 934H336.024L341.116 925.818L336.088 917.636H339.582ZM404.291 940.136V917.636H407.402V920.289H407.668C407.853 919.948 408.119 919.554 408.467 919.107C408.815 918.659 409.298 918.268 409.916 917.935C410.534 917.594 411.351 917.423 412.367 917.423C413.688 917.423 414.867 917.757 415.904 918.425C416.94 919.092 417.754 920.055 418.343 921.312C418.94 922.569 419.238 924.082 419.238 925.85C419.238 927.619 418.943 929.135 418.354 930.399C417.764 931.656 416.955 932.626 415.925 933.308C414.895 933.982 413.72 934.32 412.399 934.32C411.404 934.32 410.591 934.153 409.959 933.819C409.334 933.485 408.844 933.094 408.489 932.647C408.134 932.2 407.86 931.802 407.668 931.454H407.477V940.136H404.291ZM407.413 925.818C407.413 926.969 407.58 927.977 407.913 928.844C408.247 929.71 408.73 930.388 409.362 930.879C409.994 931.362 410.769 931.603 411.685 931.603C412.636 931.603 413.432 931.351 414.071 930.847C414.71 930.335 415.193 929.643 415.52 928.769C415.854 927.896 416.021 926.912 416.021 925.818C416.021 924.739 415.857 923.769 415.531 922.91C415.211 922.05 414.728 921.372 414.082 920.875C413.443 920.378 412.644 920.129 411.685 920.129C410.761 920.129 409.98 920.367 409.341 920.843C408.709 921.319 408.23 921.983 407.903 922.835C407.576 923.687 407.413 924.682 407.413 925.818ZM476.692 912.182V934H473.507V912.182H476.692ZM536.44 934.362C535.403 934.362 534.465 934.17 533.627 933.787C532.789 933.396 532.125 932.832 531.635 932.093C531.152 931.354 530.911 930.449 530.911 929.376C530.911 928.453 531.088 927.693 531.443 927.097C531.798 926.5 532.278 926.028 532.881 925.68C533.485 925.332 534.16 925.069 534.906 924.891C535.651 924.714 536.411 924.579 537.185 924.487C538.166 924.373 538.961 924.281 539.572 924.21C540.183 924.131 540.627 924.007 540.904 923.837C541.18 923.666 541.319 923.389 541.319 923.006V922.931C541.319 922.001 541.056 921.28 540.531 920.768C540.012 920.257 539.238 920.001 538.208 920.001C537.136 920.001 536.291 920.239 535.673 920.715C535.062 921.184 534.639 921.706 534.405 922.281L531.411 921.599C531.766 920.605 532.285 919.803 532.967 919.192C533.656 918.574 534.448 918.126 535.342 917.849C536.237 917.565 537.178 917.423 538.166 917.423C538.819 917.423 539.511 917.501 540.243 917.658C540.982 917.807 541.671 918.084 542.31 918.489C542.956 918.893 543.485 919.472 543.897 920.225C544.309 920.971 544.515 921.94 544.515 923.134V934H541.404V931.763H541.276C541.07 932.175 540.761 932.58 540.35 932.977C539.938 933.375 539.408 933.705 538.762 933.968C538.116 934.231 537.342 934.362 536.44 934.362ZM537.132 931.805C538.013 931.805 538.766 931.631 539.391 931.283C540.023 930.935 540.502 930.481 540.829 929.92C541.163 929.352 541.33 928.744 541.33 928.098V925.989C541.216 926.102 540.996 926.209 540.669 926.308C540.35 926.401 539.984 926.482 539.572 926.553C539.16 926.617 538.759 926.678 538.368 926.734C537.977 926.784 537.651 926.827 537.388 926.862C536.77 926.94 536.205 927.072 535.694 927.256C535.19 927.441 534.785 927.707 534.479 928.055C534.181 928.396 534.032 928.851 534.032 929.419C534.032 930.207 534.323 930.804 534.906 931.209C535.488 931.607 536.23 931.805 537.132 931.805ZM599.458 934V917.636H602.643V934H599.458ZM601.066 915.112C600.512 915.112 600.037 914.927 599.639 914.558C599.248 914.181 599.053 913.734 599.053 913.215C599.053 912.69 599.248 912.242 599.639 911.873C600.037 911.496 600.512 911.308 601.066 911.308C601.62 911.308 602.093 911.496 602.483 911.873C602.881 912.242 603.08 912.69 603.08 913.215C603.08 913.734 602.881 914.181 602.483 914.558C602.093 914.927 601.62 915.112 601.066 915.112ZM660.814 924.284V934H657.628V917.636H660.686V920.3H660.888C661.265 919.433 661.854 918.737 662.657 918.212C663.467 917.686 664.486 917.423 665.714 917.423C666.829 917.423 667.806 917.658 668.644 918.126C669.482 918.588 670.132 919.277 670.594 920.193C671.055 921.109 671.286 922.242 671.286 923.592V934H668.101V923.975C668.101 922.789 667.792 921.862 667.174 921.195C666.556 920.52 665.707 920.183 664.628 920.183C663.889 920.183 663.232 920.342 662.657 920.662C662.089 920.982 661.638 921.45 661.304 922.068C660.977 922.679 660.814 923.418 660.814 924.284ZM733.311 934.33C731.698 934.33 730.31 933.986 729.145 933.297C727.988 932.601 727.093 931.624 726.461 930.367C725.836 929.103 725.523 927.622 725.523 925.925C725.523 924.249 725.836 922.771 726.461 921.493C727.093 920.214 727.973 919.217 729.103 918.499C730.239 917.782 731.567 917.423 733.087 917.423C734.01 917.423 734.905 917.576 735.772 917.881C736.638 918.187 737.416 918.666 738.105 919.32C738.794 919.973 739.337 920.822 739.735 921.866C740.132 922.903 740.331 924.163 740.331 925.648V926.777H727.323V924.391H737.21C737.21 923.553 737.039 922.81 736.698 922.164C736.358 921.511 735.878 920.996 735.26 920.619C734.649 920.243 733.932 920.055 733.108 920.055C732.213 920.055 731.432 920.275 730.765 920.715C730.104 921.148 729.593 921.717 729.23 922.42C728.875 923.116 728.698 923.872 728.698 924.689V926.553C728.698 927.647 728.89 928.577 729.273 929.344C729.664 930.112 730.207 930.697 730.903 931.102C731.599 931.5 732.412 931.699 733.343 931.699C733.946 931.699 734.497 931.614 734.994 931.443C735.491 931.266 735.921 931.003 736.283 930.655C736.645 930.307 736.922 929.877 737.114 929.366L740.129 929.909C739.887 930.797 739.454 931.575 738.829 932.242C738.211 932.903 737.434 933.418 736.496 933.787C735.566 934.149 734.504 934.33 733.311 934.33ZM800.691 934.32C799.37 934.32 798.191 933.982 797.154 933.308C796.124 932.626 795.315 931.656 794.725 930.399C794.143 929.135 793.852 927.619 793.852 925.85C793.852 924.082 794.146 922.569 794.736 921.312C795.333 920.055 796.149 919.092 797.186 918.425C798.223 917.757 799.399 917.423 800.713 917.423C801.728 917.423 802.545 917.594 803.163 917.935C803.788 918.268 804.271 918.659 804.612 919.107C804.96 919.554 805.23 919.948 805.421 920.289H805.613V912.182H808.798V934H805.688V931.454H805.421C805.23 931.802 804.953 932.2 804.59 932.647C804.235 933.094 803.745 933.485 803.12 933.819C802.495 934.153 801.686 934.32 800.691 934.32ZM801.394 931.603C802.311 931.603 803.085 931.362 803.717 930.879C804.356 930.388 804.839 929.71 805.166 928.844C805.499 927.977 805.666 926.969 805.666 925.818C805.666 924.682 805.503 923.687 805.176 922.835C804.85 921.983 804.37 921.319 803.738 920.843C803.106 920.367 802.325 920.129 801.394 920.129C800.436 920.129 799.637 920.378 798.997 920.875C798.358 921.372 797.875 922.05 797.548 922.91C797.229 923.769 797.069 924.739 797.069 925.818C797.069 926.912 797.232 927.896 797.559 928.769C797.886 929.643 798.369 930.335 799.008 930.847C799.654 931.351 800.45 931.603 801.394 931.603Z" fill="black"/>
<path d="M352.818 639.518L311.389 174.875H766.611L725.127 639.445L538.723 691.125L352.818 639.518Z" fill="#E44F26"/>
<path d="M539 651.632L689.634 609.871L725.071 212.875H539V651.632Z" fill="#F1662A"/>
<path d="M539 385.192H463.591L458.391 326.837H539V269.847H396.109L397.474 285.15L411.468 442.182H539V385.192ZM539 533.189L538.742 533.263L475.28 516.135L471.224 470.686H414.012L421.996 560.145L538.742 592.558L539 592.484V533.189Z" fill="#EBEBEB"/>
<path d="M538.797 385.192V442.182H608.97L602.37 516.098L538.797 533.245V592.54L655.636 560.145L656.484 550.521L669.869 400.495L671.271 385.192H538.797ZM538.797 269.847V326.837H676.452L677.595 314.041L680.194 285.15L681.559 269.847H538.797Z" fill="white"/>
<defs>
<linearGradient id="paint0_linear_0_1" x1="540" y1="0" x2="540" y2="1080" gradientUnits="userSpaceOnUse">
<stop stop-color="#B4B4B4"/>
<stop offset="1" stop-color="#D7D7D7"/>
</linearGradient>
</defs>
</svg>
