<svg width="1080" height="1080" viewBox="0 0 1080 1080" fill="none" xmlns="http://www.w3.org/2000/svg">
<rect width="1080" height="1080" fill="#1E1E1E"/>
<rect width="1080" height="1080" fill="url(#paint0_linear_0_1)"/>
<path d="M100.781 832.599V817.599L160.781 791.179V808.438L119.702 824.929L120.256 824.034V826.165L119.702 825.27L160.781 841.761V859.02L100.781 832.599ZM179.148 860V772.727H197.301V805.54H197.855C198.651 803.778 199.801 801.989 201.307 800.17C202.841 798.324 204.83 796.79 207.273 795.568C209.744 794.318 212.813 793.693 216.477 793.693C221.25 793.693 225.653 794.943 229.688 797.443C233.722 799.915 236.946 803.651 239.361 808.651C241.776 813.622 242.983 819.858 242.983 827.358C242.983 834.659 241.804 840.824 239.446 845.852C237.116 850.852 233.935 854.645 229.901 857.23C225.895 859.787 221.406 861.065 216.435 861.065C212.912 861.065 209.915 860.483 207.443 859.318C205 858.153 202.997 856.69 201.435 854.929C199.872 853.139 198.679 851.335 197.855 849.517H197.045V860H179.148ZM196.918 827.273C196.918 831.165 197.457 834.56 198.537 837.457C199.616 840.355 201.179 842.614 203.224 844.233C205.27 845.824 207.756 846.619 210.682 846.619C213.636 846.619 216.136 845.81 218.182 844.19C220.227 842.543 221.776 840.27 222.827 837.372C223.906 834.446 224.446 831.08 224.446 827.273C224.446 823.494 223.92 820.17 222.869 817.301C221.818 814.432 220.27 812.187 218.224 810.568C216.179 808.949 213.665 808.139 210.682 808.139C207.727 808.139 205.227 808.92 203.182 810.483C201.165 812.045 199.616 814.261 198.537 817.131C197.457 820 196.918 823.381 196.918 827.273ZM273.249 772.727V860H255.096V772.727H273.249ZM317.365 861.278C310.746 861.278 305.021 859.872 300.192 857.06C295.391 854.219 291.683 850.27 289.07 845.213C286.456 840.128 285.149 834.233 285.149 827.528C285.149 820.767 286.456 814.858 289.07 809.801C291.683 804.716 295.391 800.767 300.192 797.955C305.021 795.114 310.746 793.693 317.365 793.693C323.984 793.693 329.695 795.114 334.496 797.955C339.325 800.767 343.047 804.716 345.661 809.801C348.274 814.858 349.581 820.767 349.581 827.528C349.581 834.233 348.274 840.128 345.661 845.213C343.047 850.27 339.325 854.219 334.496 857.06C329.695 859.872 323.984 861.278 317.365 861.278ZM317.45 847.216C320.462 847.216 322.976 846.364 324.993 844.659C327.01 842.926 328.53 840.568 329.553 837.585C330.604 834.602 331.129 831.207 331.129 827.401C331.129 823.594 330.604 820.199 329.553 817.216C328.53 814.233 327.01 811.875 324.993 810.142C322.976 808.409 320.462 807.543 317.45 807.543C314.411 807.543 311.854 808.409 309.78 810.142C307.734 811.875 306.186 814.233 305.135 817.216C304.112 820.199 303.601 823.594 303.601 827.401C303.601 831.207 304.112 834.602 305.135 837.585C306.186 840.568 307.734 842.926 309.78 844.659C311.854 846.364 314.411 847.216 317.45 847.216ZM390.959 861.278C384.254 861.278 378.487 859.858 373.658 857.017C368.857 854.148 365.163 850.17 362.578 845.085C360.021 840 358.743 834.148 358.743 827.528C358.743 820.824 360.036 814.943 362.621 809.886C365.234 804.801 368.942 800.838 373.743 797.997C378.544 795.128 384.254 793.693 390.874 793.693C396.584 793.693 401.584 794.73 405.874 796.804C410.163 798.878 413.558 801.79 416.058 805.54C418.558 809.29 419.936 813.693 420.192 818.75H403.061C402.578 815.483 401.3 812.855 399.226 810.866C397.18 808.849 394.496 807.841 391.172 807.841C388.359 807.841 385.902 808.608 383.8 810.142C381.726 811.648 380.107 813.849 378.942 816.747C377.777 819.645 377.195 823.153 377.195 827.273C377.195 831.449 377.763 835 378.899 837.926C380.064 840.852 381.697 843.082 383.8 844.616C385.902 846.151 388.359 846.918 391.172 846.918C393.246 846.918 395.107 846.491 396.754 845.639C398.43 844.787 399.808 843.551 400.888 841.932C401.996 840.284 402.72 838.31 403.061 836.009H420.192C419.908 841.009 418.544 845.412 416.101 849.219C413.686 852.997 410.348 855.952 406.087 858.082C401.825 860.213 396.783 861.278 390.959 861.278ZM448.263 841.165L448.306 819.389H450.948L471.914 794.545H492.752L464.585 827.443H460.281L448.263 841.165ZM431.815 860V772.727H449.968V860H431.815ZM472.724 860L453.462 831.491L465.565 818.665L493.988 860H472.724ZM542.216 884.545V849.517H541.662C540.81 851.335 539.602 853.139 538.04 854.929C536.506 856.69 534.503 858.153 532.031 859.318C529.588 860.483 526.605 861.065 523.082 861.065C518.111 861.065 513.608 859.787 509.574 857.23C505.568 854.645 502.386 850.852 500.028 845.852C497.699 840.824 496.534 834.659 496.534 827.358C496.534 819.858 497.741 813.622 500.156 808.651C502.571 803.651 505.781 799.915 509.787 797.443C513.821 794.943 518.239 793.693 523.04 793.693C526.705 793.693 529.759 794.318 532.202 795.568C534.673 796.79 536.662 798.324 538.168 800.17C539.702 801.989 540.866 803.778 541.662 805.54H542.429V794.545H560.327V884.545H542.216ZM528.835 846.619C531.761 846.619 534.233 845.824 536.25 844.233C538.295 842.614 539.858 840.355 540.938 837.457C542.045 834.56 542.599 831.165 542.599 827.273C542.599 823.381 542.06 820 540.98 817.131C539.901 814.261 538.338 812.045 536.293 810.483C534.247 808.92 531.761 808.139 528.835 808.139C525.852 808.139 523.338 808.949 521.293 810.568C519.247 812.187 517.699 814.432 516.648 817.301C515.597 820.17 515.071 823.494 515.071 827.273C515.071 831.08 515.597 834.446 516.648 837.372C517.727 840.27 519.276 842.543 521.293 844.19C523.338 845.81 525.852 846.619 528.835 846.619ZM616.875 832.131V794.545H635.028V860H617.599V848.111H616.918C615.44 851.946 612.983 855.028 609.545 857.358C606.136 859.687 601.974 860.852 597.06 860.852C592.685 860.852 588.835 859.858 585.511 857.869C582.188 855.881 579.588 853.054 577.713 849.389C575.866 845.724 574.929 841.335 574.901 836.222V794.545H593.054V832.983C593.082 836.847 594.119 839.901 596.165 842.145C598.21 844.389 600.952 845.511 604.389 845.511C606.577 845.511 608.622 845.014 610.526 844.02C612.429 842.997 613.963 841.491 615.128 839.503C616.321 837.514 616.903 835.057 616.875 832.131ZM679.123 861.278C672.504 861.278 666.779 859.872 661.95 857.06C657.148 854.219 653.441 850.27 650.827 845.213C648.214 840.128 646.907 834.233 646.907 827.528C646.907 820.767 648.214 814.858 650.827 809.801C653.441 804.716 657.148 800.767 661.95 797.955C666.779 795.114 672.504 793.693 679.123 793.693C685.742 793.693 691.452 795.114 696.254 797.955C701.083 800.767 704.805 804.716 707.418 809.801C710.032 814.858 711.339 820.767 711.339 827.528C711.339 834.233 710.032 840.128 707.418 845.213C704.805 850.27 701.083 854.219 696.254 857.06C691.452 859.872 685.742 861.278 679.123 861.278ZM679.208 847.216C682.219 847.216 684.734 846.364 686.751 844.659C688.768 842.926 690.288 840.568 691.31 837.585C692.362 834.602 692.887 831.207 692.887 827.401C692.887 823.594 692.362 820.199 691.31 817.216C690.288 814.233 688.768 811.875 686.751 810.142C684.734 808.409 682.219 807.543 679.208 807.543C676.168 807.543 673.612 808.409 671.538 810.142C669.492 811.875 667.944 814.233 666.893 817.216C665.87 820.199 665.359 823.594 665.359 827.401C665.359 831.207 665.87 834.602 666.893 837.585C667.944 840.568 669.492 842.926 671.538 844.659C673.612 846.364 676.168 847.216 679.208 847.216ZM757.958 794.545V808.182H718.54V794.545H757.958ZM727.489 778.864H745.643V839.886C745.643 841.562 745.898 842.869 746.41 843.807C746.921 844.716 747.631 845.355 748.54 845.724C749.478 846.094 750.558 846.278 751.779 846.278C752.631 846.278 753.484 846.207 754.336 846.065C755.188 845.895 755.842 845.767 756.296 845.682L759.151 859.19C758.242 859.474 756.964 859.801 755.316 860.17C753.668 860.568 751.665 860.81 749.308 860.895C744.933 861.065 741.097 860.483 737.802 859.148C734.535 857.812 731.992 855.739 730.174 852.926C728.356 850.114 727.461 846.562 727.489 842.273V778.864ZM798.91 861.278C792.177 861.278 786.381 859.915 781.523 857.188C776.694 854.432 772.972 850.54 770.359 845.511C767.745 840.455 766.438 834.474 766.438 827.571C766.438 820.838 767.745 814.929 770.359 809.844C772.972 804.759 776.651 800.795 781.396 797.955C786.168 795.114 791.765 793.693 798.185 793.693C802.504 793.693 806.523 794.389 810.245 795.781C813.995 797.145 817.262 799.205 820.046 801.96C822.859 804.716 825.046 808.182 826.609 812.358C828.171 816.506 828.952 821.364 828.952 826.932V831.918H773.683V820.668H811.864C811.864 818.054 811.296 815.739 810.16 813.722C809.023 811.705 807.447 810.128 805.43 808.991C803.441 807.827 801.126 807.244 798.484 807.244C795.728 807.244 793.285 807.884 791.154 809.162C789.052 810.412 787.404 812.102 786.211 814.233C785.018 816.335 784.407 818.679 784.379 821.264V831.96C784.379 835.199 784.975 837.997 786.168 840.355C787.39 842.713 789.109 844.531 791.325 845.81C793.54 847.088 796.168 847.727 799.208 847.727C801.225 847.727 803.072 847.443 804.748 846.875C806.424 846.307 807.859 845.455 809.052 844.318C810.245 843.182 811.154 841.79 811.779 840.142L828.569 841.25C827.717 845.284 825.969 848.807 823.327 851.818C820.714 854.801 817.333 857.131 813.185 858.807C809.066 860.455 804.308 861.278 798.91 861.278ZM906.584 768.636L878.459 873.125H862.82L890.945 768.636H906.584ZM978.867 832.599L918.867 859.02V841.761L959.947 825.27L959.393 826.165V824.034L959.947 824.929L918.867 808.438V791.179L978.867 817.599V832.599Z" fill="black"/>
<path d="M276.194 934.33C274.582 934.33 273.193 933.986 272.028 933.297C270.871 932.601 269.976 931.624 269.344 930.367C268.719 929.103 268.406 927.622 268.406 925.925C268.406 924.249 268.719 922.771 269.344 921.493C269.976 920.214 270.857 919.217 271.986 918.499C273.122 917.782 274.45 917.423 275.97 917.423C276.893 917.423 277.788 917.576 278.655 917.881C279.521 918.187 280.299 918.666 280.988 919.32C281.677 919.973 282.22 920.822 282.618 921.866C283.016 922.903 283.214 924.163 283.214 925.648V926.777H270.207V924.391H280.093C280.093 923.553 279.923 922.81 279.582 922.164C279.241 921.511 278.761 920.996 278.143 920.619C277.533 920.243 276.815 920.055 275.991 920.055C275.097 920.055 274.315 920.275 273.648 920.715C272.987 921.148 272.476 921.717 272.114 922.42C271.759 923.116 271.581 923.872 271.581 924.689V926.553C271.581 927.647 271.773 928.577 272.156 929.344C272.547 930.112 273.09 930.697 273.786 931.102C274.482 931.5 275.295 931.699 276.226 931.699C276.83 931.699 277.38 931.614 277.877 931.443C278.374 931.266 278.804 931.003 279.166 930.655C279.528 930.307 279.805 929.877 279.997 929.366L283.012 929.909C282.771 930.797 282.337 931.575 281.712 932.242C281.094 932.903 280.317 933.418 279.379 933.787C278.449 934.149 277.387 934.33 276.194 934.33ZM339.582 917.636L343.194 924.007L346.837 917.636H350.321L345.218 925.818L350.363 934H346.88L343.194 927.885L339.518 934H336.024L341.116 925.818L336.088 917.636H339.582ZM404.291 940.136V917.636H407.402V920.289H407.668C407.853 919.948 408.119 919.554 408.467 919.107C408.815 918.659 409.298 918.268 409.916 917.935C410.534 917.594 411.351 917.423 412.367 917.423C413.688 917.423 414.867 917.757 415.904 918.425C416.94 919.092 417.754 920.055 418.343 921.312C418.94 922.569 419.238 924.082 419.238 925.85C419.238 927.619 418.943 929.135 418.354 930.399C417.764 931.656 416.955 932.626 415.925 933.308C414.895 933.982 413.72 934.32 412.399 934.32C411.404 934.32 410.591 934.153 409.959 933.819C409.334 933.485 408.844 933.094 408.489 932.647C408.134 932.2 407.86 931.802 407.668 931.454H407.477V940.136H404.291ZM407.413 925.818C407.413 926.969 407.58 927.977 407.913 928.844C408.247 929.71 408.73 930.388 409.362 930.879C409.994 931.362 410.769 931.603 411.685 931.603C412.636 931.603 413.432 931.351 414.071 930.847C414.71 930.335 415.193 929.643 415.52 928.769C415.854 927.896 416.021 926.912 416.021 925.818C416.021 924.739 415.857 923.769 415.531 922.91C415.211 922.05 414.728 921.372 414.082 920.875C413.443 920.378 412.644 920.129 411.685 920.129C410.761 920.129 409.98 920.367 409.341 920.843C408.709 921.319 408.23 921.983 407.903 922.835C407.576 923.687 407.413 924.682 407.413 925.818ZM476.692 912.182V934H473.507V912.182H476.692ZM536.44 934.362C535.403 934.362 534.465 934.17 533.627 933.787C532.789 933.396 532.125 932.832 531.635 932.093C531.152 931.354 530.911 930.449 530.911 929.376C530.911 928.453 531.088 927.693 531.443 927.097C531.798 926.5 532.278 926.028 532.881 925.68C533.485 925.332 534.16 925.069 534.906 924.891C535.651 924.714 536.411 924.579 537.185 924.487C538.166 924.373 538.961 924.281 539.572 924.21C540.183 924.131 540.627 924.007 540.904 923.837C541.18 923.666 541.319 923.389 541.319 923.006V922.931C541.319 922.001 541.056 921.28 540.531 920.768C540.012 920.257 539.238 920.001 538.208 920.001C537.136 920.001 536.291 920.239 535.673 920.715C535.062 921.184 534.639 921.706 534.405 922.281L531.411 921.599C531.766 920.605 532.285 919.803 532.967 919.192C533.656 918.574 534.448 918.126 535.342 917.849C536.237 917.565 537.178 917.423 538.166 917.423C538.819 917.423 539.511 917.501 540.243 917.658C540.982 917.807 541.671 918.084 542.31 918.489C542.956 918.893 543.485 919.472 543.897 920.225C544.309 920.971 544.515 921.94 544.515 923.134V934H541.404V931.763H541.276C541.07 932.175 540.761 932.58 540.35 932.977C539.938 933.375 539.408 933.705 538.762 933.968C538.116 934.231 537.342 934.362 536.44 934.362ZM537.132 931.805C538.013 931.805 538.766 931.631 539.391 931.283C540.023 930.935 540.502 930.481 540.829 929.92C541.163 929.352 541.33 928.744 541.33 928.098V925.989C541.216 926.102 540.996 926.209 540.669 926.308C540.35 926.401 539.984 926.482 539.572 926.553C539.16 926.617 538.759 926.678 538.368 926.734C537.977 926.784 537.651 926.827 537.388 926.862C536.77 926.94 536.205 927.072 535.694 927.256C535.19 927.441 534.785 927.707 534.479 928.055C534.181 928.396 534.032 928.851 534.032 929.419C534.032 930.207 534.323 930.804 534.906 931.209C535.488 931.607 536.23 931.805 537.132 931.805ZM599.458 934V917.636H602.643V934H599.458ZM601.066 915.112C600.512 915.112 600.037 914.927 599.639 914.558C599.248 914.181 599.053 913.734 599.053 913.215C599.053 912.69 599.248 912.242 599.639 911.873C600.037 911.496 600.512 911.308 601.066 911.308C601.62 911.308 602.093 911.496 602.483 911.873C602.881 912.242 603.08 912.69 603.08 913.215C603.08 913.734 602.881 914.181 602.483 914.558C602.093 914.927 601.62 915.112 601.066 915.112ZM660.814 924.284V934H657.628V917.636H660.686V920.3H660.888C661.265 919.433 661.854 918.737 662.657 918.212C663.467 917.686 664.486 917.423 665.714 917.423C666.829 917.423 667.806 917.658 668.644 918.126C669.482 918.588 670.132 919.277 670.594 920.193C671.055 921.109 671.286 922.242 671.286 923.592V934H668.101V923.975C668.101 922.789 667.792 921.862 667.174 921.195C666.556 920.52 665.707 920.183 664.628 920.183C663.889 920.183 663.232 920.342 662.657 920.662C662.089 920.982 661.638 921.45 661.304 922.068C660.977 922.679 660.814 923.418 660.814 924.284ZM733.311 934.33C731.698 934.33 730.31 933.986 729.145 933.297C727.988 932.601 727.093 931.624 726.461 930.367C725.836 929.103 725.523 927.622 725.523 925.925C725.523 924.249 725.836 922.771 726.461 921.493C727.093 920.214 727.973 919.217 729.103 918.499C730.239 917.782 731.567 917.423 733.087 917.423C734.01 917.423 734.905 917.576 735.772 917.881C736.638 918.187 737.416 918.666 738.105 919.32C738.794 919.973 739.337 920.822 739.735 921.866C740.132 922.903 740.331 924.163 740.331 925.648V926.777H727.323V924.391H737.21C737.21 923.553 737.039 922.81 736.698 922.164C736.358 921.511 735.878 920.996 735.26 920.619C734.649 920.243 733.932 920.055 733.108 920.055C732.213 920.055 731.432 920.275 730.765 920.715C730.104 921.148 729.593 921.717 729.23 922.42C728.875 923.116 728.698 923.872 728.698 924.689V926.553C728.698 927.647 728.89 928.577 729.273 929.344C729.664 930.112 730.207 930.697 730.903 931.102C731.599 931.5 732.412 931.699 733.343 931.699C733.946 931.699 734.497 931.614 734.994 931.443C735.491 931.266 735.921 931.003 736.283 930.655C736.645 930.307 736.922 929.877 737.114 929.366L740.129 929.909C739.887 930.797 739.454 931.575 738.829 932.242C738.211 932.903 737.434 933.418 736.496 933.787C735.566 934.149 734.504 934.33 733.311 934.33ZM800.691 934.32C799.37 934.32 798.191 933.982 797.154 933.308C796.124 932.626 795.315 931.656 794.725 930.399C794.143 929.135 793.852 927.619 793.852 925.85C793.852 924.082 794.146 922.569 794.736 921.312C795.333 920.055 796.149 919.092 797.186 918.425C798.223 917.757 799.399 917.423 800.713 917.423C801.728 917.423 802.545 917.594 803.163 917.935C803.788 918.268 804.271 918.659 804.612 919.107C804.96 919.554 805.23 919.948 805.421 920.289H805.613V912.182H808.798V934H805.688V931.454H805.421C805.23 931.802 804.953 932.2 804.59 932.647C804.235 933.094 803.745 933.485 803.12 933.819C802.495 934.153 801.686 934.32 800.691 934.32ZM801.394 931.603C802.311 931.603 803.085 931.362 803.717 930.879C804.356 930.388 804.839 929.71 805.166 928.844C805.499 927.977 805.666 926.969 805.666 925.818C805.666 924.682 805.503 923.687 805.176 922.835C804.85 921.983 804.37 921.319 803.738 920.843C803.106 920.367 802.325 920.129 801.394 920.129C800.436 920.129 799.637 920.378 798.997 920.875C798.358 921.372 797.875 922.05 797.548 922.91C797.229 923.769 797.069 924.739 797.069 925.818C797.069 926.912 797.232 927.896 797.559 928.769C797.886 929.643 798.369 930.335 799.008 930.847C799.654 931.351 800.45 931.603 801.394 931.603Z" fill="black"/>
<path d="M353.818 639.518L312.389 174.875H767.611L726.127 639.445L539.723 691.125L353.818 639.518Z" fill="#E44F26"/>
<path d="M540 651.632L690.634 609.871L726.071 212.875H540V651.632Z" fill="#F1662A"/>
<path d="M540 385.192H464.591L459.391 326.837H540V269.847H397.109L398.474 285.15L412.468 442.182H540V385.192ZM540 533.189L539.742 533.263L476.28 516.135L472.224 470.686H415.012L422.996 560.145L539.742 592.558L540 592.484V533.189Z" fill="#EBEBEB"/>
<path d="M539.797 385.192V442.182H609.97L603.37 516.098L539.797 533.245V592.54L656.636 560.145L657.484 550.521L670.869 400.495L672.271 385.192H539.797ZM539.797 269.847V326.837H677.452L678.595 314.041L681.194 285.15L682.559 269.847H539.797Z" fill="white"/>
<defs>
<linearGradient id="paint0_linear_0_1" x1="540" y1="0" x2="540" y2="1080" gradientUnits="userSpaceOnUse">
<stop stop-color="#B4B4B4"/>
<stop offset="1" stop-color="#D7D7D7"/>
</linearGradient>
</defs>
</svg>
