<svg width="1080" height="1080" viewBox="0 0 1080 1080" fill="none" xmlns="http://www.w3.org/2000/svg">
<rect width="1080" height="1080" fill="#1E1E1E"/>
<rect width="1080" height="1080" fill="url(#paint0_linear_0_1)"/>
<path d="M397.781 832.599V817.599L457.781 791.179V808.438L416.702 824.929L417.256 824.034V826.165L416.702 825.27L457.781 841.761V859.02L397.781 832.599ZM494.472 861.236C490.295 861.236 486.574 860.511 483.307 859.062C480.04 857.585 477.455 855.412 475.551 852.543C473.676 849.645 472.739 846.037 472.739 841.719C472.739 838.082 473.406 835.028 474.741 832.557C476.077 830.085 477.895 828.097 480.196 826.591C482.497 825.085 485.111 823.949 488.037 823.182C490.991 822.415 494.088 821.875 497.327 821.562C501.134 821.165 504.202 820.795 506.531 820.455C508.861 820.085 510.551 819.545 511.602 818.835C512.653 818.125 513.179 817.074 513.179 815.682V815.426C513.179 812.727 512.327 810.639 510.622 809.162C508.946 807.685 506.56 806.946 503.463 806.946C500.196 806.946 497.597 807.67 495.665 809.119C493.733 810.54 492.455 812.33 491.83 814.489L475.04 813.125C475.892 809.148 477.568 805.71 480.068 802.812C482.568 799.886 485.793 797.642 489.741 796.08C493.719 794.489 498.321 793.693 503.548 793.693C507.185 793.693 510.665 794.119 513.989 794.972C517.341 795.824 520.31 797.145 522.895 798.935C525.509 800.724 527.568 803.026 529.074 805.838C530.58 808.622 531.332 811.96 531.332 815.852V860H514.116V850.923H513.605C512.554 852.969 511.148 854.773 509.386 856.335C507.625 857.869 505.509 859.077 503.037 859.957C500.565 860.81 497.71 861.236 494.472 861.236ZM499.67 848.707C502.341 848.707 504.699 848.182 506.744 847.131C508.79 846.051 510.395 844.602 511.56 842.784C512.724 840.966 513.307 838.906 513.307 836.605V829.659C512.739 830.028 511.957 830.369 510.963 830.682C509.997 830.966 508.903 831.236 507.682 831.491C506.46 831.719 505.239 831.932 504.017 832.131C502.795 832.301 501.688 832.457 500.693 832.599C498.563 832.912 496.702 833.409 495.111 834.091C493.52 834.773 492.284 835.696 491.403 836.861C490.523 837.997 490.082 839.418 490.082 841.122C490.082 843.594 490.977 845.483 492.767 846.79C494.585 848.068 496.886 848.707 499.67 848.707ZM611.201 768.636L583.076 873.125H567.437L595.562 768.636H611.201ZM683.484 832.599L623.484 859.02V841.761L664.564 825.27L664.01 826.165V824.034L664.564 824.929L623.484 808.438V791.179L683.484 817.599V832.599Z" fill="black"/>
<path d="M277.194 934.33C275.582 934.33 274.193 933.986 273.028 933.297C271.871 932.601 270.976 931.624 270.344 930.367C269.719 929.103 269.406 927.622 269.406 925.925C269.406 924.249 269.719 922.771 270.344 921.493C270.976 920.214 271.857 919.217 272.986 918.499C274.122 917.782 275.45 917.423 276.97 917.423C277.893 917.423 278.788 917.576 279.655 917.881C280.521 918.187 281.299 918.666 281.988 919.32C282.677 919.973 283.22 920.822 283.618 921.866C284.016 922.903 284.214 924.163 284.214 925.648V926.777H271.207V924.391H281.093C281.093 923.553 280.923 922.81 280.582 922.164C280.241 921.511 279.761 920.996 279.143 920.619C278.533 920.243 277.815 920.055 276.991 920.055C276.097 920.055 275.315 920.275 274.648 920.715C273.987 921.148 273.476 921.717 273.114 922.42C272.759 923.116 272.581 923.872 272.581 924.689V926.553C272.581 927.647 272.773 928.577 273.156 929.344C273.547 930.112 274.09 930.697 274.786 931.102C275.482 931.5 276.295 931.699 277.226 931.699C277.83 931.699 278.38 931.614 278.877 931.443C279.374 931.266 279.804 931.003 280.166 930.655C280.528 930.307 280.805 929.877 280.997 929.366L284.012 929.909C283.771 930.797 283.337 931.575 282.712 932.242C282.094 932.903 281.317 933.418 280.379 933.787C279.449 934.149 278.387 934.33 277.194 934.33ZM340.582 917.636L344.194 924.007L347.837 917.636H351.321L346.218 925.818L351.363 934H347.88L344.194 927.885L340.518 934H337.024L342.116 925.818L337.088 917.636H340.582ZM405.291 940.136V917.636H408.402V920.289H408.668C408.853 919.948 409.119 919.554 409.467 919.107C409.815 918.659 410.298 918.268 410.916 917.935C411.534 917.594 412.351 917.423 413.367 917.423C414.688 917.423 415.867 917.757 416.904 918.425C417.94 919.092 418.754 920.055 419.343 921.312C419.94 922.569 420.238 924.082 420.238 925.85C420.238 927.619 419.943 929.135 419.354 930.399C418.764 931.656 417.955 932.626 416.925 933.308C415.895 933.982 414.72 934.32 413.399 934.32C412.404 934.32 411.591 934.153 410.959 933.819C410.334 933.485 409.844 933.094 409.489 932.647C409.134 932.2 408.86 931.802 408.668 931.454H408.477V940.136H405.291ZM408.413 925.818C408.413 926.969 408.58 927.977 408.913 928.844C409.247 929.71 409.73 930.388 410.362 930.879C410.994 931.362 411.769 931.603 412.685 931.603C413.636 931.603 414.432 931.351 415.071 930.847C415.71 930.335 416.193 929.643 416.52 928.769C416.854 927.896 417.021 926.912 417.021 925.818C417.021 924.739 416.857 923.769 416.531 922.91C416.211 922.05 415.728 921.372 415.082 920.875C414.443 920.378 413.644 920.129 412.685 920.129C411.761 920.129 410.98 920.367 410.341 920.843C409.709 921.319 409.23 921.983 408.903 922.835C408.576 923.687 408.413 924.682 408.413 925.818ZM477.692 912.182V934H474.507V912.182H477.692ZM537.44 934.362C536.403 934.362 535.465 934.17 534.627 933.787C533.789 933.396 533.125 932.832 532.635 932.093C532.152 931.354 531.911 930.449 531.911 929.376C531.911 928.453 532.088 927.693 532.443 927.097C532.798 926.5 533.278 926.028 533.881 925.68C534.485 925.332 535.16 925.069 535.906 924.891C536.651 924.714 537.411 924.579 538.185 924.487C539.166 924.373 539.961 924.281 540.572 924.21C541.183 924.131 541.627 924.007 541.904 923.837C542.18 923.666 542.319 923.389 542.319 923.006V922.931C542.319 922.001 542.056 921.28 541.531 920.768C541.012 920.257 540.238 920.001 539.208 920.001C538.136 920.001 537.291 920.239 536.673 920.715C536.062 921.184 535.639 921.706 535.405 922.281L532.411 921.599C532.766 920.605 533.285 919.803 533.967 919.192C534.656 918.574 535.448 918.126 536.342 917.849C537.237 917.565 538.178 917.423 539.166 917.423C539.819 917.423 540.511 917.501 541.243 917.658C541.982 917.807 542.671 918.084 543.31 918.489C543.956 918.893 544.485 919.472 544.897 920.225C545.309 920.971 545.515 921.94 545.515 923.134V934H542.404V931.763H542.276C542.07 932.175 541.761 932.58 541.35 932.977C540.938 933.375 540.408 933.705 539.762 933.968C539.116 934.231 538.342 934.362 537.44 934.362ZM538.132 931.805C539.013 931.805 539.766 931.631 540.391 931.283C541.023 930.935 541.502 930.481 541.829 929.92C542.163 929.352 542.33 928.744 542.33 928.098V925.989C542.216 926.102 541.996 926.209 541.669 926.308C541.35 926.401 540.984 926.482 540.572 926.553C540.16 926.617 539.759 926.678 539.368 926.734C538.977 926.784 538.651 926.827 538.388 926.862C537.77 926.94 537.205 927.072 536.694 927.256C536.19 927.441 535.785 927.707 535.479 928.055C535.181 928.396 535.032 928.851 535.032 929.419C535.032 930.207 535.323 930.804 535.906 931.209C536.488 931.607 537.23 931.805 538.132 931.805ZM600.458 934V917.636H603.643V934H600.458ZM602.066 915.112C601.512 915.112 601.037 914.927 600.639 914.558C600.248 914.181 600.053 913.734 600.053 913.215C600.053 912.69 600.248 912.242 600.639 911.873C601.037 911.496 601.512 911.308 602.066 911.308C602.62 911.308 603.093 911.496 603.483 911.873C603.881 912.242 604.08 912.69 604.08 913.215C604.08 913.734 603.881 914.181 603.483 914.558C603.093 914.927 602.62 915.112 602.066 915.112ZM661.814 924.284V934H658.628V917.636H661.686V920.3H661.888C662.265 919.433 662.854 918.737 663.657 918.212C664.467 917.686 665.486 917.423 666.714 917.423C667.829 917.423 668.806 917.658 669.644 918.126C670.482 918.588 671.132 919.277 671.594 920.193C672.055 921.109 672.286 922.242 672.286 923.592V934H669.101V923.975C669.101 922.789 668.792 921.862 668.174 921.195C667.556 920.52 666.707 920.183 665.628 920.183C664.889 920.183 664.232 920.342 663.657 920.662C663.089 920.982 662.638 921.45 662.304 922.068C661.977 922.679 661.814 923.418 661.814 924.284ZM734.311 934.33C732.698 934.33 731.31 933.986 730.145 933.297C728.988 932.601 728.093 931.624 727.461 930.367C726.836 929.103 726.523 927.622 726.523 925.925C726.523 924.249 726.836 922.771 727.461 921.493C728.093 920.214 728.973 919.217 730.103 918.499C731.239 917.782 732.567 917.423 734.087 917.423C735.01 917.423 735.905 917.576 736.772 917.881C737.638 918.187 738.416 918.666 739.105 919.32C739.794 919.973 740.337 920.822 740.735 921.866C741.132 922.903 741.331 924.163 741.331 925.648V926.777H728.323V924.391H738.21C738.21 923.553 738.039 922.81 737.698 922.164C737.358 921.511 736.878 920.996 736.26 920.619C735.649 920.243 734.932 920.055 734.108 920.055C733.213 920.055 732.432 920.275 731.765 920.715C731.104 921.148 730.593 921.717 730.23 922.42C729.875 923.116 729.698 923.872 729.698 924.689V926.553C729.698 927.647 729.89 928.577 730.273 929.344C730.664 930.112 731.207 930.697 731.903 931.102C732.599 931.5 733.412 931.699 734.343 931.699C734.946 931.699 735.497 931.614 735.994 931.443C736.491 931.266 736.921 931.003 737.283 930.655C737.645 930.307 737.922 929.877 738.114 929.366L741.129 929.909C740.887 930.797 740.454 931.575 739.829 932.242C739.211 932.903 738.434 933.418 737.496 933.787C736.566 934.149 735.504 934.33 734.311 934.33ZM801.691 934.32C800.37 934.32 799.191 933.982 798.154 933.308C797.124 932.626 796.315 931.656 795.725 930.399C795.143 929.135 794.852 927.619 794.852 925.85C794.852 924.082 795.146 922.569 795.736 921.312C796.333 920.055 797.149 919.092 798.186 918.425C799.223 917.757 800.399 917.423 801.713 917.423C802.728 917.423 803.545 917.594 804.163 917.935C804.788 918.268 805.271 918.659 805.612 919.107C805.96 919.554 806.23 919.948 806.421 920.289H806.613V912.182H809.798V934H806.688V931.454H806.421C806.23 931.802 805.953 932.2 805.59 932.647C805.235 933.094 804.745 933.485 804.12 933.819C803.495 934.153 802.686 934.32 801.691 934.32ZM802.394 931.603C803.311 931.603 804.085 931.362 804.717 930.879C805.356 930.388 805.839 929.71 806.166 928.844C806.499 927.977 806.666 926.969 806.666 925.818C806.666 924.682 806.503 923.687 806.176 922.835C805.85 921.983 805.37 921.319 804.738 920.843C804.106 920.367 803.325 920.129 802.394 920.129C801.436 920.129 800.637 920.378 799.997 920.875C799.358 921.372 798.875 922.05 798.548 922.91C798.229 923.769 798.069 924.739 798.069 925.818C798.069 926.912 798.232 927.896 798.559 928.769C798.886 929.643 799.369 930.335 800.008 930.847C800.654 931.351 801.45 931.603 802.394 931.603Z" fill="black"/>
<path d="M353.818 639.518L312.389 174.875H767.611L726.127 639.445L539.723 691.125L353.818 639.518Z" fill="#E44F26"/>
<path d="M540 651.632L690.634 609.871L726.071 212.875H540V651.632Z" fill="#F1662A"/>
<path d="M540 385.192H464.591L459.391 326.837H540V269.847H397.109L398.474 285.15L412.468 442.182H540V385.192ZM540 533.189L539.742 533.263L476.28 516.135L472.224 470.686H415.012L422.996 560.145L539.742 592.558L540 592.484V533.189Z" fill="#EBEBEB"/>
<path d="M539.797 385.192V442.182H609.97L603.37 516.098L539.797 533.245V592.54L656.636 560.145L657.484 550.521L670.869 400.495L672.271 385.192H539.797ZM539.797 269.847V326.837H677.452L678.595 314.041L681.194 285.15L682.559 269.847H539.797Z" fill="white"/>
<defs>
<linearGradient id="paint0_linear_0_1" x1="540" y1="0" x2="540" y2="1080" gradientUnits="userSpaceOnUse">
<stop stop-color="#B4B4B4"/>
<stop offset="1" stop-color="#D7D7D7"/>
</linearGradient>
</defs>
</svg>
