<svg width="1080" height="1080" viewBox="0 0 1080 1080" fill="none" xmlns="http://www.w3.org/2000/svg">
<rect width="1080" height="1080" fill="#1F3B77"/>
<g clip-path="url(#clip0_1_2)">
<path d="M220.998 349.693L245.396 307.243L248.742 302.205C253.588 295.741 261.749 290.774 271.762 287.424L276.78 285.745C311.059 278.224 350.534 290.807 381.649 305.468C397.18 312.786 410.55 320.584 420.037 326.553C424.78 329.537 428.55 332.062 431.132 333.839C432.364 334.687 433.325 335.365 433.992 335.841L404.676 384.884L327.607 369.748L327.292 369.686L326.979 369.759C305.341 374.771 281.979 369.763 263.605 358.025L263.363 357.87L263.081 357.816L220.998 349.693Z" fill="#76B3E1" stroke="white" stroke-width="3"/>
<path opacity="0.3" d="M220.998 349.693L245.396 307.243L248.742 302.205C253.588 295.741 261.749 290.774 271.762 287.424L276.78 285.745C311.059 278.224 350.534 290.807 381.649 305.468C397.18 312.786 410.55 320.584 420.037 326.553C424.78 329.537 428.55 332.062 431.132 333.839C432.364 334.687 433.325 335.365 433.992 335.841L404.676 384.884L327.607 369.748L327.292 369.686L326.979 369.759C305.341 374.771 281.979 369.763 263.605 358.025L263.363 357.87L263.081 357.816L220.998 349.693Z" fill="url(#paint0_linear_1_2)" stroke="white" stroke-width="3"/>
<path d="M400.572 384.97C401.17 385.382 401.704 385.754 402.171 386.082L299.697 420.923C285.606 425.075 269.798 424.253 255.401 419.646C241.013 415.041 228.151 406.692 219.88 395.925C212.477 384.336 210.909 372.054 214.548 361.705C218.184 351.364 227.099 342.729 241.119 338.581L247.863 336.889C281.297 329.345 320.367 341.926 351.295 356.598C366.721 363.916 380.038 371.714 389.5 377.683C394.23 380.667 397.993 383.192 400.572 384.97Z" fill="#518AC8" stroke="white" stroke-width="3"/>
<path opacity="0.3" d="M400.572 384.97C401.17 385.382 401.704 385.754 402.171 386.082L299.697 420.923C285.606 425.075 269.798 424.253 255.401 419.646C241.013 415.041 228.151 406.692 219.88 395.925C212.477 384.336 210.909 372.054 214.548 361.705C218.184 351.364 227.099 342.729 241.119 338.581L247.863 336.889C281.297 329.345 320.367 341.926 351.295 356.598C366.721 363.916 380.038 371.714 389.5 377.683C394.23 380.667 397.993 383.192 400.572 384.97Z" fill="url(#paint1_linear_1_2)" stroke="white" stroke-width="3"/>
<path d="M305.691 387.993C334.889 379.253 366.45 389.138 385.518 412.994C393.775 426.297 395.262 439.299 388.837 450.585L388.833 450.593L388.828 450.601L355.385 511.027L168.378 479.182L200.989 421.896L305.691 387.993Z" fill="url(#paint2_linear_1_2)" stroke="white" stroke-width="3"/>
<path d="M169.269 480.824L271.733 447.646C300.94 438.903 332.513 448.798 351.579 472.671L351.595 472.692C359.8 483.398 361.37 495.215 357.539 505.336C353.7 515.478 344.35 524.138 330.289 528.29L330.263 528.297L330.238 528.306L325.203 529.99C290.942 538.353 251.477 525.78 220.359 510.905C204.83 503.482 191.462 495.527 181.975 489.426C177.233 486.376 173.464 483.791 170.882 481.971C170.279 481.546 169.74 481.162 169.269 480.824Z" fill="url(#paint3_linear_1_2)" stroke="white" stroke-width="3"/>
</g>
<path d="M507 513C496.467 513 488.2 510.067 482.2 504.2C476.333 498.333 473.4 490.267 473.4 480V425.6H443.6V403H473.4V372H498.6V403H540.8V425.6H498.6V480C498.6 486.933 502 490.4 508.8 490.4H538.8V513H507ZM602.722 515C591.389 515 582.455 512 575.922 506C569.389 500 566.122 491.933 566.122 481.8C566.122 471 569.722 462.667 576.922 456.8C584.122 450.933 594.322 448 607.522 448H634.922V438.6C634.922 433.267 633.189 429.133 629.722 426.2C626.255 423.133 621.522 421.6 615.522 421.6C610.055 421.6 605.522 422.8 601.922 425.2C598.322 427.6 596.189 430.867 595.522 435H571.122C572.322 424.6 576.989 416.333 585.122 410.2C593.255 404.067 603.655 401 616.322 401C629.789 401 640.389 404.4 648.122 411.2C655.989 417.867 659.922 426.933 659.922 438.4V513H635.722V493.8H631.722L635.722 488.4C635.722 496.533 632.722 503 626.722 507.8C620.722 512.6 612.722 515 602.722 515ZM610.922 496.2C617.989 496.2 623.722 494.4 628.122 490.8C632.655 487.2 634.922 482.533 634.922 476.8V463.4H607.922C602.855 463.4 598.789 464.867 595.722 467.8C592.655 470.733 591.122 474.6 591.122 479.4C591.122 484.6 592.855 488.733 596.322 491.8C599.922 494.733 604.789 496.2 610.922 496.2ZM746.844 513C736.31 513 728.044 510.067 722.044 504.2C716.177 498.333 713.244 490.267 713.244 480V425.6H683.444V403H713.244V372H738.444V403H780.644V425.6H738.444V480C738.444 486.933 741.844 490.4 748.644 490.4H778.644V513H746.844ZM854.966 515C845.632 515 837.499 513.2 830.566 509.6C823.632 506 818.232 501 814.366 494.6C810.632 488.067 808.766 480.467 808.766 471.8V444.2C808.766 435.533 810.632 428 814.366 421.6C818.232 415.067 823.632 410 830.566 406.4C837.499 402.8 845.632 401 854.966 401C864.166 401 872.166 402.8 878.966 406.4C885.899 410 891.232 415.067 894.966 421.6C898.832 428 900.766 435.533 900.766 444.2V464H832.966V471.8C832.966 479.533 834.832 485.4 838.566 489.4C842.299 493.267 847.832 495.2 855.166 495.2C860.766 495.2 865.299 494.267 868.766 492.4C872.232 490.4 874.432 487.533 875.366 483.8H899.966C898.099 493.267 893.032 500.867 884.766 506.6C876.632 512.2 866.699 515 854.966 515ZM876.566 450V444C876.566 436.4 874.766 430.6 871.166 426.6C867.566 422.467 862.166 420.4 854.966 420.4C847.766 420.4 842.299 422.467 838.566 426.6C834.832 430.733 832.966 436.6 832.966 444.2V448.4L878.366 448L876.566 450Z" fill="white"/>
<path d="M98.8 666V583.5H114.1V594.6H117.25L114.7 597.3C114.7 592.7 116 589 118.6 586.2C121.2 583.4 124.55 582 128.65 582C133.05 582 136.45 583.8 138.85 587.4C141.35 591 142.6 595.85 142.6 601.95L139.3 594.6H144.4L142.45 597.3C142.45 592.7 143.75 589 146.35 586.2C148.95 583.4 152.4 582 156.7 582C161.8 582 165.85 583.9 168.85 587.7C171.85 591.5 173.35 596.65 173.35 603.15V666H156.85V603.9C156.85 601.2 156.25 599.1 155.05 597.6C153.85 596 152.1 595.2 149.8 595.2C147.6 595.2 145.85 595.95 144.55 597.45C143.35 598.95 142.75 601.1 142.75 603.9V666H129.25V603.9C129.25 601.1 128.65 598.95 127.45 597.45C126.25 595.95 124.5 595.2 122.2 595.2C119.9 595.2 118.15 595.95 116.95 597.45C115.85 598.95 115.3 601.1 115.3 603.9V666H98.8ZM216.791 667.5C208.291 667.5 201.591 665.25 196.691 660.75C191.791 656.25 189.341 650.2 189.341 642.6C189.341 634.5 192.041 628.25 197.441 623.85C202.841 619.45 210.491 617.25 220.391 617.25H240.941V610.2C240.941 606.2 239.641 603.1 237.041 600.9C234.441 598.6 230.891 597.45 226.391 597.45C222.291 597.45 218.891 598.35 216.191 600.15C213.491 601.95 211.891 604.4 211.391 607.5H193.091C193.991 599.7 197.491 593.5 203.591 588.9C209.691 584.3 217.491 582 226.991 582C237.091 582 245.041 584.55 250.841 589.65C256.741 594.65 259.691 601.45 259.691 610.05V666H241.541V651.6H238.541L241.541 647.55C241.541 653.65 239.291 658.5 234.791 662.1C230.291 665.7 224.291 667.5 216.791 667.5ZM222.941 653.4C228.241 653.4 232.541 652.05 235.841 649.35C239.241 646.65 240.941 643.15 240.941 638.85V628.8H220.691C216.891 628.8 213.841 629.9 211.541 632.1C209.241 634.3 208.091 637.2 208.091 640.8C208.091 644.7 209.391 647.8 211.991 650.1C214.691 652.3 218.341 653.4 222.941 653.4ZM282.433 666V583.5H300.733V599.25H305.833L300.733 603.6C300.733 596.8 302.683 591.5 306.583 587.7C310.583 583.9 316.033 582 322.933 582C331.033 582 337.483 584.7 342.283 590.1C347.183 595.5 349.633 602.75 349.633 611.85V666H330.883V613.8C330.883 608.8 329.583 604.95 326.983 602.25C324.383 599.55 320.733 598.2 316.033 598.2C311.433 598.2 307.783 599.6 305.083 602.4C302.483 605.2 301.183 609.2 301.183 614.4V666H282.433ZM396.674 667.5C388.174 667.5 381.474 665.25 376.574 660.75C371.674 656.25 369.224 650.2 369.224 642.6C369.224 634.5 371.924 628.25 377.324 623.85C382.724 619.45 390.374 617.25 400.274 617.25H420.824V610.2C420.824 606.2 419.524 603.1 416.924 600.9C414.324 598.6 410.774 597.45 406.274 597.45C402.174 597.45 398.774 598.35 396.074 600.15C393.374 601.95 391.774 604.4 391.274 607.5H372.974C373.874 599.7 377.374 593.5 383.474 588.9C389.574 584.3 397.374 582 406.874 582C416.974 582 424.924 584.55 430.724 589.65C436.624 594.65 439.574 601.45 439.574 610.05V666H421.424V651.6H418.424L421.424 647.55C421.424 653.65 419.174 658.5 414.674 662.1C410.174 665.7 404.174 667.5 396.674 667.5ZM402.824 653.4C408.124 653.4 412.424 652.05 415.724 649.35C419.124 646.65 420.824 643.15 420.824 638.85V628.8H400.574C396.774 628.8 393.724 629.9 391.424 632.1C389.124 634.3 387.974 637.2 387.974 640.8C387.974 644.7 389.274 647.8 391.874 650.1C394.574 652.3 398.224 653.4 402.824 653.4ZM473.566 693V677.4H498.016C502.216 677.4 505.366 676.35 507.466 674.25C509.566 672.25 510.616 669.35 510.616 665.55V659.4L510.916 643.95H506.866L510.916 639.9C510.916 646.6 508.916 651.85 504.916 655.65C501.016 659.35 495.716 661.2 489.016 661.2C480.616 661.2 473.916 658.35 468.916 652.65C464.016 646.95 461.566 639.25 461.566 629.55V613.5C461.566 603.9 464.016 596.25 468.916 590.55C473.916 584.85 480.616 582 489.016 582C495.716 582 501.016 583.9 504.916 587.7C508.916 591.4 510.916 596.6 510.916 603.3L506.866 599.25H510.916L510.466 583.5H529.216V666C529.216 674.3 526.466 680.85 520.966 685.65C515.466 690.55 507.916 693 498.316 693H473.566ZM495.316 645C500.116 645 503.816 643.6 506.416 640.8C509.116 637.9 510.466 633.9 510.466 628.8V614.4C510.466 609.3 509.116 605.35 506.416 602.55C503.816 599.65 500.116 598.2 495.316 598.2C490.516 598.2 486.816 599.6 484.216 602.4C481.616 605.2 480.316 609.2 480.316 614.4V628.8C480.316 634 481.616 638 484.216 640.8C486.816 643.6 490.516 645 495.316 645ZM585.857 667.5C578.857 667.5 572.757 666.15 567.557 663.45C562.357 660.75 558.307 657 555.407 652.2C552.607 647.3 551.207 641.6 551.207 635.1V614.4C551.207 607.9 552.607 602.25 555.407 597.45C558.307 592.55 562.357 588.75 567.557 586.05C572.757 583.35 578.857 582 585.857 582C592.757 582 598.757 583.35 603.857 586.05C609.057 588.75 613.057 592.55 615.857 597.45C618.757 602.25 620.207 607.9 620.207 614.4V629.25H569.357V635.1C569.357 640.9 570.757 645.3 573.557 648.3C576.357 651.2 580.507 652.65 586.007 652.65C590.207 652.65 593.607 651.95 596.207 650.55C598.807 649.05 600.457 646.9 601.157 644.1H619.607C618.207 651.2 614.407 656.9 608.207 661.2C602.107 665.4 594.657 667.5 585.857 667.5ZM602.057 618.75V614.25C602.057 608.55 600.707 604.2 598.007 601.2C595.307 598.1 591.257 596.55 585.857 596.55C580.457 596.55 576.357 598.1 573.557 601.2C570.757 604.3 569.357 608.7 569.357 614.4V617.55L603.407 617.25L602.057 618.75ZM638.448 666V583.5H653.748V594.6H656.898L654.348 597.3C654.348 592.7 655.648 589 658.248 586.2C660.848 583.4 664.198 582 668.298 582C672.698 582 676.098 583.8 678.498 587.4C680.998 591 682.248 595.85 682.248 601.95L678.948 594.6H684.048L682.098 597.3C682.098 592.7 683.398 589 685.998 586.2C688.598 583.4 692.048 582 696.348 582C701.448 582 705.498 583.9 708.498 587.7C711.498 591.5 712.998 596.65 712.998 603.15V666H696.498V603.9C696.498 601.2 695.898 599.1 694.698 597.6C693.498 596 691.748 595.2 689.448 595.2C687.248 595.2 685.498 595.95 684.198 597.45C682.998 598.95 682.398 601.1 682.398 603.9V666H668.898V603.9C668.898 601.1 668.298 598.95 667.098 597.45C665.898 595.95 664.148 595.2 661.848 595.2C659.548 595.2 657.798 595.95 656.598 597.45C655.498 598.95 654.948 601.1 654.948 603.9V666H638.448ZM765.74 667.5C758.74 667.5 752.64 666.15 747.44 663.45C742.24 660.75 738.19 657 735.29 652.2C732.49 647.3 731.09 641.6 731.09 635.1V614.4C731.09 607.9 732.49 602.25 735.29 597.45C738.19 592.55 742.24 588.75 747.44 586.05C752.64 583.35 758.74 582 765.74 582C772.64 582 778.64 583.35 783.74 586.05C788.94 588.75 792.94 592.55 795.74 597.45C798.64 602.25 800.09 607.9 800.09 614.4V629.25H749.24V635.1C749.24 640.9 750.64 645.3 753.44 648.3C756.24 651.2 760.39 652.65 765.89 652.65C770.09 652.65 773.49 651.95 776.09 650.55C778.69 649.05 780.34 646.9 781.04 644.1H799.49C798.09 651.2 794.29 656.9 788.09 661.2C781.99 665.4 774.54 667.5 765.74 667.5ZM781.94 618.75V614.25C781.94 608.55 780.59 604.2 777.89 601.2C775.19 598.1 771.14 596.55 765.74 596.55C760.34 596.55 756.24 598.1 753.44 601.2C750.64 604.3 749.24 608.7 749.24 614.4V617.55L783.29 617.25L781.94 618.75ZM822.081 666V583.5H840.381V599.25H845.481L840.381 603.6C840.381 596.8 842.331 591.5 846.231 587.7C850.231 583.9 855.681 582 862.581 582C870.681 582 877.131 584.7 881.931 590.1C886.831 595.5 889.281 602.75 889.281 611.85V666H870.531V613.8C870.531 608.8 869.231 604.95 866.631 602.25C864.031 599.55 860.381 598.2 855.681 598.2C851.081 598.2 847.431 599.6 844.731 602.4C842.131 605.2 840.831 609.2 840.831 614.4V666H822.081ZM954.473 666C946.573 666 940.373 663.8 935.873 659.4C931.473 655 929.273 648.95 929.273 641.25V600.45H906.923V583.5H929.273V560.25H948.173V583.5H979.823V600.45H948.173V641.25C948.173 646.45 950.723 649.05 955.823 649.05H978.323V666H954.473Z" fill="white"/>
<path d="M761.05 968.75C760.183 968.75 759.45 968.483 758.85 967.95C758.283 967.383 758 966.633 758 965.7C758 964.767 758.283 964.033 758.85 963.5C759.45 962.967 760.183 962.7 761.05 962.7C761.917 962.7 762.633 962.967 763.2 963.5C763.8 964.033 764.1 964.767 764.1 965.7C764.1 966.633 763.8 967.383 763.2 967.95C762.633 968.483 761.917 968.75 761.05 968.75ZM763.45 974.5V996.15C763.45 996.883 763.833 997.367 764.6 997.6C765.367 997.833 766.35 997.95 767.55 997.95H767.6V1000H754.9V997.95H754.95C756.117 997.95 757.083 997.833 757.85 997.6C758.617 997.367 759 996.883 759 996.15V978.95C759 978.217 758.7 977.717 758.1 977.45C757.533 977.15 756.633 976.9 755.4 976.7L754.85 976.6V974.5H763.45ZM770.621 1000V997.95H770.721C771.488 997.95 772.171 997.9 772.771 997.8C773.405 997.7 773.888 997.517 774.221 997.25C774.588 996.983 774.771 996.617 774.771 996.15V978.95C774.771 978.45 774.638 978.067 774.371 977.8C774.105 977.533 773.705 977.317 773.171 977.15C772.638 976.983 771.955 976.833 771.121 976.7L770.621 976.6V974.5H778.771V979.75L779.221 980.3V997.45C779.221 997.55 779.405 997.633 779.771 997.7C780.171 997.767 780.655 997.833 781.221 997.9C781.788 997.933 782.321 997.95 782.821 997.95H782.921V1000H770.621ZM799.721 1000H787.421V997.95H787.521C787.988 997.95 788.505 997.933 789.071 997.9C789.638 997.867 790.121 997.817 790.521 997.75C790.955 997.65 791.171 997.55 791.171 997.45V982.45C791.171 981.117 791.021 980.05 790.721 979.25C790.455 978.417 790.005 977.8 789.371 977.4C788.738 977 787.888 976.8 786.821 976.8C785.721 976.8 784.671 977.033 783.671 977.5C782.671 977.967 781.721 978.65 780.821 979.55C779.955 980.417 779.121 981.5 778.321 982.8L778.121 979.95C779.021 978.65 779.938 977.55 780.871 976.65C781.838 975.75 782.871 975.083 783.971 974.65C785.071 974.217 786.321 974 787.721 974C789.321 974 790.705 974.283 791.871 974.85C793.038 975.417 793.955 976.3 794.621 977.5C795.288 978.667 795.621 980.183 795.621 982.05V996.15C795.621 996.617 795.788 996.983 796.121 997.25C796.455 997.517 796.921 997.7 797.521 997.8C798.155 997.9 798.855 997.95 799.621 997.95H799.721V1000ZM831.009 993.5C831.009 992.8 830.825 992.217 830.459 991.75C830.092 991.25 829.592 990.833 828.959 990.5C828.359 990.167 827.659 989.883 826.859 989.65C826.059 989.417 825.225 989.2 824.359 989C823.325 988.7 822.309 988.383 821.309 988.05C820.309 987.717 819.392 987.267 818.559 986.7C817.725 986.133 817.059 985.417 816.559 984.55C816.059 983.683 815.809 982.583 815.809 981.25C815.809 979.817 816.175 978.567 816.909 977.5C817.642 976.4 818.692 975.55 820.059 974.95C821.425 974.317 823.092 974 825.059 974C826.525 974 827.825 974.117 828.959 974.35C830.092 974.583 831.042 974.883 831.809 975.25C832.575 975.583 833.142 975.9 833.509 976.2V981.45H829.309V976.7C829.642 976.667 829.925 976.717 830.159 976.85C830.425 976.983 830.625 977.167 830.759 977.4C830.925 977.633 831.025 977.9 831.059 978.2C831.092 978.467 831.075 978.75 831.009 979.05C830.642 978.517 830.159 978.067 829.559 977.7C828.959 977.3 828.275 977.017 827.509 976.85C826.775 976.65 825.959 976.55 825.059 976.55C823.259 976.55 821.909 976.95 821.009 977.75C820.142 978.517 819.709 979.5 819.709 980.7C819.709 981.467 819.909 982.117 820.309 982.65C820.709 983.15 821.242 983.567 821.909 983.9C822.575 984.233 823.309 984.517 824.109 984.75C824.942 984.983 825.809 985.217 826.709 985.45C827.709 985.717 828.709 986.033 829.709 986.4C830.709 986.733 831.609 987.167 832.409 987.7C833.209 988.233 833.842 988.917 834.309 989.75C834.809 990.55 835.059 991.583 835.059 992.85C835.059 994.283 834.659 995.583 833.859 996.75C833.059 997.917 831.925 998.833 830.459 999.5C828.992 1000.17 827.225 1000.5 825.159 1000.5C823.525 1000.5 822.075 1000.37 820.809 1000.1C819.542 999.833 818.409 999.483 817.409 999.05C816.409 998.617 815.542 998.15 814.809 997.65V992.1H819.109V998.3C818.642 998.033 818.275 997.767 818.009 997.5C817.775 997.233 817.609 996.967 817.509 996.7C817.409 996.433 817.375 996.167 817.409 995.9C817.442 995.633 817.525 995.333 817.659 995C818.159 995.7 818.775 996.267 819.509 996.7C820.275 997.1 821.125 997.417 822.059 997.65C822.992 997.85 824.009 997.95 825.109 997.95C826.342 997.95 827.392 997.783 828.259 997.45C829.159 997.083 829.842 996.567 830.309 995.9C830.775 995.233 831.009 994.433 831.009 993.5ZM864.944 987.25C864.944 989.85 864.377 992.15 863.244 994.15C862.11 996.15 860.56 997.717 858.594 998.85C856.627 999.95 854.377 1000.5 851.844 1000.5C849.344 1000.5 847.094 999.95 845.094 998.85C843.127 997.717 841.577 996.15 840.444 994.15C839.344 992.15 838.794 989.85 838.794 987.25C838.794 985.317 839.11 983.533 839.744 981.9C840.377 980.267 841.277 978.867 842.444 977.7C843.644 976.533 845.027 975.633 846.594 975C848.194 974.333 849.944 974 851.844 974C853.744 974 855.477 974.333 857.044 975C858.644 975.633 860.027 976.533 861.194 977.7C862.394 978.867 863.31 980.267 863.944 981.9C864.61 983.533 864.944 985.317 864.944 987.25ZM843.494 987.25C843.494 989.383 843.827 991.267 844.494 992.9C845.16 994.5 846.11 995.75 847.344 996.65C848.61 997.517 850.11 997.95 851.844 997.95C853.61 997.95 855.11 997.517 856.344 996.65C857.577 995.75 858.527 994.5 859.194 992.9C859.894 991.267 860.244 989.383 860.244 987.25C860.244 985.083 859.894 983.2 859.194 981.6C858.527 980 857.577 978.767 856.344 977.9C855.11 977 853.61 976.55 851.844 976.55C850.11 976.55 848.61 977 847.344 977.9C846.11 978.767 845.16 980 844.494 981.6C843.827 983.2 843.494 985.083 843.494 987.25ZM877.46 963.05V996.15C877.46 996.883 877.827 997.367 878.56 997.6C879.327 997.833 880.293 997.95 881.46 997.95H881.56V1000H868.86V997.95H868.96C870.127 997.95 871.093 997.833 871.86 997.6C872.627 997.367 873.01 996.883 873.01 996.15V967.55C873.01 967.05 872.877 966.667 872.61 966.4C872.343 966.133 871.943 965.917 871.41 965.75C870.877 965.583 870.193 965.433 869.36 965.3L868.81 965.2V963.05H877.46ZM890.542 968.75C889.676 968.75 888.942 968.483 888.342 967.95C887.776 967.383 887.492 966.633 887.492 965.7C887.492 964.767 887.776 964.033 888.342 963.5C888.942 962.967 889.676 962.7 890.542 962.7C891.409 962.7 892.126 962.967 892.692 963.5C893.292 964.033 893.592 964.767 893.592 965.7C893.592 966.633 893.292 967.383 892.692 967.95C892.126 968.483 891.409 968.75 890.542 968.75ZM892.942 974.5V996.15C892.942 996.883 893.326 997.367 894.092 997.6C894.859 997.833 895.842 997.95 897.042 997.95H897.092V1000H884.392V997.95H884.442C885.609 997.95 886.576 997.833 887.342 997.6C888.109 997.367 888.492 996.883 888.492 996.15V978.95C888.492 978.217 888.192 977.717 887.592 977.45C887.026 977.15 886.126 976.9 884.892 976.7L884.342 976.6V974.5H892.942ZM925.114 996.15C925.114 996.883 925.497 997.367 926.264 997.6C927.03 997.833 928.014 997.95 929.214 997.95H929.264V1000H921.014V994.3H920.664V967.55C920.664 967.05 920.53 966.667 920.264 966.4C919.997 966.133 919.58 965.917 919.014 965.75C918.48 965.583 917.78 965.433 916.914 965.3L916.364 965.2V963.05H925.114V996.15ZM912.514 974C913.947 974 915.197 974.217 916.264 974.65C917.364 975.05 918.38 975.7 919.314 976.6C920.247 977.5 921.13 978.667 921.964 980.1L921.664 983.65C920.964 982.017 920.164 980.683 919.264 979.65C918.397 978.583 917.414 977.817 916.314 977.35C915.247 976.85 914.064 976.6 912.764 976.6C911.53 976.6 910.43 976.85 909.464 977.35C908.53 977.85 907.747 978.583 907.114 979.55C906.48 980.483 905.997 981.617 905.664 982.95C905.33 984.283 905.164 985.783 905.164 987.45C905.164 989.017 905.314 990.45 905.614 991.75C905.947 993.017 906.43 994.117 907.064 995.05C907.697 995.983 908.48 996.7 909.414 997.2C910.347 997.667 911.397 997.9 912.564 997.9C913.964 997.9 915.197 997.617 916.264 997.05C917.364 996.45 918.347 995.6 919.214 994.5C920.114 993.4 920.93 992.05 921.664 990.45L921.914 993.8C921.014 995.3 920.097 996.55 919.164 997.55C918.23 998.517 917.197 999.25 916.064 999.75C914.93 1000.25 913.63 1000.5 912.164 1000.5C909.864 1000.5 907.83 999.967 906.064 998.9C904.33 997.8 902.964 996.267 901.964 994.3C900.964 992.333 900.464 990.05 900.464 987.45C900.464 984.783 900.964 982.45 901.964 980.45C902.997 978.417 904.414 976.833 906.214 975.7C908.047 974.567 910.147 974 912.514 974ZM934.146 983.35H948.046V986.95H934.146V983.35ZM957.626 1002.3V978.95C957.626 978.45 957.476 978.067 957.176 977.8C956.876 977.5 956.442 977.267 955.876 977.1C955.309 976.933 954.559 976.8 953.626 976.7L952.926 976.6V974.5H962.076V1002.3C962.076 1004.17 961.809 1005.72 961.276 1006.95C960.742 1008.18 960.026 1009.15 959.126 1009.85C958.259 1010.58 957.276 1011.1 956.176 1011.4C955.076 1011.7 953.959 1011.85 952.826 1011.85C952.192 1011.85 951.576 1011.8 950.976 1011.7C950.342 1011.63 949.792 1011.52 949.326 1011.35V1008.5C949.792 1008.67 950.309 1008.8 950.876 1008.9C951.442 1009.03 952.059 1009.1 952.726 1009.1C953.726 1009.1 954.576 1008.88 955.276 1008.45C956.009 1008.05 956.576 1007.35 956.976 1006.35C957.409 1005.35 957.626 1004 957.626 1002.3ZM959.626 968.75C958.759 968.75 958.026 968.483 957.426 967.95C956.859 967.383 956.576 966.633 956.576 965.7C956.576 964.767 956.859 964.033 957.426 963.5C958.026 962.967 958.759 962.7 959.626 962.7C960.492 962.7 961.209 962.967 961.776 963.5C962.376 964.033 962.676 964.767 962.676 965.7C962.676 966.633 962.376 967.383 961.776 967.95C961.209 968.483 960.492 968.75 959.626 968.75ZM984.671 993.5C984.671 992.8 984.487 992.217 984.121 991.75C983.754 991.25 983.254 990.833 982.621 990.5C982.021 990.167 981.321 989.883 980.521 989.65C979.721 989.417 978.887 989.2 978.021 989C976.987 988.7 975.971 988.383 974.971 988.05C973.971 987.717 973.054 987.267 972.221 986.7C971.387 986.133 970.721 985.417 970.221 984.55C969.721 983.683 969.471 982.583 969.471 981.25C969.471 979.817 969.837 978.567 970.571 977.5C971.304 976.4 972.354 975.55 973.721 974.95C975.087 974.317 976.754 974 978.721 974C980.187 974 981.487 974.117 982.621 974.35C983.754 974.583 984.704 974.883 985.471 975.25C986.237 975.583 986.804 975.9 987.171 976.2V981.45H982.971V976.7C983.304 976.667 983.587 976.717 983.821 976.85C984.087 976.983 984.287 977.167 984.421 977.4C984.587 977.633 984.687 977.9 984.721 978.2C984.754 978.467 984.737 978.75 984.671 979.05C984.304 978.517 983.821 978.067 983.221 977.7C982.621 977.3 981.937 977.017 981.171 976.85C980.437 976.65 979.621 976.55 978.721 976.55C976.921 976.55 975.571 976.95 974.671 977.75C973.804 978.517 973.371 979.5 973.371 980.7C973.371 981.467 973.571 982.117 973.971 982.65C974.371 983.15 974.904 983.567 975.571 983.9C976.237 984.233 976.971 984.517 977.771 984.75C978.604 984.983 979.471 985.217 980.371 985.45C981.371 985.717 982.371 986.033 983.371 986.4C984.371 986.733 985.271 987.167 986.071 987.7C986.871 988.233 987.504 988.917 987.971 989.75C988.471 990.55 988.721 991.583 988.721 992.85C988.721 994.283 988.321 995.583 987.521 996.75C986.721 997.917 985.587 998.833 984.121 999.5C982.654 1000.17 980.887 1000.5 978.821 1000.5C977.187 1000.5 975.737 1000.37 974.471 1000.1C973.204 999.833 972.071 999.483 971.071 999.05C970.071 998.617 969.204 998.15 968.471 997.65V992.1H972.771V998.3C972.304 998.033 971.937 997.767 971.671 997.5C971.437 997.233 971.271 996.967 971.171 996.7C971.071 996.433 971.037 996.167 971.071 995.9C971.104 995.633 971.187 995.333 971.321 995C971.821 995.7 972.437 996.267 973.171 996.7C973.937 997.1 974.787 997.417 975.721 997.65C976.654 997.85 977.671 997.95 978.771 997.95C980.004 997.95 981.054 997.783 981.921 997.45C982.821 997.083 983.504 996.567 983.971 995.9C984.437 995.233 984.671 994.433 984.671 993.5Z" fill="white"/>
<defs>
<linearGradient id="paint0_linear_1_2" x1="205.917" y1="322.014" x2="386.46" y2="409.418" gradientUnits="userSpaceOnUse">
<stop offset="0.1" stop-color="#76B3E1"/>
<stop offset="0.3" stop-color="#DCF2FD"/>
<stop offset="1" stop-color="#76B3E1"/>
</linearGradient>
<linearGradient id="paint1_linear_1_2" x1="321.884" y1="368.49" x2="311.193" y2="403.96" gradientUnits="userSpaceOnUse">
<stop stop-color="#76B3E1"/>
<stop offset="0.5" stop-color="#4377BB"/>
<stop offset="1" stop-color="#1F3B77"/>
</linearGradient>
<linearGradient id="paint2_linear_1_2" x1="190.466" y1="428.014" x2="358.577" y2="541.879" gradientUnits="userSpaceOnUse">
<stop stop-color="#315AA9"/>
<stop offset="0.5" stop-color="#518AC8"/>
<stop offset="1" stop-color="#315AA9"/>
</linearGradient>
<linearGradient id="paint3_linear_1_2" x1="286.908" y1="469.972" x2="263.361" y2="555.999" gradientUnits="userSpaceOnUse">
<stop stop-color="#4377BB"/>
<stop offset="0.5" stop-color="#1A336B"/>
<stop offset="1" stop-color="#1A336B"/>
</linearGradient>
<clipPath id="clip0_1_2">
<rect width="270" height="253" fill="white" transform="translate(166 282)"/>
</clipPath>
</defs>
</svg>
