<svg width="1080" height="1080" viewBox="0 0 1080 1080" fill="none" xmlns="http://www.w3.org/2000/svg">
<rect width="1080" height="1080" fill="#1E1E1E"/>
<g clip-path="url(#clip0_0_1)">
<rect width="1080" height="1080" fill="#E77231"/>
<path d="M122.4 335C117.6 335 113.467 334.2 110 332.6C106.6 331 103.967 328.7 102.1 325.7C100.233 322.7 99.2667 319.133 99.2 315H108.2C108.2 318.667 109.433 321.567 111.9 323.7C114.433 325.833 117.933 326.9 122.4 326.9C126.6 326.9 129.867 325.867 132.2 323.8C134.6 321.733 135.8 318.867 135.8 315.2C135.8 312.267 135 309.7 133.4 307.5C131.867 305.3 129.633 303.767 126.7 302.9L116.8 299.8C111.8 298.267 107.933 295.7 105.2 292.1C102.533 288.5 101.2 284.267 101.2 279.4C101.2 275.467 102.067 272.067 103.8 269.2C105.6 266.267 108.1 264 111.3 262.4C114.5 260.733 118.267 259.9 122.6 259.9C129 259.9 134.133 261.7 138 265.3C141.867 268.833 143.833 273.567 143.9 279.5H134.9C134.9 275.9 133.8 273.1 131.6 271.1C129.467 269.033 126.433 268 122.5 268C118.633 268 115.6 268.933 113.4 270.8C111.267 272.667 110.2 275.267 110.2 278.6C110.2 281.6 111 284.2 112.6 286.4C114.2 288.6 116.5 290.167 119.5 291.1L129.5 294.3C134.367 295.833 138.133 298.433 140.8 302.1C143.467 305.767 144.8 310.067 144.8 315C144.8 319 143.867 322.5 142 325.5C140.133 328.5 137.5 330.833 134.1 332.5C130.767 334.167 126.867 335 122.4 335ZM175.761 334L156.961 261H166.261L178.661 310.6C179.528 314.067 180.261 317.3 180.861 320.3C181.461 323.233 181.894 325.467 182.161 327C182.428 325.467 182.828 323.233 183.361 320.3C183.961 317.3 184.694 314.067 185.561 310.6L197.861 261H206.961L188.061 334H175.761ZM221.922 334V261H263.922V269.2H230.822V291.8H260.422V299.9H230.822V325.8H263.922V334H221.922ZM283.383 334V261H292.383V325.8H325.383V334H283.383ZM357.344 334V269.1H337.344V260.9H386.344V269.1H366.344V334H357.344ZM401.805 334V261H443.805V269.2H410.705V291.8H440.305V299.9H410.705V325.8H443.805V334H401.805Z" fill="white"/>
<path d="M112.175 224V123.8H92.9V104H153.95V123.8H134.675V224H112.175ZM178.467 224V195.5V195.35L155.967 104H178.917L185.367 133.1L187.617 168.35H191.817L194.067 133.1L200.517 104H223.467L200.967 195.35V195.5V224H178.467ZM230.568 224V104H259.518C270.718 104 278.793 106.275 283.743 110.825C288.743 115.325 291.418 122.8 291.768 133.25C291.918 137.45 291.993 141.35 291.993 144.95C291.993 148.55 291.918 152.45 291.768 156.65C291.418 167.05 288.743 174.525 283.743 179.075C278.793 183.625 270.718 185.9 259.518 185.9H253.068V224H230.568ZM253.068 166.1H259.518C262.668 166.1 265.043 165.375 266.643 163.925C268.243 162.475 269.118 160.45 269.268 157.85C269.418 155.4 269.518 152.65 269.568 149.6C269.618 146.5 269.618 143.425 269.568 140.375C269.518 137.275 269.418 134.5 269.268 132.05C269.118 129.4 268.243 127.375 266.643 125.975C265.043 124.525 262.668 123.8 259.518 123.8H253.068V166.1ZM301.174 224V104H323.674V224H301.174ZM335.744 224V104H368.294L377.294 142.25L385.544 204.2H389.444L385.244 155.45L383.444 104H405.194V224H370.994L361.994 184.7L355.844 123.65H351.644L355.544 177.95L357.494 224H335.744ZM448.539 225.5C440.989 225.5 434.939 224.5 430.389 222.5C425.839 220.45 422.514 217.225 420.414 212.825C418.314 208.375 417.139 202.55 416.889 195.35C416.739 191.15 416.614 186.375 416.514 181.025C416.464 175.625 416.439 170.075 416.439 164.375C416.439 158.675 416.464 153.175 416.514 147.875C416.614 142.575 416.739 137.9 416.889 133.85C417.189 126.25 418.414 120.15 420.564 115.55C422.764 110.95 426.114 107.625 430.614 105.575C435.164 103.525 441.139 102.5 448.539 102.5C459.039 102.5 466.689 104.825 471.489 109.475C476.339 114.075 479.089 121.75 479.739 132.5C479.889 134.8 479.964 137.55 479.964 140.75C479.964 143.9 479.889 146.65 479.739 149H457.239C457.389 146.2 457.464 142.75 457.464 138.65C457.464 134.5 457.389 131.05 457.239 128.3C457.089 125.9 456.264 124.05 454.764 122.75C453.264 121.45 451.189 120.8 448.539 120.8C445.639 120.8 443.414 121.45 441.864 122.75C440.364 124.05 439.539 125.9 439.389 128.3C439.089 133.55 438.864 139.225 438.714 145.325C438.564 151.375 438.489 157.575 438.489 163.925C438.489 170.275 438.564 176.5 438.714 182.6C438.864 188.65 439.089 194.3 439.389 199.55C439.539 202 440.364 203.9 441.864 205.25C443.414 206.55 445.639 207.2 448.539 207.2C451.389 207.2 453.664 206.55 455.364 205.25C457.114 203.9 458.089 202 458.289 199.55C458.389 198.4 458.439 196.9 458.439 195.05C458.489 193.15 458.489 191.275 458.439 189.425C458.439 187.525 458.389 186 458.289 184.85H450.039V165.35H480.189C480.439 169.9 480.539 174.9 480.489 180.35C480.439 185.75 480.289 190.75 480.039 195.35C479.539 206.15 476.839 213.875 471.939 218.525C467.089 223.175 459.289 225.5 448.539 225.5Z" fill="white"/>
<path d="M129.125 489.5C117.825 489.5 109.775 487.175 104.975 482.525C100.225 477.875 97.725 470.15 97.475 459.35C97.425 455.2 97.375 450.4 97.325 444.95C97.275 439.5 97.25 433.85 97.25 428C97.25 422.1 97.275 416.425 97.325 410.975C97.375 405.475 97.425 400.6 97.475 396.35C97.625 387.2 100.175 379.95 105.125 374.6C110.125 369.2 118.125 366.5 129.125 366.5C139.925 366.5 147.75 368.825 152.6 373.475C157.45 378.075 160.025 385.75 160.325 396.5C160.375 398.15 160.4 399.95 160.4 401.9C160.4 403.8 160.375 405.725 160.325 407.675C160.275 409.575 160.225 411.35 160.175 413H137.675C137.725 411.15 137.775 408.975 137.825 406.475C137.875 403.925 137.9 401.4 137.9 398.9C137.9 396.35 137.875 394.15 137.825 392.3C137.775 389.9 136.975 388.05 135.425 386.75C133.925 385.45 131.825 384.8 129.125 384.8C126.275 384.8 124.05 385.45 122.45 386.75C120.9 388.05 120.075 389.9 119.975 392.3C119.775 397.55 119.625 403.225 119.525 409.325C119.475 415.425 119.45 421.65 119.45 428C119.45 434.35 119.475 440.575 119.525 446.675C119.625 452.725 119.775 458.35 119.975 463.55C120.075 466 120.9 467.9 122.45 469.25C124.05 470.55 126.275 471.2 129.125 471.2C132.075 471.2 134.35 470.55 135.95 469.25C137.55 467.9 138.375 466 138.425 463.55C138.475 461.75 138.5 459.6 138.5 457.1C138.55 454.55 138.55 452.025 138.5 449.525C138.5 446.975 138.475 444.8 138.425 443H160.925C161.025 445.4 161.075 448.125 161.075 451.175C161.075 454.225 161.025 456.95 160.925 459.35C160.625 470.15 158 477.875 153.05 482.525C148.15 487.175 140.175 489.5 129.125 489.5ZM202.735 489.5C191.735 489.5 183.76 487.175 178.81 482.525C173.91 477.875 171.335 470.15 171.085 459.35C170.985 454.45 170.91 449.35 170.86 444.05C170.81 438.75 170.785 433.375 170.785 427.925C170.785 422.475 170.81 417.1 170.86 411.8C170.91 406.5 170.985 401.4 171.085 396.5C171.335 385.75 173.91 378.075 178.81 373.475C183.76 368.825 191.735 366.5 202.735 366.5C213.785 366.5 221.71 368.825 226.51 373.475C231.31 378.075 233.885 385.75 234.235 396.5C234.435 401.5 234.585 406.65 234.685 411.95C234.785 417.25 234.835 422.625 234.835 428.075C234.835 433.475 234.785 438.825 234.685 444.125C234.585 449.375 234.435 454.45 234.235 459.35C233.885 470.15 231.31 477.875 226.51 482.525C221.71 487.175 213.785 489.5 202.735 489.5ZM202.735 471.2C205.685 471.2 207.91 470.55 209.41 469.25C210.91 467.9 211.685 466 211.735 463.55C211.985 458.45 212.16 452.85 212.26 446.75C212.36 440.65 212.41 434.375 212.41 427.925C212.41 421.475 212.36 415.2 212.26 409.1C212.16 403 211.985 397.4 211.735 392.3C211.685 389.9 210.885 388.05 209.335 386.75C207.785 385.45 205.585 384.8 202.735 384.8C199.885 384.8 197.66 385.45 196.06 386.75C194.51 388.05 193.685 389.9 193.585 392.3C193.385 397.4 193.21 403 193.06 409.1C192.96 415.2 192.91 421.475 192.91 427.925C192.91 434.375 192.96 440.65 193.06 446.75C193.21 452.85 193.385 458.45 193.585 463.55C193.685 466 194.51 467.9 196.06 469.25C197.66 470.55 199.885 471.2 202.735 471.2ZM245.949 488V368H282.099L291.999 413.45L293.949 468.2H297.849L299.649 413.45L309.699 368H345.699V488H323.199V451.1L327.549 387.8H323.499L317.199 452.6L307.899 488H283.749L274.599 452.6L268.149 387.8H264.249L268.449 451.1V488H245.949ZM357.717 488V368H386.667C397.867 368 405.942 370.275 410.892 374.825C415.892 379.325 418.567 386.8 418.917 397.25C419.067 401.45 419.142 405.35 419.142 408.95C419.142 412.55 419.067 416.45 418.917 420.65C418.567 431.05 415.892 438.525 410.892 443.075C405.942 447.625 397.867 449.9 386.667 449.9H380.217V488H357.717ZM380.217 430.1H386.667C389.817 430.1 392.192 429.375 393.792 427.925C395.392 426.475 396.267 424.45 396.417 421.85C396.567 419.4 396.667 416.65 396.717 413.6C396.767 410.5 396.767 407.425 396.717 404.375C396.667 401.275 396.567 398.5 396.417 396.05C396.267 393.4 395.392 391.375 393.792 389.975C392.192 388.525 389.817 387.8 386.667 387.8H380.217V430.1ZM459.522 489.5C448.522 489.5 440.547 487.175 435.597 482.525C430.697 477.875 428.122 470.15 427.872 459.35C427.772 454.45 427.697 449.35 427.647 444.05C427.597 438.75 427.572 433.375 427.572 427.925C427.572 422.475 427.597 417.1 427.647 411.8C427.697 406.5 427.772 401.4 427.872 396.5C428.122 385.75 430.697 378.075 435.597 373.475C440.547 368.825 448.522 366.5 459.522 366.5C470.572 366.5 478.497 368.825 483.297 373.475C488.097 378.075 490.672 385.75 491.022 396.5C491.222 401.5 491.372 406.65 491.472 411.95C491.572 417.25 491.622 422.625 491.622 428.075C491.622 433.475 491.572 438.825 491.472 444.125C491.372 449.375 491.222 454.45 491.022 459.35C490.672 470.15 488.097 477.875 483.297 482.525C478.497 487.175 470.572 489.5 459.522 489.5ZM459.522 471.2C462.472 471.2 464.697 470.55 466.197 469.25C467.697 467.9 468.472 466 468.522 463.55C468.772 458.45 468.947 452.85 469.047 446.75C469.147 440.65 469.197 434.375 469.197 427.925C469.197 421.475 469.147 415.2 469.047 409.1C468.947 403 468.772 397.4 468.522 392.3C468.472 389.9 467.672 388.05 466.122 386.75C464.572 385.45 462.372 384.8 459.522 384.8C456.672 384.8 454.447 385.45 452.847 386.75C451.297 388.05 450.472 389.9 450.372 392.3C450.172 397.4 449.997 403 449.847 409.1C449.747 415.2 449.697 421.475 449.697 427.925C449.697 434.375 449.747 440.65 449.847 446.75C449.997 452.85 450.172 458.45 450.372 463.55C450.472 466 451.297 467.9 452.847 469.25C454.447 470.55 456.672 471.2 459.522 471.2ZM502.736 488V368H535.286L544.286 406.25L552.536 468.2H556.436L552.236 419.45L550.436 368H572.186V488H537.986L528.986 448.7L522.836 387.65H518.636L522.536 441.95L524.486 488H502.736ZM584.182 488V368H636.082V387.8H606.682V417.05H634.582V436.85H606.682V468.2H636.082V488H584.182ZM645.412 488V368H677.962L686.962 406.25L695.212 468.2H699.112L694.912 419.45L693.112 368H714.862V488H680.662L671.662 448.7L665.512 387.65H661.312L665.212 441.95L667.162 488H645.412ZM741.032 488V387.8H721.757V368H782.807V387.8H763.532V488H741.032ZM819.324 489.5C808.324 489.5 800.474 487.175 795.774 482.525C791.124 477.875 788.574 470.15 788.124 459.35C788.074 457.75 788.049 456 788.049 454.1C788.049 452.15 788.099 450.225 788.199 448.325C788.299 446.375 788.474 444.6 788.724 443H809.874C809.674 446.65 809.549 450.25 809.499 453.8C809.449 457.35 809.574 460.6 809.874 463.55C810.124 466 810.999 467.9 812.499 469.25C814.049 470.55 816.324 471.2 819.324 471.2C822.274 471.2 824.424 470.55 825.774 469.25C827.174 467.9 828.024 466 828.324 463.55C828.524 461.85 828.649 460.175 828.699 458.525C828.799 456.825 828.799 455.15 828.699 453.5C828.649 451.8 828.524 450.1 828.324 448.4C828.124 446.3 827.474 444.4 826.374 442.7C825.274 441 823.524 439.85 821.124 439.25L808.824 436.1C803.624 434.75 799.499 432.825 796.449 430.325C793.399 427.775 791.174 424.625 789.774 420.875C788.424 417.125 787.674 412.75 787.524 407.75C787.474 405.55 787.449 403.6 787.449 401.9C787.449 400.15 787.474 398.35 787.524 396.5C787.824 389.35 789.024 383.575 791.124 379.175C793.274 374.775 796.624 371.575 801.174 369.575C805.724 367.525 811.774 366.5 819.324 366.5C829.974 366.5 837.699 368.825 842.499 373.475C847.299 378.075 849.924 385.75 850.374 396.5C850.474 398.65 850.474 401.275 850.374 404.375C850.324 407.475 850.224 410.35 850.074 413H828.474C828.624 409.55 828.724 406.1 828.774 402.65C828.824 399.2 828.774 395.75 828.624 392.3C828.574 389.9 827.699 388.05 825.999 386.75C824.349 385.45 822.124 384.8 819.324 384.8C816.324 384.8 814.099 385.45 812.649 386.75C811.199 388.05 810.324 389.9 810.024 392.3C809.724 394.85 809.574 397.425 809.574 400.025C809.574 402.625 809.724 405.2 810.024 407.75C810.274 409.75 810.974 411.575 812.124 413.225C813.274 414.875 815.124 416 817.674 416.6L828.324 419.15C833.924 420.5 838.324 422.5 841.524 425.15C844.774 427.75 847.099 431 848.499 434.9C849.949 438.75 850.774 443.25 850.974 448.4C851.024 449.55 851.049 450.75 851.049 452C851.049 453.25 851.024 454.5 850.974 455.75C850.924 457 850.874 458.2 850.824 459.35C850.374 470.15 847.774 477.875 843.024 482.525C838.324 487.175 830.424 489.5 819.324 489.5Z" fill="white"/>
<g style="mix-blend-mode:screen" opacity="0.1" clip-path="url(#clip1_0_1)">
<path d="M1010.86 453.35C889.897 280.229 651.005 228.918 478.28 338.962L174.925 532.309C133.945 558.09 98.7952 592.137 71.7222 632.275C44.6491 672.413 26.2487 717.758 17.697 765.412C3.22547 845.683 15.9437 928.488 53.8381 1000.72C27.8714 1040.11 10.161 1084.35 1.77733 1130.78C-6.86405 1179.39 -5.71114 1229.24 5.16843 1277.4C16.048 1325.57 36.4352 1371.07 65.1343 1411.25C186.116 1584.39 425.008 1635.68 597.712 1525.63L901.067 1332.3C942.05 1306.52 977.202 1272.47 1004.28 1232.33C1031.35 1192.19 1049.75 1146.84 1058.29 1099.19C1072.76 1018.92 1060.05 936.116 1022.18 863.88C1048.14 824.491 1065.84 780.247 1074.21 733.823C1082.86 685.209 1081.71 635.358 1070.83 587.195C1059.95 539.032 1039.56 493.527 1010.86 453.35" fill="#FF3E00"/>
<path d="M448.617 1427.72C350.804 1453.15 247.516 1414.87 189.909 1331.83C172.642 1307.66 160.375 1280.29 153.83 1251.31C147.284 1222.34 146.591 1192.35 151.791 1163.11C153.552 1153.51 155.975 1144.04 159.043 1134.77L164.759 1117.35L180.302 1128.77C216.206 1155.15 256.351 1175.2 299.006 1188.07L310.281 1191.49L309.243 1202.75C307.864 1218.76 312.199 1234.75 321.479 1247.87C329.943 1260.08 341.95 1269.4 355.88 1274.57C369.81 1279.74 384.99 1280.51 399.372 1276.78C405.968 1275.01 412.255 1272.25 418.014 1268.58L721.462 1075.21C728.887 1070.54 735.257 1064.37 740.166 1057.09C745.075 1049.82 748.415 1041.61 749.973 1032.97C751.531 1024.16 751.317 1015.12 749.345 1006.39C747.372 997.657 743.681 989.406 738.487 982.117C730.018 969.902 718.006 960.58 704.072 955.407C690.138 950.235 674.952 949.461 660.565 953.191C653.979 954.953 647.703 957.713 641.952 961.375L526.153 1035.19C507.113 1047.3 486.334 1056.42 464.537 1062.25C366.728 1087.68 263.436 1049.39 205.837 966.354C188.569 942.186 176.302 914.813 169.755 885.841C163.209 856.869 162.515 826.88 167.715 797.636C172.858 768.972 183.927 741.697 200.214 717.555C216.501 693.413 237.648 672.936 262.301 657.434L565.724 464.041C584.773 451.916 605.567 442.78 627.383 436.952C725.192 411.519 828.484 449.807 886.082 532.842C903.35 557.011 915.618 584.385 922.164 613.358C928.71 642.331 929.404 672.319 924.205 701.564C922.436 711.163 920.013 720.63 916.952 729.898L911.236 747.325L895.698 735.923C859.797 709.528 819.65 689.463 776.99 676.593L765.711 673.167L766.752 661.914C768.119 645.902 763.786 629.923 754.516 616.797C746.053 604.584 734.044 595.264 720.114 590.094C706.184 584.924 691.002 584.154 676.62 587.888C670.025 589.651 663.74 592.414 657.982 596.08L354.534 789.461C347.109 794.132 340.739 800.3 335.833 807.572C330.927 814.844 327.591 823.06 326.039 831.694C324.474 840.508 324.682 849.546 326.651 858.278C328.621 867.011 332.312 875.263 337.509 882.552C345.978 894.766 357.99 904.089 371.924 909.262C385.858 914.434 401.043 915.208 415.431 911.478C422.024 909.711 428.309 906.949 434.069 903.285L549.847 829.501C568.879 817.377 589.658 808.243 611.459 802.416C709.268 776.987 812.56 815.275 870.163 898.315C887.43 922.482 899.696 949.855 906.242 978.826C912.787 1007.8 913.481 1037.78 908.281 1067.03C903.135 1095.69 892.065 1122.97 875.778 1147.12C859.491 1171.26 838.346 1191.75 813.694 1207.26L510.272 1400.63C491.223 1412.76 470.428 1421.89 448.613 1427.72" fill="white"/>
</g>
</g>
<defs>
<clipPath id="clip0_0_1">
<rect width="1080" height="1080" fill="white"/>
</clipPath>
<clipPath id="clip1_0_1">
<rect width="1084" height="1304.05" fill="white" transform="translate(-4 281)"/>
</clipPath>
</defs>
</svg>
