<svg width="1080" height="1080" viewBox="0 0 1080 1080" fill="none" xmlns="http://www.w3.org/2000/svg">
<g clip-path="url(#clip0_1_3)">
<rect width="1080" height="1080" fill="#E77231"/>
<path d="M112.4 150C107.6 150 103.467 149.2 100 147.6C96.6 146 93.9667 143.7 92.1 140.7C90.2333 137.7 89.2667 134.133 89.2 130H98.2C98.2 133.667 99.4333 136.567 101.9 138.7C104.433 140.833 107.933 141.9 112.4 141.9C116.6 141.9 119.867 140.867 122.2 138.8C124.6 136.733 125.8 133.867 125.8 130.2C125.8 127.267 125 124.7 123.4 122.5C121.867 120.3 119.633 118.767 116.7 117.9L106.8 114.8C101.8 113.267 97.9333 110.7 95.2 107.1C92.5333 103.5 91.2 99.2667 91.2 94.4C91.2 90.4667 92.0667 87.0667 93.8 84.2C95.6 81.2667 98.1 79 101.3 77.4C104.5 75.7333 108.267 74.9 112.6 74.9C119 74.9 124.133 76.7 128 80.3C131.867 83.8333 133.833 88.5667 133.9 94.5H124.9C124.9 90.9 123.8 88.1 121.6 86.1C119.467 84.0333 116.433 83 112.5 83C108.633 83 105.6 83.9333 103.4 85.8C101.267 87.6667 100.2 90.2667 100.2 93.6C100.2 96.6 101 99.2 102.6 101.4C104.2 103.6 106.5 105.167 109.5 106.1L119.5 109.3C124.367 110.833 128.133 113.433 130.8 117.1C133.467 120.767 134.8 125.067 134.8 130C134.8 134 133.867 137.5 132 140.5C130.133 143.5 127.5 145.833 124.1 147.5C120.767 149.167 116.867 150 112.4 150ZM165.761 149L146.961 76H156.261L168.661 125.6C169.528 129.067 170.261 132.3 170.861 135.3C171.461 138.233 171.894 140.467 172.161 142C172.428 140.467 172.828 138.233 173.361 135.3C173.961 132.3 174.694 129.067 175.561 125.6L187.861 76H196.961L178.061 149H165.761ZM211.922 149V76H253.922V84.2H220.822V106.8H250.422V114.9H220.822V140.8H253.922V149H211.922ZM273.383 149V76H282.383V140.8H315.383V149H273.383ZM347.344 149V84.1H327.344V75.9H376.344V84.1H356.344V149H347.344ZM391.805 149V76H433.805V84.2H400.705V106.8H430.305V114.9H400.705V140.8H433.805V149H391.805Z" fill="white"/>
<path d="M143.875 380.5C125.042 380.5 111.625 376.625 103.625 368.875C95.7083 361.125 91.5417 348.25 91.125 330.25C91.0417 323.333 90.9583 315.333 90.875 306.25C90.7917 297.167 90.75 287.75 90.75 278C90.75 268.167 90.7917 258.708 90.875 249.625C90.9583 240.458 91.0417 232.333 91.125 225.25C91.375 210 95.625 197.917 103.875 189C112.208 180 125.542 175.5 143.875 175.5C161.875 175.5 174.917 179.375 183 187.125C191.083 194.792 195.375 207.583 195.875 225.5C195.958 228.25 196 231.25 196 234.5C196 237.667 195.958 240.875 195.875 244.125C195.792 247.292 195.708 250.25 195.625 253H158.125C158.208 249.917 158.292 246.292 158.375 242.125C158.458 237.875 158.5 233.667 158.5 229.5C158.5 225.25 158.458 221.583 158.375 218.5C158.292 214.5 156.958 211.417 154.375 209.25C151.875 207.083 148.375 206 143.875 206C139.125 206 135.417 207.083 132.75 209.25C130.167 211.417 128.792 214.5 128.625 218.5C128.292 227.25 128.042 236.708 127.875 246.875C127.792 257.042 127.75 267.417 127.75 278C127.75 288.583 127.792 298.958 127.875 309.125C128.042 319.208 128.292 328.583 128.625 337.25C128.792 341.333 130.167 344.5 132.75 346.75C135.417 348.917 139.125 350 143.875 350C148.792 350 152.583 348.917 155.25 346.75C157.917 344.5 159.292 341.333 159.375 337.25C159.458 334.25 159.5 330.667 159.5 326.5C159.583 322.25 159.583 318.042 159.5 313.875C159.5 309.625 159.458 306 159.375 303H196.875C197.042 307 197.125 311.542 197.125 316.625C197.125 321.708 197.042 326.25 196.875 330.25C196.375 348.25 192 361.125 183.75 368.875C175.583 376.625 162.292 380.5 143.875 380.5ZM265.559 380.5C246.809 380.5 233.392 376.625 225.309 368.875C217.225 361.125 213.059 348.25 212.809 330.25C212.475 305.083 212.309 279.708 212.309 254.125C212.309 228.458 212.475 203.083 212.809 178H250.309C249.975 194.75 249.767 212.208 249.684 230.375C249.684 248.542 249.725 266.708 249.809 284.875C249.975 303.042 250.142 320.5 250.309 337.25C250.309 341.333 251.642 344.5 254.309 346.75C256.975 348.917 260.725 350 265.559 350C270.475 350 274.184 348.917 276.684 346.75C279.267 344.5 280.559 341.333 280.559 337.25C280.725 320.5 280.85 303.042 280.934 284.875C281.1 266.708 281.142 248.542 281.059 230.375C281.059 212.208 280.892 194.75 280.559 178H318.059C318.475 203.083 318.684 228.458 318.684 254.125C318.684 279.708 318.475 305.083 318.059 330.25C317.809 348.25 313.642 361.125 305.559 368.875C297.559 376.625 284.225 380.5 265.559 380.5ZM385.76 380.5C367.426 380.5 354.343 376.625 346.51 368.875C338.76 361.125 334.51 348.25 333.76 330.25C333.676 327.583 333.635 324.667 333.635 321.5C333.635 318.25 333.718 315.042 333.885 311.875C334.051 308.625 334.343 305.667 334.76 303H370.01C369.676 309.083 369.468 315.083 369.385 321C369.301 326.917 369.51 332.333 370.01 337.25C370.426 341.333 371.885 344.5 374.385 346.75C376.968 348.917 380.76 350 385.76 350C390.676 350 394.26 348.917 396.51 346.75C398.843 344.5 400.26 341.333 400.76 337.25C401.093 334.417 401.301 331.625 401.385 328.875C401.551 326.042 401.551 323.25 401.385 320.5C401.301 317.667 401.093 314.833 400.76 312C400.426 308.5 399.343 305.333 397.51 302.5C395.676 299.667 392.76 297.75 388.76 296.75L368.26 291.5C359.593 289.25 352.718 286.042 347.635 281.875C342.551 277.625 338.843 272.375 336.51 266.125C334.26 259.875 333.01 252.583 332.76 244.25C332.676 240.583 332.635 237.333 332.635 234.5C332.635 231.583 332.676 228.583 332.76 225.5C333.26 213.583 335.26 203.958 338.76 196.625C342.343 189.292 347.926 183.958 355.51 180.625C363.093 177.208 373.176 175.5 385.76 175.5C403.51 175.5 416.385 179.375 424.385 187.125C432.385 194.792 436.76 207.583 437.51 225.5C437.676 229.083 437.676 233.458 437.51 238.625C437.426 243.792 437.26 248.583 437.01 253H401.01C401.26 247.25 401.426 241.5 401.51 235.75C401.593 230 401.51 224.25 401.26 218.5C401.176 214.5 399.718 211.417 396.885 209.25C394.135 207.083 390.426 206 385.76 206C380.76 206 377.051 207.083 374.635 209.25C372.218 211.417 370.76 214.5 370.26 218.5C369.76 222.75 369.51 227.042 369.51 231.375C369.51 235.708 369.76 240 370.26 244.25C370.676 247.583 371.843 250.625 373.76 253.375C375.676 256.125 378.76 258 383.01 259L400.76 263.25C410.093 265.5 417.426 268.833 422.76 273.25C428.176 277.583 432.051 283 434.385 289.5C436.801 295.917 438.176 303.417 438.51 312C438.593 313.917 438.635 315.917 438.635 318C438.635 320.083 438.593 322.167 438.51 324.25C438.426 326.333 438.343 328.333 438.26 330.25C437.51 348.25 433.176 361.125 425.26 368.875C417.426 376.625 404.26 380.5 385.76 380.5ZM478.418 378V211H446.293V178H548.043V211H515.918V378H478.418ZM608.844 380.5C590.51 380.5 577.219 376.625 568.969 368.875C560.802 361.125 556.51 348.25 556.094 330.25C555.927 322.083 555.802 313.583 555.719 304.75C555.635 295.917 555.594 286.958 555.594 277.875C555.594 268.792 555.635 259.833 555.719 251C555.802 242.167 555.927 233.667 556.094 225.5C556.51 207.583 560.802 194.792 568.969 187.125C577.219 179.375 590.51 175.5 608.844 175.5C627.26 175.5 640.469 179.375 648.469 187.125C656.469 194.792 660.76 207.583 661.344 225.5C661.677 233.833 661.927 242.417 662.094 251.25C662.26 260.083 662.344 269.042 662.344 278.125C662.344 287.125 662.26 296.042 662.094 304.875C661.927 313.625 661.677 322.083 661.344 330.25C660.76 348.25 656.469 361.125 648.469 368.875C640.469 376.625 627.26 380.5 608.844 380.5ZM608.844 350C613.76 350 617.469 348.917 619.969 346.75C622.469 344.5 623.76 341.333 623.844 337.25C624.26 328.75 624.552 319.417 624.719 309.25C624.885 299.083 624.969 288.625 624.969 277.875C624.969 267.125 624.885 256.667 624.719 246.5C624.552 236.333 624.26 227 623.844 218.5C623.76 214.5 622.427 211.417 619.844 209.25C617.26 207.083 613.594 206 608.844 206C604.094 206 600.385 207.083 597.719 209.25C595.135 211.417 593.76 214.5 593.594 218.5C593.26 227 592.969 236.333 592.719 246.5C592.552 256.667 592.469 267.125 592.469 277.875C592.469 288.625 592.552 299.083 592.719 309.25C592.969 319.417 593.26 328.75 593.594 337.25C593.76 341.333 595.135 344.5 597.719 346.75C600.385 348.917 604.094 350 608.844 350ZM680.867 378V178H741.117L757.617 253.75L760.867 345H767.367L770.367 253.75L787.117 178H847.117V378H809.617V316.5L816.867 211H810.117L799.617 319L784.117 378H743.867L728.617 319L717.867 211H711.367L718.367 316.5V378H680.867Z" fill="white"/>
<path d="M141.375 632.5C123.042 632.5 109.958 628.625 102.125 620.875C94.375 613.125 90.125 600.25 89.375 582.25C89.2917 579.583 89.25 576.667 89.25 573.5C89.25 570.25 89.3333 567.042 89.5 563.875C89.6667 560.625 89.9583 557.667 90.375 555H125.625C125.292 561.083 125.083 567.083 125 573C124.917 578.917 125.125 584.333 125.625 589.25C126.042 593.333 127.5 596.5 130 598.75C132.583 600.917 136.375 602 141.375 602C146.292 602 149.875 600.917 152.125 598.75C154.458 596.5 155.875 593.333 156.375 589.25C156.708 586.417 156.917 583.625 157 580.875C157.167 578.042 157.167 575.25 157 572.5C156.917 569.667 156.708 566.833 156.375 564C156.042 560.5 154.958 557.333 153.125 554.5C151.292 551.667 148.375 549.75 144.375 548.75L123.875 543.5C115.208 541.25 108.333 538.042 103.25 533.875C98.1667 529.625 94.4583 524.375 92.125 518.125C89.875 511.875 88.625 504.583 88.375 496.25C88.2917 492.583 88.25 489.333 88.25 486.5C88.25 483.583 88.2917 480.583 88.375 477.5C88.875 465.583 90.875 455.958 94.375 448.625C97.9583 441.292 103.542 435.958 111.125 432.625C118.708 429.208 128.792 427.5 141.375 427.5C159.125 427.5 172 431.375 180 439.125C188 446.792 192.375 459.583 193.125 477.5C193.292 481.083 193.292 485.458 193.125 490.625C193.042 495.792 192.875 500.583 192.625 505H156.625C156.875 499.25 157.042 493.5 157.125 487.75C157.208 482 157.125 476.25 156.875 470.5C156.792 466.5 155.333 463.417 152.5 461.25C149.75 459.083 146.042 458 141.375 458C136.375 458 132.667 459.083 130.25 461.25C127.833 463.417 126.375 466.5 125.875 470.5C125.375 474.75 125.125 479.042 125.125 483.375C125.125 487.708 125.375 492 125.875 496.25C126.292 499.583 127.458 502.625 129.375 505.375C131.292 508.125 134.375 510 138.625 511L156.375 515.25C165.708 517.5 173.042 520.833 178.375 525.25C183.792 529.583 187.667 535 190 541.5C192.417 547.917 193.792 555.417 194.125 564C194.208 565.917 194.25 567.917 194.25 570C194.25 572.083 194.208 574.167 194.125 576.25C194.042 578.333 193.958 580.333 193.875 582.25C193.125 600.25 188.792 613.125 180.875 620.875C173.042 628.625 159.875 632.5 141.375 632.5ZM234.033 630V463H201.908V430H303.658V463H271.533V630H234.033ZM364.459 632.5C346.126 632.5 332.834 628.625 324.584 620.875C316.417 613.125 312.126 600.25 311.709 582.25C311.542 574.083 311.417 565.583 311.334 556.75C311.251 547.917 311.209 538.958 311.209 529.875C311.209 520.792 311.251 511.833 311.334 503C311.417 494.167 311.542 485.667 311.709 477.5C312.126 459.583 316.417 446.792 324.584 439.125C332.834 431.375 346.126 427.5 364.459 427.5C382.876 427.5 396.084 431.375 404.084 439.125C412.084 446.792 416.376 459.583 416.959 477.5C417.292 485.833 417.542 494.417 417.709 503.25C417.876 512.083 417.959 521.042 417.959 530.125C417.959 539.125 417.876 548.042 417.709 556.875C417.542 565.625 417.292 574.083 416.959 582.25C416.376 600.25 412.084 613.125 404.084 620.875C396.084 628.625 382.876 632.5 364.459 632.5ZM364.459 602C369.376 602 373.084 600.917 375.584 598.75C378.084 596.5 379.376 593.333 379.459 589.25C379.876 580.75 380.167 571.417 380.334 561.25C380.501 551.083 380.584 540.625 380.584 529.875C380.584 519.125 380.501 508.667 380.334 498.5C380.167 488.333 379.876 479 379.459 470.5C379.376 466.5 378.042 463.417 375.459 461.25C372.876 459.083 369.209 458 364.459 458C359.709 458 356.001 459.083 353.334 461.25C350.751 463.417 349.376 466.5 349.209 470.5C348.876 479 348.584 488.333 348.334 498.5C348.167 508.667 348.084 519.125 348.084 529.875C348.084 540.625 348.167 551.083 348.334 561.25C348.584 571.417 348.876 580.75 349.209 589.25C349.376 593.333 350.751 596.5 353.334 598.75C356.001 600.917 359.709 602 364.459 602ZM436.482 630V430H484.732C503.399 430 516.857 433.792 525.107 441.375C533.441 448.875 537.899 461.333 538.482 478.75C538.649 483.417 538.732 487.5 538.732 491C538.816 494.5 538.816 498 538.732 501.5C538.732 505 538.649 509.083 538.482 513.75C538.149 524.583 536.316 533.458 532.982 540.375C529.732 547.292 524.649 552.583 517.732 556.25L541.232 630H501.482L482.482 562.5H473.982V630H436.482ZM473.982 529.5H484.732C489.982 529.5 493.941 528.292 496.607 525.875C499.274 523.458 500.732 520.083 500.982 515.75C501.232 511.667 501.399 507.417 501.482 503C501.566 498.5 501.566 494.042 501.482 489.625C501.399 485.125 501.232 480.833 500.982 476.75C500.732 472.333 499.274 468.958 496.607 466.625C493.941 464.208 489.982 463 484.732 463H473.982V529.5ZM555.623 630V430H642.123V463H593.123V511.75H639.623V544.75H593.123V597H642.123V630H555.623ZM707.049 632.5C688.715 632.5 675.632 628.625 667.799 620.875C660.049 613.125 655.799 600.25 655.049 582.25C654.965 579.583 654.924 576.667 654.924 573.5C654.924 570.25 655.007 567.042 655.174 563.875C655.34 560.625 655.632 557.667 656.049 555H691.299C690.965 561.083 690.757 567.083 690.674 573C690.59 578.917 690.799 584.333 691.299 589.25C691.715 593.333 693.174 596.5 695.674 598.75C698.257 600.917 702.049 602 707.049 602C711.965 602 715.549 600.917 717.799 598.75C720.132 596.5 721.549 593.333 722.049 589.25C722.382 586.417 722.59 583.625 722.674 580.875C722.841 578.042 722.841 575.25 722.674 572.5C722.59 569.667 722.382 566.833 722.049 564C721.715 560.5 720.632 557.333 718.799 554.5C716.965 551.667 714.049 549.75 710.049 548.75L689.549 543.5C680.882 541.25 674.007 538.042 668.924 533.875C663.84 529.625 660.132 524.375 657.799 518.125C655.549 511.875 654.299 504.583 654.049 496.25C653.965 492.583 653.924 489.333 653.924 486.5C653.924 483.583 653.965 480.583 654.049 477.5C654.549 465.583 656.549 455.958 660.049 448.625C663.632 441.292 669.215 435.958 676.799 432.625C684.382 429.208 694.465 427.5 707.049 427.5C724.799 427.5 737.674 431.375 745.674 439.125C753.674 446.792 758.049 459.583 758.799 477.5C758.965 481.083 758.965 485.458 758.799 490.625C758.716 495.792 758.549 500.583 758.299 505H722.299C722.549 499.25 722.715 493.5 722.799 487.75C722.882 482 722.799 476.25 722.549 470.5C722.466 466.5 721.007 463.417 718.174 461.25C715.424 459.083 711.715 458 707.049 458C702.049 458 698.34 459.083 695.924 461.25C693.507 463.417 692.049 466.5 691.549 470.5C691.049 474.75 690.799 479.042 690.799 483.375C690.799 487.708 691.049 492 691.549 496.25C691.965 499.583 693.132 502.625 695.049 505.375C696.965 508.125 700.049 510 704.299 511L722.049 515.25C731.382 517.5 738.715 520.833 744.049 525.25C749.465 529.583 753.34 535 755.674 541.5C758.091 547.917 759.466 555.417 759.799 564C759.882 565.917 759.924 567.917 759.924 570C759.924 572.083 759.882 574.167 759.799 576.25C759.715 578.333 759.632 580.333 759.549 582.25C758.799 600.25 754.465 613.125 746.549 620.875C738.715 628.625 725.549 632.5 707.049 632.5Z" fill="white"/>
<path d="M91.2 738V665H110.1C114.833 665 118.9 665.9 122.3 667.7C125.767 669.5 128.433 672.033 130.3 675.3C132.233 678.567 133.2 682.433 133.2 686.9V716C133.2 720.467 132.233 724.367 130.3 727.7C128.433 730.967 125.767 733.5 122.3 735.3C118.9 737.1 114.833 738 110.1 738H91.2ZM100.2 730H110.1C114.5 730 117.933 728.767 120.4 726.3C122.933 723.833 124.2 720.4 124.2 716V686.9C124.2 682.567 122.933 679.167 120.4 676.7C117.933 674.233 114.5 673 110.1 673H100.2V730ZM151.961 738V665H193.961V673.2H160.861V695.8H190.461V703.9H160.861V729.8H193.961V738H151.961ZM209.522 738V665H221.322L228.922 688.6C229.655 690.733 230.322 692.867 230.922 695C231.522 697.067 231.955 698.667 232.222 699.8C232.555 698.667 232.989 697.067 233.522 695C234.055 692.867 234.655 690.7 235.322 688.5L242.522 665H254.322V738H245.522V711.5C245.522 708.567 245.622 705.233 245.822 701.5C246.022 697.767 246.289 693.967 246.622 690.1C246.955 686.167 247.289 682.433 247.622 678.9C248.022 675.3 248.355 672.167 248.622 669.5L236.822 706H227.322L215.422 669.5C215.755 672.1 216.089 675.133 216.422 678.6C216.755 682 217.055 685.633 217.322 689.5C217.589 693.3 217.822 697.1 218.022 700.9C218.222 704.7 218.322 708.233 218.322 711.5V738H209.522ZM287.383 738V710.7L265.383 665H274.683L289.183 695C289.983 696.667 290.616 698.1 291.083 699.3C291.549 700.433 291.849 701.267 291.983 701.8C292.116 701.267 292.416 700.433 292.883 699.3C293.416 698.1 294.083 696.667 294.883 695L309.083 665H318.383L296.383 710.7V738H287.383ZM352.244 739C347.444 739 343.31 738.2 339.844 736.6C336.444 735 333.81 732.7 331.944 729.7C330.077 726.7 329.11 723.133 329.044 719H338.044C338.044 722.667 339.277 725.567 341.744 727.7C344.277 729.833 347.777 730.9 352.244 730.9C356.444 730.9 359.71 729.867 362.044 727.8C364.444 725.733 365.644 722.867 365.644 719.2C365.644 716.267 364.844 713.7 363.244 711.5C361.71 709.3 359.477 707.767 356.544 706.9L346.644 703.8C341.644 702.267 337.777 699.7 335.044 696.1C332.377 692.5 331.044 688.267 331.044 683.4C331.044 679.467 331.91 676.067 333.644 673.2C335.444 670.267 337.944 668 341.144 666.4C344.344 664.733 348.11 663.9 352.444 663.9C358.844 663.9 363.977 665.7 367.844 669.3C371.71 672.833 373.677 677.567 373.744 683.5H364.744C364.744 679.9 363.644 677.1 361.444 675.1C359.31 673.033 356.277 672 352.344 672C348.477 672 345.444 672.933 343.244 674.8C341.11 676.667 340.044 679.267 340.044 682.6C340.044 685.6 340.844 688.2 342.444 690.4C344.044 692.6 346.344 694.167 349.344 695.1L359.344 698.3C364.21 699.833 367.977 702.433 370.644 706.1C373.31 709.767 374.644 714.067 374.644 719C374.644 723 373.71 726.5 371.844 729.5C369.977 732.5 367.344 734.833 363.944 736.5C360.61 738.167 356.71 739 352.244 739ZM407.305 738V673.1H387.305V664.9H436.305V673.1H416.305V738H407.305ZM452.266 738V729.8H467.166V673.2H452.266V665H491.266V673.2H476.366V729.8H491.266V738H452.266ZM511.227 738V664.9H554.227V673.1H520.027V697.4H551.627V705.6H520.227V738H511.227ZM572.188 738V729.8H587.088V673.2H572.188V665H611.188V673.2H596.288V729.8H611.188V738H572.188ZM631.648 738V665H673.648V673.2H640.548V695.8H670.148V703.9H640.548V729.8H673.648V738H631.648ZM690.809 738V665H709.709C714.443 665 718.509 665.9 721.909 667.7C725.376 669.5 728.043 672.033 729.909 675.3C731.843 678.567 732.809 682.433 732.809 686.9V716C732.809 720.467 731.843 724.367 729.909 727.7C728.043 730.967 725.376 733.5 721.909 735.3C718.509 737.1 714.443 738 709.709 738H690.809ZM699.809 730H709.709C714.109 730 717.543 728.767 720.009 726.3C722.543 723.833 723.809 720.4 723.809 716V686.9C723.809 682.567 722.543 679.167 720.009 676.7C717.543 674.233 714.109 673 709.709 673H699.809V730Z" fill="white"/>
<g style="mix-blend-mode:screen" opacity="0.1" clip-path="url(#clip1_1_3)">
<path d="M1246.86 334.35C1125.9 161.229 887.004 109.918 714.28 219.962L410.925 413.309C369.945 439.09 334.795 473.137 307.722 513.275C280.649 553.413 262.249 598.758 253.697 646.412C239.225 726.683 251.944 809.488 289.838 881.716C263.871 921.106 246.161 965.351 237.777 1011.78C229.136 1060.39 230.289 1110.24 241.168 1158.4C252.048 1206.57 272.435 1252.07 301.134 1292.25C422.116 1465.39 661.008 1516.68 833.712 1406.63L1137.07 1213.3C1178.05 1187.52 1213.2 1153.47 1240.28 1113.33C1267.35 1073.19 1285.75 1027.84 1294.29 980.189C1308.76 899.919 1296.05 817.116 1258.18 744.88C1284.14 705.491 1301.84 661.247 1310.21 614.823C1318.86 566.209 1317.71 516.358 1306.83 468.195C1295.95 420.032 1275.56 374.527 1246.86 334.35" fill="#FF3E00"/>
<path d="M684.617 1308.72C586.804 1334.15 483.516 1295.87 425.909 1212.83C408.642 1188.66 396.375 1161.29 389.83 1132.31C383.284 1103.34 382.591 1073.35 387.791 1044.11C389.552 1034.51 391.975 1025.04 395.043 1015.77L400.759 998.348L416.302 1009.77C452.206 1036.15 492.351 1056.2 535.006 1069.07L546.281 1072.49L545.243 1083.75C543.864 1099.76 548.199 1115.75 557.479 1128.87C565.943 1141.08 577.95 1150.4 591.88 1155.57C605.81 1160.74 620.99 1161.51 635.372 1157.78C641.968 1156.01 648.255 1153.25 654.014 1149.58L957.462 956.212C964.887 951.537 971.257 945.367 976.166 938.094C981.075 930.821 984.415 922.605 985.973 913.971C987.531 905.156 987.317 896.12 985.345 887.388C983.372 878.657 979.681 870.406 974.487 863.117C966.018 850.902 954.006 841.58 940.072 836.407C926.138 831.234 910.952 830.461 896.565 834.191C889.979 835.953 883.702 838.713 877.952 842.375L762.153 916.189C743.113 928.295 722.334 937.42 700.537 943.248C602.728 968.681 499.436 930.394 441.837 847.354C424.569 823.186 412.302 795.813 405.755 766.841C399.209 737.869 398.515 707.88 403.715 678.636C408.858 649.972 419.927 622.697 436.214 598.555C452.501 574.413 473.648 553.936 498.301 538.434L801.724 345.041C820.773 332.916 841.567 323.78 863.383 317.952C961.192 292.519 1064.48 330.807 1122.08 413.842C1139.35 438.011 1151.62 465.385 1158.16 494.358C1164.71 523.331 1165.4 553.319 1160.21 582.564C1158.44 592.163 1156.01 601.63 1152.95 610.898L1147.24 628.325L1131.7 616.923C1095.8 590.528 1055.65 570.463 1012.99 557.593L1001.71 554.167L1002.75 542.914C1004.12 526.902 999.786 510.923 990.516 497.797C982.052 485.584 970.044 476.264 956.114 471.094C942.184 465.924 927.002 465.154 912.62 468.888C906.025 470.651 899.74 473.414 893.982 477.08L590.534 670.461C583.109 675.132 576.739 681.3 571.833 688.572C566.927 695.844 563.591 704.06 562.039 712.694C560.474 721.508 560.682 730.546 562.651 739.278C564.621 748.011 568.312 756.263 573.509 763.552C581.978 775.766 593.99 785.089 607.924 790.262C621.858 795.434 637.043 796.208 651.431 792.478C658.024 790.711 664.309 787.949 670.069 784.285L785.847 710.501C804.879 698.377 825.658 689.243 847.459 683.416C945.268 657.987 1048.56 696.275 1106.16 779.315C1123.43 803.482 1135.7 830.854 1142.24 859.826C1148.79 888.798 1149.48 918.785 1144.28 948.028C1139.14 976.695 1128.06 1003.97 1111.78 1028.12C1095.49 1052.26 1074.35 1072.75 1049.69 1088.26L746.272 1281.63C727.223 1293.76 706.428 1302.89 684.613 1308.72" fill="white"/>
</g>
</g>
<defs>
<clipPath id="clip0_1_3">
<rect width="1080" height="1080" fill="white"/>
</clipPath>
<clipPath id="clip1_1_3">
<rect width="1084" height="1304.05" fill="white" transform="translate(232 162)"/>
</clipPath>
</defs>
</svg>
