<svg width="1080" height="1080" viewBox="0 0 1080 1080" fill="none" xmlns="http://www.w3.org/2000/svg">
<g clip-path="url(#clip0_1_3)">
<rect width="1080" height="1080" fill="#E77231"/>
<path d="M114.4 383C109.6 383 105.467 382.2 102 380.6C98.6 379 95.9667 376.7 94.1 373.7C92.2333 370.7 91.2667 367.133 91.2 363H100.2C100.2 366.667 101.433 369.567 103.9 371.7C106.433 373.833 109.933 374.9 114.4 374.9C118.6 374.9 121.867 373.867 124.2 371.8C126.6 369.733 127.8 366.867 127.8 363.2C127.8 360.267 127 357.7 125.4 355.5C123.867 353.3 121.633 351.767 118.7 350.9L108.8 347.8C103.8 346.267 99.9333 343.7 97.2 340.1C94.5333 336.5 93.2 332.267 93.2 327.4C93.2 323.467 94.0667 320.067 95.8 317.2C97.6 314.267 100.1 312 103.3 310.4C106.5 308.733 110.267 307.9 114.6 307.9C121 307.9 126.133 309.7 130 313.3C133.867 316.833 135.833 321.567 135.9 327.5H126.9C126.9 323.9 125.8 321.1 123.6 319.1C121.467 317.033 118.433 316 114.5 316C110.633 316 107.6 316.933 105.4 318.8C103.267 320.667 102.2 323.267 102.2 326.6C102.2 329.6 103 332.2 104.6 334.4C106.2 336.6 108.5 338.167 111.5 339.1L121.5 342.3C126.367 343.833 130.133 346.433 132.8 350.1C135.467 353.767 136.8 358.067 136.8 363C136.8 367 135.867 370.5 134 373.5C132.133 376.5 129.5 378.833 126.1 380.5C122.767 382.167 118.867 383 114.4 383ZM167.761 382L148.961 309H158.261L170.661 358.6C171.528 362.067 172.261 365.3 172.861 368.3C173.461 371.233 173.894 373.467 174.161 375C174.428 373.467 174.828 371.233 175.361 368.3C175.961 365.3 176.694 362.067 177.561 358.6L189.861 309H198.961L180.061 382H167.761ZM213.922 382V309H255.922V317.2H222.822V339.8H252.422V347.9H222.822V373.8H255.922V382H213.922ZM275.383 382V309H284.383V373.8H317.383V382H275.383ZM349.344 382V317.1H329.344V308.9H378.344V317.1H358.344V382H349.344ZM393.805 382V309H435.805V317.2H402.705V339.8H432.305V347.9H402.705V373.8H435.805V382H393.805ZM534.127 383C529.727 383 525.893 382.167 522.627 380.5C519.427 378.833 516.927 376.433 515.127 373.3C513.393 370.1 512.527 366.333 512.527 362V329C512.527 324.6 513.393 320.833 515.127 317.7C516.927 314.567 519.427 312.167 522.627 310.5C525.893 308.833 529.727 308 534.127 308C538.527 308 542.327 308.867 545.527 310.6C548.727 312.267 551.193 314.667 552.927 317.8C554.66 320.933 555.527 324.667 555.527 329H546.527C546.527 324.867 545.427 321.7 543.227 319.5C541.093 317.233 538.06 316.1 534.127 316.1C530.193 316.1 527.093 317.2 524.827 319.4C522.627 321.6 521.527 324.767 521.527 328.9V362C521.527 366.133 522.627 369.333 524.827 371.6C527.093 373.8 530.193 374.9 534.127 374.9C538.06 374.9 541.093 373.8 543.227 371.6C545.427 369.333 546.527 366.133 546.527 362H555.527C555.527 366.267 554.66 370 552.927 373.2C551.193 376.333 548.727 378.767 545.527 380.5C542.327 382.167 538.527 383 534.127 383ZM593.688 383C586.888 383 581.688 381.133 578.088 377.4C574.488 373.6 572.688 368.467 572.688 362V309H581.688V362C581.688 366 582.654 369.167 584.588 371.5C586.588 373.833 589.621 375 593.688 375C597.688 375 600.688 373.833 602.688 371.5C604.688 369.167 605.688 366 605.688 362V309H614.688V362C614.688 368.533 612.888 373.667 609.288 377.4C605.754 381.133 600.554 383 593.688 383ZM654.048 383C649.248 383 645.115 382.2 641.648 380.6C638.248 379 635.615 376.7 633.748 373.7C631.882 370.7 630.915 367.133 630.848 363H639.848C639.848 366.667 641.082 369.567 643.548 371.7C646.082 373.833 649.582 374.9 654.048 374.9C658.248 374.9 661.515 373.867 663.848 371.8C666.248 369.733 667.448 366.867 667.448 363.2C667.448 360.267 666.648 357.7 665.048 355.5C663.515 353.3 661.282 351.767 658.348 350.9L648.448 347.8C643.448 346.267 639.582 343.7 636.848 340.1C634.182 336.5 632.848 332.267 632.848 327.4C632.848 323.467 633.715 320.067 635.448 317.2C637.248 314.267 639.748 312 642.948 310.4C646.148 308.733 649.915 307.9 654.248 307.9C660.648 307.9 665.782 309.7 669.648 313.3C673.515 316.833 675.482 321.567 675.548 327.5H666.548C666.548 323.9 665.448 321.1 663.248 319.1C661.115 317.033 658.082 316 654.148 316C650.282 316 647.248 316.933 645.048 318.8C642.915 320.667 641.848 323.267 641.848 326.6C641.848 329.6 642.648 332.2 644.248 334.4C645.848 336.6 648.148 338.167 651.148 339.1L661.148 342.3C666.015 343.833 669.782 346.433 672.448 350.1C675.115 353.767 676.448 358.067 676.448 363C676.448 367 675.515 370.5 673.648 373.5C671.782 376.5 669.148 378.833 665.748 380.5C662.415 382.167 658.515 383 654.048 383ZM709.109 382V317.1H689.109V308.9H738.109V317.1H718.109V382H709.109ZM773.57 383C769.17 383 765.37 382.167 762.17 380.5C759.037 378.833 756.604 376.433 754.87 373.3C753.204 370.1 752.37 366.333 752.37 362V329C752.37 324.6 753.204 320.833 754.87 317.7C756.604 314.567 759.037 312.167 762.17 310.5C765.37 308.833 769.17 308 773.57 308C777.97 308 781.737 308.833 784.87 310.5C788.07 312.167 790.504 314.567 792.17 317.7C793.904 320.833 794.77 324.567 794.77 328.9V362C794.77 366.333 793.904 370.1 792.17 373.3C790.504 376.433 788.07 378.833 784.87 380.5C781.737 382.167 777.97 383 773.57 383ZM773.57 374.9C777.504 374.9 780.504 373.8 782.57 371.6C784.704 369.333 785.77 366.133 785.77 362V329C785.77 324.867 784.704 321.7 782.57 319.5C780.504 317.233 777.504 316.1 773.57 316.1C769.704 316.1 766.704 317.233 764.57 319.5C762.437 321.7 761.37 324.867 761.37 329V362C761.37 366.133 762.437 369.333 764.57 371.6C766.704 373.8 769.704 374.9 773.57 374.9ZM811.131 382V309H822.931L830.531 332.6C831.265 334.733 831.931 336.867 832.531 339C833.131 341.067 833.565 342.667 833.831 343.8C834.165 342.667 834.598 341.067 835.131 339C835.665 336.867 836.265 334.7 836.931 332.5L844.131 309H855.931V382H847.131V355.5C847.131 352.567 847.231 349.233 847.431 345.5C847.631 341.767 847.898 337.967 848.231 334.1C848.565 330.167 848.898 326.433 849.231 322.9C849.631 319.3 849.965 316.167 850.231 313.5L838.431 350H828.931L817.031 313.5C817.365 316.1 817.698 319.133 818.031 322.6C818.365 326 818.665 329.633 818.931 333.5C819.198 337.3 819.431 341.1 819.631 344.9C819.831 348.7 819.931 352.233 819.931 355.5V382H811.131Z" fill="white"/>
<path d="M94 611V411H142.25C160.917 411 174.375 414.792 182.625 422.375C190.958 429.875 195.417 442.333 196 459.75C196.25 466.75 196.375 473.25 196.375 479.25C196.375 485.25 196.25 491.75 196 498.75C195.417 516.083 190.958 528.542 182.625 536.125C174.375 543.708 160.917 547.5 142.25 547.5H131.5V611H94ZM131.5 514.5H142.25C147.5 514.5 151.458 513.292 154.125 510.875C156.792 508.458 158.25 505.083 158.5 500.75C158.75 496.667 158.917 492.083 159 487C159.083 481.833 159.083 476.708 159 471.625C158.917 466.458 158.75 461.833 158.5 457.75C158.25 453.333 156.792 449.958 154.125 447.625C151.458 445.208 147.5 444 142.25 444H131.5V514.5ZM262.676 613.5C243.926 613.5 230.509 609.625 222.426 601.875C214.342 594.125 210.176 581.25 209.926 563.25C209.592 538.083 209.426 512.708 209.426 487.125C209.426 461.458 209.592 436.083 209.926 411H247.426C247.092 427.75 246.884 445.208 246.801 463.375C246.801 481.542 246.842 499.708 246.926 517.875C247.092 536.042 247.259 553.5 247.426 570.25C247.426 574.333 248.759 577.5 251.426 579.75C254.092 581.917 257.842 583 262.676 583C267.592 583 271.301 581.917 273.801 579.75C276.384 577.5 277.676 574.333 277.676 570.25C277.842 553.5 277.967 536.042 278.051 517.875C278.217 499.708 278.259 481.542 278.176 463.375C278.176 445.208 278.009 427.75 277.676 411H315.176C315.592 436.083 315.801 461.458 315.801 487.125C315.801 512.708 315.592 538.083 315.176 563.25C314.926 581.25 310.759 594.125 302.676 601.875C294.676 609.625 281.342 613.5 262.676 613.5ZM333.502 611V411H371.002V578H420.252V611H333.502ZM434.088 611V411H471.588V578H520.838V611H434.088ZM610.789 611V444H578.664V411H680.414V444H648.289V611H610.789ZM741.215 613.5C722.882 613.5 709.59 609.625 701.34 601.875C693.173 594.125 688.882 581.25 688.465 563.25C688.298 555.083 688.173 546.583 688.09 537.75C688.007 528.917 687.965 519.958 687.965 510.875C687.965 501.792 688.007 492.833 688.09 484C688.173 475.167 688.298 466.667 688.465 458.5C688.882 440.583 693.173 427.792 701.34 420.125C709.59 412.375 722.882 408.5 741.215 408.5C759.632 408.5 772.84 412.375 780.84 420.125C788.84 427.792 793.132 440.583 793.715 458.5C794.048 466.833 794.298 475.417 794.465 484.25C794.632 493.083 794.715 502.042 794.715 511.125C794.715 520.125 794.632 529.042 794.465 537.875C794.298 546.625 794.048 555.083 793.715 563.25C793.132 581.25 788.84 594.125 780.84 601.875C772.84 609.625 759.632 613.5 741.215 613.5ZM741.215 583C746.132 583 749.84 581.917 752.34 579.75C754.84 577.5 756.132 574.333 756.215 570.25C756.632 561.75 756.923 552.417 757.09 542.25C757.257 532.083 757.34 521.625 757.34 510.875C757.34 500.125 757.257 489.667 757.09 479.5C756.923 469.333 756.632 460 756.215 451.5C756.132 447.5 754.798 444.417 752.215 442.25C749.632 440.083 745.965 439 741.215 439C736.465 439 732.757 440.083 730.09 442.25C727.507 444.417 726.132 447.5 725.965 451.5C725.632 460 725.34 469.333 725.09 479.5C724.923 489.667 724.84 500.125 724.84 510.875C724.84 521.625 724.923 532.083 725.09 542.25C725.34 552.417 725.632 561.75 725.965 570.25C726.132 574.333 727.507 577.5 730.09 579.75C732.757 581.917 736.465 583 741.215 583Z" fill="white"/>
<path d="M94 863V663H142.25C160.917 663 174.375 666.792 182.625 674.375C190.958 681.875 195.417 694.333 196 711.75C196.167 716.417 196.25 720.5 196.25 724C196.333 727.5 196.333 731 196.25 734.5C196.25 738 196.167 742.083 196 746.75C195.667 757.583 193.833 766.458 190.5 773.375C187.25 780.292 182.167 785.583 175.25 789.25L198.75 863H159L140 795.5H131.5V863H94ZM131.5 762.5H142.25C147.5 762.5 151.458 761.292 154.125 758.875C156.792 756.458 158.25 753.083 158.5 748.75C158.75 744.667 158.917 740.417 159 736C159.083 731.5 159.083 727.042 159 722.625C158.917 718.125 158.75 713.833 158.5 709.75C158.25 705.333 156.792 701.958 154.125 699.625C151.458 697.208 147.5 696 142.25 696H131.5V762.5ZM213.141 863V663H299.641V696H250.641V744.75H297.141V777.75H250.641V830H299.641V863H213.141ZM315.191 863V663H401.691V696H352.691V744.75H399.191V777.75H352.691V863H315.191ZM416.754 863V663H465.004C483.671 663 497.129 666.792 505.379 674.375C513.712 681.875 518.171 694.333 518.754 711.75C518.921 716.417 519.004 720.5 519.004 724C519.087 727.5 519.087 731 519.004 734.5C519.004 738 518.921 742.083 518.754 746.75C518.421 757.583 516.587 766.458 513.254 773.375C510.004 780.292 504.921 785.583 498.004 789.25L521.504 863H481.754L462.754 795.5H454.254V863H416.754ZM454.254 762.5H465.004C470.254 762.5 474.212 761.292 476.879 758.875C479.546 756.458 481.004 753.083 481.254 748.75C481.504 744.667 481.671 740.417 481.754 736C481.837 731.5 481.837 727.042 481.754 722.625C481.671 718.125 481.504 713.833 481.254 709.75C481.004 705.333 479.546 701.958 476.879 699.625C474.212 697.208 470.254 696 465.004 696H454.254V762.5ZM535.895 863V663H622.395V696H573.395V744.75H619.895V777.75H573.395V830H622.395V863H535.895ZM687.32 865.5C668.987 865.5 655.904 861.625 648.07 853.875C640.32 846.125 636.07 833.25 635.32 815.25C635.237 812.583 635.195 809.667 635.195 806.5C635.195 803.25 635.279 800.042 635.445 796.875C635.612 793.625 635.904 790.667 636.32 788H671.57C671.237 794.083 671.029 800.083 670.945 806C670.862 811.917 671.07 817.333 671.57 822.25C671.987 826.333 673.445 829.5 675.945 831.75C678.529 833.917 682.32 835 687.32 835C692.237 835 695.82 833.917 698.07 831.75C700.404 829.5 701.82 826.333 702.32 822.25C702.654 819.417 702.862 816.625 702.945 813.875C703.112 811.042 703.112 808.25 702.945 805.5C702.862 802.667 702.654 799.833 702.32 797C701.987 793.5 700.904 790.333 699.07 787.5C697.237 784.667 694.32 782.75 690.32 781.75L669.82 776.5C661.154 774.25 654.279 771.042 649.195 766.875C644.112 762.625 640.404 757.375 638.07 751.125C635.82 744.875 634.57 737.583 634.32 729.25C634.237 725.583 634.195 722.333 634.195 719.5C634.195 716.583 634.237 713.583 634.32 710.5C634.82 698.583 636.82 688.958 640.32 681.625C643.904 674.292 649.487 668.958 657.07 665.625C664.654 662.208 674.737 660.5 687.32 660.5C705.07 660.5 717.945 664.375 725.945 672.125C733.945 679.792 738.32 692.583 739.07 710.5C739.237 714.083 739.237 718.458 739.07 723.625C738.987 728.792 738.82 733.583 738.57 738H702.57C702.82 732.25 702.987 726.5 703.07 720.75C703.154 715 703.07 709.25 702.82 703.5C702.737 699.5 701.279 696.417 698.445 694.25C695.695 692.083 691.987 691 687.32 691C682.32 691 678.612 692.083 676.195 694.25C673.779 696.417 672.32 699.5 671.82 703.5C671.32 707.75 671.07 712.042 671.07 716.375C671.07 720.708 671.32 725 671.82 729.25C672.237 732.583 673.404 735.625 675.32 738.375C677.237 741.125 680.32 743 684.57 744L702.32 748.25C711.654 750.5 718.987 753.833 724.32 758.25C729.737 762.583 733.612 768 735.945 774.5C738.362 780.917 739.737 788.417 740.07 797C740.154 798.917 740.195 800.917 740.195 803C740.195 805.083 740.154 807.167 740.07 809.25C739.987 811.333 739.904 813.333 739.82 815.25C739.07 833.25 734.737 846.125 726.82 853.875C718.987 861.625 705.82 865.5 687.32 865.5ZM756.354 863V663H793.854V744.75H820.104V663H857.604V863H820.104V777.75H793.854V863H756.354Z" fill="white"/>
<g style="mix-blend-mode:screen" opacity="0.1" clip-path="url(#clip1_1_3)">
<path d="M1290.86 -266.65C1169.9 -439.771 931.004 -491.082 758.28 -381.038L454.925 -187.691C413.945 -161.91 378.795 -127.863 351.722 -87.7246C324.649 -47.5867 306.249 -2.24167 297.697 45.4119C283.225 125.683 295.944 208.488 333.838 280.716C307.871 320.106 290.161 364.351 281.777 410.778C273.136 459.392 274.289 509.242 285.168 557.404C296.048 605.567 316.435 651.072 345.134 691.251C466.116 864.388 705.008 915.678 877.712 805.634L1181.07 612.296C1222.05 586.518 1257.2 552.471 1284.28 512.331C1311.35 472.192 1329.75 426.845 1338.29 379.189C1352.76 298.919 1340.05 216.116 1302.18 143.88C1328.14 104.491 1345.84 60.2469 1354.21 13.8225C1362.86 -34.7908 1361.71 -84.6417 1350.83 -132.805C1339.95 -180.968 1319.56 -226.473 1290.86 -266.65" fill="#FF3E00"/>
<path d="M728.617 707.721C630.804 733.154 527.516 694.866 469.909 611.831C452.642 587.662 440.375 560.288 433.83 531.315C427.284 502.342 426.591 472.353 431.791 443.109C433.552 433.507 435.975 424.038 439.043 414.771L444.759 397.348L460.302 408.767C496.206 435.147 536.351 455.203 579.006 468.072L590.281 471.493L589.243 482.751C587.864 498.763 592.199 514.746 601.479 527.868C609.943 540.079 621.95 549.4 635.88 554.569C649.81 559.739 664.99 560.51 679.372 556.777C685.968 555.014 692.255 552.251 698.014 548.584L1001.46 355.212C1008.89 350.537 1015.26 344.367 1020.17 337.094C1025.07 329.821 1028.41 321.605 1029.97 312.971C1031.53 304.156 1031.32 295.12 1029.34 286.388C1027.37 277.657 1023.68 269.406 1018.49 262.117C1010.02 249.902 998.006 240.58 984.072 235.407C970.138 230.234 954.952 229.461 940.565 233.191C933.979 234.953 927.702 237.713 921.952 241.375L806.153 315.189C787.113 327.295 766.334 336.42 744.537 342.248C646.728 367.681 543.436 329.394 485.837 246.354C468.569 222.186 456.302 194.813 449.755 165.841C443.209 136.869 442.515 106.88 447.715 77.6363C452.858 48.9719 463.927 21.6965 480.214 -2.44531C496.501 -26.5871 517.648 -47.0639 542.301 -62.5659L845.724 -255.959C864.773 -268.084 885.567 -277.22 907.383 -283.048C1005.19 -308.481 1108.48 -270.193 1166.08 -187.158C1183.35 -162.989 1195.62 -135.615 1202.16 -106.642C1208.71 -77.6693 1209.4 -47.6806 1204.21 -18.4358C1202.44 -8.83698 1200.01 0.629608 1196.95 9.89767L1191.24 27.3245L1175.7 15.9225C1139.8 -10.472 1099.65 -30.5374 1056.99 -43.4074L1045.71 -46.8327L1046.75 -58.0864C1048.12 -74.0975 1043.79 -90.0768 1034.52 -103.203C1026.05 -115.416 1014.04 -124.736 1000.11 -129.906C986.184 -135.076 971.002 -135.846 956.62 -132.112C950.025 -130.349 943.74 -127.586 937.982 -123.92L634.534 69.4605C627.109 74.1318 620.739 80.3004 615.833 87.5724C610.927 94.8445 607.591 103.06 606.039 111.694C604.474 120.508 604.682 129.546 606.651 138.278C608.621 147.011 612.312 155.263 617.509 162.552C625.978 174.766 637.99 184.089 651.924 189.262C665.858 194.434 681.043 195.208 695.431 191.478C702.024 189.711 708.309 186.949 714.069 183.285L829.847 109.501C848.879 97.3771 869.658 88.2429 891.459 82.4164C989.268 56.9874 1092.56 95.2748 1150.16 178.315C1167.43 202.482 1179.7 229.854 1186.24 258.826C1192.79 287.798 1193.48 317.785 1188.28 347.028C1183.14 375.695 1172.06 402.973 1155.78 427.118C1139.49 451.264 1118.35 471.746 1093.69 487.256L790.272 680.632C771.223 692.757 750.428 701.893 728.613 707.721" fill="white"/>
</g>
</g>
<defs>
<clipPath id="clip0_1_3">
<rect width="1080" height="1080" fill="white"/>
</clipPath>
<clipPath id="clip1_1_3">
<rect width="1084" height="1304.05" fill="white" transform="translate(276 -439)"/>
</clipPath>
</defs>
</svg>
