<svg width="1080" height="1080" viewBox="0 0 1080 1080" fill="none" xmlns="http://www.w3.org/2000/svg">
<g clip-path="url(#clip0_1_3)">
<rect width="1080" height="1080" fill="#E77231"/>
<path d="M87.4 529C82.6 529 78.4667 528.2 75 526.6C71.6 525 68.9667 522.7 67.1 519.7C65.2333 516.7 64.2667 513.133 64.2 509H73.2C73.2 512.667 74.4333 515.567 76.9 517.7C79.4333 519.833 82.9333 520.9 87.4 520.9C91.6 520.9 94.8667 519.867 97.2 517.8C99.6 515.733 100.8 512.867 100.8 509.2C100.8 506.267 100 503.7 98.4 501.5C96.8667 499.3 94.6333 497.767 91.7 496.9L81.8 493.8C76.8 492.267 72.9333 489.7 70.2 486.1C67.5333 482.5 66.2 478.267 66.2 473.4C66.2 469.467 67.0667 466.067 68.8 463.2C70.6 460.267 73.1 458 76.3 456.4C79.5 454.733 83.2667 453.9 87.6 453.9C94 453.9 99.1333 455.7 103 459.3C106.867 462.833 108.833 467.567 108.9 473.5H99.9C99.9 469.9 98.8 467.1 96.6 465.1C94.4667 463.033 91.4333 462 87.5 462C83.6333 462 80.6 462.933 78.4 464.8C76.2667 466.667 75.2 469.267 75.2 472.6C75.2 475.6 76 478.2 77.6 480.4C79.2 482.6 81.5 484.167 84.5 485.1L94.5 488.3C99.3667 489.833 103.133 492.433 105.8 496.1C108.467 499.767 109.8 504.067 109.8 509C109.8 513 108.867 516.5 107 519.5C105.133 522.5 102.5 524.833 99.1 526.5C95.7667 528.167 91.8667 529 87.4 529ZM140.761 528L121.961 455H131.261L143.661 504.6C144.528 508.067 145.261 511.3 145.861 514.3C146.461 517.233 146.894 519.467 147.161 521C147.428 519.467 147.828 517.233 148.361 514.3C148.961 511.3 149.694 508.067 150.561 504.6L162.861 455H171.961L153.061 528H140.761ZM186.922 528V455H228.922V463.2H195.822V485.8H225.422V493.9H195.822V519.8H228.922V528H186.922ZM248.383 528V455H257.383V519.8H290.383V528H248.383ZM322.344 528V463.1H302.344V454.9H351.344V463.1H331.344V528H322.344ZM366.805 528V455H408.805V463.2H375.705V485.8H405.305V493.9H375.705V519.8H408.805V528H366.805ZM507.127 529C502.727 529 498.893 528.167 495.627 526.5C492.427 524.833 489.927 522.433 488.127 519.3C486.393 516.1 485.527 512.333 485.527 508V475C485.527 470.6 486.393 466.833 488.127 463.7C489.927 460.567 492.427 458.167 495.627 456.5C498.893 454.833 502.727 454 507.127 454C511.527 454 515.327 454.867 518.527 456.6C521.727 458.267 524.193 460.667 525.927 463.8C527.66 466.933 528.527 470.667 528.527 475H519.527C519.527 470.867 518.427 467.7 516.227 465.5C514.093 463.233 511.06 462.1 507.127 462.1C503.193 462.1 500.093 463.2 497.827 465.4C495.627 467.6 494.527 470.767 494.527 474.9V508C494.527 512.133 495.627 515.333 497.827 517.6C500.093 519.8 503.193 520.9 507.127 520.9C511.06 520.9 514.093 519.8 516.227 517.6C518.427 515.333 519.527 512.133 519.527 508H528.527C528.527 512.267 527.66 516 525.927 519.2C524.193 522.333 521.727 524.767 518.527 526.5C515.327 528.167 511.527 529 507.127 529ZM566.688 529C559.888 529 554.688 527.133 551.088 523.4C547.488 519.6 545.688 514.467 545.688 508V455H554.688V508C554.688 512 555.654 515.167 557.588 517.5C559.588 519.833 562.621 521 566.688 521C570.688 521 573.688 519.833 575.688 517.5C577.688 515.167 578.688 512 578.688 508V455H587.688V508C587.688 514.533 585.888 519.667 582.288 523.4C578.754 527.133 573.554 529 566.688 529ZM627.048 529C622.248 529 618.115 528.2 614.648 526.6C611.248 525 608.615 522.7 606.748 519.7C604.882 516.7 603.915 513.133 603.848 509H612.848C612.848 512.667 614.082 515.567 616.548 517.7C619.082 519.833 622.582 520.9 627.048 520.9C631.248 520.9 634.515 519.867 636.848 517.8C639.248 515.733 640.448 512.867 640.448 509.2C640.448 506.267 639.648 503.7 638.048 501.5C636.515 499.3 634.282 497.767 631.348 496.9L621.448 493.8C616.448 492.267 612.582 489.7 609.848 486.1C607.182 482.5 605.848 478.267 605.848 473.4C605.848 469.467 606.715 466.067 608.448 463.2C610.248 460.267 612.748 458 615.948 456.4C619.148 454.733 622.915 453.9 627.248 453.9C633.648 453.9 638.782 455.7 642.648 459.3C646.515 462.833 648.482 467.567 648.548 473.5H639.548C639.548 469.9 638.448 467.1 636.248 465.1C634.115 463.033 631.082 462 627.148 462C623.282 462 620.248 462.933 618.048 464.8C615.915 466.667 614.848 469.267 614.848 472.6C614.848 475.6 615.648 478.2 617.248 480.4C618.848 482.6 621.148 484.167 624.148 485.1L634.148 488.3C639.015 489.833 642.782 492.433 645.448 496.1C648.115 499.767 649.448 504.067 649.448 509C649.448 513 648.515 516.5 646.648 519.5C644.782 522.5 642.148 524.833 638.748 526.5C635.415 528.167 631.515 529 627.048 529ZM682.109 528V463.1H662.109V454.9H711.109V463.1H691.109V528H682.109ZM746.57 529C742.17 529 738.37 528.167 735.17 526.5C732.037 524.833 729.604 522.433 727.87 519.3C726.204 516.1 725.37 512.333 725.37 508V475C725.37 470.6 726.204 466.833 727.87 463.7C729.604 460.567 732.037 458.167 735.17 456.5C738.37 454.833 742.17 454 746.57 454C750.97 454 754.737 454.833 757.87 456.5C761.07 458.167 763.504 460.567 765.17 463.7C766.904 466.833 767.77 470.567 767.77 474.9V508C767.77 512.333 766.904 516.1 765.17 519.3C763.504 522.433 761.07 524.833 757.87 526.5C754.737 528.167 750.97 529 746.57 529ZM746.57 520.9C750.504 520.9 753.504 519.8 755.57 517.6C757.704 515.333 758.77 512.133 758.77 508V475C758.77 470.867 757.704 467.7 755.57 465.5C753.504 463.233 750.504 462.1 746.57 462.1C742.704 462.1 739.704 463.233 737.57 465.5C735.437 467.7 734.37 470.867 734.37 475V508C734.37 512.133 735.437 515.333 737.57 517.6C739.704 519.8 742.704 520.9 746.57 520.9ZM784.131 528V455H795.931L803.531 478.6C804.265 480.733 804.931 482.867 805.531 485C806.131 487.067 806.565 488.667 806.831 489.8C807.165 488.667 807.598 487.067 808.131 485C808.665 482.867 809.265 480.7 809.931 478.5L817.131 455H828.931V528H820.131V501.5C820.131 498.567 820.231 495.233 820.431 491.5C820.631 487.767 820.898 483.967 821.231 480.1C821.565 476.167 821.898 472.433 822.231 468.9C822.631 465.3 822.965 462.167 823.231 459.5L811.431 496H801.931L790.031 459.5C790.365 462.1 790.698 465.133 791.031 468.6C791.365 472 791.665 475.633 791.931 479.5C792.198 483.3 792.431 487.1 792.631 490.9C792.831 494.7 792.931 498.233 792.931 501.5V528H784.131Z" fill="white"/>
<path d="M67 757V557H115.25C133.917 557 147.375 560.792 155.625 568.375C163.958 575.875 168.417 588.333 169 605.75C169.25 612.75 169.375 619.25 169.375 625.25C169.375 631.25 169.25 637.75 169 644.75C168.417 662.083 163.958 674.542 155.625 682.125C147.375 689.708 133.917 693.5 115.25 693.5H104.5V757H67ZM104.5 660.5H115.25C120.5 660.5 124.458 659.292 127.125 656.875C129.792 654.458 131.25 651.083 131.5 646.75C131.75 642.667 131.917 638.083 132 633C132.083 627.833 132.083 622.708 132 617.625C131.917 612.458 131.75 607.833 131.5 603.75C131.25 599.333 129.792 595.958 127.125 593.625C124.458 591.208 120.5 590 115.25 590H104.5V660.5ZM235.676 759.5C216.926 759.5 203.509 755.625 195.426 747.875C187.342 740.125 183.176 727.25 182.926 709.25C182.592 684.083 182.426 658.708 182.426 633.125C182.426 607.458 182.592 582.083 182.926 557H220.426C220.092 573.75 219.884 591.208 219.801 609.375C219.801 627.542 219.842 645.708 219.926 663.875C220.092 682.042 220.259 699.5 220.426 716.25C220.426 720.333 221.759 723.5 224.426 725.75C227.092 727.917 230.842 729 235.676 729C240.592 729 244.301 727.917 246.801 725.75C249.384 723.5 250.676 720.333 250.676 716.25C250.842 699.5 250.967 682.042 251.051 663.875C251.217 645.708 251.259 627.542 251.176 609.375C251.176 591.208 251.009 573.75 250.676 557H288.176C288.592 582.083 288.801 607.458 288.801 633.125C288.801 658.708 288.592 684.083 288.176 709.25C287.926 727.25 283.759 740.125 275.676 747.875C267.676 755.625 254.342 759.5 235.676 759.5ZM306.502 757V557H344.002V724H393.252V757H306.502ZM407.088 757V557H444.588V724H493.838V757H407.088ZM583.789 757V590H551.664V557H653.414V590H621.289V757H583.789ZM714.215 759.5C695.882 759.5 682.59 755.625 674.34 747.875C666.173 740.125 661.882 727.25 661.465 709.25C661.298 701.083 661.173 692.583 661.09 683.75C661.007 674.917 660.965 665.958 660.965 656.875C660.965 647.792 661.007 638.833 661.09 630C661.173 621.167 661.298 612.667 661.465 604.5C661.882 586.583 666.173 573.792 674.34 566.125C682.59 558.375 695.882 554.5 714.215 554.5C732.632 554.5 745.84 558.375 753.84 566.125C761.84 573.792 766.132 586.583 766.715 604.5C767.048 612.833 767.298 621.417 767.465 630.25C767.632 639.083 767.715 648.042 767.715 657.125C767.715 666.125 767.632 675.042 767.465 683.875C767.298 692.625 767.048 701.083 766.715 709.25C766.132 727.25 761.84 740.125 753.84 747.875C745.84 755.625 732.632 759.5 714.215 759.5ZM714.215 729C719.132 729 722.84 727.917 725.34 725.75C727.84 723.5 729.132 720.333 729.215 716.25C729.632 707.75 729.923 698.417 730.09 688.25C730.257 678.083 730.34 667.625 730.34 656.875C730.34 646.125 730.257 635.667 730.09 625.5C729.923 615.333 729.632 606 729.215 597.5C729.132 593.5 727.798 590.417 725.215 588.25C722.632 586.083 718.965 585 714.215 585C709.465 585 705.757 586.083 703.09 588.25C700.507 590.417 699.132 593.5 698.965 597.5C698.632 606 698.34 615.333 698.09 625.5C697.923 635.667 697.84 646.125 697.84 656.875C697.84 667.625 697.923 678.083 698.09 688.25C698.34 698.417 698.632 707.75 698.965 716.25C699.132 720.333 700.507 723.5 703.09 725.75C705.757 727.917 709.465 729 714.215 729Z" fill="white"/>
<path d="M67 1009V809H115.25C133.917 809 147.375 812.792 155.625 820.375C163.958 827.875 168.417 840.333 169 857.75C169.167 862.417 169.25 866.5 169.25 870C169.333 873.5 169.333 877 169.25 880.5C169.25 884 169.167 888.083 169 892.75C168.667 903.583 166.833 912.458 163.5 919.375C160.25 926.292 155.167 931.583 148.25 935.25L171.75 1009H132L113 941.5H104.5V1009H67ZM104.5 908.5H115.25C120.5 908.5 124.458 907.292 127.125 904.875C129.792 902.458 131.25 899.083 131.5 894.75C131.75 890.667 131.917 886.417 132 882C132.083 877.5 132.083 873.042 132 868.625C131.917 864.125 131.75 859.833 131.5 855.75C131.25 851.333 129.792 847.958 127.125 845.625C124.458 843.208 120.5 842 115.25 842H104.5V908.5ZM186.141 1009V809H272.641V842H223.641V890.75H270.141V923.75H223.641V976H272.641V1009H186.141ZM288.191 1009V809H374.691V842H325.691V890.75H372.191V923.75H325.691V1009H288.191ZM389.754 1009V809H438.004C456.671 809 470.129 812.792 478.379 820.375C486.712 827.875 491.171 840.333 491.754 857.75C491.921 862.417 492.004 866.5 492.004 870C492.087 873.5 492.087 877 492.004 880.5C492.004 884 491.921 888.083 491.754 892.75C491.421 903.583 489.587 912.458 486.254 919.375C483.004 926.292 477.921 931.583 471.004 935.25L494.504 1009H454.754L435.754 941.5H427.254V1009H389.754ZM427.254 908.5H438.004C443.254 908.5 447.212 907.292 449.879 904.875C452.546 902.458 454.004 899.083 454.254 894.75C454.504 890.667 454.671 886.417 454.754 882C454.837 877.5 454.837 873.042 454.754 868.625C454.671 864.125 454.504 859.833 454.254 855.75C454.004 851.333 452.546 847.958 449.879 845.625C447.212 843.208 443.254 842 438.004 842H427.254V908.5ZM508.895 1009V809H595.395V842H546.395V890.75H592.895V923.75H546.395V976H595.395V1009H508.895ZM660.32 1011.5C641.987 1011.5 628.904 1007.62 621.07 999.875C613.32 992.125 609.07 979.25 608.32 961.25C608.237 958.583 608.195 955.667 608.195 952.5C608.195 949.25 608.279 946.042 608.445 942.875C608.612 939.625 608.904 936.667 609.32 934H644.57C644.237 940.083 644.029 946.083 643.945 952C643.862 957.917 644.07 963.333 644.57 968.25C644.987 972.333 646.445 975.5 648.945 977.75C651.529 979.917 655.32 981 660.32 981C665.237 981 668.82 979.917 671.07 977.75C673.404 975.5 674.82 972.333 675.32 968.25C675.654 965.417 675.862 962.625 675.945 959.875C676.112 957.042 676.112 954.25 675.945 951.5C675.862 948.667 675.654 945.833 675.32 943C674.987 939.5 673.904 936.333 672.07 933.5C670.237 930.667 667.32 928.75 663.32 927.75L642.82 922.5C634.154 920.25 627.279 917.042 622.195 912.875C617.112 908.625 613.404 903.375 611.07 897.125C608.82 890.875 607.57 883.583 607.32 875.25C607.237 871.583 607.195 868.333 607.195 865.5C607.195 862.583 607.237 859.583 607.32 856.5C607.82 844.583 609.82 834.958 613.32 827.625C616.904 820.292 622.487 814.958 630.07 811.625C637.654 808.208 647.737 806.5 660.32 806.5C678.07 806.5 690.945 810.375 698.945 818.125C706.945 825.792 711.32 838.583 712.07 856.5C712.237 860.083 712.237 864.458 712.07 869.625C711.987 874.792 711.82 879.583 711.57 884H675.57C675.82 878.25 675.987 872.5 676.07 866.75C676.154 861 676.07 855.25 675.82 849.5C675.737 845.5 674.279 842.417 671.445 840.25C668.695 838.083 664.987 837 660.32 837C655.32 837 651.612 838.083 649.195 840.25C646.779 842.417 645.32 845.5 644.82 849.5C644.32 853.75 644.07 858.042 644.07 862.375C644.07 866.708 644.32 871 644.82 875.25C645.237 878.583 646.404 881.625 648.32 884.375C650.237 887.125 653.32 889 657.57 890L675.32 894.25C684.654 896.5 691.987 899.833 697.32 904.25C702.737 908.583 706.612 914 708.945 920.5C711.362 926.917 712.737 934.417 713.07 943C713.154 944.917 713.195 946.917 713.195 949C713.195 951.083 713.154 953.167 713.07 955.25C712.987 957.333 712.904 959.333 712.82 961.25C712.07 979.25 707.737 992.125 699.82 999.875C691.987 1007.62 678.82 1011.5 660.32 1011.5ZM729.354 1009V809H766.854V890.75H793.104V809H830.604V1009H793.104V923.75H766.854V1009H729.354Z" fill="white"/>
<g style="mix-blend-mode:screen" opacity="0.1" clip-path="url(#clip1_1_3)">
<path d="M1290.86 -266.65C1169.9 -439.771 931.005 -491.082 758.28 -381.038L454.925 -187.691C413.945 -161.91 378.795 -127.863 351.722 -87.7246C324.649 -47.5867 306.249 -2.24166 297.697 45.4119C283.225 125.683 295.944 208.488 333.838 280.716C307.871 320.106 290.161 364.351 281.777 410.778C273.136 459.392 274.289 509.242 285.168 557.404C296.048 605.567 316.435 651.072 345.134 691.251C466.116 864.388 705.008 915.678 877.712 805.634L1181.07 612.296C1222.05 586.518 1257.2 552.471 1284.28 512.331C1311.35 472.192 1329.75 426.845 1338.29 379.189C1352.76 298.919 1340.05 216.116 1302.18 143.88C1328.14 104.491 1345.84 60.2469 1354.21 13.8225C1362.86 -34.7908 1361.71 -84.6417 1350.83 -132.805C1339.95 -180.968 1319.56 -226.473 1290.86 -266.65" fill="#FF3E00"/>
<path d="M728.617 707.721C630.804 733.154 527.516 694.866 469.909 611.831C452.642 587.662 440.375 560.288 433.83 531.315C427.284 502.342 426.591 472.353 431.791 443.109C433.552 433.507 435.975 424.038 439.043 414.771L444.759 397.348L460.302 408.767C496.206 435.147 536.351 455.203 579.006 468.072L590.281 471.493L589.243 482.751C587.864 498.763 592.199 514.746 601.479 527.868C609.943 540.079 621.95 549.4 635.88 554.569C649.81 559.739 664.99 560.51 679.372 556.777C685.968 555.014 692.255 552.251 698.014 548.584L1001.46 355.212C1008.89 350.537 1015.26 344.367 1020.17 337.094C1025.07 329.821 1028.41 321.605 1029.97 312.971C1031.53 304.156 1031.32 295.12 1029.34 286.388C1027.37 277.657 1023.68 269.406 1018.49 262.117C1010.02 249.902 998.006 240.58 984.072 235.407C970.138 230.235 954.952 229.461 940.565 233.191C933.979 234.953 927.703 237.713 921.952 241.375L806.153 315.189C787.113 327.295 766.334 336.42 744.537 342.248C646.728 367.681 543.436 329.394 485.837 246.354C468.569 222.186 456.302 194.813 449.755 165.841C443.209 136.869 442.515 106.88 447.715 77.6363C452.858 48.9719 463.927 21.6965 480.214 -2.44531C496.501 -26.5871 517.648 -47.0639 542.301 -62.566L845.724 -255.959C864.773 -268.084 885.567 -277.22 907.383 -283.048C1005.19 -308.481 1108.48 -270.193 1166.08 -187.158C1183.35 -162.989 1195.62 -135.615 1202.16 -106.642C1208.71 -77.6693 1209.4 -47.6806 1204.21 -18.4357C1202.44 -8.83697 1200.01 0.629603 1196.95 9.89769L1191.24 27.3245L1175.7 15.9225C1139.8 -10.472 1099.65 -30.5374 1056.99 -43.4074L1045.71 -46.8327L1046.75 -58.0864C1048.12 -74.0975 1043.79 -90.0768 1034.52 -103.203C1026.05 -115.416 1014.04 -124.736 1000.11 -129.906C986.184 -135.076 971.002 -135.846 956.62 -132.112C950.025 -130.349 943.74 -127.586 937.982 -123.92L634.534 69.4606C627.109 74.1318 620.739 80.3004 615.833 87.5724C610.927 94.8445 607.591 103.06 606.039 111.694C604.474 120.508 604.682 129.546 606.651 138.278C608.621 147.011 612.312 155.263 617.509 162.552C625.978 174.766 637.99 184.089 651.924 189.262C665.858 194.434 681.043 195.208 695.431 191.478C702.024 189.711 708.309 186.949 714.069 183.285L829.847 109.501C848.879 97.3771 869.658 88.2428 891.459 82.4164C989.268 56.9874 1092.56 95.2748 1150.16 178.315C1167.43 202.482 1179.7 229.855 1186.24 258.826C1192.79 287.798 1193.48 317.785 1188.28 347.028C1183.14 375.695 1172.06 402.973 1155.78 427.118C1139.49 451.264 1118.35 471.746 1093.69 487.256L790.272 680.632C771.223 692.757 750.428 701.893 728.613 707.721" fill="white"/>
</g>
</g>
<defs>
<clipPath id="clip0_1_3">
<rect width="1080" height="1080" fill="white"/>
</clipPath>
<clipPath id="clip1_1_3">
<rect width="1084" height="1304.05" fill="white" transform="translate(276 -439)"/>
</clipPath>
</defs>
</svg>
