<svg width="1080" height="1080" viewBox="0 0 1080 1080" fill="none" xmlns="http://www.w3.org/2000/svg">
<g clip-path="url(#clip0_1_3)">
<rect width="1080" height="1080" fill="#E77231"/>
<path d="M114.4 383C109.6 383 105.467 382.2 102 380.6C98.6 379 95.9667 376.7 94.1 373.7C92.2333 370.7 91.2667 367.133 91.2 363H100.2C100.2 366.667 101.433 369.567 103.9 371.7C106.433 373.833 109.933 374.9 114.4 374.9C118.6 374.9 121.867 373.867 124.2 371.8C126.6 369.733 127.8 366.867 127.8 363.2C127.8 360.267 127 357.7 125.4 355.5C123.867 353.3 121.633 351.767 118.7 350.9L108.8 347.8C103.8 346.267 99.9333 343.7 97.2 340.1C94.5333 336.5 93.2 332.267 93.2 327.4C93.2 323.467 94.0667 320.067 95.8 317.2C97.6 314.267 100.1 312 103.3 310.4C106.5 308.733 110.267 307.9 114.6 307.9C121 307.9 126.133 309.7 130 313.3C133.867 316.833 135.833 321.567 135.9 327.5H126.9C126.9 323.9 125.8 321.1 123.6 319.1C121.467 317.033 118.433 316 114.5 316C110.633 316 107.6 316.933 105.4 318.8C103.267 320.667 102.2 323.267 102.2 326.6C102.2 329.6 103 332.2 104.6 334.4C106.2 336.6 108.5 338.167 111.5 339.1L121.5 342.3C126.367 343.833 130.133 346.433 132.8 350.1C135.467 353.767 136.8 358.067 136.8 363C136.8 367 135.867 370.5 134 373.5C132.133 376.5 129.5 378.833 126.1 380.5C122.767 382.167 118.867 383 114.4 383ZM167.761 382L148.961 309H158.261L170.661 358.6C171.528 362.067 172.261 365.3 172.861 368.3C173.461 371.233 173.894 373.467 174.161 375C174.428 373.467 174.828 371.233 175.361 368.3C175.961 365.3 176.694 362.067 177.561 358.6L189.861 309H198.961L180.061 382H167.761ZM213.922 382V309H255.922V317.2H222.822V339.8H252.422V347.9H222.822V373.8H255.922V382H213.922ZM275.383 382V309H284.383V373.8H317.383V382H275.383ZM349.344 382V317.1H329.344V308.9H378.344V317.1H358.344V382H349.344ZM393.805 382V309H435.805V317.2H402.705V339.8H432.305V347.9H402.705V373.8H435.805V382H393.805Z" fill="white"/>
<path d="M145.875 613.5C127.042 613.5 113.625 609.625 105.625 601.875C97.7083 594.125 93.5417 581.25 93.125 563.25C93.0417 556.333 92.9583 548.333 92.875 539.25C92.7917 530.167 92.75 520.75 92.75 511C92.75 501.167 92.7917 491.708 92.875 482.625C92.9583 473.458 93.0417 465.333 93.125 458.25C93.375 443 97.625 430.917 105.875 422C114.208 413 127.542 408.5 145.875 408.5C163.875 408.5 176.917 412.375 185 420.125C193.083 427.792 197.375 440.583 197.875 458.5C197.958 461.25 198 464.25 198 467.5C198 470.667 197.958 473.875 197.875 477.125C197.792 480.292 197.708 483.25 197.625 486H160.125C160.208 482.917 160.292 479.292 160.375 475.125C160.458 470.875 160.5 466.667 160.5 462.5C160.5 458.25 160.458 454.583 160.375 451.5C160.292 447.5 158.958 444.417 156.375 442.25C153.875 440.083 150.375 439 145.875 439C141.125 439 137.417 440.083 134.75 442.25C132.167 444.417 130.792 447.5 130.625 451.5C130.292 460.25 130.042 469.708 129.875 479.875C129.792 490.042 129.75 500.417 129.75 511C129.75 521.583 129.792 531.958 129.875 542.125C130.042 552.208 130.292 561.583 130.625 570.25C130.792 574.333 132.167 577.5 134.75 579.75C137.417 581.917 141.125 583 145.875 583C150.792 583 154.583 581.917 157.25 579.75C159.917 577.5 161.292 574.333 161.375 570.25C161.458 567.25 161.5 563.667 161.5 559.5C161.583 555.25 161.583 551.042 161.5 546.875C161.5 542.625 161.458 539 161.375 536H198.875C199.042 540 199.125 544.542 199.125 549.625C199.125 554.708 199.042 559.25 198.875 563.25C198.375 581.25 194 594.125 185.75 601.875C177.583 609.625 164.292 613.5 145.875 613.5ZM267.559 613.5C248.809 613.5 235.392 609.625 227.309 601.875C219.225 594.125 215.059 581.25 214.809 563.25C214.475 538.083 214.309 512.708 214.309 487.125C214.309 461.458 214.475 436.083 214.809 411H252.309C251.975 427.75 251.767 445.208 251.684 463.375C251.684 481.542 251.725 499.708 251.809 517.875C251.975 536.042 252.142 553.5 252.309 570.25C252.309 574.333 253.642 577.5 256.309 579.75C258.975 581.917 262.725 583 267.559 583C272.475 583 276.184 581.917 278.684 579.75C281.267 577.5 282.559 574.333 282.559 570.25C282.725 553.5 282.85 536.042 282.934 517.875C283.1 499.708 283.142 481.542 283.059 463.375C283.059 445.208 282.892 427.75 282.559 411H320.059C320.475 436.083 320.684 461.458 320.684 487.125C320.684 512.708 320.475 538.083 320.059 563.25C319.809 581.25 315.642 594.125 307.559 601.875C299.559 609.625 286.225 613.5 267.559 613.5ZM387.76 613.5C369.426 613.5 356.343 609.625 348.51 601.875C340.76 594.125 336.51 581.25 335.76 563.25C335.676 560.583 335.635 557.667 335.635 554.5C335.635 551.25 335.718 548.042 335.885 544.875C336.051 541.625 336.343 538.667 336.76 536H372.01C371.676 542.083 371.468 548.083 371.385 554C371.301 559.917 371.51 565.333 372.01 570.25C372.426 574.333 373.885 577.5 376.385 579.75C378.968 581.917 382.76 583 387.76 583C392.676 583 396.26 581.917 398.51 579.75C400.843 577.5 402.26 574.333 402.76 570.25C403.093 567.417 403.301 564.625 403.385 561.875C403.551 559.042 403.551 556.25 403.385 553.5C403.301 550.667 403.093 547.833 402.76 545C402.426 541.5 401.343 538.333 399.51 535.5C397.676 532.667 394.76 530.75 390.76 529.75L370.26 524.5C361.593 522.25 354.718 519.042 349.635 514.875C344.551 510.625 340.843 505.375 338.51 499.125C336.26 492.875 335.01 485.583 334.76 477.25C334.676 473.583 334.635 470.333 334.635 467.5C334.635 464.583 334.676 461.583 334.76 458.5C335.26 446.583 337.26 436.958 340.76 429.625C344.343 422.292 349.926 416.958 357.51 413.625C365.093 410.208 375.176 408.5 387.76 408.5C405.51 408.5 418.385 412.375 426.385 420.125C434.385 427.792 438.76 440.583 439.51 458.5C439.676 462.083 439.676 466.458 439.51 471.625C439.426 476.792 439.26 481.583 439.01 486H403.01C403.26 480.25 403.426 474.5 403.51 468.75C403.593 463 403.51 457.25 403.26 451.5C403.176 447.5 401.718 444.417 398.885 442.25C396.135 440.083 392.426 439 387.76 439C382.76 439 379.051 440.083 376.635 442.25C374.218 444.417 372.76 447.5 372.26 451.5C371.76 455.75 371.51 460.042 371.51 464.375C371.51 468.708 371.76 473 372.26 477.25C372.676 480.583 373.843 483.625 375.76 486.375C377.676 489.125 380.76 491 385.01 492L402.76 496.25C412.093 498.5 419.426 501.833 424.76 506.25C430.176 510.583 434.051 516 436.385 522.5C438.801 528.917 440.176 536.417 440.51 545C440.593 546.917 440.635 548.917 440.635 551C440.635 553.083 440.593 555.167 440.51 557.25C440.426 559.333 440.343 561.333 440.26 563.25C439.51 581.25 435.176 594.125 427.26 601.875C419.426 609.625 406.26 613.5 387.76 613.5ZM480.418 611V444H448.293V411H550.043V444H517.918V611H480.418ZM610.844 613.5C592.51 613.5 579.219 609.625 570.969 601.875C562.802 594.125 558.51 581.25 558.094 563.25C557.927 555.083 557.802 546.583 557.719 537.75C557.635 528.917 557.594 519.958 557.594 510.875C557.594 501.792 557.635 492.833 557.719 484C557.802 475.167 557.927 466.667 558.094 458.5C558.51 440.583 562.802 427.792 570.969 420.125C579.219 412.375 592.51 408.5 610.844 408.5C629.26 408.5 642.469 412.375 650.469 420.125C658.469 427.792 662.76 440.583 663.344 458.5C663.677 466.833 663.927 475.417 664.094 484.25C664.26 493.083 664.344 502.042 664.344 511.125C664.344 520.125 664.26 529.042 664.094 537.875C663.927 546.625 663.677 555.083 663.344 563.25C662.76 581.25 658.469 594.125 650.469 601.875C642.469 609.625 629.26 613.5 610.844 613.5ZM610.844 583C615.76 583 619.469 581.917 621.969 579.75C624.469 577.5 625.76 574.333 625.844 570.25C626.26 561.75 626.552 552.417 626.719 542.25C626.885 532.083 626.969 521.625 626.969 510.875C626.969 500.125 626.885 489.667 626.719 479.5C626.552 469.333 626.26 460 625.844 451.5C625.76 447.5 624.427 444.417 621.844 442.25C619.26 440.083 615.594 439 610.844 439C606.094 439 602.385 440.083 599.719 442.25C597.135 444.417 595.76 447.5 595.594 451.5C595.26 460 594.969 469.333 594.719 479.5C594.552 489.667 594.469 500.125 594.469 510.875C594.469 521.625 594.552 532.083 594.719 542.25C594.969 552.417 595.26 561.75 595.594 570.25C595.76 574.333 597.135 577.5 599.719 579.75C602.385 581.917 606.094 583 610.844 583ZM682.867 611V411H743.117L759.617 486.75L762.867 578H769.367L772.367 486.75L789.117 411H849.117V611H811.617V549.5L818.867 444H812.117L801.617 552L786.117 611H745.867L730.617 552L719.867 444H713.367L720.367 549.5V611H682.867Z" fill="white"/>
<path d="M94 863V663H142.25C160.917 663 174.375 666.792 182.625 674.375C190.958 681.875 195.417 694.333 196 711.75C196.25 718.75 196.375 725.25 196.375 731.25C196.375 737.25 196.25 743.75 196 750.75C195.417 768.083 190.958 780.542 182.625 788.125C174.375 795.708 160.917 799.5 142.25 799.5H131.5V863H94ZM131.5 766.5H142.25C147.5 766.5 151.458 765.292 154.125 762.875C156.792 760.458 158.25 757.083 158.5 752.75C158.75 748.667 158.917 744.083 159 739C159.083 733.833 159.083 728.708 159 723.625C158.917 718.458 158.75 713.833 158.5 709.75C158.25 705.333 156.792 701.958 154.125 699.625C151.458 697.208 147.5 696 142.25 696H131.5V766.5ZM262.676 865.5C243.926 865.5 230.509 861.625 222.426 853.875C214.342 846.125 210.176 833.25 209.926 815.25C209.592 790.083 209.426 764.708 209.426 739.125C209.426 713.458 209.592 688.083 209.926 663H247.426C247.092 679.75 246.884 697.208 246.801 715.375C246.801 733.542 246.842 751.708 246.926 769.875C247.092 788.042 247.259 805.5 247.426 822.25C247.426 826.333 248.759 829.5 251.426 831.75C254.092 833.917 257.842 835 262.676 835C267.592 835 271.301 833.917 273.801 831.75C276.384 829.5 277.676 826.333 277.676 822.25C277.842 805.5 277.967 788.042 278.051 769.875C278.217 751.708 278.259 733.542 278.176 715.375C278.176 697.208 278.009 679.75 277.676 663H315.176C315.592 688.083 315.801 713.458 315.801 739.125C315.801 764.708 315.592 790.083 315.176 815.25C314.926 833.25 310.759 846.125 302.676 853.875C294.676 861.625 281.342 865.5 262.676 865.5ZM333.502 863V663H371.002V830H420.252V863H333.502ZM434.088 863V663H471.588V830H520.838V863H434.088ZM610.789 863V696H578.664V663H680.414V696H648.289V863H610.789ZM741.215 865.5C722.882 865.5 709.59 861.625 701.34 853.875C693.173 846.125 688.882 833.25 688.465 815.25C688.298 807.083 688.173 798.583 688.09 789.75C688.007 780.917 687.965 771.958 687.965 762.875C687.965 753.792 688.007 744.833 688.09 736C688.173 727.167 688.298 718.667 688.465 710.5C688.882 692.583 693.173 679.792 701.34 672.125C709.59 664.375 722.882 660.5 741.215 660.5C759.632 660.5 772.84 664.375 780.84 672.125C788.84 679.792 793.132 692.583 793.715 710.5C794.048 718.833 794.298 727.417 794.465 736.25C794.632 745.083 794.715 754.042 794.715 763.125C794.715 772.125 794.632 781.042 794.465 789.875C794.298 798.625 794.048 807.083 793.715 815.25C793.132 833.25 788.84 846.125 780.84 853.875C772.84 861.625 759.632 865.5 741.215 865.5ZM741.215 835C746.132 835 749.84 833.917 752.34 831.75C754.84 829.5 756.132 826.333 756.215 822.25C756.632 813.75 756.923 804.417 757.09 794.25C757.257 784.083 757.34 773.625 757.34 762.875C757.34 752.125 757.257 741.667 757.09 731.5C756.923 721.333 756.632 712 756.215 703.5C756.132 699.5 754.798 696.417 752.215 694.25C749.632 692.083 745.965 691 741.215 691C736.465 691 732.757 692.083 730.09 694.25C727.507 696.417 726.132 699.5 725.965 703.5C725.632 712 725.34 721.333 725.09 731.5C724.923 741.667 724.84 752.125 724.84 762.875C724.84 773.625 724.923 784.083 725.09 794.25C725.34 804.417 725.632 813.75 725.965 822.25C726.132 826.333 727.507 829.5 730.09 831.75C732.757 833.917 736.465 835 741.215 835Z" fill="white"/>
<path d="M93.2 971V898H115.8C120.133 898 123.933 898.9 127.2 900.7C130.467 902.433 133 904.867 134.8 908C136.6 911.133 137.5 914.8 137.5 919C137.5 923.933 136.2 928.167 133.6 931.7C131.067 935.233 127.6 937.667 123.2 939L138.5 971H127.9L113.9 940H102.2V971H93.2ZM102.2 931.9H115.8C119.533 931.9 122.533 930.733 124.8 928.4C127.067 926 128.2 922.867 128.2 919C128.2 915.067 127.067 911.933 124.8 909.6C122.533 907.267 119.533 906.1 115.8 906.1H102.2V931.9ZM153.961 971V898H195.961V906.2H162.861V928.8H192.461V936.9H162.861V962.8H195.961V971H153.961ZM213.422 971V897.9H256.422V906.1H222.222V930.4H253.822V938.6H222.422V971H213.422ZM273.083 971V898H295.683C300.016 898 303.816 898.9 307.083 900.7C310.349 902.433 312.883 904.867 314.683 908C316.483 911.133 317.383 914.8 317.383 919C317.383 923.933 316.083 928.167 313.483 931.7C310.949 935.233 307.483 937.667 303.083 939L318.383 971H307.783L293.783 940H282.083V971H273.083ZM282.083 931.9H295.683C299.416 931.9 302.416 930.733 304.683 928.4C306.949 926 308.083 922.867 308.083 919C308.083 915.067 306.949 911.933 304.683 909.6C302.416 907.267 299.416 906.1 295.683 906.1H282.083V931.9ZM333.844 971V898H375.844V906.2H342.744V928.8H372.344V936.9H342.744V962.8H375.844V971H333.844ZM414.205 972C409.405 972 405.271 971.2 401.805 969.6C398.405 968 395.771 965.7 393.905 962.7C392.038 959.7 391.071 956.133 391.005 952H400.005C400.005 955.667 401.238 958.567 403.705 960.7C406.238 962.833 409.738 963.9 414.205 963.9C418.405 963.9 421.671 962.867 424.005 960.8C426.405 958.733 427.605 955.867 427.605 952.2C427.605 949.267 426.805 946.7 425.205 944.5C423.671 942.3 421.438 940.767 418.505 939.9L408.605 936.8C403.605 935.267 399.738 932.7 397.005 929.1C394.338 925.5 393.005 921.267 393.005 916.4C393.005 912.467 393.871 909.067 395.605 906.2C397.405 903.267 399.905 901 403.105 899.4C406.305 897.733 410.071 896.9 414.405 896.9C420.805 896.9 425.938 898.7 429.805 902.3C433.671 905.833 435.638 910.567 435.705 916.5H426.705C426.705 912.9 425.605 910.1 423.405 908.1C421.271 906.033 418.238 905 414.305 905C410.438 905 407.405 905.933 405.205 907.8C403.071 909.667 402.005 912.267 402.005 915.6C402.005 918.6 402.805 921.2 404.405 923.4C406.005 925.6 408.305 927.167 411.305 928.1L421.305 931.3C426.171 932.833 429.938 935.433 432.605 939.1C435.271 942.767 436.605 947.067 436.605 952C436.605 956 435.671 959.5 433.805 962.5C431.938 965.5 429.305 967.833 425.905 969.5C422.571 971.167 418.671 972 414.205 972ZM453.066 971V898H462.066V929.2H485.466V898H494.466V971H485.466V937.4H462.066V971H453.066Z" fill="white"/>
<g style="mix-blend-mode:screen" opacity="0.1" clip-path="url(#clip1_1_3)">
<path d="M1290.86 -266.65C1169.9 -439.771 931.004 -491.082 758.28 -381.038L454.925 -187.691C413.945 -161.91 378.795 -127.863 351.722 -87.7246C324.649 -47.5867 306.249 -2.24167 297.697 45.4119C283.225 125.683 295.944 208.488 333.838 280.716C307.871 320.106 290.161 364.351 281.777 410.778C273.136 459.392 274.289 509.242 285.168 557.404C296.048 605.567 316.435 651.072 345.134 691.251C466.116 864.388 705.008 915.678 877.712 805.634L1181.07 612.296C1222.05 586.518 1257.2 552.471 1284.28 512.331C1311.35 472.192 1329.75 426.845 1338.29 379.189C1352.76 298.919 1340.05 216.116 1302.18 143.88C1328.14 104.491 1345.84 60.2469 1354.21 13.8225C1362.86 -34.7908 1361.71 -84.6417 1350.83 -132.805C1339.95 -180.968 1319.56 -226.473 1290.86 -266.65" fill="#FF3E00"/>
<path d="M728.617 707.721C630.804 733.154 527.516 694.866 469.909 611.831C452.642 587.662 440.375 560.288 433.83 531.315C427.284 502.342 426.591 472.353 431.791 443.109C433.552 433.507 435.975 424.038 439.043 414.771L444.759 397.348L460.302 408.767C496.206 435.147 536.351 455.203 579.006 468.072L590.281 471.493L589.243 482.751C587.864 498.763 592.199 514.746 601.479 527.868C609.943 540.079 621.95 549.4 635.88 554.569C649.81 559.739 664.99 560.51 679.372 556.777C685.968 555.014 692.255 552.251 698.014 548.584L1001.46 355.212C1008.89 350.537 1015.26 344.367 1020.17 337.094C1025.07 329.821 1028.41 321.605 1029.97 312.971C1031.53 304.156 1031.32 295.12 1029.34 286.388C1027.37 277.657 1023.68 269.406 1018.49 262.117C1010.02 249.902 998.006 240.58 984.072 235.407C970.138 230.234 954.952 229.461 940.565 233.191C933.979 234.953 927.702 237.713 921.952 241.375L806.153 315.189C787.113 327.295 766.334 336.42 744.537 342.248C646.728 367.681 543.436 329.394 485.837 246.354C468.569 222.186 456.302 194.813 449.755 165.841C443.209 136.869 442.515 106.88 447.715 77.6363C452.858 48.9719 463.927 21.6965 480.214 -2.44531C496.501 -26.5871 517.648 -47.0639 542.301 -62.5659L845.724 -255.959C864.773 -268.084 885.567 -277.22 907.383 -283.048C1005.19 -308.481 1108.48 -270.193 1166.08 -187.158C1183.35 -162.989 1195.62 -135.615 1202.16 -106.642C1208.71 -77.6693 1209.4 -47.6806 1204.21 -18.4358C1202.44 -8.83698 1200.01 0.629608 1196.95 9.89767L1191.24 27.3245L1175.7 15.9225C1139.8 -10.472 1099.65 -30.5374 1056.99 -43.4074L1045.71 -46.8327L1046.75 -58.0864C1048.12 -74.0975 1043.79 -90.0768 1034.52 -103.203C1026.05 -115.416 1014.04 -124.736 1000.11 -129.906C986.184 -135.076 971.002 -135.846 956.62 -132.112C950.025 -130.349 943.74 -127.586 937.982 -123.92L634.534 69.4605C627.109 74.1318 620.739 80.3004 615.833 87.5724C610.927 94.8445 607.591 103.06 606.039 111.694C604.474 120.508 604.682 129.546 606.651 138.278C608.621 147.011 612.312 155.263 617.509 162.552C625.978 174.766 637.99 184.089 651.924 189.262C665.858 194.434 681.043 195.208 695.431 191.478C702.024 189.711 708.309 186.949 714.069 183.285L829.847 109.501C848.879 97.3771 869.658 88.2429 891.459 82.4164C989.268 56.9874 1092.56 95.2748 1150.16 178.315C1167.43 202.482 1179.7 229.854 1186.24 258.826C1192.79 287.798 1193.48 317.785 1188.28 347.028C1183.14 375.695 1172.06 402.973 1155.78 427.118C1139.49 451.264 1118.35 471.746 1093.69 487.256L790.272 680.632C771.223 692.757 750.428 701.893 728.613 707.721" fill="white"/>
</g>
</g>
<defs>
<clipPath id="clip0_1_3">
<rect width="1080" height="1080" fill="white"/>
</clipPath>
<clipPath id="clip1_1_3">
<rect width="1084" height="1304.05" fill="white" transform="translate(276 -439)"/>
</clipPath>
</defs>
</svg>
