<svg width="1326" height="948.867" xmlns="http://www.w3.org/2000/svg"><defs><clipPath clipPathUnits="userSpaceOnUse" id="a"><path d="m2340.19 2729.02-1269.57 306.11c-.85 1.02-1.69 2.04-2.53 3.06l808.52 296.23c53.98-117.89 130.3-221.12 242.55-283.17 81.7-45.12 170.72-62.47 262.56-62.47 149.76.01 306.94 46.16 451.66 93.25 208.96 67.95 417.86 135.9 626.77 203.91 131.43 42.74 264.13 85.78 401.71 98.73 25.88 2.45 52.02 3.74 78.18 3.74 112.86 0 226.11-24.16 320.69-84.47 29.97-19.05 57.85-41.59 89.85-56.98 33.28-15.96 67.71-23.17 102.56-23.69-116.56-55.08-243.94-87.73-369.15-87.73-47.73 0-95.13 4.74-141.52 14.79-118.94 25.73-234.37 77.35-355.7 77.35-3.25 0-6.51-.03-9.77-.11-128.64-3.02-247.41-65.62-361-126.09-280.62-149.24-569.17-296.16-875.81-372.46"/></clipPath></defs><path d="M8008.5 6252.14c7.79 10.28 16.14 20.27 25.65 29.22 4.68 4.53 9.42 9.02 14.55 13.04 4.97 4.24 10.16 8.17 15.48 11.95 10.51 7.73 21.55 14.76 32.85 21.3a438.148 438.148 0 0 0 34.66 18.24c5.86 2.91 11.85 5.53 17.86 8.09 5.98 2.68 12.03 5.16 18.15 7.47 12.14 4.89 24.52 9.16 37.03 13 12.49 3.94 25.14 7.32 37.84 10.53 12.74 3.09 25.56 5.82 38.46 8.22 12.92 2.24 25.89 4.37 38.96 5.77 13.06 1.46 26.18 2.66 39.34 3.19 6.58.41 13.16.63 19.78.62 6.59.11 13.19.19 19.81-.09 13.21-.24 26.46-1.11 39.68-2.52 13.23-1.36 26.43-3.46 39.52-6.32 13.08-2.83 26.13-6.3 38.89-10.9 6.4-2.18 12.76-4.58 18.96-7.47 6.32-2.57 12.41-5.73 18.46-9.05 12.18-6.41 23.53-14.58 34.38-23.44l-22.93-7.22c5.29 22.65 13.45 44.89 24.92 65.55 11.36 20.71 26.21 39.58 43.36 55.79 34.47 32.55 77.36 53.81 121.04 67.12 43.85 13.48 88.83 20.32 133.59 24.38 22.41 2.07 44.83 2.91 67.18 3.5 22.37.53 44.7.59 66.98.29 44.57-.52 88.97-2.67 133.24-4.91 44.27-2.07 88.43-4.56 132.53-5.71 22.06-.58 44.08-.51 66.07-.14 21.99.47 43.94 1.71 65.7 4.47 21.75 2.71 43.28 7.28 63.81 14.83 20.33 7.72 39.89 18.94 54.12 36.18-12.7-18.3-31.58-32-52.02-41.22-20.57-9.11-42.36-15.2-64.35-19.4-44.07-8.38-88.84-11.13-133.34-12.07-44.54-1.08-88.96-.39-133.27.4-44.31.71-88.51 1.32-132.58 1.17-44.05-.29-87.98-1.97-131.44-6.11-43.4-4.2-86.49-11.16-127.35-24.03-40.66-12.95-79.43-31.76-109.76-60.16-15.14-14.11-28.15-30.4-38.23-48.5-10.12-18.07-17.59-37.71-22.89-58.08l-5.66-21.76-17.27 14.53c-9.06 7.61-18.58 14.86-29.19 20.7-5.24 3.01-10.54 5.94-16.17 8.34-5.47 2.7-11.17 4.97-16.96 7.06-11.46 4.42-23.41 7.85-35.51 10.73-12.1 2.88-24.44 5.09-36.86 6.84-12.42 1.76-24.98 3-37.59 3.64-6.29.49-12.62.62-18.94.72-6.32.21-12.66.22-19 .04-12.66-.09-25.36-.84-38.01-1.82-12.68-1-25.33-2.4-37.96-4.02-12.62-1.75-25.2-3.82-37.72-6.26-12.49-2.55-24.96-5.27-37.3-8.55-12.34-3.27-24.67-6.65-36.81-10.63-6.11-1.88-12.17-3.91-18.15-6.16-6.04-2.13-12.06-4.31-17.94-6.79-11.9-4.69-23.61-9.91-35.03-15.66-11.47-5.69-22.71-11.88-33.49-18.8-5.46-3.38-10.81-6.9-15.94-10.75-5.29-3.64-10.37-7.55-15.33-11.64-10.07-7.96-19.19-17.12-27.86-26.74" style="fill:#fff;fill-opacity:1;fill-rule:nonzero;stroke:none" transform="matrix(.13333 0 0 -.13333 0 948.867)"/><path d="M4706.82 864.148c-485.2 100.411-943.72 307.952-1258.27 681.972-197.34 234.61-322.88 516.19-453.86 795.15l867.91-212.68c1.86-6.7 3.72-13.38 5.59-20.04 140.26-498.63 418.71-971.07 838.63-1244.402m1469.8 32.524c18.44 15.469 36.47 31.5 54.12 47.93.24-5.293.53-10.543.87-15.704.22-3.32.46-6.597.72-9.859a1331.184 1331.184 0 0 0-55.71-22.367M9704.79 2796.16c.72 96.17-2.39 175.71-9.25 243.09 13.24-74.65 16.84-154.65 9.25-243.09m-2121.9 683.83c-46.29 43.2-98.97 79.62-153.21 111.2-57.25 33.31-117.32 62.38-179.06 88.69 93.63 3.93 178.42 31.45 257.61 71.77 11.65-94.14 36.99-185.65 74.66-271.66m-551.34 282.45c-167.77 57.5-338.67 108.31-493.45 179.5l224.79 934.32c7.23 30.02 5.47 59.82-3.61 87.12l30.27 26.72-32.52 36.94-24.62 27.99-44.43 50.47-92.58 105.12-115.58-102-584.08 104.96c-16 94.95-37.59 188.01-71.18 276.65-125.39 330.75-407.35 569.15-705.92 736.76-488.8 274.38-1044.32 392.62-1595.62 392.62-4.03 0-8.08-.01-12.11-.02-221.89-.7-437.73-46.8-654.91-72.7 614.8 260.99 1282.71 397.19 1950.7 397.19 104.42 0 208.78-3.33 313.01-10.02 105.34-6.8 212.27-18.06 318.49-35.26 417.8-67.54 823.93-226.14 1073.07-558.23 229.21-305.48 288.96-710.13 418.56-1069.5-4.44 7.81-10.06 15.72-17.04 23.65-27.55 31.3-57.55 41.17-84.44 41.17-45.93 0-82.77-28.82-82.77-28.82l-132.29-116.71 158.42-179.97 134.09 118.3s47.65 47.44 36.84 107.65c65.46-173.58 149.35-335.32 279.32-468.48 132.89-136.17 302.71-228.81 472.86-314.81-58.36-77.91-105.86-165.91-139.53-262.57-31.24-89.7-48.58-180.88-53.15-271.21-22.29 5.45-44.66 10.18-68.53 10.18-2.22 0-4.45-.04-6.7-.12-49.47-1.88-93.6-20.43-139.86-36.86-68.94-24.49-153.34-49.43-209.83-91.84-16-12.02-31.05-24.91-45.67-38.19" style="fill:#b6dfd5;fill-opacity:1;fill-rule:nonzero;stroke:none" transform="matrix(.13333 0 0 -.13333 0 948.867)"/><path d="M8143.75 1244.57c16.32 27.77 31.28 56.52 44.72 86.27 37.34 82.7 63.54 173.53 125.38 239.85 84.1 90.08 214.6 115.4 335.34 140.14 266.34 54.65 342.88 84.85 597.89 179.17 89.91 33.21 295.68 200.77 351.37 278.76 145.19 203.27 94.02 484.42 106.34 627.4-1.08-143.5 38.85-424.13-106.34-627.4-55.69-77.99-261.46-245.55-351.37-278.76-255.01-94.32-331.55-124.52-597.89-179.17-120.74-24.74-251.24-50.06-335.34-140.14-61.84-66.32-88.04-157.15-125.38-239.85-13.44-29.75-28.4-58.5-44.72-86.27m1551.79 1794.68c-35.84 202.04-142.27 364.9-288.69 550.24.04.13.07.23.11.37 161.17-196.33 259.22-262.37 288.58-550.61" style="fill:#a6bbbb;fill-opacity:1;fill-rule:nonzero;stroke:none" transform="matrix(.13333 0 0 -.13333 0 948.867)"/><path d="M3495.03 352.27c-763.42 75.308-1510.15 243.601-2194.96 582.898-107.03 53.012-217.96 115.682-274.52 220.862-26.218 48.75-37.816 99.78-37.847 151.32-.105 176.96 136.107 360 285.247 477.7 85.49 67.49 183.11 131.78 271.33 204.55 113.66 93.73 211.81 201.58 248.45 348.4 9.91 39.67 14.29 79.41 14.32 119.14.05 60.64-10.07 121.27-26.23 181.58l1213.87-297.45c130.98-278.96 256.52-560.54 453.86-795.15 314.55-374.02 773.07-581.561 1258.27-681.972 4.17-2.707 8.35-5.398 12.54-8.078 218-138.902 476.27-214.679 730.79-214.679 243.92 0 484.4 69.648 682.44 220.089 14.98 11.372 29.63 23.11 44.03 35.192 18.77 7.047 37.32 14.5 55.71 22.367 2.66-33.578 7.57-64.23 15.2-91.019 0 0 124.16-78.942 614.85-97.11l-4.18-2.43c89.06-25.812 203.97-34.41 317.65-34.41 115.79 0 230.26 8.93 314.71 17.68-41.91-19.262-84.17-37.281-126.48-54.191-224.99-89.899-456.99-156.629-693.2-206.368-195.3-3.48-390.62-6.972-585.92-10.461-101.56-1.8-203.12-3.609-304.67-5.429-709.11-12.641-1418.21-25.289-2127.31-37.93-43.06-.781-88.16-4.41-127.33-17.68-14.94-5.062-25.16-15.3-30.62-27.421m3471.84 439.511c4.75 23.617 8.68 51.539 11.76 82.789 69.55 16.059 147.14 45.95 220.9 79.45l10.23-20.54c-75.42-43.968-156.34-91.242-242.89-141.699m20.1 285.109c-.08 34.38-.79 69.94-2.14 106.25l48.97-93.64c-16.95-4.9-32.69-9.19-46.83-12.61m219.67 112.33c-62.38 46.79-165.51 257.69-241.83 428.34 111.94 74.59 224.15 148.8 324.78 239.11 208.76 187.33 359.16 443.56 431.47 721.82l561.35-197.68 161.45 234.69c111.63 162.21 265.7 289.8 444.05 373.38 228.07 106.91 414.79 301.76 505.04 558.11 4.98 14.13 9.61 28.3 13.9 42.5 146.42-185.34 252.85-348.2 288.69-550.24 6.86-67.38 9.97-146.92 9.25-243.09-12.32-142.98 38.85-424.13-106.34-627.4-55.69-77.99-261.46-245.55-351.37-278.76-255.01-94.32-331.55-124.52-597.89-179.17-120.74-24.74-251.24-50.06-335.34-140.14-61.84-66.32-88.04-157.15-125.38-239.85-13.44-29.75-28.4-58.5-44.72-86.27-63.23 27.83-127.62 54.13-192.55 78.15h-.06l.03.01-21.29 32.91-235.5-126.72c.03.61.04 1.22.04 1.84 0 .64-.01 1.29-.03 1.94-.81 22.3-16.55 41.24-35.72 53.14-2.73 1.68-5.51 3.25-8.36 4.65-13.65 6.77-28.3 10.82-43.31 12.48-9.83 9.94-19.97 20.18-30.15 30.45l-20.3-26.11 5.71-6c-17.95-3.19-35.5-9.27-51.56-17.68-32.77-17.06-59.66-42.64-82.96-70.95-54.76-5.28-155.99-15.32-221.1-23.46" style="fill:#85ada9;fill-opacity:1;fill-rule:nonzero;stroke:none" transform="matrix(.13333 0 0 -.13333 0 948.867)"/><path d="M4680.8 37.129a5836.715 5836.715 0 0 0-434.19 16.191c-155.77 11.63-316.45 29.711-463.7 84.871-84.98 31.84-169.1 111.2-258.28 143.207-31.39 11.262-41.13 45.262-29.6 70.872 394.65-38.918 793.7-53 1190.91-53 147.02 0 293.92 1.929 440.1 5.242 517.01 11.707 1040.63 40.508 1544.84 146.679 42.99.758 85.97 1.528 128.96 2.297 410.44 7.321 820.88 14.653 1231.31 21.961l757.75 13.52c16.16-3.578 35.18-6.09 57.43-7.321 97.59-5.359 227.62-9.128 351.7-9.128 180.15 0 347.7 7.96 384.84 30.609l96.69 1.73c.39 0 .78.012 1.16.012 62.39 0 72-90.93 10.17-103.281l-2.12-.418c-296.9-58.492-598.32-94.043-900.68-106.192-193.13-7.761-388.86-6.3-576.03-54.492-114.09-29.367-222.84-76.699-336.43-107.879-202.52-55.59-415.24-58.59-625.23-61.21-85.81-1.079-171.68-2.141-257.57-2.141-199.3 0-398.52 5.754-596.12 30.543-145.61 18.277-290.62 46.91-437.38 47.179h-2.14c-140.07 0-278.73-25.691-417.29-46.308-284.3-42.32-571.68-63.543-859.1-63.543" style="fill:#e8e8e8;fill-opacity:1;fill-rule:nonzero;stroke:none" transform="matrix(.13333 0 0 -.13333 0 948.867)"/><path d="M4685.94 299.27c-397.21 0-796.26 14.082-1190.91 53 5.46 12.121 15.68 22.359 30.62 27.421 39.17 13.27 84.27 16.899 127.33 17.68 709.1 12.641 1418.2 25.289 2127.31 37.93 101.55 1.82 203.11 3.629 304.67 5.429 195.3 3.489 390.62 6.981 585.92 10.461-504.21-106.171-1027.83-134.972-1544.84-146.679-146.18-3.313-293.08-5.242-440.1-5.242" style="fill:#8aa8a5;fill-opacity:1;fill-rule:nonzero;stroke:none" transform="matrix(.13333 0 0 -.13333 0 948.867)"/><path d="m1572.83 5665.46-.01.02c11.73 14.45 23.67 28.74 35.79 42.83 238.58 277.43 546.5 487.73 869.93 658.99 123.18 65.22 249.14 125.1 377.38 179.58.02 0 .05 0 .08.01l-.06-.03c-128.23-54.48-254.2-114.35-377.38-179.57-323.43-171.27-631.35-381.56-869.93-658.99a1960.013 1960.013 0 0 1-35.8-42.84" style="fill:#fff;fill-opacity:1;fill-rule:nonzero;stroke:none" transform="matrix(.13333 0 0 -.13333 0 948.867)"/><path d="M5470.74 786.75c-62.38 0-124.54 1.828-185.98 5.02-192 9.949-387.04 32.878-577.94 72.378-419.92 273.332-698.37 745.772-838.63 1244.402-1.87 6.66-3.73 13.34-5.59 20.04l1921.86-470.93c16.31-4 32.64-5.91 48.7-5.91 88.11 0 167.78 57.53 188.43 143.37l183.29 761.81c33.07-2.3 66.12-4.31 98.32-4.31 5.3 0 10.58.06 15.83.17 38.39.86 75.31 5.7 110.96 13.78-25.21-45.65-40.9-103.02-40.89-174.66.01-14.73.67-30.05 2.06-46 .68-8.13 1.6-15.93 2.7-23.38-13.45-23.56-28.56-46.32-47.35-67.19-41.97-46.59-94.46-76.89-129.02-130.62-34-52.88-46.76-112.3-63.28-172.4-24.62-89.59-59.99-195.6-56.89-285.25 2.48-71.76 17.79-140.71 25.97-211.07 58.12 98.2 151.87 192.54 218.26 292.29 88.89 133.58 121.28 281.77 129.77 433.71 26.71-16.25 54.42-19.84 73.72-19.84 15.32 0 25.33 2.26 25.33 2.26s12.44 47.91 12.44 89.44c-103.09 63.36-62.44 122.54-37.76 139.96 5.87 4.14 14.2 5.72 23.5 5.72 29.78 0 69.42-16.23 69.42-16.23s93.9 1.64 295.72 74.24c201.81 72.6 145.67 337 145.67 337-16.14-37.28-79.04-71.32-112.33-83.69-5.63-2.15-10.44-3.65-13.99-4.41-68.31 21.34-128.49 31.75-185.45 31.75h-2.54c23.74 17.63 47.16 35.74 70.34 53.92-51.56-1.8-102.21-15.85-154.87-15.85-10.53 0-21.13.56-31.84 1.9-46.8 5.82-88.34 24.55-135.78 24.55-2.23 0-4.47-.05-6.72-.13-49.48-1.88-93.6-20.42-139.86-36.86-38.32-13.61-81.41-27.36-121.83-44.17l293.61 1220.38c154.78-71.19 325.68-122 493.45-179.5-26.69-24.26-51.95-49.83-78.93-73.73 14.25 1.07 28.84 1.51 43.69 1.51 36.66 0 74.87-2.71 113.25-5.43 38.4-2.71 76.98-5.43 114.4-5.43 5.29 0 10.56.06 15.8.17 3.63.08 7.26.2 10.86.35 61.74-26.31 121.81-55.38 179.06-88.69 54.24-31.58 106.92-68 153.21-111.2 4.27-9.76 8.7-19.44 13.29-29.06 22.51-47.14 41.7-95.6 57.45-145.04-125.54-122.66-234.72-261.4-322.2-419.83-197.3-357.3-267.05-790.35-409.48-1170.67a7807.052 7807.052 0 0 0-27.19 64.12c-34 97.82-77.76 162.26-131.92 165.78 0 28.93 10.86 98.57 10.86 98.57l-185.26 45.99-1.92-13-13.59-91.49c-1.72 4.23.63 7.15 1.11 7.68-2.56-.75-169.18-54.19-215.3-242.41-19.64-80.18-54.08-216.7-82.42-364.8-3.85-7.32-7.72-14.66-11.65-22-43.86-81.9-101.86-177.41-118.72-265.52-13.48-70.52-13.85-141.15-21.48-211.58 31.04 32.79 67.38 63.75 105.36 94.309.07-12.43.36-24.578.91-36.437-17.65-16.43-35.68-32.461-54.12-47.93-219.54-82.492-464.42-109.922-705.88-109.922M1575.19 4732.62c-11.71 1.27-23.63 5.11-35.73 12.01-32.7 18.65-44.81 55.07-44.8 99.68.05 116.23 82.48 288.06 97.88 346.06 22.14 83.37 33.05 165.74 33.05 240.42 0 58.54-6.71 112.35-19.98 158.22-8.34 28.92-19.27 54.67-32.78 76.45 11.73 14.45 23.68 28.75 35.8 42.84 238.58 277.43 546.5 487.72 869.93 658.99 123.18 65.22 249.15 125.09 377.38 179.57 217.24 25.93 433.08 72.03 654.97 72.73 4.03.01 8.08.02 12.11.02 551.3 0 1106.82-118.24 1595.62-392.62 298.57-167.61 580.53-406.01 705.92-736.76 33.59-88.64 55.18-181.7 71.18-276.65l-3533.07 634.87-273.88 49.19c-9.57 1.71-19.2 2.54-28.79 2.54-76.8 0-151.22-53.06-173.78-128.34l-64.41-215.23-163.9-547.72-18.17-60.63-17.13-57.21-47.42-158.43" style="fill:#dff1ec;fill-opacity:1;fill-rule:nonzero;stroke:none" transform="matrix(.13333 0 0 -.13333 0 948.867)"/><path d="M5450.15 641.391c-254.52 0-512.79 75.777-730.79 214.679-4.19 2.68-8.37 5.371-12.54 8.078 190.9-39.5 385.94-62.429 577.94-72.378 61.44-3.192 123.6-5.02 185.98-5.02 241.46 0 486.34 27.43 705.88 109.922-14.4-12.082-29.05-23.82-44.03-35.192-198.04-150.441-438.52-220.089-682.44-220.089m1514.66 976.169c-15.6 34.88-30.08 68.06-42.86 97.83 142.43 380.32 212.18 813.37 409.48 1170.67 87.48 158.43 196.66 297.17 322.2 419.83 34.29-107.7 52.19-220.03 52.2-333.27.01-26.6-.98-53.26-2.96-79.91l-20.68-276.45-1.74-23.47 40.61-14.3c-72.31-278.26-222.71-534.49-431.47-721.82-100.63-90.31-212.84-164.52-324.78-239.11" style="fill:#c8dad8;fill-opacity:1;fill-rule:nonzero;stroke:none" transform="matrix(.13333 0 0 -.13333 0 948.867)"/><path d="M6773.7 2043.86s-10.86-69.64-10.86-98.57c-14.75-3.82-28.69-6.5-41.75-8.24-101.23-13.76-151.23 27.59-151.23 27.59l16.66 112.21 1.92 13 185.26-45.99" style="fill:#ffc480;fill-opacity:1;fill-rule:nonzero;stroke:none" transform="matrix(.13333 0 0 -.13333 0 948.867)"/><path d="M6762.84 1945.29c-14.17.94-27.29 1.93-39.44 2.97-9.23.81-17.9 1.65-26.06 2.52-45.44 29.23-83.2 70.69-107.28 119.04-1.04 2.08-2.26 4.47-3.54 7.03l1.92 13 185.26-45.99s-10.86-69.64-10.86-98.57" style="fill:#d09b5e;fill-opacity:1;fill-rule:nonzero;stroke:none" transform="matrix(.13333 0 0 -.13333 0 948.867)"/><path d="M8846.33 481.648c-229.11 12.61-114.93 161.872-80.6 201.301 5.28 6.039 8.71 9.52 8.71 9.52s115.46 15.691 317.73-6.559c84.8-12.769 193.34-38.91 288.94-70.269 93.27-30.551 174.17-66.161 208.61-99.141 23.22-52.27-479.14-49.359-743.39-34.852" style="fill:#7c2c19;fill-opacity:1;fill-rule:nonzero;stroke:none" transform="matrix(.13333 0 0 -.13333 0 948.867)"/><path d="M2091.19 4789.93c-4.88-213.55-172.02-542.84-214.48-628.1-75.21-151.23-467.4-750.87-428.6-929.97 1.16-5.52 2.73-10.57 4.76-15.22l-99.02 40.76c-262.27 84.05-565.026 157.69-816.323 278.43-126.261 60.69-456.074 291.77-463.629 451.37-10.218 217.55 266.868 96.12 374.942 94.49 225.226-3.37 175.223 147.74 16.906 253.39-123.879 82.64-427.793 136.19-439.062 332.71-9.563 167.26 102.464 162.68 204.683 158.11 34.973-1.56 68.797-3.13 96.215 2.19 322.902 62.55-219.82 728.16-284.809 921.33-64.234 190.84-76.023 465.24 107.383 604.92 130.614 99.43 259.43 37.75 368.961-62.67 68.067-62.37 128.696-139.67 177.77-202.63 145.133-186.13 109.414-366.75 199.789-566.42 89.785-198.27 146.524-75.61 267.904 51.58l.99 1.04c238.92 249.79 388.76 191.66 440.04 13.77 30.2-104.36 26.42-249.91-13.07-398.64-21.31-80.26-170.97-378.49-53.08-445.74 119.88-68.3 219.24 163.2 323.02 220.23 11.91 6.62 23.88 10.86 35.95 12.08 147.81 15.16 195.49-67.95 192.76-187.01" style="fill:#82b71c;fill-opacity:1;fill-rule:nonzero;stroke:none" transform="matrix(.13333 0 0 -.13333 0 948.867)"/><path d="M1876.71 4161.83c-75.21-151.23-467.4-750.87-428.6-929.97-201.24 59.93-410.54 122.71-592.79 210.29-126.257 60.69-456.132 291.78-463.621 451.37-10.226 217.56 266.86 96.11 374.942 94.49 225.218-3.37 175.214 147.75 16.839 253.39-123.878 82.64-427.792 136.19-439 332.72-9.566 167.25 102.461 162.68 204.688 158.11 34.969-1.57 68.793-3.13 96.207 2.18 322.906 62.55-219.879 728.16-284.863 921.33-64.235 190.89-76.028 465.25 107.441 604.92 17.07 13.01 34.145 23.29 51.164 31.01 68.067-62.37 128.696-139.67 177.77-202.63 145.133-186.13 109.414-366.75 199.789-566.42 89.785-198.27 146.524-75.61 267.904 51.58l.99 1.04c11.67-47.86 26.36-96.47 48.9-146.3 89.72-198.26 146.52-75.61 267.84 51.58 44.14 46.29 85.26 82.06 123.3 108.49 30.2-104.36 26.42-249.91-13.07-398.64-21.31-80.26-170.97-378.49-53.08-445.74 119.88-68.3 219.24 163.2 323.02 220.23-42.51-117.78-84.85-268.49-5.23-313.85 85.38-48.67 160.36 54.71 233.94 138.92-4.88-213.55-172.02-542.84-214.48-628.1" style="fill:#90c125;fill-opacity:1;fill-rule:nonzero;stroke:none" transform="matrix(.13333 0 0 -.13333 0 948.867)"/><path d="m1363.43 3774.41 547.21 927-547.21-927" style="fill:#007b7c;fill-opacity:1;fill-rule:nonzero;stroke:none" transform="matrix(.13333 0 0 -.13333 0 948.867)"/><path d="M250.363 6107.01s1.137-1.75 3.379-5.22c34.738-53.89 331.426-518.48 619.211-1106.33 143.897-293.92 285.557-618.65 391.147-938.07 105.62-319.38 175.04-633.51 175-905.53 0-44.27-1.83-87.42-5.63-129.3l29.88-2.72c3.89 42.87 5.75 86.92 5.75 132.02-.04 286-74.95 614.16-186.9 946.05-335.966 995.4-1006.399 2024.91-1006.696 2025.47l-25.141-16.37" style="fill:#003e3e;fill-opacity:1;fill-rule:nonzero;stroke:none" transform="matrix(.13333 0 0 -.13333 0 948.867)"/><path d="m325.23 4580.45 815.1-166.36 6 29.39-815.1 166.36m738.64 21.96 291.75 788.32-28.14 10.41-291.75-788.32m282.46-712.01-770.081-10.34.403-30 770.078 10.34" style="fill:#003e3e;fill-opacity:1;fill-rule:nonzero;stroke:none" transform="matrix(.13333 0 0 -.13333 0 948.867)"/><path d="M7541.25 3883.14c-226.45-43.85-420.42-76.17-619.35-211.4-220.49-149.92-403.74-381.85-562.31-593.07-78.84-105.08-154.97-259.42-244.25-400.6-89.22-141.22-191.57-268.88-321.24-321a5.026 5.026 0 0 1-2.78-6.53 5.03 5.03 0 0 1 6.54-2.79c133.26 53.75 236.31 183.25 325.97 324.95 89.6 141.75 165.82 296.11 243.79 399.94 158.41 211.08 341.23 442.16 559.92 590.79 196.91 133.85 388.86 165.96 615.61 209.85 2.73.53 4.51 3.17 3.98 5.89a5.016 5.016 0 0 1-5.88 3.97" style="fill:#7a3520;fill-opacity:1;fill-rule:nonzero;stroke:none" transform="matrix(.13333 0 0 -.13333 0 948.867)"/><path d="M6952.62 3688.71c41.76 37 79.38 77.96 124.6 111.92 56.49 42.41 140.89 67.35 209.83 91.84 46.26 16.43 90.39 34.98 139.86 36.86 50.27 1.91 93.5-18.33 142.51-24.43 64.28-8 124.85 11.79 186.71 13.96-152.02-119.22-313.51-234.81-516.37-239.33-42.3-.94-86.37 2.16-130.2 5.26-53.93 3.82-107.5 7.63-156.94 3.92m-388.25-347.81c41.76 37 79.38 77.97 124.6 111.91 56.49 42.42 140.89 67.36 209.83 91.85 46.26 16.44 90.38 34.98 139.86 36.86 50.28 1.91 93.51-18.33 142.51-24.42 64.28-8.01 124.85 11.79 186.7 13.95-152.01-119.21-313.5-234.8-516.35-239.32-94.36-2.11-197.52 15.91-287.15 9.17" style="fill:#ef8812;fill-opacity:1;fill-rule:nonzero;stroke:none" transform="matrix(.13333 0 0 -.13333 0 948.867)"/><path d="M6309.11 2989.29c41.76 36.99 79.39 77.97 124.6 111.91 56.5 42.41 140.89 67.36 209.84 91.85 46.26 16.43 90.38 34.98 139.85 36.85 50.29 1.92 93.51-18.32 142.51-24.42 64.29-8 124.86 11.8 186.71 13.95-152.01-119.21-313.51-234.8-516.36-239.32-94.35-2.1-197.53 15.91-287.15 9.18" style="fill:#c17840;fill-opacity:1;fill-rule:nonzero;stroke:none" transform="matrix(.13333 0 0 -.13333 0 948.867)"/><path d="M6031.89 2561.97c41.76 36.99 79.38 77.97 124.6 111.92 56.48 42.41 140.89 67.35 209.83 91.84 46.26 16.44 90.38 34.98 139.86 36.86 50.27 1.91 93.5-18.33 142.5-24.42 64.29-8 124.85 11.79 186.71 13.95-152.01-119.22-313.5-234.8-516.36-239.33-42.31-.94-86.39 2.17-130.23 5.27-53.92 3.81-107.48 7.63-156.91 3.91" style="fill:#884a34;fill-opacity:1;fill-rule:nonzero;stroke:none" transform="matrix(.13333 0 0 -.13333 0 948.867)"/><path d="M6708.3 3475.33c44.06 34.22 91.26 63.64 132.96 101.82 52.1 47.71 92.18 126.06 128.97 189.31 24.68 42.44 51.03 82.38 62 130.66 11.14 49.07-.78 95.29 2.26 144.57 3.99 64.66 34.61 120.54 48.14 180.94-145.2-127.43-288.57-264.85-330.41-463.39-19.46-92.35-20.78-197.07-43.92-283.91" style="fill:#c17840;fill-opacity:1;fill-rule:nonzero;stroke:none" transform="matrix(.13333 0 0 -.13333 0 948.867)"/><path d="M6379.27 3092.05c33.45 44.65 71.2 85.51 101.33 133.35 37.65 59.78 55.59 145.93 74.35 216.65 12.59 47.45 27.46 92.95 25.28 142.41-2.22 50.26-25.93 91.69-36.03 140.02-13.23 63.42 1.53 125.4-1.37 187.23-106.38-161.26-208.34-331.68-196.22-534.23 5.63-94.21 32.03-195.56 32.66-285.43" style="fill:#884a34;fill-opacity:1;fill-rule:nonzero;stroke:none" transform="matrix(.13333 0 0 -.13333 0 948.867)"/><path d="M6152.82 2705.15c22.72 50.94 50.46 99.16 69.24 152.49 23.45 66.64 21.84 154.63 24.46 227.75 1.76 49.05 6.16 96.71-6.94 144.46-13.3 48.52-45.6 83.67-66.16 128.56-26.97 58.9-26.32 122.61-42.87 182.25-67.96-180.84-129.6-369.62-72.88-564.44 26.39-90.6 74.6-183.58 95.15-271.07" style="fill:#7a3520;fill-opacity:1;fill-rule:nonzero;stroke:none" transform="matrix(.13333 0 0 -.13333 0 948.867)"/><path d="m6762.89 4876.26-741.3-3081.14c-24.41-101.49-131.31-163.4-237.13-137.46L1167.21 2789.07c-88.38 21.66-138.12 113.99-110.85 205.07l830.39 2774.16c25.55 85.35 117.3 142.32 204.2 126.7l4525.02-813.26c103.37-18.57 169.67-110.99 146.92-205.48" style="fill:#0a4a58;fill-opacity:1;fill-rule:nonzero;stroke:none" transform="matrix(.13333 0 0 -.13333 0 948.867)"/><path d="m6721.9 4887.4-203.45-845.42-532.27-2212.43c-24.21-100.7-130.26-162.15-235.21-136.48L1172.16 2815.11c-87.63 21.49-136.94 113.07-109.94 203.5l5.87 19.58.06.23 554.46 1852.63 17.13 57.21 18.17 60.63 163.9 547.72 64.41 215.23c25.37 84.68 116.38 141.25 202.57 125.8l273.88-49.19 4213.51-757.15c18.18-3.25 35.26-8.82 50.82-16.38 72.25-34.67 113.42-110.4 94.9-187.52" style="fill:#ccc;fill-opacity:1;fill-rule:nonzero;stroke:none" transform="matrix(.13333 0 0 -.13333 0 948.867)"/><path d="m6721.9 4887.4-203.45-845.42-4089.28 813.48-240.08 47.73-531.18 105.7 163.9 547.72 64.41 215.23c25.37 84.68 116.38 141.25 202.57 125.8l273.88-49.19 4213.51-757.15c102.51-18.41 168.25-110.11 145.72-203.9" style="fill:#1393af;fill-opacity:1;fill-rule:nonzero;stroke:none" transform="matrix(.13333 0 0 -.13333 0 948.867)"/><path d="m5990.81 1848.82-4.63-19.26c-24.23-100.72-130.26-162.18-235.2-136.46L1172.15 2815.12c-87.65 21.48-136.96 113.09-109.91 203.49l5.18 17.29 4923.39-1187.08" style="fill:#0e6e83;fill-opacity:1;fill-rule:nonzero;stroke:none" transform="matrix(.13333 0 0 -.13333 0 948.867)"/><g clip-path="url(#a)" transform="matrix(.13333 0 0 -.13333 0 948.867)"><path d="M1068.09 2729.02h3385.05v659.391H1068.09Z" style="fill:#e6e6e6;fill-opacity:1;fill-rule:nonzero;stroke:none"/></g><path d="M1940.27 2676.77c-323.93-.01-651.21 107.08-861.43 348.75-2.78 3.18-5.53 6.39-8.22 9.61l1269.57-306.11c-66.14-16.46-133.12-29.63-201.05-38.83-65.43-8.86-132.1-13.42-198.87-13.42" style="fill:#87b7c1;fill-opacity:1;fill-rule:nonzero;stroke:none" transform="matrix(.13333 0 0 -.13333 0 948.867)"/><path d="m1068.09 3038.19.06.23 554.46 1852.63 17.13 57.21 18.17 60.63-200.12-668.69-389.7-1302.01M4413.45 4263.9c-25.69 50.02-59.96 94-106.95 127.87-64.57 46.54-144.86 65.59-225.07 65.59-21.89 0-43.77-1.42-65.32-4.09-100.53-12.43-196.12-49.59-290.44-86.47-106.34-41.53-216.25-55.6-328.14-55.6-181.8 0-368.74 37.18-553.46 54.15-94.26 8.59-192.58 21.25-270.29 75.27-126.72 88.1-159.53 257.15-144.61 414.84l2332.45-464-348.17-127.56" style="fill:#dbdbdb;fill-opacity:1;fill-rule:nonzero;stroke:none" transform="matrix(.13333 0 0 -.13333 0 948.867)"/><path d="m4761.62 4391.46-2332.45 464c2.38 25.43 6.04 50.52 10.74 74.97 33.75 176.03 107.27 348.11 95.48 526.93-9.58 144.9-76.31 281.5-172.72 391.09l-273.88 49.19c-9.57 1.71-19.2 2.54-28.79 2.54-76.8 0-151.22-53.06-173.78-128.34l-64.41-215.23 64.41 215.23c22.56 75.28 96.98 128.34 173.78 128.34 9.59 0 19.22-.83 28.79-2.54l273.88-49.19 4117.15-739.83-169.8-149.83-1548.4-567.33" style="fill:#57b2c6;fill-opacity:1;fill-rule:nonzero;stroke:none" transform="matrix(.13333 0 0 -.13333 0 948.867)"/><path d="m1068.09 3038.19 389.7 1302.01 200.12 668.69-200.12-668.69c40.7-30.72 77.58-66.44 109.35-106.34 138.87-174.52 171.44-407.35 220.87-624.79 21-92.42 48.7-187.54 88.6-274.65l-808.52-296.23" style="fill:#ededed;fill-opacity:1;fill-rule:nonzero;stroke:none" transform="matrix(.13333 0 0 -.13333 0 948.867)"/><path d="M4457.6 3223.24c-1.49 0-2.97.01-4.46.03 58.25 27.47 113.83 60.64 165.05 98.09-27.89-13.08-58.63-20.15-89.35-20.15-15.79 0-31.57 1.87-46.95 5.75-77.54 19.52-139.91 88.97-151.06 168.07-12.2 86.48 31.24 178.88-2.21 259.61-35.77 86.53-142.69 117.66-236.25 121.32-10.84.42-21.63.63-32.43.63-181.52 0-357.5-58.16-533.15-116.31-175.67-58.15-351-116.3-531.31-116.3-23.08 0-46.27.95-69.52 2.98-54.8 4.78-108.83 15.99-161.04 32.93l1648.53 604.01c54.97-107.08 70.57-241.87 87.2-364.73a3270.83 3270.83 0 0 1 64.06-338.94c12.42-51.05 27.06-103.61 61.21-143.45 13.61-15.87 35.74-30.45 60.43-40.82-21.67-19.06-44.46-37.28-68.16-54.6 26.93 12.66 51.14 30.91 70.05 53.81 6.8-2.77 13.78-5.23 20.82-7.31l-28.43-31.65c-5.26-5.85-.27-13.89 6.11-13.89 1.51 0 3.11.45 4.66 1.5l54.74 36.94c3.72-.29 7.4-.44 11.02-.45 14.16 0 27.31 2.35 38.28 7.63-100.47-71.22-221.48-144.7-337.84-144.7" style="fill:#bbc2c2;fill-opacity:1;fill-rule:nonzero;stroke:none" transform="matrix(.13333 0 0 -.13333 0 948.867)"/><path d="M2381.72 2988.78c-91.84 0-180.86 17.35-262.56 62.47-112.25 62.05-188.57 165.28-242.55 283.17l888.31 325.47c52.21-16.94 106.24-28.15 161.04-32.93 23.25-2.03 46.44-2.98 69.52-2.98 180.31 0 355.64 58.15 531.31 116.3 175.65 58.15 351.63 116.31 533.15 116.31 10.8 0 21.59-.21 32.43-.63 93.56-3.66 200.48-34.79 236.25-121.32 33.45-80.73-9.99-173.13 2.21-259.61 11.15-79.1 73.52-148.55 151.06-168.07 15.38-3.88 31.16-5.75 46.95-5.75 30.72 0 61.46 7.07 89.35 20.15-51.22-37.45-106.8-70.62-165.05-98.09-34.85.52-69.28 7.73-102.56 23.69-32 15.39-59.88 37.93-89.85 56.98-94.58 60.31-207.83 84.47-320.69 84.47-26.16 0-52.3-1.29-78.18-3.74-137.58-12.95-270.28-55.99-401.71-98.73-208.91-68.01-417.81-135.96-626.77-203.91-144.72-47.09-301.9-93.24-451.66-93.25" style="fill:#d2d9d9;fill-opacity:1;fill-rule:nonzero;stroke:none" transform="matrix(.13333 0 0 -.13333 0 948.867)"/><path d="M2764.92 3659.89c-187.01 60.66-350.59 194.72-441.62 369.43-137.18 263.14-107.33 575.94-134.21 873.87l240.08-47.73c-14.92-157.69 17.89-326.74 144.61-414.84 77.71-54.02 176.03-66.68 270.29-75.27 184.72-16.97 371.66-54.15 553.46-54.15 111.89 0 221.8 14.07 328.14 55.6 94.32 36.88 189.91 74.04 290.44 86.47 21.55 2.67 43.43 4.09 65.32 4.09 80.21 0 160.5-19.05 225.07-65.59 46.99-33.87 81.26-77.85 106.95-127.87l-1648.53-604.01" style="fill:#c8d0cf;fill-opacity:1;fill-rule:nonzero;stroke:none" transform="matrix(.13333 0 0 -.13333 0 948.867)"/><path d="m2429.17 4855.46-240.08 47.73c-11.33 125.33-32.7 248.05-80.73 363.27-29.68 71.03-69.81 138.86-125.97 191.54-46.58 43.73-101.52 74.97-160.58 98.61l64.41 215.23c22.56 75.28 96.98 128.34 173.78 128.34 9.59 0 19.22-.83 28.79-2.54l273.88-49.19c96.41-109.59 163.14-246.19 172.72-391.09 11.79-178.82-61.73-350.9-95.48-526.93-4.7-24.45-8.36-49.54-10.74-74.97" style="fill:#53abbc;fill-opacity:1;fill-rule:nonzero;stroke:none" transform="matrix(.13333 0 0 -.13333 0 948.867)"/><path d="M1876.61 3334.42c-39.9 87.11-67.6 182.23-88.6 274.65-49.43 217.44-82 450.27-220.87 624.79-31.77 39.9-68.65 75.62-109.35 106.34l200.12 668.69 531.18-105.7c26.88-297.93-2.97-610.73 134.21-873.87 91.03-174.71 254.61-308.77 441.62-369.43l-888.31-325.47" style="fill:#d8e0df;fill-opacity:1;fill-rule:nonzero;stroke:none" transform="matrix(.13333 0 0 -.13333 0 948.867)"/><path d="m2189.09 4903.19-531.18 105.7 163.9 547.72c59.06-23.64 114-54.88 160.58-98.61 56.16-52.68 96.29-120.51 125.97-191.54 48.03-115.22 69.4-237.94 80.73-363.27" style="fill:#9dced6;fill-opacity:1;fill-rule:nonzero;stroke:none" transform="matrix(.13333 0 0 -.13333 0 948.867)"/><path d="M6231.47 2617.7c-211.06-638.72-911-313.44-1347.21-430.87-235.15-63.3-86.65-170.58 59.88-226.79 155.93-59.82 362.46-77.25 338.24-301.02-56.57-523.03-881.78-3.48-1133.37-9.34-252.98-5.93-383.53-227.2-135.95-374.54 112.37-66.91 257.1-44.66 346.19-158.55 93.27-119.168 83.17-294.449-32.17-393.289-277.84-238.231-760.81-13.77-1074.54-12.25-240.49 1.16-672 42.969-873.12-86.77-73 81.649-103.49 223.469-109.76 378.999-9.47 232.02 34.85 494.64 71.55 633.79 79.33 300.72 179.92 697.79 398.7 959.54 53.54 64.18 114.23 120.17 183.46 164.65 67.77 43.56 118.36 57.38 155.58 50.35 120.63-22.7 102.45-262.91 80.97-416.29-33.75-240.5 68.87-289.45 219.29-75.85 160.41 227.66 166.91 527.28 338.53 758.08 7.55 10.1 15.56 20.26 24.16 30.25v.06c128.11 150.36 361.93 277.43 466.53 26.13 1.33-3.19 2.67-6.44 3.95-9.75 45.24-116.56-90.84-367.1 75.44-428.72 132.06-48.9 383.13 238.11 483.31 305.42 230.91 155.3 479.54 216.51 746.34 186.02 45.36-5.16 91.24-13 137.64-23.46 240.15-54.18 682.17-225.69 576.36-545.8" style="fill:#ef7f8f;fill-opacity:1;fill-rule:nonzero;stroke:none" transform="matrix(.13333 0 0 -.13333 0 948.867)"/><path d="M5674.74 2827.06c-201.52-609.8-869.81-299.21-1286.22-411.36-224.52-60.46-82.76-162.78 57.15-216.5 148.91-57.09 346.02-73.76 322.9-287.42-54.01-499.29-841.81-3.31-1082.02-8.89-241.48-5.63-366.17-216.91-129.74-357.58 107.27-63.88 245.43-42.62 330.45-151.34 89.09-113.83 79.39-281.1-30.66-375.53-265.29-227.42-726.42-13.13-1025.92-11.67-147.4.69-369.83 17.42-561.02-3.49-9.47 232.02 34.85 494.64 71.55 633.79 79.33 300.72 179.92 697.79 398.7 959.54-24.57-213.72 71.95-252.62 211.74-54.24 57.96 82.3 94.9 174.52 127.3 269.24 120.63-22.7 102.45-262.91 80.97-416.29-33.75-240.5 68.87-289.45 219.29-75.85 160.41 227.66 166.91 527.28 338.53 758.08 7.55 10.1 15.56 20.26 24.16 30.25-10.11-89.09-9.12-174.46 77.18-206.4 101.06-37.41 275 131.08 389.35 232.59 1.33-3.19 2.67-6.44 3.95-9.75 45.24-116.56-90.84-367.1 75.44-428.72 132.06-48.9 383.13 238.11 483.31 305.42 230.91 155.3 479.54 216.51 746.34 186.02 124.87-85.95 208.61-204.61 157.27-359.9" style="fill:#f99ca6;fill-opacity:1;fill-rule:nonzero;stroke:none" transform="matrix(.13333 0 0 -.13333 0 948.867)"/><path d="m6396.65 4564.23-718.22 136.37 4.14 16.44 718.15-136.13-4.07-16.68" style="fill:#0a4a58;fill-opacity:1;fill-rule:nonzero;stroke:none" transform="matrix(.13333 0 0 -.13333 0 948.867)"/><path d="M5576.06 2788.68c-.17.01-4.76.17-13.52.17-87.91.01-596.09-16.38-1274.61-371.56C3609.4 2062.16 2760.92 1368.2 1992.52 14.809L2018.61 0c765.97 1348.95 1609.9 2038.21 2283.23 2390.72 673.34 352.46 1176.45 368.13 1260.7 368.13 4.19 0 7.34-.04 9.43-.08 1.04-.01 1.82-.03 2.32-.05l.69-.02 1.08 29.98" style="fill:#293f21;fill-opacity:1;fill-rule:nonzero;stroke:none" transform="matrix(.13333 0 0 -.13333 0 948.867)"/><path d="M5088.71 1710.85c-276.47 99.88-556.59 200.82-849.99 235.93-66.7 7.97-134.35 12.25-202.02 12.25-230.08 0-460.58-49.5-654.57-172.24l10.69-16.9c189.91 120.2 416.61 169.15 643.88 169.15 66.83 0 133.69-4.24 199.65-12.12 290.37-34.7 569.11-134.97 845.57-234.88l6.79 18.81M3964.04 3031.41c-28.47-346.09-118.07-687.07-263.39-1002.45l18.17-8.37c146.3 317.52 236.49 660.75 265.15 1009.18l-19.93 1.64m-1173.49-710.79c22.72-135.88 33.99-273.62 33.99-411.38.01-307.68-56.22-615.45-166.56-902.65l18.67-7.18c111.24 289.55 167.89 599.71 167.89 909.83 0 138.85-11.35 277.69-34.26 414.68l-19.73-3.3m101.83-1069.39c13.39 11.32 29 18.55 46.24 23.01 17.23 4.44 36.04 6.04 55.24 6.03 15.45 0 31.14-1.02 46.48-2.32 352.47-29.92 699.79-119.91 1022.45-264.88l8.2 18.24c-324.74 145.9-674.23 236.45-1028.96 266.57-15.6 1.32-31.84 2.39-48.17 2.39-20.29 0-40.73-1.64-60.23-6.67-19.49-5.02-38.1-13.49-54.17-27.11l12.92-15.26" style="fill:#293f21;fill-opacity:1;fill-rule:nonzero;stroke:none" transform="matrix(.13333 0 0 -.13333 0 948.867)"/><path d="m4745.67 5572.47-36.35-136.89c-3.84-14.34-19.46-23.81-34.74-21.08l-810.8 145.95c-14.75 2.67-23.7 16.37-19.81 30.48l13.02 47.05 24.09 87.34c3.84 14.06 19.11 23.41 33.92 20.79l792.63-139.73 17.19-3.02c15.22-2.72 24.63-16.61 20.85-30.89" style="fill:#666;fill-opacity:1;fill-rule:nonzero;stroke:none" transform="matrix(.13333 0 0 -.13333 0 948.867)"/><path d="m6789.55 4990.1-908.66-801.8-714.57-630.54-51.05 57.96-.58.7-64.35 73.11-78.17 88.74 702.96 620.32 17.71 15.57 902.56 796.46 92.58-105.12 44.43-50.47 24.62-27.99 32.52-36.94" style="fill:#808183;fill-opacity:1;fill-rule:nonzero;stroke:none" transform="matrix(.13333 0 0 -.13333 0 948.867)"/><path d="m6613.29 5190.36 158.42-179.97 134.09 118.3s81.6 81.26 6.99 166.03c-74.62 84.77-167.21 12.35-167.21 12.35l-132.29-116.71" style="fill:#000b11;fill-opacity:1;fill-rule:nonzero;stroke:none" transform="matrix(.13333 0 0 -.13333 0 948.867)"/><path d="m4792.84 3461.15-112.21-124.94c-6.51-7.25 2.69-17.84 10.77-12.39l144.89 97.8-43.45 39.53" style="fill:#808183;fill-opacity:1;fill-rule:nonzero;stroke:none" transform="matrix(.13333 0 0 -.13333 0 948.867)"/><path d="m5692.82 4414.15 188.06-225.89-714.54-630.52-194.93 221.4 721.41 635.01" style="fill:#000b11;fill-opacity:1;fill-rule:nonzero;stroke:none" transform="matrix(.13333 0 0 -.13333 0 948.867)"/><path d="M9392.95 3546.99c-90.25-256.35-276.97-451.2-505.04-558.11-178.35-83.58-332.42-211.17-444.05-373.38l-161.45-234.69-601.96 211.98 1.74 23.47 20.68 276.45c14.34 192.22-23.64 384.28-106.69 558.22-106.68 223.48-128.7 487.43-40.89 739.55 176.85 507.76 735.6 776.77 1242.78 598.19 65.34-23.01 126.67-52.27 183.58-87 384.82-234.05 566.89-712.84 411.3-1154.68" style="fill:#ce9515;fill-opacity:1;fill-rule:nonzero;stroke:none" transform="matrix(.13333 0 0 -.13333 0 948.867)"/><path d="M9318.03 3597.52c-90.24-256.42-276.96-451.2-505.03-558.11-178.29-83.64-332.43-211.18-444.05-373.44l-161.46-234.69-525.3 184.98 20.68 276.45c14.34 192.22-23.64 384.28-106.69 558.22-106.68 223.48-128.7 487.43-40.89 739.55 176.85 507.76 735.6 776.77 1242.78 598.19 65.34-23.01 126.67-52.27 183.58-87 332.84-247.87 481.46-692.1 336.38-1104.15" style="fill:#f4d242;fill-opacity:1;fill-rule:nonzero;stroke:none" transform="matrix(.13333 0 0 -.13333 0 948.867)"/><path d="m8356.75 2493.55-135.72-295.03c-32.18-76.2-124.98-112.56-208.1-83.29l-240.78 84.73-52.73 18.59c-83.17 29.27-132.65 115.75-109.94 195.31l81.08 309.49 592.78-204.49 73.41-25.31" style="fill:#59595b;fill-opacity:1;fill-rule:nonzero;stroke:none" transform="matrix(.13333 0 0 -.13333 0 948.867)"/><path d="m8356.75 2493.55-135.72-295.03c-32.18-76.2-124.98-112.56-208.1-83.29l-240.78 84.73c49.6-11.21 100.19-18 151-20.03 50.29-1.98 102.74.99 147.22 24.5 59.71 31.6 95.19 94.14 127.49 153.44 24.61 45.25 48.89 114.71 85.48 160.99l73.41-25.31" style="fill:#434344;fill-opacity:1;fill-rule:nonzero;stroke:none" transform="matrix(.13333 0 0 -.13333 0 948.867)"/><path d="M8250.82 2383.43c-188.46 57.44-371.45 132.57-560 189.74-16.73 5.07-23.98-19.42-7.98-25.66 183.63-71.6 373.97-125.68 557.72-197.03 20.62-8.01 31.7 26.42 10.26 32.95m-28.39-80.66c-188.47 57.45-371.46 132.58-560 189.75-16.74 5.08-23.99-19.42-8-25.65 183.63-71.61 373.98-125.7 557.73-197.05 20.62-7.99 31.69 26.42 10.27 32.95" style="fill:#808183;fill-opacity:1;fill-rule:nonzero;stroke:none" transform="matrix(.13333 0 0 -.13333 0 948.867)"/><path d="M8690.75 3543.69c9.78 22.24 23.73 42.61 38.92 61.46 6.88 8.54 14.52 16.15 23.11 22.96.67.53 3.48 2.34 6.22 3.83-.28-1.59-.37-3.92-1.28-7.02-16.69-56.75-42.46-115.26-78.52-162.27-4.47-5.83-9.3-11.32-14.41-16.5 3.67 33.76 12.52 66.98 25.96 97.54m-165.8 213.93c-5.8-22.69-20.44-48.05-26.37-60.95-10.81-23.56-23.58-46.21-37.59-68.07 10.77 48.92 31.54 95.65 63.96 129.02m181.43-494.36c-21.91 31.98-34.9 68.32-40.41 105.99 47.78 29.38 81.91 79.51 106.11 128.75 14.8 30.1 26.95 61.24 38.58 92.67 11.22 30.3 16.33 57.59-2.81 85.64-17.04 25.02-53.14 20.57-76.58 10.38-27.04-11.76-47.81-39.3-64.77-62.34-34.25-46.55-53.64-102.55-62.39-159.21-3.05-19.77-4.25-39.79-3.78-59.78-16.63-5.6-34.25-8.48-52.4-7.96-55.82 1.62-83.72 43.94-91.88 94.88-1.35 8.37-2.34 17.1-3.02 26.05 7.67 9.18 15.16 18.42 22.34 27.64 34.98 44.81 63.15 94.72 86.2 146.58 19.12 42.98 38.98 95.38 5.66 136.56-10.71 13.23-28.32 12.28-41.11 3.38-92.53-64.35-129.33-179.96-130.01-289.71-20.03-22.17-41.67-42.88-64.44-62.29-25.03-21.36-69.36-52.29-103.62-34.32-31.87 16.73-43.9 68.37-51.41 100.34-5.51 23.44-7.93 47.25-8.04 71.14 8.23 9.73 16.2 19.7 23.89 29.91 30.26 40.13 54.85 84.4 75.22 130.26 17 38.28 37.74 93.17 1.31 127.2-10.61 9.9-29.32 15.84-41.18 3.39-67.44-70.86-107.21-160.65-114.77-258.23-.26-3.31-.36-6.64-.53-9.96-49.54-57.31-110.95-104.89-177.63-140.27-29.93-15.88-7.86-62.62 22.79-47.55 58.49 28.77 111.81 66.04 158.82 110.33 2.81-18.51 6.85-36.8 12.11-54.61 14.41-48.86 36.82-97.76 86.48-118.32 46.38-19.2 98.78 7.03 136.57 32.55 18.13 12.26 35.24 26.54 51.43 42 10.16-45.05 33.26-86.08 76.51-108.47 39.8-20.62 84.94-21.89 127.33-11 8.06-41.27 23.18-81.21 44.53-117.2 24.36-41.11 81.87-3.79 54.9 35.58" style="fill:#fff;fill-opacity:1;fill-rule:nonzero;stroke:none" transform="matrix(.13333 0 0 -.13333 0 948.867)"/><path d="M8806.17 3379.93c-202.59-263.62-409.79-523.95-623.57-778.6-25.6-30.49 20.96-71.08 46.47-40.6 213.56 255.23 420.21 515.88 617.58 783.84 20.37 27.64-19.26 62.97-40.48 35.36m-881.44 331.57c-29.05-331.21-63.76-662.11-107.08-991.77-5.19-39.47 55.9-48.66 61.01-9.23 42.82 330.02 76.89 660.91 99.23 992.95 2.3 34.25-50.12 42.74-53.16 8.05" style="fill:#fff;fill-opacity:1;fill-rule:nonzero;stroke:none" transform="matrix(.13333 0 0 -.13333 0 948.867)"/><path d="M8622.06 3047.71a14977.91 14977.91 0 0 1 126.37 165.11 807.665 807.665 0 0 1 108.33 63.87c166.62 80.18 302.74 223.79 369.01 411.99 66.08 187.64 50.32 384.19-28.72 550.76l48.76 39.28c101.59-200.93 124.22-441.45 43.51-670.68-107.33-304.77-369.63-510.62-667.26-560.33m-9.37 83.4-1.68 29.51a810.06 810.06 0 0 1 32.57 9.8c-10.28-13.11-20.58-26.22-30.89-39.31" style="fill:#fae9a5;fill-opacity:1;fill-rule:nonzero;stroke:none" transform="matrix(.13333 0 0 -.13333 0 948.867)"/><path d="m8617.48 3046.95-4.79 84.16c10.31 13.09 20.61 26.2 30.89 39.31a802.702 802.702 0 0 1 104.85 42.4 14977.91 14977.91 0 0 0-126.37-165.11c-1.53-.26-3.04-.51-4.58-.76" style="fill:#fff;fill-opacity:1;fill-rule:nonzero;stroke:none" transform="matrix(.13333 0 0 -.13333 0 948.867)"/><path d="M6993.7 2514.3s61.17-540.33-337.09-467.37c-20.11 3.69-39.27 12.36-54.17 26.35-23.87 22.41-36.58 54.36-30.77 134.21-7.74 25.17-91.95 113.74-91.95 113.74l66.79 124.86 349.91 92.92 97.28-24.71" style="fill:#ffc480;fill-opacity:1;fill-rule:nonzero;stroke:none" transform="matrix(.13333 0 0 -.13333 0 948.867)"/><path d="M9092.17 685.91c-96.76-31.019-301.99 0-301.99 0-226.62 97.27-793.68 243.93-838.98 251.641-45.36 7.73-325.75-209.071-325.75-209.071s-500.09-77.41-767.25 0a67727.07 67727.07 0 0 1 64.35 37.461c601.85 350.719 946.36 556.779 1028.65 556.779 412.17-152.46 803.49-397.419 1006.18-537.732 68.99-47.738 116.15-83.34 134.79-99.078" style="fill:#002a45;fill-opacity:1;fill-rule:nonzero;stroke:none" transform="matrix(.13333 0 0 -.13333 0 948.867)"/><path d="M6933.69 2457.55c-201.82-72.6-295.72-74.24-295.72-74.24s-68.23 27.94-92.92 10.51c-24.68-17.42-65.33-76.6 37.76-139.96 0-41.53-12.44-89.44-12.44-89.44s-139.9-31.65-173.7 141.64c-2.38 12.2-4.3 25.5-5.51 39.85-18.88 217.78 95.82 318.9 207.61 360.54 111.8 41.64 216.52 43.03 354.27 0 3.55.76 8.36 2.26 13.99 4.41 33.29 12.37 96.19 46.41 112.33 83.69 0 0 56.14-264.4-145.67-337" style="fill:#000b11;fill-opacity:1;fill-rule:nonzero;stroke:none" transform="matrix(.13333 0 0 -.13333 0 948.867)"/><path d="M5345.47 3057.01c220.76-193.13 410.82-351.01 541.3-623.67 144.97-302.85 197.87-673.28 236.76-1006.11 8.53-73 10.3-156.85 10.3-246.19 0-62.08-.85-126.8-.85-192.419 0-125.461 3.09-254.172 21.26-373.98 18.18-119.801 51.42-230.789 112.11-320.582 2.01-2.969 6.04-3.75 9-1.739 2.97 2 3.75 6.032 1.74 9-59.15 87.45-92.04 196.578-110.03 315.258-18 118.672-21.12 246.801-21.12 372.043 0 65.509.85 130.229.85 192.419 0 89.51-1.75 173.77-10.39 247.69-38.97 333.09-91.79 704.74-237.93 1010.2-131.85 275.52-324.02 434.95-544.46 627.83a6.478 6.478 0 0 1-9.15-.61c-2.36-2.69-2.08-6.79.61-9.14" style="fill:#1d5260;fill-opacity:1;fill-rule:nonzero;stroke:none" transform="matrix(.13333 0 0 -.13333 0 948.867)"/><path d="M6079.22 1847.34c-22.17 67.29-37.26 136.29-65.18 202.44-34.88 82.64-111.54 163.95-171.54 234.89-40.25 47.6-76.81 96.14-129.9 129.82-53.94 34.23-114.31 39.66-171.97 64.28-75.66 32.31-129.45 92.74-195.94 134.65 90.59-227.97 193.91-458.01 413.6-592.62 102.18-62.61 226.9-108.79 320.93-173.46" style="fill:#e8b338;fill-opacity:1;fill-rule:nonzero;stroke:none" transform="matrix(.13333 0 0 -.13333 0 948.867)"/><path d="M6134.56 1298.4c-22.16 67.28-37.26 136.28-65.17 202.43-34.88 82.65-111.54 163.95-171.53 234.89-40.26 47.6-76.83 96.15-129.91 129.83-53.94 34.23-114.31 39.66-171.97 64.27-75.65 32.32-129.46 92.75-195.95 134.65 90.6-227.97 193.92-458 413.62-592.61 102.17-62.61 226.89-108.79 320.91-173.46" style="fill:#adbf60;fill-opacity:1;fill-rule:nonzero;stroke:none" transform="matrix(.13333 0 0 -.13333 0 948.867)"/><path d="M6165.64 652.34c-22.17 67.289-37.27 136.281-65.18 202.441-34.88 82.641-111.54 163.939-171.53 234.889-40.26 47.6-76.83 96.14-129.9 129.82-53.95 34.23-114.32 39.65-171.98 64.28-75.65 32.31-129.46 92.74-195.94 134.65 90.59-227.97 193.91-458.01 413.61-592.619 102.18-62.61 226.89-108.789 320.92-173.461" style="fill:#30736d;fill-opacity:1;fill-rule:nonzero;stroke:none" transform="matrix(.13333 0 0 -.13333 0 948.867)"/><path d="M6007.21 2086.83c-26.47 65.71-59.45 128.16-80.81 196.72-26.68 85.64-20.57 197.22-20.5 290.13.04 62.34-3.35 123.01 15.47 183 19.13 60.96 61.76 104.05 89.92 160.07 36.95 73.49 39.07 154.37 62.82 229.3 77.88-232.62 147.37-475.04 66.37-719.63-37.66-113.76-103.15-229.51-133.27-339.59" style="fill:#adbf60;fill-opacity:1;fill-rule:nonzero;stroke:none" transform="matrix(.13333 0 0 -.13333 0 948.867)"/><path d="M6123.29 1456c-8.18 70.36-23.49 139.31-25.97 211.07-3.1 89.65 32.27 195.66 56.89 285.25 16.52 60.1 29.28 119.52 63.28 172.4 34.56 53.73 87.05 84.03 129.02 130.62 55.06 61.12 78.47 138.57 121.18 204.54 13.64-244.93 16.6-497.09-126.14-711.59-66.39-99.75-160.14-194.09-218.26-292.29" style="fill:#30736d;fill-opacity:1;fill-rule:nonzero;stroke:none" transform="matrix(.13333 0 0 -.13333 0 948.867)"/><path d="M6124.47 886.73c7.63 70.43 8 141.06 21.48 211.58 16.86 88.11 74.86 183.62 118.72 265.52 29.43 54.95 55.06 110.06 99.94 154.08 45.62 44.74 103.52 62.65 154.77 98.77 67.24 47.38 107.24 117.72 163.52 172.58-41.01-241.86-94.03-488.4-280.79-665.9-86.86-82.57-199.19-153.758-277.64-236.63" style="fill:#1d5260;fill-opacity:1;fill-rule:nonzero;stroke:none" transform="matrix(.13333 0 0 -.13333 0 948.867)"/><path d="M9092.17 685.91c-96.76-31.019-301.99 0-301.99 0-226.62 97.27-793.68 243.93-838.98 251.641-45.36 7.73-325.75-209.071-325.75-209.071s-500.09-77.41-767.25 0a67727.07 67727.07 0 0 1 64.35 37.461c60.8 2.559 123.41-.121 179.46 3.719 215.46 14.801 427.09 87.93 604.52 211.34 83.04 57.72 163.88 128.29 263.89 143.5 137.99 21.03 265.07-68.06 386.04-137.75 184.28-106.23 389.93-174.992 600.92-201.762 68.99-47.738 116.15-83.34 134.79-99.078" style="fill:#002034;fill-opacity:1;fill-rule:nonzero;stroke:none" transform="matrix(.13333 0 0 -.13333 0 948.867)"/><path d="M6866.78 1847.44s231.46-576.91 339.86-658.22c92.92 11.61 259.41 27.1 259.41 27.1l77.18-81.31-472.1-116.89-397.23 759.6 192.88 69.72" style="fill:#a33a2e;fill-opacity:1;fill-rule:nonzero;stroke:none" transform="matrix(.13333 0 0 -.13333 0 948.867)"/><path d="M6947.23 728.48c-561.42 11.622-699.7 99.54-699.7 99.54-8.37 29.39-13.47 63.429-15.92 100.878-16.67 251.942 86.65 656.502 127.13 821.732 46.12 188.22 212.74 241.66 215.3 242.41-1.57-1.75-23.7-29.68 149.36-44.78 12.15-1.04 25.27-2.03 39.44-2.97 222.14-14.45 269.59-1054.2 184.39-1216.81" style="fill:#f06b5c;fill-opacity:1;fill-rule:nonzero;stroke:none" transform="matrix(.13333 0 0 -.13333 0 948.867)"/><path d="M6947.23 728.48c-561.42 11.622-699.7 99.54-699.7 99.54-8.37 29.39-13.47 63.429-15.92 100.878 18.94 1.864 38.86 6.223 51.52 20.274 27.41 30.656 1.79 79.038 7.84 119.698 7.43 50.14 63.04 78.34 114.59 78.34 4.45 0 8.87-.21 13.23-.64 54.77-5.28 104.6-33.28 157.74-47.68 17.83-4.85 37.07-7.71 56-7.71 8.49 0 16.92.57 25.14 1.8 69.64-126.121 153.22-230.351 239.28-230.351 2.36 0 4.74.082 7.11.242 23.29 1.57 48.36 5.649 74.57 11.699-6.63-67.25-17.17-118.929-31.4-146.09m-3.55 340.23c-28.24 90.86-138.89 371.58-249.12 568.19-4.03 108.11 2.93 215.93 28.84 311.36 12.15-1.04 25.27-2.03 39.44-2.97 153.15-9.96 223.26-507.19 224.13-868.4-17.01-4.13-31.69-7-43.29-8.18" style="fill:#da5d4f;fill-opacity:1;fill-rule:nonzero;stroke:none" transform="matrix(.13333 0 0 -.13333 0 948.867)"/><path d="M7576.85 1333.42c59.33-59.84 117.55-119.03 117.55-119.03l-30.89-19.36-106.96 112.28 20.3 26.11" style="fill:#000b11;fill-opacity:1;fill-rule:nonzero;stroke:none" transform="matrix(.13333 0 0 -.13333 0 948.867)"/><path d="m7556.55 1307.31-119.53 125.46 15.48 23.6c2.92-.97 64.2-62.3 124.35-122.95" style="fill:#808183;fill-opacity:1;fill-rule:nonzero;stroke:none" transform="matrix(.13333 0 0 -.13333 0 948.867)"/><path d="m7439.21 1435.01 13.58 19.37s-14.35 13.38-22.22 5.58c-7.86-7.8-5.08-13.44 8.64-24.95" style="fill:#000b11;fill-opacity:1;fill-rule:nonzero;stroke:none" transform="matrix(.13333 0 0 -.13333 0 948.867)"/><path d="M7504.4 1118.07s-379.85-240.371-600.34-255.199c-220.5-14.832-426.94 667.539-426.94 667.539s-90.21 303.38 36.37 310.28l.75.07c127.7 5.7 384.23-626.57 429.44-772.05 88.1 8.96 353.62 115.57 475.01 126.69 1.11.08 2.21.21 3.26.28 27.74-42.17 82.45-77.61 82.45-77.61" style="fill:#f3897d;fill-opacity:1;fill-rule:nonzero;stroke:none" transform="matrix(.13333 0 0 -.13333 0 948.867)"/><path d="M6896.95 862.629c-217.81 0-419.83 667.781-419.83 667.781s-31.18 104.85-31.16 192.68c.02 61.56 15.37 114.76 67.53 117.6-10.26-72.93-41.26-158.41-38.8-203.62 9.81-179.22 96.46-349.3 192.47-497.12 63.94-98.33 146.98-201.552 263.46-214.95a223.234 223.234 0 0 1 25.84-1.488c111 0 208.95 81.468 298.05 152.228 50.75 40.35 103.19 78.7 157.06 114.89-2.68-6.02-2.98-12.44-.37-22.57.53-2.09 1.11-4.42 1.75-6.91 3.2-12.13 7.55-27.59 13.35-36.76 8.39-13.36 23.75-17.72 40.13-18.14l-270.27-145.449 3.37-6.781c-101.57-46.122-210.38-85.43-295.47-91.149-2.37-.16-4.75-.242-7.11-.242" style="fill:#d0675b;fill-opacity:1;fill-rule:nonzero;stroke:none" transform="matrix(.13333 0 0 -.13333 0 948.867)"/><path d="m7196.16 960.801 19.38-38.942 735.63 400.871-21.29 32.91-733.72-394.839" style="fill:#0a4a58;fill-opacity:1;fill-rule:nonzero;stroke:none" transform="matrix(.13333 0 0 -.13333 0 948.867)"/><path d="M7951.2 487.461c-61.79-113.25-405.78-200.359-574.19-217.781-177.14-75.508-749.19-162.621-1045.39-17.418-296.19 145.179-84.09 575.758-84.09 575.758l370.59-55.231 291.31-43.379s214.94 19.399 551.78 45.531c30.67 2.379 60.35 2.899 88.86 1.68 284.81-11.32 457.24-186.25 401.13-289.16" style="fill:#005390;fill-opacity:1;fill-rule:nonzero;stroke:none" transform="matrix(.13333 0 0 -.13333 0 948.867)"/><path d="M7694.39 1232.7c.98-27.7-20.74-50.87-43.27-67.19-28.17-20.39-60.05-35.61-93.56-44.79-20.61-5.62-41.76-8.93-62.84-12.24-24.56-3.84-55.18-5.18-68.42 15.91-5.8 9.17-10.15 24.63-13.35 36.76-.64 2.49-1.22 4.82-1.75 6.91-5.16 20.04 1.05 25.55 14.58 42.23 23.76 29.26 51.23 55.81 84.92 73.34 42.85 22.42 96.28 28.34 139.61 6.86 2.85-1.4 5.63-2.97 8.36-4.65 19.17-11.9 34.91-30.84 35.72-53.14" style="fill:#ffc480;fill-opacity:1;fill-rule:nonzero;stroke:none" transform="matrix(.13333 0 0 -.13333 0 948.867)"/><path d="m9387.89 5470.14-377.9-509.8-32 16.09-9.52 4.82 202.23 555.32 13.18 36.24 204.01-102.67" style="fill:#f8e48e;fill-opacity:1;fill-rule:nonzero;stroke:none" transform="matrix(.13333 0 0 -.13333 0 948.867)"/><path d="m9332.73 5454.98-354.74-478.55-9.52 4.82 202.23 555.32 162.03-81.59" style="fill:#f4d242;fill-opacity:1;fill-rule:nonzero;stroke:none" transform="matrix(.13333 0 0 -.13333 0 948.867)"/><path d="m9945.02 5020.74-545.33-324.53-29.68 34.61-.52.64 401.3 434.94 25.62 27.81 148.61-173.47" style="fill:#f8e48e;fill-opacity:1;fill-rule:nonzero;stroke:none" transform="matrix(.13333 0 0 -.13333 0 948.867)"/><path d="m9882.59 5035.9-512.58-305.08-.52.64 401.3 434.94 111.8-130.5" style="fill:#f4d242;fill-opacity:1;fill-rule:nonzero;stroke:none" transform="matrix(.13333 0 0 -.13333 0 948.867)"/><path d="m8648.47 5711.5-1.8-634.6-26.02-4.41-19.75-3.37-164.65 559.86-13 44.13 225.22 38.39" style="fill:#f8e48e;fill-opacity:1;fill-rule:nonzero;stroke:none" transform="matrix(.13333 0 0 -.13333 0 948.867)"/><path d="m8622.34 5660.68-1.69-588.19-19.75-3.37-164.65 559.86 186.09 31.7" style="fill:#f4d242;fill-opacity:1;fill-rule:nonzero;stroke:none" transform="matrix(.13333 0 0 -.13333 0 948.867)"/><path d="m2617.95 5281.68-623.32 118.35 4.51 15.2 623.27-118.14-4.46-15.41" style="fill:#0a4a58;fill-opacity:1;fill-rule:nonzero;stroke:none" transform="matrix(.13333 0 0 -.13333 0 948.867)"/><path d="m5166.32 3557.76-108.9-96.12s-97.92-82.65-200.71-68.24c-23.05 3.25-46.34 11.33-68.82 26.31l-.81.87c-2.97 5.92-5.46 11.91-7.61 17.83-45.59 125.91 82.99 244.62 82.99 244.62l108.96 96.12.75-.88 78.17-88.74 64.35-73.11.58-.7 51.05-57.96" style="fill:#000b11;fill-opacity:1;fill-rule:nonzero;stroke:none" transform="matrix(.13333 0 0 -.13333 0 948.867)"/><path d="M8590.34 4594.95c33.31-105.22-104.29-242.63-307.34-306.91-203.05-64.28-394.67-31.1-427.98 74.12s104.29 242.64 307.35 306.92c203.04 64.28 394.65 31.1 427.97-74.13m-749.75-443.44c0-39.27-31.85-71.11-71.12-71.11s-71.12 31.84-71.12 71.11c0 39.28 31.85 71.12 71.12 71.12s71.12-31.84 71.12-71.12" style="fill:#fbedb3;fill-opacity:1;fill-rule:nonzero;stroke:none" transform="matrix(.13333 0 0 -.13333 0 948.867)"/><path d="M8393.95 3131.13c-167.35 0-322.82 50.87-451.79 137.98 5.92 61.25 11.49 122.53 16.68 183.86 58.04 28.68 110.97 65.75 157.68 109.76 2.81-18.51 6.85-36.8 12.11-54.61 14.41-48.86 36.82-97.76 86.48-118.32 11.16-4.63 22.68-6.61 34.25-6.61 36.51 0 73.63 19.78 102.32 39.16 18.13 12.26 35.24 26.54 51.43 42 10.16-45.05 33.26-86.08 76.51-108.47 23.86-12.36 49.65-17.77 75.6-17.77 17.34 0 34.75 2.41 51.73 6.77 8.06-41.27 23.18-81.21 44.53-117.2 3.33-5.63 7.29-9.79 11.57-12.67a718.761 718.761 0 0 0-54.73-7.13l2.69-47.26c-69.06-19.21-141.87-29.49-217.06-29.49m376.18 110.53c25.66 34.19 51.16 68.49 76.52 102.91 15.15 20.56-2.9 45.38-21.87 45.38-6.54 0-13.18-2.95-18.61-10.02-31.81-41.38-63.71-82.67-95.75-123.88-1.05 2.38-2.38 4.8-4.04 7.21-21.91 31.98-34.9 68.32-40.41 105.99 47.78 29.38 81.91 79.51 106.11 128.75 14.8 30.1 26.95 61.24 38.58 92.67 11.22 30.3 16.33 57.59-2.81 85.64-9.26 13.6-24.15 18.49-39.57 18.49-12.96 0-26.3-3.46-37.01-8.11-27.04-11.76-47.81-39.3-64.77-62.34-34.25-46.55-53.64-102.55-62.39-159.21-3.05-19.77-4.25-39.79-3.78-59.78-15.35-5.17-31.55-8.02-48.22-8.02-1.39 0-2.78.02-4.18.06-55.82 1.62-83.72 43.94-91.88 94.88-1.35 8.37-2.34 17.1-3.02 26.05 7.67 9.18 15.16 18.42 22.34 27.64 34.98 44.81 63.15 94.72 86.2 146.58 19.12 42.98 38.98 95.38 5.66 136.56-5.65 6.98-13.23 10.02-21 10.02-6.96 0-14.07-2.43-20.11-6.64-92.53-64.35-129.33-179.96-130.01-289.71-20.03-22.17-41.67-42.88-64.44-62.29-19.77-16.87-51.58-39.71-80.96-39.71-7.82 0-15.46 1.62-22.66 5.39-31.87 16.73-43.9 68.37-51.41 100.34-5.51 23.44-7.93 47.25-8.04 71.14 8.23 9.73 16.2 19.7 23.89 29.91 30.26 40.13 54.85 84.4 75.22 130.26 17 38.28 37.74 93.17 1.31 127.2-6.35 5.92-15.59 10.43-24.53 10.43-6.01 0-11.88-2.03-16.65-7.04-67.44-70.86-107.21-160.65-114.77-258.23-.26-3.31-.36-6.64-.53-9.96-42.23-48.85-93.08-90.63-148.47-123.81 5.01 62.3 9.62 124.66 13.82 187.04 1.28 19.15-14.54 30.24-29.26 30.24-11.62 0-22.56-6.89-23.9-22.19-11.74-133.83-24.4-267.6-38.18-401.26-183.46 148.14-300.76 374.89-300.76 629.06 0 446.33 361.82 808.16 808.16 808.16s808.16-361.83 808.16-808.16c0-274.2-136.54-516.49-345.35-662.61a728.048 728.048 0 0 0-86.63-35.03m-1000.66 980.97c-39.27 0-71.12-31.84-71.12-71.12 0-39.27 31.85-71.11 71.12-71.11s71.12 31.84 71.12 71.11c0 39.28-31.85 71.12-71.12 71.12m593.11 479.22c-61.34 0-130.11-10.58-200.21-32.77-203.06-64.28-340.66-201.7-307.35-306.92 21.81-68.89 111.46-106.89 227.77-106.89 61.33 0 130.1 10.57 200.21 32.77 203.05 64.28 340.65 201.69 307.34 306.91-21.81 68.9-111.46 106.9-227.76 106.9m302.21-1255.7c3.67 33.76 12.52 66.98 25.96 97.54 9.78 22.24 23.73 42.61 38.92 61.46 6.88 8.54 14.52 16.15 23.11 22.96.67.53 3.48 2.34 6.22 3.83-.28-1.59-.37-3.92-1.28-7.02-16.69-56.75-42.46-115.26-78.52-162.27-4.47-5.83-9.3-11.32-14.41-16.5m-203.8 182.45c10.77 48.92 31.54 95.65 63.96 129.02-5.8-22.69-20.44-48.05-26.37-60.95-10.81-23.56-23.58-46.21-37.59-68.07" style="fill:#f6db66;fill-opacity:1;fill-rule:nonzero;stroke:none" transform="matrix(.13333 0 0 -.13333 0 948.867)"/><path d="M8663.05 3215.01c-4.28 2.88-8.24 7.04-11.57 12.67-21.35 35.99-36.47 75.93-44.53 117.2-16.98-4.36-34.39-6.77-51.73-6.77-25.95 0-51.74 5.41-75.6 17.77-43.25 22.39-66.35 63.42-76.51 108.47-16.19-15.46-33.3-29.74-51.43-42-28.69-19.38-65.81-39.16-102.32-39.16-11.57 0-23.09 1.98-34.25 6.61-49.66 20.56-72.07 69.46-86.48 118.32-5.26 17.81-9.3 36.1-12.11 54.61-46.71-44.01-99.64-81.08-157.68-109.76 1.79 21.14 3.53 42.28 5.23 63.44 55.39 33.18 106.24 74.96 148.47 123.81.17 3.32.27 6.65.53 9.96 7.56 97.58 47.33 187.37 114.77 258.23 4.77 5.01 10.64 7.04 16.65 7.04 8.94 0 18.18-4.51 24.53-10.43 36.43-34.03 15.69-88.92-1.31-127.2-20.37-45.86-44.96-90.13-75.22-130.26a677.129 677.129 0 0 0-23.89-29.91c.11-23.89 2.53-47.7 8.04-71.14 7.51-31.97 19.54-83.61 51.41-100.34 7.2-3.77 14.84-5.39 22.66-5.39 29.38 0 61.19 22.84 80.96 39.71 22.77 19.41 44.41 40.12 64.44 62.29.68 109.75 37.48 225.36 130.01 289.71 6.04 4.21 13.15 6.64 20.11 6.64 7.77 0 15.35-3.04 21-10.02 33.32-41.18 13.46-93.58-5.66-136.56-23.05-51.86-51.22-101.77-86.2-146.58-7.18-9.22-14.67-18.46-22.34-27.64.68-8.95 1.67-17.68 3.02-26.05 8.16-50.94 36.06-93.26 91.88-94.88 1.4-.04 2.79-.06 4.18-.06 16.67 0 32.87 2.85 48.22 8.02-.47 19.99.73 40.01 3.78 59.78 8.75 56.66 28.14 112.66 62.39 159.21 16.96 23.04 37.73 50.58 64.77 62.34 10.71 4.65 24.05 8.11 37.01 8.11 15.42 0 30.31-4.89 39.57-18.49 19.14-28.05 14.03-55.34 2.81-85.64-11.63-31.43-23.78-62.57-38.58-92.67-24.2-49.24-58.33-99.37-106.11-128.75 5.51-37.67 18.5-74.01 40.41-105.99 1.66-2.41 2.99-4.83 4.04-7.21-9.79-12.6-19.6-25.19-29.41-37.77-5.96-1.16-11.96-2.26-17.96-3.27m95.95 416.93c-2.74-1.49-5.55-3.3-6.22-3.83-8.59-6.81-16.23-14.42-23.11-22.96-15.19-18.85-29.14-39.22-38.92-61.46-13.44-30.56-22.29-63.78-25.96-97.54 5.11 5.18 9.94 10.67 14.41 16.5 36.06 47.01 61.83 105.52 78.52 162.27.91 3.1 1 5.43 1.28 7.02m-234.05 125.68c-32.42-33.37-53.19-80.1-63.96-129.02 14.01 21.86 26.78 44.51 37.59 68.07 5.93 12.9 20.57 38.26 26.37 60.95" style="fill:#fef9e7;fill-opacity:1;fill-rule:nonzero;stroke:none" transform="matrix(.13333 0 0 -.13333 0 948.867)"/><path d="M8681.01 3218.28a28577.427 28577.427 0 0 1 125.16 161.65c5.43 7.07 12.07 10.02 18.61 10.02 18.97 0 37.02-24.82 21.87-45.38a14503.28 14503.28 0 0 0-76.52-102.91 725.482 725.482 0 0 0-89.12-23.38m-738.85 50.83a809.193 809.193 0 0 0-55.61 41.13c13.78 133.66 26.44 267.43 38.18 401.26 1.34 15.3 12.28 22.19 23.9 22.19 14.72 0 30.54-11.09 29.26-30.24-4.2-62.38-8.81-124.74-13.82-187.04-1.7-21.16-3.44-42.3-5.23-63.44-5.19-61.33-10.76-122.61-16.68-183.86" style="fill:#fef9e7;fill-opacity:1;fill-rule:nonzero;stroke:none" transform="matrix(.13333 0 0 -.13333 0 948.867)"/><path d="m8611.01 3160.62-2.69 47.26c18.38 1.68 36.62 4.06 54.73 7.13 3.72-2.51 7.68-4.05 11.69-4.76-10.39-13.3-20.76-26.55-31.16-39.83a810.06 810.06 0 0 0-32.57-9.8m137.42 52.2c7.24 9.6 14.49 19.23 21.7 28.84a728.048 728.048 0 0 1 86.63 35.03 807.665 807.665 0 0 0-108.33-63.87" style="fill:#faeaaa;fill-opacity:1;fill-rule:nonzero;stroke:none" transform="matrix(.13333 0 0 -.13333 0 948.867)"/><path d="M8674.74 3210.25c-4.01.71-7.97 2.25-11.69 4.76 6 1.01 12 2.11 17.96 3.27-2.09-2.67-4.19-5.36-6.27-8.03" style="fill:#fef9e7;fill-opacity:1;fill-rule:nonzero;stroke:none" transform="matrix(.13333 0 0 -.13333 0 948.867)"/><path d="M8643.58 3170.42c10.4 13.28 20.77 26.53 31.16 39.83 2.08 2.67 4.18 5.36 6.27 8.03a725.482 725.482 0 0 1 89.12 23.38c-7.21-9.61-14.46-19.24-21.7-28.84a802.702 802.702 0 0 0-104.85-42.4" style="fill:#fef9e7;fill-opacity:1;fill-rule:nonzero;stroke:none" transform="matrix(.13333 0 0 -.13333 0 948.867)"/><path d="M8082.79 4255.27c-116.31 0-205.96 38-227.77 106.89-33.31 105.22 104.29 242.64 307.35 306.92 70.1 22.19 138.87 32.77 200.21 32.77 116.3 0 205.95-38 227.76-106.9 33.31-105.22-104.29-242.63-307.34-306.91-70.11-22.2-138.88-32.77-200.21-32.77m-313.32-174.87c-39.27 0-71.12 31.84-71.12 71.11 0 39.28 31.85 71.12 71.12 71.12s71.12-31.84 71.12-71.12c0-39.27-31.85-71.11-71.12-71.11" style="fill:#fbedb3;fill-opacity:1;fill-rule:nonzero;stroke:none" transform="matrix(.13333 0 0 -.13333 0 948.867)"/><path d="M4688.24 3375.17c-.63.26-1.26.52-1.89.79 2.76 2.42 5.49 4.86 8.21 7.31a183.21 183.21 0 0 0-6.32-8.1" style="fill:#e6e6e6;fill-opacity:1;fill-rule:nonzero;stroke:none" transform="matrix(.13333 0 0 -.13333 0 948.867)"/><path d="M4618.19 3321.36c23.7 17.32 46.49 35.54 68.16 54.6.63-.27 1.26-.53 1.89-.79-18.91-22.9-43.12-41.15-70.05-53.81" style="fill:#dde1e1;fill-opacity:1;fill-rule:nonzero;stroke:none" transform="matrix(.13333 0 0 -.13333 0 948.867)"/><path d="M820.07 4431.17a58.8 58.8 0 0 0-4.961.21c12.778 3.08 25.551 6.04 38.45 8.82-10.223-5.69-21.829-9.03-33.489-9.03" style="fill:#7fb332;fill-opacity:1;fill-rule:nonzero;stroke:none" transform="matrix(.13333 0 0 -.13333 0 948.867)"/><path d="M4699.27 3336.47c-22.24-11.22-47.98-15.75-73.01-13.66-25.08 2.09-49.59 9.48-72.07 20.85-22.71 11.21-42.92 26.72-61.33 43.62-18.47 16.96-34.84 35.84-50.52 54.88-30.96 38.56-60.75 76.55-92.81 113.25-31.83 36.7-65.1 72.08-99.72 106.05-34.55 33.92-70.56 66.38-108.02 96.93-37.34 30.72-76.14 59.53-116.33 86.13-40.36 26.36-81.94 50.7-124.8 72.48-42.86 21.72-87.06 40.71-132.3 56.68-90.25 32.52-184.92 52.44-280.34 58.6-47.68 3.08-95.65 2.5-143.15-2.26-47.51-4.83-94.61-14.24-141.31-26.08-46.74-11.85-93.03-26.49-139.38-41.76-46.4-15.04-92.8-30.84-139.9-45.3-47.16-14.29-94.96-27.3-143.74-36.53-48.73-9.29-98.39-15.51-148.28-14.98-49.82.06-99.54 5.98-147.8 17.3-48.38 11.27-95.13 27.99-140.2 48.15l-16.84 7.6-16.49 8.43-16.49 8.36-16.09 9.06-16.15 9.06c-5.34 3.08-10.51 6.45-15.79 9.64-10.52 6.44-21.03 12.89-31.07 19.98-40.83 27.58-79.63 58.08-115.99 91.29-72.59 66.68-136.18 142.64-192.34 223.6-55.87 81.19-104.66 167.09-148.33 255.25-51.28 103.43-96.12 209.83-136.07 317.97l17.13 57.2c45.06-122.19 94.66-242.59 148.38-361.12 40.54-88.45 84.39-175.51 136.48-257.63 51.92-82.12 112.21-159.48 183.47-225.8 35.54-33.1 73.7-63.53 114.23-90.31 9.99-6.97 20.39-13.18 30.78-19.51 5.23-3.14 10.34-6.39 15.57-9.41l15.97-8.77 16.03-8.65 16.38-7.96 16.32-7.96 16.72-7.2c88.98-38.27 185.79-58.66 281.85-55.29 48.03 1.22 95.76 9.01 142.75 19.75 46.98 10.92 93.39 24.74 139.44 40.25 92.29 30.72 183.64 66.73 279.64 92.51 47.91 12.9 96.87 23.46 146.76 29.22 49.77 5.69 100.01 6.96 149.95 4.41 50.01-2.38 99.66-9.35 148.56-19.46 48.9-10.22 97.17-23.63 143.97-41 93.62-34.38 182.71-80.84 264.37-137.35 40.83-28.22 80.03-58.71 117.6-90.95 37.52-32.4 73.3-66.61 107.5-102.21 34.33-35.54 66.67-72.89 97.57-111.28 15.39-19.22 30.67-38.56 45.24-58.42 14.87-19.63 28.81-39.84 43.33-59.18 14.52-19.46 29.62-38.21 46.17-55.41 16.72-17.07 34.9-32.75 55.52-44.36 20.56-11.86 43.33-20.16 66.91-23.41 23.58-3.31 48.08-.99 70.32 8.36l1.75-3.65" style="fill:#1d5260;fill-opacity:1;fill-rule:nonzero;stroke:none" transform="matrix(.13333 0 0 -.13333 0 948.867)"/><path d="m4699.27 3336.47-1.76 3.65.02-.01c-18.83-7.94-39.56-10.97-59.92-9.59-20.38 1.4-40.42 6.75-59.09 15.02-37.73 16.38-68.41 45.18-94.58 76.27-13.23 15.56-25.47 31.92-37.48 48.4-12.16 16.37-24.02 32.98-36.43 49.17l-37.57 48.26c-12.63 16-25.76 31.6-39.01 47.1-106.51 123.2-230.56 232.59-372.07 313.58-70.69 40.37-145.49 73.72-223.01 98.44-77.69 24.06-158.2 39.76-239.37 44.67-81.22 4.83-163.05-.64-242.51-18.24-79.62-17.08-156.96-43.23-233.83-70.4-76.89-27.07-153.82-55.15-233.4-74.54-39.74-9.72-80.1-17.38-120.98-21.13-40.9-3.49-82.1-3.4-122.92 1.05-81.66 8.72-161.3 33.29-234.74 69.64-73.51 36.3-141.35 83.89-201.62 139.37-60.39 55.49-113.03 118.95-159.37 186.37-46.31 67.52-86.57 138.97-123 212.12-36.53 73.15-69.37 147.98-101.33 223.11-31.8 75.21-61.94 151.14-90.24 227.75l9.46.3-17.18-57.19-.1 3.12c55.81-150.81 120.45-298.75 199.79-438.62 79.28-139.51 175.81-270.85 297.12-376.38 60.83-52.38 127.67-97.66 199.67-133.11 72.12-34.79 149.15-60.55 228.71-70.47 39.71-5.06 79.96-6.4 119.92-4.23 40 2.28 79.77 8.24 119.13 16.13 39.35 7.92 78.23 18.2 116.79 29.58 38.47 11.69 76.66 24.55 115.01 36.77 76.49 24.81 153.2 50.71 232.44 66.75 79.07 16.8 160.64 21.54 241.16 15.32 161.33-11.75 318.5-63.84 458.28-144.23 70.11-39.97 136.11-86.99 197.81-138.85 61.92-51.69 119.56-108.35 173.49-168.24 13.52-14.94 26.67-30.21 39.23-45.96l38.18-46.83c25.79-30.94 49.91-63.35 78.18-91.99 28.22-28.45 61.31-53.16 99.66-65.98 19.03-6.37 39.09-10.19 59.22-9.91 20.1.37 40.2 4.95 58.24 13.96zm0 0c-18-9.1-38.09-13.78-58.23-14.26-20.18-.38-40.29 3.34-59.43 9.64-38.52 12.65-71.87 37.31-100.31 65.71-28.52 28.6-52.79 60.9-78.7 91.68l-38.4 46.62c-12.63 15.68-25.85 30.86-39.42 45.72-54.15 59.54-111.98 115.82-174 167.07-61.86 51.47-127.82 97.96-197.9 137.45-139.49 79.6-295.88 131.31-456.32 142.67-80.1 6.04-160.94 1.2-239.49-15.63-78.8-16.1-155.07-41.98-231.69-66.98-38.37-12.3-76.51-25.22-115.09-37-38.66-11.49-77.71-21.89-117.33-29.93-39.57-8.01-79.66-14.1-120.1-16.46-40.45-2.27-81.04-.99-121.25 4.06-80.54 9.92-158.38 35.8-231.23 70.8-72.64 35.61-140.32 81.27-201.6 133.9-122.47 106.15-219.75 238.16-299.62 378.12-79.92 140.35-144.97 288.56-201.19 439.69l-.57 1.54.47 1.59 17.08 57.22 4.29 14.35 5.18-14.05c28.19-76.49 58.1-152.35 89.72-227.48 31.79-75.08 64.44-149.82 100.71-222.74 36.16-72.96 76.1-144.09 122-211.27 45.93-67.06 98.05-130.1 157.8-185.19 59.65-55.1 126.72-102.32 199.47-138.4 72.65-36.12 151.35-60.53 232.04-69.29 40.29-4.47 81.08-4.62 121.47-1.24 40.39 3.63 80.45 11.14 119.95 20.74 79.13 19.13 155.87 46.99 232.87 73.94 76.95 27.05 154.64 53.18 234.73 70.23 79.99 17.57 162.52 22.94 244.16 17.93 81.74-5.08 162.56-20.99 240.64-45.32 77.91-25.02 152.97-58.54 223.84-99.33 141.72-82.04 265.44-192.32 371.5-316.23 13.19-15.58 26.26-31.27 38.83-47.35l37.36-48.5c12.33-16.26 24.11-32.92 36.19-49.35 11.93-16.55 24.07-32.94 37.19-48.53 25.96-31.14 56.36-59.97 93.88-76.5 18.57-8.33 38.53-13.77 58.86-15.26 20.3-1.47 41.03 1.44 59.89 9.28h.01l1.74-3.66" style="fill:#696969;fill-opacity:1;fill-rule:nonzero;stroke:none" transform="matrix(.13333 0 0 -.13333 0 948.867)"/><path d="M7469.19 1106.21c-17.4 0-34.03 4.07-42.89 18.18-5.8 9.17-10.15 24.63-13.35 36.76.49.02.99.03 1.48.03 14.92 0 28.44-7.46 42.89-10.78 8.24-1.9 16.61-2.69 25.01-2.69 16.72 0 33.56 3.13 49.67 6.88 47.11 11.04 97.28 32.76 116.57 77.06 7.43 16.96 9.4 35.55 10.1 54.19 19.17-11.9 34.91-30.84 35.72-53.14.02-.65.03-1.3.03-1.94-.06-26.84-21.29-49.32-43.3-65.25-28.17-20.39-60.05-35.61-93.56-44.79-20.61-5.62-41.76-8.93-62.84-12.24-8.13-1.27-16.92-2.27-25.53-2.27" style="fill:#d09b5e;fill-opacity:1;fill-rule:nonzero;stroke:none" transform="matrix(.13333 0 0 -.13333 0 948.867)"/><path d="M6393.86 2322.53c-1.1 7.45-2.02 15.25-2.7 23.38-1.39 15.95-2.05 31.27-2.06 46-.04 186.27 106.06 275.95 209.67 314.54 56.36 20.99 110.93 31.75 168.82 31.75 56.96 0 117.14-10.41 185.45-31.75 3.55.76 8.36 2.26 13.99 4.41-20.44-26.37-39.95-49.54-75.43-64.64-26.58-11.32-55.44-16.56-84.37-16.56-18.1 0-36.22 2.05-53.86 5.94-8.21 1.83-16.54 4.04-24.9 4.04-1.46 0-2.91-.07-4.37-.22-39.66-3.94-49.71-56.85-76.77-86.12-26.21-28.36-68.3-32.94-107.48-32.94-3.01 0-6 .03-8.97.07-2.65.04-5.33.07-8.03.07-18.37 0-37.47-1.5-51.09-13.25-11.67-10.05-16.9-25.68-19.34-40.89-1.92-12.05-2.49-24.44-2.83-36.86-19.35-34.99-35.7-71.87-55.73-106.97" style="fill:#1e272d;fill-opacity:1;fill-rule:nonzero;stroke:none" transform="matrix(.13333 0 0 -.13333 0 948.867)"/><path d="M6396.67 2306.06c-1.03 5.29-1.98 10.78-2.81 16.47 20.03 35.1 36.38 71.98 55.73 106.97-.83-30.64-.24-61.46-15.11-87.65-8.71-15.39-22.13-27.42-37.81-35.79" style="fill:#325353;fill-opacity:1;fill-rule:nonzero;stroke:none" transform="matrix(.13333 0 0 -.13333 0 948.867)"/><path d="M6792.29 2147.38c-1.17.09-1.32-.91-1.17-1.7l.89-2.27 3.92-3.83c2.76-2.65 5.67-5.04 8.55-7.38 5.9-4.52 12.05-8.57 18.61-11.83 13.1-6.76 27.17-10.75 43.03-12.95-15.17-5.83-32.96-3.38-47.59 4.07-7.31 3.84-14.04 8.85-19.43 15.09-2.71 3.1-5.04 6.49-7.05 10.03-.88 2-1.83 3.29-2.62 5.82-.22 1.21-.17 2.37.2 3.47.21 1.11 1.73 2.29 2.66 1.48" style="fill:#ba2025;fill-opacity:1;fill-rule:nonzero;stroke:none" transform="matrix(.13333 0 0 -.13333 0 948.867)"/><path d="M7951.2 487.461c-61.79-113.25-405.78-200.359-574.19-217.781-177.14-75.508-749.19-162.621-1045.39-17.418-296.19 145.179-84.09 575.758-84.09 575.758l370.59-55.231c-42.64-63.187-74.69-136.359-98.61-205.469-20.04-57.73-33.46-124.75-2.56-177.492 23.92-40.879 70.61-64.219 117.49-71.308 46.86-7.141 94.54-.239 141.47 6.679 118.94 17.481 237.88 34.961 356.88 52.442 50.47 7.429 106.86 18.41 135.38 60.75 10.45 15.507 16.08 34.089 27.63 48.777 29.74 37.934 85.79 38.051 133.99 37.23 63.02-1.046 126.08 2.09 188.69 9.352 15.8 1.859 32.35 4.238 45.07 13.82 30.49 22.938 21.08 73.11-4.01 101.86-25.14 28.808-61.21 46.289-86.41 74.98-12.37 14.121-21.09 33.449-23.06 52.211 284.81-11.32 457.24-186.25 401.13-289.16" style="fill:#003e6c;fill-opacity:1;fill-rule:nonzero;stroke:none" transform="matrix(.13333 0 0 -.13333 0 948.867)"/><path d="M9198.03 472.52c-124.08 0-254.11 3.769-351.7 9.128-107.62 5.922-139.49 42-139.48 82.68.02 45.922 40.67 97.711 58.88 118.621 40.36-8.539 73.23-33.691 112.66-49.597 76.37-30.723 149.73-10.114 227.55-26.012 26.43-5.41 51.46-16.559 77.88-22.129 14.38-3.031 28.79-4.359 43.19-4.359 51.81 0 103.61 17.199 154.1 34.789 93.27-30.551 174.17-66.161 208.61-99.141.51-1.148.77-2.289.78-3.391.19-30.339-188.03-40.589-392.47-40.589" style="fill:#581f12;fill-opacity:1;fill-rule:nonzero;stroke:none" transform="matrix(.13333 0 0 -.13333 0 948.867)"/><path d="m3915 5746.11 792.63-139.73c-151.99-42.86-311.64-58.83-469.2-47.85-108.14 7.55-215.4 27.7-318.72 60.57-18.41 5.87-40.89 11.5-62.72 18.88l24.09 87.34c3.84 14.06 19.11 23.41 33.92 20.79" style="fill:#999;fill-opacity:1;fill-rule:nonzero;stroke:none" transform="matrix(.13333 0 0 -.13333 0 948.867)"/><path d="m5115.27 3615.72-.37.44.38-.43-.01-.01m660.42 698.88-1.89 2.28 1.89-2.28" style="fill:#87888a;fill-opacity:1;fill-rule:nonzero;stroke:none" transform="matrix(.13333 0 0 -.13333 0 948.867)"/><path d="m5115.28 3615.73-.38.43-.21.26-64.35 73.11c189.16 165.06 458.11 397.95 723.46 627.35l1.89-2.28 63.62-76.42-724.04-622.46" style="fill:#111b21;fill-opacity:1;fill-rule:nonzero;stroke:none" transform="matrix(.13333 0 0 -.13333 0 948.867)"/><path d="M4856.71 3393.4c-14.57 2.05-29.24 6.04-43.74 12.48-8.44 3.74-16.81 8.32-25.08 13.83l-.81.87c-2.97 5.92-5.46 11.91-7.61 17.83 1.86 7.03 6.04 14.64 13.36 22.76 10.97 12.26 110 99.67 257.51 228.36l64.35-73.11.21-.26.37-.44-258.56-222.32" style="fill:#111b21;fill-opacity:1;fill-rule:nonzero;stroke:none" transform="matrix(.13333 0 0 -.13333 0 948.867)"/><path d="m5839.32 4238.19-63.63 76.41-1.89 2.28c462.46 399.68 914.18 788.62 914.18 788.62l44.43-50.47 24.62-27.99-917.72-788.86" style="fill:#919293;fill-opacity:1;fill-rule:nonzero;stroke:none" transform="matrix(.13333 0 0 -.13333 0 948.867)"/><path d="m5839.31 4238.18-63.62 76.42 63.63-76.41-.01-.01" style="fill:#293237;fill-opacity:1;fill-rule:nonzero;stroke:none" transform="matrix(.13333 0 0 -.13333 0 948.867)"/></svg>