<svg width="526" height="358" viewBox="0 0 526 358" fill="none" xmlns="http://www.w3.org/2000/svg">
<path d="M202.091 333.446H28.8449L10.3206 203.298C9.84367 199.939 10.0952 196.518 11.0581 193.264C12.021 190.011 13.6728 187.003 15.9018 184.442C18.1308 181.881 20.8849 179.828 23.9778 178.422C27.0706 177.016 30.4301 176.289 33.8288 176.291H179.729L202.091 333.446Z" fill="#093F68"/>
<path d="M202.09 335.647H28.8448C28.313 335.653 27.7969 335.467 27.3917 335.123C26.9864 334.78 26.7193 334.301 26.6396 333.776L8.11534 203.606C7.59795 199.936 7.87552 196.198 8.92929 192.644C9.98306 189.091 11.7885 185.804 14.2237 183.006C16.659 180.208 19.6673 177.965 23.0456 176.427C26.4239 174.888 30.0935 174.092 33.8067 174.09H179.707C180.242 174.085 180.761 174.274 181.167 174.622C181.572 174.97 181.837 175.454 181.912 175.983L204.274 333.138C204.318 333.452 204.293 333.772 204.202 334.076C204.111 334.38 203.955 334.661 203.744 334.899C203.538 335.134 203.283 335.322 202.998 335.451C202.713 335.58 202.404 335.647 202.09 335.647ZM30.7634 331.245H199.532L177.811 178.492H33.8287C30.7443 178.489 27.6954 179.148 24.8888 180.425C22.0823 181.702 19.5838 183.567 17.5631 185.893C15.5424 188.219 14.0467 190.951 13.1775 193.905C12.3084 196.859 12.0861 199.965 12.5259 203.012L30.7634 331.245Z" fill="#093F68"/>
<path d="M111.587 196.519H151.766C170.908 196.519 191.836 193.041 205.399 209.725C211.463 217.209 213.073 227.796 216.778 236.6C222.578 250.334 232.215 273.335 248.291 277.804C280.267 286.608 312.045 281.898 312.244 281.854C317.443 281.028 322.758 282.297 327.02 285.382C331.282 288.468 334.141 293.117 334.969 298.306C335.796 303.496 334.525 308.801 331.433 313.055C328.342 317.309 323.684 320.162 318.485 320.988C309.345 322.256 300.124 322.859 290.897 322.793C272.912 322.895 254.994 320.6 237.617 315.97C224.739 312.404 209.633 301.685 199.158 288.721L202.223 336.748H36.828V239.769C36.9162 215.888 87.6373 196.519 111.587 196.519Z" fill="#68E1FD"/>
<path d="M202.267 339.015H36.8719C36.287 339.015 35.7261 338.783 35.3126 338.37C34.899 337.957 34.6666 337.398 34.6666 336.814V239.769C34.6666 213.511 88.6074 194.318 111.52 194.318H151.722C154.501 194.318 157.323 194.318 160.168 194.186C177.215 193.723 194.813 193.261 207.074 208.404C211.485 213.753 213.536 220.444 215.631 226.893C216.645 230.041 217.593 233.012 218.762 235.808V236.072C224.364 249.278 233.736 271.597 248.732 275.691C269.325 280.964 290.726 282.33 311.824 279.719C317.56 278.89 323.392 280.349 328.059 283.778C332.725 287.208 335.852 292.334 336.762 298.046C337.672 303.759 336.292 309.599 332.921 314.305C329.55 319.01 324.459 322.202 318.749 323.189C309.491 324.468 300.154 325.078 290.808 325.016C272.627 325.145 254.512 322.821 236.956 318.105C225.356 314.913 212.058 306.131 201.671 295.082L204.296 336.616C204.315 336.917 204.272 337.219 204.17 337.503C204.067 337.787 203.908 338.047 203.7 338.267C203.335 338.688 202.822 338.956 202.267 339.015ZM39.0772 334.613H199.929L197.018 288.853C196.981 288.383 197.097 287.914 197.347 287.514C197.598 287.114 197.97 286.805 198.41 286.633C198.849 286.46 199.333 286.433 199.789 286.555C200.245 286.678 200.65 286.943 200.944 287.312C211.176 299.99 225.841 310.379 238.279 313.725C255.457 318.325 273.178 320.59 290.963 320.46C300.073 320.539 309.176 319.943 318.198 318.677C320.487 318.316 322.683 317.507 324.66 316.298C326.636 315.089 328.355 313.502 329.717 311.63C331.079 309.758 332.058 307.636 332.597 305.385C333.137 303.135 333.227 300.801 332.863 298.516C332.126 293.904 329.583 289.773 325.795 287.033C322.007 284.292 317.283 283.165 312.662 283.901C290.964 286.698 268.931 285.392 247.717 280.049C230.671 275.338 220.769 251.875 214.859 237.855V237.568C213.602 234.597 212.654 231.405 211.573 228.324C209.632 222.227 207.604 215.954 203.788 211.244C192.916 197.773 177.127 198.192 160.433 198.654C157.566 198.654 154.699 198.786 151.877 198.786H111.564C99.5456 198.786 80.9331 203.914 66.2681 211.222C49.0229 219.85 39.1213 230.261 39.1213 239.835L39.0772 334.613Z" fill="#093F68"/>
<path d="M87.7475 333.887C87.2023 333.89 86.6753 333.691 86.268 333.33C85.8608 332.968 85.6022 332.468 85.5422 331.928L76.0375 242.785C76.0071 242.496 76.0341 242.204 76.1168 241.925C76.1995 241.646 76.3364 241.387 76.5197 241.161C76.703 240.935 76.929 240.747 77.185 240.609C77.4409 240.47 77.7217 240.383 78.0113 240.353C78.3009 240.322 78.5936 240.349 78.8728 240.432C79.152 240.514 79.4122 240.651 79.6384 240.834C79.8647 241.017 80.0527 241.243 80.1916 241.498C80.3305 241.753 80.4177 242.034 80.4481 242.323L89.9748 331.443C90.0054 331.731 89.9789 332.022 89.8967 332.299C89.8146 332.577 89.6785 332.835 89.4963 333.06C89.314 333.285 89.0891 333.472 88.8344 333.61C88.5798 333.748 88.3003 333.834 88.0121 333.864L87.7475 333.887Z" fill="#093F68"/>
<path d="M148.922 226.717C148.922 226.717 144.511 292.617 138.888 307.254L122.899 226.717H148.922Z" fill="#093F68"/>
<path d="M138.888 309.455H138.689C138.216 309.412 137.768 309.217 137.415 308.9C137.061 308.582 136.82 308.159 136.726 307.694L120.738 227.223C120.676 226.901 120.686 226.57 120.769 226.252C120.851 225.935 121.004 225.64 121.215 225.389C121.426 225.138 121.691 224.937 121.99 224.801C122.289 224.665 122.615 224.598 122.944 224.604H148.966C149.266 224.602 149.564 224.662 149.841 224.779C150.118 224.897 150.368 225.069 150.576 225.286C150.984 225.737 151.198 226.33 151.171 226.937C150.972 229.645 146.628 293.343 140.983 308.134C140.806 308.538 140.512 308.88 140.139 309.116C139.765 309.351 139.329 309.469 138.888 309.455ZM125.656 228.918L139.218 297.151C142.967 277.341 145.834 238.713 146.606 228.918H125.656Z" fill="#093F68"/>
<path d="M98.0901 336.638C98.0901 336.638 106.801 298.472 116.57 290.658C122.811 285.661 128.236 284.275 135.646 282.624C138.843 281.92 141.666 279.939 145.018 279.3C148.83 278.614 152.738 278.666 156.53 279.454C163.613 281.113 170.227 284.357 175.87 288.941C180.018 291.912 183.558 295.648 186.301 299.946C188.021 302.83 189.013 306.88 186.632 309.235C184.25 311.59 180.016 310.445 177.634 308.156C176.796 307.364 175.914 306.395 174.767 306.351C174.157 306.38 173.562 306.545 173.025 306.836C165.262 310.577 161.271 317.643 157.059 324.73C156.309 326.007 150.09 339.081 148.921 339.037L98.0901 336.638Z" fill="#FFC9B0"/>
<path d="M149.01 341.326H148.811L98.0901 338.839C97.7683 338.825 97.4535 338.741 97.1678 338.593C96.8821 338.444 96.6323 338.235 96.4362 337.98C96.2435 337.722 96.1101 337.424 96.0453 337.109C95.9805 336.793 95.986 336.467 96.0613 336.154C96.4141 334.569 105.037 297.129 115.313 288.941C121.753 283.768 127.398 282.338 135.271 280.489C136.649 280.114 137.992 279.62 139.284 279.014C141.017 278.191 142.837 277.563 144.709 277.143C148.805 276.403 153.005 276.455 157.081 277.297C164.503 278.981 171.428 282.373 177.303 287.202C181.709 290.35 185.455 294.328 188.33 298.912C190.403 302.389 191.637 307.716 188.33 310.885C185.022 314.055 179.508 312.866 176.289 309.851L175.98 309.565C175.628 309.209 175.227 308.905 174.789 308.662C174.551 308.722 174.322 308.81 174.106 308.927C167.203 312.25 163.454 318.545 159.507 325.236L159.066 325.963C158.889 326.249 158.448 327.151 157.831 328.384C151.921 339.895 150.796 341.326 149.01 341.326ZM100.847 334.569L148.106 336.77C149.451 334.855 152.516 328.714 153.773 326.271C154.457 324.906 154.964 323.916 155.162 323.586L155.603 322.859C159.705 315.904 163.961 308.728 172.077 304.833C172.92 304.423 173.852 304.227 174.789 304.26C176.37 304.444 177.817 305.233 178.825 306.461L179.112 306.703C180.81 308.31 183.654 309.147 185.044 307.804C186.433 306.461 185.683 303.402 184.36 301.201C181.777 297.103 178.422 293.545 174.48 290.724C169.116 286.326 162.807 283.222 156.044 281.655C152.528 280.931 148.905 280.886 145.371 281.523C143.849 281.884 142.37 282.408 140.96 283.086C139.415 283.813 137.806 284.395 136.153 284.825C128.655 286.476 123.693 287.818 117.982 292.419C110.969 297.943 103.758 322.705 100.847 334.569Z" fill="#093F68"/>
<path d="M118.29 313.945C118.29 313.945 128.743 303.38 130.905 303.996C133.066 304.612 145.283 317.423 155.537 311.216C162.153 307.144 167.953 312.58 166.718 303.292C165.483 294.003 146.871 285.683 146.871 285.683" fill="#FFC9B0"/>
<path d="M118.29 316.146C118 316.148 117.713 316.092 117.444 315.983C117.175 315.873 116.931 315.712 116.725 315.508C116.314 315.095 116.083 314.537 116.083 313.956C116.083 313.374 116.314 312.817 116.725 312.404C128.082 300.893 130.486 301.597 131.522 301.883C132.745 302.431 133.869 303.174 134.852 304.084C139.263 307.386 147.576 313.571 154.391 309.433C156.796 308.032 159.523 307.273 162.308 307.232C163.056 307.242 163.801 307.131 164.513 306.902C164.513 306.902 164.91 306.373 164.513 303.644C163.631 297.041 150.862 289.997 146.011 287.862C145.475 287.623 145.057 287.181 144.849 286.634C144.64 286.088 144.657 285.48 144.897 284.946C145.137 284.412 145.579 283.995 146.127 283.786C146.675 283.578 147.284 283.595 147.819 283.835C149.826 284.715 167.512 292.837 168.879 303.05C169.32 306.329 169.012 308.31 167.865 309.653C167.18 310.345 166.35 310.877 165.436 311.212C164.521 311.547 163.543 311.676 162.572 311.59C160.503 311.575 158.466 312.098 156.662 313.109C147.312 318.787 137.101 311.172 132.184 307.518C131.61 307.1 130.949 306.593 130.508 306.307C126.639 308.995 123.062 312.079 119.834 315.508C119.423 315.914 118.869 316.144 118.29 316.146Z" fill="#093F68"/>
<path d="M155.537 313.417C154.975 313.418 154.433 313.204 154.023 312.819C153.613 312.435 153.366 311.908 153.332 311.348C152.56 298.978 134.521 292.793 134.345 292.727C134.053 292.65 133.78 292.513 133.543 292.326C133.305 292.139 133.109 291.906 132.966 291.64C132.823 291.374 132.737 291.082 132.712 290.782C132.687 290.481 132.724 290.179 132.821 289.893C132.917 289.607 133.072 289.345 133.275 289.121C133.478 288.898 133.725 288.718 134 288.594C134.275 288.469 134.573 288.403 134.875 288.398C135.177 288.394 135.477 288.451 135.756 288.567C136.616 288.853 156.794 295.742 157.809 311.062C157.827 311.351 157.787 311.641 157.693 311.914C157.598 312.188 157.45 312.441 157.258 312.658C157.065 312.874 156.832 313.051 156.57 313.178C156.309 313.304 156.026 313.378 155.736 313.395L155.537 313.417Z" fill="#093F68"/>
<path d="M169.673 310.511C168.132 310.535 166.611 310.156 165.263 309.411C165.008 309.269 164.784 309.078 164.604 308.849C164.424 308.62 164.291 308.358 164.213 308.078C164.135 307.797 164.114 307.504 164.15 307.215C164.186 306.927 164.28 306.648 164.425 306.395C164.712 305.888 165.189 305.515 165.751 305.358C166.313 305.202 166.915 305.274 167.424 305.559C168.214 306.068 169.147 306.311 170.086 306.253C171.025 306.195 171.921 305.839 172.643 305.236C173.365 304.634 173.875 303.817 174.098 302.905C174.322 301.993 174.247 301.033 173.885 300.166C173.194 298.899 172.317 297.741 171.283 296.733C170.688 296.094 170.136 295.5 169.717 294.95C166.798 291.689 163.27 289.027 159.33 287.114C159.041 287.011 158.776 286.848 158.554 286.636C158.331 286.424 158.155 286.168 158.037 285.884C157.919 285.601 157.863 285.296 157.87 284.989C157.877 284.682 157.949 284.38 158.081 284.102C158.212 283.825 158.4 283.578 158.633 283.377C158.865 283.176 159.138 283.026 159.432 282.937C159.726 282.847 160.036 282.82 160.341 282.857C160.647 282.894 160.941 282.995 161.205 283.152C165.784 285.333 169.866 288.427 173.202 292.243C173.576 292.705 174.04 293.233 174.547 293.783C176.013 295.195 177.202 296.867 178.053 298.714C178.624 300.425 178.674 302.268 178.195 304.008C177.716 305.748 176.73 307.306 175.363 308.486C173.757 309.796 171.747 310.511 169.673 310.511Z" fill="#093F68"/>
<path d="M512.746 333.446H13.2316C7.12977 333.446 2.18326 338.383 2.18326 344.474C2.18326 350.564 7.12977 355.501 13.2316 355.501H512.746C518.848 355.501 523.795 350.564 523.795 344.474C523.795 338.383 518.848 333.446 512.746 333.446Z" fill="white"/>
<path d="M512.768 357.724H13.2316C9.72236 357.724 6.35686 356.333 3.87545 353.856C1.39405 351.379 0 348.02 0 344.518C0 341.015 1.39405 337.656 3.87545 335.179C6.35686 332.703 9.72236 331.311 13.2316 331.311H512.768C516.278 331.311 519.643 332.703 522.125 335.179C524.606 337.656 526 341.015 526 344.518C526 348.02 524.606 351.379 522.125 353.856C519.643 356.333 516.278 357.724 512.768 357.724ZM13.2316 335.713C10.8921 335.713 8.64844 336.641 6.99417 338.292C5.3399 339.943 4.41053 342.183 4.41053 344.518C4.41053 346.853 5.3399 349.092 6.99417 350.743C8.64844 352.394 10.8921 353.322 13.2316 353.322H512.768C515.108 353.322 517.352 352.394 519.006 350.743C520.66 349.092 521.589 346.853 521.589 344.518C521.589 342.183 520.66 339.943 519.006 338.292C517.352 336.641 515.108 335.713 512.768 335.713H13.2316Z" fill="#093F68"/>
<path d="M61.7034 133.789C61.7034 133.789 42.6278 63.7512 51.8458 47.6395C61.0638 31.5278 165.395 -13.1096 207.626 7.36024C249.857 27.83 237.419 61.5942 246.13 67.9332C254.84 74.2723 268.469 84.8153 262.272 86.0479C256.075 87.2805 244.873 88.5351 246.13 90.45C247.387 92.3649 265.492 105.021 253.65 116.026C241.807 127.032 98.3549 155.491 61.7034 133.789Z" fill="#725858"/>
<path d="M108.168 143.958C88.9824 143.958 71.0757 141.889 60.5786 135.682C60.0887 135.387 59.7329 134.913 59.5862 134.361C58.7924 131.478 40.3563 63.245 49.9492 46.539C60.4683 28.1602 166.145 -15.0905 208.596 5.37926C238.852 20.0383 242.116 42.0048 244.079 55.1451C244.829 60.2955 245.49 64.7637 247.431 66.1503C263.75 78.058 266.617 82.3281 265.955 85.3655C265.774 86.1166 265.362 86.7921 264.776 87.2974C264.191 87.8027 263.462 88.1124 262.691 88.1829C261.214 88.491 259.449 88.7772 257.641 89.0853C255.282 89.4815 251.753 90.0758 249.548 90.6481C253.12 93.9276 259.824 100.333 259.846 107.706C259.81 109.585 259.372 111.435 258.562 113.132C257.752 114.828 256.588 116.333 255.149 117.545C248.533 123.664 208.309 133.635 167.269 139.291C147.693 142.138 127.95 143.697 108.168 143.958ZM63.5998 132.336C101.089 153.026 240.859 124.808 252.128 114.353C253.125 113.557 253.938 112.555 254.509 111.415C255.08 110.275 255.396 109.024 255.436 107.75C255.436 102.05 249.217 96.3268 246.218 93.5975C245.509 93.0007 244.859 92.3373 244.277 91.6165C244.028 91.2441 243.876 90.816 243.834 90.3704C243.791 89.9248 243.86 89.4757 244.035 89.0633C244.961 86.8623 248.114 86.246 256.913 84.6612L261.324 83.8908C260.464 82.4161 257.156 78.6303 244.806 69.606C241.388 67.1188 240.639 62.0564 239.69 55.6733C237.75 42.6211 234.817 22.8776 206.611 9.2311C189.079 0.735034 156.772 3.11217 118.004 15.8343C84.5719 26.8395 57.7779 41.6306 53.7202 48.674C46.6854 61.1099 58.241 112.416 63.5998 132.336Z" fill="#093F68"/>
<path d="M127.017 210.773L153.489 216.153L150.175 232.394C149.62 235.117 148.003 237.508 145.681 239.041C143.359 240.574 140.523 241.124 137.795 240.57L131.874 239.366C129.146 238.812 126.75 237.198 125.214 234.881C123.678 232.564 123.127 229.732 123.682 227.009L126.996 210.769L127.017 210.773Z" fill="#FFC9B0"/>
<path d="M139.968 242.983C139.069 242.959 138.174 242.841 137.3 242.631L131.39 241.42C128.092 240.747 125.197 238.795 123.341 235.992C121.484 233.19 120.818 229.767 121.488 226.475L124.796 210.253C124.854 209.97 124.967 209.701 125.129 209.461C125.291 209.222 125.499 209.016 125.741 208.857C125.982 208.697 126.253 208.587 126.537 208.532C126.822 208.477 127.114 208.479 127.398 208.536L153.861 213.907C154.145 213.965 154.415 214.078 154.655 214.24C154.895 214.401 155.101 214.609 155.26 214.85C155.42 215.091 155.531 215.361 155.586 215.645C155.641 215.929 155.639 216.221 155.581 216.504L152.273 232.748C151.691 235.603 150.14 238.171 147.883 240.019C145.626 241.867 142.799 242.883 139.88 242.895L139.968 242.983ZM128.765 213.379L125.898 227.444C125.462 229.592 125.898 231.824 127.109 233.652C128.321 235.48 130.209 236.754 132.36 237.194L138.27 238.405C139.336 238.623 140.434 238.63 141.503 238.424C142.571 238.218 143.588 237.803 144.496 237.204C145.403 236.605 146.183 235.833 146.792 234.932C147.4 234.032 147.824 233.02 148.039 231.956L150.928 217.869L128.765 213.379Z" fill="#093F68"/>
<path d="M253.583 149.152C252.613 161.632 239.602 177.348 225.136 176.225C210.669 175.103 199.775 164.097 200.745 151.617C201.716 139.137 214.219 129.959 228.664 131.081C243.108 132.204 254.554 136.694 253.583 149.152Z" fill="#FFC9B0"/>
<path d="M226.635 178.492H224.981C209.346 177.282 197.482 165.176 198.518 151.529C198.81 148.159 199.838 144.893 201.53 141.961C203.221 139.03 205.535 136.503 208.309 134.559C214.249 130.293 221.531 128.309 228.818 128.968C237.265 129.607 243.572 131.169 248.048 134.075C250.726 135.584 252.891 137.856 254.266 140.601C255.642 143.346 256.164 146.439 255.767 149.482C254.837 157.05 251.389 164.088 245.975 169.468C243.526 172.194 240.551 174.398 237.227 175.949C233.904 177.499 230.301 178.364 226.635 178.492ZM226.26 133.194C220.771 133.131 215.406 134.828 210.956 138.037C208.695 139.608 206.805 141.654 205.419 144.03C204.032 146.406 203.182 149.055 202.929 151.793C202.068 163.041 212.102 173.012 225.312 174.024C233.405 174.662 239.757 169.424 242.954 166.254C247.626 161.598 250.626 155.531 251.489 148.998C251.785 146.771 251.406 144.507 250.399 142.498C249.393 140.489 247.806 138.828 245.843 137.729C242.05 135.373 236.228 133.877 228.598 133.327C227.716 133.216 227.01 133.194 226.26 133.194Z" fill="#093F68"/>
<path d="M145.592 221.369C124.64 219.684 105.214 209.775 91.5716 193.815C77.9294 177.856 71.1852 157.147 72.8179 136.232C74.0308 120.825 75.3319 109.005 88.0342 98.5058C95.7747 92.1008 104.816 85.5416 106.669 75.6809C109.58 80.2371 104.662 86.5761 106.955 91.4845C108.389 94.566 112.116 95.8866 115.468 96.4148C128.833 98.7687 142.592 97.3636 155.203 92.3568C167.814 87.35 178.78 78.939 186.874 68.0653C190.844 75.6809 183.191 85.6737 186.984 93.2673C188.011 95.0722 189.481 96.5869 191.255 97.6688C193.03 98.7508 195.051 99.3645 197.129 99.4523C201.287 99.5768 205.422 98.78 209.236 97.1192C215.526 94.6226 221.535 91.4724 227.164 87.7207C231.729 84.8153 233.78 81.8879 235.456 86.9723C237.132 92.0568 234.243 102.732 233.824 108.08L230.671 148.492C229.042 169.405 219.172 188.821 203.223 202.482C187.275 216.143 166.55 222.935 145.592 221.369Z" fill="#FFC9B0"/>
<path d="M151.833 223.812C149.715 223.812 147.576 223.724 145.415 223.548C123.891 221.812 103.933 211.631 89.9161 195.235C75.899 178.84 68.9654 157.567 70.6347 136.078C71.7373 121.749 72.8399 108.234 86.6228 96.811L88.8281 95.0722C95.8188 89.3714 103.052 83.4726 104.574 75.2627C104.651 74.8254 104.859 74.4218 105.171 74.1048C105.483 73.7878 105.883 73.5723 106.32 73.4866C106.756 73.4009 107.208 73.449 107.617 73.6245C108.026 73.8001 108.372 74.0949 108.609 74.4703C110.594 77.5958 109.866 81.0735 109.227 84.1989C108.53 86.2376 108.461 88.4378 109.028 90.516C109.866 92.2988 112.072 93.4874 115.975 94.2137C128.91 96.4362 142.209 95.0493 154.405 90.206C166.6 85.3627 177.218 77.2513 185.088 66.7666C185.309 66.4616 185.605 66.2183 185.947 66.06C186.289 65.9017 186.667 65.8336 187.043 65.8623C187.419 65.891 187.781 66.0155 188.095 66.224C188.409 66.4324 188.665 66.7177 188.837 67.0528C191.197 71.5869 190.138 76.4733 189.124 81.1835C188.241 85.2775 187.403 89.1513 188.969 92.1888C189.831 93.6462 191.046 94.8638 192.502 95.7292C193.959 96.5947 195.611 97.0803 197.305 97.1411C201.141 97.2319 204.951 96.4806 208.464 94.9401C214.602 92.4687 220.476 89.3863 225.996 85.7397C226.834 85.1894 227.583 84.6612 228.201 84.1769C230.296 82.6802 232.082 81.3816 234.177 81.9759C235.008 82.3514 235.739 82.9149 236.313 83.6217C236.887 84.3285 237.289 85.1592 237.485 86.0478C238.896 90.1418 237.794 96.5469 236.823 102.204C236.427 104.405 236.074 106.606 235.941 108.058L232.81 148.448C231.231 168.847 222.017 187.906 207.001 201.833C191.984 215.76 172.265 223.536 151.766 223.614L151.833 223.812ZM104.221 86.1359C100.511 90.7653 96.2277 94.9069 91.4744 98.4618L89.2692 100.201C77.7136 109.753 76.0376 120.252 74.8688 136.408C73.2848 156.739 79.8423 176.868 93.1036 192.381C106.365 207.895 125.248 217.528 145.614 219.168C165.986 220.685 186.131 214.08 201.632 200.799C217.134 187.518 226.728 168.645 228.311 148.316L231.465 107.926C231.597 106.187 231.972 103.986 232.391 101.653C233.229 96.767 234.265 90.648 233.229 87.6766C233.099 87.279 232.929 86.8955 232.722 86.5321C232.214 86.7962 231.332 87.4125 230.671 87.8747C230.009 88.3369 229.127 88.9972 228.201 89.5695C222.44 93.396 216.299 96.6192 209.875 99.1881C205.751 100.961 201.286 101.802 196.798 101.653C194.336 101.543 191.943 100.803 189.85 99.504C187.757 98.2051 186.034 96.391 184.845 94.2358C182.64 89.8337 183.655 84.9253 184.647 80.2591C185.262 77.8839 185.609 75.4477 185.683 72.9956C177.191 83.1096 166.17 90.8024 153.738 95.2941C141.306 99.7858 127.905 100.917 114.894 98.5718C111.498 97.9115 106.735 96.5689 104.794 92.4089C103.995 90.4183 103.796 88.238 104.221 86.1359Z" fill="#093F68"/>
<path d="M138.425 121.573H138.138L103.251 119.372C102.671 119.334 102.105 119.183 101.585 118.927C101.064 118.671 100.599 118.315 100.216 117.88C99.8329 117.445 99.5397 116.938 99.3528 116.39C99.1659 115.842 99.0891 115.262 99.1268 114.684C99.1644 114.105 99.3158 113.54 99.5722 113.021C99.8286 112.501 100.185 112.037 100.621 111.655C101.057 111.272 101.565 110.98 102.114 110.793C102.664 110.607 103.245 110.53 103.824 110.568L138.711 112.769C139.881 112.807 140.988 113.307 141.788 114.159C142.588 115.012 143.016 116.146 142.978 117.314C142.94 118.481 142.439 119.586 141.585 120.385C140.731 121.183 139.594 121.611 138.425 121.573Z" fill="#093F68"/>
<path d="M219.689 127.604H219.314L184.493 124.654C183.913 124.605 183.349 124.443 182.833 124.176C182.317 123.909 181.858 123.544 181.484 123.1C181.109 122.657 180.825 122.144 180.649 121.591C180.473 121.038 180.408 120.456 180.457 119.878C180.506 119.3 180.669 118.737 180.936 118.222C181.203 117.707 181.569 117.249 182.014 116.875C182.458 116.501 182.972 116.218 183.526 116.042C184.08 115.866 184.663 115.801 185.242 115.85L220.063 118.778C220.643 118.802 221.211 118.94 221.737 119.184C222.263 119.428 222.735 119.773 223.127 120.199C223.519 120.625 223.824 121.124 224.023 121.668C224.221 122.211 224.311 122.789 224.287 123.367C224.262 123.945 224.123 124.512 223.879 125.037C223.635 125.562 223.289 126.033 222.862 126.425C222.435 126.816 221.935 127.12 221.391 127.318C220.846 127.517 220.268 127.606 219.689 127.582V127.604Z" fill="#093F68"/>
<path d="M162.462 170.304C159.243 170.248 156.04 169.834 152.913 169.072C152.632 168.999 152.368 168.873 152.136 168.699C151.905 168.524 151.709 168.307 151.562 168.057C151.415 167.808 151.318 167.532 151.277 167.245C151.237 166.959 151.253 166.667 151.325 166.386C151.398 166.106 151.525 165.843 151.699 165.611C151.874 165.38 152.092 165.185 152.342 165.038C152.591 164.891 152.868 164.794 153.155 164.754C153.442 164.713 153.735 164.729 154.016 164.802C157.572 165.7 161.251 166.019 164.91 165.748C165.593 163.767 163.432 155.623 160.124 147.875C160.01 147.61 159.949 147.324 159.945 147.034C159.942 146.745 159.995 146.458 160.103 146.189C160.21 145.92 160.37 145.675 160.572 145.468C160.774 145.261 161.016 145.095 161.282 144.981C161.549 144.867 161.835 144.806 162.125 144.802C162.415 144.799 162.703 144.852 162.972 144.959C163.241 145.067 163.487 145.226 163.694 145.428C163.902 145.63 164.068 145.871 164.182 146.137C165.88 150.121 171.217 163.459 168.703 168.147C168.428 168.667 168.036 169.117 167.558 169.461C167.079 169.804 166.528 170.033 165.946 170.128C164.792 170.288 163.626 170.346 162.462 170.304Z" fill="#093F68"/>
<path d="M92.4889 128.902C91.0334 147.501 103.934 163.657 121.334 165.022C138.733 166.386 153.972 152.388 155.405 133.789L92.4889 128.902Z" fill="white"/>
<path d="M123.627 167.311C122.811 167.311 121.973 167.311 121.157 167.201C102.589 165.77 88.7399 148.514 90.2836 128.748C90.3019 128.458 90.3776 128.175 90.5063 127.914C90.635 127.653 90.8141 127.421 91.0334 127.23C91.2553 127.044 91.5116 126.904 91.7879 126.817C92.0641 126.73 92.3547 126.698 92.6432 126.723L155.581 131.588C155.871 131.61 156.154 131.689 156.413 131.821C156.672 131.953 156.903 132.134 157.091 132.355C157.28 132.576 157.423 132.832 157.512 133.108C157.601 133.384 157.634 133.676 157.61 133.965C156.133 152.85 141.159 167.311 123.627 167.311ZM94.5839 131.28C94.3633 147.699 106.051 161.61 121.488 162.821C136.925 164.031 150.664 152.058 152.979 135.814L94.5839 131.28Z" fill="#093F68"/>
<path d="M167.821 134.493C166.365 153.092 179.288 169.248 196.666 170.612C214.043 171.977 229.304 157.978 230.759 139.379L167.821 134.493Z" fill="white"/>
<path d="M199.047 172.901C198.231 172.901 197.415 172.901 196.577 172.901C178.009 171.471 164.16 154.214 165.704 134.449C165.726 134.16 165.805 133.877 165.937 133.619C166.069 133.36 166.251 133.13 166.472 132.942C166.694 132.754 166.95 132.611 167.227 132.522C167.504 132.433 167.796 132.4 168.085 132.424L231.024 137.288C231.602 137.352 232.136 137.626 232.523 138.059C232.713 138.279 232.858 138.534 232.949 138.809C233.04 139.085 233.075 139.376 233.052 139.666C231.487 158.44 216.491 172.901 199.047 172.901ZM169.916 136.98C169.695 153.4 181.383 167.311 196.842 168.521C212.301 169.732 225.996 157.758 228.311 141.514L169.916 136.98Z" fill="#093F68"/>
<path d="M90.2173 130.927C89.7775 130.928 89.3474 130.798 88.9824 130.553L74.8687 121.067C74.6283 120.905 74.4222 120.697 74.2622 120.456C74.1022 120.215 73.9914 119.944 73.9361 119.66C73.8245 119.086 73.9457 118.492 74.2733 118.007C74.6008 117.523 75.1077 117.188 75.6826 117.076C76.2575 116.965 76.8531 117.086 77.3386 117.413L91.4523 126.899C91.6929 127.061 91.8993 127.268 92.0595 127.51C92.2197 127.751 92.3306 128.022 92.386 128.306C92.4413 128.59 92.4399 128.882 92.3818 129.166C92.3238 129.45 92.2102 129.719 92.0477 129.959C91.8454 130.258 91.5727 130.502 91.2535 130.671C90.9344 130.84 90.5786 130.928 90.2173 130.927Z" fill="#093F68"/>
<path d="M167.821 136.98H167.666L155.251 136.1C154.961 136.078 154.679 136 154.419 135.869C154.16 135.738 153.929 135.558 153.74 135.338C153.357 134.895 153.167 134.317 153.211 133.734C153.255 133.15 153.529 132.607 153.974 132.226C154.418 131.844 154.997 131.654 155.581 131.698L167.975 132.578C168.556 132.623 169.096 132.896 169.477 133.338C169.857 133.779 170.046 134.353 170.004 134.933C169.965 135.486 169.719 136.004 169.314 136.383C168.909 136.763 168.376 136.976 167.821 136.98Z" fill="#093F68"/>
<path d="M83.1606 167.245C68.7161 166.122 50.3462 153.642 50.3462 128.726C50.3462 116.224 72.3989 107.838 79.8086 121.749" fill="#FFC9B0"/>
<path d="M83.1606 169.446H83.0062C74.2127 168.607 65.9939 164.712 59.7848 158.441C55.9338 154.525 52.9169 149.872 50.9158 144.761C48.9147 139.651 47.9708 134.189 48.141 128.704C48.141 120.714 55.4625 114.706 62.6957 112.923C70.8552 110.898 78.1326 113.891 81.7713 120.692C82.0271 121.207 82.071 121.802 81.8935 122.349C81.7159 122.896 81.3311 123.351 80.8213 123.619C80.3115 123.886 79.7171 123.944 79.1652 123.78C78.6133 123.615 78.1477 123.242 77.868 122.739C73.9647 115.344 66.0919 116.621 63.7543 117.193C58.3293 118.535 52.5515 123.026 52.5515 128.704C52.5515 141.911 60.9095 163.283 83.4252 165.022C83.7148 165.033 83.9993 165.102 84.2624 165.223C84.5256 165.344 84.7622 165.516 84.9588 165.729C85.1553 165.941 85.3081 166.19 85.4082 166.462C85.5083 166.733 85.5539 167.022 85.5423 167.311C85.5307 167.6 85.4622 167.884 85.3407 168.146C85.2192 168.409 85.047 168.645 84.834 168.841C84.6211 169.038 84.3714 169.19 84.0994 169.29C83.8275 169.39 83.5384 169.435 83.2488 169.424L83.1606 169.446Z" fill="#093F68"/>
<path d="M162.66 193.591C151.392 193.591 138.777 190.422 124.95 184.127L123.429 183.444C122.927 183.337 122.479 183.059 122.161 182.657C121.843 182.255 121.675 181.755 121.687 181.243C121.687 180.66 121.919 180.1 122.333 179.687C122.746 179.274 123.307 179.042 123.892 179.042C124.531 179.042 124.906 179.218 126.781 180.077C145.812 188.749 162.308 191.214 175.782 187.406C176.065 187.309 176.365 187.27 176.663 187.292C176.962 187.315 177.253 187.397 177.518 187.535C177.784 187.673 178.019 187.864 178.208 188.095C178.397 188.327 178.537 188.594 178.62 188.881C178.702 189.169 178.725 189.47 178.687 189.766C178.65 190.062 178.552 190.348 178.4 190.605C178.247 190.863 178.045 191.087 177.803 191.263C177.561 191.44 177.286 191.565 176.995 191.632C172.331 192.946 167.506 193.605 162.66 193.591Z" fill="#093F68"/>
<path d="M155.912 322.507H239.867V333.512H155.912C154.468 333.512 153.082 332.94 152.061 331.92C151.039 330.9 150.465 329.518 150.465 328.076C150.465 326.634 151.039 325.251 152.061 324.231C153.082 323.212 154.468 322.639 155.912 322.639V322.507Z" fill="#FFBC0E"/>
<path d="M239.867 335.647H155.912C153.865 335.647 151.902 334.836 150.455 333.391C149.007 331.946 148.194 329.987 148.194 327.944C148.194 325.901 149.007 323.941 150.455 322.496C151.902 321.052 153.865 320.24 155.912 320.24H239.867C240.452 320.24 241.013 320.472 241.426 320.885C241.84 321.297 242.072 321.857 242.072 322.441V333.446C242.072 334.03 241.84 334.59 241.426 335.003C241.013 335.415 240.452 335.647 239.867 335.647ZM155.912 324.642C155.035 324.642 154.194 324.99 153.573 325.609C152.953 326.228 152.604 327.068 152.604 327.944C152.604 328.819 152.953 329.659 153.573 330.278C154.194 330.897 155.035 331.245 155.912 331.245H237.661V324.642H155.912Z" fill="#093F68"/>
<path d="M420.147 333.468H239.867V322.529H420.147V333.468Z" fill="#FFBC0E"/>
<path d="M420.147 335.647H239.867C239.282 335.647 238.721 335.415 238.307 335.003C237.894 334.59 237.661 334.03 237.661 333.446V322.441C237.661 321.857 237.894 321.297 238.307 320.885C238.721 320.472 239.282 320.24 239.867 320.24H420.147C420.732 320.24 421.293 320.472 421.707 320.885C422.12 321.297 422.352 321.857 422.352 322.441V333.446C422.352 334.03 422.12 334.59 421.707 335.003C421.293 335.415 420.732 335.647 420.147 335.647ZM242.072 331.245H417.942V324.642H242.072V331.245Z" fill="#093F68"/>
<path d="M272.99 203.606H453.248L420.147 322.507H239.867L272.99 203.606Z" fill="#FFBC0E"/>
<path d="M420.147 324.708H239.867C239.526 324.711 239.19 324.635 238.884 324.486C238.578 324.337 238.31 324.119 238.103 323.85C237.897 323.576 237.758 323.259 237.697 322.923C237.636 322.587 237.654 322.241 237.75 321.913L270.829 203.056C270.962 202.58 271.252 202.162 271.652 201.871C272.052 201.579 272.539 201.431 273.034 201.449H453.292C453.64 201.436 453.985 201.505 454.3 201.651C454.616 201.797 454.892 202.014 455.107 202.287C455.322 202.559 455.47 202.879 455.538 203.219C455.605 203.559 455.592 203.911 455.498 204.244L422.419 323.101C422.283 323.589 421.983 324.015 421.569 324.308C421.155 324.6 420.653 324.742 420.147 324.708ZM242.778 320.306H418.471L450.359 205.851H274.666L242.778 320.306Z" fill="#093F68"/>
<path d="M199.224 291.054C198.675 291.057 198.145 290.855 197.737 290.489C197.33 290.123 197.073 289.618 197.018 289.073L192.939 248.596C192.908 248.306 192.936 248.014 193.019 247.735C193.102 247.457 193.241 247.197 193.425 246.972C193.61 246.747 193.837 246.56 194.094 246.424C194.351 246.287 194.633 246.202 194.923 246.175C195.505 246.119 196.085 246.297 196.536 246.669C196.987 247.04 197.271 247.575 197.327 248.156L201.407 288.633C201.437 288.922 201.41 289.215 201.327 289.493C201.243 289.772 201.105 290.031 200.92 290.257C200.736 290.482 200.508 290.668 200.251 290.805C199.994 290.942 199.712 291.027 199.422 291.054H199.224Z" fill="#093F68"/>
<path d="M447.867 11.08H296.586C292.077 11.08 287.752 12.8679 284.564 16.0504C281.375 19.2329 279.584 23.5493 279.584 28.0501V126.481C279.589 130.978 281.383 135.289 284.571 138.467C287.759 141.644 292.081 143.429 296.586 143.429H300.269V179.615L318.352 143.429H447.867C452.373 143.429 456.694 141.644 459.882 138.467C463.07 135.289 464.864 130.978 464.87 126.481V28.0501C464.87 23.5493 463.079 19.2329 459.89 16.0504C456.701 12.8679 452.377 11.08 447.867 11.08Z" fill="white"/>
<path d="M300.269 181.816C300.101 181.839 299.93 181.839 299.762 181.816C299.268 181.699 298.83 181.417 298.521 181.016C298.212 180.615 298.05 180.12 298.064 179.615V145.63H296.586C291.496 145.63 286.614 143.614 283.012 140.023C279.41 136.432 277.384 131.562 277.378 126.481V28.0501C277.384 22.9673 279.41 18.0945 283.011 14.5004C286.612 10.9064 291.494 8.88472 296.586 8.87889H447.867C452.96 8.88472 457.842 10.9064 461.443 14.5004C465.044 18.0945 467.069 22.9673 467.075 28.0501V126.481C467.069 131.562 465.043 136.432 461.442 140.023C457.84 143.614 452.958 145.63 447.867 145.63H319.697L302.232 180.605C302.048 180.968 301.768 181.273 301.422 181.487C301.075 181.701 300.676 181.814 300.269 181.816ZM296.586 13.281C292.663 13.2868 288.903 14.8447 286.129 17.6132C283.356 20.3817 281.795 24.1349 281.789 28.0501V126.481C281.795 130.394 283.356 134.145 286.131 136.91C288.905 139.675 292.666 141.228 296.586 141.228H300.269C300.854 141.228 301.415 141.46 301.828 141.873C302.242 142.286 302.474 142.846 302.474 143.429V170.282L316.367 142.461C316.549 142.09 316.832 141.778 317.183 141.56C317.534 141.343 317.939 141.227 318.352 141.228H447.867C451.788 141.228 455.549 139.675 458.323 136.91C461.097 134.145 462.659 130.394 462.665 126.481V28.0501C462.659 24.1349 461.098 20.3817 458.324 17.6132C455.551 14.8447 451.79 13.2868 447.867 13.281H296.586Z" fill="#093F68"/>
<path d="M341.662 34.3892H305.672C305.087 34.3892 304.526 34.1573 304.112 33.7445C303.699 33.3317 303.467 32.7719 303.467 32.1881C303.467 31.6044 303.699 31.0445 304.112 30.6317C304.526 30.219 305.087 29.9871 305.672 29.9871H341.662C342.247 29.9871 342.808 30.219 343.221 30.6317C343.635 31.0445 343.867 31.6044 343.867 32.1881C343.867 32.7719 343.635 33.3317 343.221 33.7445C342.808 34.1573 342.247 34.3892 341.662 34.3892Z" fill="#68E1FD"/>
<path d="M332.29 46.1207H316.853C316.268 46.1207 315.707 45.8889 315.293 45.4761C314.88 45.0633 314.647 44.5035 314.647 43.9197C314.647 43.3359 314.88 42.7761 315.293 42.3633C315.707 41.9505 316.268 41.7186 316.853 41.7186H332.29C332.874 41.7186 333.435 41.9505 333.849 42.3633C334.262 42.7761 334.495 43.3359 334.495 43.9197C334.495 44.5035 334.262 45.0633 333.849 45.4761C333.435 45.8889 332.874 46.1207 332.29 46.1207Z" fill="#DFEAEF"/>
<path d="M371.477 46.1207H343.536C342.951 46.1207 342.39 45.8889 341.977 45.4761C341.563 45.0633 341.331 44.5035 341.331 43.9197C341.331 43.3359 341.563 42.7761 341.977 42.3633C342.39 41.9505 342.951 41.7186 343.536 41.7186H371.477C372.062 41.7186 372.623 41.9505 373.036 42.3633C373.45 42.7761 373.682 43.3359 373.682 43.9197C373.682 44.5035 373.45 45.0633 373.036 45.4761C372.623 45.8889 372.062 46.1207 371.477 46.1207Z" fill="#DFEAEF"/>
<path d="M431.614 46.1207H380.893C380.309 46.1207 379.748 45.8889 379.334 45.4761C378.92 45.0633 378.688 44.5035 378.688 43.9197C378.688 43.3359 378.92 42.7761 379.334 42.3633C379.748 41.9505 380.309 41.7186 380.893 41.7186H431.614C432.199 41.7186 432.76 41.9505 433.174 42.3633C433.587 42.7761 433.82 43.3359 433.82 43.9197C433.82 44.5035 433.587 45.0633 433.174 45.4761C432.76 45.8889 432.199 46.1207 431.614 46.1207Z" fill="#68E1FD"/>
<path d="M324.593 58.4907H314.669C314.085 58.4907 313.524 58.2588 313.11 57.846C312.696 57.4332 312.464 56.8734 312.464 56.2896C312.464 55.7059 312.696 55.1461 313.11 54.7333C313.524 54.3205 314.085 54.0886 314.669 54.0886H324.593C325.178 54.0886 325.739 54.3205 326.152 54.7333C326.566 55.1461 326.798 55.7059 326.798 56.2896C326.798 56.8734 326.566 57.4332 326.152 57.846C325.739 58.2588 325.178 58.4907 324.593 58.4907Z" fill="#DFEAEF"/>
<path d="M360.23 58.4907H332.289C331.705 58.4907 331.144 58.2588 330.73 57.846C330.317 57.4332 330.084 56.8734 330.084 56.2896C330.084 55.7059 330.317 55.1461 330.73 54.7333C331.144 54.3205 331.705 54.0886 332.289 54.0886H360.23C360.815 54.0886 361.376 54.3205 361.789 54.7333C362.203 55.1461 362.435 55.7059 362.435 56.2896C362.435 56.8734 362.203 57.4332 361.789 57.846C361.376 58.2588 360.815 58.4907 360.23 58.4907Z" fill="#68E1FD"/>
<path d="M343.536 70.6405H305.672C305.087 70.6405 304.526 70.4086 304.112 69.9958C303.699 69.583 303.467 69.0232 303.467 68.4394C303.467 67.8557 303.699 67.2958 304.112 66.883C304.526 66.4703 305.087 66.2384 305.672 66.2384H343.536C344.121 66.2384 344.682 66.4703 345.096 66.883C345.509 67.2958 345.741 67.8557 345.741 68.4394C345.741 69.0232 345.509 69.583 345.096 69.9958C344.682 70.4086 344.121 70.6405 343.536 70.6405Z" fill="#DFEAEF"/>
<path d="M368.279 70.6405H352.732C352.147 70.6405 351.587 70.4086 351.173 69.9958C350.759 69.583 350.527 69.0232 350.527 68.4394C350.527 67.8557 350.759 67.2958 351.173 66.883C351.587 66.4703 352.147 66.2384 352.732 66.2384H368.279C368.864 66.2384 369.425 66.4703 369.839 66.883C370.252 67.2958 370.485 67.8557 370.485 68.4394C370.485 69.0232 370.252 69.583 369.839 69.9958C369.425 70.4086 368.864 70.6405 368.279 70.6405Z" fill="#68E1FD"/>
<path d="M323.667 82.2621H315.595C315.011 82.2621 314.45 82.0302 314.036 81.6174C313.623 81.2046 313.39 80.6448 313.39 80.061C313.39 79.4773 313.623 78.9174 314.036 78.5046C314.45 78.0919 315.011 77.86 315.595 77.86H323.667C324.252 77.86 324.813 78.0919 325.226 78.5046C325.64 78.9174 325.872 79.4773 325.872 80.061C325.872 80.6448 325.64 81.2046 325.226 81.6174C324.813 82.0302 324.252 82.2621 323.667 82.2621Z" fill="#68E1FD"/>
<path d="M370.154 82.2621H329.842C329.257 82.2621 328.696 82.0302 328.282 81.6174C327.869 81.2046 327.636 80.6448 327.636 80.061C327.636 79.4773 327.869 78.9174 328.282 78.5046C328.696 78.0919 329.257 77.86 329.842 77.86H370.154C370.739 77.86 371.3 78.0919 371.713 78.5046C372.127 78.9174 372.359 79.4773 372.359 80.061C372.359 80.6448 372.127 81.2046 371.713 81.6174C371.3 82.0302 370.739 82.2621 370.154 82.2621Z" fill="#DFEAEF"/>
<path d="M415.714 82.2621H377.1C376.515 82.2621 375.955 82.0302 375.541 81.6174C375.127 81.2046 374.895 80.6448 374.895 80.061C374.895 79.4773 375.127 78.9174 375.541 78.5046C375.955 78.0919 376.515 77.86 377.1 77.86H415.714C416.299 77.86 416.86 78.0919 417.274 78.5046C417.687 78.9174 417.92 79.4773 417.92 80.061C417.92 80.6448 417.687 81.2046 417.274 81.6174C416.86 82.0302 416.299 82.2621 415.714 82.2621Z" fill="#68E1FD"/>
<path d="M438.782 82.2621H423.587C423.003 82.2621 422.442 82.0302 422.028 81.6174C421.614 81.2046 421.382 80.6448 421.382 80.061C421.382 79.4773 421.614 78.9174 422.028 78.5046C422.442 78.0919 423.003 77.86 423.587 77.86H438.782C439.367 77.86 439.928 78.0919 440.341 78.5046C440.755 78.9174 440.987 79.4773 440.987 80.061C440.987 80.6448 440.755 81.2046 440.341 81.6174C439.928 82.0302 439.367 82.2621 438.782 82.2621Z" fill="#DFEAEF"/>
<path d="M337.339 94.654H305.672C305.087 94.654 304.526 94.4221 304.112 94.0093C303.699 93.5965 303.467 93.0367 303.467 92.4529C303.467 91.8692 303.699 91.3094 304.112 90.8966C304.526 90.4838 305.087 90.2519 305.672 90.2519H337.339C337.924 90.2519 338.485 90.4838 338.899 90.8966C339.312 91.3094 339.545 91.8692 339.545 92.4529C339.545 93.0367 339.312 93.5965 338.899 94.0093C338.485 94.4221 337.924 94.654 337.339 94.654Z" fill="#68E1FD"/>
<path d="M360.23 94.654H346.249C345.664 94.654 345.103 94.4221 344.689 94.0093C344.276 93.5965 344.043 93.0367 344.043 92.4529C344.043 91.8692 344.276 91.3094 344.689 90.8966C345.103 90.4838 345.664 90.2519 346.249 90.2519H360.23C360.815 90.2519 361.376 90.4838 361.789 90.8966C362.203 91.3094 362.435 91.8692 362.435 92.4529C362.435 93.0367 362.203 93.5965 361.789 94.0093C361.376 94.4221 360.815 94.654 360.23 94.654Z" fill="#68E1FD"/>
<path d="M385.921 94.654H366.89C366.305 94.654 365.744 94.4221 365.331 94.0093C364.917 93.5965 364.685 93.0367 364.685 92.4529C364.685 91.8692 364.917 91.3094 365.331 90.8966C365.744 90.4838 366.305 90.2519 366.89 90.2519H385.921C386.506 90.2519 387.067 90.4838 387.481 90.8966C387.894 91.3094 388.127 91.8692 388.127 92.4529C388.127 93.0367 387.894 93.5965 387.481 94.0093C387.067 94.4221 386.506 94.654 385.921 94.654Z" fill="#DFEAEF"/>
<path d="M340.912 106.694H314.669C314.085 106.694 313.524 106.462 313.11 106.049C312.696 105.636 312.464 105.076 312.464 104.493C312.464 103.909 312.696 103.349 313.11 102.936C313.524 102.524 314.085 102.292 314.669 102.292H340.912C341.497 102.292 342.058 102.524 342.471 102.936C342.885 103.349 343.117 103.909 343.117 104.493C343.117 105.076 342.885 105.636 342.471 106.049C342.058 106.462 341.497 106.694 340.912 106.694Z" fill="#68E1FD"/>
<path d="M323.667 117.919H305.672C305.087 117.919 304.526 117.687 304.112 117.274C303.699 116.862 303.467 116.302 303.467 115.718C303.467 115.134 303.699 114.574 304.112 114.162C304.526 113.749 305.087 113.517 305.672 113.517H323.667C324.252 113.517 324.813 113.749 325.226 114.162C325.64 114.574 325.872 115.134 325.872 115.718C325.872 116.302 325.64 116.862 325.226 117.274C324.813 117.687 324.252 117.919 323.667 117.919Z" fill="#DFEAEF"/>
<path d="M349.998 117.171H331.54C330.955 117.171 330.394 116.939 329.98 116.526C329.567 116.113 329.334 115.553 329.334 114.97C329.334 114.386 329.567 113.826 329.98 113.413C330.394 113.001 330.955 112.769 331.54 112.769H349.998C350.583 112.769 351.144 113.001 351.557 113.413C351.971 113.826 352.203 114.386 352.203 114.97C352.203 115.553 351.971 116.113 351.557 116.526C351.144 116.939 350.583 117.171 349.998 117.171Z" fill="#68E1FD"/>
<path d="M349.998 129.629H315.595C315.011 129.629 314.45 129.397 314.036 128.984C313.623 128.571 313.39 128.011 313.39 127.428C313.39 126.844 313.623 126.284 314.036 125.871C314.45 125.459 315.011 125.227 315.595 125.227H349.998C350.582 125.227 351.143 125.459 351.557 125.871C351.971 126.284 352.203 126.844 352.203 127.428C352.203 128.011 351.971 128.571 351.557 128.984C351.143 129.397 350.582 129.629 349.998 129.629Z" fill="#68E1FD"/>
<path d="M390.222 129.629H357.495C356.911 129.629 356.35 129.397 355.936 128.984C355.523 128.571 355.29 128.011 355.29 127.428C355.29 126.844 355.523 126.284 355.936 125.871C356.35 125.459 356.911 125.227 357.495 125.227H390.222C390.806 125.227 391.367 125.459 391.781 125.871C392.195 126.284 392.427 126.844 392.427 127.428C392.427 128.011 392.195 128.571 391.781 128.984C391.367 129.397 390.806 129.629 390.222 129.629Z" fill="#68E1FD"/>
<path d="M414.59 129.629H397.719C397.135 129.629 396.574 129.397 396.16 128.984C395.747 128.571 395.514 128.011 395.514 127.428C395.514 126.844 395.747 126.284 396.16 125.871C396.574 125.459 397.135 125.227 397.719 125.227H414.59C415.175 125.227 415.736 125.459 416.149 125.871C416.563 126.284 416.795 126.844 416.795 127.428C416.795 128.011 416.563 128.571 416.149 128.984C415.736 129.397 415.175 129.629 414.59 129.629Z" fill="#DFEAEF"/>
<path d="M466.568 308.442C466.568 308.442 453.976 282.844 455.74 265.522C462.848 269.437 468.206 275.893 470.736 283.592C478.19 304.216 476.47 308.464 476.47 308.464L466.568 308.442Z" fill="#70CC40"/>
<path d="M476.47 310.665H466.568C466.159 310.662 465.758 310.545 465.411 310.327C465.065 310.11 464.786 309.8 464.606 309.433C464.076 308.376 451.749 283.02 453.579 265.412C453.617 265.066 453.737 264.734 453.929 264.443C454.121 264.152 454.379 263.911 454.682 263.739C454.992 263.581 455.336 263.498 455.685 263.498C456.034 263.498 456.378 263.581 456.689 263.739C464.354 267.881 470.138 274.797 472.853 283.064C480.042 302.874 479.028 308.332 478.565 309.477C478.369 309.856 478.066 310.171 477.694 310.382C477.322 310.593 476.897 310.692 476.47 310.665ZM467.98 306.263H474.463C474.353 303.798 473.471 297.635 468.663 284.253C466.585 278.31 462.795 273.111 457.769 269.308C457.924 283.438 465.752 301.443 468.09 306.263H467.98Z" fill="#093F68"/>
<path d="M472.5 307.21C472.5 307.21 463.039 270.694 476.624 246.241C476.624 246.241 484.453 255.177 486.327 276.791C487.31 287.087 485.352 297.45 480.682 306.682L472.5 307.21Z" fill="#70CC40"/>
<path d="M472.5 309.411C471.999 309.427 471.508 309.272 471.107 308.972C470.706 308.672 470.42 308.244 470.295 307.76C469.898 306.241 460.79 270.1 474.705 245.162C474.878 244.852 475.122 244.589 475.418 244.394C475.714 244.198 476.052 244.077 476.405 244.041C476.758 244.004 477.114 244.053 477.444 244.183C477.774 244.313 478.068 244.52 478.3 244.788C478.631 245.184 486.614 254.516 488.532 276.615C489.573 287.359 487.507 298.175 482.578 307.782C482.395 308.092 482.138 308.353 481.831 308.541C481.523 308.729 481.174 308.838 480.814 308.86L472.632 309.411H472.5ZM476.911 250.621C467.803 270.782 472.699 297.789 474.242 304.899L479.314 304.568C483.319 295.956 484.991 286.447 484.166 276.989C483.651 267.785 481.178 258.796 476.911 250.621Z" fill="#093F68"/>
<path d="M476.646 306.065C476.646 306.065 479.579 281.678 499.316 265.764C499.316 265.764 505.138 283.945 488.819 308.222L476.646 306.065Z" fill="#70CC40"/>
<path d="M488.819 310.423H488.444L476.249 308.222C475.691 308.125 475.192 307.817 474.855 307.362C474.519 306.907 474.37 306.34 474.441 305.779C474.573 304.745 477.727 280.335 497.927 263.959C498.207 263.733 498.538 263.578 498.892 263.509C499.246 263.44 499.611 263.458 499.956 263.563C500.296 263.666 500.606 263.851 500.86 264.1C501.113 264.349 501.302 264.656 501.411 264.994C501.676 265.786 507.366 284.451 490.65 309.345C490.46 309.664 490.193 309.93 489.873 310.119C489.553 310.307 489.191 310.412 488.819 310.423ZM479.116 304.26L487.717 305.779C498.302 289.381 498.478 275.999 497.795 269.924C488.233 279.221 481.72 291.193 479.116 304.26Z" fill="#093F68"/>
<path d="M490.164 333.446H465.311L461.65 303.27H493.847L490.164 333.446Z" fill="#F56132"/>
<path d="M490.142 335.647H465.311C464.769 335.651 464.245 335.456 463.838 335.099C463.431 334.741 463.171 334.247 463.106 333.71L459.423 303.534C459.388 303.225 459.419 302.912 459.514 302.617C459.609 302.321 459.766 302.048 459.974 301.817C460.181 301.582 460.435 301.394 460.72 301.265C461.006 301.136 461.315 301.069 461.628 301.069H493.825C494.138 301.069 494.448 301.136 494.733 301.265C495.018 301.394 495.272 301.582 495.479 301.817C495.683 302.05 495.836 302.323 495.927 302.619C496.018 302.915 496.046 303.227 496.008 303.534L492.348 333.71C492.283 334.247 492.022 334.741 491.615 335.099C491.208 335.456 490.684 335.651 490.142 335.647ZM467.252 331.245H488.18L491.333 305.471H464.12L467.252 331.245Z" fill="#093F68"/>
</svg>
