<svg width="1600" height="900" viewBox="0 0 1600 900" fill="none" xmlns="http://www.w3.org/2000/svg">
<rect width="1600" height="900" fill="#1E1E1E"/>
<rect width="1600" height="900" fill="#1EB854"/>
<path d="M152.591 405.727H175.943V465.557C175.915 471.239 174.48 476.239 171.639 480.557C168.827 484.847 164.935 488.199 159.963 490.614C155.02 493 149.324 494.193 142.875 494.193C137.278 494.193 132.165 493.227 127.534 491.295C122.903 489.335 119.21 486.267 116.455 482.091C113.699 477.886 112.335 472.432 112.364 465.727H136.057C136.142 467.915 136.511 469.761 137.165 471.267C137.847 472.773 138.784 473.909 139.977 474.676C141.199 475.415 142.676 475.784 144.409 475.784C146.17 475.784 147.648 475.401 148.841 474.634C150.063 473.866 150.986 472.73 151.611 471.224C152.236 469.69 152.563 467.801 152.591 465.557V405.727ZM238.82 405.727H262.513V461.636C262.513 468.284 260.922 474.037 257.74 478.895C254.587 483.724 250.183 487.46 244.53 490.102C238.876 492.716 232.314 494.023 224.842 494.023C217.314 494.023 210.723 492.716 205.07 490.102C199.416 487.46 195.013 483.724 191.859 478.895C188.734 474.037 187.172 468.284 187.172 461.636V405.727H210.865V459.591C210.865 462.29 211.462 464.705 212.655 466.835C213.848 468.937 215.496 470.585 217.598 471.778C219.729 472.972 222.143 473.568 224.842 473.568C227.57 473.568 229.984 472.972 232.087 471.778C234.189 470.585 235.837 468.937 237.03 466.835C238.223 464.705 238.82 462.29 238.82 459.591V405.727ZM320.819 433C320.592 430.159 319.526 427.943 317.623 426.352C315.748 424.761 312.893 423.966 309.058 423.966C306.614 423.966 304.612 424.264 303.049 424.861C301.515 425.429 300.379 426.21 299.64 427.205C298.901 428.199 298.518 429.335 298.489 430.614C298.433 431.665 298.617 432.616 299.043 433.469C299.498 434.293 300.208 435.045 301.174 435.727C302.14 436.381 303.376 436.977 304.881 437.517C306.387 438.057 308.177 438.54 310.251 438.966L317.41 440.5C322.239 441.523 326.373 442.872 329.81 444.548C333.248 446.224 336.06 448.199 338.248 450.472C340.435 452.716 342.04 455.244 343.063 458.057C344.114 460.869 344.654 463.937 344.683 467.261C344.654 473 343.219 477.858 340.379 481.835C337.538 485.812 333.475 488.838 328.191 490.912C322.935 492.986 316.614 494.023 309.228 494.023C301.643 494.023 295.023 492.901 289.37 490.656C283.745 488.412 279.37 484.96 276.245 480.301C273.148 475.614 271.586 469.619 271.558 462.318H294.058C294.2 464.989 294.867 467.233 296.06 469.051C297.254 470.869 298.93 472.247 301.089 473.185C303.276 474.122 305.876 474.591 308.887 474.591C311.415 474.591 313.532 474.278 315.237 473.653C316.941 473.028 318.234 472.162 319.114 471.054C319.995 469.946 320.45 468.682 320.478 467.261C320.45 465.926 320.009 464.761 319.157 463.767C318.333 462.744 316.969 461.835 315.066 461.04C313.163 460.216 310.592 459.449 307.353 458.739L298.66 456.864C290.933 455.187 284.839 452.389 280.379 448.469C275.947 444.52 273.745 439.136 273.773 432.318C273.745 426.778 275.222 421.935 278.205 417.787C281.217 413.611 285.379 410.358 290.691 408.028C296.032 405.699 302.154 404.534 309.058 404.534C316.103 404.534 322.197 405.713 327.339 408.071C332.481 410.429 336.444 413.753 339.228 418.043C342.04 422.304 343.461 427.29 343.489 433H320.819ZM351.309 424.818V405.727H427.161V424.818H400.911V493H377.559V424.818H351.309ZM433.692 424.818V405.727H509.544V424.818H483.294V493H459.942V424.818H433.692ZM542.154 405.727V493H518.461V405.727H542.154ZM553.383 405.727H582.871L603.156 455.159H604.178L624.462 405.727H653.951V493H630.769V442.545H630.087L610.656 492.318H596.678L577.246 442.205H576.565V493H553.383V405.727ZM665.18 493V405.727H728.077V424.818H688.873V439.818H724.839V458.909H688.873V473.909H727.907V493H665.18ZM737.442 424.818V405.727H813.294V424.818H787.044V493H763.692V424.818H737.442ZM822.211 493V405.727H859.881C866.359 405.727 872.026 406.906 876.884 409.264C881.742 411.622 885.521 415.017 888.219 419.449C890.918 423.881 892.268 429.193 892.268 435.386C892.268 441.636 890.876 446.906 888.092 451.196C885.336 455.486 881.458 458.724 876.458 460.912C871.487 463.099 865.677 464.193 859.029 464.193H836.529V445.784H854.256C857.04 445.784 859.413 445.443 861.373 444.761C863.362 444.051 864.881 442.929 865.933 441.395C867.012 439.861 867.552 437.858 867.552 435.386C867.552 432.886 867.012 430.855 865.933 429.293C864.881 427.702 863.362 426.537 861.373 425.798C859.413 425.031 857.04 424.648 854.256 424.648H845.904V493H822.211ZM873.347 452.943L895.165 493H869.427L848.12 452.943H873.347ZM925.038 493H899.469L928.276 405.727H960.663L989.469 493H963.901L944.81 429.761H944.129L925.038 493ZM920.265 458.568H968.333V476.295H920.265V458.568ZM1075.25 438.455H1051.22C1051.05 436.466 1050.59 434.662 1049.85 433.043C1049.14 431.423 1048.15 430.031 1046.87 428.866C1045.62 427.673 1044.1 426.764 1042.31 426.139C1040.52 425.486 1038.49 425.159 1036.22 425.159C1032.24 425.159 1028.87 426.125 1026.12 428.057C1023.39 429.989 1021.32 432.759 1019.9 436.366C1018.5 439.974 1017.81 444.307 1017.81 449.364C1017.81 454.705 1018.52 459.179 1019.94 462.787C1021.39 466.366 1023.48 469.065 1026.2 470.884C1028.93 472.673 1032.21 473.568 1036.05 473.568C1038.23 473.568 1040.19 473.298 1041.93 472.759C1043.66 472.19 1045.17 471.381 1046.44 470.33C1047.72 469.278 1048.76 468.014 1049.55 466.537C1050.38 465.031 1050.93 463.341 1051.22 461.466L1075.25 461.636C1074.97 465.33 1073.93 469.094 1072.14 472.929C1070.35 476.736 1067.81 480.259 1064.51 483.497C1061.25 486.707 1057.2 489.293 1052.37 491.253C1047.54 493.213 1041.93 494.193 1035.53 494.193C1027.52 494.193 1020.34 492.474 1013.97 489.037C1007.64 485.599 1002.62 480.543 998.93 473.866C995.265 467.19 993.433 459.023 993.433 449.364C993.433 439.648 995.308 431.466 999.058 424.818C1002.81 418.142 1007.86 413.099 1014.23 409.69C1020.59 406.253 1027.69 404.534 1035.53 404.534C1041.05 404.534 1046.12 405.287 1050.75 406.793C1055.38 408.298 1059.44 410.5 1062.94 413.398C1066.43 416.267 1069.24 419.804 1071.37 424.009C1073.5 428.213 1074.8 433.028 1075.25 438.455ZM1086 493V405.727H1109.69V441.011H1110.89L1137.14 405.727H1164.75L1135.26 444.591L1165.43 493H1137.14L1117.53 460.273L1109.69 470.5V493H1086Z" fill="white"/>
<g clip-path="url(#clip0_0_1)">
<path fill-rule="evenodd" clip-rule="evenodd" d="M1313.83 321.167C1313.83 318.736 1314.8 316.404 1316.52 314.685C1318.24 312.966 1320.57 312 1323 312H1378C1380.43 312 1382.76 312.966 1384.48 314.685C1386.2 316.404 1387.17 318.736 1387.17 321.167C1387.17 323.598 1386.2 325.929 1384.48 327.648C1382.76 329.368 1380.43 330.333 1378 330.333H1359.67V350.867C1379.23 352.365 1398.09 358.771 1414.52 369.493C1414.88 368.985 1415.29 368.507 1415.73 368.063L1430.4 353.397C1431.46 352.333 1432.72 351.488 1434.11 350.912C1435.5 350.337 1437 350.04 1438.5 350.04C1440 350.04 1441.5 350.337 1442.89 350.912C1444.28 351.488 1445.54 352.333 1446.6 353.397C1447.67 354.461 1448.51 355.724 1449.09 357.115C1449.66 358.505 1449.96 359.995 1449.96 361.5C1449.96 363.005 1449.66 364.495 1449.09 365.886C1448.51 367.276 1447.67 368.539 1446.6 369.603L1432.39 383.812C1451.6 402.532 1463.81 427.264 1466.99 453.891C1470.17 480.518 1464.14 507.432 1449.9 530.152C1435.65 552.872 1414.05 570.027 1388.7 578.76C1363.35 587.494 1335.76 587.279 1310.55 578.151C1285.33 569.024 1264.01 551.534 1250.12 528.595C1236.23 505.656 1230.62 478.651 1234.21 452.077C1237.81 425.503 1250.41 400.964 1269.9 382.546C1289.39 364.127 1314.6 352.94 1341.33 350.848V330.333H1323C1320.57 330.333 1318.24 329.368 1316.52 327.648C1314.8 325.929 1313.83 323.598 1313.83 321.167ZM1251.5 467.833C1251.5 441.577 1261.93 416.396 1280.5 397.83C1299.06 379.264 1324.24 368.833 1350.5 368.833C1376.76 368.833 1401.94 379.264 1420.5 397.83C1439.07 416.396 1449.5 441.577 1449.5 467.833C1449.5 494.09 1439.07 519.271 1420.5 537.837C1401.94 556.403 1376.76 566.833 1350.5 566.833C1324.24 566.833 1299.06 556.403 1280.5 537.837C1261.93 519.271 1251.5 494.09 1251.5 467.833ZM1359.67 394.5C1359.67 392.069 1358.7 389.737 1356.98 388.018C1355.26 386.299 1352.93 385.333 1350.5 385.333C1348.07 385.333 1345.74 386.299 1344.02 388.018C1342.3 389.737 1341.33 392.069 1341.33 394.5V486.167C1341.33 488.598 1342.3 490.929 1344.02 492.649C1345.74 494.368 1348.07 495.333 1350.5 495.333C1352.93 495.333 1355.26 494.368 1356.98 492.649C1358.7 490.929 1359.67 488.598 1359.67 486.167V394.5Z" fill="white"/>
</g>
<defs>
<clipPath id="clip0_0_1">
<rect width="275" height="275" fill="white" transform="translate(1213 312)"/>
</clipPath>
</defs>
</svg>
