<svg width="1600" height="900" viewBox="0 0 1600 900" fill="none" xmlns="http://www.w3.org/2000/svg">
<rect width="1600" height="900" fill="#1E1E1E"/>
<rect width="1600" height="900" fill="#1EB854"/>
<path d="M178.591 405.727H201.943V465.557C201.915 471.239 200.48 476.239 197.639 480.557C194.827 484.847 190.935 488.199 185.963 490.614C181.02 493 175.324 494.193 168.875 494.193C163.278 494.193 158.165 493.227 153.534 491.295C148.903 489.335 145.21 486.267 142.455 482.091C139.699 477.886 138.335 472.432 138.364 465.727H162.057C162.142 467.915 162.511 469.761 163.165 471.267C163.847 472.773 164.784 473.909 165.977 474.676C167.199 475.415 168.676 475.784 170.409 475.784C172.17 475.784 173.648 475.401 174.841 474.634C176.063 473.866 176.986 472.73 177.611 471.224C178.236 469.69 178.563 467.801 178.591 465.557V405.727ZM264.82 405.727H288.513V461.636C288.513 468.284 286.922 474.037 283.74 478.895C280.587 483.724 276.183 487.46 270.53 490.102C264.876 492.716 258.314 494.023 250.842 494.023C243.314 494.023 236.723 492.716 231.07 490.102C225.416 487.46 221.013 483.724 217.859 478.895C214.734 474.037 213.172 468.284 213.172 461.636V405.727H236.865V459.591C236.865 462.29 237.462 464.705 238.655 466.835C239.848 468.937 241.496 470.585 243.598 471.778C245.729 472.972 248.143 473.568 250.842 473.568C253.57 473.568 255.984 472.972 258.087 471.778C260.189 470.585 261.837 468.937 263.03 466.835C264.223 464.705 264.82 462.29 264.82 459.591V405.727ZM346.819 433C346.592 430.159 345.526 427.943 343.623 426.352C341.748 424.761 338.893 423.966 335.058 423.966C332.614 423.966 330.612 424.264 329.049 424.861C327.515 425.429 326.379 426.21 325.64 427.205C324.901 428.199 324.518 429.335 324.489 430.614C324.433 431.665 324.617 432.616 325.043 433.469C325.498 434.293 326.208 435.045 327.174 435.727C328.14 436.381 329.376 436.977 330.881 437.517C332.387 438.057 334.177 438.54 336.251 438.966L343.41 440.5C348.239 441.523 352.373 442.872 355.81 444.548C359.248 446.224 362.06 448.199 364.248 450.472C366.435 452.716 368.04 455.244 369.063 458.057C370.114 460.869 370.654 463.937 370.683 467.261C370.654 473 369.219 477.858 366.379 481.835C363.538 485.812 359.475 488.838 354.191 490.912C348.935 492.986 342.614 494.023 335.228 494.023C327.643 494.023 321.023 492.901 315.37 490.656C309.745 488.412 305.37 484.96 302.245 480.301C299.148 475.614 297.586 469.619 297.558 462.318H320.058C320.2 464.989 320.867 467.233 322.06 469.051C323.254 470.869 324.93 472.247 327.089 473.185C329.276 474.122 331.876 474.591 334.887 474.591C337.415 474.591 339.532 474.278 341.237 473.653C342.941 473.028 344.234 472.162 345.114 471.054C345.995 469.946 346.45 468.682 346.478 467.261C346.45 465.926 346.009 464.761 345.157 463.767C344.333 462.744 342.969 461.835 341.066 461.04C339.163 460.216 336.592 459.449 333.353 458.739L324.66 456.864C316.933 455.187 310.839 452.389 306.379 448.469C301.947 444.52 299.745 439.136 299.773 432.318C299.745 426.778 301.222 421.935 304.205 417.787C307.217 413.611 311.379 410.358 316.691 408.028C322.032 405.699 328.154 404.534 335.058 404.534C342.103 404.534 348.197 405.713 353.339 408.071C358.481 410.429 362.444 413.753 365.228 418.043C368.04 422.304 369.461 427.29 369.489 433H346.819ZM377.309 424.818V405.727H453.161V424.818H426.911V493H403.559V424.818H377.309ZM485.771 405.727V493H462.078V405.727H485.771ZM572.511 405.727V493H552.739L521.205 447.148H520.693V493H497V405.727H517.114L548.136 451.409H548.818V405.727H572.511ZM607.582 405.727L625.48 467.261H626.162L644.06 405.727H670.821L642.014 493H609.628L580.821 405.727H607.582ZM758.264 449.364C758.264 459.08 756.375 467.276 752.597 473.952C748.818 480.599 743.719 485.642 737.298 489.08C730.878 492.489 723.719 494.193 715.821 494.193C707.866 494.193 700.679 492.474 694.259 489.037C687.866 485.571 682.781 480.514 679.003 473.866C675.253 467.19 673.378 459.023 673.378 449.364C673.378 439.648 675.253 431.466 679.003 424.818C682.781 418.142 687.866 413.099 694.259 409.69C700.679 406.253 707.866 404.534 715.821 404.534C723.719 404.534 730.878 406.253 737.298 409.69C743.719 413.099 748.818 418.142 752.597 424.818C756.375 431.466 758.264 439.648 758.264 449.364ZM733.889 449.364C733.889 444.136 733.193 439.733 731.801 436.153C730.438 432.545 728.406 429.818 725.707 427.972C723.037 426.097 719.741 425.159 715.821 425.159C711.901 425.159 708.591 426.097 705.892 427.972C703.222 429.818 701.19 432.545 699.798 436.153C698.435 439.733 697.753 444.136 697.753 449.364C697.753 454.591 698.435 459.009 699.798 462.616C701.19 466.196 703.222 468.923 705.892 470.798C708.591 472.645 711.901 473.568 715.821 473.568C719.741 473.568 723.037 472.645 725.707 470.798C728.406 468.923 730.438 466.196 731.801 462.616C733.193 459.009 733.889 454.591 733.889 449.364ZM792.92 405.727V493H769.227V405.727H792.92ZM885.626 438.455H861.592C861.421 436.466 860.967 434.662 860.228 433.043C859.518 431.423 858.523 430.031 857.245 428.866C855.995 427.673 854.475 426.764 852.685 426.139C850.896 425.486 848.864 425.159 846.592 425.159C842.614 425.159 839.248 426.125 836.492 428.057C833.765 429.989 831.691 432.759 830.271 436.366C828.879 439.974 828.183 444.307 828.183 449.364C828.183 454.705 828.893 459.179 830.313 462.787C831.762 466.366 833.85 469.065 836.577 470.884C839.305 472.673 842.586 473.568 846.421 473.568C848.609 473.568 850.569 473.298 852.302 472.759C854.035 472.19 855.54 471.381 856.819 470.33C858.097 469.278 859.134 468.014 859.93 466.537C860.754 465.031 861.308 463.341 861.592 461.466L885.626 461.636C885.342 465.33 884.305 469.094 882.515 472.929C880.725 476.736 878.183 480.259 874.887 483.497C871.62 486.707 867.572 489.293 862.742 491.253C857.913 493.213 852.302 494.193 845.91 494.193C837.898 494.193 830.711 492.474 824.347 489.037C818.012 485.599 812.998 480.543 809.305 473.866C805.64 467.19 803.808 459.023 803.808 449.364C803.808 439.648 805.683 431.466 809.433 424.818C813.183 418.142 818.239 413.099 824.603 409.69C830.967 406.253 838.069 404.534 845.91 404.534C851.421 404.534 856.492 405.287 861.123 406.793C865.754 408.298 869.816 410.5 873.31 413.398C876.805 416.267 879.617 419.804 881.748 424.009C883.879 428.213 885.171 433.028 885.626 438.455ZM896.375 493V405.727H959.273V424.818H920.068V439.818H956.034V458.909H920.068V473.909H959.102V493H896.375Z" fill="white"/>
<rect x="1206" y="322" width="256" height="256" rx="50" fill="#1EB854"/>
<path d="M1344.67 492.667H1280.67C1277.84 492.667 1275.12 493.79 1273.12 495.791C1271.12 497.791 1270 500.504 1270 503.333C1270 506.162 1271.12 508.875 1273.12 510.876C1275.12 512.876 1277.84 514 1280.67 514H1344.67C1347.5 514 1350.21 512.876 1352.21 510.876C1354.21 508.875 1355.33 506.162 1355.33 503.333C1355.33 500.504 1354.21 497.791 1352.21 495.791C1350.21 493.79 1347.5 492.667 1344.67 492.667ZM1302 428.667H1323.33C1326.16 428.667 1328.88 427.543 1330.88 425.542C1332.88 423.542 1334 420.829 1334 418C1334 415.171 1332.88 412.458 1330.88 410.458C1328.88 408.457 1326.16 407.333 1323.33 407.333H1302C1299.17 407.333 1296.46 408.457 1294.46 410.458C1292.46 412.458 1291.33 415.171 1291.33 418C1291.33 420.829 1292.46 423.542 1294.46 425.542C1296.46 427.543 1299.17 428.667 1302 428.667ZM1430 450H1398V354C1398.01 352.12 1397.52 350.272 1396.58 348.643C1395.64 347.013 1394.29 345.66 1392.67 344.72C1391.05 343.784 1389.21 343.291 1387.33 343.291C1385.46 343.291 1383.62 343.784 1382 344.72L1350 363.067L1318 344.72C1316.38 343.784 1314.54 343.291 1312.67 343.291C1310.79 343.291 1308.95 343.784 1307.33 344.72L1275.33 363.067L1243.33 344.72C1241.71 343.784 1239.87 343.291 1238 343.291C1236.13 343.291 1234.29 343.784 1232.67 344.72C1231.04 345.66 1229.69 347.013 1228.75 348.643C1227.82 350.272 1227.33 352.12 1227.33 354V524.667C1227.33 533.154 1230.7 541.293 1236.71 547.294C1242.71 553.295 1250.85 556.667 1259.33 556.667H1408.67C1417.15 556.667 1425.29 553.295 1431.29 547.294C1437.3 541.293 1440.67 533.154 1440.67 524.667V460.667C1440.67 457.838 1439.54 455.125 1437.54 453.124C1435.54 451.124 1432.83 450 1430 450ZM1259.33 535.333C1256.5 535.333 1253.79 534.21 1251.79 532.209C1249.79 530.209 1248.67 527.496 1248.67 524.667V372.453L1270 384.613C1271.65 385.473 1273.48 385.922 1275.33 385.922C1277.19 385.922 1279.02 385.473 1280.67 384.613L1312.67 366.267L1344.67 384.613C1346.31 385.473 1348.14 385.922 1350 385.922C1351.86 385.922 1353.69 385.473 1355.33 384.613L1376.67 372.453V524.667C1376.7 528.306 1377.34 531.913 1378.59 535.333H1259.33ZM1419.33 524.667C1419.33 527.496 1418.21 530.209 1416.21 532.209C1414.21 534.21 1411.5 535.333 1408.67 535.333C1405.84 535.333 1403.12 534.21 1401.12 532.209C1399.12 530.209 1398 527.496 1398 524.667V471.333H1419.33V524.667ZM1344.67 450H1280.67C1277.84 450 1275.12 451.124 1273.12 453.124C1271.12 455.125 1270 457.838 1270 460.667C1270 463.496 1271.12 466.209 1273.12 468.209C1275.12 470.21 1277.84 471.333 1280.67 471.333H1344.67C1347.5 471.333 1350.21 470.21 1352.21 468.209C1354.21 466.209 1355.33 463.496 1355.33 460.667C1355.33 457.838 1354.21 455.125 1352.21 453.124C1350.21 451.124 1347.5 450 1344.67 450Z" fill="white"/>
</svg>
