<svg xmlns="http://www.w3.org/2000/svg" viewBox="0 0 212.19 160.47"><defs><style>.cls-1{fill:#24d359}.cls-2,.cls-3{fill:#008831}.cls-3,.cls-56{opacity:.5}.cls-4{fill:#97f65c}.cls-5{fill:#181828}.cls-6{fill:#fff}.cls-7{fill:#dadadc}.cls-8,.cls-9{fill:#bbbbc8}.cls-9{opacity:.4}.cls-12{fill:#e67868}.cls-14{fill:#fbfbff}.cls-15,.cls-19,.cls-20,.cls-21,.cls-29,.cls-32,.cls-42,.cls-49,.cls-50,.cls-51,.cls-66,.cls-67,.cls-68{fill:none}.cls-15,.cls-19,.cls-42{stroke:#1e1e30}.cls-15,.cls-19,.cls-20,.cls-21,.cls-29,.cls-32,.cls-42,.cls-49,.cls-50,.cls-51,.cls-66{stroke-linecap:round;stroke-linejoin:round}.cls-15,.cls-29,.cls-32{stroke-width:1.14px}.cls-16{fill:#9ef095}.cls-17{fill:#56d844}.cls-18{fill:#a0ede7}.cls-19{stroke-width:.57px}.cls-20,.cls-29,.cls-66{stroke:#fff}.cls-20,.cls-21,.cls-42{stroke-width:.86px}.cls-21{stroke:#dffadc}.cls-22{opacity:.15}.cls-23{fill:#113c47}.cls-25{fill:#4385f2}.cls-26{fill:#2564bf}.cls-28,.cls-56,.cls-57{fill:#c6dbff}.cls-32{stroke:#b2c9d6}.cls-67{stroke:#fc2b79}.cls-35{fill:#9f9ec3}.cls-36{fill:#c8c8d6}.cls-37{fill:#dcdfea}.cls-46{fill:#385159}.cls-43{fill:#5cbddf}.cls-51{stroke:#5cbddf}.cls-49{stroke-width:2.57px;stroke:#7495a2}.cls-50{stroke:#385159}.cls-50,.cls-66,.cls-67,.cls-68{stroke-width:1.43px}.cls-51{stroke-width:2px}.cls-57{opacity:.25}.cls-67,.cls-68{stroke-miterlimit:10}.cls-68{stroke:#fdcd30}.cls-69{fill:#58ebff}</style></defs><g id="Layer_2" data-name="Layer 2"><g id="Layer_1-2" data-name="Layer 1"><path d="m128.19 27.78-3.74 1.82 3.6 1.77a44.87 44.87 0 0 1-3.2 13.46s-7.6-8.6-9.38-20.34 2.94-22.21 2.94-22.21 7.6 8.59 9.38 20.34a38.47 38.47 0 0 1 .4 5.16Z" class="cls-1"/><path d="M128.2 31.74a52.87 52.87 0 0 1-3.29 11.4 52 52 0 0 1-5.78-8.53 24.86 24.86 0 0 0 9.07-2.87Z" class="cls-2"/><path d="M128.39 31.13c0 .28 0 .56-.08.84a29.63 29.63 0 0 1-9.25 2.83 40 40 0 0 1-2.88-8.52c1.53 1.68 4.32 3.49 9.16 3.36Z" class="cls-3"/><ellipse cx="118.79" cy="26.83" class="cls-2" rx=".55" ry="1.17" transform="rotate(-78.78 118.796 26.824)"/><circle cx="120.46" cy="26.01" r=".37" class="cls-2"/><path d="M124.21 37.51a.28.28 0 0 1-.28-.23l-4.22-27.93a.27.27 0 0 1 .23-.31.27.27 0 0 1 .31.23l4.23 27.92a.28.28 0 0 1-.23.32Z" class="cls-4"/><path d="M123.66 37.59a.26.26 0 0 1-.27-.23l-4.23-27.92a.29.29 0 0 1 .23-.32.27.27 0 0 1 .31.23l4.23 27.93a.27.27 0 0 1-.23.31Z" class="cls-5"/><path d="M116.23 16.4a.47.47 0 0 1-.42-.5c0-.32.72-7.87 2.61-12.64A.46.46 0 0 1 119 3a.46.46 0 0 1 .26.59c-1.85 4.65-2.55 12.3-2.55 12.38a.46.46 0 0 1-.48.43Z" class="cls-6"/><path d="M125 45.26a.66.66 0 0 1-.49-.22A44.3 44.3 0 0 1 115 24.37a44.09 44.09 0 0 1 3-22.56.63.63 0 0 1 1.07-.16 44.24 44.24 0 0 1 9.53 20.67 37.31 37.31 0 0 1 .41 5.24.65.65 0 0 1-.37.59l-2.55 1.24 2.42 1.19a.65.65 0 0 1 .36.63 45.26 45.26 0 0 1-3.25 13.67.64.64 0 0 1-.5.37Zm-6.25-41.94c-1.08 2.86-3.9 11.49-2.48 20.86s6.67 16.78 8.55 19.18a46.11 46.11 0 0 0 2.71-11.82L124.32 30a.63.63 0 0 1-.36-.58.66.66 0 0 1 .36-.58l3.37-1.64a35.28 35.28 0 0 0-.39-4.66c-1.42-9.41-6.67-16.82-8.55-19.22Z" class="cls-5"/><ellipse cx="117.95" cy="19.31" class="cls-4" rx=".74" ry=".37" transform="rotate(-68.61 117.954 19.315)"/><ellipse cx="119.07" cy="7.31" class="cls-4" rx=".32" ry=".64" transform="rotate(-8.61 119.084 7.294)"/><path d="M118.37 20.3a.28.28 0 0 0-.18 0h-.1a.5.5 0 0 0-.4.5 1.2 1.2 0 0 0 .13.36c.07.17 0 .19-.08.34a.56.56 0 0 0 .18.67.75.75 0 0 0 1.17-.46 1.35 1.35 0 0 0-.72-1.41ZM118.34 13.24a.28.28 0 0 1 .18 0h.1a.5.5 0 0 1 .35.53.91.91 0 0 1-.15.35c-.09.17 0 .19.05.35a.56.56 0 0 1-.23.65.75.75 0 0 1-1.13-.55 1.34 1.34 0 0 1 .83-1.33Z" class="cls-4"/><circle cx="118.08" cy="12.77" r=".18" class="cls-4"/><path d="M121.26 21.3a.28.28 0 0 1-.24-.13.27.27 0 0 1 .1-.38l3.36-2a.28.28 0 1 1 .28.48l-3.36 2ZM120.51 16.38a.27.27 0 0 1-.25-.15.28.28 0 0 1 .13-.37l2-1a.27.27 0 0 1 .37.12.27.27 0 0 1-.12.37l-2 1a.31.31 0 0 1-.13.03ZM122.72 32.64l-2.24-.38a.28.28 0 0 1 .1-.55l2.23.39a.27.27 0 0 1 .22.32.28.28 0 0 1-.31.22ZM121.55 25h-.07l-3.77-1a.28.28 0 0 1-.2-.34.27.27 0 0 1 .33-.2l3.78 1a.28.28 0 0 1-.07.55Z" class="cls-5"/><path d="m133.89 38.1 3.74 1.82-3.63 1.77a44.87 44.87 0 0 0 3.2 13.46s7.6-8.6 9.38-20.34-2.94-22.21-2.94-22.21-7.59 8.59-9.37 20.34a35.43 35.43 0 0 0-.38 5.16Z" class="cls-1"/><path d="M133.87 42.06a53.57 53.57 0 0 0 3.29 11.4 51.22 51.22 0 0 0 5.78-8.53 25.12 25.12 0 0 1-9.07-2.87Z" class="cls-2"/><path d="M133.68 41.45c0 .28 0 .56.08.84a29.63 29.63 0 0 0 9.24 2.83 39.43 39.43 0 0 0 2.88-8.52c-1.53 1.68-4.31 3.49-9.16 3.36Z" class="cls-3"/><ellipse cx="143.29" cy="37.15" class="cls-2" rx="1.17" ry=".55" transform="rotate(-11.22 143.234 37.145)"/><circle cx="141.62" cy="36.33" r=".37" class="cls-2"/><path d="M137.87 47.83a.27.27 0 0 1-.23-.32l4.22-27.92a.29.29 0 0 1 .32-.23.27.27 0 0 1 .23.31l-4.27 27.93a.28.28 0 0 1-.27.23Z" class="cls-4"/><path d="M138.42 47.91a.27.27 0 0 1-.23-.31l4.23-27.93a.27.27 0 0 1 .31-.23.29.29 0 0 1 .24.32l-4.23 27.92a.27.27 0 0 1-.32.23Z" class="cls-5"/><path d="M145.85 26.72a.46.46 0 0 1-.46-.42c0-.08-.71-7.74-2.55-12.38a.46.46 0 1 1 .85-.34c1.9 4.77 2.59 12.32 2.61 12.64a.46.46 0 0 1-.41.5Z" class="cls-6"/><path d="M137.07 55.58H137a.63.63 0 0 1-.49-.37 45.1 45.1 0 0 1-3.26-13.67.65.65 0 0 1 .36-.63l2.39-1.2-2.55-1.24a.66.66 0 0 1-.36-.59 37.58 37.58 0 0 1 .4-5.25A44.22 44.22 0 0 1 143 12a.65.65 0 0 1 .58-.21.68.68 0 0 1 .49.38 44.26 44.26 0 0 1 3 22.56 44.08 44.08 0 0 1-9.53 20.67.64.64 0 0 1-.47.18Zm-2.52-13.72a46.11 46.11 0 0 0 2.71 11.82c1.88-2.4 7.13-9.81 8.55-19.18s-1.41-18-2.49-20.86c-1.88 2.41-7.13 9.82-8.55 19.19a35.28 35.28 0 0 0-.39 4.66l3.37 1.64a.64.64 0 0 1 0 1.16Z" class="cls-5"/><ellipse cx="144.12" cy="29.63" class="cls-4" rx=".37" ry=".74" transform="rotate(-21.39 144.11 29.63)"/><ellipse cx="143.01" cy="17.63" class="cls-4" rx=".64" ry=".32" transform="rotate(-81.39 143.005 17.625)"/><path d="M143.71 30.62a.25.25 0 0 1 .17 0h.12a.5.5 0 0 1 .39.5.83.83 0 0 1-.13.36c-.07.17 0 .19.09.34a.58.58 0 0 1-.19.67A.75.75 0 0 1 143 32a1.37 1.37 0 0 1 .71-1.38ZM143.73 23.55a.32.32 0 0 0-.17 0h-.11a.5.5 0 0 0-.35.53.93.93 0 0 0 .16.35c.08.17 0 .19-.06.35a.56.56 0 0 0 .23.65.75.75 0 0 0 1.13-.55 1.35 1.35 0 0 0-.83-1.33Z" class="cls-4"/><circle cx="144" cy="23.09" r=".18" class="cls-4"/><path d="M140.82 31.62a.23.23 0 0 1-.14 0l-3.37-2a.28.28 0 0 1-.09-.38.27.27 0 0 1 .37-.1l3.37 2a.29.29 0 0 1 .1.38.29.29 0 0 1-.24.1ZM141.56 26.7a.27.27 0 0 1-.12 0l-2-1a.27.27 0 0 1-.12-.37.28.28 0 0 1 .37-.12l2 1a.27.27 0 0 1 .12.37.27.27 0 0 1-.25.12ZM139.35 43a.28.28 0 0 1-.27-.23.27.27 0 0 1 .22-.32l2.24-.39a.28.28 0 0 1 .32.23.29.29 0 0 1-.23.32l-2.23.39ZM140.52 35.35a.3.3 0 0 1-.27-.21.29.29 0 0 1 .2-.34l3.78-1a.28.28 0 1 1 .14.54l-3.78 1Z" class="cls-5"/><path d="m137.23 29.43-4 1.25 3.3 2.29a44.71 44.71 0 0 1-5.18 12.82s-6.23-9.63-6.23-21.51 6.23-21.52 6.23-21.52 6.23 9.64 6.23 21.52a35.86 35.86 0 0 1-.35 5.15Z" class="cls-1"/><path d="M136.65 33.35a53 53 0 0 1-5 10.78 51.58 51.58 0 0 1-4.43-9.29 24.86 24.86 0 0 0 9.43-1.49Z" class="cls-2"/><path d="M136.93 32.78c-.06.28-.13.55-.2.82a30 30 0 0 1-9.57 1.4 40.42 40.42 0 0 1-1.57-8.86c1.26 1.89 3.74 4.1 8.55 4.69Z" class="cls-3"/><ellipse cx="128.08" cy="27.09" class="cls-2" rx=".55" ry="1.17" transform="rotate(-70.17 128.084 27.09)"/><circle cx="129.85" cy="26.54" r=".37" class="cls-2"/><path d="M131.88 38.47a.29.29 0 0 1-.28-.28V10a.28.28 0 1 1 .56 0v28.19a.29.29 0 0 1-.28.28Z" class="cls-4"/><path d="M131.33 38.47a.29.29 0 0 1-.28-.28V10a.29.29 0 0 1 .28-.28.28.28 0 0 1 .27.28v28.19a.28.28 0 0 1-.27.28Z" class="cls-5"/><path d="M127.18 16.4h-.11a.47.47 0 0 1-.34-.56c.08-.31 1.89-7.67 4.48-12.1a.47.47 0 0 1 .63-.17.46.46 0 0 1 .16.63c-2.51 4.32-4.35 11.78-4.37 11.86a.46.46 0 0 1-.45.34Z" class="cls-6"/><path d="M131.57 46.25A.63.63 0 0 1 131 46a44.19 44.19 0 0 1-6.34-21.87A44.18 44.18 0 0 1 131 2.23a.64.64 0 0 1 .54-.3.66.66 0 0 1 .54.3 44.22 44.22 0 0 1 6.33 21.86 36.19 36.19 0 0 1-.39 5.25.64.64 0 0 1-.44.53l-2.71.85 2.21 1.53a.65.65 0 0 1 .27.68 45.09 45.09 0 0 1-5.27 13 .65.65 0 0 1-.51.32Zm0-42.4C130.07 6.5 126 14.62 126 24.09s4.09 17.6 5.59 20.25A46.49 46.49 0 0 0 136 33.06l-2.94-2a.65.65 0 0 1-.27-.63.67.67 0 0 1 .44-.52l3.58-1.12a35.59 35.59 0 0 0 .32-4.67c.02-9.5-4.06-17.62-5.56-20.27Zm5.85 25.4Z" class="cls-5"/><ellipse cx="128.38" cy="19.53" class="cls-4" rx=".74" ry=".37" transform="rotate(-60 128.38 19.538)"/><ellipse cx="131.28" cy="7.83" class="cls-4" rx=".32" ry=".64"/><path d="M128.64 20.57a.27.27 0 0 0-.17 0h-.11a.49.49 0 0 0-.46.44.94.94 0 0 0 .07.37c.05.18 0 .19-.13.33a.56.56 0 0 0 .08.68.74.74 0 0 0 1.23-.28 1.36 1.36 0 0 0-.51-1.54ZM129.67 13.58a.34.34 0 0 1 .18 0h.1a.51.51 0 0 1 .26.58.83.83 0 0 1-.2.32c-.11.15 0 .19 0 .35a.56.56 0 0 1-.32.61.75.75 0 0 1-1-.71 1.37 1.37 0 0 1 .98-1.15Z" class="cls-4"/><circle cx="129.49" cy="13.08" r=".18" class="cls-4"/><path d="M131.39 22a.3.3 0 0 1-.26-.17.28.28 0 0 1 .16-.36l3.62-1.47a.29.29 0 0 1 .36.16.28.28 0 0 1-.15.36L131.49 22ZM131.39 17a.27.27 0 0 1-.09-.53l2.15-.72a.28.28 0 0 1 .35.17.27.27 0 0 1-.17.35l-2.15.72ZM131.14 33.43h-.08l-2.15-.72a.26.26 0 0 1-.18-.34.28.28 0 0 1 .35-.18l2.15.72a.28.28 0 0 1 .18.35.29.29 0 0 1-.27.17ZM131.13 25.73a.2.2 0 0 1-.11 0l-3.59-1.53a.28.28 0 0 1-.15-.36.29.29 0 0 1 .37-.15l3.59 1.54a.27.27 0 0 1 .14.36.28.28 0 0 1-.25.14Z" class="cls-5"/><path d="M117.88 45.15h27.46v8.57a13.73 13.73 0 0 1-13.74 13.73 13.73 13.73 0 0 1-13.73-13.73v-8.57Z" class="cls-7"/><path d="M145.33 45.15v8.57a13.73 13.73 0 0 1-25.25 7.46 13.73 13.73 0 0 0 21.2-11.52v-4.51Z" class="cls-8"/><path d="M141.46 45.15v8.57c0 7.58-5.2 13.73-11.62 13.73-4.09 0-7.68-2.5-9.75-6.27a10.31 10.31 0 0 0 6.32 2.21c6.42 0 11.62-6.14 11.62-13.73v-4.51Z" class="cls-9"/><path d="M131.7 68.18a14.39 14.39 0 0 1-14.38-14.37v-8.57a.65.65 0 0 1 .65-.65h27.46a.65.65 0 0 1 .64.65v8.57a14.39 14.39 0 0 1-14.37 14.37Zm-13.09-22.3v7.93a13.09 13.09 0 0 0 26.17 0v-7.93Z" class="cls-5"/><ellipse cx="124.49" cy="50.87" rx="4.48" ry="3.32" style="fill:#e5e5ee" transform="rotate(-23.25 124.46 50.861)"/><path d="M126 48.56h-7.74a.28.28 0 0 1 0-.56H126a.28.28 0 0 1 0 .56ZM130.68 48.65h-2.39a.28.28 0 1 1 0-.55h2.39a.28.28 0 1 1 0 .55Z" class="cls-5"/><g style="opacity:.1"><path d="M141 68.69h-19.35a.47.47 0 0 1-.46-.46.46.46 0 0 1 .46-.46H141a.45.45 0 0 1 .46.46.46.46 0 0 1-.46.46ZM152.7 68.69h-6a.47.47 0 0 1-.46-.46.46.46 0 0 1 .46-.46h6a.45.45 0 0 1 .46.46.46.46 0 0 1-.46.46Z" class="cls-5"/></g><rect width="34.28" height="7.19" x="114.74" y="38.33" class="cls-7" rx="3.59"/><path d="M148.28 41.92a3.6 3.6 0 0 1-3.59 3.6h-4.24a3.6 3.6 0 0 0 0-7.19h4.24a3.59 3.59 0 0 1 3.59 3.59Z" class="cls-8"/><path d="M144.6 41.92a3.62 3.62 0 0 1-3.6 3.6h-4.24a3.6 3.6 0 1 0 0-7.19H141a3.6 3.6 0 0 1 3.6 3.59Z" class="cls-9"/><path d="M129.85 39.71h-12a.65.65 0 1 1 0-1.29h12a.65.65 0 1 1 0 1.29Z" class="cls-6"/><path d="M145.24 46.07h-27.09a4.15 4.15 0 0 1 0-8.29h27.09a4.15 4.15 0 1 1 0 8.29Zm-27.09-7.19a3 3 0 0 0 0 6.08h27.09a3 3 0 0 0 0-6.08Z" class="cls-5"/><circle cx="119.26" cy="39.9" r=".55" class="cls-6"/><circle cx="120.36" cy="41.19" r=".28" class="cls-6"/><circle cx="121.1" cy="39.71" r=".46" class="cls-6"/><circle cx="122.57" cy="41.19" r=".28" class="cls-6"/><circle cx="123.96" cy="39.99" r=".74" class="cls-6"/><circle cx="126.63" cy="40.63" r=".28" class="cls-6"/><circle cx="128.29" cy="40.26" r="1.01" class="cls-6"/><circle cx="125.25" cy="41.83" r=".37" class="cls-6"/><path d="M113.08 35.75a1.48 1.48 0 1 1 1.48-1.47 1.47 1.47 0 0 1-1.48 1.47Zm0-2.4a.93.93 0 1 0 .93.93.93.93 0 0 0-.93-.93ZM152 31.7a1.48 1.48 0 1 1 1.47-1.48A1.48 1.48 0 0 1 152 31.7Zm0-2.4a.92.92 0 1 0 .92.92.92.92 0 0 0-.92-.92ZM126 3a1.48 1.48 0 1 1 1.48-1.48A1.47 1.47 0 0 1 126 3Zm0-2.4a.93.93 0 0 0 0 1.85.93.93 0 0 0 .93-.93.93.93 0 0 0-.93-.97Z" class="cls-5"/><path d="M59.38 156.16h-19a1 1 0 0 1 0-2h19a1 1 0 0 1 0 2ZM69.62 156.16h-4.73a1 1 0 0 1 0-2h4.73a1 1 0 0 1 0 2Z" class="cls-12"/><rect width="161.51" height="7.67" x="29.59" y="152.23" rx="3.83" style="fill:#dd6b58"/><path d="M75.55 154.51h-19a1 1 0 1 1 0-2h19a1 1 0 1 1 0 2ZM85.79 154.51h-4.74a1 1 0 1 1 0-2h4.74a1 1 0 0 1 0 2Z" class="cls-14"/><path d="M51.94 159.9H33a1 1 0 0 1 0-2h19a1 1 0 0 1 0 2ZM62.18 159.9h-4.73a1 1 0 0 1 0-2h4.73a1 1 0 1 1 0 2Z" class="cls-12"/><path d="M122 152.23h65.29a3.84 3.84 0 0 1 3.84 3.83h0a3.84 3.84 0 0 1-3.84 3.84H33.42a3.84 3.84 0 0 1-3.83-3.84h0a3.84 3.84 0 0 1 3.83-3.83h68.85M108.84 152.23h4.11M116.59 152.23h2.12" class="cls-15"/><path d="M47.23 119.33s-22 9.14-46.34-25.4c0 0 26.18-8.78 50 15.91" class="cls-16"/><path d="M11.11 106.72A91.09 91.09 0 0 1 .57 94.29s26.11-9 50.1 15.54" class="cls-15"/><path d="M41.59 116 34 120.13a36.39 36.39 0 0 1-5.69-1.59c-4.63-3.21-11.64-10.37-14.16-25.26l1.85.12c4.25 21.79 18.26 26.15 18.26 26.15l7.26-3.92c.05.14.07.27.07.37Z" class="cls-17"/><path d="M107.33 27a5.82 5.82 0 0 1-5.83 5.83 6.26 6.26 0 0 1-1.07-.09 5.83 5.83 0 0 0 0-11.46 5.39 5.39 0 0 1 1.07-.1 5.83 5.83 0 0 1 5.83 5.82Z" class="cls-18"/><path d="M88.03 26.62h7.24M74.22 47.2v-9.52a11.06 11.06 0 0 1 11-11.06" class="cls-15"/><circle cx="101.35" cy="27.02" r="5.83" class="cls-15"/><circle cx="101.35" cy="27.02" r="1.97" class="cls-16"/><circle cx="101.35" cy="27.02" r="1.97" class="cls-19"/><path d="M8.19 102.33a38.36 38.36 0 0 1-3.57-3.94" class="cls-20"/><path d="M22 115.2a55.08 55.08 0 0 1-8.36-6.12M34.28 120.91a55 55 0 0 1-9.51-4.12" class="cls-15"/><path d="M49.27 113.37s-24.12-3.13-37.82-15.15M22.04 105.13l-.97-7.94M25.46 106.71l-4.99 4.21M29.47 110.32l-4.99 4.21M33.69 109.75l-1.31-8.87" class="cls-21"/><g class="cls-22"><path d="M45.51 30.84h-.11a.6.6 0 0 1 0-1.2h.11a.6.6 0 1 1 0 1.2Z" class="cls-23"/><path d="M49.89 30.84h-2.4a.6.6 0 1 1 0-1.2h1.2v-6H30v6h10.85a.6.6 0 1 1 0 1.2H28.77v-8.43h21.12Z" class="cls-23"/><path d="M43.77 30.84h-1.06a.6.6 0 0 1 0-1.2h1.06a.6.6 0 1 1 0 1.2ZM33.77 45.29h-5v-8.43h14.86a.6.6 0 1 1 0 1.2H30v6h3.8a.6.6 0 1 1 0 1.2Z" class="cls-23"/><path d="M37.69 45.29h-2.16a.6.6 0 1 1 0-1.2h2.16a.6.6 0 0 1 0 1.2ZM39.35 45.29h-.05a.6.6 0 0 1 0-1.2h.05a.6.6 0 0 1 0 1.2ZM49.89 45.29h-8.84a.6.6 0 0 1 0-1.2h7.64v-6H46a.6.6 0 0 1 0-1.2h3.87ZM39.77 38.06H18.65v-8.42h21.12Zm-19.92-1.2h18.72v-6H19.85Z" class="cls-23"/></g><g class="cls-22"><path d="M187.86 128.16h-.11a.6.6 0 1 1 0-1.2h.11a.6.6 0 0 1 0 1.2Z" class="cls-23"/><path d="M192.24 128.16h-2.4a.6.6 0 1 1 0-1.2H191v-6h-18.68v6h10.88a.6.6 0 1 1 0 1.2h-12.08v-8.43h21.12Z" class="cls-23"/><path d="M186.13 128.16h-1.07a.6.6 0 1 1 0-1.2h1.07a.6.6 0 0 1 0 1.2ZM176.12 142.62h-5v-8.43H186a.6.6 0 1 1 0 1.2h-13.68v6h3.8a.6.6 0 0 1 .6.6.6.6 0 0 1-.6.63Z" class="cls-23"/><path d="M180.05 142.62h-2.17a.6.6 0 0 1-.6-.6.6.6 0 0 1 .6-.6h2.17a.6.6 0 0 1 .6.6.6.6 0 0 1-.6.6ZM181.7 142.62a.6.6 0 0 1-.6-.6.6.6 0 0 1 .6-.6.6.6 0 0 1 .6.6.6.6 0 0 1-.6.6ZM192.24 142.62h-8.84a.6.6 0 0 1-.6-.6.6.6 0 0 1 .6-.6h7.6v-6h-2.65a.6.6 0 1 1 0-1.2h3.87ZM182.12 135.39H161V127h21.12Zm-19.92-1.2h18.72v-6H162.2Z" class="cls-23"/></g><g class="cls-22"><path d="M86.81 130.85h-.11a.6.6 0 1 1 0-1.2h.11a.6.6 0 0 1 0 1.2Z" class="cls-23"/><path d="M91.19 130.85h-2.4a.6.6 0 1 1 0-1.2H90v-6H71.27v6h10.88a.6.6 0 1 1 0 1.2H70.07v-8.43h21.12Z" class="cls-23"/><path d="M85.08 130.85H84a.6.6 0 1 1 0-1.2h1.07a.6.6 0 0 1 0 1.2ZM75.07 145.3h-5v-8.43h14.87a.6.6 0 0 1 0 1.2H71.27v6h3.8a.6.6 0 0 1 0 1.2Z" class="cls-23"/><path d="M79 145.3h-2.17a.6.6 0 0 1 0-1.2H79a.6.6 0 0 1 0 1.2ZM80.65 145.3a.6.6 0 0 1 0-1.2.6.6 0 0 1 0 1.2ZM91.19 145.3h-8.84a.6.6 0 0 1 0-1.2H90v-6h-2.66a.6.6 0 1 1 0-1.2h3.87ZM81.07 138.07H60v-8.42h21.07Zm-19.92-1.2h18.72v-6H61.15Z" class="cls-23"/></g><g class="cls-22"><path d="M182.35 30.84h-.11a.6.6 0 0 1 0-1.2h.11a.6.6 0 0 1 0 1.2Z" class="cls-23"/><path d="M186.73 30.84h-2.4a.6.6 0 0 1 0-1.2h1.2v-6h-18.72v6h10.88a.6.6 0 0 1 0 1.2h-12.08v-8.43h21.12Z" class="cls-23"/><path d="M180.62 30.84h-1.07a.6.6 0 0 1 0-1.2h1.07a.6.6 0 0 1 0 1.2ZM170.61 45.29h-5v-8.43h14.87a.6.6 0 1 1 0 1.2h-13.67v6h3.8a.6.6 0 1 1 0 1.2Z" class="cls-23"/><path d="M174.54 45.29h-2.17a.6.6 0 1 1 0-1.2h2.17a.6.6 0 0 1 0 1.2ZM176.19 45.29h-.05a.6.6 0 1 1 0-1.2h.05a.6.6 0 0 1 0 1.2ZM186.73 45.29h-8.84a.6.6 0 1 1 0-1.2h7.64v-6h-2.65a.6.6 0 1 1 0-1.2h3.87ZM176.61 38.06h-21.12v-8.42h21.12Zm-19.92-1.2h18.72v-6h-18.72Z" class="cls-23"/></g><path d="M107.37 151.02h4.12M115.12 151.02h2.12" class="cls-15"/><path d="M34.81 119.29S12.05 112.06 15.75 70c0 0 25.67 10.16 28 44.38" class="cls-16"/><path d="m35.61 118.83-1.22.67s-22.75-7.23-19.06-49.3A26.51 26.51 0 0 1 18 71.52c-2.62 34.28 12.61 44.8 17.61 47.31Z" style="fill:#dffadc"/><path d="M15.91 81.13a38 38 0 0 1-.19-5.32" class="cls-20"/><path d="M38.37 93v26.22l-2.79 1.54V88.21A51 51 0 0 1 38.37 93Z" class="cls-17"/><path d="M15.32 86.37a90.7 90.7 0 0 1-.05-16.3S41 80 43.56 114.24M18.2 99.88a54.11 54.11 0 0 1-2.45-10.06M34.7 119.22s-9.64-3-15.46-16.64" class="cls-15"/><path d="M40.21 116.05s-16.43-17.94-19.16-36" class="cls-21"/><path d="M61.29 134.75a19 19 0 1 1-28.57-16.44h19.11a19 19 0 0 1 9.46 16.44Z" class="cls-25"/><path d="M61.1 134.75a19 19 0 0 1-19 19c-.63 0-1.26 0-1.87-.09a19 19 0 0 0 7.67-35.36h3.76a19 19 0 0 1 9.44 16.45Z" class="cls-26"/><path d="M57.41 134.81a19.21 19.21 0 0 1-19.35 19.07c-.64 0-1.28 0-1.91-.09A19 19 0 0 0 44 118.31h3.83a19 19 0 0 1 9.58 16.5Z" style="fill:#2564bf;opacity:.5"/><path d="M43.56 153.7c-.5 0-1 .06-1.52.06a19 19 0 0 1-9.55-35.45h3a19 19 0 0 0 8 35.39Z" class="cls-28"/><path d="M61.29 134.75a19 19 0 1 1-28.57-16.44h19.11a19 19 0 0 1 9.46 16.44Z" class="cls-15"/><path d="m179.948 58.268 31.672 9.786-13.039 42.202-31.673-9.786z" class="cls-25"/><path d="m179.948 58.268 31.672 9.786-13.039 42.202-31.673-9.786z" class="cls-15"/><path d="m182.87 65.3 17.16 5.3M181.71 69.07l10.79 3.33" class="cls-29"/><path d="M178.66 76.4h24.05v8.66h-24.05z" style="stroke:#efefef;stroke-width:1.14px;stroke-linecap:round;stroke-linejoin:round;fill:none" transform="rotate(17.17 190.672 80.73)"/><path d="m197.07 104.9-31.91-3.18 4.21-45.17 31.48 8.75-3.78 39.6z" style="fill:#3771c4;opacity:.5"/><path d="m176.63 85.5 10.79 3.34M175.59 88.86l10.8 3.33" class="cls-32"/><path d="m165.475 55.29 33.006 3.079-4.103 43.979-33.006-3.08z" class="cls-6"/><path d="m161.596 96.939 33.007 3.08-.219 2.34-33.006-3.08z" class="cls-18"/><path d="m165.475 55.29 33.006 3.079-4.103 43.979-33.006-3.08z" class="cls-15"/><path d="m169.78 61.56 17.88 1.66M169.42 65.49l11.24 1.05M167.82 82.61l11.25 1.05M167.49 86.11l11.25 1.05" class="cls-32"/><path d="M168.58 70.73h24.05v8.66h-24.05z" style="stroke:#fc2b79;stroke-width:1.14px;stroke-linecap:round;stroke-linejoin:round;fill:none" transform="rotate(5.33 180.472 75.03)"/><path d="M47.15 36.92h125.73a4.88 4.88 0 0 1 4.88 4.88v88.56a4.63 4.63 0 0 1-4.63 4.63H46.91a4.63 4.63 0 0 1-4.63-4.63V41.8a4.88 4.88 0 0 1 4.87-4.88Z" style="fill:#3b5e66"/><path d="M47.15 36.92h125.73a4.88 4.88 0 0 1 4.88 4.88v88.56a4.63 4.63 0 0 1-4.63 4.63H46.91a4.63 4.63 0 0 1-4.63-4.63V41.8a4.88 4.88 0 0 1 4.87-4.88Z" class="cls-15"/><path d="M131 151.68H91.15a2.64 2.64 0 0 1-2.45-3.62l7.39-18.55 15-4.11 15 4.11 7.39 18.55a2.64 2.64 0 0 1-2.48 3.62Z" class="cls-35"/><path d="M131 151.68H91.15a2.64 2.64 0 0 1-2.45-3.62l7.39-18.55 15-4.11 15 4.11 7.39 18.55a2.64 2.64 0 0 1-2.48 3.62Z" class="cls-15"/><path d="M126.31 151.68H86.44a2.64 2.64 0 0 1-2.44-3.62l7.39-18.55 15-4.11 15 4.11 7.38 18.55a2.64 2.64 0 0 1-2.46 3.62Z" class="cls-36"/><path d="M124.41 137.22H88.77l.35-2.36h34.94l.35 2.36z" class="cls-35"/><circle cx="92.13" cy="137.57" r="1.25" class="cls-35"/><circle cx="95.91" cy="139.24" r=".64" class="cls-35"/><circle cx="93.21" cy="141.6" r=".83" class="cls-35"/><path d="M126.31 151.68H86.44a2.64 2.64 0 0 1-2.44-3.62l7.39-18.55 15-4.11 15 4.11 7.38 18.55a2.64 2.64 0 0 1-2.46 3.62Z" class="cls-15"/><path d="M126.31 151.68H86.44a2.64 2.64 0 0 1-2.44-3.62l7.39-18.55 15-4.11 15 4.11 7.38 18.55a2.64 2.64 0 0 1-2.46 3.62Z" class="cls-36"/><path d="M126.31 151.68H86.44a2.64 2.64 0 0 1-2.44-3.62l7.39-18.55 15-4.11 15 4.11 7.38 18.55a2.64 2.64 0 0 1-2.46 3.62Z" class="cls-15"/><path d="M126.31 151.68H86.44a2.64 2.64 0 0 1-2.44-3.62l7.39-18.55 15-4.11 15 4.11 7.38 18.55a2.64 2.64 0 0 1-2.46 3.62Z" class="cls-36"/><path d="M126.31 151.68H86.44a2.64 2.64 0 0 1-2.44-3.62l7.39-18.55 15-4.11 15 4.11 7.38 18.55a2.64 2.64 0 0 1-2.46 3.62Z" class="cls-15"/><path d="M126.31 151.68H86.44a2.64 2.64 0 0 1-2.44-3.62l7.39-18.55 15-4.11 15 4.11 7.38 18.55a2.64 2.64 0 0 1-2.46 3.62Z" class="cls-36"/><path d="M126.31 151.68H86.44a2.64 2.64 0 0 1-2.44-3.62l7.39-18.55 15-4.11 15 4.11 7.38 18.55a2.64 2.64 0 0 1-2.46 3.62Z" class="cls-15"/><path d="M126.31 151.68H86.44a2.64 2.64 0 0 1-2.44-3.62l7.39-18.55 15-4.11 15 4.11 7.38 18.55a2.64 2.64 0 0 1-2.46 3.62Z" class="cls-36"/><path d="M126.31 151.68H86.44a2.64 2.64 0 0 1-2.44-3.62l7.39-18.55 15-4.11 15 4.11 7.38 18.55a2.64 2.64 0 0 1-2.46 3.62Z" class="cls-15"/><path d="M126.31 151.68H86.44a2.64 2.64 0 0 1-2.44-3.62l7.39-18.55 15-4.11 15 4.11 7.38 18.55a2.64 2.64 0 0 1-2.46 3.62Z" class="cls-36"/><path d="M126.31 151.68H86.44a2.64 2.64 0 0 1-2.44-3.62l7.39-18.55 15-4.11 15 4.11 7.38 18.55a2.64 2.64 0 0 1-2.46 3.62Z" class="cls-15"/><path d="M126.31 151.68H86.44a2.64 2.64 0 0 1-2.44-3.62l7.39-18.55 15-4.11 15 4.11 7.38 18.55a2.64 2.64 0 0 1-2.46 3.62Z" class="cls-36"/><path d="M126.31 151.68H86.44a2.64 2.64 0 0 1-2.44-3.62l7.39-18.55 15-4.11 15 4.11 7.38 18.55a2.64 2.64 0 0 1-2.46 3.62Z" class="cls-15"/><path d="M126.31 151.68H86.44a2.64 2.64 0 0 1-2.44-3.62l7.39-18.55 15-4.11 15 4.11 7.38 18.55a2.64 2.64 0 0 1-2.46 3.62Z" class="cls-36"/><path d="M126.31 151.68H86.44a2.64 2.64 0 0 1-2.44-3.62l7.39-18.55 15-4.11 15 4.11 7.38 18.55a2.64 2.64 0 0 1-2.46 3.62Z" class="cls-15"/><path d="M126.31 151.68H86.44a2.64 2.64 0 0 1-2.44-3.62l7.39-18.55 15-4.11 15 4.11 7.38 18.55a2.64 2.64 0 0 1-2.46 3.62Z" class="cls-36"/><path d="M126.31 151.68H86.44a2.64 2.64 0 0 1-2.44-3.62l7.39-18.55 15-4.11 15 4.11 7.38 18.55a2.64 2.64 0 0 1-2.46 3.62Z" class="cls-15"/><path d="M126.31 151.68H86.44a2.64 2.64 0 0 1-2.44-3.62l7.39-18.55 15-4.11 15 4.11 7.38 18.55a2.64 2.64 0 0 1-2.46 3.62Z" class="cls-36"/><path d="M126.31 151.68H86.44a2.64 2.64 0 0 1-2.44-3.62l7.39-18.55 15-4.11 15 4.11 7.38 18.55a2.64 2.64 0 0 1-2.46 3.62Z" class="cls-15"/><path d="M126.31 151.68H86.44a2.64 2.64 0 0 1-2.44-3.62l7.39-18.55 15-4.11 15 4.11 7.38 18.55a2.64 2.64 0 0 1-2.46 3.62Z" class="cls-36"/><path d="M126.31 151.68H86.44a2.64 2.64 0 0 1-2.44-3.62l7.39-18.55 15-4.11 15 4.11 7.38 18.55a2.64 2.64 0 0 1-2.46 3.62Z" class="cls-15"/><path d="M126.31 151.68H86.44a2.64 2.64 0 0 1-2.44-3.62l7.39-18.55 15-4.11 15 4.11 7.38 18.55a2.64 2.64 0 0 1-2.46 3.62Z" class="cls-36"/><path d="M126.31 151.68H86.44a2.64 2.64 0 0 1-2.44-3.62l7.39-18.55 15-4.11 15 4.11 7.38 18.55a2.64 2.64 0 0 1-2.46 3.62Z" class="cls-15"/><path d="M126.31 151.68H86.44a2.64 2.64 0 0 1-2.44-3.62l7.39-18.55 15-4.11 15 4.11 7.38 18.55a2.64 2.64 0 0 1-2.46 3.62Z" class="cls-36"/><path d="M126.31 151.68H86.44a2.64 2.64 0 0 1-2.44-3.62l7.39-18.55 15-4.11 15 4.11 7.38 18.55a2.64 2.64 0 0 1-2.46 3.62Z" class="cls-15"/><path d="M126.31 151.68H86.44a2.64 2.64 0 0 1-2.44-3.62l7.39-18.55 15-4.11 15 4.11 7.38 18.55a2.64 2.64 0 0 1-2.46 3.62Z" class="cls-36"/><path d="M126.31 151.68H86.44a2.64 2.64 0 0 1-2.44-3.62l7.39-18.55 15-4.11 15 4.11 7.38 18.55a2.64 2.64 0 0 1-2.46 3.62Z" class="cls-15"/><path d="M126.31 151.68H86.44a2.64 2.64 0 0 1-2.44-3.62l7.39-18.55 15-4.11 15 4.11 7.38 18.55a2.64 2.64 0 0 1-2.46 3.62Z" class="cls-36"/><path d="M126.31 151.68H86.44a2.64 2.64 0 0 1-2.44-3.62l7.39-18.55 15-4.11 15 4.11 7.38 18.55a2.64 2.64 0 0 1-2.46 3.62Z" class="cls-15"/><path d="M126.31 151.68H86.44a2.64 2.64 0 0 1-2.44-3.62l7.39-18.55 15-4.11 15 4.11 7.38 18.55a2.64 2.64 0 0 1-2.46 3.62Z" class="cls-37"/><path d="M126.31 151.68H86.44a2.64 2.64 0 0 1-2.44-3.62l7.39-18.55 15-4.11 15 4.11 7.38 18.55a2.64 2.64 0 0 1-2.46 3.62Z" class="cls-15"/><path d="M42.51 37h125.73a4.88 4.88 0 0 1 4.88 4.88v88.56a4.63 4.63 0 0 1-4.63 4.63H42.27a4.63 4.63 0 0 1-4.63-4.63V41.87A4.88 4.88 0 0 1 42.51 37Z" style="fill:#61838e"/><path d="M173 41.87v3a4.87 4.87 0 0 0-4.91-4.87H42.36a4.88 4.88 0 0 0-4.88 4.87v-3A4.89 4.89 0 0 1 42.36 37h125.73a4.88 4.88 0 0 1 4.91 4.87Z" style="fill:#7495a2"/><path d="M173.12 119.09v11.34a4.63 4.63 0 0 1-4.64 4.63H42.27a4.63 4.63 0 0 1-4.63-4.63v-11.34Z" class="cls-37"/><path d="M37.69 118.85h135.48v2.5H37.69z" class="cls-35"/><path d="M173.17 116.59v2.5H37.69s-1.08-7 .23-6.76c23.08 4.17 135.25 4.26 135.25 4.26Z" style="opacity:.8;fill:#385159"/><path d="M44.61 44.77h121.65v67.66H44.61z" style="fill:#c3eefc"/><path d="M37.69 89.04V55.36M173.17 72.61v4.98M173.17 59.78v9.38M37.69 51.67v-9.8A4.89 4.89 0 0 1 42.57 37H168.3a4.88 4.88 0 0 1 4.87 4.88V56" class="cls-15"/><path d="M37.69 119.09h135.48" class="cls-42"/><path d="M44.61 109.65h121.65v2.78H44.61z" class="cls-43"/><path d="M96.71 112.42h-2.78l17.12-67.65h2.78l-17.12 67.65z" style="opacity:.59;fill:#fff"/><path d="M90.6 112.42h-2.78l17.12-67.65h2.78L90.6 112.42z" style="opacity:.3;fill:#fff"/><path d="M109.13 112.42h-8.48l17.11-67.65h8.49l-17.12 67.65z" class="cls-6"/><path d="M44.61 72.98v-6.55" class="cls-15"/><circle cx="155.22" cy="116" r=".71" class="cls-46"/><circle cx="156.56" cy="115.5" r=".21" class="cls-46"/><circle cx="155.52" cy="114.63" r=".21" class="cls-46"/><circle cx="153.48" cy="114.61" r=".49" class="cls-46"/><circle cx="152.79" cy="116.05" r=".43" class="cls-46"/><circle cx="151.57" cy="115.06" r=".22" class="cls-46"/><circle cx="152.06" cy="114.09" r=".27" class="cls-46"/><circle cx="149.96" cy="115.75" r=".46" class="cls-46"/><circle cx="158.19" cy="115.13" r=".29" class="cls-46"/><circle cx="157.11" cy="114.25" r=".17" class="cls-46"/><circle cx="158.38" cy="113.66" r=".29" class="cls-46"/><circle cx="157.06" cy="114.89" r=".2" class="cls-46"/><circle cx="156.07" cy="113.66" r=".22" class="cls-46"/><circle cx="154.65" cy="113.33" r=".33" class="cls-46"/><circle cx="154.92" cy="114.16" r=".07" class="cls-46"/><circle cx="154.61" cy="114.85" r=".11" class="cls-46"/><circle cx="158.18" cy="116.32" r=".46" class="cls-46"/><circle cx="160.04" cy="115.77" r=".36" class="cls-46"/><circle cx="161.86" cy="116.37" r=".75" class="cls-46"/><circle cx="164.13" cy="116.42" r=".8" class="cls-46"/><circle cx="165.55" cy="116.09" r=".35" class="cls-46"/><circle cx="164.26" cy="114.97" r=".12" class="cls-46"/><circle cx="162.51" cy="114.36" r=".27" class="cls-46"/><circle cx="161.38" cy="113.98" r=".27" class="cls-46"/><circle cx="160.41" cy="114.32" r=".37" class="cls-46"/><circle cx="159.41" cy="114.63" r=".27" class="cls-46"/><circle cx="162.08" cy="115.23" r=".16" class="cls-46"/><circle cx="141.05" cy="108.61" r="1.35" class="cls-43"/><circle cx="143.59" cy="107.66" r=".4" class="cls-43"/><circle cx="141.62" cy="106.01" r=".4" class="cls-43"/><circle cx="137.74" cy="105.97" r=".93" class="cls-43"/><circle cx="136.42" cy="108.71" r=".82" class="cls-43"/><circle cx="134.1" cy="106.84" r=".42" class="cls-43"/><circle cx="135.03" cy="104.98" r=".51" class="cls-43"/><circle cx="131.03" cy="108.13" r=".88" class="cls-43"/><circle cx="146.71" cy="106.96" r=".55" class="cls-43"/><circle cx="144.64" cy="105.29" r=".32" class="cls-43"/><circle cx="147.06" cy="104.16" r=".55" class="cls-43"/><circle cx="144.54" cy="106.51" r=".38" class="cls-43"/><circle cx="142.66" cy="104.16" r=".43" class="cls-43"/><circle cx="139.97" cy="103.53" r=".63" class="cls-43"/><circle cx="140.47" cy="105.12" r=".14" class="cls-43"/><circle cx="139.89" cy="106.43" r=".2" class="cls-43"/><circle cx="146.68" cy="109.22" r=".88" class="cls-43"/><circle cx="150.21" cy="108.19" r=".68" class="cls-43"/><circle cx="153.67" cy="109.32" r="1.43" class="cls-43"/><circle cx="158.01" cy="109.42" r="1.53" class="cls-43"/><circle cx="160.71" cy="108.8" r=".67" class="cls-43"/><circle cx="158.25" cy="106.66" r=".24" class="cls-43"/><circle cx="154.93" cy="105.5" r=".52" class="cls-43"/><circle cx="152.77" cy="104.77" r=".52" class="cls-43"/><circle cx="150.93" cy="105.42" r=".71" class="cls-43"/><circle cx="149.02" cy="106.01" r=".52" class="cls-43"/><circle cx="154.1" cy="107.15" r=".31" class="cls-43"/><circle cx="58.22" cy="123.61" r=".64" class="cls-35"/><path d="m52.76 94.47-4 9.25M54.13 97.26l-2 4.62" class="cls-42"/><circle cx="51.33" cy="58.27" r=".68" style="fill:#1e1e30"/><path d="M175.59 107.06v9.86M175.59 118.77v1.58" class="cls-19"/><path d="M173.12 81.58v2.68" class="cls-15"/><circle cx="54.26" cy="122.22" r="2.12" class="cls-35"/><circle cx="56.52" cy="126.39" r="1.06" class="cls-35"/><circle cx="50.39" cy="124.35" r="1.05" class="cls-35"/><circle cx="105.38" cy="127.63" r="4.02" class="cls-6"/><path d="M109.15 125.39a4.35 4.35 0 1 1-3.72-2.09" class="cls-15"/><path d="m88.47 143.56-1.06 2.8M90.13 139.17l-.63 1.67" class="cls-42"/><path d="M59.55 109.65H72.3" style="stroke-width:2.57px;stroke:#5cbddf;stroke-linecap:round;stroke-linejoin:round;fill:none"/><path d="M106.38 40.1h12.74M141.52 40.1h5.9" class="cls-49"/><path d="M43.77 86.97v14.33M166.98 55.56v14.33M166.98 89.73v14.33" class="cls-50"/><path d="M165.24 75.66V90M165.24 47.63v2.92" class="cls-51"/><path d="M145.45 135h-2.92a1 1 0 0 1 0-2h2.92a1 1 0 0 1 0 2Z" class="cls-35"/><path d="M45.55 103.01v2.92M45.55 45.74v2.92" class="cls-51"/><path d="M44.61 62.1V44.77h121.65v67.65H44.61V76.11" class="cls-42"/><path d="M172.32 127.55v3.55a4.11 4.11 0 0 1-3.85 3.7h-6.26" style="stroke-width:1.71px;stroke:#fff;stroke-linecap:round;stroke-linejoin:round;fill:none"/><path d="M53.78 133.97h-6.26" style="stroke-width:2.28px;stroke:#fff;stroke-linecap:round;stroke-linejoin:round;fill:none"/><path d="M164.29 135.06h-122a4.63 4.63 0 0 1-4.63-4.63V92.59M173.17 88.18v42.25a4.63 4.63 0 0 1-4.63 4.63" class="cls-15"/><path d="M147.76 151.87a6.75 6.75 0 0 1 13.49 0" class="cls-37"/><path d="M161.26 151.87h-11.15a22.57 22.57 0 0 0 8.18-5.59 6.73 6.73 0 0 1 2.97 5.59Z" class="cls-35"/><path d="M151.3 145.94a6.65 6.65 0 0 1 3.21-.81 6.74 6.74 0 0 1 6.74 6.74M147.76 151.87a6.72 6.72 0 0 1 1.5-4.24" class="cls-15"/><path d="M79.3 149.07h61.99v3.91H79.3z" class="cls-35"/><path d="M79.3 149.07h61.99v3.91H79.3z" class="cls-15"/><path d="M72.75 149.07h61.99v3.91H72.75z" class="cls-37"/><path d="M72.75 149.07h61.99v3.91H72.75z" class="cls-15"/><path d="M45.05 53.54h86.83a.64.64 0 0 1 .64.64v29.1a.64.64 0 0 1-.64.64H45.05V53.54Z" class="cls-43"/><path d="M25.72 51.2h104.19v30.39H25.72z" class="cls-6"/><path d="M25.72 78.59h104.19v2.99H25.72z" class="cls-18"/><path d="M25.72 72.98v-8.03M25.72 62.09V51.2h104.19v30.38H25.72v-4.04" class="cls-15"/><rect width="57.63" height="2.85" x="33.3" y="68.77" class="cls-25" rx="1.43"/><rect width="26.25" height="2.85" x="33.3" y="62.09" rx="1.43" style="fill:#fc2b79"/><rect width="53.48" height="2.85" x="65.04" y="62.09" rx="1.43" style="fill:#9416d2"/><path d="m29.71 54.74 1.54 1.81M31.25 54.74l-1.54 1.81" class="cls-19"/><circle cx="26.84" cy="138.99" r="1.77" class="cls-28"/><circle cx="27.36" cy="136.04" r=".52" class="cls-56"/><circle cx="26.31" cy="132.78" r=".56" class="cls-56"/><circle cx="29.63" cy="140.55" r=".42" class="cls-56"/><circle cx="29.07" cy="137.67" r=".45" class="cls-57"/><circle cx="27.89" cy="142.25" r=".82" class="cls-28"/><circle cx="28.53" cy="136.29" r=".25" class="cls-57"/><circle cx="26.3" cy="134.99" r=".55" class="cls-28"/><path d="M26.84 129.41a20.57 20.57 0 0 1 2.36-5.06" class="cls-20"/><path d="m24.7 92.19 4.37-6.69M26.3 95.61h-6.53M33.74 108.8h-6.53M30.63 103.24l4.72-7.63" class="cls-21"/><path d="M51.64 156.16h-19a1 1 0 0 1 0-2h19a1 1 0 1 1 0 2ZM61.88 156.16h-4.73a1 1 0 0 1 0-2h4.73a1 1 0 0 1 0 2Z" class="cls-12"/><rect width="161.51" height="7.67" x="22.99" y="152.23" rx="3.83" style="fill:#ffc9bd"/><path d="M184.5 156.25a3.82 3.82 0 0 1-3.83 3.83H26.83a3.84 3.84 0 0 1-3.83-3.83 3.78 3.78 0 0 1 .52-1.92 3.82 3.82 0 0 0 3.32 1.92h153.83a3.83 3.83 0 0 0 2.71-1.13 4 4 0 0 0 .61-.79 3.87 3.87 0 0 1 .51 1.92Z" style="fill:#fb927d"/><path d="M67.81 154.51h-19a1 1 0 1 1 0-2h19a1 1 0 1 1 0 2ZM78.05 154.51h-4.74a1 1 0 1 1 0-2h4.74a1 1 0 1 1 0 2Z" class="cls-14"/><path d="M44.21 159.9h-19a1 1 0 0 1 0-2h19a1 1 0 0 1 0 2ZM54.44 159.9h-4.73a1 1 0 0 1 0-2h4.73a1 1 0 0 1 0 2Z" class="cls-12"/><path d="M115.37 152.23h65.3a3.84 3.84 0 0 1 3.83 3.83h0a3.84 3.84 0 0 1-3.83 3.84H26.83a3.84 3.84 0 0 1-3.83-3.84h0a3.84 3.84 0 0 1 3.84-3.83h68.83M101.1 152.23h4.12M108.85 152.23h2.12" class="cls-15"/><path d="M154.71 143.49H138l-.56-.94c-2.38-4-3.31-13.72-2.62-18.32h16.73c-.69 4.6.24 14.33 2.62 18.32Z" style="fill:#ffe992"/><path d="M152.69 141.48a.55.55 0 0 1-.49-.33 27.63 27.63 0 0 1-1.54-6.21.53.53 0 0 1 .46-.59.54.54 0 0 1 .59.46 26.9 26.9 0 0 0 1.47 5.93.53.53 0 0 1-.28.7.78.78 0 0 1-.21.04Z" style="fill:#ffcd2c"/><path d="M140.17 143.92h-1.89l-.56-.93c-2.39-4-3.31-13.72-2.62-18.32h1.9c-.69 4.6-1.4 18.82 17.42 18.82Z" style="fill:#fff6d3"/><path d="M136.89 127.44h11.88M137.15 130.4h9.23" class="cls-15"/><path d="M135.54 133.94a.55.55 0 0 1-.43-.41 27.81 27.81 0 0 1-.52-6.37.53.53 0 0 1 1.06 0 27.32 27.32 0 0 0 .49 6.09.53.53 0 0 1-.39.64.74.74 0 0 1-.21.05ZM137.86 142.61a.54.54 0 0 1-.51-.3 27.19 27.19 0 0 1-1.92-6.1.52.52 0 0 1 .42-.62.54.54 0 0 1 .62.43 26.65 26.65 0 0 0 1.84 5.82.54.54 0 0 1-.25.71.47.47 0 0 1-.2.06Z" class="cls-6"/><path d="M145.48 143.49H138l-.56-.94c-2.38-4-3.31-13.72-2.62-18.32h3.78M141.24 124.23h10.29c-.69 4.6.24 14.33 2.62 18.32l.56.94h-4.85" class="cls-15"/><circle cx="56.54" cy="139.86" r="1.07" class="cls-26"/><circle cx="54.6" cy="144.53" r=".44" class="cls-26"/><circle cx="54.72" cy="142.53" r=".23" class="cls-26"/><g style="opacity:.6"><circle cx="53.55" cy="141.72" r=".23" class="cls-26"/><circle cx="54.42" cy="140.69" r=".64" class="cls-26"/><circle cx="53.31" cy="143.17" r=".64" class="cls-26"/></g><g style="opacity:.5"><circle cx="49.68" cy="143.83" r=".23" class="cls-26"/><circle cx="50.72" cy="142.97" r=".64" class="cls-26"/><circle cx="49.19" cy="145.22" r=".64" class="cls-26"/></g><path d="M92.3 136.34h29.29" style="stroke:#9f9ec3;stroke-width:1.43px;stroke-linecap:round;stroke-linejoin:round;fill:none"/><path d="M137.69 134.6a22.37 22.37 0 0 0 1.56 5.23M47.47 91.44v-5.12" class="cls-66"/><circle cx="47.47" cy="94.91" r=".92" class="cls-6"/><path d="M34.64 156.16h-5.12" class="cls-66"/><circle cx="38.11" cy="156.16" r=".92" class="cls-6"/><circle cx="58.44" cy="27.35" r="2.29" class="cls-67"/><circle cx="208.61" cy="96.89" r="2.29" class="cls-67"/><circle cx="19.24" cy="122.42" r="2.29" class="cls-68"/><circle cx="186.39" cy="50.55" r="2.29" class="cls-68"/><circle cx="162.51" cy="142.53" r="1.15" class="cls-25"/><circle cx="169.42" cy="148.5" r="1.15" class="cls-16"/><circle cx="194.34" cy="50.24" r="1.15" class="cls-16"/><circle cx="22.02" cy="49.09" r="1.15" class="cls-69"/><circle cx="65.04" cy="144.7" r="1.15" class="cls-69"/><circle cx="181.08" cy="111.84" r="1.15" class="cls-69"/></g></g></svg>