<?xml version="1.0" encoding="UTF-8" standalone="no"?>
<!-- Created with Inkscape (http://www.inkscape.org/) -->

<svg
   width="1600.2645mm"
   height="900.26459mm"
   viewBox="0 0 1600.2645 900.26459"
   version="1.1"
   id="svg5"
   xml:space="preserve"
   inkscape:version="1.2.1 (9c6d41e410, 2022-07-14)"
   sodipodi:docname="mtgpacksim.svg"
   inkscape:export-filename="mtgpacksim.png"
   inkscape:export-xdpi="96"
   inkscape:export-ydpi="96"
   xmlns:inkscape="http://www.inkscape.org/namespaces/inkscape"
   xmlns:sodipodi="http://sodipodi.sourceforge.net/DTD/sodipodi-0.dtd"
   xmlns="http://www.w3.org/2000/svg"
   xmlns:svg="http://www.w3.org/2000/svg"><sodipodi:namedview
     id="namedview7"
     pagecolor="#ffffff"
     bordercolor="#666666"
     borderopacity="1.0"
     inkscape:showpageshadow="2"
     inkscape:pageopacity="0.0"
     inkscape:pagecheckerboard="0"
     inkscape:deskcolor="#d1d1d1"
     inkscape:document-units="mm"
     showgrid="false"
     inkscape:zoom="0.18516565"
     inkscape:cx="3062.123"
     inkscape:cy="1819.992"
     inkscape:window-width="2212"
     inkscape:window-height="1332"
     inkscape:window-x="12"
     inkscape:window-y="52"
     inkscape:window-maximized="1"
     inkscape:current-layer="layer1" /><defs
     id="defs2"><clipPath
       clipPathUnits="userSpaceOnUse"
       id="clipPath1574"><circle
         style="opacity:1;fill:#ffffff;stroke:#ffffff;stroke-width:1.25129"
         id="circle1576"
         cx="500.04999"
         cy="499.99997"
         r="472.92993" /></clipPath></defs><g
     inkscape:label="Layer 1"
     inkscape:groupmode="layer"
     id="layer1"
     transform="translate(-85.305674,-93.483202)"><rect
       style="fill:#000000;stroke:#ffffff;stroke-width:0.264583"
       id="rect184"
       width="1600"
       height="900"
       x="85.437965"
       y="93.615494"
       sodipodi:insensitive="true" /><text
       xml:space="preserve"
       style="font-style:normal;font-variant:normal;font-weight:normal;font-stretch:normal;font-size:117.19px;line-height:1.25;font-family:Literata;-inkscape-font-specification:'Literata, Normal';font-variant-ligatures:normal;font-variant-caps:normal;font-variant-numeric:normal;font-variant-east-asian:normal;fill:#ffffff;fill-opacity:1;stroke:none;stroke-width:2.92976"
       x="959.56836"
       y="514.43518"
       id="text1632"><tspan
         sodipodi:role="line"
         id="tspan905"
         x="959.56836"
         y="514.43518">mtg pack</tspan><tspan
         sodipodi:role="line"
         id="tspan907"
         x="959.56836"
         y="660.92267">simulator</tspan></text><path
       style="fill:none;stroke:#000000;stroke-width:0.264583px;stroke-linecap:butt;stroke-linejoin:miter;stroke-opacity:1"
       d="M 1685.438,844.67747 V 242.55353"
       id="path1382" /><path
       style="fill:none;stroke:#000000;stroke-width:0.264583px;stroke-linecap:butt;stroke-linejoin:miter;stroke-opacity:1"
       d="M 85.437965,844.67747 V 242.55353"
       id="path1382-3" /></g><g
     inkscape:groupmode="layer"
     id="layer2"
     inkscape:label="Main"><g
       id="g1716"
       transform="translate(26.72806,37.2453)"><rect
         style="fill:#ffffff;fill-opacity:1;stroke:#000000;stroke-width:10"
         id="rect1240"
         width="512"
         height="512"
         x="242.53664"
         y="250.37019"
         inkscape:label="rect1240"
         transform="translate(-85.305678,-93.4832)" /><g
         id="g1186"
         transform="matrix(0.42424337,0,0,0.42424337,217.86689,275.48176)"><path
           d="m 867.30078,771.82324 a 50.16694,50.16694 0 0 1 -13.54492,-1.87109 l -183.02441,-48.98926 0.5371,-1.92578 183.02637,48.98926 a 48.16143,48.16143 0 0 0 13.00586,1.79687 c 21.53906,0 40.64258,-12.48047 46.45606,-33.21386 L 1044.043,271.99072 h -10e-4 l 0.2842,-1.01123 a 48.28977,48.28977 0 0 0 -33.4297,-59.4126 l -294.1924,-82.4956 a 48.29038,48.29038 0 0 0 -59.46094,33.4165 l -10.22168,36.46 -1.92578,-0.54 10.22168,-36.46 a 50.29063,50.29063 0 0 1 61.92676,-34.80224 l 294.19236,82.4956 a 50.29149,50.29149 0 0 1 35.0625,60.96143 l 0.01,0.002 -0.2695,0.96289 -130.55568,465.5815 c -6.05469,21.59278 -25.9502,34.67383 -48.38184,34.67383 z"
           transform="translate(-139.5,-125.26398)"
           fill="#2f2e41"
           id="path1027" /><polygon
           points="546.54,59.306 562.54,45.396 567.03,46.656 568.11,42.796 552.7,38.476 551.62,42.336 556.7,43.756 536.35,59.746 541.99,39.636 545.85,40.716 546.93,36.856 531.52,32.536 530.44,36.396 536.22,38.016 524.07,81.336 518.29,79.716 518.14,80.236 517.52,82.476 518.96,84.066 522.31,85.006 532.62,87.896 533.7,84.036 529.84,82.956 533.23,70.866 541.38,63.786 543.55,86.806 537.55,85.116 536.47,88.976 551.87,93.296 552.95,89.436 549.68,88.526 "
           fill="#6c63ff"
           id="polygon1029" /><path
           d="M 683.25,245.83 A 116.74372,116.74372 0 0 0 672,251.44 c -0.67,0.38 -1.34,0.77 -2,1.16 v -12.37 a 46.801,46.801 0 0 0 -1.87,-13.15 c 0.58,-0.36 1.17,-0.75 1.75,-1.14 0.53,-0.35 1.07,-0.71 1.6,-1.07 a 134.73634,134.73634 0 0 0 11.77,20.96 z"
           transform="translate(-139.5,-125.26398)"
           fill="#6c63ff"
           id="path1031" /><polygon
           points="765.503,575.895 771.281,577.515 772.361,573.664 756.955,569.344 755.875,573.195 759.726,574.275 756.335,586.369 748.189,593.449 746.024,570.433 752.023,572.115 753.103,568.264 737.698,563.944 736.618,567.795 739.891,568.713 743.033,597.93 727.027,611.842 722.542,610.584 721.462,614.435 736.868,618.755 737.948,614.904 732.874,613.481 753.218,597.485 747.576,617.604 743.725,616.524 742.645,620.375 758.051,624.695 759.131,620.844 753.353,619.224 "
           fill="#6c63ff"
           id="polygon1033" /><path
           d="M 885.31538,661.93431 A 110.09112,110.09112 0 0 0 905.775,650.43613 169.04888,169.04888 0 0 0 917.55363,671.39475 125.77733,125.77733 0 0 0 897.094,682.89294 135.22416,135.22416 0 0 0 885.31538,661.93431 Z"
           transform="translate(-139.5,-125.26398)"
           fill="#6c63ff"
           id="path1035" /><path
           d="m 750.397,453.726 c 0,0 -5.05855,32.85439 -6.56141,34.51011 -1.50286,1.65572 10.50007,40.333 10.50007,40.333 l 38.48867,-22.44154 c 0,0 7.48855,-41.52013 9.95427,-42.90585 C 805.24432,461.836 750.397,453.726 750.397,453.726 Z"
           transform="translate(-139.5,-125.26398)"
           fill="#ffb8b8"
           id="path1037" /><path
           d="m 750.397,453.726 c 0,0 -5.05855,32.85439 -6.56141,34.51011 -1.50286,1.65572 10.50007,40.333 10.50007,40.333 l 38.48867,-22.44154 c 0,0 7.48855,-41.52013 9.95427,-42.90585 C 805.24432,461.836 750.397,453.726 750.397,453.726 Z"
           transform="translate(-139.5,-125.26398)"
           opacity="0.1"
           id="path1039" /><circle
           cx="640.67419"
           cy="322.27194"
           r="38"
           fill="#ffb8b8"
           id="circle1041" /><path
           d="m 763.7042,506.27039 -3.31144,-3.00572 -14.8847,-21.18423 c 0,0 -1.70823,-1.12439 -3.32823,4.65277 l -1.62,5.77716 -13.98432,5.42575 -30.94282,132.569 82.806,23.22 34.1014,-132.72187 -16.01721,-16.95432 -1.77345,-8.1795 -24.72806,10.09525 z"
           transform="translate(-139.5,-125.26398)"
           fill="#ffffff"
           id="path1043" /><path
           d="m 670,644.09 2,0.56 128.96,36.16 43.12,-142.65 c 0,0 -10.2,-8.06 -18.18,-9.26 0,0 -13.4,-15.18 -19.17,-16.8 -5.78,-1.62 -12.17,-15.87 -12.17,-15.87 0,0 -6.75,24.07 -18.35,39.51 -11.6,15.44 -31.8,68.98 -31.8,68.98 l -5.7,-98.19 6.4,-24.69 a 45.464,45.464 0 0 0 -10.06,8.09 c -4.51,4.96 -16.02,9 -16.02,9 0,0 -30.32,8.12 -35.68,8.7 -5.35,0.57 -7.82,1.96 -7.82,1.96 l -3.53,24.29 -2,13.76 z"
           transform="translate(-139.5,-125.26398)"
           fill="#2f2e41"
           id="path1045" /><path
           d="m 687.6,588.79 c -1.2,7.97 -13.54,40.86 -13.54,40.86 l -2.06,2.07 -2,2.01 V 511.92 a 5.61755,5.61755 0 0 1 2,-1.39 13.71966,13.71966 0 0 1 3.53,-0.94 l 3.86,1.08 c 0,0 9.41,70.14 8.21,78.12 z"
           transform="translate(-139.5,-125.26398)"
           fill="#2f2e41"
           id="path1047" /><path
           d="m 775.44293,631.07505 c 0,0 18.92574,-34.1587 33.25151,-25.98726 14.32577,8.17144 -8.64,30.81153 -8.64,30.81153 z"
           transform="translate(-139.5,-125.26398)"
           fill="#ffb8b8"
           id="path1049" /><path
           d="m 716.86131,617.76364 c 0,0 -36.31869,-11.22286 -37.12869,-8.33428 -0.81,2.88858 -10.7543,19.83293 -7.86572,20.64293 2.88858,0.81 25.30437,6.05714 25.03437,7.02 -0.27,0.96286 10.74432,6.12858 10.74432,6.12858 z"
           transform="translate(-139.5,-125.26398)"
           fill="#ffb8b8"
           id="path1051" /><polygon
           points="618.886,388.862 623.7,390.212 643.686,404.125 648.165,384.489 625.05,385.398 620.236,384.048 600.963,371.253 594.58,390.355 "
           fill="#6c63ff"
           id="polygon1053" /><polygon
           points="534.56,504.386 586.05,528.176 582.5,535.736 531.5,521.736 530.5,518.826 530.5,502.796 532.5,503.576 "
           fill="#2f2e41"
           id="polygon1055" /><path
           d="m 727.45278,620.73364 c 0,0 -11.97719,-5.43572 -12.24719,-4.47286 -0.27,0.96286 -16.34288,28.65153 -12.49144,29.73153 3.85144,1.08 17.48435,8.01858 17.48435,8.01858 z"
           transform="translate(-139.5,-125.26398)"
           fill="#ffffff"
           id="path1057" /><path
           d="m 837.34017,536.26612 6.74,1.89 c 0,0 3.85144,1.08 4.15716,7.39716 0.30572,6.31716 5.53292,35.82439 3.06719,37.21011 -2.46573,1.38572 -3.15858,0.15287 -1.77286,2.61859 1.38572,2.46572 2.61859,1.77286 1.11573,3.42858 -1.50286,1.65572 -4.95139,54.69444 -16.12853,72.33166 -11.17714,17.63722 -14.57,26.033 -18.42146,24.953 L 716.267,658.10129 c 0,0 4.44578,-39.25765 8.56722,-39.14051 4.12144,0.11714 71.63878,14.89568 71.63878,14.89568 0,0 26.15426,-100.67746 40.86717,-97.59034 z"
           transform="translate(-139.5,-125.26398)"
           fill="#2f2e41"
           id="path1059" /><path
           d="m 757.78487,405.88642 -6.2345,-4.47128 c 0,0 18.58634,-10.44541 38.42854,-3.51981 l -4.08748,-7.273 c 0,0 15.30057,-1.15548 24.20663,15.63767 4.68172,8.82778 10.06253,19.17007 12.26158,29.73748 l 7.43484,2.08484 -4.84329,5.33591 9.12032,9.25151 -10.83473,-4.24064 a 32.524,32.524 0 0 1 -5.56145,15.77732 l -4.47115,6.23443 c 0,0 -4.43484,-23.02763 -3.72693,-25.55215 l -1.76976,6.31126 c 0,0 -5.34963,-7.62685 -4.28778,-11.41359 l -5.02557,3.356 0.0534,-7.47333 -25.2984,0.39427 5.37951,-4.61825 -15.0468,-2.17709 7.627,-5.34958 c 0,0 -18.70994,3.60324 -21.28794,10.36864 -2.57778,6.76535 -13.26,13.30046 -13.26,13.30046 l -2.017,-7.37311 c 0,0 2.28373,-29.99344 23.24098,-34.32796 z"
           transform="translate(-139.5,-125.26398)"
           fill="#2f2e41"
           id="path1061" /><path
           d="m 744.72085,419.55721 0.29721,-1.295 c 2.88968,-12.58007 -19.33835,-35.97544 -19.563,-36.21036 l -0.39466,-0.41189 0.15412,-0.5496 c 0.4398,-1.56841 2.20365,-2.96129 17.65926,0.38888 6.01774,1.30459 12.01884,2.89458 14.53112,3.57624 -0.28052,-7.18284 -9.18474,-16.6997 -9.27973,-16.80038 l -1.12008,-1.18683 1.566,-0.45948 c 10.26547,-3.009 22.28032,6.97086 26.12019,10.50459 l 6.41856,-22.88956 12.70134,18.76039 c 7.79712,-11.67253 19.07562,-11.19961 19.56853,-11.17245 l 1.58331,0.0865 -0.76052,1.39178 c -5.34317,9.77538 -6.30593,16.19629 -6.36142,19.36186 14.21594,-16.889 27.027,-15.41792 27.58441,-15.34426 l 1.94137,0.25634 -1.34612,1.42228 c -18.61059,19.665 -20.802,45.60606 -20.82209,45.86566 l -0.0671,0.8742 z M 727.67,381.4914 c 3.93,4.25933 20.92405,23.481 19.51633,35.92848 l 66.10992,-3.5964 c 0.54512,-4.62771 3.89789,-26.64821 19.70494,-44.50036 -4.30785,0.38486 -14.4698,2.84024 -25.17507,16.52141 l -1.22716,1.56771 -0.525,-1.92009 c -0.0825,-0.30256 -1.87214,-7.33553 5.55265,-21.62269 -3.40377,0.32194 -11.32864,2.10388 -16.92936,11.45408 l -0.80644,1.34592 -12.01971,-17.7533 -6.16913,22 -1.20991,-1.22616 c -0.13508,-0.13677 -13.03108,-13.04892 -23.75367,-11.5094 2.75251,3.205 9.33808,11.6462 8.6167,18.28236 l -0.12732,1.17377 -1.13681,-0.31878 C 745.46282,383.77681 731.03938,380.75512 727.67,381.4914 Z"
           transform="translate(-139.5,-125.26398)"
           fill="#6c63ff"
           id="path1063" /><path
           d="m 840.40847,362.03937 a 3.58691,3.58691 0 1 1 4.42216,-2.48523 3.59071,3.59071 0 0 1 -4.42216,2.48523 z m 1.39693,-4.98167 a 1.58691,1.58691 0 1 0 1.09951,1.95644 1.58875,1.58875 0 0 0 -1.09951,-1.95644 z"
           transform="translate(-139.5,-125.26398)"
           fill="#6c63ff"
           id="path1065" /><path
           d="m 815.49963,355.05458 a 3.58692,3.58692 0 1 1 4.42216,-2.48524 3.59074,3.59074 0 0 1 -4.42216,2.48524 z m 1.39693,-4.98168 a 1.58692,1.58692 0 1 0 1.09951,1.95645 1.58875,1.58875 0 0 0 -1.09951,-1.95645 z"
           transform="translate(-139.5,-125.26398)"
           fill="#6c63ff"
           id="path1067" /><path
           d="m 777.63572,351.15424 a 3.58691,3.58691 0 1 1 4.42216,-2.48523 3.59072,3.59072 0 0 1 -4.42216,2.48523 z m 1.39693,-4.98167 a 1.58691,1.58691 0 1 0 1.09951,1.95644 1.58875,1.58875 0 0 0 -1.09951,-1.95644 z"
           transform="translate(-139.5,-125.26398)"
           fill="#6c63ff"
           id="path1069" /><path
           d="m 717.1894,379.87858 a 3.58691,3.58691 0 1 1 4.42216,-2.48523 3.59071,3.59071 0 0 1 -4.42216,2.48523 z m 1.39693,-4.98167 a 1.58691,1.58691 0 1 0 1.09951,1.95644 1.58875,1.58875 0 0 0 -1.09951,-1.95644 z"
           transform="translate(-139.5,-125.26398)"
           fill="#6c63ff"
           id="path1071" /><path
           d="m 740.56282,363.5954 a 3.58692,3.58692 0 1 1 4.42217,-2.48523 3.59115,3.59115 0 0 1 -4.42217,2.48523 z m 1.39694,-4.98168 a 1.58692,1.58692 0 1 0 1.09951,1.95645 1.58886,1.58886 0 0 0 -1.09951,-1.95645 z"
           transform="translate(-139.5,-125.26398)"
           fill="#6c63ff"
           id="path1073" /><polygon
           points="720.272,575.155 719.31,574.885 530.809,522.027 531.348,520.101 718.887,572.69 837.418,149.994 573.112,75.88 532.799,219.645 530.873,219.105 571.728,73.414 572.689,73.684 839.883,148.609 839.613,149.571 "
           fill="#2f2e41"
           id="polygon1075" /><path
           d="m 181.134,739.11671 c 12.42842,23.049 38.806,32.94351 38.806,32.94351 0,0 6.22712,-27.47543 -6.2013,-50.52448 -12.42842,-23.04905 -38.806,-32.94351 -38.806,-32.94351 0,0 -6.22711,27.47543 6.2013,50.52448 z"
           transform="translate(-139.5,-125.26398)"
           fill="#2f2e41"
           id="path1077" /><path
           d="m 189.67653,731.53374 c 22.43841,13.49969 31.08016,40.3138 31.08016,40.3138 0,0 -27.73812,4.92678 -50.17653,-8.57291 C 148.14175,749.77494 139.5,722.96083 139.5,722.96083 c 0,0 27.73811,-4.92683 50.17653,8.57291 z"
           transform="translate(-139.5,-125.26398)"
           fill="#6c63ff"
           id="path1079" /><path
           d="M 669.88,225.94 A 49.004,49.004 0 0 0 661.81,210.27 49.78347,49.78347 0 0 0 657.64,205.5 49.1065,49.1065 0 0 0 622.77,191 H 317.23 A 49.28,49.28 0 0 0 268,240.23 V 723.77 A 49.28,49.28 0 0 0 317.23,773 H 622.77 A 49.28,49.28 0 0 0 672,723.77 V 240.23 a 48.87057,48.87057 0 0 0 -2.12,-14.29 z M 670,723.77 A 47.287,47.287 0 0 1 622.77,771 H 317.23 A 47.287,47.287 0 0 1 270,723.77 V 240.23 A 47.287,47.287 0 0 1 317.23,193 h 305.54 a 47.1127,47.1127 0 0 1 34.25,14.74 q 0.735,0.78 1.44,1.59 a 47.12039,47.12039 0 0 1 11.54,30.9 z"
           transform="translate(-139.5,-125.26398)"
           fill="#2f2e41"
           id="path1081" /><path
           d="m 316.74192,268.70949 c -0.0555,-0.13036 -0.12411,-0.24888 -0.18511,-0.37428 a 30.29407,30.29407 0 0 0 3.31465,-14.268 c 0,-15.50156 -9.68724,-26.32821 -23.55682,-26.32821 -13.86958,0 -23.55683,10.82665 -23.55683,26.32821 0,15.50156 9.68724,26.32822 23.55683,26.32822 a 22.22629,22.22629 0 0 0 17.29565,-7.72327 c 4.441,7.1861 13.026,8.13425 13.4215,8.17389 L 327.5,276.25052 c -0.323,-0.0347 -7.94429,-0.92652 -10.75808,-7.54103 z m -20.42728,7.06695 c -11.15052,0 -18.93784,-8.92718 -18.93784,-21.70923 0,-12.78205 7.78732,-21.70922 18.93784,-21.70922 11.15052,0 18.93783,8.92718 18.93783,21.70922 a 26.09216,26.09216 0 0 1 -2.11,10.6067 c -6.8942,-4.18866 -19.72068,-1.68577 -21.46035,-1.31911 l 0.95,4.5202 c 4.7114,-0.98649 14.08441,-1.77779 18.16441,0.78194 a 17.66814,17.66814 0 0 1 -14.48189,7.1195 z"
           transform="translate(-139.5,-125.26398)"
           fill="#6c63ff"
           id="path1083" /><path
           d="m 298,291.382 a 8.01388,8.01388 0 0 0 -11.33333,11.33334 L 298,314.04863 309.33333,302.7153 A 8.01388,8.01388 0 0 0 298,291.382 Z"
           transform="translate(-139.5,-125.26398)"
           fill="#6c63ff"
           id="path1085" /><path
           d="m 623.25808,698.38777 c 0.0555,0.13036 0.12411,0.24888 0.18511,0.37428 a 30.294,30.294 0 0 0 -3.31465,14.268 c 0,15.50157 9.68724,26.32822 23.55682,26.32822 13.86958,0 23.55683,-10.82665 23.55683,-26.32822 0,-15.50157 -9.68724,-26.32821 -23.55683,-26.32821 a 22.22629,22.22629 0 0 0 -17.29565,7.72327 c -4.441,-7.1861 -13.026,-8.13425 -13.4215,-8.17389 L 612.5,690.84674 c 0.323,0.0347 7.94429,0.9265 10.75808,7.54103 z m 20.42728,-7.067 c 11.15052,0 18.93784,8.92719 18.93784,21.70923 0,12.78204 -7.78732,21.70923 -18.93784,21.70923 -11.15052,0 -18.93783,-8.92718 -18.93783,-21.70923 a 26.09214,26.09214 0 0 1 2.11,-10.60669 c 6.8942,4.18866 19.72068,1.68577 21.46035,1.31911 l -0.95,-4.5202 c -4.7114,0.98649 -14.08441,1.77779 -18.16441,-0.78194 a 17.66812,17.66812 0 0 1 14.48189,-7.11947 z"
           transform="translate(-139.5,-125.26398)"
           fill="#6c63ff"
           id="path1087" /><path
           d="M 642,675.71529 A 8.01387,8.01387 0 0 0 653.33333,664.382 L 642,653.04863 630.66667,664.382 A 8.01387,8.01387 0 0 0 642,675.71529 Z"
           transform="translate(-139.5,-125.26398)"
           fill="#6c63ff"
           id="path1089" /><path
           d="m 494.64587,465.71115 c -13.61413,-23.00368 -40.54861,-24.07575 -40.54861,-24.07575 0,0 -26.24611,-3.35633 -43.08283,31.67855 -15.69316,32.65539 -37.35172,64.18483 -3.48685,71.82921 l 6.117,-19.03877 3.78821,20.45619 a 132.50656,132.50656 0 0 0 14.48952,0.24764 c 36.26655,-1.1709 70.805,0.34257 69.69287,-12.67139 -1.47835,-17.30022 6.13022,-46.29155 -6.96931,-68.42568 z"
           transform="translate(-139.5,-125.26398)"
           fill="#2f2e41"
           id="path1091" /><path
           d="m 444.42215,544.08708 c 0.0659,2.58925 0.0462,5.32 -1.2405,7.56794 -2.55068,4.45626 -8.77746,5.12336 -12.52288,8.63562 -3.93886,3.69364 -4.38469,9.68822 -4.57241,15.08473 -0.19626,5.642 -0.36277,11.469 1.6963,16.7255 a 40.65962,40.65962 0 0 0 4.75034,8.16113 q 3.43009,4.94445 6.92363,9.84448 a 42.50313,42.50313 0 0 0 4.14572,5.20265 c 4.17109,4.24877 9.89244,6.60062 15.60508,8.27864 3.6909,1.08416 7.67613,1.92868 11.3382,0.7508 a 21.70662,21.70662 0 0 0 6.59342,-4.05429 c 2.72367,-2.163 5.48919,-4.37013 7.46327,-7.23368 3.07515,-4.46076 3.9263,-10.045 4.56372,-15.42537 a 332.8629,332.8629 0 0 0 2.19408,-47.95141 11.75257,11.75257 0 0 0 -0.91547,-5.09484 c -1.89659,-3.70333 -6.97627,-4.49394 -9.65283,-7.6795 -2.28838,-2.72357 -2.38171,-6.61049 -2.36218,-10.16775 l 0.0497,-9.056 a 3.79376,3.79376 0 0 0 -0.44011,-2.20632 3.73782,3.73782 0 0 0 -2.59772,-1.212 87.5709,87.5709 0 0 0 -17.03739,-1.13982 c -4.62344,0.14128 -13.49452,-0.24571 -17.49227,2.3294 -3.62874,2.33741 0.91468,8.79312 1.75522,12.4194 a 80.91135,80.91135 0 0 1 1.75508,16.22069 z"
           transform="translate(-139.5,-125.26398)"
           fill="#a0616a"
           id="path1093" /><circle
           cx="315.53427"
           cy="366.66827"
           r="36.603561"
           fill="#a0616a"
           id="circle1095" /><path
           d="m 439.9618,582.5968 a 53.54739,53.54739 0 0 1 -5.70845,-11.0871 c -1.309,-3.956 -1.65238,-8.37707 -0.0994,-12.24377 -3.95536,-2.29515 -9.32568,-0.43652 -12.20618,3.11528 -2.8805,3.5518 -3.76206,8.31289 -4.016,12.87886 -0.25394,4.56597 0.0152,9.19913 -0.9784,13.6629 -2.19838,9.87576 -10.35606,17.99484 -10.9627,28.09413 -0.59681,9.93558 6.21635,18.59093 9.56811,27.9631 a 46.63021,46.63021 0 0 1 2.49807,18.20141 c -0.1086,1.99268 -0.23372,4.2638 1.17235,5.68 a 6.47817,6.47817 0 0 0 2.53351,1.365 c 16.17372,5.69027 33.6437,6.18254 50.78371,6.61669 l 28.30959,0.71707 a 9.02291,9.02291 0 0 0 4.99916,-0.83715 c 2.53981,-1.55726 2.87974,-5.04794 2.92292,-8.02684 0.37188,-25.65639 -0.71942,-51.30895 -1.81047,-76.94483 -0.39546,-9.29189 -0.79763,-18.63767 -2.768,-27.72684 -0.50174,-2.31446 -1.32449,-4.88824 -3.46107,-5.90975 -1.8085,-0.86464 -3.95412,-0.30484 -5.83455,0.38962 a 46.4571,46.4571 0 0 0 -21.758,16.749 c -5.80877,8.26728 -8.66611,18.18454 -14.351,26.51457 -4.12547,6.045 -6.51143,0.77665 -9.26012,-3.675 q -4.78479,-7.74933 -9.57309,-15.49635 z"
           transform="translate(-139.5,-125.26398)"
           fill="#ffffff"
           id="path1097" /><path
           d="m 435.58,559.8986 c -0.72,0.51 -1.43,1.05 -2.11005,1.62 a 40.84911,40.84911 0 0 0 -6.8,7.16 56.72208,56.72208 0 0 0 -7.7,14.53 c -3.32,9.1 -4.76,18.76 -6.13995,28.34 a 68.39774,68.39774 0 0 0 -0.97,10.68 c 0.21,13.16 7.99,25.35 8,38.52 0,0.5 -0.01,0.99 -0.04,1.49 a 43.26068,43.26068 0 0 1 -0.76,6.42 c -0.57,3.09 -1.39,6.14 -2.2,9.18 -2.04,7.62 -4.24,15.52 -8.22,22.21 -0.4,0.68 -0.83,1.35 -1.27,2 h -28 c 0.22,-0.67 0.45,-1.33 0.67,-2 q 7.155,-21.195 14.30005,-42.38 c 1.46,-4.32 2.92,-8.66 3.95,-13.1 a 124.07457,124.07457 0 0 0 2.41,-16.63 q 1.65,-17.385 2.17,-34.84 c 0.13,-4.18 0.22,-8.45 1.57,-12.41 a 40.59828,40.59828 0 0 1 4.98,-9.08 q 4.335,-6.52506 8.67005,-13.05 c 1.61,-2.42 3.3,-4.91 5.78,-6.42 2.07,-1.27 4.53,-1.73 6.71,-2.8 a 34.31183,34.31183 0 0 0 3.94,-2.61 c 3.26,-2.31 7.09,-4.74 9.9,-2.38 a 5.51383,5.51383 0 0 1 1.16,1.33 6.69111,6.69111 0 0 1 0.43,0.77 c 2.6999,5.84002 -6.8001,10.88 -10.4301,13.45 z"
           transform="translate(-139.5,-125.26398)"
           fill="#2f2e41"
           id="path1099" /><path
           d="M 527.82,702.04863 H 398.14 c 0.7,-0.64 1.39,-1.31 2.06,-2 0.1,-0.1 0.19,-0.2 0.29,-0.3 4.96,-5.15 6.09,-11.48 8.58,-18.18005 q 2.805,-7.575 5.61,-15.14 a 7.83143,7.83143 0 0 1 1.43,-2.69 4.43654,4.43654 0 0 1 1.97,-1.18 7.642,7.642 0 0 1 1.74,-0.32 19.40735,19.40735 0 0 1 2.53,0 q 34.905,1.8 69.76,4.39 4.5,0.34506 9,0.69 c 2.45,1.82 4.87,3.75 7.18,5.79 7.51,6.6 14.02,14.37 17.75,23.55 0.45,1.11 0.86,2.24 1.2,3.39 0.22,0.66002 0.41,1.33001 0.58,2.00005 z"
           transform="translate(-139.5,-125.26398)"
           fill="#2f2e41"
           id="path1101" /><polygon
           points="285.77,329.993 278.167,363.573 297.093,362.845 302.38,350.508 302.38,362.641 311.113,362.305 316.181,342.665 319.349,363.573 350.394,362.939 349.127,338.23 322.517,324.291 "
           fill="#2f2e41"
           id="polygon1103" /><path
           d="m 527.82,702.04863 h -29.28 c -0.21,-0.66 -0.41,-1.33 -0.6,-2 a 157.25975,157.25975 0 0 1 -4.54,-22.68 c -0.31,-2.19 -0.58,-4.39 -0.83,-6.58 -0.16,-1.39 -0.31,-2.77 -0.46,-4.16 -1.68,-15.44 -2.97,-31.03 -7.69,-45.81 -0.57,-1.79 -1.19,-3.57 -1.79,-5.35 a 63.09619,63.09619 0 0 1 -2.6,-9.41 c -1.28,-7.32 -0.32,-14.9 -1.64,-22.21 -0.74,-4.08 -2.21,-7.67 -3.1,-11.41 a 23.10828,23.10828 0 0 1 -0.66,-6.91 14.88177,14.88177 0 0 1 7.79,-3.86 c 1.01,-0.17 2.15,-0.3 2.76,-1.11 a 3.464,3.464 0 0 0 0.46,-2.04 97.95682,97.95682 0 0 0 -0.81,-14.11 c -0.2,-1.64 -0.45,-3.28 -0.75,-4.91 -0.01,-0.08 -0.03,-0.15 -0.04,-0.23 2.44,-1.06 5.19,-1.07 7.84,-1.06 2.89,0.01 5.77,0.01 8.65,0.02 q 7.995,0.03 15.99,0.05 c 4.96,0.01 10.09,0.06 14.6,2.11 4.66,2.13 8.2,6.24 10.54,10.8 2.34,4.56 3.61,9.58 4.76,14.57 a 19.51973,19.51973 0 0 1 0.5,4.21 c 0.22,11.26 -8.18,22.6 -9.02,34.11 -0.27,3.73 0.04,7.49 -0.3,11.22 -0.34,3.74 -1.34,7.4 -1.52,11.14 -0.01,0.19 -0.02,0.39 -0.02,0.58 -0.11,4.87 1.31,9.64 2.95,14.23 2.54,7.13 5.63,14.04 8.82,20.91 3.08,6.65 6.24,13.27 9.08,20.01 a 34.26306,34.26306 0 0 1 2.95,9.89 13.72406,13.72406 0 0 1 -1.51,7.99 9.3757,9.3757 0 0 1 -1.19,1.69 l -0.02,0.02 c -0.09,0.1 -0.18,0.2 -0.27,0.29 z"
           transform="translate(-139.5,-125.26398)"
           fill="#2f2e41"
           id="path1105" /><path
           d="m 555.71,691.78862 a 11.082,11.082 0 0 1 -1.07,3.83 c -0.05,0.12 -0.1,0.23 -0.15,0.35 -0.58,1.37 -1.17,2.72 -1.78,4.08 -0.3,0.66 -0.6,1.33 -0.91,2 h -16.56 a 18.53555,18.53555 0 0 0 1.66,-2 c 2.54,-3.53 4.01,-7.82 6.6,-11.63 a 8.9538,8.9538 0 0 1 1.21,-1.44 c 4.15,-4.02002 11.26,-3.20001 11,4.81 z"
           transform="translate(-139.5,-125.26398)"
           fill="#ffb8b8"
           id="path1107" /><path
           d="m 566.49,702.04863 a 19.61817,19.61817 0 0 0 0.53,-2 c 0.12,-0.53 0.22,-1.05 0.3,-1.58 0.53,-3.49 0.52,-7.06 1.35,-10.49 1.17,-4.91 4.68,-10.72 1.79,-14.85 a 15.69052,15.69052 0 0 0 6.21,-2.78 c 1.72,-1.5 2.72,-4.1 1.68,-6.14 -1.03,-2.01 -3.82,-3.34 -3.44,-5.57 a 5.313,5.313 0 0 1 0.98,-1.94 14.52982,14.52982 0 0 0 -0.25,-15.94 c -0.91,-1.3 -2.03,-2.44 -2.86,-3.8 a 22.66345,22.66345 0 0 1 -2.07,-5.27 98.1662,98.1662 0 0 0 -12.63,-26.18 17.37178,17.37178 0 0 1 -2.79,-5.16 21.30405,21.30405 0 0 1 -0.22,-6.13 c 0.2,-8.08 -2.82,-15.97 -7.17,-22.77 -0.32,-0.5 -0.65,-0.99 -0.98,-1.48 -4.2,-6.19 -9.41,-11.62 -14.6,-17.01 -2.14,1 -4.03,1.65 -5.14,3.73 a 11.086,11.086 0 0 0 -0.99,3.72 c -1.42,9.9 -2.65,19.86 -3.61,29.81 -0.48,5.03 -0.97,10.1 -0.4,15.12 0.57,5.02 2.28,10.05 5.68,13.78 2.13,2.34 4.83,4.08 7.14,6.24 q 0.555,0.525 1.08,1.08 a 35.40951,35.40951 0 0 1 4.41,5.79 49.92056,49.92056 0 0 1 7.34,29.93 48.64077,48.64077 0 0 1 -0.75,5.64 23.32684,23.32684 0 0 1 -2.66,7.6 c -1.05,1.73 -2.43,3.24 -3.38,5.03 -0.95,1.79 -1.4,4.02 -0.46,5.81 a 11.83106,11.83106 0 0 1 4.13,0.74 17.52948,17.52948 0 0 1 7.8,5.95 25.93811,25.93811 0 0 1 1.98,3.04 37.44769,37.44769 0 0 1 1.98,4.08 c 0.24,0.55 0.47,1.12 0.69,1.69 a 1.65873,1.65873 0 0 1 0.12,0.31 z"
           transform="translate(-139.5,-125.26398)"
           fill="#2f2e41"
           id="path1109" /><polygon
           points="319.543,417.521 324.519,417.029 348.195,422.725 345.231,402.805 324.027,412.053 319.051,412.545 296.446,407.631 297.443,427.746 "
           fill="#6c63ff"
           id="polygon1111" /><path
           d="m 527.24,700.04863 c 0.22,0.66 0.41,1.33 0.58,2 h 7.42 a 18.53555,18.53555 0 0 0 1.66,-2 z m -195.99,-439 v 441 h 276.5 v -441 z m 274.5,439 h -272.5 v -437 h 272.5 z m -78.51,0 c 0.22,0.66 0.41,1.33 0.58,2 h 7.42 a 18.53555,18.53555 0 0 0 1.66,-2 z"
           transform="translate(-139.5,-125.26398)"
           fill="#2f2e41"
           id="path1113" /><path
           d="m 422.10107,453.98173 0.17139,-0.85986 c 0.0508,-0.25537 4.94483,-25.82471 -7.665,-49.78418 l -0.91211,-1.73291 1.93848,0.27735 c 0.55664,0.0796 13.28906,2.12207 22.417,22.22216 0.80127,-3.063 1.60791,-9.50537 -0.89746,-20.36035 l -0.35644,-1.54541 1.54785,0.34424 c 0.48193,0.10693 11.46923,2.69678 15.82519,16.041 l 17.29492,-14.63428 V 427.722 c 4.65137,-2.36572 18.91455,-8.731 27.98633,-3.062 l 1.38379,0.86523 -1.39892,0.84033 c -0.11866,0.0713 -11.26172,6.83057 -13.4712,13.6709 2.603,0.022 8.81055,0.11133 14.957,0.48 15.78613,0.94727 17.10839,2.76465 17.10839,4.39356 v 0.5708 l -0.49121,0.29 c -0.27978,0.16552 -27.999,16.69043 -28.61328,29.58349 l -0.0635,1.32715 z m 62.59229,-11.95214 h -1.18066 l 0.19433,-1.16455 c 1.09717,-6.58448 9.71729,-12.93409 13.23291,-15.27686 -9.90869,-4.37744 -25.812,4.57324 -25.979,4.66846 l -1.4961,0.854 V 408.262 l -16.3667,13.84863 -0.41308,-1.51367 c -2.86817,-10.51514 -10.01758,-14.37061 -13.208,-15.59961 3.2915,15.76123 -0.33057,22.0498 -0.4917,22.31885 l -1.02392,1.707 -0.7583,-1.84082 c -6.61377,-16.06348 -15.73536,-21.17139 -19.7793,-22.70508 10.3999,21.457 7.68262,43.56494 6.958,48.168 l 62.68359,21.3125 c 2.00537,-12.36524 23.55811,-26.28467 28.49219,-29.32471 -3.04541,-1.61864 -17.74903,-2.6035 -30.86426,-2.6035 z"
           transform="translate(-139.5,-125.26398)"
           fill="#6c63ff"
           id="path1115" /><path
           d="m 408.67139,391.87724 a 3.58691,3.58691 0 1 1 3.58691,3.58692 3.59072,3.59072 0 0 1 -3.58691,-3.58692 z m 2,0 a 1.58691,1.58691 0 1 0 1.58691,-1.58691 1.58875,1.58875 0 0 0 -1.58691,1.58691 z"
           transform="translate(-139.5,-125.26398)"
           fill="#6c63ff"
           id="path1117" /><path
           d="m 434.541,391.87724 a 3.58691,3.58691 0 1 1 3.58691,3.58692 3.59072,3.59072 0 0 1 -3.58691,-3.58692 z m 2,0 a 1.58691,1.58691 0 1 0 1.58691,-1.58691 1.58875,1.58875 0 0 0 -1.58691,1.58691 z"
           transform="translate(-139.5,-125.26398)"
           fill="#6c63ff"
           id="path1119" /><path
           d="m 472.05176,398.345 a 3.58692,3.58692 0 1 1 3.58691,3.58691 3.59072,3.59072 0 0 1 -3.58691,-3.58691 z m 2,0 a 1.58692,1.58692 0 1 0 1.58691,-1.58692 1.58874,1.58874 0 0 0 -1.58691,1.58692 z"
           transform="translate(-139.5,-125.26398)"
           fill="#6c63ff"
           id="path1121" /><path
           d="m 522.49756,442.323 a 3.58692,3.58692 0 1 1 3.58691,3.58692 3.59073,3.59073 0 0 1 -3.58691,-3.58692 z m 2,0 a 1.58692,1.58692 0 1 0 1.58691,-1.58691 1.58875,1.58875 0 0 0 -1.58691,1.58691 z"
           transform="translate(-139.5,-125.26398)"
           fill="#6c63ff"
           id="path1123" /><path
           d="m 504.38867,420.33379 a 3.58716,3.58716 0 1 1 3.58692,3.58691 3.59073,3.59073 0 0 1 -3.58692,-3.58691 z m 2,0 a 1.58716,1.58716 0 1 0 1.58692,-1.58692 1.58875,1.58875 0 0 0 -1.58692,1.58692 z"
           transform="translate(-139.5,-125.26398)"
           fill="#6c63ff"
           id="path1125" /><rect
           x="12"
           y="645.28467"
           width="909"
           height="2"
           fill="#3f3d56"
           id="rect1127" /></g></g></g><style
     type="text/css"
     id="style502">
	.st0{fill:#9057EA;}
	.st1{fill:#EEF2F4;}
	.st2{fill:#543889;stroke:#543889;stroke-width:8;stroke-linecap:round;stroke-linejoin:round;stroke-miterlimit:10;}
	.st3{fill:#FFA124;}
	.st4{opacity:0.34;fill:#3F4545;}
	.st5{opacity:0.78;fill:#3F4545;}
	.st6{fill:none;stroke:#1F2120;stroke-width:8;stroke-linecap:round;stroke-linejoin:round;stroke-miterlimit:10;}
	.st7{fill:#B5B4B4;}
	.st8{opacity:0.39;fill:#B5B4B4;}
	.st9{opacity:0.5;fill:#FFFFFF;}
	.st10{fill:#FF1A1A;}
	.st11{opacity:0.63;fill:#E02F2F;}
	.st12{fill:#EA4949;}
	.st13{fill:#E02F2F;}
	.st14{fill:none;stroke:#1F2120;stroke-width:10;stroke-linecap:round;stroke-linejoin:round;stroke-miterlimit:10;}
	.st15{fill:none;stroke:#543889;stroke-width:8;stroke-linecap:round;stroke-linejoin:round;stroke-miterlimit:10;}
	.st16{opacity:0.2;fill:#FF1A1A;}
	.st17{opacity:0.68;fill:#3F4545;}
	.st18{fill:#EAEAEA;}
	.st19{opacity:0.37;fill:#B5B4B4;}
	.st20{fill:#1F2120;}
	.st21{fill:#47A942;}
	.st22{fill:#C4C4C4;}
	.st23{fill:#CCCC00;}
	.st24{fill:#00B3C6;}
	.st25{opacity:0.53;fill:#00B3C6;}
	.st26{fill:#414141;}
	.st27{fill:#FFC41D;}
	.st28{opacity:0.4;fill:#414141;}
</style></svg>
