<svg width="1600" height="900" viewBox="0 0 1600 900" fill="none" xmlns="http://www.w3.org/2000/svg">
<rect width="1600" height="900" fill="#1E1E1E"/>
<rect width="1600" height="900" fill="#152655"/>
<path d="M132.625 405.727H162.114L182.398 455.159H183.42L203.705 405.727H233.193V493H210.011V442.545H209.33L189.898 492.318H175.92L156.489 442.205H155.807V493H132.625V405.727ZM242.036 424.818V405.727H317.888V424.818H291.638V493H268.286V424.818H242.036ZM379.379 434.534C379.01 433.028 378.428 431.707 377.632 430.571C376.837 429.406 375.842 428.426 374.649 427.631C373.484 426.807 372.121 426.196 370.558 425.798C369.024 425.372 367.334 425.159 365.487 425.159C361.51 425.159 358.115 426.111 355.303 428.014C352.518 429.918 350.388 432.659 348.911 436.239C347.462 439.818 346.737 444.136 346.737 449.193C346.737 454.307 347.433 458.682 348.825 462.318C350.217 465.955 352.291 468.739 355.047 470.67C357.803 472.602 361.226 473.568 365.317 473.568C368.925 473.568 371.922 473.043 374.308 471.991C376.723 470.94 378.527 469.449 379.72 467.517C380.913 465.585 381.51 463.312 381.51 460.699L385.601 461.125H365.658V444.25H404.351V456.352C404.351 464.307 402.661 471.111 399.28 476.764C395.928 482.389 391.297 486.707 385.388 489.719C379.507 492.702 372.76 494.193 365.146 494.193C356.652 494.193 349.195 492.389 342.774 488.781C336.354 485.173 331.339 480.031 327.732 473.355C324.152 466.679 322.362 458.739 322.362 449.534C322.362 442.318 323.456 435.926 325.643 430.358C327.859 424.79 330.928 420.088 334.848 416.253C338.768 412.389 343.3 409.477 348.442 407.517C353.584 405.528 359.095 404.534 364.976 404.534C370.146 404.534 374.947 405.273 379.379 406.75C383.839 408.199 387.774 410.273 391.183 412.972C394.621 415.642 397.391 418.81 399.493 422.474C401.595 426.139 402.874 430.159 403.328 434.534H379.379ZM415.398 493V405.727H453.069C459.546 405.727 465.214 407.006 470.072 409.562C474.93 412.119 478.708 415.713 481.407 420.344C484.106 424.974 485.455 430.386 485.455 436.58C485.455 442.83 484.063 448.241 481.279 452.815C478.523 457.389 474.646 460.912 469.646 463.384C464.674 465.855 458.864 467.091 452.217 467.091H429.717V448.682H447.444C450.228 448.682 452.6 448.199 454.56 447.233C456.549 446.239 458.069 444.832 459.12 443.014C460.2 441.196 460.739 439.051 460.739 436.58C460.739 434.08 460.2 431.949 459.12 430.188C458.069 428.398 456.549 427.034 454.56 426.097C452.6 425.131 450.228 424.648 447.444 424.648H439.092V493H415.398ZM505.92 493H480.352L509.159 405.727H541.545L570.352 493H544.784L525.693 429.761H525.011L505.92 493ZM501.148 458.568H549.216V476.295H501.148V458.568ZM656.134 438.455H632.099C631.929 436.466 631.474 434.662 630.736 433.043C630.026 431.423 629.031 430.031 627.753 428.866C626.503 427.673 624.983 426.764 623.193 426.139C621.403 425.486 619.372 425.159 617.099 425.159C613.122 425.159 609.756 426.125 607 428.057C604.273 429.989 602.199 432.759 600.778 436.366C599.386 439.974 598.69 444.307 598.69 449.364C598.69 454.705 599.401 459.179 600.821 462.787C602.27 466.366 604.358 469.065 607.085 470.884C609.813 472.673 613.094 473.568 616.929 473.568C619.116 473.568 621.077 473.298 622.81 472.759C624.543 472.19 626.048 471.381 627.327 470.33C628.605 469.278 629.642 468.014 630.438 466.537C631.261 465.031 631.815 463.341 632.099 461.466L656.134 461.636C655.849 465.33 654.813 469.094 653.023 472.929C651.233 476.736 648.69 480.259 645.395 483.497C642.128 486.707 638.08 489.293 633.25 491.253C628.42 493.213 622.81 494.193 616.418 494.193C608.406 494.193 601.219 492.474 594.855 489.037C588.52 485.599 583.506 480.543 579.812 473.866C576.148 467.19 574.315 459.023 574.315 449.364C574.315 439.648 576.19 431.466 579.94 424.818C583.69 418.142 588.747 413.099 595.111 409.69C601.474 406.253 608.577 404.534 616.418 404.534C621.929 404.534 627 405.287 631.631 406.793C636.261 408.298 640.324 410.5 643.818 413.398C647.313 416.267 650.125 419.804 652.256 424.009C654.386 428.213 655.679 433.028 656.134 438.455ZM666.883 493V405.727H690.576V441.011H691.769L718.019 405.727H745.633L716.144 444.591L746.315 493H718.019L698.417 460.273L690.576 470.5V493H666.883ZM798.538 433C798.31 430.159 797.245 427.943 795.342 426.352C793.467 424.761 790.612 423.966 786.776 423.966C784.333 423.966 782.33 424.264 780.768 424.861C779.234 425.429 778.097 426.21 777.359 427.205C776.62 428.199 776.237 429.335 776.208 430.614C776.151 431.665 776.336 432.616 776.762 433.469C777.217 434.293 777.927 435.045 778.893 435.727C779.859 436.381 781.094 436.977 782.6 437.517C784.106 438.057 785.896 438.54 787.969 438.966L795.129 440.5C799.958 441.523 804.092 442.872 807.529 444.548C810.967 446.224 813.779 448.199 815.967 450.472C818.154 452.716 819.759 455.244 820.782 458.057C821.833 460.869 822.373 463.937 822.401 467.261C822.373 473 820.938 477.858 818.097 481.835C815.256 485.812 811.194 488.838 805.91 490.912C800.654 492.986 794.333 494.023 786.947 494.023C779.362 494.023 772.742 492.901 767.089 490.656C761.464 488.412 757.089 484.96 753.964 480.301C750.867 475.614 749.305 469.619 749.276 462.318H771.776C771.918 464.989 772.586 467.233 773.779 469.051C774.972 470.869 776.648 472.247 778.808 473.185C780.995 474.122 783.594 474.591 786.606 474.591C789.134 474.591 791.251 474.278 792.955 473.653C794.66 473.028 795.952 472.162 796.833 471.054C797.714 469.946 798.168 468.682 798.197 467.261C798.168 465.926 797.728 464.761 796.876 463.767C796.052 462.744 794.688 461.835 792.785 461.04C790.881 460.216 788.31 459.449 785.072 458.739L776.379 456.864C768.651 455.187 762.558 452.389 758.097 448.469C753.665 444.52 751.464 439.136 751.492 432.318C751.464 426.778 752.941 421.935 755.924 417.787C758.935 413.611 763.097 410.358 768.41 408.028C773.751 405.699 779.873 404.534 786.776 404.534C793.822 404.534 799.915 405.713 805.058 408.071C810.2 410.429 814.163 413.753 816.947 418.043C819.759 422.304 821.18 427.29 821.208 433H798.538ZM855.107 405.727V493H831.414V405.727H855.107ZM866.336 405.727H895.825L916.109 455.159H917.131L937.415 405.727H966.904V493H943.722V442.545H943.04L923.609 492.318H909.631L890.2 442.205H889.518V493H866.336V405.727Z" fill="white"/>
<path d="M1349.78 320.15H1369.65C1384.23 320.15 1396.15 332.075 1396.15 346.65V431.45L1349.78 320.15ZM1421.33 341.35L1438.55 349.3C1451.8 354.6 1458.43 370.5 1453.13 383.75L1421.33 461.925V341.35ZM1393.5 496.375L1327.25 337.375C1323.28 326.775 1314 321.475 1303.4 321.475C1299.43 321.475 1296.78 322.8 1292.8 324.125L1194.75 363.875C1181.5 369.175 1174.88 383.75 1181.5 397L1247.75 556C1251.73 566.6 1261 571.9 1271.6 571.9C1275.58 571.9 1278.23 571.9 1282.2 569.25L1380.25 529.5C1390.85 525.525 1396.15 516.25 1396.15 505.65C1394.83 503 1394.83 499.025 1393.5 496.375ZM1306.05 489.75L1263.65 457.95L1268.95 404.95L1311.35 436.75L1306.05 489.75Z" fill="white"/>
</svg>
