<svg width="1600" height="900" viewBox="0 0 1600 900" fill="none" xmlns="http://www.w3.org/2000/svg">
<rect width="1600" height="900" fill="#1E1E1E"/>
<rect width="1600" height="900" fill="#FF4500"/>
<path d="M101.625 493V405.727H139.295C145.773 405.727 151.44 406.906 156.298 409.264C161.156 411.622 164.935 415.017 167.634 419.449C170.332 423.881 171.682 429.193 171.682 435.386C171.682 441.636 170.29 446.906 167.506 451.196C164.75 455.486 160.872 458.724 155.872 460.912C150.901 463.099 145.091 464.193 138.443 464.193H115.943V445.784H133.67C136.455 445.784 138.827 445.443 140.787 444.761C142.776 444.051 144.295 442.929 145.347 441.395C146.426 439.861 146.966 437.858 146.966 435.386C146.966 432.886 146.426 430.855 145.347 429.293C144.295 427.702 142.776 426.537 140.787 425.798C138.827 425.031 136.455 424.648 133.67 424.648H125.318V493H101.625ZM152.761 452.943L174.58 493H148.841L127.534 452.943H152.761ZM181.781 493V405.727H244.679V424.818H205.474V439.818H241.44V458.909H205.474V473.909H244.509V493H181.781ZM290.009 493H256.43V405.727H289.668C298.646 405.727 306.401 407.474 312.935 410.969C319.498 414.435 324.555 419.435 328.106 425.969C331.685 432.474 333.475 440.273 333.475 449.364C333.475 458.455 331.7 466.267 328.148 472.801C324.597 479.307 319.569 484.307 313.063 487.801C306.558 491.267 298.873 493 290.009 493ZM280.123 472.886H289.157C293.475 472.886 297.154 472.19 300.194 470.798C303.262 469.406 305.592 467.006 307.183 463.597C308.802 460.187 309.612 455.443 309.612 449.364C309.612 443.284 308.788 438.54 307.14 435.131C305.521 431.722 303.134 429.321 299.981 427.929C296.856 426.537 293.021 425.841 288.475 425.841H280.123V472.886ZM378.017 493H344.438V405.727H377.676C386.653 405.727 394.409 407.474 400.943 410.969C407.506 414.435 412.563 419.435 416.114 425.969C419.693 432.474 421.483 440.273 421.483 449.364C421.483 458.455 419.707 466.267 416.156 472.801C412.605 479.307 407.577 484.307 401.071 487.801C394.565 491.267 386.881 493 378.017 493ZM368.131 472.886H377.165C381.483 472.886 385.162 472.19 388.202 470.798C391.27 469.406 393.599 467.006 395.19 463.597C396.81 460.187 397.619 455.443 397.619 449.364C397.619 443.284 396.795 438.54 395.148 435.131C393.528 431.722 391.142 429.321 387.989 427.929C384.864 426.537 381.028 425.841 376.483 425.841H368.131V472.886ZM456.138 405.727V493H432.445V405.727H456.138ZM464.981 424.818V405.727H540.833V424.818H514.583V493H491.231V424.818H464.981ZM549.75 493V405.727H573.443V473.909H608.727V493H549.75ZM640.975 493H615.407L644.214 405.727H676.6L705.407 493H679.839L660.748 429.761H660.066L640.975 493ZM636.202 458.568H684.271V476.295H636.202V458.568ZM700.411 424.818V405.727H776.263V424.818H750.013V493H726.661V424.818H700.411ZM782.793 424.818V405.727H858.646V424.818H832.396V493H809.043V424.818H782.793ZM891.256 405.727V493H867.562V405.727H891.256ZM983.962 438.455H959.928C959.757 436.466 959.303 434.662 958.564 433.043C957.854 431.423 956.859 430.031 955.581 428.866C954.331 427.673 952.811 426.764 951.021 426.139C949.232 425.486 947.2 425.159 944.928 425.159C940.95 425.159 937.584 426.125 934.828 428.057C932.101 429.989 930.027 432.759 928.607 436.366C927.214 439.974 926.518 444.307 926.518 449.364C926.518 454.705 927.229 459.179 928.649 462.787C930.098 466.366 932.186 469.065 934.913 470.884C937.641 472.673 940.922 473.568 944.757 473.568C946.945 473.568 948.905 473.298 950.638 472.759C952.371 472.19 953.876 471.381 955.155 470.33C956.433 469.278 957.47 468.014 958.266 466.537C959.089 465.031 959.643 463.341 959.928 461.466L983.962 461.636C983.678 465.33 982.641 469.094 980.851 472.929C979.061 476.736 976.518 480.259 973.223 483.497C969.956 486.707 965.908 489.293 961.078 491.253C956.249 493.213 950.638 494.193 944.246 494.193C936.234 494.193 929.047 492.474 922.683 489.037C916.348 485.599 911.334 480.543 907.641 473.866C903.976 467.19 902.143 459.023 902.143 449.364C902.143 439.648 904.018 431.466 907.768 424.818C911.518 418.142 916.575 413.099 922.939 409.69C929.303 406.253 936.405 404.534 944.246 404.534C949.757 404.534 954.828 405.287 959.459 406.793C964.089 408.298 968.152 410.5 971.646 413.398C975.141 416.267 977.953 419.804 980.084 424.009C982.214 428.213 983.507 433.028 983.962 438.455ZM994.711 493V405.727H1057.61V424.818H1018.4V439.818H1054.37V458.909H1018.4V473.909H1057.44V493H994.711Z" fill="white"/>
<g clip-path="url(#clip0_0_1)">
<path d="M1328.5 626C1425.43 626 1504 547.202 1504 450C1504 352.798 1425.43 274 1328.5 274C1231.57 274 1153 352.798 1153 450C1153 547.202 1231.57 626 1328.5 626Z" fill="#FF4500"/>
<path d="M1445.25 451.678C1445.25 437.411 1433.74 426.079 1419.72 426.079C1413.1 426.07 1406.73 428.626 1401.94 433.214C1384.37 420.623 1360.3 412.442 1333.52 411.393L1345.24 356.419L1383.32 364.6C1383.74 374.253 1391.69 382.017 1401.52 382.017C1411.56 382.017 1419.72 373.836 1419.72 363.76C1419.72 353.69 1411.56 345.507 1401.52 345.507C1394.41 345.507 1388.13 349.703 1385.2 355.789L1342.73 346.766C1341.47 346.555 1340.22 346.766 1339.38 347.396C1338.33 348.026 1337.71 349.074 1337.5 350.333L1324.52 411.6C1297.33 412.442 1272.84 420.623 1255.06 433.424C1250.27 428.837 1243.9 426.281 1237.28 426.291C1223.05 426.291 1211.75 437.828 1211.75 451.889C1211.75 462.379 1218.03 471.19 1226.82 475.18C1226.39 477.746 1226.18 480.343 1226.19 482.944C1226.19 522.387 1272.01 554.493 1328.5 554.493C1384.99 554.493 1430.82 522.599 1430.82 482.944C1430.81 480.343 1430.6 477.747 1430.19 475.18C1438.97 471.19 1445.25 462.167 1445.25 451.678ZM1269.92 469.931C1269.92 459.86 1278.07 451.678 1288.12 451.678C1298.16 451.678 1306.32 459.859 1306.32 469.931C1306.32 480.002 1298.16 488.188 1288.12 488.188C1278.08 488.394 1269.92 480.002 1269.92 469.931ZM1371.81 518.401C1359.26 530.992 1335.4 531.832 1328.5 531.832C1321.39 531.832 1297.54 530.78 1285.19 518.401C1283.31 516.513 1283.31 513.575 1285.19 511.687C1287.07 509.802 1290 509.802 1291.88 511.687C1299.84 519.662 1316.58 522.387 1328.5 522.387C1340.43 522.387 1357.37 519.66 1365.12 511.687C1367 509.802 1369.93 509.802 1371.81 511.687C1373.48 513.575 1373.48 516.513 1371.81 518.401ZM1368.46 488.395C1358.42 488.395 1350.26 480.214 1350.26 470.142C1350.26 460.071 1358.42 451.889 1368.46 451.889C1378.51 451.889 1386.67 460.071 1386.67 470.142C1386.67 480.001 1378.51 488.395 1368.46 488.395Z" fill="white"/>
</g>
<defs>
<clipPath id="clip0_0_1">
<rect width="351" height="352" fill="white" transform="translate(1153 274)"/>
</clipPath>
</defs>
</svg>
