<svg width="1600" height="900" viewBox="0 0 1600 900" fill="none" xmlns="http://www.w3.org/2000/svg">
<rect width="1600" height="900" fill="#1E1E1E"/>
<rect width="1600" height="900" fill="#414141"/>
<path d="M63.625 517V429.727H101.295C107.773 429.727 113.44 430.906 118.298 433.264C123.156 435.622 126.935 439.017 129.634 443.449C132.332 447.881 133.682 453.193 133.682 459.386C133.682 465.636 132.29 470.906 129.506 475.196C126.75 479.486 122.872 482.724 117.872 484.912C112.901 487.099 107.091 488.193 100.443 488.193H77.9432V469.784H95.6705C98.4545 469.784 100.827 469.443 102.787 468.761C104.776 468.051 106.295 466.929 107.347 465.395C108.426 463.861 108.966 461.858 108.966 459.386C108.966 456.886 108.426 454.855 107.347 453.293C106.295 451.702 104.776 450.537 102.787 449.798C100.827 449.031 98.4545 448.648 95.6705 448.648H87.3182V517H63.625ZM114.761 476.943L136.58 517H110.841L89.5341 476.943H114.761ZM143.781 517V429.727H206.679V448.818H167.474V463.818H203.44V482.909H167.474V497.909H206.509V517H143.781ZM218.43 429.727H247.918L268.202 479.159H269.225L289.509 429.727H318.998V517H295.816V466.545H295.134L275.702 516.318H261.725L242.293 466.205H241.612V517H218.43V429.727ZM414.772 473.364C414.772 483.08 412.883 491.276 409.104 497.952C405.326 504.599 400.227 509.642 393.806 513.08C387.386 516.489 380.227 518.193 372.329 518.193C364.374 518.193 357.187 516.474 350.766 513.037C344.374 509.571 339.289 504.514 335.511 497.866C331.761 491.19 329.886 483.023 329.886 473.364C329.886 463.648 331.761 455.466 335.511 448.818C339.289 442.142 344.374 437.099 350.766 433.69C357.187 430.253 364.374 428.534 372.329 428.534C380.227 428.534 387.386 430.253 393.806 433.69C400.227 437.099 405.326 442.142 409.104 448.818C412.883 455.466 414.772 463.648 414.772 473.364ZM390.397 473.364C390.397 468.136 389.701 463.733 388.309 460.153C386.945 456.545 384.914 453.818 382.215 451.972C379.545 450.097 376.249 449.159 372.329 449.159C368.408 449.159 365.099 450.097 362.4 451.972C359.729 453.818 357.698 456.545 356.306 460.153C354.942 463.733 354.261 468.136 354.261 473.364C354.261 478.591 354.942 483.009 356.306 486.616C357.698 490.196 359.729 492.923 362.4 494.798C365.099 496.645 368.408 497.568 372.329 497.568C376.249 497.568 379.545 496.645 382.215 494.798C384.914 492.923 386.945 490.196 388.309 486.616C389.701 483.009 390.397 478.591 390.397 473.364ZM419.246 448.818V429.727H495.099V448.818H468.849V517H445.496V448.818H419.246ZM504.016 517V429.727H566.913V448.818H527.709V463.818H563.675V482.909H527.709V497.909H566.743V517H504.016ZM635.34 458.534C634.971 457.028 634.388 455.707 633.593 454.571C632.798 453.406 631.803 452.426 630.61 451.631C629.445 450.807 628.082 450.196 626.519 449.798C624.985 449.372 623.295 449.159 621.448 449.159C617.471 449.159 614.076 450.111 611.263 452.014C608.479 453.918 606.349 456.659 604.871 460.239C603.423 463.818 602.698 468.136 602.698 473.193C602.698 478.307 603.394 482.682 604.786 486.318C606.178 489.955 608.252 492.739 611.008 494.67C613.763 496.602 617.187 497.568 621.278 497.568C624.886 497.568 627.883 497.043 630.269 495.991C632.684 494.94 634.488 493.449 635.681 491.517C636.874 489.585 637.471 487.312 637.471 484.699L641.562 485.125H621.619V468.25H660.312V480.352C660.312 488.307 658.621 495.111 655.241 500.764C651.888 506.389 647.258 510.707 641.349 513.719C635.468 516.702 628.721 518.193 621.107 518.193C612.613 518.193 605.156 516.389 598.735 512.781C592.315 509.173 587.3 504.031 583.692 497.355C580.113 490.679 578.323 482.739 578.323 473.534C578.323 466.318 579.417 459.926 581.604 454.358C583.82 448.79 586.888 444.088 590.809 440.253C594.729 436.389 599.261 433.477 604.403 431.517C609.545 429.528 615.056 428.534 620.937 428.534C626.107 428.534 630.908 429.273 635.34 430.75C639.8 432.199 643.735 434.273 647.144 436.972C650.582 439.642 653.352 442.81 655.454 446.474C657.556 450.139 658.835 454.159 659.289 458.534H635.34ZM691.335 517H665.766L694.573 429.727H726.96L755.766 517H730.198L711.107 453.761H710.425L691.335 517ZM686.562 482.568H734.63V500.295H686.562V482.568ZM764.172 429.727H793.661L813.945 479.159H814.967L835.251 429.727H864.74V517H841.558V466.545H840.876L821.445 516.318H807.467L788.036 466.205H787.354V517H764.172V429.727ZM875.969 517V429.727H938.866V448.818H899.662V463.818H935.628V482.909H899.662V497.909H938.696V517H875.969ZM950.617 517V429.727H988.288C994.765 429.727 1000.43 431.006 1005.29 433.562C1010.15 436.119 1013.93 439.713 1016.63 444.344C1019.32 448.974 1020.67 454.386 1020.67 460.58C1020.67 466.83 1019.28 472.241 1016.5 476.815C1013.74 481.389 1009.86 484.912 1004.86 487.384C999.893 489.855 994.083 491.091 987.435 491.091H964.935V472.682H982.663C985.447 472.682 987.819 472.199 989.779 471.233C991.768 470.239 993.288 468.832 994.339 467.014C995.418 465.196 995.958 463.051 995.958 460.58C995.958 458.08 995.418 455.949 994.339 454.188C993.288 452.398 991.768 451.034 989.779 450.097C987.819 449.131 985.447 448.648 982.663 448.648H974.31V517H950.617ZM1041.14 517H1015.57L1044.38 429.727H1076.76L1105.57 517H1080L1060.91 453.761H1060.23L1041.14 517ZM1036.37 482.568H1084.43V500.295H1036.37V482.568ZM1147.56 517H1113.98V429.727H1147.22C1156.19 429.727 1163.95 431.474 1170.48 434.969C1177.04 438.435 1182.1 443.435 1185.65 449.969C1189.23 456.474 1191.02 464.273 1191.02 473.364C1191.02 482.455 1189.25 490.267 1185.7 496.801C1182.14 503.307 1177.12 508.307 1170.61 511.801C1164.1 515.267 1156.42 517 1147.56 517ZM1137.67 496.886H1146.7C1151.02 496.886 1154.7 496.19 1157.74 494.798C1160.81 493.406 1163.14 491.006 1164.73 487.597C1166.35 484.187 1167.16 479.443 1167.16 473.364C1167.16 467.284 1166.33 462.54 1164.69 459.131C1163.07 455.722 1160.68 453.321 1157.53 451.929C1154.4 450.537 1150.57 449.841 1146.02 449.841H1137.67V496.886Z" fill="white"/>
<path d="M1461.84 400.516H1408.41V364.891H1506.38C1509.92 364.887 1513.31 363.478 1515.82 360.973C1518.32 358.469 1519.73 355.073 1519.73 351.531V315.906H1501.92V347.078H1403.95C1400.41 347.082 1397.02 348.491 1394.51 350.995C1392.01 353.5 1390.6 356.896 1390.59 360.438V400.516H1337.16C1318.27 400.537 1300.16 408.051 1286.8 421.408C1273.44 434.765 1265.93 452.876 1265.91 471.766V527.96C1265.92 541.397 1271.27 554.279 1280.77 563.78C1290.27 573.281 1303.15 578.625 1316.59 578.641H1317.59C1325.02 578.651 1332.36 577.022 1339.09 573.87C1345.82 570.718 1351.78 566.12 1356.53 560.405L1385.86 525.203H1412.93L1442.25 563.314C1448.7 571.702 1457.62 577.859 1467.75 580.921C1477.88 583.984 1488.71 583.798 1498.73 580.39C1508.75 576.982 1517.45 570.523 1523.62 561.918C1529.78 553.314 1533.09 542.997 1533.09 532.413V471.766C1533.07 452.876 1525.56 434.765 1512.2 421.408C1498.84 408.051 1480.73 400.537 1461.84 400.516ZM1515.28 532.413C1515.28 539.277 1513.13 545.969 1509.14 551.55C1505.14 557.13 1499.5 561.32 1493 563.53C1486.5 565.74 1479.47 565.86 1472.9 563.874C1466.33 561.887 1460.55 557.893 1456.36 552.452L1421.7 507.391H1377.52L1342.84 549.002C1339.76 552.708 1335.9 555.689 1331.54 557.733C1327.17 559.777 1322.41 560.834 1317.59 560.828H1316.59C1307.87 560.819 1299.52 557.353 1293.36 551.191C1287.19 545.029 1283.73 536.675 1283.72 527.96V471.766C1283.73 457.598 1289.37 444.015 1299.39 433.997C1309.41 423.979 1322.99 418.344 1337.16 418.328H1461.84C1476.01 418.344 1489.59 423.979 1499.61 433.997C1509.63 444.015 1515.27 457.598 1515.28 471.766V532.413Z" fill="white"/>
<path d="M1457.39 445.047H1475.2V462.859H1457.39V445.047ZM1457.39 489.578H1475.2V507.391H1457.39V489.578ZM1435.12 467.312H1452.94V485.125H1435.12V467.312ZM1479.66 467.312H1497.47V485.125H1479.66V467.312ZM1341.61 445.047H1323.8V467.312H1301.53V485.125H1323.8V507.391H1341.61V485.125H1363.88V467.312H1341.61V445.047Z" fill="white"/>
</svg>
