<svg width="1920" height="1080" viewBox="0 0 1920 1080" fill="none" xmlns="http://www.w3.org/2000/svg">
<rect width="1920" height="1080" fill="black"/>
<path d="M1580.42 460.38H1501.44C1499.64 460.38 1497.91 461.098 1496.63 462.376C1495.35 463.654 1494.63 465.388 1494.63 467.195V643.474L1493.73 643.928L1474.21 649.834C1473.31 650.124 1472.32 650.048 1471.48 649.624C1470.63 649.199 1469.98 648.459 1469.67 647.563L1412.02 458.109C1411.73 457.205 1411.81 456.223 1412.23 455.374C1412.66 454.525 1413.4 453.876 1414.29 453.565L1444.25 444.479L1530.95 417.674L1560.91 408.587C1561.81 408.298 1562.79 408.373 1563.64 408.798C1564.49 409.222 1565.13 409.962 1565.44 410.859L1580.42 459.017V460.38Z" fill="#EEEEEE"/>
<path d="M1598.13 460.38L1579.97 401.318C1579.34 399.407 1578 397.815 1576.22 396.882C1574.44 395.948 1572.36 395.747 1570.44 396.32L1528.22 409.042L1441.53 435.847L1399.31 448.568C1397.4 449.194 1395.81 450.542 1394.88 452.323C1393.95 454.105 1393.75 456.181 1394.32 458.109L1455.14 657.103C1455.62 658.664 1456.58 660.032 1457.89 661.011C1459.19 661.991 1460.78 662.531 1462.41 662.555C1463.18 662.519 1463.95 662.366 1464.68 662.101L1494.63 653.014V652.106L1464.68 661.647C1463.81 661.927 1462.9 662.031 1462 661.953C1461.09 661.875 1460.21 661.617 1459.41 661.194C1458.6 660.77 1457.89 660.19 1457.32 659.488C1456.74 658.786 1456.31 657.975 1456.05 657.103L1395.23 458.109C1394.95 457.244 1394.84 456.332 1394.92 455.426C1395 454.521 1395.26 453.64 1395.68 452.835C1396.1 452.031 1396.68 451.319 1397.38 450.743C1398.09 450.166 1398.9 449.735 1399.77 449.477L1441.98 436.755L1528.68 409.95L1570.89 397.229C1571.47 396.995 1572.08 396.842 1572.71 396.775C1574.16 396.819 1575.56 397.328 1576.71 398.228C1577.85 399.127 1578.67 400.369 1579.06 401.772L1597.22 460.38H1598.13Z" fill="#333333"/>
<path d="M1449.7 454.02C1450.15 454.096 1450.61 454.096 1451.06 454.02L1530.95 429.486C1531.96 429.171 1532.81 428.473 1533.32 427.54C1533.83 426.607 1533.95 425.513 1533.67 424.489L1527.77 404.953C1527.45 403.938 1526.76 403.086 1525.82 402.577C1524.89 402.068 1523.8 401.943 1522.78 402.227L1442.89 426.76C1441.87 427.076 1441.02 427.774 1440.52 428.707C1440.01 429.64 1439.88 430.734 1440.17 431.758L1446.07 450.839C1446.36 451.676 1446.92 452.394 1447.65 452.885C1448.39 453.377 1449.27 453.616 1450.15 453.565" fill="black"/>
<path d="M1667.57 660.284H1514.15C1513.07 660.284 1512.03 659.853 1511.26 659.086C1510.5 658.319 1510.07 657.279 1510.07 656.195V472.193C1510.07 471.108 1510.5 470.068 1511.26 469.302C1512.03 468.535 1513.07 468.104 1514.15 468.104H1667.57C1668.66 468.104 1669.7 468.535 1670.46 469.302C1671.23 470.068 1671.66 471.108 1671.66 472.193V656.195C1671.66 657.279 1671.23 658.319 1670.46 659.086C1669.7 659.853 1668.66 660.284 1667.57 660.284Z" fill="#EEEEEE"/>
<path d="M1596.76 459.472H1500.99C1498.94 459.472 1496.98 460.285 1495.53 461.734C1494.09 463.182 1493.27 465.147 1493.27 467.195V652.56L1494.18 652.106V467.195C1494.18 465.388 1494.9 463.654 1496.17 462.376C1497.45 461.098 1499.18 460.38 1500.99 460.38H1597.22L1596.76 459.472ZM1680.28 459.472H1501.44C1499.4 459.472 1497.43 460.285 1495.99 461.734C1494.54 463.182 1493.73 465.147 1493.73 467.195V675.276C1493.73 677.325 1494.54 679.289 1495.99 680.738C1497.43 682.186 1499.4 683 1501.44 683H1680.28C1682.33 683 1684.29 682.186 1685.74 680.738C1687.19 679.289 1688 677.325 1688 675.276V467.195C1688 465.147 1687.19 463.182 1685.74 461.734C1684.29 460.285 1682.33 459.472 1680.28 459.472ZM1687.09 675.276C1687.09 677.084 1686.37 678.817 1685.1 680.095C1683.82 681.373 1682.09 682.091 1680.28 682.091H1501.44C1499.64 682.091 1497.91 681.373 1496.63 680.095C1495.35 678.817 1494.63 677.084 1494.63 675.276L1494.63 467.195C1494.63 465.388 1495.35 463.654 1496.63 462.376C1497.91 461.098 1499.64 460.38 1501.44 460.38L1680.28 460.38C1682.09 460.38 1683.82 461.098 1685.1 462.376C1686.37 463.654 1687.09 465.388 1687.09 467.195V675.276Z" fill="#333333"/>
<path d="M1632.62 479.462H1549.1C1548.02 479.462 1546.98 479.031 1546.21 478.264C1545.45 477.498 1545.02 476.458 1545.02 475.373V455.383C1545.02 454.298 1545.45 453.258 1546.21 452.491C1546.98 451.725 1548.02 451.294 1549.1 451.294H1632.62C1633.71 451.294 1634.75 451.725 1635.51 452.491C1636.28 453.258 1636.71 454.298 1636.71 455.383V475.373C1636.71 476.458 1636.28 477.498 1635.51 478.264C1634.75 479.031 1633.71 479.462 1632.62 479.462Z" fill="black"/>
<path d="M1480.11 416.311C1485.12 416.311 1489.19 412.243 1489.19 407.224C1489.19 402.206 1485.12 398.138 1480.11 398.138C1475.1 398.138 1471.03 402.206 1471.03 407.224C1471.03 412.243 1475.1 416.311 1480.11 416.311Z" fill="black"/>
<path d="M1480.11 412.676C1483.12 412.676 1485.56 410.235 1485.56 407.224C1485.56 404.213 1483.12 401.772 1480.11 401.772C1477.1 401.772 1474.66 404.213 1474.66 407.224C1474.66 410.235 1477.1 412.676 1480.11 412.676Z" fill="white"/>
<path d="M1590.86 452.657C1595.88 452.657 1599.94 448.589 1599.94 443.57C1599.94 438.552 1595.88 434.484 1590.86 434.484C1585.85 434.484 1581.79 438.552 1581.79 443.57C1581.79 448.589 1585.85 452.657 1590.86 452.657Z" fill="black"/>
<path d="M1590.86 449.022C1593.87 449.022 1596.31 446.581 1596.31 443.57C1596.31 440.559 1593.87 438.118 1590.86 438.118C1587.85 438.118 1585.42 440.559 1585.42 443.57C1585.42 446.581 1587.85 449.022 1590.86 449.022Z" fill="white"/>
<path d="M244.642 612V466.545H302.028C313.013 466.545 322.388 468.51 330.153 472.44C337.966 476.323 343.908 481.839 347.98 488.989C352.099 496.091 354.159 504.448 354.159 514.06C354.159 523.719 352.076 532.028 347.909 538.989C343.742 545.902 337.705 551.205 329.798 554.898C321.938 558.591 312.421 560.438 301.247 560.438H262.824V535.722H296.276C302.147 535.722 307.024 534.917 310.906 533.307C314.789 531.697 317.677 529.282 319.571 526.062C321.512 522.843 322.483 518.842 322.483 514.06C322.483 509.23 321.512 505.158 319.571 501.844C317.677 498.529 314.765 496.02 310.835 494.315C306.953 492.563 302.052 491.688 296.134 491.688H275.395V612H244.642ZM323.193 545.807L359.344 612H325.395L290.026 545.807H323.193ZM375.892 612V466.545H406.645V530.679H408.562L460.906 466.545H497.767L443.79 531.673L498.406 612H461.616L421.773 552.199L406.645 570.665V612H375.892ZM538.854 612H505.899L556.112 466.545H595.743L645.885 612H612.93L576.496 499.784H575.359L538.854 612ZM536.794 554.827H614.635V578.832H536.794V554.827ZM785.054 466.545V612H758.491L695.21 520.452H694.145V612H663.392V466.545H690.381L753.165 558.023H754.443V466.545H785.054ZM810.462 612V466.545H868.701C879.402 466.545 888.327 468.132 895.477 471.304C902.626 474.476 908 478.88 911.599 484.514C915.197 490.101 916.996 496.541 916.996 503.832C916.996 509.514 915.86 514.509 913.587 518.818C911.315 523.08 908.19 526.583 904.212 529.33C900.282 532.028 895.784 533.946 890.718 535.082V536.503C896.258 536.74 901.442 538.302 906.272 541.19C911.149 544.079 915.103 548.127 918.133 553.335C921.163 558.496 922.678 564.652 922.678 571.801C922.678 579.519 920.761 586.408 916.925 592.469C913.138 598.482 907.527 603.241 900.093 606.744C892.659 610.248 883.497 612 872.607 612H810.462ZM841.215 586.858H866.286C874.856 586.858 881.106 585.224 885.036 581.957C888.966 578.643 890.931 574.24 890.931 568.747C890.931 564.723 889.96 561.171 888.019 558.094C886.078 555.016 883.308 552.601 879.71 550.849C876.158 549.098 871.921 548.222 866.996 548.222H841.215V586.858ZM841.215 527.412H864.013C868.228 527.412 871.968 526.678 875.235 525.21C878.549 523.695 881.154 521.564 883.048 518.818C884.989 516.072 885.96 512.781 885.96 508.946C885.96 503.69 884.089 499.453 880.349 496.233C876.656 493.013 871.4 491.403 864.582 491.403H841.215V527.412ZM967.76 612H934.805L985.018 466.545H1024.65L1074.79 612H1041.84L1005.4 499.784H1004.27L967.76 612ZM965.7 554.827H1043.54V578.832H965.7V554.827ZM1213.96 466.545V612H1187.4L1124.12 520.452H1123.05V612H1092.3V466.545H1119.29L1182.07 558.023H1183.35V466.545H1213.96Z" fill="white"/>
</svg>
