<svg width="1600" height="900" viewBox="0 0 1600 900" fill="none" xmlns="http://www.w3.org/2000/svg">
<rect width="1600" height="900" fill="#1E1E1E"/>
<rect width="1600" height="900" fill="#2563EB"/>
<path d="M223.239 425.818V406.727H299.091V425.818H272.841V494H249.489V425.818H223.239ZM331.701 406.727V494H308.008V406.727H331.701ZM424.407 439.455H400.373C400.202 437.466 399.748 435.662 399.009 434.043C398.299 432.423 397.305 431.031 396.026 429.866C394.776 428.673 393.256 427.764 391.467 427.139C389.677 426.486 387.646 426.159 385.373 426.159C381.396 426.159 378.029 427.125 375.273 429.057C372.546 430.989 370.472 433.759 369.052 437.366C367.66 440.974 366.964 445.307 366.964 450.364C366.964 455.705 367.674 460.179 369.094 463.787C370.543 467.366 372.631 470.065 375.359 471.884C378.086 473.673 381.367 474.568 385.202 474.568C387.39 474.568 389.35 474.298 391.083 473.759C392.816 473.19 394.322 472.381 395.6 471.33C396.879 470.278 397.915 469.014 398.711 467.537C399.535 466.031 400.089 464.341 400.373 462.466L424.407 462.636C424.123 466.33 423.086 470.094 421.296 473.929C419.506 477.736 416.964 481.259 413.668 484.497C410.401 487.707 406.353 490.293 401.523 492.253C396.694 494.213 391.083 495.193 384.691 495.193C376.68 495.193 369.492 493.474 363.129 490.037C356.793 486.599 351.779 481.543 348.086 474.866C344.421 468.19 342.589 460.023 342.589 450.364C342.589 440.648 344.464 432.466 348.214 425.818C351.964 419.142 357.021 414.099 363.384 410.69C369.748 407.253 376.85 405.534 384.691 405.534C390.202 405.534 395.273 406.287 399.904 407.793C404.535 409.298 408.597 411.5 412.092 414.398C415.586 417.267 418.398 420.804 420.529 425.009C422.66 429.213 423.952 434.028 424.407 439.455ZM432.77 425.818V406.727H508.622V425.818H482.372V494H459.02V425.818H432.77ZM529.194 494H503.626L532.433 406.727H564.819L593.626 494H568.058L548.967 430.761H548.285L529.194 494ZM524.421 459.568H572.489V477.295H524.421V459.568ZM679.407 439.455H655.373C655.202 437.466 654.748 435.662 654.009 434.043C653.299 432.423 652.305 431.031 651.026 429.866C649.776 428.673 648.256 427.764 646.467 427.139C644.677 426.486 642.646 426.159 640.373 426.159C636.396 426.159 633.029 427.125 630.273 429.057C627.546 430.989 625.472 433.759 624.052 437.366C622.66 440.974 621.964 445.307 621.964 450.364C621.964 455.705 622.674 460.179 624.094 463.787C625.543 467.366 627.631 470.065 630.359 471.884C633.086 473.673 636.367 474.568 640.202 474.568C642.39 474.568 644.35 474.298 646.083 473.759C647.816 473.19 649.322 472.381 650.6 471.33C651.879 470.278 652.915 469.014 653.711 467.537C654.535 466.031 655.089 464.341 655.373 462.466L679.407 462.636C679.123 466.33 678.086 470.094 676.296 473.929C674.506 477.736 671.964 481.259 668.668 484.497C665.401 487.707 661.353 490.293 656.523 492.253C651.694 494.213 646.083 495.193 639.691 495.193C631.68 495.193 624.492 493.474 618.129 490.037C611.793 486.599 606.779 481.543 603.086 474.866C599.421 468.19 597.589 460.023 597.589 450.364C597.589 440.648 599.464 432.466 603.214 425.818C606.964 419.142 612.021 414.099 618.384 410.69C624.748 407.253 631.85 405.534 639.691 405.534C645.202 405.534 650.273 406.287 654.904 407.793C659.535 409.298 663.597 411.5 667.092 414.398C670.586 417.267 673.398 420.804 675.529 425.009C677.66 429.213 678.952 434.028 679.407 439.455ZM687.77 425.818V406.727H763.622V425.818H737.372V494H714.02V425.818H687.77ZM852.983 450.364C852.983 460.08 851.094 468.276 847.315 474.952C843.537 481.599 838.438 486.642 832.017 490.08C825.597 493.489 818.438 495.193 810.54 495.193C802.585 495.193 795.398 493.474 788.977 490.037C782.585 486.571 777.5 481.514 773.722 474.866C769.972 468.19 768.097 460.023 768.097 450.364C768.097 440.648 769.972 432.466 773.722 425.818C777.5 419.142 782.585 414.099 788.977 410.69C795.398 407.253 802.585 405.534 810.54 405.534C818.438 405.534 825.597 407.253 832.017 410.69C838.438 414.099 843.537 419.142 847.315 425.818C851.094 432.466 852.983 440.648 852.983 450.364ZM828.608 450.364C828.608 445.136 827.912 440.733 826.52 437.153C825.156 433.545 823.125 430.818 820.426 428.972C817.756 427.097 814.46 426.159 810.54 426.159C806.619 426.159 803.31 427.097 800.611 428.972C797.94 430.818 795.909 433.545 794.517 437.153C793.153 440.733 792.472 445.136 792.472 450.364C792.472 455.591 793.153 460.009 794.517 463.616C795.909 467.196 797.94 469.923 800.611 471.798C803.31 473.645 806.619 474.568 810.54 474.568C814.46 474.568 817.756 473.645 820.426 471.798C823.125 469.923 825.156 467.196 826.52 463.616C827.912 460.009 828.608 455.591 828.608 450.364ZM863.945 494V406.727H926.843V425.818H887.638V440.818H923.604V459.909H887.638V474.909H926.673V494H863.945Z" fill="white"/>
<path d="M1273.12 343.625H1154.19C1141.09 343.625 1130.43 354.277 1130.43 367.375V533.815C1130.43 546.913 1141.09 557.565 1154.19 557.565H1320.63C1333.72 557.565 1344.38 546.913 1344.38 533.815V367.375C1344.38 354.277 1333.72 343.625 1320.63 343.625H1273.12ZM1320.63 403H1285V367.375H1320.63V403ZM1154.19 426.75H1189.81V474.44H1154.19V426.75ZM1213.56 426.75H1261.25V474.44H1213.56V426.75ZM1285 426.75H1320.63V474.44H1285V426.75ZM1261.25 367.375V403H1213.56V367.375H1261.25ZM1189.81 367.375V403H1154.19V367.375H1189.81ZM1154.19 498.19H1189.81V533.815H1154.19V498.19ZM1213.56 533.815V498.19H1261.25V533.815H1213.56ZM1285 533.815V498.19H1320.64V533.815H1285Z" fill="white"/>
</svg>
