<?xml version="1.0" encoding="UTF-8" standalone="no"?>
<!-- Created with Inkscape (http://www.inkscape.org/) -->

<svg
   width="1600.2645mm"
   height="900.26459mm"
   viewBox="0 0 1600.2645 900.26459"
   version="1.1"
   id="svg5"
   xml:space="preserve"
   inkscape:version="1.2 (dc2aedaf03, 2022-05-15)"
   sodipodi:docname="vim.svg"
   xmlns:inkscape="http://www.inkscape.org/namespaces/inkscape"
   xmlns:sodipodi="http://sodipodi.sourceforge.net/DTD/sodipodi-0.dtd"
   xmlns="http://www.w3.org/2000/svg"
   xmlns:svg="http://www.w3.org/2000/svg"><sodipodi:namedview
     id="namedview7"
     pagecolor="#ffffff"
     bordercolor="#666666"
     borderopacity="1.0"
     inkscape:showpageshadow="2"
     inkscape:pageopacity="0.0"
     inkscape:pagecheckerboard="0"
     inkscape:deskcolor="#d1d1d1"
     inkscape:document-units="mm"
     showgrid="false"
     inkscape:zoom="0.18516565"
     inkscape:cx="2613.8757"
     inkscape:cy="1663.3755"
     inkscape:window-width="2216"
     inkscape:window-height="1336"
     inkscape:window-x="12"
     inkscape:window-y="52"
     inkscape:window-maximized="1"
     inkscape:current-layer="layer1" /><defs
     id="defs2"><clipPath
       clipPathUnits="userSpaceOnUse"
       id="clipPath2365"><ellipse
         style="opacity:1;fill:#ffffff;stroke:#ffffff;stroke-width:1.25123"
         id="circle2367"
         cx="500.00003"
         cy="500"
         rx="472.88263"
         ry="472.92993" /></clipPath></defs><g
     inkscape:label="Layer 1"
     inkscape:groupmode="layer"
     id="layer1"
     transform="translate(-85.305674,-93.483202)"><rect
       style="fill:#000000;stroke:#ffffff;stroke-width:0.264583"
       id="rect184"
       width="1600"
       height="900"
       x="85.437965"
       y="93.615494" /><text
       xml:space="preserve"
       style="font-style:normal;font-variant:normal;font-weight:normal;font-stretch:normal;font-size:117.19px;line-height:1.25;font-family:Literata;-inkscape-font-specification:'Literata, Normal';font-variant-ligatures:normal;font-variant-caps:normal;font-variant-numeric:normal;font-variant-east-asian:normal;fill:#ffffff;fill-opacity:1;stroke:none;stroke-width:2.92976"
       x="985.33398"
       y="428.59351"
       id="text1632"><tspan
         sodipodi:role="line"
         id="tspan2569"
         x="985.33398"
         y="428.59351">vanilla</tspan><tspan
         sodipodi:role="line"
         id="tspan2571"
         x="985.33398"
         y="575.08099">invoice</tspan><tspan
         sodipodi:role="line"
         id="tspan2573"
         x="985.33398"
         y="721.56854">manager</tspan></text><g
       id="g1752"
       transform="matrix(0.63356871,0,0,0.63350534,239.02954,208.91165)"
       clip-path="url(#clipPath2365)"><rect
         id="XMLID_69_-1"
         class="st0"
         width="1000"
         height="1000"
         x="0"
         y="0" /><g
         id="g1472">
	<g
   id="g1300">
		<g
   id="g1270">
			<path
   class="st1"
   d="m 63.2,959.2 c 0,2.5 -1.2,3.7 -2.6,3.7 -1.1,0 -1.9,-0.5 -2.1,-1.4 -0.4,0.5 -1,0.8 -1.8,0.8 -1.5,0 -2.6,-1.2 -2.6,-2.8 0,-1.6 1.1,-2.8 2.6,-2.8 0.7,0 1.2,0.3 1.6,0.7 v -0.5 h 1.6 v 3.9 c 0,0.8 0.3,1.4 1,1.4 0.9,0 1.7,-0.9 1.7,-3 0,-3 -2.3,-5.3 -5.4,-5.3 -3.1,0 -5.6,2.4 -5.6,5.7 0,3.3 2.5,5.7 5.9,5.7 1.1,0 2.1,-0.2 2.9,-0.4 v 0.6 c -0.8,0.3 -1.7,0.4 -2.9,0.4 -3.7,0 -6.5,-2.6 -6.5,-6.2 0,-3.4 2.7,-6.2 6.2,-6.2 3.9,-0.2 6,2.9 6,5.7 z m -4.9,0.3 c 0,-0.8 -0.6,-1.4 -1.3,-1.4 -0.8,0 -1.3,0.5 -1.3,1.4 0,0.8 0.6,1.3 1.3,1.3 0.8,0.1 1.3,-0.5 1.3,-1.3 z"
   id="path1268" />
		</g>
		<g
   id="g1274">
			<path
   class="st1"
   d="m 69.4,955.1 v 2 c -1.2,-0.1 -2.6,0.5 -2.6,2.4 v 4.3 h -1.9 v -8.6 h 1.9 v 1.4 c 0.5,-1.1 1.5,-1.5 2.6,-1.5 z"
   id="path1272" />
		</g>
		<g
   id="g1278">
			<path
   class="st1"
   d="m 74.6,962.3 c 1,0 1.8,-0.5 2.2,-1.1 l 1.5,0.9 c -0.8,1.2 -2.1,1.9 -3.8,1.9 -2.8,0 -4.7,-1.9 -4.7,-4.5 0,-2.5 1.8,-4.5 4.5,-4.5 2.6,0 4.3,2.1 4.3,4.5 0,0.3 0,0.5 -0.1,0.8 h -6.8 c 0.4,1.3 1.5,2 2.9,2 z m 2.3,-3.5 c -0.3,-1.5 -1.3,-2.1 -2.5,-2.1 -1.4,0 -2.3,0.8 -2.6,2.1 z"
   id="path1276" />
		</g>
		<g
   id="g1282">
			<path
   class="st1"
   d="m 88.9,955.2 v 8.6 H 87 v -1.2 c -0.7,0.9 -1.7,1.5 -3,1.5 -2.3,0 -4.3,-2 -4.3,-4.5 0,-2.6 1.9,-4.5 4.3,-4.5 1.3,0 2.3,0.5 3,1.4 v -1.2 h 1.9 z m -1.8,4.3 c 0,-1.6 -1.2,-2.7 -2.7,-2.7 -1.5,0 -2.7,1.1 -2.7,2.7 0,1.6 1.2,2.7 2.7,2.7 1.5,0.1 2.7,-1.1 2.7,-2.7 z"
   id="path1280" />
		</g>
		<g
   id="g1286">
			<path
   class="st1"
   d="M 91.1,951.3 H 93 v 12.5 h -1.9 z"
   id="path1284" />
		</g>
		<g
   id="g1290">
			<path
   class="st1"
   d="m 102.9,955.2 -3.3,8.6 h -2.1 l -3.3,-8.6 h 2 l 2.4,6.5 2.4,-6.5 z"
   id="path1288" />
		</g>
		<g
   id="g1294">
			<path
   class="st1"
   d="m 104.2,955.2 h 1.9 v 8.9 c 0,2.4 -1.2,3.5 -3.5,3.3 v -1.8 c 1.1,0.1 1.7,-0.3 1.7,-1.5 v -8.9 z m -0.2,-2.4 c 0,-0.7 0.5,-1.2 1.2,-1.2 0.7,0 1.2,0.5 1.2,1.2 0,0.6 -0.5,1.2 -1.2,1.2 -0.7,0 -1.2,-0.6 -1.2,-1.2 z"
   id="path1292" />
		</g>
		<g
   id="g1298">
			<path
   class="st1"
   d="m 116,955.2 -3.3,8.8 c -0.8,2.2 -2.2,3.3 -4.2,3.2 v -1.7 c 1.2,0.1 1.9,-0.5 2.3,-1.7 l 0.1,-0.2 -3.6,-8.4 h 2 l 2.6,6.2 2.2,-6.2 z"
   id="path1296" />
		</g>
	</g>
	<g
   id="g1312">
		<path
   class="st1"
   d="m 211.9,938.7 c 0,2.1 -1.5,3.8 -3.6,3.8 h -3 v -7.6 h 3 c 2.1,0 3.6,1.7 3.6,3.8 z m -1,0 c 0,-1.6 -1.1,-2.9 -2.6,-2.9 h -2 v 5.7 h 2 c 1.5,0.1 2.6,-1.2 2.6,-2.8 z"
   id="path1302" />
		<path
   class="st1"
   d="m 219.5,940.8 h -3.4 l -0.6,1.7 h -1.1 l 2.8,-7.6 h 1.1 l 2.8,7.6 H 220 Z m -0.3,-0.9 -1.4,-3.8 -1.4,3.8 z"
   id="path1304" />
		<path
   class="st1"
   d="m 226.4,939.4 v 3.1 h -1 v -3.1 l -2.7,-4.5 h 1.1 l 2.1,3.6 2.1,-3.6 h 1.1 z"
   id="path1306" />
		<path
   class="st1"
   d="m 241.5,934.9 v 0.9 l -2.8,6.7 h -1.1 l 2.8,-6.7 h -3.7 v -1 h 4.8 z"
   id="path1308" />
		<path
   class="st1"
   d="m 249.5,940.4 c 0,1.4 -1.1,2.2 -2.6,2.2 -1.5,0 -2.6,-0.8 -2.6,-2.2 0,-0.8 0.5,-1.5 1.2,-1.9 -0.6,-0.3 -0.9,-0.9 -0.9,-1.7 0,-1.5 1.2,-2.2 2.4,-2.2 1.2,0 2.4,0.7 2.4,2.2 0,0.8 -0.4,1.3 -0.9,1.7 0.6,0.4 1,1.1 1,1.9 z m -1,0 c 0,-0.9 -0.7,-1.3 -1.6,-1.3 -0.9,0 -1.6,0.4 -1.6,1.3 0,0.9 0.7,1.3 1.6,1.3 1,0 1.6,-0.5 1.6,-1.3 z m -2.9,-3.5 c 0,0.8 0.6,1.2 1.4,1.2 0.7,0 1.4,-0.4 1.4,-1.2 0,-0.8 -0.6,-1.2 -1.4,-1.2 -0.8,0 -1.4,0.4 -1.4,1.2 z"
   id="path1310" />
	</g>
	<g
   id="g1334">
		<path
   class="st1"
   d="m 58.9,938.7 c 0,2.1 -1.5,3.8 -3.6,3.8 h -3 v -7.6 h 3 c 2.1,0 3.6,1.7 3.6,3.8 z m -1,0 c 0,-1.6 -1.1,-2.9 -2.6,-2.9 h -2 v 5.7 h 2 c 1.5,0.1 2.6,-1.2 2.6,-2.8 z"
   id="path1314" />
		<path
   class="st1"
   d="m 67,941.6 v 1 H 62.4 V 935 h 4.5 v 1 h -3.5 v 2.3 h 3.2 v 0.9 h -3.2 v 2.4 z"
   id="path1316" />
		<path
   class="st1"
   d="m 70,940.8 0.9,-0.5 c 0.3,0.8 0.9,1.4 2,1.4 1.1,0 1.6,-0.5 1.6,-1.2 0,-0.8 -0.7,-1 -1.8,-1.4 -1.2,-0.4 -2.4,-0.8 -2.4,-2.2 0,-1.4 1.1,-2.2 2.4,-2.2 1.3,0 2.2,0.7 2.6,1.7 l -0.8,0.5 c -0.3,-0.7 -0.8,-1.2 -1.7,-1.2 -0.8,0 -1.4,0.4 -1.4,1.1 0,0.7 0.5,1 1.6,1.3 1.3,0.4 2.6,0.8 2.6,2.3 0,1.3 -1.1,2.2 -2.6,2.2 -1.5,0.1 -2.6,-0.7 -3,-1.8 z"
   id="path1318" />
		<path
   class="st1"
   d="m 80,934.9 v 7.6 h -1 v -7.6 z"
   id="path1320" />
		<path
   class="st1"
   d="m 91.3,939.2 c 0,1.9 -1.4,3.5 -3.7,3.5 -2.4,0 -4,-1.8 -4,-4 0,-2.2 1.7,-4 4,-4 1.4,0 2.7,0.8 3.3,1.8 L 90,937 c -0.4,-0.8 -1.4,-1.4 -2.4,-1.4 -1.8,0 -3,1.3 -3,3 0,1.7 1.2,3 3,3 1.6,0 2.5,-0.9 2.7,-2 h -2.8 v -0.9 h 3.8 z"
   id="path1322" />
		<path
   class="st1"
   d="m 100.6,934.9 v 7.6 h -0.8 l -3.9,-5.7 v 5.7 h -1 v -7.6 h 0.8 l 3.9,5.7 v -5.7 z"
   id="path1324" />
		<path
   class="st1"
   d="m 109.1,941.6 v 1 h -4.6 V 935 h 4.5 v 1 h -3.5 v 2.3 h 3.2 v 0.9 h -3.2 v 2.4 z"
   id="path1326" />
		<path
   class="st1"
   d="m 119.2,938.7 c 0,2.1 -1.5,3.8 -3.6,3.8 h -3 v -7.6 h 3 c 2,0 3.6,1.7 3.6,3.8 z m -1,0 c 0,-1.6 -1.1,-2.9 -2.6,-2.9 h -2 v 5.7 h 2 c 1.5,0.1 2.6,-1.2 2.6,-2.8 z"
   id="path1328" />
		<path
   class="st1"
   d="m 133.2,940.4 c 0,1.2 -1,2.2 -2.2,2.2 h -3.3 V 935 h 3 c 1.2,0 2.1,0.9 2.1,2.1 0,0.7 -0.3,1.2 -0.8,1.6 0.7,0.2 1.2,0.8 1.2,1.7 z m -4.5,-4.6 v 2.3 h 2 c 0.6,0 1.1,-0.5 1.1,-1.2 0,-0.6 -0.5,-1.2 -1.1,-1.2 h -2 z m 3.5,4.5 c 0,-0.7 -0.5,-1.2 -1.2,-1.2 h -2.3 v 2.5 h 2.3 c 0.7,0 1.2,-0.6 1.2,-1.3 z"
   id="path1330" />
		<path
   class="st1"
   d="m 139.4,939.4 v 3.1 h -1 v -3.1 l -2.7,-4.5 h 1.1 l 2.1,3.6 2.1,-3.6 h 1.1 z"
   id="path1332" />
	</g>
	<g
   id="g1348">
		<path
   class="st1"
   d="m 204.6,951.9 h 2.1 l 2.6,9.7 2.8,-9.7 h 1.9 l 2.8,9.7 2.6,-9.7 h 2.1 l -3.5,12.4 h -2.4 l -2.6,-9 -2.6,9 H 208 Z"
   id="path1336" />
		<path
   class="st1"
   d="m 230.9,955.4 v 8.9 H 229 V 963 c -0.7,0.9 -1.7,1.5 -3.1,1.5 -2.4,0 -4.4,-2 -4.4,-4.7 0,-2.6 2,-4.7 4.4,-4.7 1.4,0 2.4,0.6 3.1,1.5 v -1.3 h 1.9 z m -1.9,4.5 c 0,-1.6 -1.2,-2.8 -2.8,-2.8 -1.6,0 -2.8,1.2 -2.8,2.8 0,1.6 1.2,2.8 2.8,2.8 1.6,0 2.8,-1.2 2.8,-2.8 z"
   id="path1338" />
		<path
   class="st1"
   d="m 233.1,951.4 h 1.9 v 12.9 h -1.9 z"
   id="path1340" />
		<path
   class="st1"
   d="m 237.2,951.4 h 1.9 v 12.9 h -1.9 z"
   id="path1342" />
		<path
   class="st1"
   d="m 245.7,962.8 c 1.1,0 1.9,-0.5 2.3,-1.1 l 1.6,0.9 c -0.8,1.2 -2.1,1.9 -3.9,1.9 -2.9,0 -4.8,-2 -4.8,-4.7 0,-2.6 1.9,-4.7 4.7,-4.7 2.6,0 4.4,2.1 4.4,4.7 0,0.3 0,0.5 -0.1,0.8 h -7 c 0.3,1.5 1.4,2.2 2.8,2.2 z m 2.4,-3.7 c -0.3,-1.5 -1.4,-2.2 -2.5,-2.2 -1.4,0 -2.4,0.8 -2.7,2.2 z"
   id="path1344" />
		<path
   class="st1"
   d="m 254.1,957.3 v 4.2 c 0,1.1 0.7,1.1 2.2,1 v 1.7 c -2.9,0.4 -4.1,-0.5 -4.1,-2.8 v -4.2 h -1.6 v -1.8 h 1.6 v -1.9 l 1.9,-0.6 v 2.5 h 2.2 v 1.8 h -2.2 z"
   id="path1346" />
	</g>
	<g
   id="g1470">
		<g
   id="g1398">
			<g
   id="g1352">
				<path
   class="st1"
   d="m 846.1,938.7 c 0,2.1 -1.5,3.8 -3.6,3.8 h -3 v -7.6 h 3 c 2.1,0 3.6,1.7 3.6,3.8 z m -0.9,0 c 0,-1.6 -1.1,-2.9 -2.6,-2.9 h -2 v 5.7 h 2 c 1.5,0.1 2.6,-1.2 2.6,-2.8 z"
   id="path1350" />
			</g>
			<g
   id="g1356">
				<path
   class="st1"
   d="m 849.3,938.7 c 0,-2.2 1.7,-4 3.9,-4 2.2,0 4,1.8 4,4 0,2.2 -1.7,4 -4,4 -2.2,0 -3.9,-1.8 -3.9,-4 z m 6.8,0 c 0,-1.7 -1.3,-3 -2.9,-3 -1.7,0 -2.9,1.3 -2.9,3 0,1.7 1.3,3 2.9,3 1.7,0 2.9,-1.3 2.9,-3 z"
   id="path1354" />
			</g>
			<g
   id="g1360">
				<path
   class="st1"
   d="m 859.8,934.9 h 1.1 l 1.7,6.3 1.9,-6.3 h 1 l 1.9,6.3 1.7,-6.3 h 1.1 l -2.2,7.6 h -1.2 l -1.8,-6.1 -1.8,6.1 H 862 Z"
   id="path1358" />
			</g>
			<g
   id="g1364">
				<path
   class="st1"
   d="m 879.3,934.9 v 7.6 h -0.8 l -3.9,-5.7 v 5.7 h -1 v -7.6 h 0.8 l 3.9,5.7 v -5.7 z"
   id="path1362" />
			</g>
			<g
   id="g1368">
				<path
   class="st1"
   d="m 887.5,941.6 v 1 h -4.3 V 935 h 1 v 6.7 h 3.3 z"
   id="path1366" />
			</g>
			<g
   id="g1372">
				<path
   class="st1"
   d="m 889.9,938.7 c 0,-2.2 1.7,-4 3.9,-4 2.2,0 4,1.8 4,4 0,2.2 -1.7,4 -4,4 -2.2,0 -3.9,-1.8 -3.9,-4 z m 6.9,0 c 0,-1.7 -1.3,-3 -2.9,-3 -1.7,0 -2.9,1.3 -2.9,3 0,1.7 1.3,3 2.9,3 1.6,0 2.9,-1.3 2.9,-3 z"
   id="path1370" />
			</g>
			<g
   id="g1376">
				<path
   class="st1"
   d="M 905.4,940.8 H 902 l -0.6,1.7 h -1.1 l 2.8,-7.6 h 1.1 l 2.8,7.6 h -1 z m -0.3,-0.9 -1.4,-3.8 -1.4,3.8 z"
   id="path1374" />
			</g>
			<g
   id="g1380">
				<path
   class="st1"
   d="m 916.9,938.7 c 0,2.1 -1.5,3.8 -3.6,3.8 h -3 v -7.6 h 3 c 2.1,0 3.6,1.7 3.6,3.8 z m -1,0 c 0,-1.6 -1.1,-2.9 -2.6,-2.9 h -2 v 5.7 h 2 c 1.6,0.1 2.6,-1.2 2.6,-2.8 z"
   id="path1378" />
			</g>
			<g
   id="g1384">
				<path
   class="st1"
   d="m 926.5,935.8 v 2.5 h 3.2 v 1 h -3.2 v 3.2 h -1 v -7.6 h 4.4 v 1 h -3.4 z"
   id="path1382" />
			</g>
			<g
   id="g1388">
				<path
   class="st1"
   d="m 936.2,939.6 h -1.8 v 2.9 h -1 v -7.6 h 3 c 1.3,0 2.4,1.1 2.4,2.4 0,1 -0.7,1.9 -1.6,2.2 l 1.8,3.1 h -1.1 z m -1.8,-0.9 h 2 c 0.8,0 1.4,-0.6 1.4,-1.4 0,-0.8 -0.6,-1.4 -1.4,-1.4 h -2 z"
   id="path1386" />
			</g>
			<g
   id="g1392">
				<path
   class="st1"
   d="m 941.9,938.7 c 0,-2.2 1.7,-4 3.9,-4 2.2,0 4,1.8 4,4 0,2.2 -1.7,4 -4,4 -2.2,0 -3.9,-1.8 -3.9,-4 z m 6.9,0 c 0,-1.7 -1.3,-3 -2.9,-3 -1.7,0 -2.9,1.3 -2.9,3 0,1.7 1.3,3 2.9,3 1.6,0 2.9,-1.3 2.9,-3 z"
   id="path1390" />
			</g>
			<g
   id="g1396">
				<path
   class="st1"
   d="m 960.4,942.5 h -1 v -6 l -2.5,4.2 h -0.1 l -2.5,-4.1 v 5.9 h -1 v -7.6 h 1.1 l 2.4,4 2.4,-4 h 1.1 v 7.6 z"
   id="path1394" />
			</g>
		</g>
		<g
   id="g1468">
			<g
   id="g1402">
				<path
   class="st1"
   d="m 839.3,952.9 c 0,-0.7 0.5,-1.2 1.2,-1.2 0.7,0 1.2,0.5 1.2,1.2 0,0.7 -0.5,1.2 -1.2,1.2 -0.6,0 -1.2,-0.5 -1.2,-1.2 z m 0.3,2.5 h 1.9 v 8.9 h -1.9 z"
   id="path1400" />
			</g>
			<g
   id="g1406">
				<path
   class="st1"
   d="m 843.7,951.4 h 1.9 v 12.9 h -1.9 z"
   id="path1404" />
			</g>
			<g
   id="g1410">
				<path
   class="st1"
   d="m 847.8,951.4 h 1.9 v 12.9 h -1.9 z"
   id="path1408" />
			</g>
			<g
   id="g1414">
				<path
   class="st1"
   d="m 852,951.4 h 1.9 v 12.9 H 852 Z"
   id="path1412" />
			</g>
			<g
   id="g1418">
				<path
   class="st1"
   d="m 864,955.4 v 8.9 h -1.9 v -1.1 c -0.6,0.9 -1.5,1.4 -2.7,1.4 -2,0 -3.4,-1.3 -3.4,-3.6 v -5.4 h 1.9 v 5.2 c 0,1.3 0.8,2.1 2,2.1 1.3,0 2.2,-0.7 2.2,-2.5 v -4.7 h 1.9 z"
   id="path1416" />
			</g>
			<g
   id="g1422">
				<path
   class="st1"
   d="m 872.6,961.8 c 0,1.8 -1.5,2.7 -3.5,2.7 -1.8,0 -3,-0.8 -3.6,-2.1 l 1.6,-1 c 0.3,0.8 1,1.3 2,1.3 0.8,0 1.5,-0.3 1.5,-1 0,-1.6 -4.8,-0.7 -4.8,-3.9 0,-1.7 1.4,-2.7 3.2,-2.7 1.5,0 2.7,0.7 3.3,1.8 l -1.6,0.9 c -0.3,-0.7 -0.9,-1 -1.7,-1 -0.7,0 -1.3,0.3 -1.3,0.9 0.2,1.8 4.9,0.8 4.9,4.1 z"
   id="path1420" />
			</g>
			<g
   id="g1426">
				<path
   class="st1"
   d="m 876.7,957.3 v 4.2 c 0,1.1 0.7,1.1 2.2,1 v 1.7 c -2.9,0.4 -4.1,-0.5 -4.1,-2.8 v -4.2 h -1.6 v -1.8 h 1.6 v -1.9 l 1.9,-0.6 v 2.5 h 2.2 v 1.8 h -2.2 z"
   id="path1424" />
			</g>
			<g
   id="g1430">
				<path
   class="st1"
   d="m 885.4,955.3 v 2.1 c -1.3,-0.1 -2.7,0.5 -2.7,2.5 v 4.5 h -1.9 v -8.9 h 1.9 v 1.5 c 0.5,-1.3 1.5,-1.7 2.7,-1.7 z"
   id="path1428" />
			</g>
			<g
   id="g1434">
				<path
   class="st1"
   d="m 895.3,955.4 v 8.9 h -1.9 V 963 c -0.7,0.9 -1.7,1.5 -3.1,1.5 -2.4,0 -4.4,-2 -4.4,-4.7 0,-2.6 2,-4.7 4.4,-4.7 1.4,0 2.4,0.6 3.1,1.5 v -1.3 h 1.9 z m -1.9,4.5 c 0,-1.6 -1.2,-2.8 -2.8,-2.8 -1.6,0 -2.8,1.2 -2.8,2.8 0,1.6 1.2,2.8 2.8,2.8 1.6,0 2.8,-1.2 2.8,-2.8 z"
   id="path1432" />
			</g>
			<g
   id="g1438">
				<path
   class="st1"
   d="m 900.3,957.3 v 4.2 c 0,1.1 0.7,1.1 2.2,1 v 1.7 c -2.9,0.4 -4.1,-0.5 -4.1,-2.8 v -4.2 h -1.6 v -1.8 h 1.6 v -1.9 l 1.9,-0.6 v 2.5 h 2.2 v 1.8 h -2.2 z"
   id="path1436" />
			</g>
			<g
   id="g1442">
				<path
   class="st1"
   d="m 903.9,952.9 c 0,-0.7 0.5,-1.2 1.2,-1.2 0.7,0 1.2,0.5 1.2,1.2 0,0.7 -0.5,1.2 -1.2,1.2 -0.6,0 -1.2,-0.5 -1.2,-1.2 z m 0.3,2.5 h 1.9 v 8.9 h -1.9 z"
   id="path1440" />
			</g>
			<g
   id="g1446">
				<path
   class="st1"
   d="m 907.8,959.9 c 0,-2.6 2.1,-4.7 4.7,-4.7 2.6,0 4.7,2 4.7,4.7 0,2.6 -2.1,4.7 -4.7,4.7 -2.6,-0.1 -4.7,-2.1 -4.7,-4.7 z m 7.5,0 c 0,-1.6 -1.2,-2.8 -2.8,-2.8 -1.6,0 -2.8,1.2 -2.8,2.8 0,1.6 1.2,2.8 2.8,2.8 1.6,0 2.8,-1.2 2.8,-2.8 z"
   id="path1444" />
			</g>
			<g
   id="g1450">
				<path
   class="st1"
   d="m 927,958.9 v 5.4 h -1.9 v -5.2 c 0,-1.3 -0.8,-2.1 -2,-2.1 -1.3,0 -2.2,0.7 -2.2,2.5 v 4.7 H 919 v -8.9 h 1.9 v 1.1 c 0.6,-0.9 1.5,-1.4 2.7,-1.4 1.9,0.2 3.4,1.6 3.4,3.9 z"
   id="path1448" />
			</g>
			<g
   id="g1454">
				<path
   class="st1"
   d="m 935.5,961.8 c 0,1.8 -1.5,2.7 -3.5,2.7 -1.8,0 -3,-0.8 -3.6,-2.1 l 1.6,-1 c 0.3,0.8 1,1.3 2,1.3 0.8,0 1.5,-0.3 1.5,-1 0,-1.6 -4.8,-0.7 -4.8,-3.9 0,-1.7 1.4,-2.7 3.2,-2.7 1.5,0 2.7,0.7 3.3,1.8 l -1.6,0.9 c -0.3,-0.7 -0.9,-1 -1.7,-1 -0.7,0 -1.3,0.3 -1.3,0.9 0.1,1.8 4.9,0.8 4.9,4.1 z"
   id="path1452" />
			</g>
			<g
   id="g1458">
				<path
   class="st1"
   d="m 936.8,963.2 c 0,-0.7 0.6,-1.3 1.3,-1.3 0.7,0 1.3,0.6 1.3,1.3 0,0.7 -0.6,1.3 -1.3,1.3 -0.7,0 -1.3,-0.6 -1.3,-1.3 z"
   id="path1456" />
			</g>
			<g
   id="g1462">
				<path
   class="st1"
   d="m 940.3,959.9 c 0,-2.6 2,-4.7 4.7,-4.7 1.7,0 3.2,0.9 3.9,2.3 l -1.6,1 c -0.4,-0.8 -1.3,-1.4 -2.3,-1.4 -1.6,0 -2.7,1.2 -2.7,2.8 0,1.6 1.2,2.8 2.7,2.8 1.1,0 1.9,-0.5 2.4,-1.4 l 1.6,0.9 c -0.7,1.4 -2.2,2.3 -4,2.3 -2.7,0 -4.7,-2 -4.7,-4.6 z"
   id="path1460" />
			</g>
			<g
   id="g1466">
				<path
   class="st1"
   d="m 949.7,959.9 c 0,-2.6 2.1,-4.7 4.7,-4.7 2.6,0 4.7,2 4.7,4.7 0,2.6 -2.1,4.7 -4.7,4.7 -2.6,-0.1 -4.7,-2.1 -4.7,-4.7 z m 7.5,0 c 0,-1.6 -1.2,-2.8 -2.8,-2.8 -1.6,0 -2.8,1.2 -2.8,2.8 0,1.6 1.2,2.8 2.8,2.8 1.6,0 2.8,-1.2 2.8,-2.8 z"
   id="path1464" />
			</g>
		</g>
	</g>
</g><g
         id="XMLID_1_"
         class="st2">
	<polyline
   id="XMLID_57_-1"
   class="st3"
   points="157.5,387.9 236.9,387.9 236.9,426.6 157.5,426.6  " />
	<line
   id="XMLID_59_-5"
   class="st3"
   x1="316.20001"
   y1="426.60001"
   x2="236.89999"
   y2="426.60001" />
	<line
   id="XMLID_38_"
   class="st3"
   x1="236.89999"
   y1="387.89999"
   x2="267.29999"
   y2="387.89999" />
	<rect
   id="XMLID_42_"
   x="197.2"
   y="426.60001"
   class="st3"
   width="79.300003"
   height="38.700001" />
	<polyline
   id="XMLID_52_-9"
   class="st3"
   points="169.9,465.5 236.9,465.5 236.9,504.2 211.2,504.2  " />
	<rect
   id="XMLID_54_-7"
   x="236.89999"
   y="465.5"
   class="st3"
   width="79.300003"
   height="38.700001" />
	<polyline
   id="XMLID_81_-7"
   class="st3"
   points="580.5,528 659.9,528 659.9,566.6 580.5,566.6  " />
	<line
   id="XMLID_80_"
   class="st3"
   x1="739.20001"
   y1="566.59998"
   x2="659.90002"
   y2="566.59998" />
	<line
   id="XMLID_79_"
   class="st3"
   x1="659.90002"
   y1="528"
   x2="690.29999"
   y2="528" />
	<rect
   id="XMLID_78_-6"
   x="620.20001"
   y="566.59998"
   class="st3"
   width="79.300003"
   height="38.700001" />
	<polyline
   id="XMLID_77_-7"
   class="st3"
   points="592.9,605.5 659.9,605.5 659.9,644.2 634.2,644.2  " />
	<polyline
   id="XMLID_76_-3"
   class="st3"
   points="711,644.2 659.9,644.2 659.9,605.5 726,605.5  " />
	<rect
   id="XMLID_25_-6"
   x="321.79999"
   y="243"
   class="st3"
   width="123.1"
   height="99.800003" />
	<polyline
   id="XMLID_62_-5"
   class="st3"
   points="338.8,319.7 361.3,287 384.7,315.9  " />
	<polyline
   id="XMLID_64_-6"
   class="st3"
   points="376.1,305.3 407.6,274.8 429.9,319.7  " />
	<path
   id="XMLID_63_"
   class="st3"
   d="m 367.9,295.1 c 1.6,-4.7 6,-8.1 11.2,-8.1 4.3,0 8.1,2.3 10.2,5.8" />
	<path
   id="XMLID_24_-3"
   class="st3"
   d="M 765,410.2 H 589.9 c -6.5,0 -11.7,-5.2 -11.7,-11.7 v 0 c 0,-6.5 5.2,-11.7 11.7,-11.7 H 765 c 6.5,0 11.7,5.2 11.7,11.7 v 0 c 0,6.5 -5.2,11.7 -11.7,11.7 z" />
	<polygon
   id="XMLID_23_-9"
   class="st3"
   points="715.5,321.3 704.8,386.8 653.5,386.8 642.9,321.3 " />
	<rect
   id="XMLID_46_"
   x="633.20001"
   y="302.29999"
   class="st3"
   width="92.300003"
   height="19" />
	<g
   id="XMLID_68_-4">
		<path
   id="XMLID_83_"
   class="st3"
   d="m 691.1,302.3 c -6.3,0 -12.6,0 -18.9,0 -5.2,-18.1 -9.7,-37.1 -9.1,-55.7 0.7,-8.9 10.3,-16.4 18.6,-16.4 v 0 c 8.3,0 17.9,7.5 18.6,16.4 0.4,18.6 -4.1,37.6 -9.2,55.7 z" />
	</g>
	<path
   id="XMLID_71_-8"
   class="st3"
   d="m 700.7,244.4 13.1,-21.7 c 2.5,-4.2 8.2,-5.1 11.9,-1.9 v 0 c 3.7,3.2 3.6,8.9 -0.2,12 L 700.9,253" />
	<path
   id="XMLID_75_-1"
   class="st3"
   d="m 714,222.5 -6.2,-19.4 c -1,-3 1,-6.1 4.1,-6.5 v 0 c 3.1,-0.4 5.8,2 5.8,5.1 l -0.5,15.7" />
</g><g
         id="XMLID_20_-2">
	
		<rect
   id="XMLID_7_-9"
   x="390.20001"
   y="407.39999"
   transform="matrix(-0.4382,0.8989,-0.8989,-0.4382,1209.1852,204.4118)"
   class="st4"
   width="301.10001"
   height="145.3" />
	
		<rect
   id="XMLID_17_-3"
   x="390.20001"
   y="407.39999"
   transform="matrix(-0.4382,0.8989,-0.8989,-0.4382,1209.1852,204.4118)"
   class="st3"
   width="301.10001"
   height="145.3" />
	<path
   id="XMLID_16_-9"
   class="st5"
   d="m 620.3,369.9 -41.8,-20.4 c -7.9,16.3 -27.5,23 -43.8,15.1 l -103,211.2 100.7,49.1 103,-211.2 c -16.3,-7.9 -23.1,-27.5 -15.1,-43.8 z" />
	<path
   id="XMLID_12_-0"
   class="st3"
   d="m 620.3,369.9 -41.8,-20.4 c -7.9,16.3 -27.5,23 -43.8,15.1 l -103,211.2 100.7,49.1 103,-211.2 c -16.3,-7.9 -23.1,-27.5 -15.1,-43.8 z" />
	
		<rect
   id="XMLID_10_-8"
   x="484.70001"
   y="346.20001"
   transform="matrix(0.8989,0.4382,-0.4382,0.8989,265.0726,-188.4116)"
   class="st3"
   width="112"
   height="267.79999" />
	<circle
   id="XMLID_19_-8"
   class="st4"
   cx="550.70001"
   cy="459"
   r="34.299999" />
	<circle
   id="XMLID_13_-5"
   class="st3"
   cx="550.70001"
   cy="459"
   r="34.299999" />
</g><g
         id="XMLID_22_-0">
	
		<rect
   id="XMLID_33_"
   x="457.10001"
   y="436"
   transform="matrix(-0.7733,0.634,-0.634,-0.7733,1400.1356,516.725)"
   class="st6"
   width="301.10001"
   height="145.3" />
	
		<rect
   id="XMLID_32_"
   x="457.10001"
   y="436"
   transform="matrix(-0.7733,0.634,-0.634,-0.7733,1400.1356,516.725)"
   class="st3"
   width="301.10001"
   height="145.3" />
	<path
   id="XMLID_31_"
   class="st5"
   d="m 726,441.7 -29.5,-35.9 c -14,11.5 -34.6,9.4 -46.1,-4.6 l -181.7,149 71,86.6 181.7,-149 C 709.9,473.9 712,453.2 726,441.7 Z" />
	<path
   id="XMLID_30_"
   class="st3"
   d="m 726,441.7 -29.5,-35.9 c -14,11.5 -34.6,9.4 -46.1,-4.6 l -181.7,149 71,86.6 181.7,-149 C 709.9,473.9 712,453.2 726,441.7 Z" />
	
		<rect
   id="XMLID_29_-9"
   x="551.70001"
   y="374.79999"
   transform="matrix(0.634,0.7733,-0.7733,0.634,615.7564,-283.7794)"
   class="st3"
   width="112"
   height="267.79999" />
	<circle
   id="XMLID_28_"
   class="st6"
   cx="625.59998"
   cy="493.70001"
   r="34.299999" />
	<circle
   id="XMLID_27_"
   class="st3"
   cx="625.59998"
   cy="493.70001"
   r="34.299999" />
	<path
   id="XMLID_48_"
   class="st7"
   d="m 629.4,457.7 c 0,-17.8 -6.7,-34 -17.6,-46.4 l -166.6,136.6 92.2,112.4 92.1,-75.5 V 457.7 Z" />
</g><line
         id="XMLID_9_-6"
         class="st8"
         x1="169"
         y1="748.70001"
         x2="831"
         y2="748.70001" /><g
         id="g1538">
	<path
   id="XMLID_15_-3"
   class="st9"
   d="m 559.4,748.7 h -210 c -33.1,0 -60,-26.9 -60,-60 v -236 c 0,-33.1 26.9,-60 60,-60 h 210 c 33.1,0 60,26.9 60,60 v 236 c 0,33.2 -26.8,60 -60,60 z" />
	<path
   id="XMLID_36_"
   class="st9"
   d="m 559.4,748.7 h -210 c -33.1,0 -60,-26.9 -60,-60 v -236 c 0,-33.1 26.9,-60 60,-60 h 210 c 33.1,0 60,26.9 60,60 v 236 c 0,33.2 -26.8,60 -60,60 z" />
	<path
   id="XMLID_43_"
   class="st10"
   d="m 559.4,736.6 h -210 c -33.1,0 -60,-26.9 -60,-60 v 12.1 c 0,33.1 26.9,60 60,60 h 210 c 33.1,0 60,-26.9 60,-60 v -12.1 c 0,33.1 -26.8,60 -60,60 z" />
	<path
   id="XMLID_40_"
   class="st11"
   d="m 559.4,392.7 h -210 c -33.1,0 -60,24.7 -60,55.1 v 12.9 c 0,-30.4 26.9,-55.1 60,-55.1 h 210 c 33.1,0 60,24.7 60,55.1 v -12.9 c 0,-30.4 -26.8,-55.1 -60,-55.1 z" />
	<path
   id="XMLID_34_"
   class="st12"
   d="m 489.4,539.2 h -54 c -9.9,0 -18,-8.1 -18,-18 V 410.7 c 0,-9.9 8.1,-18 18,-18 h 72 v 128.5 c 0,9.9 -8,18 -18,18 z" />
	<path
   id="XMLID_2_"
   class="st3"
   d="m 559.4,748.7 h -210 c -33.1,0 -60,-26.9 -60,-60 v -236 c 0,-33.1 26.9,-60 60,-60 h 210 c 33.1,0 60,26.9 60,60 v 236 c 0,33.2 -26.8,60 -60,60 z" />
	<g
   id="XMLID_5_-8"
   class="st13">
		<path
   class="st14"
   d="m 311.4,687.2 v -233 c 0,-21 17,-38 38,-38 h 210 c 21,0 38,17 38,38 v 232.9 c 0,21 -17,38 -38,38 h -210 c -21,0.1 -38,-16.9 -38,-37.9 z"
   id="path1522" />
	</g>
	<path
   id="XMLID_18_-5"
   class="st15"
   d="m 481.4,528.2 h -54 c -9.9,0 -18,-8.1 -18,-18 v -122 c 0,-9.9 8.1,-18 18,-18 h 54 c 9.9,0 18,8.1 18,18 v 122 c 0,9.9 -8,18 -18,18 z" />
	<path
   id="XMLID_45_"
   class="st16"
   d="m 481.4,519.9 h -54 c -9.9,0 -18,-8.1 -18,-18 v 8.3 c 0,9.9 8.1,18 18,18 h 54 c 9.9,0 18,-8.1 18,-18 v -8.3 c 0,9.9 -8,18 -18,18 z" />
	<path
   id="XMLID_44_"
   class="st17"
   d="m 481.4,370.2 h -54 c -9.9,0 -18,8.1 -18,18 v 6.8 c 0,-9.9 8.1,-18 18,-18 h 54 c 9.9,0 18,8.1 18,18 v -6.8 c 0,-9.9 -8,-18 -18,-18 z" />
	<path
   id="XMLID_4_-6"
   class="st3"
   d="m 481.4,528.2 h -54 c -9.9,0 -18,-8.1 -18,-18 v -122 c 0,-9.9 8.1,-18 18,-18 h 54 c 9.9,0 18,8.1 18,18 v 122 c 0,9.9 -8,18 -18,18 z" />
	<circle
   id="XMLID_35_"
   class="st12"
   cx="457.39999"
   cy="479.20001"
   r="23.200001" />
	<g
   id="XMLID_11_-1"
   class="st13">
		<path
   class="st18"
   d="m 427.4,516.2 c -3.3,0 -6,-2.7 -6,-6 v -122 c 0,-3.3 2.7,-6 6,-6 h 54 c 3.3,0 6,2.7 6,6 v 122 c 0,3.3 -2.7,6 -6,6 z"
   id="path1530" />
	</g>
	<circle
   id="XMLID_21_-1"
   class="st1"
   cx="454.39999"
   cy="473.20001"
   r="23.200001" />
	<circle
   id="XMLID_6_-5"
   class="st3"
   cx="454.39999"
   cy="473.20001"
   r="23.200001" />
	<g
   id="XMLID_37_"
   class="st19">
		<path
   class="st20"
   d="m 464.2,461.3 c 0.8,3.8 -3.7,6.2 -10.3,7.6 -6.7,1.3 -12.7,1.5 -13.5,-1.7 -0.8,-3.1 3.7,-9 10.3,-10.9 6.7,-1.9 12.7,1.3 13.5,5 z"
   id="path1535" />
	</g>
</g><g
         id="XMLID_65_-9">
	<path
   id="XMLID_41_"
   class="st21"
   d="m 788.3,748.7 h -70 c -4,0 -7.3,-3.3 -7.3,-7.3 v -4.9 c 0,-4 3.3,-7.3 7.3,-7.3 h 70 c 4,0 7.3,3.3 7.3,7.3 v 4.9 c 0,4.1 -3.3,7.3 -7.3,7.3 z" />
	<path
   id="XMLID_72_-8"
   class="st22"
   d="m 788.3,731.3 h -70 c -4,0 -7.3,3.3 -7.3,7.3 v 2.8 c 0,-4 3.3,-7.3 7.3,-7.3 h 70 c 4,0 7.3,3.3 7.3,7.3 v -2.8 c 0,-4 -3.3,-7.3 -7.3,-7.3 z" />
	<path
   id="XMLID_70_-4"
   class="st23"
   d="m 788.3,746.5 h -70 c -4,0 -7.3,-3.3 -7.3,-7.3 v -2.8 c 0,4 3.3,7.3 7.3,7.3 h 70 c 4,0 7.3,-3.3 7.3,-7.3 v 2.8 c 0,4.1 -3.3,7.3 -7.3,7.3 z" />
	<path
   id="XMLID_39_"
   class="st3"
   d="m 788.3,748.7 h -70 c -4,0 -7.3,-3.3 -7.3,-7.3 v -4.9 c 0,-4 3.3,-7.3 7.3,-7.3 h 70 c 4,0 7.3,3.3 7.3,7.3 v 4.9 c 0,4.1 -3.3,7.3 -7.3,7.3 z" />
</g><g
         id="XMLID_73_-8">
	<path
   id="XMLID_90_-1"
   class="st21"
   d="m 800,729.3 h -70 c -4,0 -7.3,-3.3 -7.3,-7.3 v -4.9 c 0,-4 3.3,-7.3 7.3,-7.3 h 70 c 4,0 7.3,3.3 7.3,7.3 v 4.9 c -0.1,4.1 -3.3,7.3 -7.3,7.3 z" />
	<path
   id="XMLID_89_-0"
   class="st22"
   d="m 800,711.9 h -70 c -4,0 -7.3,3.3 -7.3,7.3 v 2.8 c 0,-4 3.3,-7.3 7.3,-7.3 h 70 c 4,0 7.3,3.3 7.3,7.3 v -2.8 c -0.1,-4 -3.3,-7.3 -7.3,-7.3 z" />
	<path
   id="XMLID_88_-3"
   class="st23"
   d="m 800,727.1 h -70 c -4,0 -7.3,-3.3 -7.3,-7.3 V 717 c 0,4 3.3,7.3 7.3,7.3 h 70 c 4,0 7.3,-3.3 7.3,-7.3 v 2.8 c -0.1,4.1 -3.3,7.3 -7.3,7.3 z" />
	<path
   id="XMLID_74_-0"
   class="st3"
   d="m 800,729.3 h -70 c -4,0 -7.3,-3.3 -7.3,-7.3 v -4.9 c 0,-4 3.3,-7.3 7.3,-7.3 h 70 c 4,0 7.3,3.3 7.3,7.3 v 4.9 c -0.1,4.1 -3.3,7.3 -7.3,7.3 z" />
</g><g
         id="XMLID_47_">
	<path
   id="XMLID_56_-4"
   class="st21"
   d="m 788.3,709.9 h -70 c -4,0 -7.3,-3.3 -7.3,-7.3 v -4.9 c 0,-4 3.3,-7.3 7.3,-7.3 h 70 c 4,0 7.3,3.3 7.3,7.3 v 4.9 c 0,4.1 -3.3,7.3 -7.3,7.3 z" />
	<path
   id="XMLID_53_-4"
   class="st22"
   d="m 788.3,692.6 h -70 c -4,0 -7.3,3.3 -7.3,7.3 v 2.8 c 0,-4 3.3,-7.3 7.3,-7.3 h 70 c 4,0 7.3,3.3 7.3,7.3 v -2.8 c 0,-4.1 -3.3,-7.3 -7.3,-7.3 z" />
	<path
   id="XMLID_50_"
   class="st23"
   d="m 788.3,707.8 h -70 c -4,0 -7.3,-3.3 -7.3,-7.3 v -2.8 c 0,4 3.3,7.3 7.3,7.3 h 70 c 4,0 7.3,-3.3 7.3,-7.3 v 2.8 c 0,4 -3.3,7.3 -7.3,7.3 z" />
	<path
   id="XMLID_49_"
   class="st3"
   d="m 788.3,709.9 h -70 c -4,0 -7.3,-3.3 -7.3,-7.3 v -4.9 c 0,-4 3.3,-7.3 7.3,-7.3 h 70 c 4,0 7.3,3.3 7.3,7.3 v 4.9 c 0,4.1 -3.3,7.3 -7.3,7.3 z" />
</g><g
         id="XMLID_58_-4">
	<path
   id="XMLID_67_-4"
   class="st21"
   d="m 709.1,695.3 -47.8,51.1 c -2.7,2.9 -7.3,3.1 -10.3,0.3 l -3.5,-3.3 c -2.9,-2.7 -3.1,-7.3 -0.3,-10.3 L 695,682 c 2.7,-2.9 7.3,-3.1 10.3,-0.3 l 3.5,3.3 c 2.8,2.8 3,7.3 0.3,10.3 z" />
	<path
   id="XMLID_66_-7"
   class="st22"
   d="m 696.4,683.4 -47.8,51.1 c -2.7,2.9 -2.6,7.5 0.3,10.3 l 2.1,1.9 c -2.9,-2.7 -3.1,-7.3 -0.3,-10.3 l 47.8,-51.1 c 2.7,-2.9 7.3,-3.1 10.3,-0.3 l -2.1,-1.9 c -3,-2.8 -7.6,-2.6 -10.3,0.3 z" />
	<path
   id="XMLID_61_-6"
   class="st23"
   d="m 707.5,693.8 -47.8,51.1 c -2.7,2.9 -7.3,3.1 -10.3,0.3 l -2.1,-1.9 c 2.9,2.7 7.5,2.6 10.3,-0.3 l 47.8,-51.1 c 2.7,-2.9 2.6,-7.5 -0.3,-10.3 l 2.1,1.9 c 2.8,2.8 3,7.4 0.3,10.3 z" />
	<path
   id="XMLID_60_"
   class="st3"
   d="m 709.1,695.3 -47.8,51.1 c -2.7,2.9 -7.3,3.1 -10.3,0.3 l -3.5,-3.3 c -2.9,-2.7 -3.1,-7.3 -0.3,-10.3 L 695,682 c 2.7,-2.9 7.3,-3.1 10.3,-0.3 l 3.5,3.3 c 2.8,2.8 3,7.3 0.3,10.3 z" />
</g></g></g><style
     type="text/css"
     id="style502">
	.st0{fill:#9057EA;}
	.st1{fill:#EEF2F4;}
	.st2{fill:#543889;stroke:#543889;stroke-width:8;stroke-linecap:round;stroke-linejoin:round;stroke-miterlimit:10;}
	.st3{fill:#FFA124;}
	.st4{opacity:0.34;fill:#3F4545;}
	.st5{opacity:0.78;fill:#3F4545;}
	.st6{fill:none;stroke:#1F2120;stroke-width:8;stroke-linecap:round;stroke-linejoin:round;stroke-miterlimit:10;}
	.st7{fill:#B5B4B4;}
	.st8{opacity:0.39;fill:#B5B4B4;}
	.st9{opacity:0.5;fill:#FFFFFF;}
	.st10{fill:#FF1A1A;}
	.st11{opacity:0.63;fill:#E02F2F;}
	.st12{fill:#EA4949;}
	.st13{fill:#E02F2F;}
	.st14{fill:none;stroke:#1F2120;stroke-width:10;stroke-linecap:round;stroke-linejoin:round;stroke-miterlimit:10;}
	.st15{fill:none;stroke:#543889;stroke-width:8;stroke-linecap:round;stroke-linejoin:round;stroke-miterlimit:10;}
	.st16{opacity:0.2;fill:#FF1A1A;}
	.st17{opacity:0.68;fill:#3F4545;}
	.st18{fill:#EAEAEA;}
	.st19{opacity:0.37;fill:#B5B4B4;}
	.st20{fill:#1F2120;}
	.st21{fill:#47A942;}
	.st22{fill:#C4C4C4;}
	.st23{fill:#CCCC00;}
	.st24{fill:#00B3C6;}
	.st25{opacity:0.53;fill:#00B3C6;}
	.st26{fill:#414141;}
	.st27{fill:#FFC41D;}
	.st28{opacity:0.4;fill:#414141;}
</style><style
     type="text/css"
     id="style1265">
	.st0{fill:#FFFFFF;}
	.st1{fill:#8F6D5D;}
	.st2{opacity:0.15;}
	.st3{fill:none;stroke:#474747;stroke-width:6;stroke-linecap:round;stroke-linejoin:round;stroke-miterlimit:10;}
	.st4{fill:#77BA85;}
	.st5{fill:#F6F9EA;}
	.st6{fill:#97CD78;}
	.st7{opacity:0.32;fill:#474747;stroke:#474747;stroke-width:6;stroke-linecap:round;stroke-linejoin:round;stroke-miterlimit:10;}
	.st8{opacity:0.15;fill:none;stroke:#474747;stroke-width:6;stroke-linecap:round;stroke-linejoin:round;stroke-miterlimit:10;}
	.st9{fill:#F58870;}
	.st10{fill:#DD7868;}
	.st11{fill:#FFA399;}
	.st12{opacity:0.3;fill:#474747;stroke:#474747;stroke-width:6;stroke-linecap:round;stroke-linejoin:round;stroke-miterlimit:10;}
	.st13{opacity:0.46;}
	.st14{fill:none;stroke:#474747;stroke-width:4;stroke-linecap:round;stroke-linejoin:round;stroke-dasharray:13.9577,9.9698;}
	.st15{fill:#F79765;}
	.st16{fill:#E27444;}
	.st17{fill:#FFB797;}
	.st18{fill:none;stroke:#474747;stroke-width:4;stroke-linecap:round;stroke-linejoin:round;stroke-dasharray:9.8393,11.8071;}
	.st19{opacity:0.6;}
	.st20{fill:#FFFCEE;}
	.st21{fill:#FDB740;}
	.st22{opacity:0.88;fill:#FFF3C0;}
	.st23{fill:#F29E25;}
</style></svg>
