<?xml version="1.0" encoding="UTF-8" standalone="no"?>
<!-- Created with Inkscape (http://www.inkscape.org/) -->

<svg
   width="1600.2645mm"
   height="900.26459mm"
   viewBox="0 0 1600.2645 900.26459"
   version="1.1"
   id="svg5"
   xml:space="preserve"
   inkscape:version="1.2 (dc2aedaf03, 2022-05-15)"
   sodipodi:docname="vtt.svg"
   inkscape:export-filename="vtt.png"
   inkscape:export-xdpi="96"
   inkscape:export-ydpi="96"
   xmlns:inkscape="http://www.inkscape.org/namespaces/inkscape"
   xmlns:sodipodi="http://sodipodi.sourceforge.net/DTD/sodipodi-0.dtd"
   xmlns:xlink="http://www.w3.org/1999/xlink"
   xmlns="http://www.w3.org/2000/svg"
   xmlns:svg="http://www.w3.org/2000/svg"><sodipodi:namedview
     id="namedview7"
     pagecolor="#ffffff"
     bordercolor="#666666"
     borderopacity="1.0"
     inkscape:showpageshadow="2"
     inkscape:pageopacity="0.0"
     inkscape:pagecheckerboard="0"
     inkscape:deskcolor="#d1d1d1"
     inkscape:document-units="mm"
     showgrid="false"
     inkscape:zoom="0.18516565"
     inkscape:cx="2549.0689"
     inkscape:cy="1663.3755"
     inkscape:window-width="2216"
     inkscape:window-height="1336"
     inkscape:window-x="12"
     inkscape:window-y="52"
     inkscape:window-maximized="1"
     inkscape:current-layer="layer1" /><defs
     id="defs2"><path
       id="XMLID_7_"
       d="M664,679H388V283h276c9.9,0,18,7.8,18,17.7v360C682,670.7,673.9,679,664,679z" /><clipPath
       clipPathUnits="userSpaceOnUse"
       id="clipPath1835"><ellipse
         style="opacity:1;fill:#ffffff;stroke:#ffffff;stroke-width:1.25123"
         id="circle1837"
         cx="499.99997"
         cy="499.99997"
         rx="472.88263"
         ry="472.92993" /></clipPath></defs><g
     inkscape:label="Layer 1"
     inkscape:groupmode="layer"
     id="layer1"
     transform="translate(-85.305674,-93.483202)"><rect
       style="fill:#000000;stroke:#ffffff;stroke-width:0.264583"
       id="rect184"
       width="1600"
       height="900"
       x="85.437965"
       y="93.615494" /><text
       xml:space="preserve"
       style="font-style:normal;font-variant:normal;font-weight:normal;font-stretch:normal;font-size:117.19px;line-height:1.25;font-family:Literata;-inkscape-font-specification:'Literata, Normal';font-variant-ligatures:normal;font-variant-caps:normal;font-variant-numeric:normal;font-variant-east-asian:normal;fill:#ffffff;fill-opacity:1;stroke:none;stroke-width:2.92976"
       x="985.33398"
       y="441.19144"
       id="text1632"><tspan
         sodipodi:role="line"
         id="tspan1839"
         x="985.33398"
         y="441.19144">vanilla</tspan><tspan
         sodipodi:role="line"
         id="tspan1841"
         x="985.33398"
         y="587.67889">time</tspan><tspan
         sodipodi:role="line"
         id="tspan1843"
         x="985.33398"
         y="734.16638">tracker</tspan></text><g
       id="g1248"
       transform="matrix(0.63356871,0,0,0.63350534,235.26245,226.86285)"
       clip-path="url(#clipPath1835)"><rect
         id="XMLID_18_"
         class="st0"
         width="1000"
         height="1000"
         x="0"
         y="0" /><g
         id="g589">
	<g
   id="g519">
		<g
   id="g489">
			<path
   class="st1"
   d="m 63.2,959.2 c 0,2.5 -1.2,3.7 -2.6,3.7 -1.1,0 -1.9,-0.5 -2.1,-1.4 -0.4,0.5 -1,0.8 -1.8,0.8 -1.5,0 -2.6,-1.2 -2.6,-2.8 0,-1.6 1.1,-2.8 2.6,-2.8 0.7,0 1.2,0.3 1.6,0.7 v -0.5 h 1.6 v 3.9 c 0,0.8 0.3,1.4 1,1.4 0.9,0 1.7,-0.9 1.7,-3 0,-3 -2.3,-5.3 -5.4,-5.3 -3.1,0 -5.6,2.4 -5.6,5.7 0,3.3 2.5,5.7 5.9,5.7 1.1,0 2.1,-0.2 2.9,-0.4 v 0.6 c -0.8,0.3 -1.7,0.4 -2.9,0.4 -3.7,0 -6.5,-2.6 -6.5,-6.2 0,-3.4 2.7,-6.2 6.2,-6.2 3.9,-0.2 6,2.9 6,5.7 z m -4.9,0.3 c 0,-0.8 -0.6,-1.4 -1.3,-1.4 -0.8,0 -1.3,0.5 -1.3,1.4 0,0.8 0.6,1.3 1.3,1.3 0.8,0.1 1.3,-0.5 1.3,-1.3 z"
   id="path487" />
		</g>
		<g
   id="g493">
			<path
   class="st1"
   d="m 69.4,955.1 v 2 c -1.2,-0.1 -2.6,0.5 -2.6,2.4 v 4.3 h -1.9 v -8.6 h 1.9 v 1.4 c 0.5,-1.1 1.5,-1.5 2.6,-1.5 z"
   id="path491" />
		</g>
		<g
   id="g497">
			<path
   class="st1"
   d="m 74.6,962.3 c 1,0 1.8,-0.5 2.2,-1.1 l 1.5,0.9 c -0.8,1.2 -2.1,1.9 -3.8,1.9 -2.8,0 -4.7,-1.9 -4.7,-4.5 0,-2.5 1.8,-4.5 4.5,-4.5 2.6,0 4.3,2.1 4.3,4.5 0,0.3 0,0.5 -0.1,0.8 h -6.8 c 0.4,1.3 1.5,2 2.9,2 z m 2.3,-3.5 c -0.3,-1.5 -1.3,-2.1 -2.5,-2.1 -1.4,0 -2.3,0.8 -2.6,2.1 z"
   id="path495" />
		</g>
		<g
   id="g501">
			<path
   class="st1"
   d="m 88.9,955.2 v 8.6 H 87 v -1.2 c -0.7,0.9 -1.7,1.5 -3,1.5 -2.3,0 -4.3,-2 -4.3,-4.5 0,-2.6 1.9,-4.5 4.3,-4.5 1.3,0 2.3,0.5 3,1.4 v -1.2 z m -1.8,4.3 c 0,-1.6 -1.2,-2.7 -2.7,-2.7 -1.5,0 -2.7,1.1 -2.7,2.7 0,1.6 1.2,2.7 2.7,2.7 1.5,0.1 2.7,-1.1 2.7,-2.7 z"
   id="path499" />
		</g>
		<g
   id="g505">
			<path
   class="st1"
   d="M 91.1,951.3 H 93 v 12.5 h -1.9 z"
   id="path503" />
		</g>
		<g
   id="g509">
			<path
   class="st1"
   d="m 102.9,955.2 -3.3,8.6 h -2.1 l -3.3,-8.6 h 2 l 2.4,6.5 2.4,-6.5 z"
   id="path507" />
		</g>
		<g
   id="g513">
			<path
   class="st1"
   d="m 104.2,955.2 h 1.9 v 8.9 c 0,2.4 -1.2,3.5 -3.5,3.3 v -1.8 c 1.1,0.1 1.7,-0.3 1.7,-1.5 z m -0.2,-2.4 c 0,-0.7 0.5,-1.2 1.2,-1.2 0.7,0 1.2,0.5 1.2,1.2 0,0.6 -0.5,1.2 -1.2,1.2 -0.7,0 -1.2,-0.6 -1.2,-1.2 z"
   id="path511" />
		</g>
		<g
   id="g517">
			<path
   class="st1"
   d="m 116,955.2 -3.3,8.8 c -0.8,2.2 -2.2,3.3 -4.2,3.2 v -1.7 c 1.2,0.1 1.9,-0.5 2.3,-1.7 l 0.1,-0.2 -3.6,-8.4 h 2 l 2.6,6.2 2.2,-6.2 z"
   id="path515" />
		</g>
	</g>
	<g
   id="g531">
		<path
   class="st1"
   d="m 211.9,938.7 c 0,2.1 -1.5,3.8 -3.6,3.8 h -3 v -7.6 h 3 c 2.1,0 3.6,1.7 3.6,3.8 z m -1,0 c 0,-1.6 -1.1,-2.9 -2.6,-2.9 h -2 v 5.7 h 2 c 1.5,0.1 2.6,-1.2 2.6,-2.8 z"
   id="path521" />
		<path
   class="st1"
   d="m 219.5,940.8 h -3.4 l -0.6,1.7 h -1.1 l 2.8,-7.6 h 1.1 l 2.8,7.6 H 220 Z m -0.3,-0.9 -1.4,-3.8 -1.4,3.8 z"
   id="path523" />
		<path
   class="st1"
   d="m 226.4,939.4 v 3.1 h -1 v -3.1 l -2.7,-4.5 h 1.1 l 2.1,3.6 2.1,-3.6 h 1.1 z"
   id="path525" />
		<path
   class="st1"
   d="m 242.1,940.1 c 0,1.5 -1.1,2.6 -2.6,2.6 -1.5,0 -2.6,-1.1 -2.6,-2.6 0,-0.6 0.2,-1.1 0.5,-1.5 l 2.5,-3.7 h 1.2 l -1.8,2.7 c 0.1,0 0.2,0 0.4,0 1.3,-0.1 2.4,1 2.4,2.5 z m -1,0 c 0,-1 -0.7,-1.6 -1.6,-1.6 -1,0 -1.6,0.6 -1.6,1.6 0,1 0.7,1.6 1.6,1.6 0.9,0 1.6,-0.7 1.6,-1.6 z"
   id="path527" />
		<path
   class="st1"
   d="m 249.4,938.8 v 0 l -2.5,3.7 h -1.1 l 1.8,-2.7 c -0.1,0 -0.2,0 -0.4,0 -1.5,0 -2.6,-1 -2.6,-2.6 0,-1.5 1.1,-2.6 2.6,-2.6 1.5,0 2.6,1 2.6,2.6 0.1,0.7 -0.1,1.2 -0.4,1.6 z m -2.1,0.1 c 1,0 1.6,-0.6 1.6,-1.6 0,-1 -0.7,-1.6 -1.6,-1.6 -0.9,0 -1.6,0.6 -1.6,1.6 -0.1,1 0.6,1.6 1.6,1.6 z"
   id="path529" />
	</g>
	<g
   id="g553">
		<path
   class="st1"
   d="m 58.9,938.7 c 0,2.1 -1.5,3.8 -3.6,3.8 h -3 v -7.6 h 3 c 2.1,0 3.6,1.7 3.6,3.8 z m -1,0 c 0,-1.6 -1.1,-2.9 -2.6,-2.9 h -2 v 5.7 h 2 c 1.5,0.1 2.6,-1.2 2.6,-2.8 z"
   id="path533" />
		<path
   class="st1"
   d="m 67,941.6 v 1 H 62.4 V 935 h 4.5 v 1 h -3.5 v 2.3 h 3.2 v 0.9 h -3.2 v 2.4 z"
   id="path535" />
		<path
   class="st1"
   d="m 70,940.8 0.9,-0.5 c 0.3,0.8 0.9,1.4 2,1.4 1.1,0 1.6,-0.5 1.6,-1.2 0,-0.8 -0.7,-1 -1.8,-1.4 -1.2,-0.4 -2.4,-0.8 -2.4,-2.2 0,-1.4 1.1,-2.2 2.4,-2.2 1.3,0 2.2,0.7 2.6,1.7 l -0.8,0.5 c -0.3,-0.7 -0.8,-1.2 -1.7,-1.2 -0.8,0 -1.4,0.4 -1.4,1.1 0,0.7 0.5,1 1.6,1.3 1.3,0.4 2.6,0.8 2.6,2.3 0,1.3 -1.1,2.2 -2.6,2.2 -1.5,0.1 -2.6,-0.7 -3,-1.8 z"
   id="path537" />
		<path
   class="st1"
   d="m 80,934.9 v 7.6 h -1 v -7.6 z"
   id="path539" />
		<path
   class="st1"
   d="m 91.3,939.2 c 0,1.9 -1.4,3.5 -3.7,3.5 -2.4,0 -4,-1.8 -4,-4 0,-2.2 1.7,-4 4,-4 1.4,0 2.7,0.8 3.3,1.8 L 90,937 c -0.4,-0.8 -1.4,-1.4 -2.4,-1.4 -1.8,0 -3,1.3 -3,3 0,1.7 1.2,3 3,3 1.6,0 2.5,-0.9 2.7,-2 h -2.8 v -0.9 h 3.8 z"
   id="path541" />
		<path
   class="st1"
   d="m 100.6,934.9 v 7.6 h -0.8 l -3.9,-5.7 v 5.7 h -1 v -7.6 h 0.8 l 3.9,5.7 v -5.7 z"
   id="path543" />
		<path
   class="st1"
   d="m 109.1,941.6 v 1 h -4.6 V 935 h 4.5 v 1 h -3.5 v 2.3 h 3.2 v 0.9 h -3.2 v 2.4 z"
   id="path545" />
		<path
   class="st1"
   d="m 119.2,938.7 c 0,2.1 -1.5,3.8 -3.6,3.8 h -3 v -7.6 h 3 c 2,0 3.6,1.7 3.6,3.8 z m -1,0 c 0,-1.6 -1.1,-2.9 -2.6,-2.9 h -2 v 5.7 h 2 c 1.5,0.1 2.6,-1.2 2.6,-2.8 z"
   id="path547" />
		<path
   class="st1"
   d="m 133.2,940.4 c 0,1.2 -1,2.2 -2.2,2.2 h -3.3 V 935 h 3 c 1.2,0 2.1,0.9 2.1,2.1 0,0.7 -0.3,1.2 -0.8,1.6 0.7,0.2 1.2,0.8 1.2,1.7 z m -4.5,-4.6 v 2.3 h 2 c 0.6,0 1.1,-0.5 1.1,-1.2 0,-0.6 -0.5,-1.2 -1.1,-1.2 h -2 z m 3.5,4.5 c 0,-0.7 -0.5,-1.2 -1.2,-1.2 h -2.3 v 2.5 h 2.3 c 0.7,0 1.2,-0.6 1.2,-1.3 z"
   id="path549" />
		<path
   class="st1"
   d="m 139.4,939.4 v 3.1 h -1 v -3.1 l -2.7,-4.5 h 1.1 l 2.1,3.6 2.1,-3.6 h 1.1 z"
   id="path551" />
	</g>
	<g
   id="g583">
		<path
   class="st1"
   d="m 216.2,958.1 c 0,3.5 -2.5,6.2 -5.9,6.2 h -4.9 v -12.4 h 4.9 c 3.4,0 5.9,2.7 5.9,6.2 z m -1.9,0 c 0,-2.5 -1.6,-4.2 -4,-4.2 h -2.8 v 8.5 h 2.8 c 2.4,-0.1 4,-1.9 4,-4.3 z"
   id="path555" />
		<path
   class="st1"
   d="m 217.5,959.9 c 0,-2.6 2.1,-4.7 4.7,-4.7 2.6,0 4.7,2 4.7,4.7 0,2.6 -2.1,4.7 -4.7,4.7 -2.6,-0.1 -4.7,-2.1 -4.7,-4.7 z m 7.4,0 c 0,-1.6 -1.2,-2.8 -2.8,-2.8 -1.6,0 -2.8,1.2 -2.8,2.8 0,1.6 1.2,2.8 2.8,2.8 1.6,0 2.8,-1.2 2.8,-2.8 z"
   id="path557" />
		<path
   class="st1"
   d="m 231.1,957.3 v 4.2 c 0,1.1 0.7,1.1 2.2,1 v 1.7 c -2.9,0.4 -4.1,-0.5 -4.1,-2.8 v -4.2 h -1.6 v -1.8 h 1.6 v -1.9 l 1.9,-0.6 v 2.5 h 2.2 v 1.8 z"
   id="path559" />
		<path
   class="st1"
   d="m 237.4,957.3 v 4.2 c 0,1.1 0.7,1.1 2.2,1 v 1.7 c -2.9,0.4 -4.1,-0.5 -4.1,-2.8 v -4.2 h -1.6 v -1.8 h 1.6 v -1.9 l 1.9,-0.6 v 2.5 h 2.2 v 1.8 z"
   id="path561" />
		<path
   class="st1"
   d="m 245.3,962.8 c 1.1,0 1.9,-0.5 2.3,-1.1 l 1.6,0.9 c -0.8,1.2 -2.1,1.9 -3.9,1.9 -2.9,0 -4.8,-2 -4.8,-4.7 0,-2.6 1.9,-4.7 4.7,-4.7 2.6,0 4.4,2.1 4.4,4.7 0,0.3 0,0.5 -0.1,0.8 h -7 c 0.3,1.5 1.4,2.2 2.8,2.2 z m 2.4,-3.7 c -0.3,-1.5 -1.4,-2.2 -2.5,-2.2 -1.4,0 -2.4,0.8 -2.7,2.2 z"
   id="path563" />
		<path
   class="st1"
   d="m 260.2,951.9 v 12.4 h -1.9 V 963 c -0.7,0.9 -1.7,1.5 -3.1,1.5 -2.4,0 -4.4,-2 -4.4,-4.7 0,-2.6 2,-4.7 4.4,-4.7 1.4,0 2.4,0.6 3.1,1.5 v -4.8 h 1.9 z m -1.9,8 c 0,-1.6 -1.2,-2.8 -2.8,-2.8 -1.6,0 -2.8,1.2 -2.8,2.8 0,1.6 1.2,2.8 2.8,2.8 1.5,0 2.8,-1.2 2.8,-2.8 z"
   id="path565" />
		<path
   class="st1"
   d="m 279,958.7 c 0,3.4 -2.4,5.8 -6.1,5.8 -3.9,0 -6.6,-2.9 -6.6,-6.4 0,-3.5 2.8,-6.4 6.5,-6.4 2.4,0 4.4,1.2 5.4,2.9 l -1.8,1 c -0.6,-1.2 -2,-2 -3.6,-2 -2.6,0 -4.5,1.9 -4.5,4.5 0,2.5 1.8,4.4 4.6,4.4 2.2,0 3.6,-1.2 4,-2.8 h -4.1 v -1.8 h 6.2 z"
   id="path567" />
		<path
   class="st1"
   d="m 285.4,955.3 v 2.1 c -1.3,-0.1 -2.7,0.5 -2.7,2.5 v 4.5 h -1.9 v -8.9 h 1.9 v 1.5 c 0.5,-1.3 1.6,-1.7 2.7,-1.7 z"
   id="path569" />
		<path
   class="st1"
   d="m 286.5,952.9 c 0,-0.7 0.5,-1.2 1.2,-1.2 0.7,0 1.2,0.5 1.2,1.2 0,0.7 -0.5,1.2 -1.2,1.2 -0.6,0 -1.2,-0.5 -1.2,-1.2 z m 0.3,2.5 h 1.9 v 8.9 h -1.9 z"
   id="path571" />
		<path
   class="st1"
   d="m 299.8,951.9 v 12.4 h -1.9 V 963 c -0.7,0.9 -1.7,1.5 -3.1,1.5 -2.4,0 -4.4,-2 -4.4,-4.7 0,-2.6 2,-4.7 4.4,-4.7 1.4,0 2.4,0.6 3.1,1.5 v -4.8 h 1.9 z m -1.9,8 c 0,-1.6 -1.2,-2.8 -2.8,-2.8 -1.6,0 -2.8,1.2 -2.8,2.8 0,1.6 1.2,2.8 2.8,2.8 1.6,0 2.8,-1.2 2.8,-2.8 z"
   id="path573" />
		<path
   class="st1"
   d="m 315.7,960.8 c 0,2.1 -1.7,3.5 -3.7,3.5 h -5.3 v -12.4 h 4.9 c 2,0 3.6,1.5 3.6,3.4 0,1.1 -0.5,2 -1.3,2.5 1.1,0.6 1.8,1.6 1.8,3 z m -7,-7 v 3.3 h 2.9 c 0.9,0 1.6,-0.7 1.6,-1.6 0,-0.9 -0.7,-1.6 -1.6,-1.6 h -2.9 z m 4.9,6.8 c 0,-1 -0.7,-1.7 -1.7,-1.7 h -3.3 v 3.5 h 3.3 c 1,0 1.7,-0.8 1.7,-1.8 z"
   id="path575" />
		<path
   class="st1"
   d="m 316.9,959.9 c 0,-2.6 2.1,-4.7 4.7,-4.7 2.6,0 4.7,2 4.7,4.7 0,2.6 -2.1,4.7 -4.7,4.7 -2.6,-0.1 -4.7,-2.1 -4.7,-4.7 z m 7.4,0 c 0,-1.6 -1.2,-2.8 -2.8,-2.8 -1.6,0 -2.8,1.2 -2.8,2.8 0,1.6 1.2,2.8 2.8,2.8 1.6,0 2.8,-1.2 2.8,-2.8 z"
   id="path577" />
		<path
   class="st1"
   d="m 327.5,959.9 c 0,-2.6 2.1,-4.7 4.7,-4.7 2.6,0 4.7,2 4.7,4.7 0,2.6 -2.1,4.7 -4.7,4.7 -2.6,-0.1 -4.7,-2.1 -4.7,-4.7 z m 7.4,0 c 0,-1.6 -1.2,-2.8 -2.8,-2.8 -1.6,0 -2.8,1.2 -2.8,2.8 0,1.6 1.2,2.8 2.8,2.8 1.6,0 2.8,-1.2 2.8,-2.8 z"
   id="path579" />
		<path
   class="st1"
   d="m 344.1,964.3 -3.6,-4.1 v 4.1 h -1.9 v -12.4 h 1.9 v 7.5 l 3.4,-3.9 h 2.3 l -3.9,4.3 4,4.5 z"
   id="path581" />
	</g>
	<g
   id="g587">
		<path
   class="st1"
   d="m 841.3,942.5 h -1 v -7.6 h 1.1 l 2.4,4 2.4,-4 h 1.1 v 7.6 h -1 v -6 l -2.5,4.2 h -0.1 l -2.5,-4.1 z m 17.5,-3.8 c 0,2.2 -1.7,4 -4,4 -2.2,0 -3.9,-1.8 -3.9,-4 0,-2.2 1.7,-4 3.9,-4 2.3,0 4,1.8 4,4 z m -1,0 c 0,-1.7 -1.3,-3 -2.9,-3 -1.7,0 -2.9,1.3 -2.9,3 0,1.7 1.3,3 2.9,3 1.7,0 2.9,-1.3 2.9,-3 z m 8.4,0.8 1.8,3.1 h -1.1 l -1.7,-2.9 h -1.8 v 2.9 h -1 V 935 h 3 c 1.3,0 2.4,1.1 2.4,2.4 0,0.8 -0.7,1.7 -1.6,2.1 z m -0.8,-0.8 c 0.8,0 1.4,-0.6 1.4,-1.4 0,-0.8 -0.6,-1.4 -1.4,-1.4 h -2 v 2.8 z m 10.5,2.9 h -3.5 v -2.4 h 3.2 v -0.9 h -3.2 V 936 h 3.5 v -1 h -4.5 v 7.6 h 4.6 z m -31.7,20.6 -2.5,-6.7 h -2.1 l 3.5,8.9 h 2.2 l 3.5,-8.9 h -2.1 z m 5.8,2.1 h 1.9 v -8.9 H 850 Z m 1,-12.6 c -0.7,0 -1.2,0.5 -1.2,1.2 0,0.7 0.5,1.2 1.2,1.2 0.7,0 1.2,-0.6 1.2,-1.2 0,-0.7 -0.6,-1.2 -1.2,-1.2 z m 4.2,0 c -0.7,0 -1.2,0.5 -1.2,1.2 0,0.7 0.5,1.2 1.2,1.2 0.7,0 1.2,-0.6 1.2,-1.2 0.1,-0.7 -0.5,-1.2 -1.2,-1.2 z m -0.9,13 c 0,1.2 -0.5,1.7 -1.7,1.6 v 1.8 c 2.4,0.2 3.6,-1 3.6,-3.4 v -9.2 h -1.9 z m 11.1,-9.3 h 1.9 v 8.9 h -1.9 V 963 c -0.7,0.9 -1.7,1.5 -3.1,1.5 -2.4,0 -4.4,-2 -4.4,-4.7 0,-2.6 2,-4.7 4.4,-4.7 1.4,0 2.4,0.6 3.1,1.5 z m 0,4.5 c 0,-1.6 -1.2,-2.8 -2.8,-2.8 -1.6,0 -2.8,1.2 -2.8,2.8 0,1.6 1.2,2.8 2.8,2.8 1.6,0 2.8,-1.2 2.8,-2.8 z m 7.9,2 -2.6,-6.4 h -2.1 l 3.8,8.7 -0.1,0.2 c -0.4,1.2 -1.1,1.8 -2.4,1.7 v 1.8 c 2,0.1 3.5,-1 4.3,-3.3 l 3.4,-9.1 h -2 z m 9,0.3 -2.5,-6.7 h -2.1 l 3.5,8.9 h 2.2 l 3.5,-8.9 h -2.1 z m 14.1,-2.3 c 0,0.3 0,0.5 -0.1,0.8 h -7 c 0.3,1.4 1.4,2.1 2.8,2.1 1.1,0 1.9,-0.5 2.3,-1.1 l 1.6,0.9 c -0.8,1.2 -2.1,1.9 -3.9,1.9 -2.9,0 -4.8,-2 -4.8,-4.7 0,-2.6 1.9,-4.7 4.7,-4.7 2.5,0.1 4.4,2.2 4.4,4.8 z m -2,-0.8 c -0.3,-1.5 -1.4,-2.2 -2.5,-2.2 -1.4,0 -2.4,0.8 -2.7,2.2 z m 5.5,-2.2 v -1.5 H 898 v 8.9 h 1.9 v -4.5 c 0,-2 1.5,-2.6 2.7,-2.5 v -2.1 c -1,0.1 -2.1,0.5 -2.7,1.7 z m 13.9,-1.7 c -1.2,0 -2.1,0.5 -2.7,1.4 -0.5,-0.9 -1.4,-1.4 -2.5,-1.4 -1.1,0 -2,0.4 -2.5,1.3 v -1.1 h -1.9 v 8.9 h 1.9 v -5 c 0,-1.6 0.9,-2.3 2,-2.3 1,0 1.7,0.7 1.7,1.9 v 5.4 h 1.9 v -5 c 0,-1.6 0.8,-2.3 1.9,-2.3 1,0 1.7,0.7 1.7,1.9 v 5.4 h 1.9 v -5.5 c -0.1,-2.2 -1.4,-3.6 -3.4,-3.6 z m 12.4,0.2 h 1.9 v 8.9 h -1.9 V 963 c -0.7,0.9 -1.7,1.5 -3.1,1.5 -2.4,0 -4.4,-2 -4.4,-4.7 0,-2.6 2,-4.7 4.4,-4.7 1.4,0 2.4,0.6 3.1,1.5 z m 0,4.5 c 0,-1.6 -1.2,-2.8 -2.8,-2.8 -1.6,0 -2.8,1.2 -2.8,2.8 0,1.6 1.2,2.8 2.8,2.8 1.6,0 2.8,-1.2 2.8,-2.8 z m 5.3,2 c -0.7,0 -1.3,0.6 -1.3,1.3 0,0.7 0.6,1.3 1.3,1.3 0.7,0 1.3,-0.6 1.3,-1.3 0,-0.8 -0.6,-1.3 -1.3,-1.3 z m 6.8,0.7 c -1.6,0 -2.7,-1.2 -2.7,-2.8 0,-1.6 1.2,-2.8 2.7,-2.8 1.1,0 1.9,0.5 2.3,1.4 l 1.6,-1 c -0.7,-1.4 -2.2,-2.3 -3.9,-2.3 -2.7,0 -4.7,2 -4.7,4.7 0,2.6 2,4.7 4.7,4.7 1.7,0 3.2,-0.9 4,-2.3 l -1.6,-0.9 c -0.5,0.8 -1.4,1.3 -2.4,1.3 z m 14.1,-2.7 c 0,2.6 -2.1,4.7 -4.7,4.7 -2.6,0 -4.7,-2 -4.7,-4.7 0,-2.6 2.1,-4.7 4.7,-4.7 2.6,0 4.7,2 4.7,4.7 z m -1.9,0 c 0,-1.6 -1.2,-2.8 -2.8,-2.8 -1.6,0 -2.8,1.2 -2.8,2.8 0,1.6 1.2,2.8 2.8,2.8 1.6,0 2.8,-1.2 2.8,-2.8 z"
   id="path585" />
	</g>
</g><g
         id="g967">
	<rect
   id="XMLID_49_-1"
   x="297"
   y="367"
   class="st2"
   width="32"
   height="151" />
	<path
   id="XMLID_48_-7"
   class="st2"
   d="m 329.4,620 c -10.8,0 -21.7,0 -32.5,0 -2.1,-22 -2.1,-45 0,-68 10.8,0 21.7,0 32.5,0 2.1,23 2.1,46 0,68 z" />
	<path
   id="XMLID_47_-2"
   class="st2"
   d="m 329.4,552 c -10.8,0 -21.7,0 -32.5,0 6.7,-10 6.7,-23 0,-34 10.8,0 21.7,0 32.5,0 -6.7,11 -6.7,24 0,34 z" />
	<path
   id="XMLID_46_-7"
   class="st2"
   d="m 317.3,667 c 5.4,-16 11.9,-31 12.1,-47 h -32.5 c 0.2,16 6.7,31 12.1,47 z" />
	<rect
   id="XMLID_45_-2"
   x="309"
   y="667"
   class="st2"
   width="8"
   height="6" />
	<line
   id="XMLID_44_-2"
   class="st3"
   x1="313"
   y1="674"
   x2="313"
   y2="687" />
	<rect
   id="XMLID_43_-6"
   x="301"
   y="345"
   class="st2"
   width="24"
   height="22" />
	<path
   id="XMLID_42_-1"
   class="st2"
   d="m 322,345 h -18 v -25.7 c 0,-3.5 3.2,-6.3 6.7,-6.3 h 5 c 3.5,0 6.3,2.8 6.3,6.3 z" />
	<rect
   id="XMLID_41_-0"
   x="309"
   y="381"
   class="st2"
   width="31"
   height="18" />
	<polygon
   id="XMLID_40_-6"
   class="st2"
   points="340,399 340,460.3 329,445.8 329,399 " />
	<path
   id="XMLID_24_"
   class="st4"
   d="m 322.4,547 c -10.8,0 -21.7,0 -32.5,0 6.7,-10 6.7,-23 0,-34 10.8,0 21.7,0 32.5,0 -6.7,11 -6.7,24 0,34 z" />
	<path
   id="XMLID_38_-1"
   class="st2"
   d="M 674,694 H 398 V 298 h 276 c 9.9,0 18,7.8 18,17.7 v 360 c 0,10 -8.1,18.3 -18,18.3 z" />
	<path
   id="XMLID_36_-5"
   class="st2"
   d="m 635,702 h -14 c -2.8,0 -5,-2.2 -5,-5 V 295 c 0,-2.8 2.2,-5 5,-5 h 14 c 2.8,0 5,2.2 5,5 v 402 c 0,2.8 -2.2,5 -5,5 z" />
	<polygon
   id="XMLID_34_-9"
   class="st2"
   points="459,694 459,739.7 429,723 429,694 " />
	<path
   id="XMLID_19_"
   class="st5"
   d="M 664,679 H 388 V 283 h 276 c 9.9,0 18,7.8 18,17.7 v 360 c 0,10 -8.1,18.3 -18,18.3 z" />
	<rect
   id="XMLID_54_"
   x="617"
   y="283"
   class="st6"
   width="24"
   height="396" />
	<rect
   id="XMLID_50_-4"
   x="388"
   y="283"
   class="st7"
   width="17"
   height="396" />
	<g
   id="g903">
		<defs
   id="defs609">
			<path
   id="path1046"
   d="M 664,679 H 388 V 283 h 276 c 9.9,0 18,7.8 18,17.7 v 360 c 0,10 -8.1,18.3 -18,18.3 z" />
		</defs>
		<clipPath
   id="XMLID_58_">
			<use
   xlink:href="#XMLID_7_"
   style="overflow:visible"
   id="use611" />
		</clipPath>
		<g
   id="XMLID_57_"
   class="st8"
   clip-path="url(#XMLID_58_)">
			<g
   id="g618">
				<g
   id="g616">
					<path
   class="st4"
   d="m 359.4,983.6 c -0.4,0 -0.8,-0.1 -1.1,-0.4 -0.6,-0.6 -0.6,-1.5 0,-2.1 L 702.7,636.8 c 0.6,-0.6 1.5,-0.6 2.1,0 0.6,0.6 0.6,1.5 0,2.1 L 360.5,983.2 c -0.3,0.3 -0.7,0.4 -1.1,0.4 z"
   id="path614" />
				</g>
			</g>
			<g
   id="g624">
				<g
   id="g622">
					<path
   class="st4"
   d="m 359.4,969.6 c -0.4,0 -0.8,-0.1 -1.1,-0.4 -0.6,-0.6 -0.6,-1.5 0,-2.1 L 702.7,622.8 c 0.6,-0.6 1.5,-0.6 2.1,0 0.6,0.6 0.6,1.5 0,2.1 L 360.5,969.2 c -0.3,0.3 -0.7,0.4 -1.1,0.4 z"
   id="path620" />
				</g>
			</g>
			<g
   id="g630">
				<g
   id="g628">
					<path
   class="st4"
   d="m 359.4,955.6 c -0.4,0 -0.8,-0.1 -1.1,-0.4 -0.6,-0.6 -0.6,-1.5 0,-2.1 L 702.7,608.8 c 0.6,-0.6 1.5,-0.6 2.1,0 0.6,0.6 0.6,1.5 0,2.1 L 360.5,955.2 c -0.3,0.3 -0.7,0.4 -1.1,0.4 z"
   id="path626" />
				</g>
			</g>
			<g
   id="g636">
				<g
   id="g634">
					<path
   class="st4"
   d="m 359.4,941.6 c -0.4,0 -0.8,-0.1 -1.1,-0.4 -0.6,-0.6 -0.6,-1.5 0,-2.1 L 702.7,594.8 c 0.6,-0.6 1.5,-0.6 2.1,0 0.6,0.6 0.6,1.5 0,2.1 L 360.5,941.2 c -0.3,0.3 -0.7,0.4 -1.1,0.4 z"
   id="path632" />
				</g>
			</g>
			<g
   id="g642">
				<g
   id="g640">
					<path
   class="st4"
   d="m 359.4,927.6 c -0.4,0 -0.8,-0.1 -1.1,-0.4 -0.6,-0.6 -0.6,-1.5 0,-2.1 L 702.7,580.8 c 0.6,-0.6 1.5,-0.6 2.1,0 0.6,0.6 0.6,1.5 0,2.1 L 360.5,927.2 c -0.3,0.3 -0.7,0.4 -1.1,0.4 z"
   id="path638" />
				</g>
			</g>
			<g
   id="g648">
				<g
   id="g646">
					<path
   class="st4"
   d="m 359.4,913.6 c -0.4,0 -0.8,-0.1 -1.1,-0.4 -0.6,-0.6 -0.6,-1.5 0,-2.1 L 702.7,566.8 c 0.6,-0.6 1.5,-0.6 2.1,0 0.6,0.6 0.6,1.5 0,2.1 L 360.5,913.2 c -0.3,0.3 -0.7,0.4 -1.1,0.4 z"
   id="path644" />
				</g>
			</g>
			<g
   id="g654">
				<g
   id="g652">
					<path
   class="st4"
   d="m 359.4,899.6 c -0.4,0 -0.8,-0.1 -1.1,-0.4 -0.6,-0.6 -0.6,-1.5 0,-2.1 L 702.7,552.8 c 0.6,-0.6 1.5,-0.6 2.1,0 0.6,0.6 0.6,1.5 0,2.1 L 360.5,899.2 c -0.3,0.3 -0.7,0.4 -1.1,0.4 z"
   id="path650" />
				</g>
			</g>
			<g
   id="g660">
				<g
   id="g658">
					<path
   class="st4"
   d="m 359.4,885.6 c -0.4,0 -0.8,-0.1 -1.1,-0.4 -0.6,-0.6 -0.6,-1.5 0,-2.1 L 702.7,538.8 c 0.6,-0.6 1.5,-0.6 2.1,0 0.6,0.6 0.6,1.5 0,2.1 L 360.5,885.2 c -0.3,0.3 -0.7,0.4 -1.1,0.4 z"
   id="path656" />
				</g>
			</g>
			<g
   id="g666">
				<g
   id="g664">
					<path
   class="st4"
   d="m 359.4,871.6 c -0.4,0 -0.8,-0.1 -1.1,-0.4 -0.6,-0.6 -0.6,-1.5 0,-2.1 L 702.7,524.8 c 0.6,-0.6 1.5,-0.6 2.1,0 0.6,0.6 0.6,1.5 0,2.1 L 360.5,871.2 c -0.3,0.3 -0.7,0.4 -1.1,0.4 z"
   id="path662" />
				</g>
			</g>
			<g
   id="g672">
				<g
   id="g670">
					<path
   class="st4"
   d="m 359.4,857.6 c -0.4,0 -0.8,-0.1 -1.1,-0.4 -0.6,-0.6 -0.6,-1.5 0,-2.1 L 702.7,510.8 c 0.6,-0.6 1.5,-0.6 2.1,0 0.6,0.6 0.6,1.5 0,2.1 L 360.5,857.2 c -0.3,0.3 -0.7,0.4 -1.1,0.4 z"
   id="path668" />
				</g>
			</g>
			<g
   id="g678">
				<g
   id="g676">
					<path
   class="st4"
   d="m 359.4,843.6 c -0.4,0 -0.8,-0.1 -1.1,-0.4 -0.6,-0.6 -0.6,-1.5 0,-2.1 L 702.7,496.8 c 0.6,-0.6 1.5,-0.6 2.1,0 0.6,0.6 0.6,1.5 0,2.1 L 360.5,843.2 c -0.3,0.3 -0.7,0.4 -1.1,0.4 z"
   id="path674" />
				</g>
			</g>
			<g
   id="g684">
				<g
   id="g682">
					<path
   class="st4"
   d="m 359.4,829.6 c -0.4,0 -0.8,-0.1 -1.1,-0.4 -0.6,-0.6 -0.6,-1.5 0,-2.1 L 702.7,482.8 c 0.6,-0.6 1.5,-0.6 2.1,0 0.6,0.6 0.6,1.5 0,2.1 L 360.5,829.2 c -0.3,0.3 -0.7,0.4 -1.1,0.4 z"
   id="path680" />
				</g>
			</g>
			<g
   id="g690">
				<g
   id="g688">
					<path
   class="st4"
   d="m 359.4,815.6 c -0.4,0 -0.8,-0.1 -1.1,-0.4 -0.6,-0.6 -0.6,-1.5 0,-2.1 L 702.7,468.8 c 0.6,-0.6 1.5,-0.6 2.1,0 0.6,0.6 0.6,1.5 0,2.1 L 360.5,815.2 c -0.3,0.3 -0.7,0.4 -1.1,0.4 z"
   id="path686" />
				</g>
			</g>
			<g
   id="g696">
				<g
   id="g694">
					<path
   class="st4"
   d="m 359.4,801.6 c -0.4,0 -0.8,-0.1 -1.1,-0.4 -0.6,-0.6 -0.6,-1.5 0,-2.1 L 702.7,454.8 c 0.6,-0.6 1.5,-0.6 2.1,0 0.6,0.6 0.6,1.5 0,2.1 L 360.5,801.2 c -0.3,0.3 -0.7,0.4 -1.1,0.4 z"
   id="path692" />
				</g>
			</g>
			<g
   id="g702">
				<g
   id="g700">
					<path
   class="st4"
   d="m 359.4,787.6 c -0.4,0 -0.8,-0.1 -1.1,-0.4 -0.6,-0.6 -0.6,-1.5 0,-2.1 L 702.7,440.8 c 0.6,-0.6 1.5,-0.6 2.1,0 0.6,0.6 0.6,1.5 0,2.1 L 360.5,787.2 c -0.3,0.3 -0.7,0.4 -1.1,0.4 z"
   id="path698" />
				</g>
			</g>
			<g
   id="g708">
				<g
   id="g706">
					<path
   class="st4"
   d="m 359.4,773.6 c -0.4,0 -0.8,-0.1 -1.1,-0.4 -0.6,-0.6 -0.6,-1.5 0,-2.1 L 702.7,426.8 c 0.6,-0.6 1.5,-0.6 2.1,0 0.6,0.6 0.6,1.5 0,2.1 L 360.5,773.2 c -0.3,0.3 -0.7,0.4 -1.1,0.4 z"
   id="path704" />
				</g>
			</g>
			<g
   id="g714">
				<g
   id="g712">
					<path
   class="st4"
   d="m 359.4,759.6 c -0.4,0 -0.8,-0.1 -1.1,-0.4 -0.6,-0.6 -0.6,-1.5 0,-2.1 L 702.7,412.8 c 0.6,-0.6 1.5,-0.6 2.1,0 0.6,0.6 0.6,1.5 0,2.1 L 360.5,759.2 c -0.3,0.3 -0.7,0.4 -1.1,0.4 z"
   id="path710" />
				</g>
			</g>
			<g
   id="g720">
				<g
   id="g718">
					<path
   class="st4"
   d="m 359.4,745.6 c -0.4,0 -0.8,-0.1 -1.1,-0.4 -0.6,-0.6 -0.6,-1.5 0,-2.1 L 702.7,398.8 c 0.6,-0.6 1.5,-0.6 2.1,0 0.6,0.6 0.6,1.5 0,2.1 L 360.5,745.2 c -0.3,0.3 -0.7,0.4 -1.1,0.4 z"
   id="path716" />
				</g>
			</g>
			<g
   id="g726">
				<g
   id="g724">
					<path
   class="st4"
   d="m 359.4,731.6 c -0.4,0 -0.8,-0.1 -1.1,-0.4 -0.6,-0.6 -0.6,-1.5 0,-2.1 L 702.7,384.8 c 0.6,-0.6 1.5,-0.6 2.1,0 0.6,0.6 0.6,1.5 0,2.1 L 360.5,731.2 c -0.3,0.3 -0.7,0.4 -1.1,0.4 z"
   id="path722" />
				</g>
			</g>
			<g
   id="g732">
				<g
   id="g730">
					<path
   class="st4"
   d="m 359.4,717.6 c -0.4,0 -0.8,-0.1 -1.1,-0.4 -0.6,-0.6 -0.6,-1.5 0,-2.1 L 702.7,370.8 c 0.6,-0.6 1.5,-0.6 2.1,0 0.6,0.6 0.6,1.5 0,2.1 L 360.5,717.2 c -0.3,0.3 -0.7,0.4 -1.1,0.4 z"
   id="path728" />
				</g>
			</g>
			<g
   id="g738">
				<g
   id="g736">
					<path
   class="st4"
   d="m 359.4,703.6 c -0.4,0 -0.8,-0.1 -1.1,-0.4 -0.6,-0.6 -0.6,-1.5 0,-2.1 L 702.7,356.8 c 0.6,-0.6 1.5,-0.6 2.1,0 0.6,0.6 0.6,1.5 0,2.1 L 360.5,703.2 c -0.3,0.3 -0.7,0.4 -1.1,0.4 z"
   id="path734" />
				</g>
			</g>
			<g
   id="g744">
				<g
   id="g742">
					<path
   class="st4"
   d="m 359.4,689.6 c -0.4,0 -0.8,-0.1 -1.1,-0.4 -0.6,-0.6 -0.6,-1.5 0,-2.1 L 702.7,342.8 c 0.6,-0.6 1.5,-0.6 2.1,0 0.6,0.6 0.6,1.5 0,2.1 L 360.5,689.2 c -0.3,0.3 -0.7,0.4 -1.1,0.4 z"
   id="path740" />
				</g>
			</g>
			<g
   id="g750">
				<g
   id="g748">
					<path
   class="st4"
   d="m 359.4,675.6 c -0.4,0 -0.8,-0.1 -1.1,-0.4 -0.6,-0.6 -0.6,-1.5 0,-2.1 L 702.7,328.8 c 0.6,-0.6 1.5,-0.6 2.1,0 0.6,0.6 0.6,1.5 0,2.1 L 360.5,675.2 c -0.3,0.3 -0.7,0.4 -1.1,0.4 z"
   id="path746" />
				</g>
			</g>
			<g
   id="g756">
				<g
   id="g754">
					<path
   class="st4"
   d="m 359.4,661.6 c -0.4,0 -0.8,-0.1 -1.1,-0.4 -0.6,-0.6 -0.6,-1.5 0,-2.1 L 702.7,314.8 c 0.6,-0.6 1.5,-0.6 2.1,0 0.6,0.6 0.6,1.5 0,2.1 L 360.5,661.2 c -0.3,0.3 -0.7,0.4 -1.1,0.4 z"
   id="path752" />
				</g>
			</g>
			<g
   id="g762">
				<g
   id="g760">
					<path
   class="st4"
   d="m 359.4,647.6 c -0.4,0 -0.8,-0.1 -1.1,-0.4 -0.6,-0.6 -0.6,-1.5 0,-2.1 L 702.7,300.8 c 0.6,-0.6 1.5,-0.6 2.1,0 0.6,0.6 0.6,1.5 0,2.1 L 360.5,647.2 c -0.3,0.3 -0.7,0.4 -1.1,0.4 z"
   id="path758" />
				</g>
			</g>
			<g
   id="g768">
				<g
   id="g766">
					<path
   class="st4"
   d="m 359.4,633.6 c -0.4,0 -0.8,-0.1 -1.1,-0.4 -0.6,-0.6 -0.6,-1.5 0,-2.1 L 702.7,286.8 c 0.6,-0.6 1.5,-0.6 2.1,0 0.6,0.6 0.6,1.5 0,2.1 L 360.5,633.2 c -0.3,0.3 -0.7,0.4 -1.1,0.4 z"
   id="path764" />
				</g>
			</g>
			<g
   id="g774">
				<g
   id="g772">
					<path
   class="st4"
   d="m 359.4,619.6 c -0.4,0 -0.8,-0.1 -1.1,-0.4 -0.6,-0.6 -0.6,-1.5 0,-2.1 L 702.7,272.8 c 0.6,-0.6 1.5,-0.6 2.1,0 0.6,0.6 0.6,1.5 0,2.1 L 360.5,619.2 c -0.3,0.3 -0.7,0.4 -1.1,0.4 z"
   id="path770" />
				</g>
			</g>
			<g
   id="g780">
				<g
   id="g778">
					<path
   class="st4"
   d="m 359.4,605.6 c -0.4,0 -0.8,-0.1 -1.1,-0.4 -0.6,-0.6 -0.6,-1.5 0,-2.1 L 702.7,258.8 c 0.6,-0.6 1.5,-0.6 2.1,0 0.6,0.6 0.6,1.5 0,2.1 L 360.5,605.2 c -0.3,0.3 -0.7,0.4 -1.1,0.4 z"
   id="path776" />
				</g>
			</g>
			<g
   id="g786">
				<g
   id="g784">
					<path
   class="st4"
   d="m 359.4,591.6 c -0.4,0 -0.8,-0.1 -1.1,-0.4 -0.6,-0.6 -0.6,-1.5 0,-2.1 L 702.7,244.8 c 0.6,-0.6 1.5,-0.6 2.1,0 0.6,0.6 0.6,1.5 0,2.1 L 360.5,591.2 c -0.3,0.3 -0.7,0.4 -1.1,0.4 z"
   id="path782" />
				</g>
			</g>
			<g
   id="g792">
				<g
   id="g790">
					<path
   class="st4"
   d="m 359.4,577.6 c -0.4,0 -0.8,-0.1 -1.1,-0.4 -0.6,-0.6 -0.6,-1.5 0,-2.1 L 702.7,230.8 c 0.6,-0.6 1.5,-0.6 2.1,0 0.6,0.6 0.6,1.5 0,2.1 L 360.5,577.2 c -0.3,0.3 -0.7,0.4 -1.1,0.4 z"
   id="path788" />
				</g>
			</g>
			<g
   id="g798">
				<g
   id="g796">
					<path
   class="st4"
   d="m 359.4,563.6 c -0.4,0 -0.8,-0.1 -1.1,-0.4 -0.6,-0.6 -0.6,-1.5 0,-2.1 L 702.7,216.8 c 0.6,-0.6 1.5,-0.6 2.1,0 0.6,0.6 0.6,1.5 0,2.1 L 360.5,563.2 c -0.3,0.3 -0.7,0.4 -1.1,0.4 z"
   id="path794" />
				</g>
			</g>
			<g
   id="g804">
				<g
   id="g802">
					<path
   class="st4"
   d="m 359.4,549.6 c -0.4,0 -0.8,-0.1 -1.1,-0.4 -0.6,-0.6 -0.6,-1.5 0,-2.1 L 702.7,202.8 c 0.6,-0.6 1.5,-0.6 2.1,0 0.6,0.6 0.6,1.5 0,2.1 L 360.5,549.2 c -0.3,0.3 -0.7,0.4 -1.1,0.4 z"
   id="path800" />
				</g>
			</g>
			<g
   id="g810">
				<g
   id="g808">
					<path
   class="st4"
   d="m 359.4,535.6 c -0.4,0 -0.8,-0.1 -1.1,-0.4 -0.6,-0.6 -0.6,-1.5 0,-2.1 L 702.7,188.8 c 0.6,-0.6 1.5,-0.6 2.1,0 0.6,0.6 0.6,1.5 0,2.1 L 360.5,535.2 c -0.3,0.3 -0.7,0.4 -1.1,0.4 z"
   id="path806" />
				</g>
			</g>
			<g
   id="g816">
				<g
   id="g814">
					<path
   class="st4"
   d="m 359.4,521.6 c -0.4,0 -0.8,-0.1 -1.1,-0.4 -0.6,-0.6 -0.6,-1.5 0,-2.1 L 702.7,174.8 c 0.6,-0.6 1.5,-0.6 2.1,0 0.6,0.6 0.6,1.5 0,2.1 L 360.5,521.2 c -0.3,0.3 -0.7,0.4 -1.1,0.4 z"
   id="path812" />
				</g>
			</g>
			<g
   id="g822">
				<g
   id="g820">
					<path
   class="st4"
   d="m 359.4,507.6 c -0.4,0 -0.8,-0.1 -1.1,-0.4 -0.6,-0.6 -0.6,-1.5 0,-2.1 L 702.7,160.8 c 0.6,-0.6 1.5,-0.6 2.1,0 0.6,0.6 0.6,1.5 0,2.1 L 360.5,507.2 c -0.3,0.3 -0.7,0.4 -1.1,0.4 z"
   id="path818" />
				</g>
			</g>
			<g
   id="g828">
				<g
   id="g826">
					<path
   class="st4"
   d="m 359.4,493.6 c -0.4,0 -0.8,-0.1 -1.1,-0.4 -0.6,-0.6 -0.6,-1.5 0,-2.1 L 702.7,146.8 c 0.6,-0.6 1.5,-0.6 2.1,0 0.6,0.6 0.6,1.5 0,2.1 L 360.5,493.2 c -0.3,0.3 -0.7,0.4 -1.1,0.4 z"
   id="path824" />
				</g>
			</g>
			<g
   id="g834">
				<g
   id="g832">
					<path
   class="st4"
   d="m 359.4,479.6 c -0.4,0 -0.8,-0.1 -1.1,-0.4 -0.6,-0.6 -0.6,-1.5 0,-2.1 L 702.7,132.8 c 0.6,-0.6 1.5,-0.6 2.1,0 0.6,0.6 0.6,1.5 0,2.1 L 360.5,479.2 c -0.3,0.3 -0.7,0.4 -1.1,0.4 z"
   id="path830" />
				</g>
			</g>
			<g
   id="g840">
				<g
   id="g838">
					<path
   class="st4"
   d="m 359.4,465.6 c -0.4,0 -0.8,-0.1 -1.1,-0.4 -0.6,-0.6 -0.6,-1.5 0,-2.1 L 702.7,118.7 c 0.6,-0.6 1.5,-0.6 2.1,0 0.6,0.6 0.6,1.5 0,2.1 L 360.5,465.2 c -0.3,0.3 -0.7,0.4 -1.1,0.4 z"
   id="path836" />
				</g>
			</g>
			<g
   id="g846">
				<g
   id="g844">
					<path
   class="st4"
   d="m 359.4,451.6 c -0.4,0 -0.8,-0.1 -1.1,-0.4 -0.6,-0.6 -0.6,-1.5 0,-2.1 L 702.7,104.7 c 0.6,-0.6 1.5,-0.6 2.1,0 0.6,0.6 0.6,1.5 0,2.1 L 360.5,451.2 c -0.3,0.3 -0.7,0.4 -1.1,0.4 z"
   id="path842" />
				</g>
			</g>
			<g
   id="g852">
				<g
   id="g850">
					<path
   class="st4"
   d="m 359.4,437.6 c -0.4,0 -0.8,-0.1 -1.1,-0.4 -0.6,-0.6 -0.6,-1.5 0,-2.1 L 702.7,90.6 c 0.6,-0.6 1.5,-0.6 2.1,0 0.6,0.6 0.6,1.5 0,2.1 L 360.5,437.2 c -0.3,0.3 -0.7,0.4 -1.1,0.4 z"
   id="path848" />
				</g>
			</g>
			<g
   id="g858">
				<g
   id="g856">
					<path
   class="st4"
   d="m 359.4,423.6 c -0.4,0 -0.8,-0.1 -1.1,-0.4 -0.6,-0.6 -0.6,-1.5 0,-2.1 L 702.7,76.6 c 0.6,-0.6 1.5,-0.6 2.1,0 0.6,0.6 0.6,1.5 0,2.1 L 360.5,423.2 c -0.3,0.3 -0.7,0.4 -1.1,0.4 z"
   id="path854" />
				</g>
			</g>
			<g
   id="g864">
				<g
   id="g862">
					<path
   class="st4"
   d="m 359.4,409.6 c -0.4,0 -0.8,-0.1 -1.1,-0.4 -0.6,-0.6 -0.6,-1.5 0,-2.1 L 702.7,62.6 c 0.6,-0.6 1.5,-0.6 2.1,0 0.6,0.6 0.6,1.5 0,2.1 L 360.5,409.2 c -0.3,0.3 -0.7,0.4 -1.1,0.4 z"
   id="path860" />
				</g>
			</g>
			<g
   id="g870">
				<g
   id="g868">
					<path
   class="st4"
   d="m 359.4,395.6 c -0.4,0 -0.8,-0.1 -1.1,-0.4 -0.6,-0.6 -0.6,-1.5 0,-2.1 L 702.7,48.6 c 0.6,-0.6 1.5,-0.6 2.1,0 0.6,0.6 0.6,1.5 0,2.1 L 360.5,395.2 c -0.3,0.3 -0.7,0.4 -1.1,0.4 z"
   id="path866" />
				</g>
			</g>
			<g
   id="g876">
				<g
   id="g874">
					<path
   class="st4"
   d="m 359.4,381.6 c -0.4,0 -0.8,-0.1 -1.1,-0.4 -0.6,-0.6 -0.6,-1.5 0,-2.1 L 702.7,34.6 c 0.6,-0.6 1.5,-0.6 2.1,0 0.6,0.6 0.6,1.5 0,2.1 L 360.5,381.2 c -0.3,0.3 -0.7,0.4 -1.1,0.4 z"
   id="path872" />
				</g>
			</g>
			<g
   id="g882">
				<g
   id="g880">
					<path
   class="st4"
   d="m 359.4,367.6 c -0.4,0 -0.8,-0.1 -1.1,-0.4 -0.6,-0.6 -0.6,-1.5 0,-2.1 L 702.7,20.6 c 0.6,-0.6 1.5,-0.6 2.1,0 0.6,0.6 0.6,1.5 0,2.1 L 360.5,367.2 c -0.3,0.3 -0.7,0.4 -1.1,0.4 z"
   id="path878" />
				</g>
			</g>
			<g
   id="g888">
				<g
   id="g886">
					<path
   class="st4"
   d="m 359.4,353.6 c -0.4,0 -0.8,-0.1 -1.1,-0.4 -0.6,-0.6 -0.6,-1.5 0,-2.1 L 702.7,6.6 c 0.6,-0.6 1.5,-0.6 2.1,0 0.6,0.6 0.6,1.5 0,2.1 L 360.5,353.2 c -0.3,0.3 -0.7,0.4 -1.1,0.4 z"
   id="path884" />
				</g>
			</g>
			<g
   id="g894">
				<g
   id="g892">
					<path
   class="st4"
   d="m 359.4,339.6 c -0.4,0 -0.8,-0.1 -1.1,-0.4 -0.6,-0.6 -0.6,-1.5 0,-2.1 l 312.8,-313 c 0.6,-0.6 1.5,-0.6 2.1,0 0.6,0.6 0.6,1.5 0,2.1 l -312.7,313 c -0.3,0.3 -0.7,0.4 -1.1,0.4 z"
   id="path890" />
				</g>
			</g>
			<g
   id="g900">
				<g
   id="g898">
					<path
   class="st4"
   d="m 359.4,325.6 c -0.4,0 -0.8,-0.1 -1.1,-0.4 -0.6,-0.6 -0.6,-1.5 0,-2.1 L 651.7,29.6 c 0.6,-0.6 1.5,-0.6 2.1,0 0.6,0.6 0.6,1.5 0,2.1 L 360.5,325.2 c -0.3,0.3 -0.7,0.4 -1.1,0.4 z"
   id="path896" />
				</g>
			</g>
		</g>
	</g>
	<path
   id="XMLID_1_-9"
   class="st9"
   d="M 664,679 H 388 V 283 h 276 c 9.9,0 18,7.8 18,17.7 v 360 c 0,10 -8.1,18.3 -18,18.3 z" />
	<rect
   id="XMLID_21_"
   x="388"
   y="283"
   class="st9"
   width="34"
   height="396" />
	<rect
   id="XMLID_31_-0"
   x="388"
   y="397"
   class="st10"
   width="294"
   height="112" />
	<g
   id="g930">
		<path
   class="st11"
   d="m 519.2,431.4 c 0,2.1 -0.4,3.8 -1.2,5.1 -0.8,1.3 -1.7,2.3 -2.7,3.1 -1.5,1.2 -3.5,1.7 -6.2,1.7 H 498 v -20.6 h 8.6 c 1.3,0 2.4,0.1 3.3,0.2 0.9,0.1 1.7,0.3 2.5,0.6 0.8,0.3 1.4,0.5 1.9,0.8 0.5,0.3 1,0.6 1.4,1 0.7,0.6 1.3,1.3 1.8,2 0.5,0.7 1,1.7 1.3,2.7 0.3,1.1 0.4,2.2 0.4,3.4 z m -6.3,-0.2 c 0,-1.7 -0.3,-3 -1,-3.9 -0.6,-0.9 -1.4,-1.6 -2.3,-1.9 -0.9,-0.3 -1.8,-0.5 -2.7,-0.5 h -2.6 v 12.2 h 2.6 c 1.6,0 3,-0.4 4.2,-1.2 1.2,-0.8 1.8,-2.3 1.8,-4.7 z"
   id="path908" />
		<path
   class="st11"
   d="m 545.1,431 c 0,1.9 -0.4,3.7 -1.3,5.3 -0.9,1.6 -2.2,2.9 -4,3.8 -1.8,0.9 -3.9,1.4 -6.4,1.4 -2.5,0 -4.7,-0.5 -6.5,-1.5 -1.8,-1 -3.1,-2.3 -3.9,-3.9 -0.9,-1.6 -1.3,-3.3 -1.3,-5.2 0,-1.9 0.4,-3.6 1.3,-5.2 0.9,-1.6 2.2,-2.9 3.9,-3.9 1.8,-1 3.9,-1.5 6.5,-1.5 1.9,0 3.6,0.3 5.1,0.8 1.5,0.5 2.7,1.3 3.7,2.3 1,1 1.7,2.1 2.2,3.4 0.5,1.3 0.7,2.8 0.7,4.2 z m -6.3,0 c 0,-0.8 -0.1,-1.5 -0.3,-2.1 -0.2,-0.6 -0.6,-1.2 -1,-1.7 -0.5,-0.5 -1,-0.8 -1.7,-1.1 -0.7,-0.3 -1.4,-0.4 -2.3,-0.4 -1.7,0 -3,0.5 -3.9,1.5 -0.9,1 -1.4,2.2 -1.4,3.8 0,1.6 0.5,2.8 1.4,3.8 1,1 2.3,1.5 3.9,1.5 1.1,0 2.1,-0.2 2.9,-0.7 0.8,-0.5 1.4,-1.1 1.8,-1.9 0.3,-0.7 0.6,-1.6 0.6,-2.7 z"
   id="path910" />
		<path
   class="st11"
   d="m 566.9,425.8 h -7.5 v 15.6 h -6.2 v -15.6 h -7.5 v -5 H 567 Z"
   id="path912" />
		<path
   class="st11"
   d="m 517.5,464.4 c -0.4,0.2 -0.8,0.3 -1.1,0.4 -0.3,0.1 -0.6,0.2 -0.9,0.3 -0.3,0.1 -0.7,0.2 -1.3,0.3 -0.9,0.2 -1.9,0.4 -2.8,0.5 -0.9,0.1 -1.9,0.2 -3,0.2 -2.1,0 -4,-0.4 -5.8,-1.1 -1.8,-0.8 -3.2,-1.9 -4.3,-3.5 -1.1,-1.6 -1.6,-3.6 -1.6,-5.9 0,-1.5 0.3,-3 0.8,-4.4 0.5,-1.4 1.4,-2.6 2.5,-3.5 0.9,-0.7 1.9,-1.3 2.8,-1.7 1,-0.4 1.9,-0.6 2.8,-0.8 0.9,-0.1 1.9,-0.2 3,-0.2 1.8,0 3.3,0.1 4.5,0.4 1.2,0.3 2.5,0.6 3.9,1.1 v 4.9 c -0.9,-0.5 -1.9,-1 -3,-1.4 -1,-0.4 -2.3,-0.5 -3.9,-0.5 -1.8,0 -3.2,0.3 -4.3,1 -1.1,0.7 -1.8,1.5 -2.2,2.4 -0.4,0.9 -0.6,1.9 -0.6,2.7 0,1 0.2,2 0.7,2.9 0.5,0.9 1.2,1.6 2.2,2.1 1,0.5 2.2,0.8 3.5,0.8 0.8,0 1.6,-0.1 2.5,-0.3 v -2.4 h -2.8 v -4.1 h 8.2 v 9.8 z"
   id="path914" />
		<path
   class="st11"
   d="m 542.3,465.9 h -6.7 l -1.6,-3.7 c -0.6,-1.3 -1.1,-2.3 -1.6,-2.9 -0.5,-0.6 -0.9,-1 -1.4,-1.2 -0.5,-0.2 -1,-0.3 -1.7,-0.3 h -0.7 v 8 h -6.2 V 445.2 H 533 c 1.7,0 3.1,0.3 4.2,1 1.1,0.7 1.9,1.5 2.4,2.5 0.5,1 0.7,1.9 0.7,2.8 0,1 -0.2,1.9 -0.6,2.6 -0.4,0.7 -0.8,1.2 -1.3,1.6 -0.4,0.3 -0.9,0.6 -1.5,0.9 0.7,0.4 1.2,0.8 1.6,1.4 0.4,0.6 1,1.6 1.8,3.2 z m -8.4,-14.1 c 0,-1 -0.3,-1.6 -0.9,-2 -0.6,-0.4 -1.6,-0.6 -3,-0.6 h -1.3 v 5 h 1.3 c 1.5,0 2.6,-0.2 3.1,-0.5 0.5,-0.3 0.8,-1 0.8,-1.9 z"
   id="path916" />
		<path
   class="st11"
   d="m 551.3,465.9 h -6.2 v -20.6 h 6.2 z"
   id="path918" />
		<path
   class="st11"
   d="m 577.7,455.9 c 0,2.1 -0.4,3.8 -1.2,5.1 -0.8,1.3 -1.7,2.3 -2.7,3.1 -1.5,1.2 -3.5,1.7 -6.2,1.7 h -11.1 v -20.6 h 8.6 c 1.3,0 2.4,0.1 3.3,0.2 0.9,0.1 1.7,0.3 2.5,0.6 0.8,0.3 1.4,0.5 1.9,0.8 0.5,0.3 1,0.6 1.4,1 0.7,0.6 1.3,1.3 1.8,2 0.5,0.7 1,1.7 1.3,2.7 0.2,1.1 0.4,2.2 0.4,3.4 z m -6.3,-0.2 c 0,-1.7 -0.3,-3 -1,-3.9 -0.6,-0.9 -1.4,-1.6 -2.3,-1.9 -0.9,-0.3 -1.8,-0.5 -2.7,-0.5 h -2.6 v 12.2 h 2.6 c 1.6,0 3,-0.4 4.2,-1.2 1.2,-0.8 1.8,-2.3 1.8,-4.7 z"
   id="path920" />
		<path
   class="st11"
   d="m 516.9,484.5 c 0,1.8 -0.6,3.2 -1.8,4.2 -1.2,1.1 -2.9,1.6 -5.1,1.6 h -11.9 v -20.6 h 9.9 c 1.3,0 2.4,0.1 3.4,0.4 1,0.2 1.7,0.6 2.3,1 0.6,0.4 1,0.9 1.3,1.5 0.3,0.6 0.4,1.2 0.4,1.9 0,0.8 -0.1,1.4 -0.4,2.1 -0.3,0.7 -0.7,1.2 -1.1,1.6 -0.4,0.4 -0.9,0.7 -1.3,0.9 1.4,0.6 2.5,1.3 3.2,2.1 0.7,0.8 1.1,2 1.1,3.3 z m -7.3,-8.8 c 0,-1 -0.3,-1.6 -1,-2 -0.7,-0.4 -1.7,-0.5 -3.1,-0.5 h -1.3 v 4.9 h 1.3 c 1.4,0 2.4,-0.2 3.1,-0.5 0.7,-0.2 1,-0.9 1,-1.9 z m 1,8.6 c 0,-1.8 -1.3,-2.6 -3.8,-2.6 h -2.5 v 5.3 h 2.5 c 2.6,-0.1 3.8,-1 3.8,-2.7 z"
   id="path922" />
		<path
   class="st11"
   d="m 542.9,480.1 c 0,1.9 -0.4,3.7 -1.3,5.3 -0.9,1.6 -2.2,2.9 -4,3.8 -1.8,0.9 -3.9,1.4 -6.4,1.4 -2.5,0 -4.7,-0.5 -6.5,-1.5 -1.8,-1 -3.1,-2.3 -3.9,-3.9 -0.9,-1.6 -1.3,-3.3 -1.3,-5.2 0,-1.9 0.4,-3.6 1.3,-5.2 0.9,-1.6 2.2,-2.9 3.9,-3.9 1.8,-1 3.9,-1.5 6.5,-1.5 1.9,0 3.6,0.3 5.1,0.8 1.5,0.5 2.7,1.3 3.7,2.3 1,1 1.7,2.1 2.2,3.4 0.5,1.3 0.7,2.7 0.7,4.2 z m -6.4,0 c 0,-0.8 -0.1,-1.5 -0.3,-2.1 -0.2,-0.6 -0.6,-1.2 -1,-1.7 -0.5,-0.5 -1,-0.8 -1.7,-1.1 -0.7,-0.3 -1.4,-0.4 -2.3,-0.4 -1.7,0 -3,0.5 -3.9,1.5 -0.9,1 -1.4,2.2 -1.4,3.8 0,1.6 0.5,2.8 1.4,3.8 1,1 2.3,1.5 3.9,1.5 1.1,0 2.1,-0.2 2.9,-0.7 0.8,-0.5 1.4,-1.1 1.8,-1.9 0.4,-0.8 0.6,-1.7 0.6,-2.7 z"
   id="path924" />
		<path
   class="st11"
   d="m 568.7,480.1 c 0,1.9 -0.4,3.7 -1.3,5.3 -0.9,1.6 -2.2,2.9 -4,3.8 -1.8,0.9 -3.9,1.4 -6.4,1.4 -2.5,0 -4.7,-0.5 -6.5,-1.5 -1.8,-1 -3.1,-2.3 -3.9,-3.9 -0.9,-1.6 -1.3,-3.3 -1.3,-5.2 0,-1.9 0.4,-3.6 1.3,-5.2 0.9,-1.6 2.2,-2.9 3.9,-3.9 1.8,-1 3.9,-1.5 6.5,-1.5 1.9,0 3.6,0.3 5.1,0.8 1.5,0.5 2.7,1.3 3.7,2.3 1,1 1.7,2.1 2.2,3.4 0.5,1.3 0.7,2.7 0.7,4.2 z m -6.3,0 c 0,-0.8 -0.1,-1.5 -0.3,-2.1 -0.2,-0.6 -0.6,-1.2 -1,-1.7 -0.5,-0.5 -1,-0.8 -1.7,-1.1 -0.7,-0.3 -1.4,-0.4 -2.3,-0.4 -1.7,0 -3,0.5 -3.9,1.5 -0.9,1 -1.4,2.2 -1.4,3.8 0,1.6 0.5,2.8 1.4,3.8 1,1 2.3,1.5 3.9,1.5 1.1,0 2.1,-0.2 2.9,-0.7 0.8,-0.5 1.4,-1.1 1.8,-1.9 0.4,-0.8 0.6,-1.7 0.6,-2.7 z"
   id="path926" />
		<path
   class="st11"
   d="m 594.2,490.4 h -7.6 l -7.9,-9.6 v 9.6 h -6.2 v -20.6 h 6.2 v 9.2 l 7.5,-9.2 h 6.7 l -7.7,9.6 z"
   id="path928" />
	</g>
	<line
   id="XMLID_53_"
   class="st12"
   x1="422"
   y1="397"
   x2="422"
   y2="509" />
	<rect
   id="XMLID_51_"
   x="388"
   y="397"
   class="st13"
   width="17"
   height="112" />
	<rect
   id="XMLID_56_"
   x="624"
   y="397"
   class="st14"
   width="17"
   height="112" />
	<rect
   id="XMLID_3_"
   x="388"
   y="397"
   class="st9"
   width="294"
   height="112" />
	<path
   id="XMLID_4_"
   class="st15"
   d="m 624.2,687 h -12.3 c -3.2,0 -5.8,-2.6 -5.8,-5.8 V 280.8 c 0,-3.2 2.6,-5.8 5.8,-5.8 h 12.3 c 3.2,0 5.8,2.6 5.8,5.8 v 400.3 c 0,3.3 -2.6,5.9 -5.8,5.9 z" />
	<path
   id="XMLID_2_-9"
   class="st9"
   d="m 624.2,687 h -12.3 c -3.2,0 -5.8,-2.6 -5.8,-5.8 V 280.8 c 0,-3.2 2.6,-5.8 5.8,-5.8 h 12.3 c 3.2,0 5.8,2.6 5.8,5.8 v 400.3 c 0,3.3 -2.6,5.9 -5.8,5.9 z" />
	<polygon
   id="XMLID_20_"
   class="st16"
   points="449,679 449,724.7 419,708 419,679 " />
	<rect
   id="XMLID_60_-1"
   x="419"
   y="679"
   class="st17"
   width="30"
   height="11.3" />
	<polygon
   id="XMLID_5_"
   class="st9"
   points="449,679 449,724.7 419,708 419,679 " />
	<rect
   id="XMLID_22_"
   x="290"
   y="362"
   class="st18"
   width="32"
   height="151" />
	<rect
   id="XMLID_32_-7"
   x="290"
   y="362"
   class="st18"
   width="32"
   height="151" />
	<rect
   id="XMLID_33_-7"
   x="290"
   y="362"
   class="st19"
   width="10"
   height="151" />
	<rect
   id="XMLID_35_-1"
   x="313"
   y="362"
   class="st20"
   width="9"
   height="151" />
	<rect
   id="XMLID_6_"
   x="290"
   y="362"
   class="st9"
   width="32"
   height="151" />
	<path
   id="XMLID_23_"
   class="st21"
   d="m 322.4,615 c -10.8,0 -21.7,0 -32.5,0 -2.1,-22 -2.1,-45 0,-68 10.8,0 21.7,0 32.5,0 2.1,23 2.1,46 0,68 z" />
	<path
   id="XMLID_25_"
   class="st18"
   d="m 322.4,615 c -10.8,0 -21.7,0 -32.5,0 -2.1,-22 -2.1,-45 0,-68 10.8,0 21.7,0 32.5,0 2.1,23 2.1,46 0,68 z" />
	<path
   id="XMLID_59_"
   class="st20"
   d="m 322.4,547 c -2.6,0 -5.2,0 -7.8,0 2.1,23 2.1,46 0,68 2.6,0 5.2,0 7.8,0 2.1,-22 2.1,-45 0,-68 z" />
	<path
   id="XMLID_37_-1"
   class="st22"
   d="m 301.4,614 c -1.6,0 -3.1,0 -4.7,0 -2.1,-21.7 -2.1,-44.3 -0.1,-67 1.6,0 3.2,0 4.8,0 -2,22.7 -2,45.3 0,67 z" />
	<path
   id="XMLID_10_"
   class="st9"
   d="m 322.4,615 c -10.8,0 -21.7,0 -32.5,0 -2.1,-22 -2.1,-45 0,-68 10.8,0 21.7,0 32.5,0 2.1,23 2.1,46 0,68 z" />
	<rect
   id="XMLID_8_"
   x="288"
   y="571"
   class="st9"
   width="36"
   height="21" />
	<path
   id="XMLID_9_"
   class="st9"
   d="m 322.4,547 c -10.8,0 -21.7,0 -32.5,0 6.7,-10 6.7,-23 0,-34 10.8,0 21.7,0 32.5,0 -6.7,11 -6.7,24 0,34 z" />
	<path
   id="XMLID_26_"
   class="st23"
   d="m 310.3,662 c 5.4,-16 11.9,-31 12.1,-47 h -32.5 c 0.2,16 6.7,31 12.1,47 z" />
	<path
   id="XMLID_39_-5"
   class="st24"
   d="m 322.4,615 c 0,0.3 0,0.7 0,1 H 301 c 0.1,15.7 2.9,30.7 6.2,46 H 302 c -5.4,-16 -11.9,-31 -12.1,-47 z" />
	<path
   id="XMLID_14_"
   class="st9"
   d="m 310.3,662 c 5.4,-16 11.9,-31 12.1,-47 h -32.5 c 0.2,16 6.7,31 12.1,47 z" />
	<rect
   id="XMLID_11_"
   x="302"
   y="662"
   class="st9"
   width="8"
   height="6" />
	<line
   id="XMLID_13_"
   class="st9"
   x1="306"
   y1="669"
   x2="306"
   y2="682" />
	<rect
   id="XMLID_12_"
   x="294"
   y="340"
   class="st9"
   width="24"
   height="22" />
	<rect
   id="XMLID_29_"
   x="294"
   y="340"
   class="st4"
   width="24"
   height="22" />
	<path
   id="XMLID_30_-9"
   class="st23"
   d="m 315,340 h -18 v -25.7 c 0,-3.5 3.2,-6.3 6.7,-6.3 h 5 c 3.5,0 6.3,2.8 6.3,6.3 z" />
	<path
   id="XMLID_16_"
   class="st9"
   d="m 315,340 h -18 v -25.7 c 0,-3.5 3.2,-6.3 6.7,-6.3 h 5 c 3.5,0 6.3,2.8 6.3,6.3 z" />
	<rect
   id="XMLID_27_-7"
   x="302"
   y="376"
   class="st23"
   width="31"
   height="18" />
	<rect
   id="XMLID_15_"
   x="302"
   y="376"
   class="st9"
   width="31"
   height="18" />
	<polygon
   id="XMLID_28_-7"
   class="st23"
   points="333,394 333,455.3 322,440.8 322,394 " />
	<polygon
   id="XMLID_17_"
   class="st9"
   points="333,394 333,455.3 322,440.8 322,394 " />
	<path
   id="XMLID_52_"
   class="st25"
   d="M 422,397" />
</g></g></g><style
     type="text/css"
     id="style502">
	.st0{fill:#9057EA;}
	.st1{fill:#EEF2F4;}
	.st2{fill:#543889;stroke:#543889;stroke-width:8;stroke-linecap:round;stroke-linejoin:round;stroke-miterlimit:10;}
	.st3{fill:#FFA124;}
	.st4{opacity:0.34;fill:#3F4545;}
	.st5{opacity:0.78;fill:#3F4545;}
	.st6{fill:none;stroke:#1F2120;stroke-width:8;stroke-linecap:round;stroke-linejoin:round;stroke-miterlimit:10;}
	.st7{fill:#B5B4B4;}
	.st8{opacity:0.39;fill:#B5B4B4;}
	.st9{opacity:0.5;fill:#FFFFFF;}
	.st10{fill:#FF1A1A;}
	.st11{opacity:0.63;fill:#E02F2F;}
	.st12{fill:#EA4949;}
	.st13{fill:#E02F2F;}
	.st14{fill:none;stroke:#1F2120;stroke-width:10;stroke-linecap:round;stroke-linejoin:round;stroke-miterlimit:10;}
	.st15{fill:none;stroke:#543889;stroke-width:8;stroke-linecap:round;stroke-linejoin:round;stroke-miterlimit:10;}
	.st16{opacity:0.2;fill:#FF1A1A;}
	.st17{opacity:0.68;fill:#3F4545;}
	.st18{fill:#EAEAEA;}
	.st19{opacity:0.37;fill:#B5B4B4;}
	.st20{fill:#1F2120;}
	.st21{fill:#47A942;}
	.st22{fill:#C4C4C4;}
	.st23{fill:#CCCC00;}
	.st24{fill:#00B3C6;}
	.st25{opacity:0.53;fill:#00B3C6;}
	.st26{fill:#414141;}
	.st27{fill:#FFC41D;}
	.st28{opacity:0.4;fill:#414141;}
</style><style
     type="text/css"
     id="style1265">
	.st0{fill:#FFFFFF;}
	.st1{fill:#8F6D5D;}
	.st2{opacity:0.15;}
	.st3{fill:none;stroke:#474747;stroke-width:6;stroke-linecap:round;stroke-linejoin:round;stroke-miterlimit:10;}
	.st4{fill:#77BA85;}
	.st5{fill:#F6F9EA;}
	.st6{fill:#97CD78;}
	.st7{opacity:0.32;fill:#474747;stroke:#474747;stroke-width:6;stroke-linecap:round;stroke-linejoin:round;stroke-miterlimit:10;}
	.st8{opacity:0.15;fill:none;stroke:#474747;stroke-width:6;stroke-linecap:round;stroke-linejoin:round;stroke-miterlimit:10;}
	.st9{fill:#F58870;}
	.st10{fill:#DD7868;}
	.st11{fill:#FFA399;}
	.st12{opacity:0.3;fill:#474747;stroke:#474747;stroke-width:6;stroke-linecap:round;stroke-linejoin:round;stroke-miterlimit:10;}
	.st13{opacity:0.46;}
	.st14{fill:none;stroke:#474747;stroke-width:4;stroke-linecap:round;stroke-linejoin:round;stroke-dasharray:13.9577,9.9698;}
	.st15{fill:#F79765;}
	.st16{fill:#E27444;}
	.st17{fill:#FFB797;}
	.st18{fill:none;stroke:#474747;stroke-width:4;stroke-linecap:round;stroke-linejoin:round;stroke-dasharray:9.8393,11.8071;}
	.st19{opacity:0.6;}
	.st20{fill:#FFFCEE;}
	.st21{fill:#FDB740;}
	.st22{opacity:0.88;fill:#FFF3C0;}
	.st23{fill:#F29E25;}
</style><style
     type="text/css"
     id="style484">
	.st0{fill:#07B594;}
	.st1{fill:#EEF2F4;}
	.st2{fill:#0A7362;stroke:#0A7362;stroke-width:8;stroke-linecap:round;stroke-linejoin:round;stroke-miterlimit:10;}
	.st3{fill:none;stroke:#0A7362;stroke-width:8;stroke-linecap:round;stroke-linejoin:round;stroke-miterlimit:10;}
	.st4{fill:#102D3B;}
	.st5{fill:#4C5B60;}
	.st6{fill:#3E4B4F;}
	.st7{opacity:0.3;fill:#CCDDE5;enable-background:new    ;}
	.st8{opacity:0.11;clip-path:url(#XMLID_58_);}
	.st9{fill:none;stroke:#102D3B;stroke-width:8;stroke-linecap:round;stroke-linejoin:round;stroke-miterlimit:10;}
	.st10{fill:#FF9852;}
	.st11{fill:#D85639;}
	.st12{opacity:0.6;fill:none;stroke:#D85639;stroke-width:8;stroke-miterlimit:10;}
	.st13{fill:#FDBA5D;}
	.st14{opacity:0.61;fill:#D85639;enable-background:new    ;}
	.st15{fill:#B7C8CE;}
	.st16{fill:#EA3939;}
	.st17{opacity:0.62;fill:#EA3939;enable-background:new    ;}
	.st18{fill:#526066;}
	.st19{opacity:0.64;fill:#526066;enable-background:new    ;}
	.st20{opacity:0.3;fill:#526066;enable-background:new    ;}
	.st21{fill:#42708A;}
	.st22{opacity:0.73;fill:#CCDDE5;enable-background:new    ;}
	.st23{fill:#CCDDE5;}
	.st24{fill:#FFFFFF;}
	
		.st25{opacity:0.38;fill:none;stroke:#102D3B;stroke-width:8;stroke-linecap:round;stroke-linejoin:round;stroke-miterlimit:10;enable-background:new    ;}
</style></svg>
